%
T01C0.025800
X6496Y21375
X6496Y20375
X6496Y18875
X5496Y18875
X5496Y20375
X5496Y21375
X8496Y9375
X9496Y9375
X9012Y13375
X10981Y13375
X10496Y4875
X11496Y4875
X8496Y29875
X21375Y49895
X20375Y49895
X18875Y49895
X18875Y50895
X20375Y50895
X21375Y50895
X9375Y47895
X9375Y46895
X13375Y47379
X13375Y45410
X4875Y45895
X4875Y44895
X29875Y47895
X18642Y21375
X18642Y20375
X18642Y18875
X17642Y18875
X17642Y20375
X17642Y21375
X20642Y9375
X21642Y9375
X21158Y13375
X23127Y13375
X22642Y4875
X23642Y4875
X20642Y29875
X21375Y62041
X20375Y62041
X18875Y62041
X18875Y63041
X20375Y63041
X21375Y63041
X9375Y60041
X9375Y59041
X13375Y59525
X13375Y57556
X4875Y58041
X4875Y57041
X29875Y60041
X45667Y9000
X44667Y9000
X43167Y9000
X43167Y10000
X44667Y10000
X45667Y10000
X33667Y7000
X33667Y6000
X37667Y6484
X37667Y4515
X29167Y5000
X29167Y4000
X54167Y7000
X45667Y21146
X44667Y21146
X43167Y21146
X43167Y22146
X44667Y22146
X45667Y22146
X33667Y19146
X33667Y18146
X37667Y18630
X37667Y16661
X29167Y17146
X29167Y16146
X54167Y19146
X45667Y33292
X44667Y33292
X43167Y33292
X43167Y34292
X44667Y34292
X45667Y34292
X33667Y31292
X33667Y30292
X37667Y30776
X37667Y28807
X29167Y29292
X29167Y28292
X54167Y31292
X21375Y74187
X20375Y74187
X18875Y74187
X18875Y75187
X20375Y75187
X21375Y75187
X9375Y72187
X9375Y71187
X13375Y71671
X13375Y69702
X4875Y70187
X4875Y69187
X29875Y72187
X47391Y57813
X47391Y56813
X47391Y55313
X46391Y55313
X46391Y56813
X46391Y57813
X49391Y45813
X50391Y45813
X49907Y49813
X51876Y49813
X51391Y41313
X52391Y41313
X49391Y66313
X59537Y57813
X59537Y56813
X59537Y55313
X58537Y55313
X58537Y56813
X58537Y57813
X61537Y45813
X62537Y45813
X62053Y49813
X64022Y49813
X63537Y41313
X64537Y41313
X61537Y66313
T02C0.033450
X6496Y13375
X7496Y13375
X7996Y12375
X7996Y11375
X7496Y16375
X7496Y17375
X7496Y18875
X6496Y16375
X5996Y22875
X5996Y26875
X5996Y27875
X5996Y31875
X5996Y32875
X5996Y36875
X7496Y34875
X7496Y38875
X9496Y38875
X9496Y34875
X11496Y34875
X11496Y38875
X11496Y18875
X11496Y17375
X11996Y12375
X11996Y11375
X7496Y29375
X7496Y28375
X7496Y27375
X7496Y26375
X7496Y25375
X7496Y24375
X7496Y23375
X7496Y22375
X7496Y21375
X7496Y20375
X8996Y15375
X9496Y14625
X9996Y15375
X10496Y20375
X10496Y21375
X10496Y22375
X10496Y23375
X10496Y24375
X10496Y25375
X10496Y26375
X10496Y27375
X10496Y28375
X10496Y29375
X10496Y30375
X10496Y31375
X10496Y32375
X10496Y33375
X9496Y39875
X9496Y40875
X7496Y40875
X7496Y39875
X7496Y33375
X7496Y32375
X7496Y31375
X7496Y30375
X11496Y39875
X11496Y40875
X11496Y9875
X11496Y8875
X12246Y9375
X5996Y8875
X5996Y9875
X4378Y29625
X4378Y30725
X3615Y30225
X3615Y29025
X13375Y49895
X13375Y48895
X12375Y48395
X11375Y48395
X16375Y48895
X17375Y48895
X18875Y48895
X16375Y49895
X22875Y50395
X26875Y50395
X27875Y50395
X31875Y50395
X32875Y50395
X36875Y50395
X34875Y48895
X38875Y48895
X38875Y46895
X34875Y46895
X34875Y44895
X38875Y44895
X18875Y44895
X17375Y44895
X12375Y44395
X11375Y44395
X29375Y48895
X28375Y48895
X27375Y48895
X26375Y48895
X25375Y48895
X24375Y48895
X23375Y48895
X22375Y48895
X21375Y48895
X20375Y48895
X15375Y47395
X14625Y46895
X15375Y46395
X20375Y45895
X21375Y45895
X22375Y45895
X23375Y45895
X24375Y45895
X25375Y45895
X26375Y45895
X27375Y45895
X28375Y45895
X29375Y45895
X30375Y45895
X31375Y45895
X32375Y45895
X33375Y45895
X39875Y46895
X40875Y46895
X40875Y48895
X39875Y48895
X33375Y48895
X32375Y48895
X31375Y48895
X30375Y48895
X39875Y44895
X40875Y44895
X9875Y44895
X8875Y44895
X9375Y44145
X8875Y50395
X9875Y50395
X29625Y52013
X30725Y52013
X30225Y52776
X29025Y52776
X18642Y13375
X19642Y13375
X20142Y12375
X20142Y11375
X19642Y16375
X19642Y17375
X19642Y18875
X18642Y16375
X18142Y22875
X18142Y26875
X18142Y27875
X18142Y31875
X18142Y32875
X18142Y36875
X19642Y34875
X19642Y38875
X21642Y38875
X21642Y34875
X23642Y34875
X23642Y38875
X23642Y18875
X23642Y17375
X24142Y12375
X24142Y11375
X19642Y29375
X19642Y28375
X19642Y27375
X19642Y26375
X19642Y25375
X19642Y24375
X19642Y23375
X19642Y22375
X19642Y21375
X19642Y20375
X21142Y15375
X21642Y14625
X22142Y15375
X22642Y20375
X22642Y21375
X22642Y22375
X22642Y23375
X22642Y24375
X22642Y25375
X22642Y26375
X22642Y27375
X22642Y28375
X22642Y29375
X22642Y30375
X22642Y31375
X22642Y32375
X22642Y33375
X21642Y39875
X21642Y40875
X19642Y40875
X19642Y39875
X19642Y33375
X19642Y32375
X19642Y31375
X19642Y30375
X23642Y39875
X23642Y40875
X23642Y9875
X23642Y8875
X24392Y9375
X18142Y8875
X18142Y9875
X16524Y29625
X16524Y30725
X15761Y30225
X15761Y29025
X13375Y62041
X13375Y61041
X12375Y60541
X11375Y60541
X16375Y61041
X17375Y61041
X18875Y61041
X16375Y62041
X22875Y62541
X26875Y62541
X27875Y62541
X31875Y62541
X32875Y62541
X36875Y62541
X34875Y61041
X38875Y61041
X38875Y59041
X34875Y59041
X34875Y57041
X38875Y57041
X18875Y57041
X17375Y57041
X12375Y56541
X11375Y56541
X29375Y61041
X28375Y61041
X27375Y61041
X26375Y61041
X25375Y61041
X24375Y61041
X23375Y61041
X22375Y61041
X21375Y61041
X20375Y61041
X15375Y59541
X14625Y59041
X15375Y58541
X20375Y58041
X21375Y58041
X22375Y58041
X23375Y58041
X24375Y58041
X25375Y58041
X26375Y58041
X27375Y58041
X28375Y58041
X29375Y58041
X30375Y58041
X31375Y58041
X32375Y58041
X33375Y58041
X39875Y59041
X40875Y59041
X40875Y61041
X39875Y61041
X33375Y61041
X32375Y61041
X31375Y61041
X30375Y61041
X39875Y57041
X40875Y57041
X9875Y57041
X8875Y57041
X9375Y56291
X8875Y62541
X9875Y62541
X29625Y64159
X30725Y64159
X30225Y64922
X29025Y64922
X37667Y9000
X37667Y8000
X36667Y7500
X35667Y7500
X40667Y8000
X41667Y8000
X43167Y8000
X40667Y9000
X47167Y9500
X51167Y9500
X52167Y9500
X56167Y9500
X57167Y9500
X61167Y9500
X59167Y8000
X63167Y8000
X63167Y6000
X59167Y6000
X59167Y4000
X63167Y4000
X43167Y4000
X41667Y4000
X36667Y3500
X35667Y3500
X53667Y8000
X52667Y8000
X51667Y8000
X50667Y8000
X49667Y8000
X48667Y8000
X47667Y8000
X46667Y8000
X45667Y8000
X44667Y8000
X39667Y6500
X38917Y6000
X39667Y5500
X44667Y5000
X45667Y5000
X46667Y5000
X47667Y5000
X48667Y5000
X49667Y5000
X50667Y5000
X51667Y5000
X52667Y5000
X53667Y5000
X54667Y5000
X55667Y5000
X56667Y5000
X57667Y5000
X64167Y6000
X65167Y6000
X65167Y8000
X64167Y8000
X57667Y8000
X56667Y8000
X55667Y8000
X54667Y8000
X64167Y4000
X65167Y4000
X34167Y4000
X33167Y4000
X33667Y3250
X33167Y9500
X34167Y9500
X53917Y11118
X55017Y11118
X54517Y11881
X53317Y11881
X37667Y21146
X37667Y20146
X36667Y19646
X35667Y19646
X40667Y20146
X41667Y20146
X43167Y20146
X40667Y21146
X47167Y21646
X51167Y21646
X52167Y21646
X56167Y21646
X57167Y21646
X61167Y21646
X59167Y20146
X63167Y20146
X63167Y18146
X59167Y18146
X59167Y16146
X63167Y16146
X43167Y16146
X41667Y16146
X36667Y15646
X35667Y15646
X53667Y20146
X52667Y20146
X51667Y20146
X50667Y20146
X49667Y20146
X48667Y20146
X47667Y20146
X46667Y20146
X45667Y20146
X44667Y20146
X39667Y18646
X38917Y18146
X39667Y17646
X44667Y17146
X45667Y17146
X46667Y17146
X47667Y17146
X48667Y17146
X49667Y17146
X50667Y17146
X51667Y17146
X52667Y17146
X53667Y17146
X54667Y17146
X55667Y17146
X56667Y17146
X57667Y17146
X64167Y18146
X65167Y18146
X65167Y20146
X64167Y20146
X57667Y20146
X56667Y20146
X55667Y20146
X54667Y20146
X64167Y16146
X65167Y16146
X34167Y16146
X33167Y16146
X33667Y15396
X33167Y21646
X34167Y21646
X53917Y23264
X55017Y23264
X54517Y24027
X53317Y24027
X37667Y33292
X37667Y32292
X36667Y31792
X35667Y31792
X40667Y32292
X41667Y32292
X43167Y32292
X40667Y33292
X47167Y33792
X51167Y33792
X52167Y33792
X56167Y33792
X57167Y33792
X61167Y33792
X59167Y32292
X63167Y32292
X63167Y30292
X59167Y30292
X59167Y28292
X63167Y28292
X43167Y28292
X41667Y28292
X36667Y27792
X35667Y27792
X53667Y32292
X52667Y32292
X51667Y32292
X50667Y32292
X49667Y32292
X48667Y32292
X47667Y32292
X46667Y32292
X45667Y32292
X44667Y32292
X39667Y30792
X38917Y30292
X39667Y29792
X44667Y29292
X45667Y29292
X46667Y29292
X47667Y29292
X48667Y29292
X49667Y29292
X50667Y29292
X51667Y29292
X52667Y29292
X53667Y29292
X54667Y29292
X55667Y29292
X56667Y29292
X57667Y29292
X64167Y30292
X65167Y30292
X65167Y32292
X64167Y32292
X57667Y32292
X56667Y32292
X55667Y32292
X54667Y32292
X64167Y28292
X65167Y28292
X34167Y28292
X33167Y28292
X33667Y27542
X33167Y33792
X34167Y33792
X53917Y35410
X55017Y35410
X54517Y36173
X53317Y36173
X13375Y74187
X13375Y73187
X12375Y72687
X11375Y72687
X16375Y73187
X17375Y73187
X18875Y73187
X16375Y74187
X22875Y74687
X26875Y74687
X27875Y74687
X31875Y74687
X32875Y74687
X36875Y74687
X34875Y73187
X38875Y73187
X38875Y71187
X34875Y71187
X34875Y69187
X38875Y69187
X18875Y69187
X17375Y69187
X12375Y68687
X11375Y68687
X29375Y73187
X28375Y73187
X27375Y73187
X26375Y73187
X25375Y73187
X24375Y73187
X23375Y73187
X22375Y73187
X21375Y73187
X20375Y73187
X15375Y71687
X14625Y71187
X15375Y70687
X20375Y70187
X21375Y70187
X22375Y70187
X23375Y70187
X24375Y70187
X25375Y70187
X26375Y70187
X27375Y70187
X28375Y70187
X29375Y70187
X30375Y70187
X31375Y70187
X32375Y70187
X33375Y70187
X39875Y71187
X40875Y71187
X40875Y73187
X39875Y73187
X33375Y73187
X32375Y73187
X31375Y73187
X30375Y73187
X39875Y69187
X40875Y69187
X9875Y69187
X8875Y69187
X9375Y68437
X8875Y74687
X9875Y74687
X29625Y76305
X30725Y76305
X30225Y77068
X29025Y77068
X47391Y49813
X48391Y49813
X48891Y48813
X48891Y47813
X48391Y52813
X48391Y53813
X48391Y55313
X47391Y52813
X46891Y59313
X46891Y63313
X46891Y64313
X46891Y68313
X46891Y69313
X46891Y73313
X48391Y71313
X48391Y75313
X50391Y75313
X50391Y71313
X52391Y71313
X52391Y75313
X52391Y55313
X52391Y53813
X52891Y48813
X52891Y47813
X48391Y65813
X48391Y64813
X48391Y63813
X48391Y62813
X48391Y61813
X48391Y60813
X48391Y59813
X48391Y58813
X48391Y57813
X48391Y56813
X49891Y51813
X50391Y51063
X50891Y51813
X51391Y56813
X51391Y57813
X51391Y58813
X51391Y59813
X51391Y60813
X51391Y61813
X51391Y62813
X51391Y63813
X51391Y64813
X51391Y65813
X51391Y66813
X51391Y67813
X51391Y68813
X51391Y69813
X50391Y76313
X50391Y77313
X48391Y77313
X48391Y76313
X48391Y69813
X48391Y68813
X48391Y67813
X48391Y66813
X52391Y76313
X52391Y77313
X52391Y46313
X52391Y45313
X53141Y45813
X46891Y45313
X46891Y46313
X45273Y66063
X45273Y67163
X44510Y66663
X44510Y65463
X59537Y49813
X60537Y49813
X61037Y48813
X61037Y47813
X60537Y52813
X60537Y53813
X60537Y55313
X59537Y52813
X59037Y59313
X59037Y63313
X59037Y64313
X59037Y68313
X59037Y69313
X59037Y73313
X60537Y71313
X60537Y75313
X62537Y75313
X62537Y71313
X64537Y71313
X64537Y75313
X64537Y55313
X64537Y53813
X65037Y48813
X65037Y47813
X60537Y65813
X60537Y64813
X60537Y63813
X60537Y62813
X60537Y61813
X60537Y60813
X60537Y59813
X60537Y58813
X60537Y57813
X60537Y56813
X62037Y51813
X62537Y51063
X63037Y51813
X63537Y56813
X63537Y57813
X63537Y58813
X63537Y59813
X63537Y60813
X63537Y61813
X63537Y62813
X63537Y63813
X63537Y64813
X63537Y65813
X63537Y66813
X63537Y67813
X63537Y68813
X63537Y69813
X62537Y76313
X62537Y77313
X60537Y77313
X60537Y76313
X60537Y69813
X60537Y68813
X60537Y67813
X60537Y66813
X64537Y76313
X64537Y77313
X64537Y46313
X64537Y45313
X65287Y45813
X59037Y45313
X59037Y46313
X57419Y66063
X57419Y67163
X56656Y66663
X56656Y65463
T03C0.040000
X11496Y3375
X10496Y3375
X10496Y6325
X11496Y6425
X9496Y6425
X9496Y3375
X11996Y14805
X11996Y15945
X11996Y20375
X12096Y21375
X11996Y22375
X12096Y23375
X11996Y24375
X12096Y25375
X11946Y26875
X12046Y27875
X11946Y28875
X11996Y30305
X11996Y31445
X3375Y44895
X3375Y45895
X6325Y45895
X6425Y44895
X6425Y46895
X3375Y46895
X14805Y44395
X15945Y44395
X20375Y44395
X21375Y44295
X22375Y44395
X23375Y44295
X24375Y44395
X25375Y44295
X26875Y44445
X27875Y44345
X28875Y44445
X30305Y44395
X31445Y44395
X23642Y3375
X22642Y3375
X22642Y6325
X23642Y6425
X21642Y6425
X21642Y3375
X24142Y14805
X24142Y15945
X24142Y20375
X24242Y21375
X24142Y22375
X24242Y23375
X24142Y24375
X24242Y25375
X24092Y26875
X24192Y27875
X24092Y28875
X24142Y30305
X24142Y31445
X3375Y57041
X3375Y58041
X6325Y58041
X6425Y57041
X6425Y59041
X3375Y59041
X14805Y56541
X15945Y56541
X20375Y56541
X21375Y56441
X22375Y56541
X23375Y56441
X24375Y56541
X25375Y56441
X26875Y56591
X27875Y56491
X28875Y56591
X30305Y56541
X31445Y56541
X27667Y4000
X27667Y5000
X30617Y5000
X30717Y4000
X30717Y6000
X27667Y6000
X39097Y3500
X40237Y3500
X44667Y3500
X45667Y3400
X46667Y3500
X47667Y3400
X48667Y3500
X49667Y3400
X51167Y3550
X52167Y3450
X53167Y3550
X54597Y3500
X55737Y3500
X27667Y16146
X27667Y17146
X30617Y17146
X30717Y16146
X30717Y18146
X27667Y18146
X39097Y15646
X40237Y15646
X44667Y15646
X45667Y15546
X46667Y15646
X47667Y15546
X48667Y15646
X49667Y15546
X51167Y15696
X52167Y15596
X53167Y15696
X54597Y15646
X55737Y15646
X27667Y28292
X27667Y29292
X30617Y29292
X30717Y28292
X30717Y30292
X27667Y30292
X39097Y27792
X40237Y27792
X44667Y27792
X45667Y27692
X46667Y27792
X47667Y27692
X48667Y27792
X49667Y27692
X51167Y27842
X52167Y27742
X53167Y27842
X54597Y27792
X55737Y27792
X3375Y69187
X3375Y70187
X6325Y70187
X6425Y69187
X6425Y71187
X3375Y71187
X14805Y68687
X15945Y68687
X20375Y68687
X21375Y68587
X22375Y68687
X23375Y68587
X24375Y68687
X25375Y68587
X26875Y68737
X27875Y68637
X28875Y68737
X30305Y68687
X31445Y68687
X52391Y39813
X51391Y39813
X51391Y42763
X52391Y42863
X50391Y42863
X50391Y39813
X52891Y51243
X52891Y52383
X52891Y56813
X52991Y57813
X52891Y58813
X52991Y59813
X52891Y60813
X52991Y61813
X52841Y63313
X52941Y64313
X52841Y65313
X52891Y66743
X52891Y67883
X64537Y39813
X63537Y39813
X63537Y42763
X64537Y42863
X62537Y42863
X62537Y39813
X65037Y51243
X65037Y52383
X65037Y56813
X65137Y57813
X65037Y58813
X65137Y59813
X65037Y60813
X65137Y61813
X64987Y63313
X65087Y64313
X64987Y65313
X65037Y66743
X65037Y67883
M30
