G75*
G70*
%OFA0B0*%
%FSLAX24Y24*%
%IPPOS*%
%LPD*%
%AMOC8*
5,1,8,0,0,1.08239X$1,22.5*
%
%ADD10C,0.1300*%
%ADD11R,0.0177X0.0590*%
%ADD12C,0.0780*%
%ADD13R,0.0670X0.0749*%
%ADD14C,0.0560*%
%ADD15C,0.0640*%
%ADD16C,0.0690*%
%ADD17R,0.0749X0.0670*%
%ADD18R,0.0840X0.0840*%
%ADD19C,0.0840*%
%ADD20R,0.0300X0.0840*%
%ADD21R,0.0780X0.0780*%
%ADD22R,0.0520X0.0920*%
%ADD23R,0.1457X0.0906*%
%ADD24R,0.0690X0.0690*%
%ADD25C,0.1740*%
%ADD26R,0.0631X0.0631*%
D10*
X001026Y001026D03*
X006017Y006406D03*
X006017Y010906D03*
X006026Y012776D03*
X006026Y017276D03*
X001026Y019151D03*
X054401Y019026D03*
X054400Y001132D03*
D11*
X038064Y002818D03*
X037808Y002818D03*
X037552Y002818D03*
X037296Y002818D03*
X037040Y002818D03*
X036784Y002818D03*
X036528Y002818D03*
X036272Y002818D03*
X036016Y002818D03*
X035760Y002818D03*
X035505Y002818D03*
X035249Y002818D03*
X034993Y002818D03*
X034737Y002818D03*
X034737Y005697D03*
X034993Y005697D03*
X035249Y005697D03*
X035505Y005697D03*
X035760Y005697D03*
X036016Y005697D03*
X036272Y005697D03*
X036528Y005697D03*
X036784Y005697D03*
X037040Y005697D03*
X037296Y005697D03*
X037552Y005697D03*
X037808Y005697D03*
X038064Y005697D03*
D12*
X045400Y005757D03*
X049400Y005757D03*
X049400Y003757D03*
X045400Y003757D03*
X034900Y001282D03*
X033900Y001382D03*
X032900Y001282D03*
X031900Y001382D03*
X030900Y001282D03*
X029900Y001382D03*
X009517Y006906D03*
X008517Y007406D03*
X009517Y007906D03*
X008517Y008406D03*
X009517Y008906D03*
X008517Y009406D03*
X009517Y009906D03*
X017400Y012257D03*
X017400Y013757D03*
X021400Y013757D03*
X022900Y013757D03*
X021400Y012257D03*
X023045Y012150D03*
X027045Y012150D03*
X028920Y012150D03*
X032920Y012150D03*
X035045Y012400D03*
X034900Y013507D03*
X033025Y013757D03*
X029025Y013757D03*
X026900Y013757D03*
X038900Y013507D03*
X040900Y013257D03*
X039045Y012400D03*
X040795Y012150D03*
X044795Y012150D03*
X047045Y012150D03*
X047150Y013257D03*
X044900Y013257D03*
X051045Y012150D03*
X051150Y013257D03*
X009526Y013276D03*
X008526Y013776D03*
X009526Y014276D03*
X008526Y014776D03*
X009526Y015276D03*
X008526Y015776D03*
X009526Y016276D03*
D13*
X013575Y014052D03*
X014678Y014052D03*
X012196Y013964D03*
X011094Y013964D03*
X012476Y011420D03*
X013578Y011420D03*
X014724Y011382D03*
X015826Y011382D03*
X014701Y006757D03*
X013599Y006757D03*
X012451Y006632D03*
X011349Y006632D03*
X015850Y002151D03*
X016952Y002151D03*
X034849Y006757D03*
X035951Y006757D03*
X036599Y001757D03*
X037701Y001757D03*
X013675Y018862D03*
X014748Y018918D03*
X015850Y018918D03*
X012572Y018862D03*
D14*
X019900Y011277D02*
X019900Y010757D01*
X020900Y010757D02*
X020900Y011277D01*
X021900Y011277D02*
X021900Y010757D01*
X025900Y010757D02*
X025900Y011277D01*
X026900Y011277D02*
X026900Y010757D01*
X027900Y010757D02*
X027900Y011277D01*
X031900Y011277D02*
X031900Y010757D01*
X032900Y010757D02*
X032900Y011277D01*
X033900Y011277D02*
X033900Y010757D01*
X037900Y010757D02*
X037900Y011277D01*
X038900Y011277D02*
X038900Y010757D01*
X039900Y010757D02*
X039900Y011277D01*
X043900Y011277D02*
X043900Y010757D01*
X044900Y010757D02*
X044900Y011277D01*
X045900Y011277D02*
X045900Y010757D01*
X049900Y010757D02*
X049900Y011277D01*
X050900Y011277D02*
X050900Y010757D01*
X051900Y010757D02*
X051900Y011277D01*
X051900Y007757D02*
X051900Y007237D01*
X050900Y007237D02*
X050900Y007757D01*
X049900Y007757D02*
X049900Y007237D01*
X045900Y007237D02*
X045900Y007757D01*
X044900Y007757D02*
X044900Y007237D01*
X043900Y007237D02*
X043900Y007757D01*
X039900Y007757D02*
X039900Y007237D01*
X038900Y007237D02*
X038900Y007757D01*
X037900Y007757D02*
X037900Y007237D01*
X040380Y005757D02*
X040900Y005757D01*
X040900Y004757D02*
X040380Y004757D01*
X040380Y003757D02*
X040900Y003757D01*
X043900Y003757D02*
X044420Y003757D01*
X044420Y004757D02*
X043900Y004757D01*
X043900Y005757D02*
X044420Y005757D01*
X033900Y007237D02*
X033900Y007757D01*
X032900Y007757D02*
X032900Y007237D01*
X031900Y007237D02*
X031900Y007757D01*
X027900Y007757D02*
X027900Y007237D01*
X026900Y007237D02*
X026900Y007757D01*
X025900Y007757D02*
X025900Y007237D01*
X021900Y007237D02*
X021900Y007757D01*
X020900Y007757D02*
X020900Y007237D01*
X019900Y007237D02*
X019900Y007757D01*
D15*
X019400Y015457D02*
X019400Y016057D01*
X020400Y016057D02*
X020400Y015457D01*
X021400Y015457D02*
X021400Y016057D01*
X025150Y016057D02*
X025150Y015457D01*
X026150Y015457D02*
X026150Y016057D01*
X027150Y016057D02*
X027150Y015457D01*
X030900Y015457D02*
X030900Y016057D01*
X031900Y016057D02*
X031900Y015457D01*
X032900Y015457D02*
X032900Y016057D01*
X036900Y016057D02*
X036900Y015457D01*
X037900Y015457D02*
X037900Y016057D01*
X038900Y016057D02*
X038900Y015457D01*
X042650Y015457D02*
X042650Y016057D01*
X043650Y016057D02*
X043650Y015457D01*
X044650Y015457D02*
X044650Y016057D01*
X049150Y015807D02*
X049150Y015207D01*
X050150Y015207D02*
X050150Y015807D01*
X051150Y015807D02*
X051150Y015207D01*
D16*
X049134Y014257D03*
X047166Y014257D03*
X042884Y014257D03*
X040916Y014257D03*
X036884Y014507D03*
X034916Y014507D03*
X030759Y014757D03*
X028791Y014757D03*
X025134Y014757D03*
X023166Y014757D03*
X019384Y014632D03*
X017416Y014632D03*
X020775Y005632D03*
X023507Y004652D03*
X026900Y001632D03*
X021382Y001527D03*
D17*
X033400Y003706D03*
X033400Y004809D03*
X039400Y004809D03*
X039400Y003706D03*
X041900Y007706D03*
X041900Y008809D03*
X035900Y008809D03*
X035900Y007706D03*
X029900Y007706D03*
X029900Y008809D03*
X024400Y008809D03*
X024400Y007706D03*
X018775Y007771D03*
X016295Y007599D03*
X016295Y008701D03*
X018775Y006669D03*
X010670Y008974D03*
X010670Y010076D03*
X010746Y015656D03*
X010746Y016758D03*
X016114Y016816D03*
X016114Y015713D03*
X047900Y008809D03*
X047900Y007706D03*
D18*
X051900Y002757D03*
X050900Y018757D03*
X044900Y018757D03*
X038900Y018757D03*
X032900Y018757D03*
X026900Y018757D03*
X021794Y018864D03*
D19*
X019825Y018864D03*
X024932Y018757D03*
X030932Y018757D03*
X036932Y018757D03*
X042932Y018757D03*
X048932Y018757D03*
X051900Y004726D03*
D20*
X015018Y007797D03*
X014518Y007797D03*
X014018Y007797D03*
X013518Y007797D03*
X013018Y007797D03*
X012518Y007797D03*
X012018Y007797D03*
X012018Y010217D03*
X012518Y010217D03*
X013018Y010217D03*
X013518Y010217D03*
X014018Y010217D03*
X014518Y010217D03*
X015018Y010217D03*
X015144Y015065D03*
X014644Y015065D03*
X014144Y015065D03*
X013644Y015065D03*
X013144Y015065D03*
X012644Y015065D03*
X012144Y015065D03*
X012144Y017485D03*
X012644Y017485D03*
X013144Y017485D03*
X013644Y017485D03*
X014144Y017485D03*
X014644Y017485D03*
X015144Y017485D03*
D21*
X008526Y016776D03*
X008517Y010406D03*
D22*
X025990Y003787D03*
X026900Y003787D03*
X027810Y003787D03*
X029990Y004037D03*
X030900Y004037D03*
X031810Y004037D03*
D23*
X026900Y006228D03*
X030900Y006478D03*
D24*
X023507Y005652D03*
X020775Y004632D03*
X025900Y001632D03*
X020382Y001527D03*
D25*
X011543Y003249D03*
X009181Y003249D03*
X010362Y001398D03*
D26*
X040837Y001651D03*
X042215Y001651D03*
M02*
