G75*
G70*
%OFA0B0*%
%FSLAX24Y24*%
%IPPOS*%
%LPD*%
%AMOC8*
5,1,8,0,0,1.08239X$1,22.5*
%
%ADD10C,0.0740*%
%ADD11C,0.0520*%
%ADD12C,0.0600*%
%ADD13C,0.0650*%
%ADD14R,0.0800X0.0800*%
%ADD15C,0.0800*%
%ADD16R,0.0740X0.0740*%
%ADD17R,0.0650X0.0650*%
%ADD18C,0.1700*%
%ADD19R,0.0356X0.0356*%
%ADD20C,0.0160*%
%ADD21C,0.0356*%
%ADD22C,0.0270*%
D10*
X009517Y006906D03*
X008517Y007406D03*
X009517Y007906D03*
X008517Y008406D03*
X009517Y008906D03*
X008517Y009406D03*
X009517Y009906D03*
X017400Y012257D03*
X017400Y013757D03*
X021400Y013757D03*
X022900Y013757D03*
X021400Y012257D03*
X023045Y012150D03*
X027045Y012150D03*
X028920Y012150D03*
X032920Y012150D03*
X035045Y012400D03*
X034900Y013507D03*
X033025Y013757D03*
X029025Y013757D03*
X026900Y013757D03*
X038900Y013507D03*
X040900Y013257D03*
X039045Y012400D03*
X040795Y012150D03*
X044795Y012150D03*
X047045Y012150D03*
X047150Y013257D03*
X044900Y013257D03*
X051045Y012150D03*
X051150Y013257D03*
X049400Y005757D03*
X045400Y005757D03*
X045400Y003757D03*
X049400Y003757D03*
X034900Y001282D03*
X033900Y001382D03*
X032900Y001282D03*
X031900Y001382D03*
X030900Y001282D03*
X029900Y001382D03*
X009526Y013276D03*
X008526Y013776D03*
X009526Y014276D03*
X008526Y014776D03*
X009526Y015276D03*
X008526Y015776D03*
X009526Y016276D03*
D11*
X019900Y011277D02*
X019900Y010757D01*
X020900Y010757D02*
X020900Y011277D01*
X021900Y011277D02*
X021900Y010757D01*
X025900Y010757D02*
X025900Y011277D01*
X026900Y011277D02*
X026900Y010757D01*
X027900Y010757D02*
X027900Y011277D01*
X031900Y011277D02*
X031900Y010757D01*
X032900Y010757D02*
X032900Y011277D01*
X033900Y011277D02*
X033900Y010757D01*
X037900Y010757D02*
X037900Y011277D01*
X038900Y011277D02*
X038900Y010757D01*
X039900Y010757D02*
X039900Y011277D01*
X043900Y011277D02*
X043900Y010757D01*
X044900Y010757D02*
X044900Y011277D01*
X045900Y011277D02*
X045900Y010757D01*
X049900Y010757D02*
X049900Y011277D01*
X050900Y011277D02*
X050900Y010757D01*
X051900Y010757D02*
X051900Y011277D01*
X051900Y007757D02*
X051900Y007237D01*
X050900Y007237D02*
X050900Y007757D01*
X049900Y007757D02*
X049900Y007237D01*
X045900Y007237D02*
X045900Y007757D01*
X044900Y007757D02*
X044900Y007237D01*
X043900Y007237D02*
X043900Y007757D01*
X039900Y007757D02*
X039900Y007237D01*
X038900Y007237D02*
X038900Y007757D01*
X037900Y007757D02*
X037900Y007237D01*
X040380Y005757D02*
X040900Y005757D01*
X040900Y004757D02*
X040380Y004757D01*
X040380Y003757D02*
X040900Y003757D01*
X043900Y003757D02*
X044420Y003757D01*
X044420Y004757D02*
X043900Y004757D01*
X043900Y005757D02*
X044420Y005757D01*
X033900Y007237D02*
X033900Y007757D01*
X032900Y007757D02*
X032900Y007237D01*
X031900Y007237D02*
X031900Y007757D01*
X027900Y007757D02*
X027900Y007237D01*
X026900Y007237D02*
X026900Y007757D01*
X025900Y007757D02*
X025900Y007237D01*
X021900Y007237D02*
X021900Y007757D01*
X020900Y007757D02*
X020900Y007237D01*
X019900Y007237D02*
X019900Y007757D01*
D12*
X019400Y015457D02*
X019400Y016057D01*
X020400Y016057D02*
X020400Y015457D01*
X021400Y015457D02*
X021400Y016057D01*
X025150Y016057D02*
X025150Y015457D01*
X026150Y015457D02*
X026150Y016057D01*
X027150Y016057D02*
X027150Y015457D01*
X030900Y015457D02*
X030900Y016057D01*
X031900Y016057D02*
X031900Y015457D01*
X032900Y015457D02*
X032900Y016057D01*
X036900Y016057D02*
X036900Y015457D01*
X037900Y015457D02*
X037900Y016057D01*
X038900Y016057D02*
X038900Y015457D01*
X042650Y015457D02*
X042650Y016057D01*
X043650Y016057D02*
X043650Y015457D01*
X044650Y015457D02*
X044650Y016057D01*
X049150Y015807D02*
X049150Y015207D01*
X050150Y015207D02*
X050150Y015807D01*
X051150Y015807D02*
X051150Y015207D01*
D13*
X049134Y014257D03*
X047166Y014257D03*
X042884Y014257D03*
X040916Y014257D03*
X036884Y014507D03*
X034916Y014507D03*
X030759Y014757D03*
X028791Y014757D03*
X025134Y014757D03*
X023166Y014757D03*
X019384Y014632D03*
X017416Y014632D03*
X020775Y005632D03*
X023507Y004652D03*
X026900Y001632D03*
X021382Y001527D03*
D14*
X051900Y002757D03*
X050900Y018757D03*
X044900Y018757D03*
X038900Y018757D03*
X032900Y018757D03*
X026900Y018757D03*
X021794Y018864D03*
D15*
X019825Y018864D03*
X024932Y018757D03*
X030932Y018757D03*
X036932Y018757D03*
X042932Y018757D03*
X048932Y018757D03*
X051900Y004726D03*
D16*
X008517Y010406D03*
X008526Y016776D03*
D17*
X023507Y005652D03*
X020775Y004632D03*
X025900Y001632D03*
X020382Y001527D03*
D18*
X009181Y003249D03*
X011543Y003249D03*
X010362Y001398D03*
D19*
X029901Y002151D03*
X029901Y002776D03*
X031651Y002776D03*
X032401Y002151D03*
X008401Y011651D03*
D20*
X009151Y011651D01*
X009651Y011151D01*
X011026Y011151D01*
X011272Y010905D01*
X011272Y010401D01*
X012276Y009401D01*
X013526Y008776D02*
X013526Y008276D01*
X013026Y008026D01*
X010776Y008026D01*
X010401Y008401D02*
X010276Y008276D01*
X010401Y008401D02*
X011776Y008401D01*
X012026Y008651D01*
X012901Y008651D01*
X013018Y008526D01*
X014026Y009026D02*
X011401Y011651D01*
X010651Y011651D01*
X011151Y012526D02*
X008651Y012526D01*
X007276Y012776D02*
X007276Y016776D01*
X009526Y016276D02*
X010276Y016276D01*
X010651Y016151D01*
X012651Y016151D01*
X013026Y016651D02*
X011651Y016651D01*
X011526Y016651D01*
X010776Y017401D01*
X010776Y018026D01*
X011276Y018276D02*
X010651Y018901D01*
X008276Y018901D01*
X007901Y018401D01*
X007901Y006151D01*
X009151Y004776D01*
X012901Y004776D01*
X013776Y003901D01*
X013776Y003526D01*
X013276Y003651D02*
X012401Y004526D01*
X009026Y004526D01*
X007651Y006026D01*
X007651Y018776D01*
X008026Y019151D01*
X010776Y019151D01*
X011276Y018651D01*
X014151Y018651D01*
X014651Y018276D01*
X013151Y018276D02*
X011276Y018276D01*
X011526Y017151D02*
X013276Y017151D01*
X013776Y016651D01*
X013901Y016276D02*
X013401Y016276D01*
X013026Y016651D01*
X013901Y016276D02*
X014151Y016026D01*
X014651Y013276D02*
X014651Y011901D01*
X016026Y010526D01*
X018401Y010526D01*
X018651Y010401D01*
X018651Y010151D01*
X034151Y010151D01*
X037651Y006776D01*
X037901Y006776D01*
X038526Y006151D01*
X037776Y006276D02*
X034151Y009776D01*
X015651Y009776D01*
X013276Y012151D01*
X013026Y012151D01*
X013401Y012776D02*
X012401Y012776D01*
X011651Y013276D02*
X011151Y012526D01*
X011651Y013276D02*
X012776Y013276D01*
X013401Y012776D02*
X016026Y010151D01*
X018026Y010151D01*
X019900Y010757D02*
X020151Y011151D01*
X020151Y012151D01*
X021151Y012151D01*
X021400Y012257D01*
X022151Y011151D02*
X021900Y010757D01*
X022151Y011151D02*
X022151Y015651D01*
X021651Y015651D01*
X021400Y015757D01*
X027150Y015757D02*
X027151Y015651D01*
X027651Y015651D01*
X027651Y011151D01*
X027900Y010757D01*
X026151Y011151D02*
X025900Y010757D01*
X026151Y011151D02*
X026151Y012151D01*
X027151Y012151D01*
X027045Y012150D01*
X031900Y010757D02*
X032151Y011151D01*
X032151Y012151D01*
X032651Y012151D01*
X032920Y012150D01*
X033651Y011151D02*
X033900Y010757D01*
X033651Y011151D02*
X033651Y015651D01*
X033151Y015651D01*
X032900Y015757D01*
X038900Y015757D02*
X039151Y015651D01*
X039651Y015651D01*
X039651Y011151D01*
X039900Y010757D01*
X038151Y011151D02*
X037900Y010757D01*
X038151Y011151D02*
X038151Y012151D01*
X039151Y012151D01*
X039045Y012400D01*
X044151Y012151D02*
X044151Y011151D01*
X043900Y010757D01*
X045651Y011151D02*
X045900Y010757D01*
X045651Y011151D02*
X045651Y015651D01*
X044651Y015651D01*
X044650Y015757D01*
X051150Y015507D02*
X051151Y015151D01*
X052151Y015151D01*
X052151Y011151D01*
X051900Y010757D01*
X050151Y011151D02*
X049900Y010757D01*
X050151Y011151D02*
X050151Y012151D01*
X051151Y012151D01*
X051045Y012150D01*
X044795Y012150D02*
X044651Y012151D01*
X044151Y012151D01*
X044900Y007757D02*
X044651Y007651D01*
X044651Y006651D01*
X050651Y006651D01*
X050651Y007651D01*
X050900Y007757D01*
X044651Y006651D02*
X042151Y006651D01*
X041151Y005776D01*
X040900Y005757D01*
X039526Y005526D02*
X039526Y006651D01*
X039401Y006776D01*
X038401Y006776D01*
X037276Y006276D02*
X037276Y005526D01*
X036651Y005026D01*
X036401Y004776D01*
X035651Y004776D01*
X035276Y005151D01*
X029401Y005151D01*
X028151Y006401D01*
X025401Y006401D01*
X022651Y009026D01*
X015651Y009026D01*
X015151Y008651D01*
X014776Y008651D01*
X014401Y009026D02*
X014401Y007901D01*
X015901Y007901D01*
X016151Y007651D01*
X016151Y006901D01*
X015901Y006526D02*
X015526Y006151D01*
X015526Y005776D01*
X015276Y005526D01*
X013901Y005526D01*
X013276Y004776D02*
X012526Y005401D01*
X012526Y005776D01*
X013276Y004776D02*
X014526Y004776D01*
X016151Y005526D02*
X016526Y005151D01*
X027901Y005151D01*
X028901Y004151D01*
X034526Y004151D01*
X035151Y003526D01*
X035776Y003526D01*
X035276Y003901D02*
X034776Y004401D01*
X029026Y004401D01*
X028026Y005401D01*
X025526Y005401D01*
X025401Y005526D01*
X024526Y005901D02*
X027901Y005901D01*
X029151Y004651D01*
X035026Y004651D01*
X035401Y004276D01*
X036776Y004276D01*
X037026Y004526D01*
X036901Y004901D02*
X036526Y004526D01*
X035526Y004526D01*
X035151Y004901D01*
X029276Y004901D01*
X028026Y006151D01*
X025151Y006151D01*
X022526Y008651D01*
X018026Y008651D01*
X016026Y009401D02*
X015401Y009401D01*
X015276Y009151D01*
X015026Y009151D01*
X014526Y009151D02*
X014526Y009526D01*
X014526Y009151D02*
X014401Y009026D01*
X010651Y009401D02*
X010651Y009776D01*
X010526Y009901D01*
X009517Y009906D01*
X015901Y006526D02*
X016526Y006526D01*
X016651Y006401D01*
X016651Y005651D01*
X016901Y005401D01*
X020401Y005401D01*
X020651Y005651D01*
X020775Y005632D01*
X020651Y005651D02*
X021651Y006651D01*
X022151Y006651D01*
X020900Y007757D02*
X020651Y007401D01*
X020651Y005651D01*
X019151Y005776D02*
X017651Y005776D01*
X016151Y005526D02*
X016151Y006151D01*
X020775Y004632D02*
X020775Y004507D01*
X020776Y004506D01*
X020776Y003901D01*
X021276Y003401D01*
X028401Y003401D01*
X029026Y002776D01*
X029901Y002776D01*
X031651Y002776D01*
X032151Y002776D01*
X032276Y002651D01*
X038651Y002651D01*
X039776Y003026D02*
X042151Y003026D01*
X042651Y003526D01*
X042651Y005901D01*
X041526Y004276D02*
X038026Y004276D01*
X037901Y004151D01*
X037026Y004151D01*
X036651Y003776D01*
X037526Y003776D02*
X039151Y003776D01*
X039776Y003026D01*
X039276Y001651D02*
X038151Y000526D01*
X029401Y000526D01*
X028401Y001526D01*
X028401Y001651D01*
X027526Y001276D02*
X027276Y000901D01*
X026151Y000901D01*
X025900Y001152D01*
X025900Y001632D01*
X025651Y001651D01*
X024151Y003151D01*
X011651Y003151D01*
X011543Y003249D01*
X013526Y001151D02*
X014401Y002026D01*
X013526Y001151D02*
X012276Y001151D01*
X018026Y002151D02*
X018776Y002151D01*
X019276Y002651D01*
X024026Y002651D01*
X024401Y002276D01*
X025276Y002776D02*
X027276Y002776D01*
X027526Y002526D01*
X027526Y002026D02*
X028401Y002901D01*
X029026Y003151D02*
X028401Y003776D01*
X021401Y003776D01*
X021901Y004151D02*
X022026Y004026D01*
X024901Y004026D01*
X025276Y004401D01*
X028276Y004401D01*
X028776Y003901D01*
X034276Y003901D01*
X034651Y003526D01*
X031651Y003276D02*
X031526Y003151D01*
X029026Y003151D01*
X029901Y002151D02*
X032401Y002151D01*
X027526Y002026D02*
X027526Y001276D01*
X021901Y004151D02*
X021776Y004151D01*
X023507Y004652D02*
X023882Y004652D01*
X023883Y004651D01*
X025776Y004651D01*
X025901Y004776D01*
X026526Y004776D01*
X029776Y005776D02*
X029776Y006151D01*
X029776Y005776D02*
X030151Y005401D01*
X035401Y005401D01*
X035651Y005151D01*
X036026Y005151D01*
X036901Y004901D02*
X037276Y004901D01*
X037526Y005151D01*
X049400Y003757D02*
X049651Y003651D01*
X050651Y004651D01*
X051651Y004651D01*
X051900Y004726D01*
D21*
X042651Y005901D03*
X039526Y005526D03*
X038526Y006151D03*
X037776Y006276D03*
X037276Y006276D03*
X038401Y006776D03*
X037526Y005151D03*
X036026Y005151D03*
X037026Y004526D03*
X035276Y003901D03*
X035776Y003526D03*
X036651Y003776D03*
X037526Y003776D03*
X034651Y003526D03*
X031651Y003276D03*
X028401Y002901D03*
X027526Y002526D03*
X028401Y001651D03*
X025276Y002776D03*
X024401Y002276D03*
X021401Y003776D03*
X021776Y004151D03*
X025401Y005526D03*
X024526Y005901D03*
X026526Y004776D03*
X029776Y006151D03*
X019151Y005776D03*
X017651Y005776D03*
X016151Y006151D03*
X016151Y006901D03*
X013901Y005526D03*
X012526Y005776D03*
X014526Y004776D03*
X013776Y003526D03*
X013276Y003651D03*
X014401Y002026D03*
X012276Y001151D03*
X018026Y002151D03*
X010776Y008026D03*
X010276Y008276D03*
X013018Y008526D03*
X013526Y008776D03*
X014026Y009026D03*
X014526Y009526D03*
X015026Y009151D03*
X016026Y009401D03*
X014776Y008651D03*
X012276Y009401D03*
X010651Y009401D03*
X010651Y011651D03*
X008651Y012526D03*
X007276Y012776D03*
X012401Y012776D03*
X012776Y013276D03*
X014651Y013276D03*
X013026Y012151D03*
X018026Y010151D03*
X018026Y008651D03*
X014151Y016026D03*
X011651Y016651D03*
X011526Y017151D03*
X010776Y018026D03*
X013151Y018276D03*
X014651Y018276D03*
X007276Y016776D03*
X041526Y004276D03*
X039276Y001651D03*
D22*
X038651Y002651D03*
X022151Y006651D03*
X012651Y016151D03*
X013776Y016651D03*
M02*
