G75*
G70*
%OFA0B0*%
%FSLAX24Y24*%
%IPPOS*%
%LPD*%
%AMOC8*
5,1,8,0,0,1.08239X$1,22.5*
%
%ADD10C,0.0060*%
D10*
X021440Y004287D02*
X021547Y004394D01*
X021547Y004821D01*
X021654Y004714D02*
X021440Y004714D01*
X021871Y004714D02*
X022191Y004714D01*
X022298Y004608D01*
X022191Y004501D01*
X021978Y004501D01*
X021871Y004394D01*
X021978Y004287D01*
X022298Y004287D01*
X022516Y004287D02*
X022516Y004608D01*
X022622Y004714D01*
X022943Y004714D01*
X022943Y004287D01*
X023160Y004287D02*
X023160Y004714D01*
X023587Y004714D02*
X023587Y004394D01*
X023480Y004287D01*
X023160Y004287D01*
X023804Y004287D02*
X024124Y004501D01*
X023804Y004714D01*
X024124Y004928D02*
X024124Y004287D01*
X024342Y004501D02*
X024769Y004501D01*
X024769Y004608D02*
X024662Y004714D01*
X024448Y004714D01*
X024342Y004608D01*
X024342Y004501D01*
X024448Y004287D02*
X024662Y004287D01*
X024769Y004394D01*
X024769Y004608D01*
X024985Y004714D02*
X025198Y004714D01*
X025092Y004821D02*
X025092Y004394D01*
X024985Y004287D01*
X025416Y004287D02*
X025416Y004714D01*
X025843Y004714D02*
X025843Y004394D01*
X025736Y004287D01*
X025416Y004287D01*
X026060Y004394D02*
X026060Y004608D01*
X026274Y004608D01*
X026487Y004821D02*
X026487Y004394D01*
X026381Y004287D01*
X026167Y004287D01*
X026060Y004394D01*
X026060Y004821D02*
X026167Y004928D01*
X026381Y004928D01*
X026487Y004821D01*
X027349Y004714D02*
X027670Y004714D01*
X027776Y004608D01*
X027776Y004394D01*
X027670Y004287D01*
X027349Y004287D01*
X027994Y004287D02*
X027994Y004608D01*
X028101Y004714D01*
X028314Y004714D01*
X028314Y004501D02*
X027994Y004501D01*
X027994Y004287D02*
X028314Y004287D01*
X028421Y004394D01*
X028314Y004501D01*
X028639Y004501D02*
X028959Y004501D01*
X029066Y004394D01*
X028959Y004287D01*
X028639Y004287D01*
X028639Y004608D01*
X028745Y004714D01*
X028959Y004714D01*
X029283Y004714D02*
X029603Y004714D01*
X029710Y004608D01*
X029603Y004501D01*
X029390Y004501D01*
X029283Y004394D01*
X029390Y004287D01*
X029710Y004287D01*
X029926Y004287D02*
X030140Y004287D01*
X030033Y004287D02*
X030033Y004928D01*
X030140Y004928D02*
X029926Y004928D01*
X031002Y004714D02*
X031002Y004181D01*
X031109Y004074D01*
X031215Y004074D01*
X031322Y004287D02*
X031002Y004287D01*
X031322Y004287D02*
X031429Y004394D01*
X031429Y004714D01*
X031646Y004608D02*
X031753Y004714D01*
X032073Y004714D01*
X032073Y004928D02*
X032073Y004287D01*
X031753Y004287D01*
X031646Y004394D01*
X031646Y004608D01*
X032935Y004608D02*
X032935Y004287D01*
X032935Y004608D02*
X033042Y004714D01*
X033362Y004714D01*
X033362Y004287D01*
X033580Y004287D02*
X033900Y004287D01*
X034007Y004394D01*
X034007Y004608D01*
X033900Y004714D01*
X033580Y004714D01*
X033580Y004181D01*
X033687Y004074D01*
X033793Y004074D01*
X034223Y004287D02*
X034437Y004287D01*
X034330Y004287D02*
X034330Y004714D01*
X034437Y004714D01*
X034654Y004714D02*
X034974Y004714D01*
X035081Y004608D01*
X034974Y004501D01*
X034761Y004501D01*
X034654Y004394D01*
X034761Y004287D01*
X035081Y004287D01*
X035299Y004501D02*
X035726Y004501D01*
X035726Y004608D02*
X035619Y004714D01*
X035405Y004714D01*
X035299Y004608D01*
X035299Y004501D01*
X035405Y004287D02*
X035619Y004287D01*
X035726Y004394D01*
X035726Y004608D01*
X035943Y004394D02*
X035943Y004821D01*
X036050Y004928D01*
X036370Y004928D01*
X036370Y004287D01*
X036050Y004287D01*
X035943Y004394D01*
X034330Y004928D02*
X034330Y005035D01*
X034330Y005787D02*
X034116Y005787D01*
X034010Y005894D01*
X033792Y005894D02*
X033685Y005787D01*
X033472Y005787D01*
X033365Y005894D01*
X033365Y006108D01*
X033472Y006214D01*
X033685Y006214D01*
X033792Y006108D01*
X033792Y005894D01*
X034330Y005787D02*
X034437Y005894D01*
X034437Y006321D01*
X034330Y006428D01*
X034116Y006428D01*
X034010Y006321D01*
X033148Y006214D02*
X032827Y006214D01*
X032721Y006108D01*
X032721Y005787D01*
X032396Y005894D02*
X032290Y005787D01*
X032396Y005894D02*
X032396Y006321D01*
X032290Y006214D02*
X032503Y006214D01*
X032073Y006214D02*
X032073Y005787D01*
X032073Y006001D02*
X031860Y006214D01*
X031753Y006214D01*
X031536Y006108D02*
X031536Y005894D01*
X031430Y005787D01*
X031216Y005787D01*
X031109Y005894D01*
X031109Y006108D01*
X031216Y006214D01*
X031430Y006214D01*
X031536Y006108D01*
X030892Y006428D02*
X030785Y006428D01*
X030785Y005787D01*
X030892Y005787D02*
X030678Y005787D01*
X030462Y005787D02*
X030249Y005787D01*
X030355Y005787D02*
X030355Y006428D01*
X030462Y006428D01*
X030032Y006108D02*
X029926Y006214D01*
X029712Y006214D01*
X029605Y006108D01*
X029605Y006001D01*
X030032Y006001D01*
X030032Y005894D02*
X030032Y006108D01*
X030032Y005894D02*
X029926Y005787D01*
X029712Y005787D01*
X029388Y005787D02*
X029388Y006214D01*
X029388Y006001D02*
X029174Y006214D01*
X029068Y006214D01*
X028206Y006108D02*
X027886Y006108D01*
X027779Y006001D01*
X027779Y005894D01*
X027886Y005787D01*
X028206Y005787D01*
X028206Y006428D01*
X027886Y006428D01*
X027779Y006321D01*
X027779Y006214D01*
X027886Y006108D01*
X027562Y006108D02*
X027562Y005894D01*
X027455Y005787D01*
X027241Y005787D01*
X027135Y005894D01*
X027135Y006108D01*
X027241Y006214D01*
X027455Y006214D01*
X027562Y006108D01*
X026917Y005894D02*
X026810Y006001D01*
X026490Y006001D01*
X026490Y006108D02*
X026490Y005787D01*
X026810Y005787D01*
X026917Y005894D01*
X026810Y006214D02*
X026597Y006214D01*
X026490Y006108D01*
X026273Y006214D02*
X026273Y005787D01*
X026273Y006001D02*
X026059Y006214D01*
X025952Y006214D01*
X025736Y006108D02*
X025629Y006214D01*
X025309Y006214D01*
X025309Y006428D02*
X025309Y005787D01*
X025629Y005787D01*
X025736Y005894D01*
X025736Y006108D01*
X024446Y006214D02*
X024233Y005787D01*
X024019Y006214D01*
X023802Y006321D02*
X023802Y005894D01*
X023375Y006321D01*
X023375Y005894D01*
X023482Y005787D01*
X023695Y005787D01*
X023802Y005894D01*
X023157Y005894D02*
X023157Y005787D01*
X023051Y005787D01*
X023051Y005894D01*
X023157Y005894D01*
X022835Y005787D02*
X022408Y005787D01*
X022622Y005787D02*
X022622Y006428D01*
X022835Y006214D01*
X023375Y006321D02*
X023482Y006428D01*
X023695Y006428D01*
X023802Y006321D01*
X033148Y006214D02*
X033148Y005787D01*
X035299Y005894D02*
X035405Y005787D01*
X035619Y005787D01*
X035726Y005894D01*
X035726Y006321D01*
X035619Y006428D01*
X035405Y006428D01*
X035299Y006321D01*
X035943Y006214D02*
X035943Y005787D01*
X036370Y005787D02*
X036370Y006214D01*
X036157Y006428D01*
X035943Y006214D01*
X035943Y006108D02*
X036370Y006108D01*
M02*
