G75*
G70*
%OFA0B0*%
%FSLAX24Y24*%
%IPPOS*%
%LPD*%
%AMOC8*
5,1,8,0,0,1.08239X$1,22.5*
%
%ADD10C,0.0000*%
%ADD11C,0.0100*%
%ADD12R,0.0137X0.0550*%
%ADD13C,0.0740*%
%ADD14R,0.0630X0.0709*%
%ADD15C,0.0520*%
%ADD16C,0.0600*%
%ADD17C,0.0650*%
%ADD18R,0.0709X0.0630*%
%ADD19R,0.0800X0.0800*%
%ADD20C,0.0800*%
%ADD21R,0.0260X0.0800*%
%ADD22R,0.0740X0.0740*%
%ADD23R,0.0480X0.0880*%
%ADD24R,0.1417X0.0866*%
%ADD25R,0.0650X0.0650*%
%ADD26C,0.1700*%
%ADD27R,0.0591X0.0591*%
%ADD28C,0.0160*%
%ADD29R,0.0356X0.0356*%
%ADD30C,0.0356*%
%ADD31C,0.0270*%
%ADD32C,0.0787*%
D10*
X000396Y001026D02*
X000398Y001076D01*
X000404Y001126D01*
X000414Y001175D01*
X000428Y001223D01*
X000445Y001270D01*
X000466Y001315D01*
X000491Y001359D01*
X000519Y001400D01*
X000551Y001439D01*
X000585Y001476D01*
X000622Y001510D01*
X000662Y001540D01*
X000704Y001567D01*
X000748Y001591D01*
X000794Y001612D01*
X000841Y001628D01*
X000889Y001641D01*
X000939Y001650D01*
X000988Y001655D01*
X001039Y001656D01*
X001089Y001653D01*
X001138Y001646D01*
X001187Y001635D01*
X001235Y001620D01*
X001281Y001602D01*
X001326Y001580D01*
X001369Y001554D01*
X001410Y001525D01*
X001449Y001493D01*
X001485Y001458D01*
X001517Y001420D01*
X001547Y001380D01*
X001574Y001337D01*
X001597Y001293D01*
X001616Y001247D01*
X001632Y001199D01*
X001644Y001150D01*
X001652Y001101D01*
X001656Y001051D01*
X001656Y001001D01*
X001652Y000951D01*
X001644Y000902D01*
X001632Y000853D01*
X001616Y000805D01*
X001597Y000759D01*
X001574Y000715D01*
X001547Y000672D01*
X001517Y000632D01*
X001485Y000594D01*
X001449Y000559D01*
X001410Y000527D01*
X001369Y000498D01*
X001326Y000472D01*
X001281Y000450D01*
X001235Y000432D01*
X001187Y000417D01*
X001138Y000406D01*
X001089Y000399D01*
X001039Y000396D01*
X000988Y000397D01*
X000939Y000402D01*
X000889Y000411D01*
X000841Y000424D01*
X000794Y000440D01*
X000748Y000461D01*
X000704Y000485D01*
X000662Y000512D01*
X000622Y000542D01*
X000585Y000576D01*
X000551Y000613D01*
X000519Y000652D01*
X000491Y000693D01*
X000466Y000737D01*
X000445Y000782D01*
X000428Y000829D01*
X000414Y000877D01*
X000404Y000926D01*
X000398Y000976D01*
X000396Y001026D01*
X005387Y006406D02*
X005389Y006456D01*
X005395Y006506D01*
X005405Y006555D01*
X005419Y006603D01*
X005436Y006650D01*
X005457Y006695D01*
X005482Y006739D01*
X005510Y006780D01*
X005542Y006819D01*
X005576Y006856D01*
X005613Y006890D01*
X005653Y006920D01*
X005695Y006947D01*
X005739Y006971D01*
X005785Y006992D01*
X005832Y007008D01*
X005880Y007021D01*
X005930Y007030D01*
X005979Y007035D01*
X006030Y007036D01*
X006080Y007033D01*
X006129Y007026D01*
X006178Y007015D01*
X006226Y007000D01*
X006272Y006982D01*
X006317Y006960D01*
X006360Y006934D01*
X006401Y006905D01*
X006440Y006873D01*
X006476Y006838D01*
X006508Y006800D01*
X006538Y006760D01*
X006565Y006717D01*
X006588Y006673D01*
X006607Y006627D01*
X006623Y006579D01*
X006635Y006530D01*
X006643Y006481D01*
X006647Y006431D01*
X006647Y006381D01*
X006643Y006331D01*
X006635Y006282D01*
X006623Y006233D01*
X006607Y006185D01*
X006588Y006139D01*
X006565Y006095D01*
X006538Y006052D01*
X006508Y006012D01*
X006476Y005974D01*
X006440Y005939D01*
X006401Y005907D01*
X006360Y005878D01*
X006317Y005852D01*
X006272Y005830D01*
X006226Y005812D01*
X006178Y005797D01*
X006129Y005786D01*
X006080Y005779D01*
X006030Y005776D01*
X005979Y005777D01*
X005930Y005782D01*
X005880Y005791D01*
X005832Y005804D01*
X005785Y005820D01*
X005739Y005841D01*
X005695Y005865D01*
X005653Y005892D01*
X005613Y005922D01*
X005576Y005956D01*
X005542Y005993D01*
X005510Y006032D01*
X005482Y006073D01*
X005457Y006117D01*
X005436Y006162D01*
X005419Y006209D01*
X005405Y006257D01*
X005395Y006306D01*
X005389Y006356D01*
X005387Y006406D01*
X005387Y010906D02*
X005389Y010956D01*
X005395Y011006D01*
X005405Y011055D01*
X005419Y011103D01*
X005436Y011150D01*
X005457Y011195D01*
X005482Y011239D01*
X005510Y011280D01*
X005542Y011319D01*
X005576Y011356D01*
X005613Y011390D01*
X005653Y011420D01*
X005695Y011447D01*
X005739Y011471D01*
X005785Y011492D01*
X005832Y011508D01*
X005880Y011521D01*
X005930Y011530D01*
X005979Y011535D01*
X006030Y011536D01*
X006080Y011533D01*
X006129Y011526D01*
X006178Y011515D01*
X006226Y011500D01*
X006272Y011482D01*
X006317Y011460D01*
X006360Y011434D01*
X006401Y011405D01*
X006440Y011373D01*
X006476Y011338D01*
X006508Y011300D01*
X006538Y011260D01*
X006565Y011217D01*
X006588Y011173D01*
X006607Y011127D01*
X006623Y011079D01*
X006635Y011030D01*
X006643Y010981D01*
X006647Y010931D01*
X006647Y010881D01*
X006643Y010831D01*
X006635Y010782D01*
X006623Y010733D01*
X006607Y010685D01*
X006588Y010639D01*
X006565Y010595D01*
X006538Y010552D01*
X006508Y010512D01*
X006476Y010474D01*
X006440Y010439D01*
X006401Y010407D01*
X006360Y010378D01*
X006317Y010352D01*
X006272Y010330D01*
X006226Y010312D01*
X006178Y010297D01*
X006129Y010286D01*
X006080Y010279D01*
X006030Y010276D01*
X005979Y010277D01*
X005930Y010282D01*
X005880Y010291D01*
X005832Y010304D01*
X005785Y010320D01*
X005739Y010341D01*
X005695Y010365D01*
X005653Y010392D01*
X005613Y010422D01*
X005576Y010456D01*
X005542Y010493D01*
X005510Y010532D01*
X005482Y010573D01*
X005457Y010617D01*
X005436Y010662D01*
X005419Y010709D01*
X005405Y010757D01*
X005395Y010806D01*
X005389Y010856D01*
X005387Y010906D01*
X005396Y012776D02*
X005398Y012826D01*
X005404Y012876D01*
X005414Y012925D01*
X005428Y012973D01*
X005445Y013020D01*
X005466Y013065D01*
X005491Y013109D01*
X005519Y013150D01*
X005551Y013189D01*
X005585Y013226D01*
X005622Y013260D01*
X005662Y013290D01*
X005704Y013317D01*
X005748Y013341D01*
X005794Y013362D01*
X005841Y013378D01*
X005889Y013391D01*
X005939Y013400D01*
X005988Y013405D01*
X006039Y013406D01*
X006089Y013403D01*
X006138Y013396D01*
X006187Y013385D01*
X006235Y013370D01*
X006281Y013352D01*
X006326Y013330D01*
X006369Y013304D01*
X006410Y013275D01*
X006449Y013243D01*
X006485Y013208D01*
X006517Y013170D01*
X006547Y013130D01*
X006574Y013087D01*
X006597Y013043D01*
X006616Y012997D01*
X006632Y012949D01*
X006644Y012900D01*
X006652Y012851D01*
X006656Y012801D01*
X006656Y012751D01*
X006652Y012701D01*
X006644Y012652D01*
X006632Y012603D01*
X006616Y012555D01*
X006597Y012509D01*
X006574Y012465D01*
X006547Y012422D01*
X006517Y012382D01*
X006485Y012344D01*
X006449Y012309D01*
X006410Y012277D01*
X006369Y012248D01*
X006326Y012222D01*
X006281Y012200D01*
X006235Y012182D01*
X006187Y012167D01*
X006138Y012156D01*
X006089Y012149D01*
X006039Y012146D01*
X005988Y012147D01*
X005939Y012152D01*
X005889Y012161D01*
X005841Y012174D01*
X005794Y012190D01*
X005748Y012211D01*
X005704Y012235D01*
X005662Y012262D01*
X005622Y012292D01*
X005585Y012326D01*
X005551Y012363D01*
X005519Y012402D01*
X005491Y012443D01*
X005466Y012487D01*
X005445Y012532D01*
X005428Y012579D01*
X005414Y012627D01*
X005404Y012676D01*
X005398Y012726D01*
X005396Y012776D01*
X005396Y017276D02*
X005398Y017326D01*
X005404Y017376D01*
X005414Y017425D01*
X005428Y017473D01*
X005445Y017520D01*
X005466Y017565D01*
X005491Y017609D01*
X005519Y017650D01*
X005551Y017689D01*
X005585Y017726D01*
X005622Y017760D01*
X005662Y017790D01*
X005704Y017817D01*
X005748Y017841D01*
X005794Y017862D01*
X005841Y017878D01*
X005889Y017891D01*
X005939Y017900D01*
X005988Y017905D01*
X006039Y017906D01*
X006089Y017903D01*
X006138Y017896D01*
X006187Y017885D01*
X006235Y017870D01*
X006281Y017852D01*
X006326Y017830D01*
X006369Y017804D01*
X006410Y017775D01*
X006449Y017743D01*
X006485Y017708D01*
X006517Y017670D01*
X006547Y017630D01*
X006574Y017587D01*
X006597Y017543D01*
X006616Y017497D01*
X006632Y017449D01*
X006644Y017400D01*
X006652Y017351D01*
X006656Y017301D01*
X006656Y017251D01*
X006652Y017201D01*
X006644Y017152D01*
X006632Y017103D01*
X006616Y017055D01*
X006597Y017009D01*
X006574Y016965D01*
X006547Y016922D01*
X006517Y016882D01*
X006485Y016844D01*
X006449Y016809D01*
X006410Y016777D01*
X006369Y016748D01*
X006326Y016722D01*
X006281Y016700D01*
X006235Y016682D01*
X006187Y016667D01*
X006138Y016656D01*
X006089Y016649D01*
X006039Y016646D01*
X005988Y016647D01*
X005939Y016652D01*
X005889Y016661D01*
X005841Y016674D01*
X005794Y016690D01*
X005748Y016711D01*
X005704Y016735D01*
X005662Y016762D01*
X005622Y016792D01*
X005585Y016826D01*
X005551Y016863D01*
X005519Y016902D01*
X005491Y016943D01*
X005466Y016987D01*
X005445Y017032D01*
X005428Y017079D01*
X005414Y017127D01*
X005404Y017176D01*
X005398Y017226D01*
X005396Y017276D01*
X000396Y019151D02*
X000398Y019201D01*
X000404Y019251D01*
X000414Y019300D01*
X000428Y019348D01*
X000445Y019395D01*
X000466Y019440D01*
X000491Y019484D01*
X000519Y019525D01*
X000551Y019564D01*
X000585Y019601D01*
X000622Y019635D01*
X000662Y019665D01*
X000704Y019692D01*
X000748Y019716D01*
X000794Y019737D01*
X000841Y019753D01*
X000889Y019766D01*
X000939Y019775D01*
X000988Y019780D01*
X001039Y019781D01*
X001089Y019778D01*
X001138Y019771D01*
X001187Y019760D01*
X001235Y019745D01*
X001281Y019727D01*
X001326Y019705D01*
X001369Y019679D01*
X001410Y019650D01*
X001449Y019618D01*
X001485Y019583D01*
X001517Y019545D01*
X001547Y019505D01*
X001574Y019462D01*
X001597Y019418D01*
X001616Y019372D01*
X001632Y019324D01*
X001644Y019275D01*
X001652Y019226D01*
X001656Y019176D01*
X001656Y019126D01*
X001652Y019076D01*
X001644Y019027D01*
X001632Y018978D01*
X001616Y018930D01*
X001597Y018884D01*
X001574Y018840D01*
X001547Y018797D01*
X001517Y018757D01*
X001485Y018719D01*
X001449Y018684D01*
X001410Y018652D01*
X001369Y018623D01*
X001326Y018597D01*
X001281Y018575D01*
X001235Y018557D01*
X001187Y018542D01*
X001138Y018531D01*
X001089Y018524D01*
X001039Y018521D01*
X000988Y018522D01*
X000939Y018527D01*
X000889Y018536D01*
X000841Y018549D01*
X000794Y018565D01*
X000748Y018586D01*
X000704Y018610D01*
X000662Y018637D01*
X000622Y018667D01*
X000585Y018701D01*
X000551Y018738D01*
X000519Y018777D01*
X000491Y018818D01*
X000466Y018862D01*
X000445Y018907D01*
X000428Y018954D01*
X000414Y019002D01*
X000404Y019051D01*
X000398Y019101D01*
X000396Y019151D01*
X053771Y019026D02*
X053773Y019076D01*
X053779Y019126D01*
X053789Y019175D01*
X053803Y019223D01*
X053820Y019270D01*
X053841Y019315D01*
X053866Y019359D01*
X053894Y019400D01*
X053926Y019439D01*
X053960Y019476D01*
X053997Y019510D01*
X054037Y019540D01*
X054079Y019567D01*
X054123Y019591D01*
X054169Y019612D01*
X054216Y019628D01*
X054264Y019641D01*
X054314Y019650D01*
X054363Y019655D01*
X054414Y019656D01*
X054464Y019653D01*
X054513Y019646D01*
X054562Y019635D01*
X054610Y019620D01*
X054656Y019602D01*
X054701Y019580D01*
X054744Y019554D01*
X054785Y019525D01*
X054824Y019493D01*
X054860Y019458D01*
X054892Y019420D01*
X054922Y019380D01*
X054949Y019337D01*
X054972Y019293D01*
X054991Y019247D01*
X055007Y019199D01*
X055019Y019150D01*
X055027Y019101D01*
X055031Y019051D01*
X055031Y019001D01*
X055027Y018951D01*
X055019Y018902D01*
X055007Y018853D01*
X054991Y018805D01*
X054972Y018759D01*
X054949Y018715D01*
X054922Y018672D01*
X054892Y018632D01*
X054860Y018594D01*
X054824Y018559D01*
X054785Y018527D01*
X054744Y018498D01*
X054701Y018472D01*
X054656Y018450D01*
X054610Y018432D01*
X054562Y018417D01*
X054513Y018406D01*
X054464Y018399D01*
X054414Y018396D01*
X054363Y018397D01*
X054314Y018402D01*
X054264Y018411D01*
X054216Y018424D01*
X054169Y018440D01*
X054123Y018461D01*
X054079Y018485D01*
X054037Y018512D01*
X053997Y018542D01*
X053960Y018576D01*
X053926Y018613D01*
X053894Y018652D01*
X053866Y018693D01*
X053841Y018737D01*
X053820Y018782D01*
X053803Y018829D01*
X053789Y018877D01*
X053779Y018926D01*
X053773Y018976D01*
X053771Y019026D01*
X053770Y001132D02*
X053772Y001182D01*
X053778Y001232D01*
X053788Y001281D01*
X053802Y001329D01*
X053819Y001376D01*
X053840Y001421D01*
X053865Y001465D01*
X053893Y001506D01*
X053925Y001545D01*
X053959Y001582D01*
X053996Y001616D01*
X054036Y001646D01*
X054078Y001673D01*
X054122Y001697D01*
X054168Y001718D01*
X054215Y001734D01*
X054263Y001747D01*
X054313Y001756D01*
X054362Y001761D01*
X054413Y001762D01*
X054463Y001759D01*
X054512Y001752D01*
X054561Y001741D01*
X054609Y001726D01*
X054655Y001708D01*
X054700Y001686D01*
X054743Y001660D01*
X054784Y001631D01*
X054823Y001599D01*
X054859Y001564D01*
X054891Y001526D01*
X054921Y001486D01*
X054948Y001443D01*
X054971Y001399D01*
X054990Y001353D01*
X055006Y001305D01*
X055018Y001256D01*
X055026Y001207D01*
X055030Y001157D01*
X055030Y001107D01*
X055026Y001057D01*
X055018Y001008D01*
X055006Y000959D01*
X054990Y000911D01*
X054971Y000865D01*
X054948Y000821D01*
X054921Y000778D01*
X054891Y000738D01*
X054859Y000700D01*
X054823Y000665D01*
X054784Y000633D01*
X054743Y000604D01*
X054700Y000578D01*
X054655Y000556D01*
X054609Y000538D01*
X054561Y000523D01*
X054512Y000512D01*
X054463Y000505D01*
X054413Y000502D01*
X054362Y000503D01*
X054313Y000508D01*
X054263Y000517D01*
X054215Y000530D01*
X054168Y000546D01*
X054122Y000567D01*
X054078Y000591D01*
X054036Y000618D01*
X053996Y000648D01*
X053959Y000682D01*
X053925Y000719D01*
X053893Y000758D01*
X053865Y000799D01*
X053840Y000843D01*
X053819Y000888D01*
X053802Y000935D01*
X053788Y000983D01*
X053778Y001032D01*
X053772Y001082D01*
X053770Y001132D01*
D11*
X000151Y000151D02*
X000151Y019836D01*
X055269Y019836D01*
X055269Y000151D01*
X000151Y000151D01*
D12*
X034737Y002818D03*
X034993Y002818D03*
X035249Y002818D03*
X035505Y002818D03*
X035760Y002818D03*
X036016Y002818D03*
X036272Y002818D03*
X036528Y002818D03*
X036784Y002818D03*
X037040Y002818D03*
X037296Y002818D03*
X037552Y002818D03*
X037808Y002818D03*
X038064Y002818D03*
X038064Y005697D03*
X037808Y005697D03*
X037552Y005697D03*
X037296Y005697D03*
X037040Y005697D03*
X036784Y005697D03*
X036528Y005697D03*
X036272Y005697D03*
X036016Y005697D03*
X035760Y005697D03*
X035505Y005697D03*
X035249Y005697D03*
X034993Y005697D03*
X034737Y005697D03*
D13*
X045400Y005757D03*
X049400Y005757D03*
X049400Y003757D03*
X045400Y003757D03*
X034900Y001282D03*
X033900Y001382D03*
X032900Y001282D03*
X031900Y001382D03*
X030900Y001282D03*
X029900Y001382D03*
X009517Y006906D03*
X008517Y007406D03*
X009517Y007906D03*
X008517Y008406D03*
X009517Y008906D03*
X008517Y009406D03*
X009517Y009906D03*
X017400Y012257D03*
X017400Y013757D03*
X021400Y013757D03*
X022900Y013757D03*
X021400Y012257D03*
X023045Y012150D03*
X027045Y012150D03*
X028920Y012150D03*
X032920Y012150D03*
X035045Y012400D03*
X034900Y013507D03*
X033025Y013757D03*
X029025Y013757D03*
X026900Y013757D03*
X038900Y013507D03*
X040900Y013257D03*
X039045Y012400D03*
X040795Y012150D03*
X044795Y012150D03*
X047045Y012150D03*
X047150Y013257D03*
X044900Y013257D03*
X051045Y012150D03*
X051150Y013257D03*
X009526Y013276D03*
X008526Y013776D03*
X009526Y014276D03*
X008526Y014776D03*
X009526Y015276D03*
X008526Y015776D03*
X009526Y016276D03*
D14*
X013575Y014052D03*
X014678Y014052D03*
X012196Y013964D03*
X011094Y013964D03*
X012476Y011420D03*
X013578Y011420D03*
X014724Y011382D03*
X015826Y011382D03*
X014701Y006757D03*
X013599Y006757D03*
X012451Y006632D03*
X011349Y006632D03*
X015850Y002151D03*
X016952Y002151D03*
X034849Y006757D03*
X035951Y006757D03*
X036599Y001757D03*
X037701Y001757D03*
X013675Y018862D03*
X014748Y018918D03*
X015850Y018918D03*
X012572Y018862D03*
D15*
X019900Y011277D02*
X019900Y010757D01*
X020900Y010757D02*
X020900Y011277D01*
X021900Y011277D02*
X021900Y010757D01*
X025900Y010757D02*
X025900Y011277D01*
X026900Y011277D02*
X026900Y010757D01*
X027900Y010757D02*
X027900Y011277D01*
X031900Y011277D02*
X031900Y010757D01*
X032900Y010757D02*
X032900Y011277D01*
X033900Y011277D02*
X033900Y010757D01*
X037900Y010757D02*
X037900Y011277D01*
X038900Y011277D02*
X038900Y010757D01*
X039900Y010757D02*
X039900Y011277D01*
X043900Y011277D02*
X043900Y010757D01*
X044900Y010757D02*
X044900Y011277D01*
X045900Y011277D02*
X045900Y010757D01*
X049900Y010757D02*
X049900Y011277D01*
X050900Y011277D02*
X050900Y010757D01*
X051900Y010757D02*
X051900Y011277D01*
X051900Y007757D02*
X051900Y007237D01*
X050900Y007237D02*
X050900Y007757D01*
X049900Y007757D02*
X049900Y007237D01*
X045900Y007237D02*
X045900Y007757D01*
X044900Y007757D02*
X044900Y007237D01*
X043900Y007237D02*
X043900Y007757D01*
X039900Y007757D02*
X039900Y007237D01*
X038900Y007237D02*
X038900Y007757D01*
X037900Y007757D02*
X037900Y007237D01*
X040380Y005757D02*
X040900Y005757D01*
X040900Y004757D02*
X040380Y004757D01*
X040380Y003757D02*
X040900Y003757D01*
X043900Y003757D02*
X044420Y003757D01*
X044420Y004757D02*
X043900Y004757D01*
X043900Y005757D02*
X044420Y005757D01*
X033900Y007237D02*
X033900Y007757D01*
X032900Y007757D02*
X032900Y007237D01*
X031900Y007237D02*
X031900Y007757D01*
X027900Y007757D02*
X027900Y007237D01*
X026900Y007237D02*
X026900Y007757D01*
X025900Y007757D02*
X025900Y007237D01*
X021900Y007237D02*
X021900Y007757D01*
X020900Y007757D02*
X020900Y007237D01*
X019900Y007237D02*
X019900Y007757D01*
D16*
X019400Y015457D02*
X019400Y016057D01*
X020400Y016057D02*
X020400Y015457D01*
X021400Y015457D02*
X021400Y016057D01*
X025150Y016057D02*
X025150Y015457D01*
X026150Y015457D02*
X026150Y016057D01*
X027150Y016057D02*
X027150Y015457D01*
X030900Y015457D02*
X030900Y016057D01*
X031900Y016057D02*
X031900Y015457D01*
X032900Y015457D02*
X032900Y016057D01*
X036900Y016057D02*
X036900Y015457D01*
X037900Y015457D02*
X037900Y016057D01*
X038900Y016057D02*
X038900Y015457D01*
X042650Y015457D02*
X042650Y016057D01*
X043650Y016057D02*
X043650Y015457D01*
X044650Y015457D02*
X044650Y016057D01*
X049150Y015807D02*
X049150Y015207D01*
X050150Y015207D02*
X050150Y015807D01*
X051150Y015807D02*
X051150Y015207D01*
D17*
X049134Y014257D03*
X047166Y014257D03*
X042884Y014257D03*
X040916Y014257D03*
X036884Y014507D03*
X034916Y014507D03*
X030759Y014757D03*
X028791Y014757D03*
X025134Y014757D03*
X023166Y014757D03*
X019384Y014632D03*
X017416Y014632D03*
X020775Y005632D03*
X023507Y004652D03*
X026900Y001632D03*
X021382Y001527D03*
D18*
X033400Y003706D03*
X033400Y004809D03*
X039400Y004809D03*
X039400Y003706D03*
X041900Y007706D03*
X041900Y008809D03*
X035900Y008809D03*
X035900Y007706D03*
X029900Y007706D03*
X029900Y008809D03*
X024400Y008809D03*
X024400Y007706D03*
X018775Y007771D03*
X016295Y007599D03*
X016295Y008701D03*
X018775Y006669D03*
X010670Y008974D03*
X010670Y010076D03*
X010746Y015656D03*
X010746Y016758D03*
X016114Y016816D03*
X016114Y015713D03*
X047900Y008809D03*
X047900Y007706D03*
D19*
X051900Y002757D03*
X050900Y018757D03*
X044900Y018757D03*
X038900Y018757D03*
X032900Y018757D03*
X026900Y018757D03*
X021794Y018864D03*
D20*
X019825Y018864D03*
X024932Y018757D03*
X030932Y018757D03*
X036932Y018757D03*
X042932Y018757D03*
X048932Y018757D03*
X051900Y004726D03*
D21*
X015018Y007797D03*
X014518Y007797D03*
X014018Y007797D03*
X013518Y007797D03*
X013018Y007797D03*
X012518Y007797D03*
X012018Y007797D03*
X012018Y010217D03*
X012518Y010217D03*
X013018Y010217D03*
X013518Y010217D03*
X014018Y010217D03*
X014518Y010217D03*
X015018Y010217D03*
X015144Y015065D03*
X014644Y015065D03*
X014144Y015065D03*
X013644Y015065D03*
X013144Y015065D03*
X012644Y015065D03*
X012144Y015065D03*
X012144Y017485D03*
X012644Y017485D03*
X013144Y017485D03*
X013644Y017485D03*
X014144Y017485D03*
X014644Y017485D03*
X015144Y017485D03*
D22*
X008526Y016776D03*
X008517Y010406D03*
D23*
X025990Y003787D03*
X026900Y003787D03*
X027810Y003787D03*
X029990Y004037D03*
X030900Y004037D03*
X031810Y004037D03*
D24*
X026900Y006228D03*
X030900Y006478D03*
D25*
X023507Y005652D03*
X020775Y004632D03*
X025900Y001632D03*
X020382Y001527D03*
D26*
X011543Y003249D03*
X009181Y003249D03*
X010362Y001398D03*
D27*
X040837Y001651D03*
X042215Y001651D03*
D28*
X041776Y001651D01*
X041651Y001776D01*
X041651Y002151D01*
X041526Y002276D01*
X038151Y002276D01*
X038064Y002364D01*
X038064Y002818D01*
X037808Y002818D02*
X037808Y003308D01*
X038151Y003651D01*
X038651Y003651D01*
X038651Y002651D01*
X037808Y002818D02*
X037808Y001864D01*
X037701Y001757D01*
X036599Y001757D02*
X036528Y001828D01*
X036528Y002818D01*
X036526Y003320D01*
X036526Y003401D01*
X035776Y004151D01*
X037651Y004151D01*
X037651Y004651D01*
X039401Y006401D01*
X040651Y006401D01*
X040901Y006151D01*
X040920Y005757D01*
X040900Y005757D01*
X039526Y005526D02*
X039400Y005400D01*
X039400Y004809D01*
X039651Y004651D01*
X040651Y004651D01*
X040900Y004757D01*
X041526Y004276D02*
X041900Y004525D01*
X041900Y007706D01*
X043900Y007757D02*
X043900Y008809D01*
X041900Y008809D01*
X038900Y007757D02*
X038651Y007651D01*
X038151Y008151D01*
X038151Y009151D01*
X037651Y009651D01*
X032901Y009651D01*
X032901Y009226D01*
X032900Y009225D01*
X032900Y007757D01*
X032900Y006025D01*
X032401Y005526D01*
X031401Y005526D01*
X030901Y005026D01*
X030901Y004036D01*
X030901Y002526D01*
X031401Y002026D01*
X031776Y002026D01*
X031900Y001902D01*
X031900Y001382D01*
X030900Y001282D02*
X030901Y002033D01*
X030901Y002026D01*
X030526Y002526D01*
X029651Y002526D01*
X029901Y002776D01*
X029651Y002526D02*
X028276Y002526D01*
X027810Y002992D01*
X027810Y003787D01*
X026900Y003777D02*
X026900Y003787D01*
X026900Y001632D01*
X025990Y001722D02*
X025990Y003787D01*
X025751Y004026D01*
X025276Y004026D01*
X024651Y004651D01*
X024651Y005276D01*
X024275Y005652D01*
X023507Y005652D01*
X024151Y006276D02*
X024526Y005901D01*
X024151Y006276D02*
X019651Y006276D01*
X019151Y005776D01*
X017651Y005776D02*
X015526Y005776D01*
X014526Y004776D01*
X013526Y005401D02*
X013599Y005599D01*
X013599Y005828D01*
X013599Y006757D01*
X014518Y006941D02*
X014701Y006757D01*
X014518Y006941D02*
X014518Y007797D01*
X014518Y008393D01*
X014776Y008651D01*
X014026Y009026D02*
X014026Y007930D01*
X014018Y007797D01*
X013526Y007805D02*
X013518Y007797D01*
X013526Y007805D02*
X013526Y008776D01*
X013018Y008526D02*
X013018Y007797D01*
X012518Y007797D02*
X012518Y009159D01*
X012276Y009401D01*
X011717Y010217D02*
X011401Y009901D01*
X011401Y007776D01*
X011151Y007526D01*
X009887Y007526D01*
X009517Y006906D01*
X008651Y006901D01*
X008517Y007406D01*
X009517Y006906D02*
X009651Y007151D01*
X009651Y006651D01*
X009651Y003651D01*
X009181Y003249D01*
X010179Y003249D01*
X010401Y003026D01*
X010401Y002526D01*
X010651Y002526D01*
X012276Y001151D01*
X013276Y001276D02*
X013276Y003651D01*
X013776Y003526D02*
X013776Y001401D01*
X014151Y001026D01*
X028526Y001026D01*
X028901Y000651D01*
X032651Y000651D01*
X032901Y000908D01*
X032900Y001282D01*
X032901Y001901D01*
X033158Y002283D01*
X034276Y002283D01*
X034526Y002276D01*
X035276Y002276D01*
X035505Y002505D01*
X035505Y002818D01*
X035760Y002818D02*
X035760Y002385D01*
X035401Y002026D01*
X034544Y002026D01*
X033900Y001382D01*
X033044Y000401D01*
X028651Y000401D01*
X028276Y000776D01*
X013776Y000776D01*
X013276Y001276D01*
X014401Y002026D02*
X015725Y002026D01*
X015850Y002151D01*
X016952Y002151D02*
X018026Y002151D01*
X018151Y003651D02*
X020151Y001651D01*
X020382Y001527D01*
X020382Y002757D01*
X021401Y003776D01*
X021776Y004151D02*
X019151Y004151D01*
X018775Y004527D01*
X018775Y006669D01*
X018151Y006651D02*
X018151Y003651D01*
X020775Y005632D02*
X021381Y005026D01*
X022026Y005026D01*
X022400Y004652D01*
X023507Y004652D01*
X023526Y004633D01*
X023526Y002151D01*
X022902Y001527D01*
X021382Y001527D01*
X024401Y002276D02*
X024776Y002276D01*
X025276Y002776D01*
X027526Y002526D02*
X028401Y001651D01*
X029900Y001382D02*
X029901Y001383D01*
X029901Y002151D01*
X029401Y002901D02*
X028401Y002901D01*
X029401Y002901D02*
X029901Y003401D01*
X029901Y003948D01*
X029990Y004037D01*
X030900Y004037D02*
X030901Y004036D01*
X031651Y003878D02*
X031651Y003276D01*
X032151Y002776D02*
X032401Y003026D01*
X032401Y003745D01*
X033433Y004776D01*
X034401Y004776D01*
X034737Y005112D01*
X034737Y005697D01*
X034737Y006645D01*
X034849Y006757D01*
X035345Y006151D02*
X035951Y006757D01*
X036528Y007078D02*
X036528Y005697D01*
X036776Y005705D02*
X036776Y006651D01*
X036901Y006776D01*
X038401Y006776D01*
X038901Y006881D02*
X038901Y006901D01*
X039401Y006401D01*
X038901Y006881D02*
X038900Y007757D01*
X037900Y007757D02*
X037900Y008809D01*
X035900Y008809D01*
X032901Y009651D02*
X026851Y009651D01*
X024151Y009651D01*
X023651Y009151D01*
X023651Y008151D01*
X022151Y006651D01*
X024400Y006527D02*
X024400Y007706D01*
X024651Y008651D02*
X025651Y007651D01*
X025900Y007757D01*
X026851Y007806D02*
X026851Y009651D01*
X024651Y008651D02*
X024400Y008809D01*
X026851Y007806D02*
X026900Y007757D01*
X029900Y007706D02*
X029900Y006900D01*
X029776Y006776D01*
X029776Y006151D01*
X026901Y004401D02*
X026526Y004776D01*
X026901Y004401D02*
X026901Y003901D01*
X026900Y003777D01*
X025401Y005526D02*
X024400Y006527D01*
X019900Y007757D02*
X018789Y007757D01*
X018775Y007771D01*
X018151Y006651D02*
X017026Y007651D01*
X016295Y007599D01*
X015651Y007901D02*
X015122Y007901D01*
X015018Y007797D01*
X015651Y007901D02*
X015651Y010151D01*
X016651Y011151D01*
X016651Y011651D01*
X016151Y012151D01*
X016151Y014151D01*
X015151Y015151D01*
X015144Y015065D01*
X014651Y015026D02*
X014644Y015065D01*
X014651Y015026D02*
X014651Y014026D01*
X014651Y013276D01*
X013575Y014052D02*
X013526Y014003D01*
X013526Y012526D01*
X014401Y012526D01*
X014651Y012276D01*
X014651Y011455D01*
X014724Y011382D01*
X015018Y010574D02*
X015826Y011382D01*
X016651Y012151D02*
X017026Y011776D01*
X017026Y007651D01*
X015651Y007901D02*
X015651Y006651D01*
X012651Y003651D01*
X011901Y003651D01*
X011543Y003249D01*
X011651Y005401D02*
X013526Y005401D01*
X013901Y005526D02*
X013599Y005828D01*
X012526Y005776D02*
X012526Y005933D01*
X012451Y006007D01*
X012451Y006632D01*
X012451Y006976D01*
X012026Y007401D01*
X012026Y007415D01*
X012018Y007797D01*
X010776Y008026D02*
X010776Y008868D01*
X010670Y008974D01*
X010651Y009401D01*
X010670Y010076D02*
X010651Y010151D01*
X010651Y010651D01*
X009651Y011651D01*
X010651Y011651D01*
X009651Y011651D02*
X009151Y011651D01*
X008531Y011031D01*
X008517Y010406D01*
X007526Y009401D02*
X007026Y009901D01*
X007026Y011651D01*
X008401Y011651D01*
X008651Y012526D02*
X008401Y012776D01*
X007276Y012776D01*
X008526Y013776D02*
X009526Y013276D01*
X010401Y013776D01*
X010526Y014151D01*
X011151Y014151D01*
X011151Y014651D01*
X011526Y015026D01*
X011526Y015276D01*
X012151Y015901D01*
X012151Y017478D01*
X012144Y017485D01*
X012644Y017485D01*
X012637Y018644D01*
X012572Y018862D01*
X012572Y019322D01*
X012776Y019526D01*
X013026Y019526D01*
X014526Y019526D01*
X014748Y019305D01*
X014748Y018918D01*
X015151Y018151D02*
X015651Y018651D01*
X015850Y018918D01*
X015151Y018151D02*
X015151Y017776D01*
X015144Y017485D01*
X014644Y017485D02*
X014644Y018151D01*
X014651Y018151D01*
X014651Y018276D01*
X014685Y018276D02*
X014644Y018235D01*
X014644Y018151D01*
X013651Y017651D02*
X013651Y018651D01*
X013675Y018862D01*
X013151Y018276D02*
X013151Y017617D01*
X013144Y017485D01*
X013644Y017485D02*
X013651Y017651D01*
X014144Y017485D02*
X014151Y017151D01*
X014651Y016651D01*
X016151Y016651D01*
X016114Y016816D01*
X014151Y016026D02*
X014151Y015072D01*
X014144Y015065D01*
X013651Y015151D02*
X013644Y015065D01*
X013651Y015151D02*
X013651Y016026D01*
X013776Y016151D01*
X013776Y016651D01*
X013151Y015651D02*
X012651Y016151D01*
X013151Y015651D02*
X013151Y015151D01*
X013144Y015065D01*
X012776Y014933D02*
X012644Y015065D01*
X012776Y014933D02*
X012776Y013276D01*
X012401Y012776D02*
X012196Y012946D01*
X012196Y013964D01*
X012151Y014009D01*
X012151Y015151D01*
X012144Y015065D01*
X011401Y016276D02*
X010781Y015656D01*
X010746Y015656D01*
X010776Y015687D01*
X010776Y015776D01*
X010151Y016164D02*
X010746Y016758D01*
X011138Y017151D01*
X011526Y017151D01*
X011651Y016651D02*
X011401Y016401D01*
X011401Y016276D01*
X010151Y016164D02*
X010151Y014776D01*
X009526Y014276D01*
X011094Y013964D02*
X011151Y013651D01*
X011151Y014032D01*
X011094Y013964D02*
X011151Y014151D01*
X011151Y013651D02*
X011151Y012526D01*
X011326Y012351D01*
X012476Y012351D01*
X012476Y011420D01*
X012476Y011385D01*
X012518Y010217D01*
X012018Y010217D01*
X011717Y010217D01*
X013018Y010217D02*
X013018Y012143D01*
X013026Y012151D01*
X012651Y012526D02*
X012476Y012351D01*
X012651Y012526D02*
X013526Y012526D01*
X013578Y011420D02*
X013518Y011360D01*
X013518Y010217D01*
X014018Y010217D02*
X014018Y009534D01*
X014401Y009151D01*
X015026Y009151D01*
X014526Y009526D02*
X014518Y009909D01*
X014518Y010217D01*
X015018Y010217D02*
X015018Y010574D01*
X018026Y010151D02*
X018026Y008651D01*
X016295Y008701D02*
X016295Y009382D01*
X016276Y009401D01*
X016026Y009401D01*
X010276Y008276D02*
X009906Y007906D01*
X009517Y007906D01*
X009651Y006651D02*
X011026Y006651D01*
X011349Y006632D01*
X011401Y006580D01*
X011401Y005776D01*
X011651Y005401D01*
X016151Y006151D02*
X016151Y006901D01*
X008517Y009406D02*
X008387Y009401D01*
X007526Y009401D01*
X016651Y012151D02*
X016651Y015151D01*
X016151Y015651D01*
X016114Y015713D01*
X017416Y014632D02*
X017651Y014651D01*
X017651Y013651D01*
X017400Y013757D01*
X017651Y013651D02*
X017651Y012151D01*
X017400Y012257D01*
X014678Y014052D02*
X014677Y014052D01*
X014651Y014026D01*
X008526Y015776D02*
X007151Y015776D01*
X006901Y016151D01*
X006901Y018526D01*
X007276Y018901D01*
X010401Y018901D01*
X010776Y018526D01*
X010776Y018026D01*
X008526Y016776D02*
X007276Y016776D01*
X013026Y019526D02*
X013151Y019533D01*
X023166Y014757D02*
X023151Y014651D01*
X023151Y013651D01*
X022900Y013757D01*
X023151Y013651D02*
X023151Y012151D01*
X023045Y012150D01*
X028920Y012150D02*
X029151Y012151D01*
X029151Y013651D01*
X029025Y013757D01*
X029151Y013651D02*
X029151Y014651D01*
X028791Y014757D01*
X034900Y013507D02*
X035151Y013651D01*
X035151Y012651D01*
X035045Y012400D01*
X035151Y013651D02*
X035151Y014651D01*
X034916Y014507D01*
X040916Y014257D02*
X041151Y014151D01*
X041151Y013151D01*
X040900Y013257D01*
X041151Y013151D02*
X041151Y012151D01*
X040795Y012150D01*
X047045Y012150D02*
X047151Y012151D01*
X047151Y013151D01*
X047150Y013257D01*
X047151Y013151D02*
X047151Y014151D01*
X047166Y014257D01*
X047900Y008809D02*
X049900Y008809D01*
X049900Y007757D01*
X047900Y007706D02*
X047900Y007400D01*
X047151Y006651D01*
X042651Y006651D01*
X042651Y005901D01*
X045007Y004757D02*
X045401Y005151D01*
X045401Y005756D01*
X045400Y005757D01*
X045007Y004757D02*
X043900Y004757D01*
X043900Y003757D02*
X045400Y003757D01*
X049400Y005757D02*
X049651Y005651D01*
X051651Y003651D01*
X051651Y003151D01*
X051900Y002757D01*
X040837Y001651D02*
X039276Y001651D01*
X037552Y002818D02*
X037526Y002844D01*
X037526Y003776D01*
X037276Y003526D02*
X037026Y003776D01*
X036651Y003776D01*
X036026Y003526D02*
X035776Y003526D01*
X036026Y003526D02*
X036026Y003453D01*
X036016Y002818D01*
X035249Y002818D02*
X035276Y003221D01*
X035276Y003901D01*
X035526Y004151D02*
X034993Y004685D01*
X034993Y005697D01*
X034993Y006118D01*
X035026Y006151D01*
X035345Y006151D01*
X036272Y005697D02*
X036276Y005693D01*
X036276Y005401D01*
X036026Y005151D01*
X037026Y005651D02*
X037026Y005683D01*
X037040Y005697D01*
X037040Y004540D01*
X037026Y004526D01*
X035776Y004151D02*
X035526Y004151D01*
X034901Y003401D02*
X034651Y003526D01*
X034901Y003410D02*
X034993Y003318D01*
X034993Y002818D01*
X034737Y002818D02*
X034401Y003276D01*
X034096Y003706D01*
X033400Y003706D01*
X033400Y002900D01*
X033151Y002651D01*
X032901Y002651D01*
X032401Y002151D01*
X032151Y002776D02*
X031651Y002776D01*
X034901Y003401D02*
X034901Y003410D01*
X037276Y003463D02*
X037296Y002818D01*
X037276Y003463D02*
X037276Y003526D01*
X038651Y003651D02*
X039345Y003651D01*
X039400Y003706D01*
X037526Y005151D02*
X037526Y005671D01*
X037552Y005697D01*
X037776Y005728D02*
X037776Y006276D01*
X038026Y006026D02*
X038526Y006026D01*
X038526Y006151D01*
X038026Y006026D02*
X038026Y005734D01*
X038064Y005697D01*
X037808Y005697D02*
X037776Y005728D01*
X037296Y005697D02*
X037276Y006217D01*
X037276Y006276D01*
X036776Y005705D02*
X036784Y005697D01*
X036528Y007078D02*
X035900Y007706D01*
X031900Y007757D02*
X031900Y008809D01*
X029900Y008809D01*
X033400Y004809D02*
X033433Y004776D01*
X031810Y004037D02*
X031651Y003878D01*
X025990Y001722D02*
X025900Y001632D01*
D29*
X029901Y002151D03*
X029901Y002776D03*
X031651Y002776D03*
X032401Y002151D03*
X008401Y011651D03*
D30*
X008651Y012526D03*
X007276Y012776D03*
X010651Y011651D03*
X013026Y012151D03*
X012401Y012776D03*
X012776Y013276D03*
X014651Y013276D03*
X014151Y016026D03*
X011651Y016651D03*
X011526Y017151D03*
X010776Y018026D03*
X013151Y018276D03*
X014651Y018276D03*
X007276Y016776D03*
X018026Y010151D03*
X016026Y009401D03*
X015026Y009151D03*
X014526Y009526D03*
X014026Y009026D03*
X013526Y008776D03*
X013018Y008526D03*
X014776Y008651D03*
X012276Y009401D03*
X010651Y009401D03*
X010276Y008276D03*
X010776Y008026D03*
X016151Y006901D03*
X016151Y006151D03*
X017651Y005776D03*
X019151Y005776D03*
X021776Y004151D03*
X021401Y003776D03*
X024401Y002276D03*
X025276Y002776D03*
X027526Y002526D03*
X028401Y002901D03*
X028401Y001651D03*
X031651Y003276D03*
X034651Y003526D03*
X035276Y003901D03*
X035776Y003526D03*
X036651Y003776D03*
X037526Y003776D03*
X037026Y004526D03*
X037526Y005151D03*
X036026Y005151D03*
X037276Y006276D03*
X037776Y006276D03*
X038526Y006151D03*
X038401Y006776D03*
X039526Y005526D03*
X042651Y005901D03*
X041526Y004276D03*
X039276Y001651D03*
X029776Y006151D03*
X026526Y004776D03*
X025401Y005526D03*
X024526Y005901D03*
X018026Y008651D03*
X012526Y005776D03*
X013901Y005526D03*
X014526Y004776D03*
X013776Y003526D03*
X013276Y003651D03*
X014401Y002026D03*
X012276Y001151D03*
X018026Y002151D03*
D31*
X022151Y006651D03*
X038651Y002651D03*
X012651Y016151D03*
X013776Y016651D03*
D32*
X019401Y015026D02*
X019384Y014632D01*
X019401Y015026D02*
X019401Y015776D01*
X019400Y015757D01*
X019401Y016151D01*
X019401Y018151D01*
X019651Y018651D01*
X019825Y018864D01*
X020401Y017026D02*
X021794Y018419D01*
X021794Y018864D01*
X024932Y018757D02*
X025151Y018651D01*
X025151Y016151D01*
X025150Y015757D01*
X025151Y015651D01*
X025151Y014651D01*
X025134Y014757D01*
X026151Y014776D02*
X026900Y014027D01*
X026900Y013757D01*
X026151Y014776D02*
X026151Y015756D01*
X026150Y015757D01*
X026151Y016151D01*
X026151Y018151D01*
X026651Y018651D01*
X026900Y018757D01*
X030776Y018651D02*
X030932Y018757D01*
X030776Y018651D02*
X030776Y016026D01*
X030900Y015757D01*
X030776Y015776D01*
X030776Y014776D01*
X030759Y014757D01*
X031901Y014776D02*
X032900Y013777D01*
X033025Y013757D01*
X033045Y013757D01*
X031901Y014776D02*
X031901Y015756D01*
X031900Y015757D01*
X031901Y015758D01*
X031901Y017401D01*
X032900Y018400D01*
X032900Y018757D01*
X036651Y018651D02*
X036932Y018757D01*
X036651Y018651D02*
X036651Y016151D01*
X036900Y015757D01*
X036651Y015651D01*
X036651Y014651D01*
X036884Y014507D01*
X037901Y014151D02*
X038795Y013507D01*
X038900Y013507D01*
X037901Y014151D02*
X037901Y014881D01*
X037900Y014882D01*
X037900Y015757D01*
X037901Y015758D01*
X037901Y017276D01*
X038900Y018275D01*
X038900Y018757D01*
X042651Y018651D02*
X042932Y018757D01*
X042651Y018651D02*
X042651Y016151D01*
X042650Y015757D01*
X042651Y015651D01*
X042651Y014151D01*
X042884Y014257D01*
X043651Y015151D02*
X044151Y014651D01*
X044151Y013651D01*
X044651Y013151D01*
X044900Y013257D01*
X049151Y014151D02*
X049134Y014257D01*
X049151Y014151D02*
X049151Y015151D01*
X049150Y015507D01*
X049151Y015651D01*
X049151Y018651D01*
X048932Y018757D01*
X050151Y018151D02*
X050151Y015651D01*
X050150Y015507D01*
X050151Y015506D01*
X050151Y013651D01*
X050545Y013257D01*
X051150Y013257D01*
X044651Y017151D02*
X043651Y016151D01*
X043650Y015757D01*
X043651Y015651D01*
X043651Y015151D01*
X044651Y017151D02*
X044651Y018651D01*
X044900Y018757D01*
X050151Y018151D02*
X050651Y018651D01*
X050900Y018757D01*
X021400Y013757D02*
X021170Y013757D01*
X020401Y014526D01*
X020401Y015758D01*
X020401Y017026D01*
X020401Y015758D02*
X020400Y015757D01*
M02*
