%
M48
M72
T01C0.0150
T02C0.0236
T03C0.0276
T04C0.0320
T05C0.0354
T06C0.0394
T07C0.0400
T08C0.0512
T09C0.1180
T10C0.1260
%
T01
X22151Y6651
X38651Y2651
X12651Y16151
X13776Y16651
T02
X14151Y16026
X11651Y16651
X11526Y17151
X10776Y18026
X13151Y18276
X14651Y18276
X7276Y16776
X12776Y13276
X12401Y12776
X13026Y12151
X10651Y11651
X8651Y12526
X7276Y12776
X8401Y11651
X10651Y9401
X12276Y9401
X13526Y8776
X14026Y9026
X14526Y9526
X15026Y9151
X16026Y9401
X14776Y8651
X13018Y8526
X10776Y8026
X10276Y8276
X16151Y6901
X16151Y6151
X17651Y5776
X19151Y5776
X21776Y4151
X21401Y3776
X24401Y2276
X25276Y2776
X27526Y2526
X28401Y2901
X29901Y2776
X29901Y2151
X28401Y1651
X31651Y2776
X31651Y3276
X34651Y3526
X35276Y3901
X35776Y3526
X36651Y3776
X37526Y3776
X37026Y4526
X37526Y5151
X36026Y5151
X37276Y6276
X37776Y6276
X38526Y6151
X38401Y6776
X39526Y5526
X42651Y5901
X41526Y4276
X39276Y1651
X32401Y2151
X26526Y4776
X25401Y5526
X24526Y5901
X29776Y6151
X18026Y8651
X18026Y10151
X14651Y13276
X12526Y5776
X13901Y5526
X14526Y4776
X13776Y3526
X13276Y3651
X14401Y2026
X12276Y1151
X18026Y2151
T03
X20382Y1527
X21382Y1527
X25900Y1632
X26900Y1632
X23507Y4652
X23507Y5652
X20775Y5632
X20775Y4632
X40916Y14257
X42884Y14257
X47166Y14257
X49134Y14257
X36884Y14507
X34916Y14507
X30759Y14757
X28791Y14757
X25134Y14757
X23166Y14757
X19384Y14632
X17416Y14632
T04
X19900Y10757
X20900Y10757
X21900Y10757
X25900Y10757
X26900Y10757
X27900Y10757
X31900Y10757
X32900Y10757
X33900Y10757
X37900Y10757
X38900Y10757
X39900Y10757
X43900Y10757
X44900Y10757
X45900Y10757
X49900Y10757
X50900Y10757
X51900Y10757
X51900Y7757
X50900Y7757
X49900Y7757
X45900Y7757
X44900Y7757
X43900Y7757
X39900Y7757
X38900Y7757
X37900Y7757
X33900Y7757
X32900Y7757
X31900Y7757
X27900Y7757
X26900Y7757
X25900Y7757
X21900Y7757
X20900Y7757
X19900Y7757
X40900Y5757
X40900Y4757
X40900Y3757
X43900Y3757
X43900Y4757
X43900Y5757
T05
X45400Y5757
X49400Y5757
X49400Y3757
X45400Y3757
X44795Y12150
X47045Y12150
X47150Y13257
X44900Y13257
X40900Y13257
X38900Y13507
X39045Y12400
X40795Y12150
X35045Y12400
X32920Y12150
X34900Y13507
X33025Y13757
X29025Y13757
X26900Y13757
X22900Y13757
X21400Y13757
X21400Y12257
X23045Y12150
X27045Y12150
X28920Y12150
X17400Y12257
X17400Y13757
X51045Y12150
X51150Y13257
T06
X9526Y13276
X8526Y13776
X9526Y14276
X8526Y14776
X9526Y15276
X8526Y15776
X9526Y16276
X8526Y16776
X8517Y10406
X9517Y9906
X8517Y9406
X9517Y8906
X8517Y8406
X9517Y7906
X8517Y7406
X9517Y6906
T07
X29900Y1382
X30900Y1282
X31900Y1382
X32900Y1282
X33900Y1382
X34900Y1282
X49150Y15507
X50150Y15507
X51150Y15507
X44650Y15757
X43650Y15757
X42650Y15757
X38900Y15757
X37900Y15757
X36900Y15757
X32900Y15757
X31900Y15757
X30900Y15757
X27150Y15757
X26150Y15757
X25150Y15757
X21400Y15757
X20400Y15757
X19400Y15757
T08
X19825Y18864
X21794Y18864
X24932Y18757
X26900Y18757
X30932Y18757
X32900Y18757
X36932Y18757
X38900Y18757
X42932Y18757
X44900Y18757
X48932Y18757
X50900Y18757
X51900Y4726
X51900Y2757
T09
X11543Y3249
X9181Y3249
X10362Y1398
T10
X1026Y1026
X6017Y6406
X6017Y10906
X6026Y12776
X6026Y17276
X1026Y19151
X54401Y19026
X54400Y1132
M30
