G75*
G70*
%OFA0B0*%
%FSLAX24Y24*%
%IPPOS*%
%LPD*%
%AMOC8*
5,1,8,0,0,1.08239X$1,22.5*
%
%ADD10R,0.0137X0.0550*%
%ADD11R,0.0630X0.0709*%
%ADD12R,0.0709X0.0630*%
%ADD13R,0.0260X0.0800*%
%ADD14R,0.0480X0.0880*%
%ADD15R,0.1417X0.0866*%
%ADD16R,0.0591X0.0591*%
D10*
X034737Y002818D03*
X034993Y002818D03*
X035249Y002818D03*
X035505Y002818D03*
X035760Y002818D03*
X036016Y002818D03*
X036272Y002818D03*
X036528Y002818D03*
X036784Y002818D03*
X037040Y002818D03*
X037296Y002818D03*
X037552Y002818D03*
X037808Y002818D03*
X038064Y002818D03*
X038064Y005697D03*
X037808Y005697D03*
X037552Y005697D03*
X037296Y005697D03*
X037040Y005697D03*
X036784Y005697D03*
X036528Y005697D03*
X036272Y005697D03*
X036016Y005697D03*
X035760Y005697D03*
X035505Y005697D03*
X035249Y005697D03*
X034993Y005697D03*
X034737Y005697D03*
D11*
X015850Y002151D03*
X016952Y002151D03*
X012451Y006632D03*
X011349Y006632D03*
X013599Y006757D03*
X014701Y006757D03*
X014724Y011382D03*
X015826Y011382D03*
X013578Y011420D03*
X012476Y011420D03*
X012196Y013964D03*
X011094Y013964D03*
X013575Y014052D03*
X014678Y014052D03*
X013675Y018862D03*
X014748Y018918D03*
X015850Y018918D03*
X012572Y018862D03*
X034849Y006757D03*
X035951Y006757D03*
X036599Y001757D03*
X037701Y001757D03*
D12*
X039400Y003706D03*
X039400Y004809D03*
X033400Y004809D03*
X033400Y003706D03*
X035900Y007706D03*
X035900Y008809D03*
X029900Y008809D03*
X029900Y007706D03*
X024400Y007706D03*
X024400Y008809D03*
X018775Y007771D03*
X016295Y007599D03*
X016295Y008701D03*
X018775Y006669D03*
X010670Y008974D03*
X010670Y010076D03*
X010746Y015656D03*
X010746Y016758D03*
X016114Y016816D03*
X016114Y015713D03*
X041900Y008809D03*
X041900Y007706D03*
X047900Y007706D03*
X047900Y008809D03*
D13*
X015018Y007797D03*
X014518Y007797D03*
X014018Y007797D03*
X013518Y007797D03*
X013018Y007797D03*
X012518Y007797D03*
X012018Y007797D03*
X012018Y010217D03*
X012518Y010217D03*
X013018Y010217D03*
X013518Y010217D03*
X014018Y010217D03*
X014518Y010217D03*
X015018Y010217D03*
X015144Y015065D03*
X014644Y015065D03*
X014144Y015065D03*
X013644Y015065D03*
X013144Y015065D03*
X012644Y015065D03*
X012144Y015065D03*
X012144Y017485D03*
X012644Y017485D03*
X013144Y017485D03*
X013644Y017485D03*
X014144Y017485D03*
X014644Y017485D03*
X015144Y017485D03*
D14*
X029990Y004037D03*
X030900Y004037D03*
X031810Y004037D03*
X027810Y003787D03*
X026900Y003787D03*
X025990Y003787D03*
D15*
X026900Y006228D03*
X030900Y006478D03*
D16*
X040837Y001651D03*
X042215Y001651D03*
M02*
