G75*
G70*
%OFA0B0*%
%FSLAX24Y24*%
%IPPOS*%
%LPD*%
%AMOC8*
5,1,8,0,0,1.08239X$1,22.5*
%
%ADD10C,0.0000*%
%ADD11C,0.0100*%
D10*
X000396Y001026D02*
X000398Y001076D01*
X000404Y001126D01*
X000414Y001175D01*
X000428Y001223D01*
X000445Y001270D01*
X000466Y001315D01*
X000491Y001359D01*
X000519Y001400D01*
X000551Y001439D01*
X000585Y001476D01*
X000622Y001510D01*
X000662Y001540D01*
X000704Y001567D01*
X000748Y001591D01*
X000794Y001612D01*
X000841Y001628D01*
X000889Y001641D01*
X000939Y001650D01*
X000988Y001655D01*
X001039Y001656D01*
X001089Y001653D01*
X001138Y001646D01*
X001187Y001635D01*
X001235Y001620D01*
X001281Y001602D01*
X001326Y001580D01*
X001369Y001554D01*
X001410Y001525D01*
X001449Y001493D01*
X001485Y001458D01*
X001517Y001420D01*
X001547Y001380D01*
X001574Y001337D01*
X001597Y001293D01*
X001616Y001247D01*
X001632Y001199D01*
X001644Y001150D01*
X001652Y001101D01*
X001656Y001051D01*
X001656Y001001D01*
X001652Y000951D01*
X001644Y000902D01*
X001632Y000853D01*
X001616Y000805D01*
X001597Y000759D01*
X001574Y000715D01*
X001547Y000672D01*
X001517Y000632D01*
X001485Y000594D01*
X001449Y000559D01*
X001410Y000527D01*
X001369Y000498D01*
X001326Y000472D01*
X001281Y000450D01*
X001235Y000432D01*
X001187Y000417D01*
X001138Y000406D01*
X001089Y000399D01*
X001039Y000396D01*
X000988Y000397D01*
X000939Y000402D01*
X000889Y000411D01*
X000841Y000424D01*
X000794Y000440D01*
X000748Y000461D01*
X000704Y000485D01*
X000662Y000512D01*
X000622Y000542D01*
X000585Y000576D01*
X000551Y000613D01*
X000519Y000652D01*
X000491Y000693D01*
X000466Y000737D01*
X000445Y000782D01*
X000428Y000829D01*
X000414Y000877D01*
X000404Y000926D01*
X000398Y000976D01*
X000396Y001026D01*
X005387Y006406D02*
X005389Y006456D01*
X005395Y006506D01*
X005405Y006555D01*
X005419Y006603D01*
X005436Y006650D01*
X005457Y006695D01*
X005482Y006739D01*
X005510Y006780D01*
X005542Y006819D01*
X005576Y006856D01*
X005613Y006890D01*
X005653Y006920D01*
X005695Y006947D01*
X005739Y006971D01*
X005785Y006992D01*
X005832Y007008D01*
X005880Y007021D01*
X005930Y007030D01*
X005979Y007035D01*
X006030Y007036D01*
X006080Y007033D01*
X006129Y007026D01*
X006178Y007015D01*
X006226Y007000D01*
X006272Y006982D01*
X006317Y006960D01*
X006360Y006934D01*
X006401Y006905D01*
X006440Y006873D01*
X006476Y006838D01*
X006508Y006800D01*
X006538Y006760D01*
X006565Y006717D01*
X006588Y006673D01*
X006607Y006627D01*
X006623Y006579D01*
X006635Y006530D01*
X006643Y006481D01*
X006647Y006431D01*
X006647Y006381D01*
X006643Y006331D01*
X006635Y006282D01*
X006623Y006233D01*
X006607Y006185D01*
X006588Y006139D01*
X006565Y006095D01*
X006538Y006052D01*
X006508Y006012D01*
X006476Y005974D01*
X006440Y005939D01*
X006401Y005907D01*
X006360Y005878D01*
X006317Y005852D01*
X006272Y005830D01*
X006226Y005812D01*
X006178Y005797D01*
X006129Y005786D01*
X006080Y005779D01*
X006030Y005776D01*
X005979Y005777D01*
X005930Y005782D01*
X005880Y005791D01*
X005832Y005804D01*
X005785Y005820D01*
X005739Y005841D01*
X005695Y005865D01*
X005653Y005892D01*
X005613Y005922D01*
X005576Y005956D01*
X005542Y005993D01*
X005510Y006032D01*
X005482Y006073D01*
X005457Y006117D01*
X005436Y006162D01*
X005419Y006209D01*
X005405Y006257D01*
X005395Y006306D01*
X005389Y006356D01*
X005387Y006406D01*
X005387Y010906D02*
X005389Y010956D01*
X005395Y011006D01*
X005405Y011055D01*
X005419Y011103D01*
X005436Y011150D01*
X005457Y011195D01*
X005482Y011239D01*
X005510Y011280D01*
X005542Y011319D01*
X005576Y011356D01*
X005613Y011390D01*
X005653Y011420D01*
X005695Y011447D01*
X005739Y011471D01*
X005785Y011492D01*
X005832Y011508D01*
X005880Y011521D01*
X005930Y011530D01*
X005979Y011535D01*
X006030Y011536D01*
X006080Y011533D01*
X006129Y011526D01*
X006178Y011515D01*
X006226Y011500D01*
X006272Y011482D01*
X006317Y011460D01*
X006360Y011434D01*
X006401Y011405D01*
X006440Y011373D01*
X006476Y011338D01*
X006508Y011300D01*
X006538Y011260D01*
X006565Y011217D01*
X006588Y011173D01*
X006607Y011127D01*
X006623Y011079D01*
X006635Y011030D01*
X006643Y010981D01*
X006647Y010931D01*
X006647Y010881D01*
X006643Y010831D01*
X006635Y010782D01*
X006623Y010733D01*
X006607Y010685D01*
X006588Y010639D01*
X006565Y010595D01*
X006538Y010552D01*
X006508Y010512D01*
X006476Y010474D01*
X006440Y010439D01*
X006401Y010407D01*
X006360Y010378D01*
X006317Y010352D01*
X006272Y010330D01*
X006226Y010312D01*
X006178Y010297D01*
X006129Y010286D01*
X006080Y010279D01*
X006030Y010276D01*
X005979Y010277D01*
X005930Y010282D01*
X005880Y010291D01*
X005832Y010304D01*
X005785Y010320D01*
X005739Y010341D01*
X005695Y010365D01*
X005653Y010392D01*
X005613Y010422D01*
X005576Y010456D01*
X005542Y010493D01*
X005510Y010532D01*
X005482Y010573D01*
X005457Y010617D01*
X005436Y010662D01*
X005419Y010709D01*
X005405Y010757D01*
X005395Y010806D01*
X005389Y010856D01*
X005387Y010906D01*
X005396Y012776D02*
X005398Y012826D01*
X005404Y012876D01*
X005414Y012925D01*
X005428Y012973D01*
X005445Y013020D01*
X005466Y013065D01*
X005491Y013109D01*
X005519Y013150D01*
X005551Y013189D01*
X005585Y013226D01*
X005622Y013260D01*
X005662Y013290D01*
X005704Y013317D01*
X005748Y013341D01*
X005794Y013362D01*
X005841Y013378D01*
X005889Y013391D01*
X005939Y013400D01*
X005988Y013405D01*
X006039Y013406D01*
X006089Y013403D01*
X006138Y013396D01*
X006187Y013385D01*
X006235Y013370D01*
X006281Y013352D01*
X006326Y013330D01*
X006369Y013304D01*
X006410Y013275D01*
X006449Y013243D01*
X006485Y013208D01*
X006517Y013170D01*
X006547Y013130D01*
X006574Y013087D01*
X006597Y013043D01*
X006616Y012997D01*
X006632Y012949D01*
X006644Y012900D01*
X006652Y012851D01*
X006656Y012801D01*
X006656Y012751D01*
X006652Y012701D01*
X006644Y012652D01*
X006632Y012603D01*
X006616Y012555D01*
X006597Y012509D01*
X006574Y012465D01*
X006547Y012422D01*
X006517Y012382D01*
X006485Y012344D01*
X006449Y012309D01*
X006410Y012277D01*
X006369Y012248D01*
X006326Y012222D01*
X006281Y012200D01*
X006235Y012182D01*
X006187Y012167D01*
X006138Y012156D01*
X006089Y012149D01*
X006039Y012146D01*
X005988Y012147D01*
X005939Y012152D01*
X005889Y012161D01*
X005841Y012174D01*
X005794Y012190D01*
X005748Y012211D01*
X005704Y012235D01*
X005662Y012262D01*
X005622Y012292D01*
X005585Y012326D01*
X005551Y012363D01*
X005519Y012402D01*
X005491Y012443D01*
X005466Y012487D01*
X005445Y012532D01*
X005428Y012579D01*
X005414Y012627D01*
X005404Y012676D01*
X005398Y012726D01*
X005396Y012776D01*
X005396Y017276D02*
X005398Y017326D01*
X005404Y017376D01*
X005414Y017425D01*
X005428Y017473D01*
X005445Y017520D01*
X005466Y017565D01*
X005491Y017609D01*
X005519Y017650D01*
X005551Y017689D01*
X005585Y017726D01*
X005622Y017760D01*
X005662Y017790D01*
X005704Y017817D01*
X005748Y017841D01*
X005794Y017862D01*
X005841Y017878D01*
X005889Y017891D01*
X005939Y017900D01*
X005988Y017905D01*
X006039Y017906D01*
X006089Y017903D01*
X006138Y017896D01*
X006187Y017885D01*
X006235Y017870D01*
X006281Y017852D01*
X006326Y017830D01*
X006369Y017804D01*
X006410Y017775D01*
X006449Y017743D01*
X006485Y017708D01*
X006517Y017670D01*
X006547Y017630D01*
X006574Y017587D01*
X006597Y017543D01*
X006616Y017497D01*
X006632Y017449D01*
X006644Y017400D01*
X006652Y017351D01*
X006656Y017301D01*
X006656Y017251D01*
X006652Y017201D01*
X006644Y017152D01*
X006632Y017103D01*
X006616Y017055D01*
X006597Y017009D01*
X006574Y016965D01*
X006547Y016922D01*
X006517Y016882D01*
X006485Y016844D01*
X006449Y016809D01*
X006410Y016777D01*
X006369Y016748D01*
X006326Y016722D01*
X006281Y016700D01*
X006235Y016682D01*
X006187Y016667D01*
X006138Y016656D01*
X006089Y016649D01*
X006039Y016646D01*
X005988Y016647D01*
X005939Y016652D01*
X005889Y016661D01*
X005841Y016674D01*
X005794Y016690D01*
X005748Y016711D01*
X005704Y016735D01*
X005662Y016762D01*
X005622Y016792D01*
X005585Y016826D01*
X005551Y016863D01*
X005519Y016902D01*
X005491Y016943D01*
X005466Y016987D01*
X005445Y017032D01*
X005428Y017079D01*
X005414Y017127D01*
X005404Y017176D01*
X005398Y017226D01*
X005396Y017276D01*
X000396Y019151D02*
X000398Y019201D01*
X000404Y019251D01*
X000414Y019300D01*
X000428Y019348D01*
X000445Y019395D01*
X000466Y019440D01*
X000491Y019484D01*
X000519Y019525D01*
X000551Y019564D01*
X000585Y019601D01*
X000622Y019635D01*
X000662Y019665D01*
X000704Y019692D01*
X000748Y019716D01*
X000794Y019737D01*
X000841Y019753D01*
X000889Y019766D01*
X000939Y019775D01*
X000988Y019780D01*
X001039Y019781D01*
X001089Y019778D01*
X001138Y019771D01*
X001187Y019760D01*
X001235Y019745D01*
X001281Y019727D01*
X001326Y019705D01*
X001369Y019679D01*
X001410Y019650D01*
X001449Y019618D01*
X001485Y019583D01*
X001517Y019545D01*
X001547Y019505D01*
X001574Y019462D01*
X001597Y019418D01*
X001616Y019372D01*
X001632Y019324D01*
X001644Y019275D01*
X001652Y019226D01*
X001656Y019176D01*
X001656Y019126D01*
X001652Y019076D01*
X001644Y019027D01*
X001632Y018978D01*
X001616Y018930D01*
X001597Y018884D01*
X001574Y018840D01*
X001547Y018797D01*
X001517Y018757D01*
X001485Y018719D01*
X001449Y018684D01*
X001410Y018652D01*
X001369Y018623D01*
X001326Y018597D01*
X001281Y018575D01*
X001235Y018557D01*
X001187Y018542D01*
X001138Y018531D01*
X001089Y018524D01*
X001039Y018521D01*
X000988Y018522D01*
X000939Y018527D01*
X000889Y018536D01*
X000841Y018549D01*
X000794Y018565D01*
X000748Y018586D01*
X000704Y018610D01*
X000662Y018637D01*
X000622Y018667D01*
X000585Y018701D01*
X000551Y018738D01*
X000519Y018777D01*
X000491Y018818D01*
X000466Y018862D01*
X000445Y018907D01*
X000428Y018954D01*
X000414Y019002D01*
X000404Y019051D01*
X000398Y019101D01*
X000396Y019151D01*
X053771Y019026D02*
X053773Y019076D01*
X053779Y019126D01*
X053789Y019175D01*
X053803Y019223D01*
X053820Y019270D01*
X053841Y019315D01*
X053866Y019359D01*
X053894Y019400D01*
X053926Y019439D01*
X053960Y019476D01*
X053997Y019510D01*
X054037Y019540D01*
X054079Y019567D01*
X054123Y019591D01*
X054169Y019612D01*
X054216Y019628D01*
X054264Y019641D01*
X054314Y019650D01*
X054363Y019655D01*
X054414Y019656D01*
X054464Y019653D01*
X054513Y019646D01*
X054562Y019635D01*
X054610Y019620D01*
X054656Y019602D01*
X054701Y019580D01*
X054744Y019554D01*
X054785Y019525D01*
X054824Y019493D01*
X054860Y019458D01*
X054892Y019420D01*
X054922Y019380D01*
X054949Y019337D01*
X054972Y019293D01*
X054991Y019247D01*
X055007Y019199D01*
X055019Y019150D01*
X055027Y019101D01*
X055031Y019051D01*
X055031Y019001D01*
X055027Y018951D01*
X055019Y018902D01*
X055007Y018853D01*
X054991Y018805D01*
X054972Y018759D01*
X054949Y018715D01*
X054922Y018672D01*
X054892Y018632D01*
X054860Y018594D01*
X054824Y018559D01*
X054785Y018527D01*
X054744Y018498D01*
X054701Y018472D01*
X054656Y018450D01*
X054610Y018432D01*
X054562Y018417D01*
X054513Y018406D01*
X054464Y018399D01*
X054414Y018396D01*
X054363Y018397D01*
X054314Y018402D01*
X054264Y018411D01*
X054216Y018424D01*
X054169Y018440D01*
X054123Y018461D01*
X054079Y018485D01*
X054037Y018512D01*
X053997Y018542D01*
X053960Y018576D01*
X053926Y018613D01*
X053894Y018652D01*
X053866Y018693D01*
X053841Y018737D01*
X053820Y018782D01*
X053803Y018829D01*
X053789Y018877D01*
X053779Y018926D01*
X053773Y018976D01*
X053771Y019026D01*
X053770Y001132D02*
X053772Y001182D01*
X053778Y001232D01*
X053788Y001281D01*
X053802Y001329D01*
X053819Y001376D01*
X053840Y001421D01*
X053865Y001465D01*
X053893Y001506D01*
X053925Y001545D01*
X053959Y001582D01*
X053996Y001616D01*
X054036Y001646D01*
X054078Y001673D01*
X054122Y001697D01*
X054168Y001718D01*
X054215Y001734D01*
X054263Y001747D01*
X054313Y001756D01*
X054362Y001761D01*
X054413Y001762D01*
X054463Y001759D01*
X054512Y001752D01*
X054561Y001741D01*
X054609Y001726D01*
X054655Y001708D01*
X054700Y001686D01*
X054743Y001660D01*
X054784Y001631D01*
X054823Y001599D01*
X054859Y001564D01*
X054891Y001526D01*
X054921Y001486D01*
X054948Y001443D01*
X054971Y001399D01*
X054990Y001353D01*
X055006Y001305D01*
X055018Y001256D01*
X055026Y001207D01*
X055030Y001157D01*
X055030Y001107D01*
X055026Y001057D01*
X055018Y001008D01*
X055006Y000959D01*
X054990Y000911D01*
X054971Y000865D01*
X054948Y000821D01*
X054921Y000778D01*
X054891Y000738D01*
X054859Y000700D01*
X054823Y000665D01*
X054784Y000633D01*
X054743Y000604D01*
X054700Y000578D01*
X054655Y000556D01*
X054609Y000538D01*
X054561Y000523D01*
X054512Y000512D01*
X054463Y000505D01*
X054413Y000502D01*
X054362Y000503D01*
X054313Y000508D01*
X054263Y000517D01*
X054215Y000530D01*
X054168Y000546D01*
X054122Y000567D01*
X054078Y000591D01*
X054036Y000618D01*
X053996Y000648D01*
X053959Y000682D01*
X053925Y000719D01*
X053893Y000758D01*
X053865Y000799D01*
X053840Y000843D01*
X053819Y000888D01*
X053802Y000935D01*
X053788Y000983D01*
X053778Y001032D01*
X053772Y001082D01*
X053770Y001132D01*
D11*
X000151Y000151D02*
X000151Y019836D01*
X055269Y019836D01*
X055269Y000151D01*
X000151Y000151D01*
M02*
