G75*
G70*
%OFA0B0*%
%FSLAX24Y24*%
%IPPOS*%
%LPD*%
%AMOC8*
5,1,8,0,0,1.08239X$1,22.5*
%
%ADD10C,0.1300*%
%ADD11C,0.0780*%
%ADD12C,0.0560*%
%ADD13C,0.0640*%
%ADD14C,0.0690*%
%ADD15R,0.0840X0.0840*%
%ADD16C,0.0840*%
%ADD17R,0.0780X0.0780*%
%ADD18R,0.0690X0.0690*%
%ADD19C,0.1740*%
D10*
X001026Y001026D03*
X006017Y006406D03*
X006017Y010906D03*
X006026Y012776D03*
X006026Y017276D03*
X001026Y019151D03*
X054401Y019026D03*
X054400Y001132D03*
D11*
X049400Y003757D03*
X045400Y003757D03*
X045400Y005757D03*
X049400Y005757D03*
X034900Y001282D03*
X033900Y001382D03*
X032900Y001282D03*
X031900Y001382D03*
X030900Y001282D03*
X029900Y001382D03*
X009517Y006906D03*
X008517Y007406D03*
X009517Y007906D03*
X008517Y008406D03*
X009517Y008906D03*
X008517Y009406D03*
X009517Y009906D03*
X017400Y012257D03*
X017400Y013757D03*
X021400Y013757D03*
X022900Y013757D03*
X021400Y012257D03*
X023045Y012150D03*
X027045Y012150D03*
X028920Y012150D03*
X032920Y012150D03*
X035045Y012400D03*
X034900Y013507D03*
X033025Y013757D03*
X029025Y013757D03*
X026900Y013757D03*
X038900Y013507D03*
X040900Y013257D03*
X039045Y012400D03*
X040795Y012150D03*
X044795Y012150D03*
X047045Y012150D03*
X047150Y013257D03*
X044900Y013257D03*
X051045Y012150D03*
X051150Y013257D03*
X009526Y013276D03*
X008526Y013776D03*
X009526Y014276D03*
X008526Y014776D03*
X009526Y015276D03*
X008526Y015776D03*
X009526Y016276D03*
D12*
X019900Y011277D02*
X019900Y010757D01*
X020900Y010757D02*
X020900Y011277D01*
X021900Y011277D02*
X021900Y010757D01*
X025900Y010757D02*
X025900Y011277D01*
X026900Y011277D02*
X026900Y010757D01*
X027900Y010757D02*
X027900Y011277D01*
X031900Y011277D02*
X031900Y010757D01*
X032900Y010757D02*
X032900Y011277D01*
X033900Y011277D02*
X033900Y010757D01*
X037900Y010757D02*
X037900Y011277D01*
X038900Y011277D02*
X038900Y010757D01*
X039900Y010757D02*
X039900Y011277D01*
X043900Y011277D02*
X043900Y010757D01*
X044900Y010757D02*
X044900Y011277D01*
X045900Y011277D02*
X045900Y010757D01*
X049900Y010757D02*
X049900Y011277D01*
X050900Y011277D02*
X050900Y010757D01*
X051900Y010757D02*
X051900Y011277D01*
X051900Y007757D02*
X051900Y007237D01*
X050900Y007237D02*
X050900Y007757D01*
X049900Y007757D02*
X049900Y007237D01*
X045900Y007237D02*
X045900Y007757D01*
X044900Y007757D02*
X044900Y007237D01*
X043900Y007237D02*
X043900Y007757D01*
X039900Y007757D02*
X039900Y007237D01*
X038900Y007237D02*
X038900Y007757D01*
X037900Y007757D02*
X037900Y007237D01*
X040380Y005757D02*
X040900Y005757D01*
X040900Y004757D02*
X040380Y004757D01*
X040380Y003757D02*
X040900Y003757D01*
X043900Y003757D02*
X044420Y003757D01*
X044420Y004757D02*
X043900Y004757D01*
X043900Y005757D02*
X044420Y005757D01*
X033900Y007237D02*
X033900Y007757D01*
X032900Y007757D02*
X032900Y007237D01*
X031900Y007237D02*
X031900Y007757D01*
X027900Y007757D02*
X027900Y007237D01*
X026900Y007237D02*
X026900Y007757D01*
X025900Y007757D02*
X025900Y007237D01*
X021900Y007237D02*
X021900Y007757D01*
X020900Y007757D02*
X020900Y007237D01*
X019900Y007237D02*
X019900Y007757D01*
D13*
X019400Y015457D02*
X019400Y016057D01*
X020400Y016057D02*
X020400Y015457D01*
X021400Y015457D02*
X021400Y016057D01*
X025150Y016057D02*
X025150Y015457D01*
X026150Y015457D02*
X026150Y016057D01*
X027150Y016057D02*
X027150Y015457D01*
X030900Y015457D02*
X030900Y016057D01*
X031900Y016057D02*
X031900Y015457D01*
X032900Y015457D02*
X032900Y016057D01*
X036900Y016057D02*
X036900Y015457D01*
X037900Y015457D02*
X037900Y016057D01*
X038900Y016057D02*
X038900Y015457D01*
X042650Y015457D02*
X042650Y016057D01*
X043650Y016057D02*
X043650Y015457D01*
X044650Y015457D02*
X044650Y016057D01*
X049150Y015807D02*
X049150Y015207D01*
X050150Y015207D02*
X050150Y015807D01*
X051150Y015807D02*
X051150Y015207D01*
D14*
X049134Y014257D03*
X047166Y014257D03*
X042884Y014257D03*
X040916Y014257D03*
X036884Y014507D03*
X034916Y014507D03*
X030759Y014757D03*
X028791Y014757D03*
X025134Y014757D03*
X023166Y014757D03*
X019384Y014632D03*
X017416Y014632D03*
X020775Y005632D03*
X023507Y004652D03*
X026900Y001632D03*
X021382Y001527D03*
D15*
X051900Y002757D03*
X050900Y018757D03*
X044900Y018757D03*
X038900Y018757D03*
X032900Y018757D03*
X026900Y018757D03*
X021794Y018864D03*
D16*
X019825Y018864D03*
X024932Y018757D03*
X030932Y018757D03*
X036932Y018757D03*
X042932Y018757D03*
X048932Y018757D03*
X051900Y004726D03*
D17*
X008517Y010406D03*
X008526Y016776D03*
D18*
X023507Y005652D03*
X020775Y004632D03*
X025900Y001632D03*
X020382Y001527D03*
D19*
X011543Y003249D03*
X009181Y003249D03*
X010362Y001398D03*
M02*
