%
M48
M72
T01C0.0240
T02C0.0276
T03C0.0315
T04C0.0320
T05C0.0354
T06C0.0400
%
T01
X28014Y5109
T02
X19514Y7109
X18514Y7109
X17014Y7109
X17014Y8109
X18514Y8109
X19514Y8109
X7514Y5109
X7514Y4109
X11514Y4593
X11514Y2624
X3014Y3109
X3014Y2109
T03
X27764Y9227
X28864Y9227
X28364Y9990
X27164Y9990
T04
X27514Y6109
X26514Y6109
X25514Y6109
X24514Y6109
X23514Y6109
X22514Y6109
X21514Y6109
X20514Y6109
X19514Y6109
X18514Y6109
X13514Y4609
X12764Y4109
X13514Y3609
X18514Y3109
X19514Y3109
X20514Y3109
X21514Y3109
X22514Y3109
X23514Y3109
X24514Y3109
X25514Y3109
X26514Y3109
X27514Y3109
X28514Y3109
X29514Y3109
X30514Y3109
X31514Y3109
X38014Y4109
X39014Y4109
X39014Y6109
X38014Y6109
X31514Y6109
X30514Y6109
X29514Y6109
X28514Y6109
X38014Y2109
X39014Y2109
X8014Y2109
X7014Y2109
X7514Y1359
X7014Y7609
X8014Y7609
T05
X11514Y7109
X11514Y6109
X10514Y5609
X9514Y5609
X14514Y6109
X15514Y6109
X17014Y6109
X14514Y7109
X21014Y7609
X25014Y7609
X26014Y7609
X30014Y7609
X31014Y7609
X35014Y7609
X33014Y6109
X37014Y6109
X37014Y4109
X33014Y4109
X33014Y2109
X37014Y2109
X17014Y2109
X15514Y2109
X10514Y1609
X9514Y1609
T06
X1514Y2109
X1514Y3109
X4464Y3109
X4564Y2109
X4564Y4109
X1514Y4109
X12944Y1609
X14084Y1609
X18514Y1609
X19514Y1509
X20514Y1609
X21514Y1509
X22514Y1609
X23514Y1509
X25014Y1659
X26014Y1559
X27014Y1659
X28444Y1609
X29584Y1609
M30
