G75*
G70*
%OFA0B0*%
%FSLAX24Y24*%
%IPPOS*%
%LPD*%
%AMOC8*
5,1,8,0,0,1.08239X$1,22.5*
%
%ADD10C,0.0600*%
%ADD11C,0.0820*%
%ADD12C,0.0730*%
%ADD13R,0.0730X0.0730*%
%ADD14R,0.0840X0.0840*%
%ADD15C,0.0840*%
%ADD16OC8,0.0740*%
%ADD17C,0.0740*%
%ADD18C,0.0480*%
D10*
X018514Y002849D02*
X018514Y003369D01*
X019514Y003369D02*
X019514Y002849D01*
X020514Y002849D02*
X020514Y003369D01*
X021514Y003369D02*
X021514Y002849D01*
X022514Y002849D02*
X022514Y003369D01*
X023514Y003369D02*
X023514Y002849D01*
X024514Y002849D02*
X024514Y003369D01*
X025514Y003369D02*
X025514Y002849D01*
X026514Y002849D02*
X026514Y003369D01*
X027514Y003369D02*
X027514Y002849D01*
X028514Y002849D02*
X028514Y003369D01*
X029514Y003369D02*
X029514Y002849D01*
X030514Y002849D02*
X030514Y003369D01*
X031514Y003369D02*
X031514Y002849D01*
X031514Y005849D02*
X031514Y006369D01*
X030514Y006369D02*
X030514Y005849D01*
X029514Y005849D02*
X029514Y006369D01*
X028514Y006369D02*
X028514Y005849D01*
X027514Y005849D02*
X027514Y006369D01*
X026514Y006369D02*
X026514Y005849D01*
X025514Y005849D02*
X025514Y006369D01*
X024514Y006369D02*
X024514Y005849D01*
X023514Y005849D02*
X023514Y006369D01*
X022514Y006369D02*
X022514Y005849D01*
X021514Y005849D02*
X021514Y006369D01*
X020514Y006369D02*
X020514Y005849D01*
X019514Y005849D02*
X019514Y006369D01*
X018514Y006369D02*
X018514Y005849D01*
D11*
X017014Y006109D03*
X015514Y006109D03*
X014514Y006109D03*
X014514Y007109D03*
X011514Y007109D03*
X011514Y006109D03*
X010514Y005609D03*
X009514Y005609D03*
X013514Y004609D03*
X012764Y004109D03*
X013514Y003609D03*
X015514Y002109D03*
X017014Y002109D03*
X018514Y001609D03*
X019514Y001509D03*
X020514Y001609D03*
X021514Y001509D03*
X022514Y001609D03*
X023514Y001509D03*
X025014Y001659D03*
X026014Y001559D03*
X027014Y001659D03*
X028444Y001609D03*
X029584Y001609D03*
X033014Y002109D03*
X037014Y002109D03*
X037014Y004109D03*
X033014Y004109D03*
X033014Y006109D03*
X037014Y006109D03*
X035014Y007609D03*
X031014Y007609D03*
X030014Y007609D03*
X026014Y007609D03*
X025014Y007609D03*
X021014Y007609D03*
X004564Y004109D03*
X004464Y003109D03*
X004564Y002109D03*
X007014Y002109D03*
X008014Y002109D03*
X009514Y001609D03*
X010514Y001609D03*
X012944Y001609D03*
X014084Y001609D03*
X007514Y001359D03*
D12*
X011514Y002624D03*
X007514Y004109D03*
X011514Y004593D03*
X003014Y003109D03*
X003014Y002109D03*
X018514Y007109D03*
X019514Y007109D03*
X019514Y008109D03*
X018514Y008109D03*
X017014Y008109D03*
D13*
X017014Y007109D03*
X007514Y005109D03*
D14*
X001514Y004109D03*
D15*
X001514Y002109D03*
X001514Y003109D03*
D16*
X007014Y007609D03*
X008014Y007609D03*
X027764Y009227D03*
X038014Y006109D03*
X039014Y006109D03*
X039014Y004109D03*
X038014Y004109D03*
X038014Y002109D03*
X039014Y002109D03*
D17*
X028864Y009227D03*
X028364Y009990D03*
X027164Y009990D03*
D18*
X028014Y005109D03*
M02*
