G75*
G70*
%OFA0B0*%
%FSLAX24Y24*%
%IPPOS*%
%LPD*%
%AMOC8*
5,1,8,0,0,1.08239X$1,22.5*
%
%ADD10C,0.0040*%
%ADD11C,0.0080*%
%ADD12C,0.0020*%
%ADD13C,0.0010*%
%ADD14C,0.0050*%
%ADD15C,0.0160*%
%ADD16C,0.0030*%
%ADD17C,0.0060*%
D10*
X005312Y001830D02*
X005312Y002137D01*
X005159Y001984D02*
X005466Y001984D01*
X018284Y000686D02*
X018437Y000839D01*
X018591Y000686D01*
X020284Y000789D02*
X020437Y000789D01*
X020361Y000789D02*
X020361Y000329D01*
X020437Y000329D02*
X020284Y000329D01*
X020591Y000405D02*
X020668Y000329D01*
X020821Y000329D01*
X020898Y000405D01*
X021051Y000405D02*
X021128Y000329D01*
X021281Y000329D01*
X021358Y000405D01*
X021358Y000482D01*
X021281Y000559D01*
X021128Y000559D01*
X021051Y000636D01*
X021051Y000712D01*
X021128Y000789D01*
X021281Y000789D01*
X021358Y000712D01*
X021512Y000789D02*
X021742Y000789D01*
X021819Y000712D01*
X021819Y000559D01*
X021742Y000482D01*
X021512Y000482D01*
X021512Y000329D02*
X021512Y000789D01*
X020898Y000712D02*
X020821Y000789D01*
X020668Y000789D01*
X020591Y000712D01*
X020591Y000405D01*
X027534Y001609D02*
X027841Y001609D01*
X027687Y001762D02*
X027687Y001455D01*
X028437Y002205D02*
X028437Y002512D01*
X028284Y002359D02*
X028591Y002359D01*
X028472Y010879D02*
X028165Y010879D01*
X028472Y011186D01*
X028472Y011262D01*
X028395Y011339D01*
X028242Y011339D01*
X028165Y011262D01*
X028012Y011262D02*
X027935Y011339D01*
X027705Y011339D01*
X027705Y010879D01*
X027935Y010879D01*
X028012Y010955D01*
X028012Y011262D01*
X027551Y011339D02*
X027244Y011339D01*
X027244Y010879D01*
X027551Y010879D01*
X027091Y010879D02*
X026784Y010879D01*
X026784Y011339D01*
X027244Y011109D02*
X027398Y011109D01*
D11*
X017564Y008309D02*
X017564Y007909D01*
X016030Y007609D02*
X016032Y007671D01*
X016038Y007734D01*
X016048Y007795D01*
X016062Y007856D01*
X016079Y007916D01*
X016100Y007975D01*
X016126Y008032D01*
X016154Y008087D01*
X016186Y008141D01*
X016222Y008192D01*
X016260Y008242D01*
X016302Y008288D01*
X016346Y008332D01*
X016394Y008373D01*
X016443Y008411D01*
X016495Y008445D01*
X016549Y008476D01*
X016605Y008504D01*
X016663Y008528D01*
X016722Y008549D01*
X016782Y008565D01*
X016843Y008578D01*
X016905Y008587D01*
X016967Y008592D01*
X017030Y008593D01*
X017092Y008590D01*
X017154Y008583D01*
X017216Y008572D01*
X017276Y008557D01*
X017336Y008539D01*
X017394Y008517D01*
X017451Y008491D01*
X017506Y008461D01*
X017559Y008428D01*
X017610Y008392D01*
X017658Y008353D01*
X017704Y008310D01*
X017747Y008265D01*
X017787Y008217D01*
X017824Y008167D01*
X017858Y008114D01*
X017889Y008060D01*
X017915Y008004D01*
X017939Y007946D01*
X017958Y007886D01*
X017974Y007826D01*
X017986Y007764D01*
X017994Y007703D01*
X017998Y007640D01*
X017998Y007578D01*
X017994Y007515D01*
X017986Y007454D01*
X017974Y007392D01*
X017958Y007332D01*
X017939Y007272D01*
X017915Y007214D01*
X017889Y007158D01*
X017858Y007104D01*
X017824Y007051D01*
X017787Y007001D01*
X017747Y006953D01*
X017704Y006908D01*
X017658Y006865D01*
X017610Y006826D01*
X017559Y006790D01*
X017506Y006757D01*
X017451Y006727D01*
X017394Y006701D01*
X017336Y006679D01*
X017276Y006661D01*
X017216Y006646D01*
X017154Y006635D01*
X017092Y006628D01*
X017030Y006625D01*
X016967Y006626D01*
X016905Y006631D01*
X016843Y006640D01*
X016782Y006653D01*
X016722Y006669D01*
X016663Y006690D01*
X016605Y006714D01*
X016549Y006742D01*
X016495Y006773D01*
X016443Y006807D01*
X016394Y006845D01*
X016346Y006886D01*
X016302Y006930D01*
X016260Y006976D01*
X016222Y007026D01*
X016186Y007077D01*
X016154Y007131D01*
X016126Y007186D01*
X016100Y007243D01*
X016079Y007302D01*
X016062Y007362D01*
X016048Y007423D01*
X016038Y007484D01*
X016032Y007547D01*
X016030Y007609D01*
X014114Y007109D02*
X014014Y007109D01*
X014014Y006809D01*
X012014Y006809D01*
X012014Y007109D01*
X011914Y007109D01*
X012014Y007109D02*
X012014Y007409D01*
X014014Y007409D01*
X014014Y007109D01*
X013764Y007359D02*
X013764Y006859D01*
X014014Y006409D02*
X012014Y006409D01*
X012014Y006109D01*
X011914Y006109D01*
X012014Y006109D02*
X012014Y005809D01*
X014014Y005809D01*
X014014Y006109D01*
X014114Y006109D01*
X014014Y006109D02*
X014014Y006409D01*
X012264Y006359D02*
X012264Y005859D01*
X013614Y005154D02*
X013614Y004996D01*
X014164Y004933D02*
X014164Y003284D01*
X013614Y003221D02*
X013614Y003063D01*
X015042Y002869D02*
X015042Y005349D01*
X015986Y005349D01*
X015986Y002869D01*
X015042Y002869D01*
X016542Y002869D02*
X016542Y005349D01*
X017486Y005349D01*
X017486Y002869D01*
X016542Y002869D01*
X018014Y003409D02*
X018114Y003409D01*
X018014Y003409D02*
X018014Y004109D01*
X018058Y004111D01*
X018101Y004117D01*
X018143Y004126D01*
X018185Y004139D01*
X018225Y004156D01*
X018264Y004176D01*
X018301Y004199D01*
X018335Y004226D01*
X018368Y004255D01*
X018397Y004288D01*
X018424Y004322D01*
X018447Y004359D01*
X018467Y004398D01*
X018484Y004438D01*
X018497Y004480D01*
X018506Y004522D01*
X018512Y004565D01*
X018514Y004609D01*
X018512Y004653D01*
X018506Y004696D01*
X018497Y004738D01*
X018484Y004780D01*
X018467Y004820D01*
X018447Y004859D01*
X018424Y004896D01*
X018397Y004930D01*
X018368Y004963D01*
X018335Y004992D01*
X018301Y005019D01*
X018264Y005042D01*
X018225Y005062D01*
X018185Y005079D01*
X018143Y005092D01*
X018101Y005101D01*
X018058Y005107D01*
X018014Y005109D01*
X018014Y005809D01*
X018114Y005809D01*
X021774Y007136D02*
X021774Y008081D01*
X024254Y008081D01*
X024254Y007136D01*
X021774Y007136D01*
X019764Y007609D02*
X019264Y007609D01*
X018764Y007609D02*
X018264Y007609D01*
X026774Y007136D02*
X026774Y008081D01*
X029254Y008081D01*
X029254Y007136D01*
X026774Y007136D01*
X031774Y007136D02*
X031774Y008081D01*
X034254Y008081D01*
X034254Y007136D01*
X031774Y007136D01*
X033774Y006581D02*
X036254Y006581D01*
X036254Y005636D01*
X033774Y005636D01*
X033774Y006581D01*
X032014Y005809D02*
X031914Y005809D01*
X032014Y005809D02*
X032014Y003409D01*
X031914Y003409D01*
X033774Y003636D02*
X033774Y004581D01*
X036254Y004581D01*
X036254Y003636D01*
X033774Y003636D01*
X033774Y002581D02*
X036254Y002581D01*
X036254Y001636D01*
X033774Y001636D01*
X033774Y002581D01*
X030014Y001859D02*
X029764Y002109D01*
X029264Y002109D01*
X029014Y001859D01*
X028764Y002109D01*
X028264Y002109D01*
X028014Y001859D01*
X028014Y001359D01*
X028264Y001109D01*
X028764Y001109D01*
X029014Y001359D01*
X029264Y001109D01*
X029764Y001109D01*
X030014Y001359D01*
X030014Y001859D01*
X027514Y001859D02*
X027514Y001359D01*
X027264Y001109D01*
X026764Y001109D01*
X026514Y001359D01*
X026264Y001109D01*
X025764Y001109D01*
X025514Y001359D01*
X025264Y001109D01*
X024764Y001109D01*
X024514Y001359D01*
X024514Y001859D01*
X024764Y002109D01*
X025264Y002109D01*
X025514Y001859D01*
X025764Y002109D01*
X026264Y002109D01*
X026514Y001859D01*
X026764Y002109D01*
X027264Y002109D01*
X027514Y001859D01*
X024014Y001809D02*
X024014Y001309D01*
X023764Y001059D01*
X023264Y001059D01*
X023014Y001309D01*
X023014Y001809D01*
X023264Y002059D01*
X023764Y002059D01*
X024014Y001809D01*
X023014Y001809D02*
X022764Y002059D01*
X022264Y002059D01*
X022014Y001809D01*
X022014Y001309D01*
X021764Y001059D01*
X021264Y001059D01*
X021014Y001309D01*
X021014Y001809D01*
X021264Y002059D01*
X021764Y002059D01*
X022014Y001809D01*
X021014Y001809D02*
X020764Y002059D01*
X020264Y002059D01*
X020014Y001809D01*
X020014Y001309D01*
X019764Y001059D01*
X019264Y001059D01*
X019014Y001309D01*
X019014Y001809D01*
X019264Y002059D01*
X019764Y002059D01*
X020014Y001809D01*
X019014Y001809D02*
X018764Y002059D01*
X018264Y002059D01*
X018014Y001809D01*
X018014Y001309D01*
X018264Y001059D01*
X018764Y001059D01*
X019014Y001309D01*
X020014Y001309D02*
X020264Y001059D01*
X020764Y001059D01*
X021014Y001309D01*
X022014Y001309D02*
X022264Y001059D01*
X022764Y001059D01*
X023014Y001309D01*
X014514Y001359D02*
X014514Y001859D01*
X014264Y002109D01*
X013764Y002109D01*
X013514Y001859D01*
X013264Y002109D01*
X012764Y002109D01*
X012514Y001859D01*
X012514Y001359D01*
X012764Y001109D01*
X013264Y001109D01*
X013514Y001359D01*
X013764Y001109D01*
X014264Y001109D01*
X014514Y001359D01*
X010986Y002369D02*
X010042Y002369D01*
X010042Y004849D01*
X010986Y004849D01*
X010986Y002369D01*
X009986Y002369D02*
X009042Y002369D01*
X009042Y004849D01*
X009986Y004849D01*
X009986Y002369D01*
X008559Y002209D02*
X008401Y002209D01*
X007627Y002209D02*
X007401Y002209D01*
X006627Y002209D02*
X006469Y002209D01*
X005014Y002359D02*
X005014Y001859D01*
X004764Y001609D01*
X004264Y001609D01*
X004014Y001859D01*
X004014Y002359D01*
X004264Y002609D01*
X004014Y002859D01*
X004014Y003359D01*
X004264Y003609D01*
X004014Y003859D01*
X004014Y004359D01*
X004264Y004609D01*
X004764Y004609D01*
X005014Y004359D01*
X005014Y003859D01*
X004764Y003609D01*
X005014Y003359D01*
X005014Y002859D01*
X004764Y002609D01*
X005014Y002359D01*
X006689Y002759D02*
X008339Y002759D01*
X011264Y003609D02*
X011764Y003609D01*
X013614Y003996D02*
X013614Y004221D01*
X006234Y004609D02*
X006236Y004680D01*
X006242Y004751D01*
X006252Y004822D01*
X006266Y004891D01*
X006283Y004960D01*
X006305Y005028D01*
X006330Y005095D01*
X006359Y005160D01*
X006391Y005223D01*
X006427Y005285D01*
X006466Y005344D01*
X006509Y005401D01*
X006554Y005456D01*
X006603Y005508D01*
X006654Y005557D01*
X006708Y005603D01*
X006765Y005647D01*
X006823Y005687D01*
X006884Y005723D01*
X006947Y005757D01*
X007012Y005786D01*
X007078Y005812D01*
X007146Y005835D01*
X007214Y005853D01*
X007284Y005868D01*
X007354Y005879D01*
X007425Y005886D01*
X007496Y005889D01*
X007567Y005888D01*
X007638Y005883D01*
X007709Y005874D01*
X007779Y005861D01*
X007848Y005845D01*
X007916Y005824D01*
X007983Y005800D01*
X008049Y005772D01*
X008112Y005740D01*
X008174Y005705D01*
X008234Y005667D01*
X008292Y005625D01*
X008347Y005581D01*
X008400Y005533D01*
X008450Y005482D01*
X008497Y005429D01*
X008541Y005373D01*
X008582Y005315D01*
X008620Y005254D01*
X008654Y005192D01*
X008684Y005127D01*
X008711Y005062D01*
X008735Y004994D01*
X008754Y004926D01*
X008770Y004857D01*
X008782Y004786D01*
X008790Y004716D01*
X008794Y004645D01*
X008794Y004573D01*
X008790Y004502D01*
X008782Y004432D01*
X008770Y004361D01*
X008754Y004292D01*
X008735Y004224D01*
X008711Y004156D01*
X008684Y004091D01*
X008654Y004026D01*
X008620Y003964D01*
X008582Y003903D01*
X008541Y003845D01*
X008497Y003789D01*
X008450Y003736D01*
X008400Y003685D01*
X008347Y003637D01*
X008292Y003593D01*
X008234Y003551D01*
X008174Y003513D01*
X008112Y003478D01*
X008049Y003446D01*
X007983Y003418D01*
X007916Y003394D01*
X007848Y003373D01*
X007779Y003357D01*
X007709Y003344D01*
X007638Y003335D01*
X007567Y003330D01*
X007496Y003329D01*
X007425Y003332D01*
X007354Y003339D01*
X007284Y003350D01*
X007214Y003365D01*
X007146Y003383D01*
X007078Y003406D01*
X007012Y003432D01*
X006947Y003461D01*
X006884Y003495D01*
X006823Y003531D01*
X006765Y003571D01*
X006708Y003615D01*
X006654Y003661D01*
X006603Y003710D01*
X006554Y003762D01*
X006509Y003817D01*
X006466Y003874D01*
X006427Y003933D01*
X006391Y003995D01*
X006359Y004058D01*
X006330Y004123D01*
X006305Y004190D01*
X006283Y004258D01*
X006266Y004327D01*
X006252Y004396D01*
X006242Y004467D01*
X006236Y004538D01*
X006234Y004609D01*
X007014Y004359D02*
X007014Y003859D01*
X003514Y003609D02*
X003514Y001609D01*
X002514Y001609D01*
X002514Y003609D01*
X003514Y003609D01*
X003264Y002609D02*
X002764Y002609D01*
X006514Y006859D02*
X006514Y008359D01*
D12*
X013114Y005661D02*
X013254Y005661D01*
X013254Y005614D02*
X013254Y005708D01*
X013161Y005614D02*
X013114Y005661D01*
X013137Y005560D02*
X013114Y005537D01*
X013114Y005490D01*
X013137Y005467D01*
X013231Y005467D01*
X013254Y005490D01*
X013254Y005537D01*
X013231Y005560D01*
X013254Y005415D02*
X013254Y005369D01*
X013254Y005392D02*
X013114Y005392D01*
X013114Y005369D02*
X013114Y005415D01*
X019024Y004839D02*
X019024Y004619D01*
X019024Y004692D02*
X019134Y004692D01*
X019171Y004729D01*
X019171Y004802D01*
X019134Y004839D01*
X019024Y004839D01*
X019245Y004839D02*
X019318Y004839D01*
X019282Y004839D02*
X019282Y004619D01*
X019318Y004619D02*
X019245Y004619D01*
X019392Y004655D02*
X019429Y004619D01*
X019502Y004619D01*
X019539Y004655D01*
X019613Y004619D02*
X019760Y004765D01*
X019760Y004802D01*
X019723Y004839D01*
X019650Y004839D01*
X019613Y004802D01*
X019539Y004802D02*
X019502Y004839D01*
X019429Y004839D01*
X019392Y004802D01*
X019392Y004655D01*
X019613Y004619D02*
X019760Y004619D01*
X019834Y004729D02*
X019981Y004729D01*
X020055Y004729D02*
X020129Y004729D01*
X020055Y004839D02*
X020202Y004839D01*
X020276Y004765D02*
X020350Y004839D01*
X020350Y004619D01*
X020423Y004619D02*
X020276Y004619D01*
X020055Y004619D02*
X020055Y004839D01*
X019944Y004839D02*
X019834Y004729D01*
X019944Y004619D02*
X019944Y004839D01*
X020497Y004729D02*
X020607Y004729D01*
X020644Y004692D01*
X020644Y004655D01*
X020607Y004619D01*
X020534Y004619D01*
X020497Y004655D01*
X020497Y004729D01*
X020571Y004802D01*
X020644Y004839D01*
X020718Y004839D02*
X020718Y004619D01*
X020718Y004692D02*
X020865Y004839D01*
X020939Y004765D02*
X021013Y004839D01*
X021086Y004765D01*
X021086Y004619D01*
X021160Y004619D02*
X021307Y004619D01*
X021234Y004619D02*
X021234Y004839D01*
X021160Y004765D01*
X021086Y004729D02*
X020939Y004729D01*
X020939Y004765D02*
X020939Y004619D01*
X020865Y004619D02*
X020755Y004729D01*
X021381Y004655D02*
X021381Y004802D01*
X021418Y004839D01*
X021491Y004839D01*
X021528Y004802D01*
X021381Y004655D01*
X021418Y004619D01*
X021491Y004619D01*
X021528Y004655D01*
X021528Y004802D01*
X021602Y004802D02*
X021639Y004839D01*
X021712Y004839D01*
X021749Y004802D01*
X021749Y004765D01*
X021602Y004619D01*
X021749Y004619D01*
X006220Y001709D02*
X006127Y001709D01*
X006173Y001709D02*
X006173Y001849D01*
X006127Y001802D01*
X006073Y001825D02*
X006073Y001732D01*
X006049Y001709D01*
X006003Y001709D01*
X005979Y001732D01*
X005979Y001825D01*
X006003Y001849D01*
X006049Y001849D01*
X006073Y001825D01*
X006026Y001755D02*
X006073Y001709D01*
X002254Y001729D02*
X002217Y001765D01*
X002254Y001729D02*
X002254Y001655D01*
X002217Y001619D01*
X002071Y001619D01*
X002034Y001655D01*
X002034Y001729D01*
X002071Y001765D01*
X002071Y001840D02*
X002034Y001876D01*
X002034Y001950D01*
X002071Y001986D01*
X002107Y001986D01*
X002144Y001950D01*
X002181Y001986D01*
X002217Y001986D01*
X002254Y001950D01*
X002254Y001876D01*
X002217Y001840D01*
X002144Y001913D02*
X002144Y001950D01*
D13*
X006659Y002776D02*
X006714Y002733D01*
X006678Y002684D01*
X006644Y002633D01*
X006615Y002579D01*
X006588Y002524D01*
X006564Y002468D01*
X006545Y002410D01*
X006528Y002351D01*
X006515Y002291D01*
X006506Y002231D01*
X006501Y002170D01*
X006499Y002108D01*
X006501Y002047D01*
X006506Y001986D01*
X006516Y001926D01*
X006529Y001866D01*
X006545Y001807D01*
X006565Y001749D01*
X006588Y001693D01*
X006615Y001638D01*
X006645Y001584D01*
X006678Y001533D01*
X006714Y001484D01*
X006754Y001437D01*
X006795Y001392D01*
X006840Y001350D01*
X006887Y001311D01*
X006936Y001275D01*
X006987Y001241D01*
X007041Y001211D01*
X007096Y001184D01*
X007152Y001161D01*
X007210Y001141D01*
X007190Y001074D01*
X007189Y001074D01*
X007128Y001095D01*
X007067Y001120D01*
X007008Y001149D01*
X006951Y001181D01*
X006897Y001217D01*
X006844Y001256D01*
X006794Y001298D01*
X006746Y001343D01*
X006701Y001390D01*
X006659Y001440D01*
X006621Y001493D01*
X006585Y001548D01*
X006553Y001605D01*
X006524Y001664D01*
X006499Y001724D01*
X006478Y001786D01*
X006461Y001849D01*
X006447Y001913D01*
X006437Y001978D01*
X006431Y002043D01*
X006429Y002109D01*
X006431Y002174D01*
X006437Y002239D01*
X006447Y002304D01*
X006460Y002368D01*
X006478Y002431D01*
X006499Y002493D01*
X006524Y002553D01*
X006553Y002612D01*
X006585Y002669D01*
X006620Y002724D01*
X006659Y002777D01*
X006666Y002771D01*
X006628Y002719D01*
X006592Y002664D01*
X006561Y002608D01*
X006532Y002549D01*
X006507Y002489D01*
X006486Y002428D01*
X006469Y002366D01*
X006455Y002302D01*
X006446Y002238D01*
X006440Y002173D01*
X006438Y002109D01*
X006440Y002044D01*
X006446Y001979D01*
X006456Y001915D01*
X006469Y001851D01*
X006487Y001789D01*
X006508Y001728D01*
X006533Y001668D01*
X006561Y001609D01*
X006593Y001553D01*
X006628Y001498D01*
X006666Y001446D01*
X006708Y001396D01*
X006752Y001349D01*
X006800Y001304D01*
X006849Y001263D01*
X006902Y001224D01*
X006956Y001189D01*
X007013Y001157D01*
X007071Y001129D01*
X007131Y001104D01*
X007192Y001082D01*
X007195Y001091D01*
X007134Y001112D01*
X007074Y001137D01*
X007017Y001165D01*
X006961Y001197D01*
X006907Y001232D01*
X006855Y001270D01*
X006806Y001311D01*
X006759Y001355D01*
X006715Y001402D01*
X006674Y001452D01*
X006635Y001503D01*
X006601Y001557D01*
X006569Y001614D01*
X006541Y001671D01*
X006516Y001731D01*
X006495Y001792D01*
X006478Y001854D01*
X006465Y001917D01*
X006455Y001980D01*
X006449Y002044D01*
X006447Y002108D01*
X006449Y002173D01*
X006455Y002237D01*
X006464Y002300D01*
X006478Y002363D01*
X006495Y002425D01*
X006516Y002486D01*
X006540Y002546D01*
X006569Y002604D01*
X006600Y002660D01*
X006635Y002714D01*
X006673Y002766D01*
X006680Y002760D01*
X006642Y002709D01*
X006608Y002655D01*
X006576Y002599D01*
X006549Y002542D01*
X006524Y002483D01*
X006504Y002423D01*
X006487Y002361D01*
X006473Y002299D01*
X006464Y002236D01*
X006458Y002172D01*
X006456Y002108D01*
X006458Y002045D01*
X006464Y001981D01*
X006473Y001918D01*
X006487Y001856D01*
X006504Y001794D01*
X006525Y001734D01*
X006549Y001675D01*
X006577Y001618D01*
X006608Y001562D01*
X006643Y001509D01*
X006681Y001457D01*
X006721Y001408D01*
X006765Y001362D01*
X006812Y001318D01*
X006860Y001277D01*
X006912Y001239D01*
X006965Y001204D01*
X007021Y001173D01*
X007078Y001145D01*
X007137Y001120D01*
X007197Y001100D01*
X007200Y001108D01*
X007140Y001129D01*
X007082Y001153D01*
X007025Y001181D01*
X006970Y001212D01*
X006917Y001247D01*
X006866Y001284D01*
X006817Y001325D01*
X006771Y001368D01*
X006728Y001414D01*
X006688Y001463D01*
X006650Y001514D01*
X006616Y001567D01*
X006585Y001622D01*
X006557Y001679D01*
X006533Y001737D01*
X006512Y001797D01*
X006495Y001858D01*
X006482Y001920D01*
X006473Y001982D01*
X006467Y002045D01*
X006465Y002108D01*
X006467Y002172D01*
X006473Y002235D01*
X006482Y002297D01*
X006495Y002359D01*
X006512Y002420D01*
X006533Y002480D01*
X006557Y002538D01*
X006584Y002595D01*
X006615Y002650D01*
X006650Y002703D01*
X006687Y002754D01*
X006694Y002749D01*
X006657Y002698D01*
X006623Y002646D01*
X006592Y002591D01*
X006565Y002535D01*
X006541Y002477D01*
X006521Y002417D01*
X006504Y002357D01*
X006491Y002296D01*
X006481Y002234D01*
X006476Y002171D01*
X006474Y002108D01*
X006476Y002046D01*
X006482Y001983D01*
X006491Y001921D01*
X006504Y001860D01*
X006521Y001800D01*
X006542Y001740D01*
X006565Y001682D01*
X006593Y001626D01*
X006624Y001571D01*
X006658Y001519D01*
X006695Y001468D01*
X006735Y001420D01*
X006778Y001374D01*
X006823Y001331D01*
X006872Y001291D01*
X006922Y001254D01*
X006975Y001220D01*
X007029Y001189D01*
X007085Y001161D01*
X007143Y001137D01*
X007203Y001117D01*
X007205Y001125D01*
X007147Y001146D01*
X007089Y001170D01*
X007033Y001197D01*
X006979Y001228D01*
X006927Y001261D01*
X006877Y001298D01*
X006829Y001338D01*
X006784Y001381D01*
X006742Y001426D01*
X006702Y001474D01*
X006665Y001524D01*
X006631Y001576D01*
X006601Y001630D01*
X006574Y001686D01*
X006550Y001744D01*
X006530Y001802D01*
X006513Y001862D01*
X006500Y001923D01*
X006491Y001984D01*
X006485Y002046D01*
X006483Y002108D01*
X006485Y002171D01*
X006490Y002232D01*
X006500Y002294D01*
X006513Y002355D01*
X006529Y002415D01*
X006550Y002473D01*
X006573Y002531D01*
X006600Y002587D01*
X006631Y002641D01*
X006664Y002693D01*
X006701Y002743D01*
X006708Y002738D01*
X006672Y002688D01*
X006639Y002636D01*
X006608Y002583D01*
X006581Y002527D01*
X006558Y002470D01*
X006538Y002412D01*
X006521Y002353D01*
X006509Y002292D01*
X006499Y002231D01*
X006494Y002170D01*
X006492Y002108D01*
X006494Y002047D01*
X006499Y001986D01*
X006509Y001925D01*
X006522Y001864D01*
X006538Y001805D01*
X006558Y001747D01*
X006582Y001690D01*
X006609Y001634D01*
X006639Y001581D01*
X006672Y001529D01*
X006709Y001479D01*
X006748Y001432D01*
X006791Y001387D01*
X006835Y001345D01*
X006883Y001305D01*
X006932Y001269D01*
X006984Y001235D01*
X007037Y001205D01*
X007093Y001178D01*
X007150Y001154D01*
X007208Y001134D01*
X007838Y001074D02*
X007818Y001141D01*
X007876Y001161D01*
X007932Y001184D01*
X007987Y001211D01*
X008040Y001241D01*
X008092Y001275D01*
X008141Y001311D01*
X008188Y001350D01*
X008232Y001392D01*
X008274Y001437D01*
X008314Y001484D01*
X008350Y001533D01*
X008383Y001584D01*
X008413Y001638D01*
X008440Y001693D01*
X008463Y001749D01*
X008483Y001807D01*
X008499Y001866D01*
X008512Y001926D01*
X008522Y001986D01*
X008527Y002047D01*
X008529Y002108D01*
X008527Y002170D01*
X008522Y002231D01*
X008513Y002291D01*
X008500Y002351D01*
X008483Y002410D01*
X008464Y002468D01*
X008440Y002524D01*
X008413Y002579D01*
X008384Y002633D01*
X008350Y002684D01*
X008314Y002733D01*
X008369Y002776D01*
X008369Y002777D01*
X008408Y002724D01*
X008443Y002669D01*
X008475Y002612D01*
X008504Y002553D01*
X008529Y002493D01*
X008550Y002431D01*
X008568Y002368D01*
X008581Y002304D01*
X008591Y002239D01*
X008597Y002174D01*
X008599Y002108D01*
X008597Y002043D01*
X008591Y001978D01*
X008581Y001913D01*
X008567Y001849D01*
X008550Y001786D01*
X008529Y001724D01*
X008504Y001664D01*
X008475Y001605D01*
X008443Y001548D01*
X008407Y001493D01*
X008369Y001440D01*
X008327Y001390D01*
X008282Y001343D01*
X008234Y001298D01*
X008184Y001256D01*
X008131Y001217D01*
X008077Y001181D01*
X008020Y001149D01*
X007961Y001120D01*
X007900Y001095D01*
X007839Y001074D01*
X007836Y001082D01*
X007897Y001104D01*
X007957Y001129D01*
X008015Y001157D01*
X008072Y001189D01*
X008126Y001224D01*
X008179Y001263D01*
X008228Y001304D01*
X008276Y001349D01*
X008320Y001396D01*
X008361Y001446D01*
X008400Y001498D01*
X008435Y001553D01*
X008467Y001609D01*
X008495Y001668D01*
X008520Y001728D01*
X008541Y001789D01*
X008559Y001851D01*
X008572Y001915D01*
X008582Y001979D01*
X008588Y002044D01*
X008590Y002108D01*
X008588Y002173D01*
X008582Y002238D01*
X008573Y002302D01*
X008559Y002366D01*
X008542Y002428D01*
X008521Y002489D01*
X008496Y002549D01*
X008467Y002608D01*
X008436Y002664D01*
X008401Y002719D01*
X008362Y002771D01*
X008355Y002766D01*
X008393Y002714D01*
X008428Y002660D01*
X008459Y002604D01*
X008488Y002546D01*
X008512Y002486D01*
X008533Y002425D01*
X008550Y002363D01*
X008564Y002300D01*
X008573Y002237D01*
X008579Y002173D01*
X008581Y002108D01*
X008579Y002044D01*
X008573Y001980D01*
X008563Y001917D01*
X008550Y001854D01*
X008533Y001792D01*
X008512Y001731D01*
X008487Y001671D01*
X008459Y001614D01*
X008427Y001557D01*
X008393Y001503D01*
X008354Y001452D01*
X008313Y001402D01*
X008269Y001355D01*
X008222Y001311D01*
X008173Y001270D01*
X008121Y001232D01*
X008067Y001197D01*
X008011Y001165D01*
X007954Y001137D01*
X007894Y001112D01*
X007833Y001091D01*
X007831Y001100D01*
X007891Y001120D01*
X007950Y001145D01*
X008007Y001173D01*
X008063Y001204D01*
X008116Y001239D01*
X008168Y001277D01*
X008216Y001318D01*
X008263Y001362D01*
X008307Y001408D01*
X008347Y001457D01*
X008385Y001509D01*
X008420Y001562D01*
X008451Y001618D01*
X008479Y001675D01*
X008503Y001734D01*
X008524Y001794D01*
X008541Y001856D01*
X008555Y001918D01*
X008564Y001981D01*
X008570Y002045D01*
X008572Y002108D01*
X008570Y002172D01*
X008564Y002236D01*
X008555Y002299D01*
X008542Y002361D01*
X008524Y002423D01*
X008504Y002483D01*
X008479Y002542D01*
X008452Y002599D01*
X008420Y002655D01*
X008386Y002709D01*
X008348Y002760D01*
X008341Y002754D01*
X008378Y002703D01*
X008413Y002650D01*
X008444Y002595D01*
X008471Y002538D01*
X008495Y002480D01*
X008516Y002420D01*
X008533Y002359D01*
X008546Y002297D01*
X008555Y002235D01*
X008561Y002172D01*
X008563Y002108D01*
X008561Y002045D01*
X008555Y001982D01*
X008546Y001920D01*
X008533Y001858D01*
X008516Y001797D01*
X008495Y001737D01*
X008471Y001679D01*
X008443Y001622D01*
X008412Y001567D01*
X008378Y001514D01*
X008340Y001463D01*
X008300Y001414D01*
X008257Y001368D01*
X008211Y001325D01*
X008162Y001284D01*
X008111Y001247D01*
X008058Y001212D01*
X008003Y001181D01*
X007946Y001153D01*
X007888Y001129D01*
X007828Y001108D01*
X007825Y001117D01*
X007885Y001137D01*
X007942Y001161D01*
X007999Y001189D01*
X008053Y001220D01*
X008106Y001254D01*
X008156Y001291D01*
X008205Y001331D01*
X008250Y001374D01*
X008293Y001420D01*
X008333Y001468D01*
X008370Y001519D01*
X008404Y001571D01*
X008435Y001626D01*
X008463Y001682D01*
X008486Y001740D01*
X008507Y001800D01*
X008524Y001860D01*
X008537Y001921D01*
X008546Y001983D01*
X008552Y002046D01*
X008554Y002108D01*
X008552Y002171D01*
X008547Y002234D01*
X008537Y002296D01*
X008524Y002357D01*
X008507Y002417D01*
X008487Y002477D01*
X008463Y002535D01*
X008436Y002591D01*
X008405Y002646D01*
X008371Y002698D01*
X008334Y002749D01*
X008327Y002743D01*
X008364Y002693D01*
X008397Y002641D01*
X008428Y002587D01*
X008455Y002531D01*
X008478Y002473D01*
X008499Y002415D01*
X008515Y002355D01*
X008528Y002294D01*
X008538Y002232D01*
X008543Y002171D01*
X008545Y002108D01*
X008543Y002046D01*
X008537Y001984D01*
X008528Y001923D01*
X008515Y001862D01*
X008498Y001802D01*
X008478Y001744D01*
X008454Y001686D01*
X008427Y001630D01*
X008397Y001576D01*
X008363Y001524D01*
X008326Y001474D01*
X008286Y001426D01*
X008244Y001381D01*
X008199Y001338D01*
X008151Y001298D01*
X008101Y001261D01*
X008049Y001228D01*
X007995Y001197D01*
X007939Y001170D01*
X007881Y001146D01*
X007823Y001125D01*
X007820Y001134D01*
X007878Y001154D01*
X007935Y001178D01*
X007990Y001205D01*
X008044Y001235D01*
X008096Y001269D01*
X008145Y001305D01*
X008193Y001345D01*
X008237Y001387D01*
X008280Y001432D01*
X008319Y001479D01*
X008355Y001529D01*
X008389Y001581D01*
X008419Y001634D01*
X008446Y001690D01*
X008470Y001747D01*
X008490Y001805D01*
X008506Y001864D01*
X008519Y001925D01*
X008529Y001985D01*
X008534Y002047D01*
X008536Y002108D01*
X008534Y002170D01*
X008529Y002231D01*
X008519Y002292D01*
X008507Y002353D01*
X008490Y002412D01*
X008470Y002470D01*
X008447Y002527D01*
X008420Y002583D01*
X008390Y002636D01*
X008356Y002688D01*
X008320Y002738D01*
X012019Y003644D02*
X012044Y003619D01*
X012144Y003619D01*
X012169Y003644D01*
X012169Y003694D01*
X012144Y003719D01*
X012094Y003766D02*
X012094Y003866D01*
X012169Y003841D02*
X012019Y003841D01*
X012094Y003766D01*
X012044Y003719D02*
X012019Y003694D01*
X012019Y003644D01*
X014181Y004964D02*
X014138Y004909D01*
X014089Y004945D01*
X014038Y004979D01*
X013984Y005008D01*
X013929Y005035D01*
X013873Y005059D01*
X013815Y005078D01*
X013756Y005095D01*
X013696Y005108D01*
X013636Y005117D01*
X013575Y005122D01*
X013513Y005124D01*
X013452Y005122D01*
X013391Y005117D01*
X013331Y005107D01*
X013271Y005094D01*
X013212Y005078D01*
X013154Y005058D01*
X013098Y005035D01*
X013043Y005008D01*
X012989Y004978D01*
X012938Y004945D01*
X012889Y004909D01*
X012842Y004869D01*
X012797Y004828D01*
X012755Y004783D01*
X012716Y004736D01*
X012680Y004687D01*
X012646Y004636D01*
X012616Y004582D01*
X012589Y004527D01*
X012566Y004471D01*
X012546Y004413D01*
X012479Y004433D01*
X012479Y004434D01*
X012500Y004495D01*
X012525Y004556D01*
X012554Y004615D01*
X012586Y004672D01*
X012622Y004726D01*
X012661Y004779D01*
X012703Y004829D01*
X012748Y004877D01*
X012795Y004922D01*
X012845Y004964D01*
X012898Y005002D01*
X012953Y005038D01*
X013010Y005070D01*
X013069Y005099D01*
X013129Y005124D01*
X013191Y005145D01*
X013254Y005162D01*
X013318Y005176D01*
X013383Y005186D01*
X013448Y005192D01*
X013514Y005194D01*
X013579Y005192D01*
X013644Y005186D01*
X013709Y005176D01*
X013773Y005163D01*
X013836Y005145D01*
X013898Y005124D01*
X013958Y005099D01*
X014017Y005070D01*
X014074Y005038D01*
X014129Y005003D01*
X014182Y004964D01*
X014176Y004957D01*
X014124Y004995D01*
X014069Y005031D01*
X014013Y005062D01*
X013954Y005091D01*
X013894Y005116D01*
X013833Y005137D01*
X013771Y005154D01*
X013707Y005168D01*
X013643Y005177D01*
X013578Y005183D01*
X013514Y005185D01*
X013449Y005183D01*
X013384Y005177D01*
X013320Y005167D01*
X013256Y005154D01*
X013194Y005136D01*
X013133Y005115D01*
X013073Y005090D01*
X013014Y005062D01*
X012958Y005030D01*
X012903Y004995D01*
X012851Y004957D01*
X012801Y004915D01*
X012754Y004871D01*
X012709Y004823D01*
X012668Y004774D01*
X012629Y004721D01*
X012594Y004667D01*
X012562Y004610D01*
X012534Y004552D01*
X012509Y004492D01*
X012487Y004431D01*
X012496Y004428D01*
X012517Y004489D01*
X012542Y004549D01*
X012570Y004606D01*
X012602Y004662D01*
X012637Y004716D01*
X012675Y004768D01*
X012716Y004817D01*
X012760Y004864D01*
X012807Y004908D01*
X012857Y004949D01*
X012908Y004988D01*
X012962Y005022D01*
X013019Y005054D01*
X013076Y005082D01*
X013136Y005107D01*
X013197Y005128D01*
X013259Y005145D01*
X013322Y005158D01*
X013385Y005168D01*
X013449Y005174D01*
X013513Y005176D01*
X013578Y005174D01*
X013642Y005168D01*
X013705Y005159D01*
X013768Y005145D01*
X013830Y005128D01*
X013891Y005107D01*
X013951Y005083D01*
X014009Y005054D01*
X014065Y005023D01*
X014119Y004988D01*
X014171Y004950D01*
X014165Y004943D01*
X014114Y004981D01*
X014060Y005015D01*
X014004Y005047D01*
X013947Y005074D01*
X013888Y005099D01*
X013828Y005119D01*
X013766Y005136D01*
X013704Y005150D01*
X013641Y005159D01*
X013577Y005165D01*
X013513Y005167D01*
X013450Y005165D01*
X013386Y005159D01*
X013323Y005150D01*
X013261Y005136D01*
X013199Y005119D01*
X013139Y005098D01*
X013080Y005074D01*
X013023Y005046D01*
X012967Y005015D01*
X012914Y004980D01*
X012862Y004942D01*
X012813Y004902D01*
X012767Y004858D01*
X012723Y004811D01*
X012682Y004763D01*
X012644Y004711D01*
X012609Y004658D01*
X012578Y004602D01*
X012550Y004545D01*
X012525Y004486D01*
X012505Y004426D01*
X012513Y004423D01*
X012534Y004483D01*
X012558Y004541D01*
X012586Y004598D01*
X012617Y004653D01*
X012652Y004706D01*
X012689Y004757D01*
X012730Y004806D01*
X012773Y004852D01*
X012819Y004895D01*
X012868Y004935D01*
X012919Y004973D01*
X012972Y005007D01*
X013027Y005038D01*
X013084Y005066D01*
X013142Y005090D01*
X013202Y005111D01*
X013263Y005128D01*
X013325Y005141D01*
X013387Y005150D01*
X013450Y005156D01*
X013513Y005158D01*
X013577Y005156D01*
X013640Y005150D01*
X013702Y005141D01*
X013764Y005128D01*
X013825Y005111D01*
X013885Y005090D01*
X013943Y005066D01*
X014000Y005039D01*
X014055Y005008D01*
X014108Y004973D01*
X014159Y004936D01*
X014154Y004929D01*
X014103Y004966D01*
X014051Y005000D01*
X013996Y005031D01*
X013940Y005058D01*
X013882Y005082D01*
X013822Y005102D01*
X013762Y005119D01*
X013701Y005132D01*
X013639Y005142D01*
X013576Y005147D01*
X013513Y005149D01*
X013451Y005147D01*
X013388Y005141D01*
X013326Y005132D01*
X013265Y005119D01*
X013205Y005102D01*
X013145Y005081D01*
X013087Y005058D01*
X013031Y005030D01*
X012976Y004999D01*
X012924Y004965D01*
X012873Y004928D01*
X012825Y004888D01*
X012779Y004845D01*
X012736Y004800D01*
X012696Y004751D01*
X012659Y004701D01*
X012625Y004648D01*
X012594Y004594D01*
X012566Y004538D01*
X012542Y004480D01*
X012522Y004420D01*
X012530Y004418D01*
X012551Y004476D01*
X012575Y004534D01*
X012602Y004590D01*
X012633Y004644D01*
X012666Y004696D01*
X012703Y004746D01*
X012743Y004794D01*
X012786Y004839D01*
X012831Y004881D01*
X012879Y004921D01*
X012929Y004958D01*
X012981Y004992D01*
X013035Y005022D01*
X013091Y005049D01*
X013149Y005073D01*
X013207Y005093D01*
X013267Y005110D01*
X013328Y005123D01*
X013389Y005132D01*
X013451Y005138D01*
X013513Y005140D01*
X013576Y005138D01*
X013637Y005133D01*
X013699Y005123D01*
X013760Y005110D01*
X013820Y005094D01*
X013878Y005073D01*
X013936Y005050D01*
X013992Y005023D01*
X014046Y004992D01*
X014098Y004959D01*
X014148Y004922D01*
X014143Y004915D01*
X014093Y004951D01*
X014041Y004984D01*
X013988Y005015D01*
X013932Y005042D01*
X013875Y005065D01*
X013817Y005085D01*
X013758Y005102D01*
X013697Y005114D01*
X013636Y005124D01*
X013575Y005129D01*
X013513Y005131D01*
X013452Y005129D01*
X013391Y005124D01*
X013330Y005114D01*
X013269Y005101D01*
X013210Y005085D01*
X013152Y005065D01*
X013095Y005041D01*
X013039Y005014D01*
X012986Y004984D01*
X012934Y004951D01*
X012884Y004914D01*
X012837Y004875D01*
X012792Y004832D01*
X012750Y004788D01*
X012710Y004740D01*
X012674Y004691D01*
X012640Y004639D01*
X012610Y004586D01*
X012583Y004530D01*
X012559Y004473D01*
X012539Y004415D01*
X012479Y003785D02*
X012546Y003805D01*
X012566Y003747D01*
X012589Y003691D01*
X012616Y003636D01*
X012646Y003583D01*
X012680Y003531D01*
X012716Y003482D01*
X012755Y003435D01*
X012797Y003391D01*
X012842Y003349D01*
X012889Y003309D01*
X012938Y003273D01*
X012989Y003240D01*
X013043Y003210D01*
X013098Y003183D01*
X013154Y003160D01*
X013212Y003140D01*
X013271Y003124D01*
X013331Y003111D01*
X013391Y003101D01*
X013452Y003096D01*
X013513Y003094D01*
X013575Y003096D01*
X013636Y003101D01*
X013696Y003110D01*
X013756Y003123D01*
X013815Y003140D01*
X013873Y003159D01*
X013929Y003183D01*
X013984Y003210D01*
X014038Y003239D01*
X014089Y003273D01*
X014138Y003309D01*
X014181Y003254D01*
X014182Y003254D01*
X014129Y003215D01*
X014074Y003180D01*
X014017Y003148D01*
X013958Y003119D01*
X013898Y003094D01*
X013836Y003073D01*
X013773Y003055D01*
X013709Y003042D01*
X013644Y003032D01*
X013579Y003026D01*
X013513Y003024D01*
X013448Y003026D01*
X013383Y003032D01*
X013318Y003042D01*
X013254Y003056D01*
X013191Y003073D01*
X013129Y003094D01*
X013069Y003119D01*
X013010Y003148D01*
X012953Y003180D01*
X012898Y003216D01*
X012845Y003254D01*
X012795Y003296D01*
X012748Y003341D01*
X012703Y003389D01*
X012661Y003439D01*
X012622Y003492D01*
X012586Y003546D01*
X012554Y003603D01*
X012525Y003662D01*
X012500Y003723D01*
X012479Y003784D01*
X012487Y003787D01*
X012509Y003726D01*
X012534Y003666D01*
X012562Y003608D01*
X012594Y003551D01*
X012629Y003497D01*
X012668Y003444D01*
X012709Y003395D01*
X012754Y003347D01*
X012801Y003303D01*
X012851Y003262D01*
X012903Y003223D01*
X012958Y003188D01*
X013014Y003156D01*
X013073Y003128D01*
X013133Y003103D01*
X013194Y003082D01*
X013256Y003064D01*
X013320Y003051D01*
X013384Y003041D01*
X013449Y003035D01*
X013513Y003033D01*
X013578Y003035D01*
X013643Y003041D01*
X013707Y003050D01*
X013771Y003064D01*
X013833Y003081D01*
X013894Y003102D01*
X013954Y003127D01*
X014013Y003156D01*
X014069Y003187D01*
X014124Y003222D01*
X014176Y003261D01*
X014171Y003268D01*
X014119Y003230D01*
X014065Y003195D01*
X014009Y003164D01*
X013951Y003135D01*
X013891Y003111D01*
X013830Y003090D01*
X013768Y003073D01*
X013705Y003059D01*
X013642Y003050D01*
X013578Y003044D01*
X013513Y003042D01*
X013449Y003044D01*
X013385Y003050D01*
X013322Y003060D01*
X013259Y003073D01*
X013197Y003090D01*
X013136Y003111D01*
X013076Y003136D01*
X013019Y003164D01*
X012962Y003196D01*
X012908Y003230D01*
X012857Y003269D01*
X012807Y003310D01*
X012760Y003354D01*
X012716Y003401D01*
X012675Y003450D01*
X012637Y003502D01*
X012602Y003556D01*
X012570Y003612D01*
X012542Y003669D01*
X012517Y003729D01*
X012496Y003790D01*
X012505Y003792D01*
X012525Y003732D01*
X012550Y003673D01*
X012578Y003616D01*
X012609Y003560D01*
X012644Y003507D01*
X012682Y003455D01*
X012723Y003407D01*
X012767Y003360D01*
X012813Y003316D01*
X012862Y003276D01*
X012914Y003238D01*
X012967Y003203D01*
X013023Y003172D01*
X013080Y003144D01*
X013139Y003120D01*
X013199Y003099D01*
X013261Y003082D01*
X013323Y003068D01*
X013386Y003059D01*
X013450Y003053D01*
X013513Y003051D01*
X013577Y003053D01*
X013641Y003059D01*
X013704Y003068D01*
X013766Y003081D01*
X013828Y003099D01*
X013888Y003119D01*
X013947Y003144D01*
X014004Y003171D01*
X014060Y003203D01*
X014114Y003237D01*
X014165Y003275D01*
X014159Y003282D01*
X014108Y003245D01*
X014055Y003210D01*
X014000Y003179D01*
X013943Y003152D01*
X013885Y003128D01*
X013825Y003107D01*
X013764Y003090D01*
X013702Y003077D01*
X013640Y003068D01*
X013577Y003062D01*
X013513Y003060D01*
X013450Y003062D01*
X013387Y003068D01*
X013325Y003077D01*
X013263Y003090D01*
X013202Y003107D01*
X013142Y003128D01*
X013084Y003152D01*
X013027Y003180D01*
X012972Y003211D01*
X012919Y003245D01*
X012868Y003283D01*
X012819Y003323D01*
X012773Y003366D01*
X012730Y003412D01*
X012689Y003461D01*
X012652Y003512D01*
X012617Y003565D01*
X012586Y003620D01*
X012558Y003677D01*
X012534Y003735D01*
X012513Y003795D01*
X012522Y003798D01*
X012542Y003738D01*
X012566Y003681D01*
X012594Y003624D01*
X012625Y003570D01*
X012659Y003517D01*
X012696Y003467D01*
X012736Y003418D01*
X012779Y003373D01*
X012825Y003330D01*
X012873Y003290D01*
X012924Y003253D01*
X012976Y003219D01*
X013031Y003188D01*
X013087Y003160D01*
X013145Y003137D01*
X013205Y003116D01*
X013265Y003099D01*
X013326Y003086D01*
X013388Y003077D01*
X013451Y003071D01*
X013513Y003069D01*
X013576Y003071D01*
X013639Y003076D01*
X013701Y003086D01*
X013762Y003099D01*
X013822Y003116D01*
X013882Y003136D01*
X013940Y003160D01*
X013996Y003187D01*
X014051Y003218D01*
X014103Y003252D01*
X014154Y003289D01*
X014148Y003296D01*
X014098Y003259D01*
X014046Y003226D01*
X013992Y003195D01*
X013936Y003168D01*
X013878Y003145D01*
X013820Y003124D01*
X013760Y003108D01*
X013699Y003095D01*
X013637Y003085D01*
X013576Y003080D01*
X013513Y003078D01*
X013451Y003080D01*
X013389Y003086D01*
X013328Y003095D01*
X013267Y003108D01*
X013207Y003125D01*
X013149Y003145D01*
X013091Y003169D01*
X013035Y003196D01*
X012981Y003226D01*
X012929Y003260D01*
X012879Y003297D01*
X012831Y003337D01*
X012786Y003379D01*
X012743Y003424D01*
X012703Y003472D01*
X012666Y003522D01*
X012633Y003574D01*
X012602Y003628D01*
X012575Y003684D01*
X012551Y003742D01*
X012530Y003800D01*
X012539Y003803D01*
X012559Y003745D01*
X012583Y003688D01*
X012610Y003633D01*
X012640Y003579D01*
X012674Y003527D01*
X012710Y003478D01*
X012750Y003430D01*
X012792Y003386D01*
X012837Y003343D01*
X012884Y003304D01*
X012934Y003268D01*
X012986Y003234D01*
X013039Y003204D01*
X013095Y003177D01*
X013152Y003153D01*
X013210Y003133D01*
X013269Y003117D01*
X013330Y003104D01*
X013390Y003094D01*
X013452Y003089D01*
X013513Y003087D01*
X013575Y003089D01*
X013636Y003094D01*
X013697Y003104D01*
X013758Y003116D01*
X013817Y003133D01*
X013875Y003153D01*
X013932Y003176D01*
X013988Y003203D01*
X014041Y003233D01*
X014093Y003267D01*
X014143Y003303D01*
X013972Y005454D02*
X013872Y005454D01*
X013922Y005454D02*
X013922Y005604D01*
X013872Y005554D01*
X013824Y005579D02*
X013799Y005604D01*
X013724Y005604D01*
X013724Y005454D01*
X013799Y005454D01*
X013824Y005479D01*
X013824Y005579D01*
X017859Y007339D02*
X017884Y007314D01*
X017984Y007314D01*
X018009Y007339D01*
X018009Y007389D01*
X017984Y007414D01*
X018009Y007461D02*
X018009Y007561D01*
X018009Y007511D02*
X017859Y007511D01*
X017909Y007461D01*
X017884Y007414D02*
X017859Y007389D01*
X017859Y007339D01*
X017744Y007522D02*
X017769Y007547D01*
X017769Y007597D01*
X017744Y007622D01*
X017769Y007669D02*
X017769Y007769D01*
X017769Y007816D02*
X017769Y007916D01*
X017769Y007866D02*
X017619Y007866D01*
X017669Y007816D01*
X017619Y007719D02*
X017769Y007719D01*
X017669Y007669D02*
X017619Y007719D01*
X017644Y007622D02*
X017619Y007597D01*
X017619Y007547D01*
X017644Y007522D01*
X017744Y007522D01*
X018859Y007536D02*
X018859Y007486D01*
X018884Y007461D01*
X018884Y007414D02*
X018859Y007389D01*
X018859Y007339D01*
X018884Y007314D01*
X018984Y007314D01*
X019009Y007339D01*
X019009Y007389D01*
X018984Y007414D01*
X019009Y007461D02*
X018909Y007561D01*
X018884Y007561D01*
X018859Y007536D01*
X019009Y007561D02*
X019009Y007461D01*
X012266Y007614D02*
X012166Y007614D01*
X012266Y007714D01*
X012266Y007739D01*
X012241Y007764D01*
X012191Y007764D01*
X012166Y007739D01*
X012119Y007739D02*
X012094Y007764D01*
X012019Y007764D01*
X012019Y007614D01*
X012094Y007614D01*
X012119Y007639D01*
X012119Y007739D01*
X006482Y006829D02*
X006554Y006883D01*
X006553Y006882D02*
X006596Y006829D01*
X006641Y006778D01*
X006690Y006730D01*
X006741Y006685D01*
X006795Y006642D01*
X006851Y006603D01*
X006909Y006567D01*
X006969Y006534D01*
X007030Y006505D01*
X007094Y006480D01*
X007158Y006458D01*
X007224Y006439D01*
X007291Y006425D01*
X007358Y006414D01*
X007426Y006407D01*
X007494Y006404D01*
X007563Y006405D01*
X007631Y006410D01*
X007699Y006418D01*
X007766Y006431D01*
X007832Y006447D01*
X007897Y006467D01*
X007962Y006490D01*
X008024Y006517D01*
X008085Y006548D01*
X008144Y006582D01*
X008202Y006619D01*
X008257Y006660D01*
X008309Y006704D01*
X008359Y006750D01*
X008406Y006799D01*
X008451Y006851D01*
X008492Y006905D01*
X008531Y006962D01*
X008566Y007021D01*
X008597Y007081D01*
X008625Y007143D01*
X008650Y007207D01*
X008671Y007272D01*
X008688Y007338D01*
X008702Y007405D01*
X008711Y007473D01*
X008717Y007541D01*
X008719Y007609D01*
X008717Y007677D01*
X008711Y007745D01*
X008702Y007813D01*
X008688Y007880D01*
X008671Y007946D01*
X008650Y008011D01*
X008625Y008075D01*
X008597Y008137D01*
X008566Y008197D01*
X008531Y008256D01*
X008492Y008313D01*
X008451Y008367D01*
X008406Y008419D01*
X008359Y008468D01*
X008309Y008514D01*
X008257Y008558D01*
X008202Y008599D01*
X008144Y008636D01*
X008085Y008670D01*
X008024Y008701D01*
X007962Y008728D01*
X007897Y008751D01*
X007832Y008771D01*
X007766Y008787D01*
X007699Y008800D01*
X007631Y008808D01*
X007563Y008813D01*
X007494Y008814D01*
X007426Y008811D01*
X007358Y008804D01*
X007291Y008793D01*
X007224Y008779D01*
X007158Y008760D01*
X007094Y008738D01*
X007030Y008713D01*
X006969Y008684D01*
X006909Y008651D01*
X006851Y008615D01*
X006795Y008576D01*
X006741Y008533D01*
X006690Y008488D01*
X006641Y008440D01*
X006596Y008389D01*
X006553Y008336D01*
X006482Y008389D01*
X006481Y008390D01*
X006525Y008445D01*
X006573Y008498D01*
X006623Y008549D01*
X006676Y008596D01*
X006731Y008640D01*
X006789Y008682D01*
X006849Y008720D01*
X006910Y008755D01*
X006974Y008786D01*
X007039Y008814D01*
X007106Y008838D01*
X007174Y008859D01*
X007243Y008875D01*
X007313Y008888D01*
X007383Y008897D01*
X007454Y008903D01*
X007525Y008904D01*
X007596Y008901D01*
X007667Y008895D01*
X007737Y008885D01*
X007806Y008871D01*
X007875Y008853D01*
X007943Y008831D01*
X008009Y008806D01*
X008074Y008777D01*
X008137Y008744D01*
X008198Y008708D01*
X008257Y008669D01*
X008314Y008627D01*
X008369Y008582D01*
X008421Y008533D01*
X008470Y008482D01*
X008517Y008429D01*
X008560Y008372D01*
X008600Y008314D01*
X008637Y008253D01*
X008671Y008191D01*
X008701Y008127D01*
X008728Y008061D01*
X008751Y007994D01*
X008770Y007925D01*
X008785Y007856D01*
X008797Y007786D01*
X008805Y007715D01*
X008809Y007644D01*
X008809Y007574D01*
X008805Y007503D01*
X008797Y007432D01*
X008785Y007362D01*
X008770Y007293D01*
X008751Y007224D01*
X008728Y007157D01*
X008701Y007091D01*
X008671Y007027D01*
X008637Y006965D01*
X008600Y006904D01*
X008560Y006846D01*
X008517Y006789D01*
X008470Y006736D01*
X008421Y006685D01*
X008369Y006636D01*
X008314Y006591D01*
X008257Y006549D01*
X008198Y006510D01*
X008137Y006474D01*
X008074Y006441D01*
X008009Y006412D01*
X007943Y006387D01*
X007875Y006365D01*
X007806Y006347D01*
X007737Y006333D01*
X007667Y006323D01*
X007596Y006317D01*
X007525Y006314D01*
X007454Y006315D01*
X007383Y006321D01*
X007313Y006330D01*
X007243Y006343D01*
X007174Y006359D01*
X007106Y006380D01*
X007039Y006404D01*
X006974Y006432D01*
X006910Y006463D01*
X006849Y006498D01*
X006789Y006536D01*
X006731Y006578D01*
X006676Y006622D01*
X006623Y006669D01*
X006573Y006720D01*
X006525Y006773D01*
X006481Y006828D01*
X006488Y006833D01*
X006533Y006778D01*
X006580Y006725D01*
X006631Y006674D01*
X006684Y006627D01*
X006740Y006582D01*
X006798Y006541D01*
X006858Y006503D01*
X006920Y006468D01*
X006984Y006437D01*
X007050Y006410D01*
X007117Y006386D01*
X007186Y006366D01*
X007255Y006349D01*
X007325Y006337D01*
X007396Y006328D01*
X007467Y006324D01*
X007538Y006323D01*
X007609Y006327D01*
X007680Y006334D01*
X007751Y006345D01*
X007820Y006360D01*
X007889Y006379D01*
X007957Y006402D01*
X008023Y006428D01*
X008088Y006458D01*
X008150Y006492D01*
X008211Y006528D01*
X008270Y006569D01*
X008327Y006612D01*
X008381Y006659D01*
X008432Y006708D01*
X008480Y006761D01*
X008526Y006815D01*
X008568Y006873D01*
X008607Y006932D01*
X008643Y006994D01*
X008676Y007057D01*
X008704Y007122D01*
X008730Y007189D01*
X008751Y007257D01*
X008769Y007326D01*
X008782Y007396D01*
X008792Y007467D01*
X008798Y007538D01*
X008800Y007609D01*
X008798Y007680D01*
X008792Y007751D01*
X008782Y007822D01*
X008769Y007892D01*
X008751Y007961D01*
X008730Y008029D01*
X008704Y008096D01*
X008676Y008161D01*
X008643Y008224D01*
X008607Y008286D01*
X008568Y008345D01*
X008526Y008403D01*
X008480Y008457D01*
X008432Y008510D01*
X008381Y008559D01*
X008327Y008606D01*
X008270Y008649D01*
X008211Y008690D01*
X008150Y008726D01*
X008088Y008760D01*
X008023Y008790D01*
X007957Y008816D01*
X007889Y008839D01*
X007820Y008858D01*
X007751Y008873D01*
X007680Y008884D01*
X007609Y008891D01*
X007538Y008895D01*
X007467Y008894D01*
X007396Y008890D01*
X007325Y008881D01*
X007255Y008869D01*
X007186Y008852D01*
X007117Y008832D01*
X007050Y008808D01*
X006984Y008781D01*
X006920Y008750D01*
X006858Y008715D01*
X006798Y008677D01*
X006740Y008636D01*
X006684Y008591D01*
X006631Y008544D01*
X006580Y008493D01*
X006533Y008440D01*
X006488Y008385D01*
X006495Y008379D01*
X006540Y008434D01*
X006587Y008487D01*
X006637Y008537D01*
X006690Y008584D01*
X006745Y008628D01*
X006803Y008670D01*
X006862Y008707D01*
X006924Y008742D01*
X006988Y008773D01*
X007053Y008800D01*
X007120Y008824D01*
X007188Y008844D01*
X007257Y008860D01*
X007326Y008872D01*
X007397Y008881D01*
X007467Y008885D01*
X007538Y008886D01*
X007609Y008882D01*
X007679Y008875D01*
X007749Y008864D01*
X007818Y008849D01*
X007886Y008830D01*
X007954Y008808D01*
X008019Y008782D01*
X008084Y008752D01*
X008146Y008719D01*
X008206Y008682D01*
X008265Y008642D01*
X008321Y008599D01*
X008375Y008553D01*
X008425Y008503D01*
X008474Y008452D01*
X008519Y008397D01*
X008561Y008340D01*
X008600Y008281D01*
X008635Y008220D01*
X008668Y008157D01*
X008696Y008092D01*
X008721Y008026D01*
X008742Y007958D01*
X008760Y007890D01*
X008773Y007820D01*
X008783Y007750D01*
X008789Y007680D01*
X008791Y007609D01*
X008789Y007538D01*
X008783Y007468D01*
X008773Y007398D01*
X008760Y007328D01*
X008742Y007260D01*
X008721Y007192D01*
X008696Y007126D01*
X008668Y007061D01*
X008635Y006998D01*
X008600Y006937D01*
X008561Y006878D01*
X008519Y006821D01*
X008474Y006766D01*
X008425Y006715D01*
X008375Y006665D01*
X008321Y006619D01*
X008265Y006576D01*
X008206Y006536D01*
X008146Y006499D01*
X008084Y006466D01*
X008019Y006436D01*
X007954Y006410D01*
X007886Y006388D01*
X007818Y006369D01*
X007749Y006354D01*
X007679Y006343D01*
X007609Y006336D01*
X007538Y006332D01*
X007467Y006333D01*
X007397Y006337D01*
X007326Y006346D01*
X007257Y006358D01*
X007188Y006374D01*
X007120Y006394D01*
X007053Y006418D01*
X006988Y006445D01*
X006924Y006476D01*
X006862Y006511D01*
X006803Y006548D01*
X006745Y006590D01*
X006690Y006634D01*
X006637Y006681D01*
X006587Y006731D01*
X006540Y006784D01*
X006495Y006839D01*
X006503Y006844D01*
X006547Y006789D01*
X006595Y006736D01*
X006645Y006686D01*
X006698Y006638D01*
X006754Y006594D01*
X006812Y006553D01*
X006872Y006516D01*
X006934Y006481D01*
X006998Y006451D01*
X007064Y006424D01*
X007131Y006400D01*
X007199Y006381D01*
X007269Y006365D01*
X007339Y006353D01*
X007409Y006345D01*
X007480Y006341D01*
X007551Y006342D01*
X007622Y006346D01*
X007693Y006354D01*
X007763Y006366D01*
X007832Y006382D01*
X007900Y006401D01*
X007968Y006425D01*
X008033Y006452D01*
X008097Y006483D01*
X008159Y006517D01*
X008219Y006555D01*
X008277Y006597D01*
X008333Y006641D01*
X008386Y006688D01*
X008436Y006739D01*
X008483Y006792D01*
X008528Y006847D01*
X008569Y006905D01*
X008606Y006965D01*
X008641Y007028D01*
X008672Y007092D01*
X008699Y007157D01*
X008722Y007224D01*
X008742Y007293D01*
X008758Y007362D01*
X008770Y007432D01*
X008778Y007503D01*
X008782Y007573D01*
X008782Y007645D01*
X008778Y007715D01*
X008770Y007786D01*
X008758Y007856D01*
X008742Y007925D01*
X008722Y007994D01*
X008699Y008061D01*
X008672Y008126D01*
X008641Y008190D01*
X008606Y008253D01*
X008569Y008313D01*
X008528Y008371D01*
X008483Y008426D01*
X008436Y008479D01*
X008386Y008530D01*
X008333Y008577D01*
X008277Y008621D01*
X008219Y008663D01*
X008159Y008701D01*
X008097Y008735D01*
X008033Y008766D01*
X007968Y008793D01*
X007900Y008817D01*
X007832Y008836D01*
X007763Y008852D01*
X007693Y008864D01*
X007622Y008872D01*
X007551Y008876D01*
X007480Y008877D01*
X007409Y008873D01*
X007339Y008865D01*
X007269Y008853D01*
X007199Y008837D01*
X007131Y008818D01*
X007064Y008794D01*
X006998Y008767D01*
X006934Y008737D01*
X006872Y008702D01*
X006812Y008665D01*
X006754Y008624D01*
X006698Y008580D01*
X006645Y008532D01*
X006595Y008482D01*
X006547Y008429D01*
X006503Y008374D01*
X006510Y008368D01*
X006554Y008423D01*
X006601Y008476D01*
X006651Y008526D01*
X006704Y008573D01*
X006759Y008617D01*
X006817Y008657D01*
X006876Y008695D01*
X006938Y008729D01*
X007002Y008759D01*
X007067Y008786D01*
X007134Y008809D01*
X007202Y008829D01*
X007270Y008844D01*
X007340Y008856D01*
X007410Y008864D01*
X007481Y008868D01*
X007551Y008867D01*
X007622Y008863D01*
X007692Y008855D01*
X007761Y008843D01*
X007830Y008828D01*
X007898Y008808D01*
X007964Y008785D01*
X008029Y008758D01*
X008093Y008727D01*
X008155Y008693D01*
X008214Y008655D01*
X008272Y008614D01*
X008327Y008570D01*
X008380Y008523D01*
X008429Y008473D01*
X008476Y008421D01*
X008520Y008365D01*
X008561Y008308D01*
X008599Y008248D01*
X008633Y008186D01*
X008663Y008123D01*
X008690Y008058D01*
X008714Y007991D01*
X008733Y007923D01*
X008749Y007854D01*
X008761Y007785D01*
X008769Y007715D01*
X008773Y007644D01*
X008773Y007574D01*
X008769Y007503D01*
X008761Y007433D01*
X008749Y007364D01*
X008733Y007295D01*
X008714Y007227D01*
X008690Y007160D01*
X008663Y007095D01*
X008633Y007032D01*
X008599Y006970D01*
X008561Y006910D01*
X008520Y006853D01*
X008476Y006797D01*
X008429Y006745D01*
X008380Y006695D01*
X008327Y006648D01*
X008272Y006604D01*
X008214Y006563D01*
X008155Y006525D01*
X008093Y006491D01*
X008029Y006460D01*
X007964Y006433D01*
X007898Y006410D01*
X007830Y006390D01*
X007761Y006375D01*
X007692Y006363D01*
X007622Y006355D01*
X007551Y006351D01*
X007481Y006350D01*
X007410Y006354D01*
X007340Y006362D01*
X007270Y006374D01*
X007202Y006389D01*
X007134Y006409D01*
X007067Y006432D01*
X007002Y006459D01*
X006938Y006489D01*
X006876Y006523D01*
X006817Y006561D01*
X006759Y006601D01*
X006704Y006645D01*
X006651Y006692D01*
X006601Y006742D01*
X006554Y006795D01*
X006510Y006850D01*
X006517Y006855D01*
X006561Y006800D01*
X006608Y006748D01*
X006657Y006699D01*
X006710Y006652D01*
X006764Y006609D01*
X006822Y006568D01*
X006881Y006531D01*
X006942Y006497D01*
X007006Y006467D01*
X007070Y006440D01*
X007137Y006417D01*
X007204Y006398D01*
X007272Y006383D01*
X007341Y006371D01*
X007411Y006363D01*
X007481Y006359D01*
X007551Y006360D01*
X007621Y006364D01*
X007690Y006372D01*
X007759Y006383D01*
X007828Y006399D01*
X007895Y006418D01*
X007961Y006442D01*
X008026Y006469D01*
X008089Y006499D01*
X008150Y006533D01*
X008209Y006570D01*
X008267Y006611D01*
X008321Y006655D01*
X008373Y006701D01*
X008423Y006751D01*
X008470Y006803D01*
X008513Y006858D01*
X008554Y006915D01*
X008591Y006974D01*
X008625Y007036D01*
X008655Y007099D01*
X008682Y007164D01*
X008705Y007230D01*
X008724Y007297D01*
X008740Y007365D01*
X008752Y007434D01*
X008760Y007504D01*
X008764Y007574D01*
X008764Y007644D01*
X008760Y007714D01*
X008752Y007784D01*
X008740Y007853D01*
X008724Y007921D01*
X008705Y007988D01*
X008682Y008054D01*
X008655Y008119D01*
X008625Y008182D01*
X008591Y008244D01*
X008554Y008303D01*
X008513Y008360D01*
X008470Y008415D01*
X008423Y008467D01*
X008373Y008517D01*
X008321Y008563D01*
X008267Y008607D01*
X008209Y008648D01*
X008150Y008685D01*
X008089Y008719D01*
X008026Y008749D01*
X007961Y008776D01*
X007895Y008800D01*
X007828Y008819D01*
X007759Y008835D01*
X007690Y008846D01*
X007621Y008854D01*
X007551Y008858D01*
X007481Y008859D01*
X007411Y008855D01*
X007341Y008847D01*
X007272Y008835D01*
X007204Y008820D01*
X007137Y008801D01*
X007070Y008778D01*
X007006Y008751D01*
X006942Y008721D01*
X006881Y008687D01*
X006822Y008650D01*
X006764Y008609D01*
X006710Y008566D01*
X006657Y008519D01*
X006608Y008470D01*
X006561Y008418D01*
X006517Y008363D01*
X006524Y008358D01*
X006568Y008412D01*
X006614Y008464D01*
X006663Y008513D01*
X006715Y008559D01*
X006770Y008602D01*
X006827Y008642D01*
X006886Y008679D01*
X006947Y008713D01*
X007009Y008743D01*
X007074Y008769D01*
X007139Y008792D01*
X007206Y008811D01*
X007274Y008827D01*
X007343Y008838D01*
X007412Y008846D01*
X007481Y008850D01*
X007551Y008849D01*
X007620Y008845D01*
X007689Y008838D01*
X007758Y008826D01*
X007825Y008810D01*
X007892Y008791D01*
X007958Y008768D01*
X008022Y008741D01*
X008085Y008711D01*
X008146Y008677D01*
X008204Y008640D01*
X008261Y008600D01*
X008315Y008557D01*
X008367Y008510D01*
X008416Y008461D01*
X008463Y008409D01*
X008506Y008355D01*
X008546Y008298D01*
X008583Y008239D01*
X008617Y008178D01*
X008647Y008115D01*
X008674Y008051D01*
X008697Y007986D01*
X008716Y007919D01*
X008731Y007851D01*
X008743Y007782D01*
X008751Y007713D01*
X008755Y007644D01*
X008755Y007574D01*
X008751Y007505D01*
X008743Y007436D01*
X008731Y007367D01*
X008716Y007299D01*
X008697Y007232D01*
X008674Y007167D01*
X008647Y007103D01*
X008617Y007040D01*
X008583Y006979D01*
X008546Y006920D01*
X008506Y006863D01*
X008463Y006809D01*
X008416Y006757D01*
X008367Y006708D01*
X008315Y006661D01*
X008261Y006618D01*
X008204Y006578D01*
X008146Y006541D01*
X008085Y006507D01*
X008022Y006477D01*
X007958Y006450D01*
X007892Y006427D01*
X007825Y006408D01*
X007758Y006392D01*
X007689Y006380D01*
X007620Y006373D01*
X007551Y006369D01*
X007481Y006368D01*
X007412Y006372D01*
X007343Y006380D01*
X007274Y006391D01*
X007206Y006407D01*
X007139Y006426D01*
X007074Y006449D01*
X007009Y006475D01*
X006947Y006505D01*
X006886Y006539D01*
X006827Y006576D01*
X006770Y006616D01*
X006715Y006659D01*
X006663Y006705D01*
X006614Y006754D01*
X006568Y006806D01*
X006524Y006860D01*
X006531Y006866D01*
X006575Y006812D01*
X006621Y006761D01*
X006670Y006712D01*
X006721Y006666D01*
X006775Y006623D01*
X006832Y006583D01*
X006890Y006547D01*
X006951Y006513D01*
X007013Y006483D01*
X007077Y006457D01*
X007142Y006435D01*
X007208Y006416D01*
X007276Y006400D01*
X007344Y006389D01*
X007412Y006381D01*
X007481Y006377D01*
X007550Y006378D01*
X007619Y006382D01*
X007688Y006389D01*
X007756Y006401D01*
X007823Y006416D01*
X007890Y006436D01*
X007955Y006459D01*
X008018Y006485D01*
X008081Y006515D01*
X008141Y006548D01*
X008199Y006585D01*
X008256Y006625D01*
X008310Y006668D01*
X008361Y006714D01*
X008410Y006763D01*
X008456Y006815D01*
X008499Y006869D01*
X008539Y006925D01*
X008575Y006984D01*
X008609Y007044D01*
X008639Y007106D01*
X008665Y007170D01*
X008688Y007235D01*
X008707Y007302D01*
X008722Y007369D01*
X008734Y007437D01*
X008742Y007506D01*
X008746Y007574D01*
X008746Y007644D01*
X008742Y007712D01*
X008734Y007781D01*
X008722Y007849D01*
X008707Y007916D01*
X008688Y007983D01*
X008665Y008048D01*
X008639Y008112D01*
X008609Y008174D01*
X008575Y008234D01*
X008539Y008293D01*
X008499Y008349D01*
X008456Y008403D01*
X008410Y008455D01*
X008361Y008504D01*
X008310Y008550D01*
X008256Y008593D01*
X008199Y008633D01*
X008141Y008670D01*
X008081Y008703D01*
X008018Y008733D01*
X007955Y008759D01*
X007890Y008782D01*
X007823Y008802D01*
X007756Y008817D01*
X007688Y008829D01*
X007619Y008836D01*
X007550Y008840D01*
X007481Y008841D01*
X007412Y008837D01*
X007344Y008829D01*
X007276Y008818D01*
X007208Y008802D01*
X007142Y008783D01*
X007077Y008761D01*
X007013Y008735D01*
X006951Y008705D01*
X006890Y008671D01*
X006832Y008635D01*
X006775Y008595D01*
X006721Y008552D01*
X006670Y008506D01*
X006621Y008457D01*
X006575Y008406D01*
X006531Y008352D01*
X006539Y008347D01*
X006582Y008401D01*
X006628Y008452D01*
X006678Y008501D01*
X006729Y008547D01*
X006784Y008590D01*
X006841Y008630D01*
X006899Y008666D01*
X006960Y008700D01*
X007023Y008729D01*
X007087Y008755D01*
X007153Y008777D01*
X007220Y008796D01*
X007287Y008811D01*
X007356Y008822D01*
X007425Y008829D01*
X007494Y008832D01*
X007563Y008831D01*
X007633Y008826D01*
X007701Y008818D01*
X007769Y008805D01*
X007837Y008789D01*
X007903Y008768D01*
X007968Y008745D01*
X008032Y008717D01*
X008094Y008686D01*
X008154Y008651D01*
X008212Y008613D01*
X008268Y008572D01*
X008321Y008528D01*
X008372Y008481D01*
X008420Y008431D01*
X008465Y008378D01*
X008507Y008323D01*
X008546Y008266D01*
X008581Y008206D01*
X008613Y008145D01*
X008642Y008082D01*
X008667Y008017D01*
X008688Y007951D01*
X008706Y007884D01*
X008719Y007816D01*
X008729Y007747D01*
X008735Y007678D01*
X008737Y007609D01*
X008735Y007540D01*
X008729Y007471D01*
X008719Y007402D01*
X008706Y007334D01*
X008688Y007267D01*
X008667Y007201D01*
X008642Y007136D01*
X008613Y007073D01*
X008581Y007012D01*
X008546Y006952D01*
X008507Y006895D01*
X008465Y006840D01*
X008420Y006787D01*
X008372Y006737D01*
X008321Y006690D01*
X008268Y006646D01*
X008212Y006605D01*
X008154Y006567D01*
X008094Y006532D01*
X008032Y006501D01*
X007968Y006473D01*
X007903Y006450D01*
X007837Y006429D01*
X007769Y006413D01*
X007701Y006400D01*
X007633Y006392D01*
X007563Y006387D01*
X007494Y006386D01*
X007425Y006389D01*
X007356Y006396D01*
X007287Y006407D01*
X007220Y006422D01*
X007153Y006441D01*
X007087Y006463D01*
X007023Y006489D01*
X006960Y006518D01*
X006899Y006552D01*
X006841Y006588D01*
X006784Y006628D01*
X006729Y006671D01*
X006678Y006717D01*
X006628Y006766D01*
X006582Y006817D01*
X006539Y006871D01*
X006546Y006877D01*
X006589Y006823D01*
X006635Y006772D01*
X006684Y006723D01*
X006735Y006678D01*
X006789Y006635D01*
X006846Y006596D01*
X006904Y006559D01*
X006964Y006526D01*
X007027Y006497D01*
X007090Y006471D01*
X007156Y006449D01*
X007222Y006431D01*
X007289Y006416D01*
X007357Y006405D01*
X007426Y006398D01*
X007494Y006395D01*
X007563Y006396D01*
X007632Y006401D01*
X007700Y006409D01*
X007768Y006422D01*
X007834Y006438D01*
X007900Y006458D01*
X007965Y006482D01*
X008028Y006509D01*
X008089Y006540D01*
X008149Y006574D01*
X008207Y006612D01*
X008262Y006653D01*
X008315Y006697D01*
X008365Y006744D01*
X008413Y006793D01*
X008458Y006845D01*
X008500Y006900D01*
X008538Y006957D01*
X008573Y007016D01*
X008605Y007077D01*
X008634Y007140D01*
X008658Y007204D01*
X008680Y007270D01*
X008697Y007336D01*
X008710Y007404D01*
X008720Y007472D01*
X008726Y007540D01*
X008728Y007609D01*
X008726Y007678D01*
X008720Y007746D01*
X008710Y007814D01*
X008697Y007882D01*
X008680Y007948D01*
X008658Y008014D01*
X008634Y008078D01*
X008605Y008141D01*
X008573Y008202D01*
X008538Y008261D01*
X008500Y008318D01*
X008458Y008373D01*
X008413Y008425D01*
X008365Y008474D01*
X008315Y008521D01*
X008262Y008565D01*
X008207Y008606D01*
X008149Y008644D01*
X008089Y008678D01*
X008028Y008709D01*
X007965Y008736D01*
X007900Y008760D01*
X007834Y008780D01*
X007768Y008796D01*
X007700Y008809D01*
X007632Y008817D01*
X007563Y008822D01*
X007494Y008823D01*
X007426Y008820D01*
X007357Y008813D01*
X007289Y008802D01*
X007222Y008787D01*
X007156Y008769D01*
X007090Y008747D01*
X007027Y008721D01*
X006964Y008692D01*
X006904Y008659D01*
X006846Y008622D01*
X006789Y008583D01*
X006735Y008540D01*
X006684Y008495D01*
X006635Y008446D01*
X006589Y008395D01*
X006546Y008341D01*
X006734Y004561D02*
X006709Y004536D01*
X006709Y004486D01*
X006734Y004461D01*
X006759Y004461D01*
X006784Y004486D01*
X006784Y004561D01*
X006834Y004561D02*
X006734Y004561D01*
X006834Y004561D02*
X006859Y004536D01*
X006859Y004486D01*
X006834Y004461D01*
X006834Y004414D02*
X006859Y004389D01*
X006859Y004339D01*
X006834Y004314D01*
X006734Y004314D01*
X006709Y004339D01*
X006709Y004389D01*
X006734Y004414D01*
X037783Y003686D02*
X037861Y003731D01*
X037861Y003730D02*
X037889Y003686D01*
X037920Y003644D01*
X037953Y003604D01*
X037989Y003566D01*
X038028Y003531D01*
X038069Y003499D01*
X038113Y003469D01*
X038158Y003443D01*
X038205Y003420D01*
X038253Y003400D01*
X038303Y003384D01*
X038353Y003371D01*
X038405Y003362D01*
X038457Y003356D01*
X038509Y003354D01*
X038510Y003265D01*
X038509Y003264D01*
X038454Y003266D01*
X038400Y003272D01*
X038345Y003281D01*
X038292Y003294D01*
X038240Y003310D01*
X038188Y003329D01*
X038138Y003352D01*
X038090Y003378D01*
X038043Y003407D01*
X037999Y003439D01*
X037956Y003474D01*
X037916Y003512D01*
X037879Y003552D01*
X037844Y003594D01*
X037812Y003639D01*
X037783Y003685D01*
X037791Y003690D01*
X037819Y003644D01*
X037851Y003600D01*
X037886Y003558D01*
X037923Y003518D01*
X037962Y003481D01*
X038004Y003446D01*
X038048Y003415D01*
X038094Y003386D01*
X038142Y003360D01*
X038192Y003338D01*
X038242Y003318D01*
X038294Y003302D01*
X038347Y003290D01*
X038401Y003281D01*
X038455Y003275D01*
X038509Y003273D01*
X038509Y003282D01*
X038455Y003284D01*
X038402Y003290D01*
X038349Y003299D01*
X038297Y003311D01*
X038245Y003327D01*
X038195Y003346D01*
X038146Y003368D01*
X038099Y003394D01*
X038053Y003422D01*
X038010Y003454D01*
X037968Y003488D01*
X037929Y003524D01*
X037892Y003564D01*
X037858Y003605D01*
X037827Y003649D01*
X037798Y003694D01*
X037806Y003699D01*
X037836Y003651D01*
X037870Y003605D01*
X037906Y003562D01*
X037946Y003521D01*
X037988Y003483D01*
X038032Y003448D01*
X038079Y003416D01*
X038128Y003388D01*
X038179Y003363D01*
X038232Y003341D01*
X038285Y003324D01*
X038340Y003310D01*
X038396Y003300D01*
X038452Y003293D01*
X038509Y003291D01*
X038509Y003300D01*
X038453Y003302D01*
X038397Y003308D01*
X038342Y003318D01*
X038288Y003332D01*
X038235Y003350D01*
X038183Y003371D01*
X038132Y003396D01*
X038084Y003424D01*
X038038Y003455D01*
X037993Y003490D01*
X037952Y003527D01*
X037913Y003568D01*
X037877Y003610D01*
X037844Y003656D01*
X037814Y003703D01*
X037822Y003708D01*
X037851Y003661D01*
X037884Y003616D01*
X037920Y003574D01*
X037958Y003534D01*
X037999Y003497D01*
X038043Y003462D01*
X038089Y003431D01*
X038137Y003404D01*
X038186Y003379D01*
X038238Y003358D01*
X038290Y003341D01*
X038344Y003327D01*
X038399Y003317D01*
X038454Y003311D01*
X038509Y003309D01*
X038509Y003318D01*
X038454Y003320D01*
X038400Y003326D01*
X038346Y003336D01*
X038293Y003350D01*
X038241Y003367D01*
X038190Y003387D01*
X038141Y003412D01*
X038094Y003439D01*
X038048Y003470D01*
X038005Y003503D01*
X037964Y003540D01*
X037926Y003580D01*
X037891Y003622D01*
X037859Y003666D01*
X037830Y003712D01*
X037838Y003717D01*
X037866Y003671D01*
X037898Y003627D01*
X037933Y003586D01*
X037971Y003547D01*
X038011Y003510D01*
X038053Y003477D01*
X038098Y003447D01*
X038145Y003419D01*
X038194Y003396D01*
X038244Y003375D01*
X038295Y003358D01*
X038348Y003345D01*
X038401Y003335D01*
X038455Y003329D01*
X038509Y003327D01*
X038509Y003336D01*
X038456Y003338D01*
X038402Y003344D01*
X038350Y003354D01*
X038298Y003367D01*
X038247Y003384D01*
X038197Y003404D01*
X038149Y003427D01*
X038103Y003454D01*
X038059Y003484D01*
X038017Y003517D01*
X037977Y003553D01*
X037940Y003592D01*
X037905Y003633D01*
X037874Y003676D01*
X037845Y003721D01*
X037853Y003726D01*
X037881Y003681D01*
X037912Y003638D01*
X037946Y003598D01*
X037983Y003560D01*
X038022Y003524D01*
X038064Y003492D01*
X038108Y003462D01*
X038154Y003435D01*
X038201Y003412D01*
X038250Y003392D01*
X038300Y003375D01*
X038352Y003362D01*
X038404Y003353D01*
X038456Y003347D01*
X038509Y003345D01*
X038518Y003265D02*
X038518Y003355D01*
X038519Y003354D02*
X038573Y003356D01*
X038626Y003362D01*
X038679Y003372D01*
X038731Y003386D01*
X038782Y003403D01*
X038832Y003424D01*
X038880Y003448D01*
X038926Y003476D01*
X038970Y003507D01*
X039011Y003541D01*
X039051Y003578D01*
X039087Y003617D01*
X039155Y003560D01*
X039156Y003559D01*
X039118Y003518D01*
X039078Y003480D01*
X039035Y003444D01*
X038990Y003411D01*
X038943Y003381D01*
X038895Y003355D01*
X038844Y003331D01*
X038792Y003311D01*
X038739Y003295D01*
X038685Y003281D01*
X038630Y003272D01*
X038575Y003266D01*
X038519Y003264D01*
X038519Y003273D01*
X038574Y003275D01*
X038629Y003281D01*
X038683Y003290D01*
X038737Y003303D01*
X038789Y003320D01*
X038841Y003339D01*
X038891Y003363D01*
X038939Y003389D01*
X038985Y003419D01*
X039030Y003451D01*
X039072Y003486D01*
X039112Y003525D01*
X039149Y003565D01*
X039142Y003571D01*
X039105Y003531D01*
X039066Y003493D01*
X039024Y003458D01*
X038980Y003426D01*
X038934Y003397D01*
X038886Y003371D01*
X038837Y003348D01*
X038786Y003328D01*
X038734Y003312D01*
X038681Y003299D01*
X038628Y003290D01*
X038573Y003284D01*
X038519Y003282D01*
X038519Y003291D01*
X038573Y003293D01*
X038626Y003299D01*
X038679Y003308D01*
X038732Y003321D01*
X038783Y003337D01*
X038834Y003356D01*
X038882Y003379D01*
X038930Y003404D01*
X038975Y003433D01*
X039019Y003465D01*
X039060Y003500D01*
X039099Y003537D01*
X039135Y003577D01*
X039128Y003583D01*
X039092Y003543D01*
X039054Y003506D01*
X039013Y003472D01*
X038970Y003441D01*
X038925Y003412D01*
X038878Y003387D01*
X038830Y003364D01*
X038780Y003345D01*
X038729Y003329D01*
X038678Y003317D01*
X038625Y003308D01*
X038572Y003302D01*
X038519Y003300D01*
X038519Y003309D01*
X038572Y003311D01*
X038624Y003317D01*
X038676Y003326D01*
X038727Y003338D01*
X038777Y003354D01*
X038827Y003373D01*
X038874Y003395D01*
X038921Y003420D01*
X038965Y003448D01*
X039007Y003479D01*
X039048Y003513D01*
X039086Y003550D01*
X039121Y003588D01*
X039115Y003594D01*
X039079Y003556D01*
X039042Y003520D01*
X039002Y003486D01*
X038960Y003456D01*
X038916Y003428D01*
X038870Y003403D01*
X038823Y003381D01*
X038774Y003362D01*
X038725Y003347D01*
X038674Y003334D01*
X038623Y003326D01*
X038571Y003320D01*
X038519Y003318D01*
X038519Y003327D01*
X038575Y003329D01*
X038630Y003336D01*
X038685Y003346D01*
X038739Y003360D01*
X038792Y003378D01*
X038843Y003400D01*
X038893Y003425D01*
X038941Y003454D01*
X038986Y003486D01*
X039029Y003521D01*
X039070Y003559D01*
X039108Y003600D01*
X039101Y003606D01*
X039064Y003565D01*
X039023Y003528D01*
X038981Y003493D01*
X038936Y003461D01*
X038888Y003433D01*
X038839Y003408D01*
X038788Y003386D01*
X038736Y003369D01*
X038683Y003355D01*
X038629Y003345D01*
X038574Y003338D01*
X038519Y003336D01*
X038519Y003345D01*
X038573Y003347D01*
X038628Y003353D01*
X038681Y003363D01*
X038734Y003377D01*
X038785Y003395D01*
X038835Y003416D01*
X038884Y003441D01*
X038931Y003469D01*
X038975Y003500D01*
X039017Y003534D01*
X039057Y003572D01*
X039094Y003612D01*
X038509Y004953D02*
X038509Y004863D01*
X038509Y004864D02*
X038455Y004862D01*
X038402Y004856D01*
X038349Y004846D01*
X038297Y004832D01*
X038246Y004815D01*
X038197Y004794D01*
X038149Y004770D01*
X038103Y004742D01*
X038059Y004711D01*
X038017Y004677D01*
X037978Y004641D01*
X037941Y004601D01*
X037908Y004559D01*
X037877Y004515D01*
X037850Y004469D01*
X037771Y004511D01*
X037799Y004560D01*
X037831Y004606D01*
X037866Y004651D01*
X037903Y004693D01*
X037944Y004732D01*
X037987Y004769D01*
X038032Y004803D01*
X038079Y004834D01*
X038129Y004861D01*
X038180Y004885D01*
X038232Y004906D01*
X038286Y004923D01*
X038341Y004936D01*
X038396Y004946D01*
X038453Y004952D01*
X038509Y004954D01*
X038509Y004945D01*
X038453Y004943D01*
X038398Y004937D01*
X038343Y004927D01*
X038288Y004914D01*
X038235Y004897D01*
X038183Y004877D01*
X038133Y004853D01*
X038084Y004826D01*
X038037Y004796D01*
X037992Y004762D01*
X037950Y004726D01*
X037910Y004687D01*
X037873Y004645D01*
X037838Y004601D01*
X037807Y004555D01*
X037779Y004507D01*
X037787Y004503D01*
X037815Y004550D01*
X037846Y004596D01*
X037880Y004639D01*
X037916Y004681D01*
X037956Y004719D01*
X037998Y004755D01*
X038042Y004788D01*
X038088Y004818D01*
X038137Y004845D01*
X038187Y004868D01*
X038238Y004889D01*
X038291Y004905D01*
X038344Y004918D01*
X038399Y004928D01*
X038454Y004934D01*
X038509Y004936D01*
X038509Y004927D01*
X038454Y004925D01*
X038400Y004919D01*
X038346Y004910D01*
X038293Y004897D01*
X038241Y004880D01*
X038190Y004860D01*
X038141Y004837D01*
X038093Y004810D01*
X038047Y004781D01*
X038003Y004748D01*
X037962Y004713D01*
X037923Y004674D01*
X037886Y004634D01*
X037853Y004591D01*
X037822Y004545D01*
X037795Y004498D01*
X037803Y004494D01*
X037830Y004541D01*
X037860Y004585D01*
X037893Y004628D01*
X037929Y004668D01*
X037968Y004706D01*
X038009Y004741D01*
X038052Y004773D01*
X038098Y004803D01*
X038145Y004829D01*
X038194Y004852D01*
X038244Y004872D01*
X038296Y004888D01*
X038348Y004901D01*
X038401Y004910D01*
X038455Y004916D01*
X038509Y004918D01*
X038509Y004909D01*
X038456Y004907D01*
X038402Y004901D01*
X038350Y004892D01*
X038298Y004879D01*
X038247Y004863D01*
X038197Y004844D01*
X038149Y004821D01*
X038102Y004795D01*
X038058Y004766D01*
X038015Y004734D01*
X037974Y004699D01*
X037936Y004662D01*
X037900Y004622D01*
X037867Y004580D01*
X037837Y004536D01*
X037810Y004490D01*
X037818Y004486D01*
X037845Y004531D01*
X037875Y004575D01*
X037907Y004616D01*
X037942Y004656D01*
X037980Y004693D01*
X038020Y004727D01*
X038063Y004759D01*
X038107Y004787D01*
X038153Y004813D01*
X038201Y004835D01*
X038250Y004855D01*
X038300Y004871D01*
X038352Y004883D01*
X038404Y004892D01*
X038456Y004898D01*
X038509Y004900D01*
X038509Y004891D01*
X038453Y004889D01*
X038398Y004882D01*
X038343Y004872D01*
X038289Y004858D01*
X038237Y004840D01*
X038185Y004819D01*
X038136Y004793D01*
X038088Y004765D01*
X038042Y004733D01*
X037999Y004698D01*
X037959Y004660D01*
X037921Y004619D01*
X037886Y004575D01*
X037855Y004529D01*
X037826Y004481D01*
X037834Y004477D01*
X037862Y004525D01*
X037893Y004570D01*
X037928Y004613D01*
X037965Y004653D01*
X038005Y004691D01*
X038048Y004726D01*
X038093Y004757D01*
X038140Y004786D01*
X038189Y004810D01*
X038240Y004832D01*
X038292Y004849D01*
X038345Y004863D01*
X038399Y004873D01*
X038454Y004880D01*
X038509Y004882D01*
X038509Y004873D01*
X038455Y004871D01*
X038401Y004865D01*
X038347Y004855D01*
X038295Y004841D01*
X038243Y004823D01*
X038193Y004802D01*
X038144Y004778D01*
X038098Y004750D01*
X038053Y004718D01*
X038011Y004684D01*
X037972Y004647D01*
X037935Y004607D01*
X037901Y004565D01*
X037870Y004520D01*
X037842Y004473D01*
X039159Y004653D02*
X039090Y004596D01*
X039091Y004596D02*
X039054Y004636D01*
X039015Y004674D01*
X038973Y004708D01*
X038929Y004740D01*
X038883Y004768D01*
X038834Y004793D01*
X038784Y004814D01*
X038733Y004832D01*
X038680Y004845D01*
X038627Y004855D01*
X038573Y004862D01*
X038519Y004864D01*
X038518Y004953D01*
X038519Y004954D01*
X038575Y004952D01*
X038631Y004946D01*
X038686Y004936D01*
X038741Y004923D01*
X038794Y004906D01*
X038847Y004886D01*
X038898Y004862D01*
X038947Y004835D01*
X038994Y004804D01*
X039039Y004771D01*
X039082Y004735D01*
X039122Y004696D01*
X039160Y004654D01*
X039153Y004648D01*
X039116Y004689D01*
X039076Y004728D01*
X039034Y004764D01*
X038989Y004797D01*
X038942Y004827D01*
X038894Y004854D01*
X038843Y004877D01*
X038791Y004898D01*
X038738Y004914D01*
X038684Y004927D01*
X038630Y004937D01*
X038575Y004943D01*
X038519Y004945D01*
X038519Y004936D01*
X038574Y004934D01*
X038629Y004928D01*
X038683Y004919D01*
X038736Y004906D01*
X038788Y004889D01*
X038840Y004869D01*
X038889Y004846D01*
X038938Y004819D01*
X038984Y004790D01*
X039028Y004757D01*
X039070Y004721D01*
X039109Y004683D01*
X039146Y004642D01*
X039139Y004637D01*
X039103Y004677D01*
X039064Y004715D01*
X039022Y004750D01*
X038979Y004782D01*
X038933Y004812D01*
X038885Y004838D01*
X038836Y004861D01*
X038786Y004881D01*
X038734Y004897D01*
X038681Y004910D01*
X038627Y004919D01*
X038573Y004925D01*
X038519Y004927D01*
X038519Y004918D01*
X038573Y004916D01*
X038626Y004910D01*
X038679Y004901D01*
X038731Y004888D01*
X038783Y004872D01*
X038833Y004853D01*
X038881Y004830D01*
X038928Y004804D01*
X038974Y004775D01*
X039017Y004743D01*
X039058Y004708D01*
X039096Y004671D01*
X039132Y004631D01*
X039125Y004625D01*
X039090Y004664D01*
X039052Y004701D01*
X039011Y004736D01*
X038968Y004767D01*
X038924Y004796D01*
X038877Y004822D01*
X038829Y004844D01*
X038780Y004864D01*
X038729Y004880D01*
X038677Y004892D01*
X038625Y004901D01*
X038572Y004907D01*
X038519Y004909D01*
X038519Y004900D01*
X038571Y004898D01*
X038624Y004892D01*
X038675Y004883D01*
X038726Y004871D01*
X038777Y004855D01*
X038826Y004836D01*
X038873Y004814D01*
X038919Y004788D01*
X038963Y004760D01*
X039005Y004729D01*
X039046Y004695D01*
X039083Y004658D01*
X039118Y004619D01*
X039112Y004613D01*
X039077Y004652D01*
X039039Y004688D01*
X039000Y004722D01*
X038958Y004753D01*
X038914Y004781D01*
X038869Y004806D01*
X038822Y004828D01*
X038774Y004847D01*
X038724Y004862D01*
X038674Y004875D01*
X038623Y004883D01*
X038571Y004889D01*
X038519Y004891D01*
X038519Y004882D01*
X038570Y004880D01*
X038621Y004875D01*
X038672Y004866D01*
X038722Y004854D01*
X038771Y004838D01*
X038818Y004820D01*
X038865Y004798D01*
X038910Y004773D01*
X038953Y004745D01*
X038994Y004715D01*
X039033Y004682D01*
X039070Y004646D01*
X039105Y004608D01*
X039098Y004602D01*
X039061Y004643D01*
X039021Y004681D01*
X038979Y004715D01*
X038934Y004747D01*
X038887Y004776D01*
X038838Y004801D01*
X038787Y004822D01*
X038736Y004840D01*
X038682Y004854D01*
X038628Y004864D01*
X038574Y004871D01*
X038519Y004873D01*
X038024Y003722D02*
X038064Y003753D01*
X038063Y003752D02*
X038094Y003717D01*
X038127Y003684D01*
X038162Y003654D01*
X038201Y003627D01*
X038241Y003603D01*
X038283Y003583D01*
X038326Y003566D01*
X038371Y003552D01*
X038416Y003542D01*
X038462Y003536D01*
X038509Y003534D01*
X038510Y003485D01*
X038509Y003484D01*
X038463Y003486D01*
X038416Y003492D01*
X038371Y003501D01*
X038326Y003513D01*
X038282Y003529D01*
X038239Y003548D01*
X038198Y003570D01*
X038159Y003595D01*
X038122Y003622D01*
X038087Y003653D01*
X038054Y003686D01*
X038024Y003721D01*
X038031Y003727D01*
X038061Y003692D01*
X038093Y003659D01*
X038127Y003629D01*
X038164Y003602D01*
X038203Y003577D01*
X038243Y003556D01*
X038285Y003537D01*
X038328Y003522D01*
X038373Y003509D01*
X038418Y003501D01*
X038463Y003495D01*
X038509Y003493D01*
X038509Y003502D01*
X038464Y003504D01*
X038419Y003509D01*
X038375Y003518D01*
X038331Y003530D01*
X038289Y003545D01*
X038247Y003564D01*
X038207Y003585D01*
X038169Y003609D01*
X038133Y003636D01*
X038099Y003666D01*
X038067Y003698D01*
X038038Y003732D01*
X038045Y003738D01*
X038077Y003701D01*
X038111Y003667D01*
X038148Y003636D01*
X038188Y003608D01*
X038230Y003583D01*
X038273Y003562D01*
X038318Y003544D01*
X038365Y003530D01*
X038412Y003520D01*
X038461Y003513D01*
X038509Y003511D01*
X038509Y003520D01*
X038461Y003522D01*
X038414Y003529D01*
X038367Y003539D01*
X038321Y003552D01*
X038277Y003570D01*
X038234Y003591D01*
X038193Y003615D01*
X038154Y003643D01*
X038117Y003674D01*
X038083Y003707D01*
X038052Y003743D01*
X038059Y003749D01*
X038090Y003713D01*
X038123Y003680D01*
X038159Y003650D01*
X038198Y003623D01*
X038238Y003599D01*
X038281Y003578D01*
X038324Y003561D01*
X038369Y003547D01*
X038415Y003537D01*
X038462Y003531D01*
X038509Y003529D01*
X038518Y003485D02*
X038518Y003535D01*
X038519Y003534D02*
X038566Y003536D01*
X038612Y003542D01*
X038657Y003552D01*
X038702Y003566D01*
X038745Y003583D01*
X038787Y003603D01*
X038827Y003627D01*
X038866Y003654D01*
X038901Y003684D01*
X038934Y003717D01*
X038965Y003752D01*
X039004Y003722D01*
X039004Y003721D01*
X038974Y003686D01*
X038941Y003653D01*
X038906Y003622D01*
X038869Y003595D01*
X038830Y003570D01*
X038789Y003548D01*
X038746Y003529D01*
X038702Y003513D01*
X038657Y003501D01*
X038612Y003492D01*
X038565Y003486D01*
X038519Y003484D01*
X038519Y003493D01*
X038565Y003495D01*
X038610Y003501D01*
X038655Y003509D01*
X038700Y003522D01*
X038743Y003537D01*
X038785Y003556D01*
X038825Y003577D01*
X038864Y003602D01*
X038901Y003629D01*
X038935Y003659D01*
X038967Y003692D01*
X038997Y003727D01*
X038990Y003732D01*
X038961Y003698D01*
X038929Y003666D01*
X038895Y003636D01*
X038859Y003609D01*
X038821Y003585D01*
X038781Y003564D01*
X038739Y003545D01*
X038697Y003530D01*
X038653Y003518D01*
X038609Y003509D01*
X038564Y003504D01*
X038519Y003502D01*
X038519Y003511D01*
X038567Y003513D01*
X038616Y003520D01*
X038663Y003530D01*
X038710Y003544D01*
X038755Y003562D01*
X038798Y003583D01*
X038840Y003608D01*
X038880Y003636D01*
X038917Y003667D01*
X038951Y003701D01*
X038983Y003738D01*
X038976Y003743D01*
X038945Y003707D01*
X038911Y003674D01*
X038874Y003643D01*
X038835Y003615D01*
X038794Y003591D01*
X038751Y003570D01*
X038707Y003552D01*
X038661Y003539D01*
X038614Y003529D01*
X038567Y003522D01*
X038519Y003520D01*
X038519Y003529D01*
X038566Y003531D01*
X038613Y003537D01*
X038659Y003547D01*
X038704Y003561D01*
X038747Y003578D01*
X038790Y003599D01*
X038830Y003623D01*
X038869Y003650D01*
X038905Y003680D01*
X038938Y003713D01*
X038969Y003749D01*
X038510Y004733D02*
X038510Y004683D01*
X038509Y004684D02*
X038465Y004682D01*
X038422Y004677D01*
X038379Y004668D01*
X038337Y004656D01*
X038297Y004641D01*
X038257Y004623D01*
X038219Y004602D01*
X038182Y004579D01*
X038147Y004552D01*
X038115Y004523D01*
X038085Y004492D01*
X038057Y004458D01*
X038018Y004487D01*
X038017Y004488D01*
X038047Y004525D01*
X038080Y004559D01*
X038115Y004590D01*
X038153Y004619D01*
X038193Y004645D01*
X038234Y004668D01*
X038278Y004688D01*
X038322Y004704D01*
X038368Y004717D01*
X038414Y004726D01*
X038462Y004732D01*
X038509Y004734D01*
X038509Y004725D01*
X038462Y004723D01*
X038416Y004717D01*
X038370Y004708D01*
X038325Y004695D01*
X038281Y004679D01*
X038239Y004660D01*
X038198Y004637D01*
X038158Y004612D01*
X038121Y004584D01*
X038086Y004552D01*
X038054Y004519D01*
X038024Y004483D01*
X038031Y004477D01*
X038061Y004513D01*
X038093Y004546D01*
X038127Y004577D01*
X038164Y004605D01*
X038202Y004630D01*
X038243Y004652D01*
X038284Y004671D01*
X038328Y004687D01*
X038372Y004699D01*
X038417Y004708D01*
X038463Y004714D01*
X038509Y004716D01*
X038509Y004707D01*
X038464Y004705D01*
X038419Y004699D01*
X038374Y004690D01*
X038331Y004678D01*
X038288Y004663D01*
X038247Y004644D01*
X038207Y004622D01*
X038169Y004597D01*
X038133Y004570D01*
X038099Y004539D01*
X038067Y004507D01*
X038039Y004472D01*
X038046Y004466D01*
X038074Y004501D01*
X038105Y004533D01*
X038139Y004563D01*
X038174Y004590D01*
X038211Y004614D01*
X038251Y004636D01*
X038291Y004654D01*
X038333Y004670D01*
X038376Y004682D01*
X038420Y004690D01*
X038464Y004696D01*
X038509Y004698D01*
X038509Y004689D01*
X038465Y004687D01*
X038421Y004682D01*
X038378Y004673D01*
X038336Y004661D01*
X038295Y004646D01*
X038255Y004628D01*
X038216Y004607D01*
X038179Y004583D01*
X038144Y004556D01*
X038111Y004527D01*
X038081Y004495D01*
X038053Y004461D01*
X039019Y004476D02*
X038978Y004447D01*
X038979Y004447D02*
X038951Y004482D01*
X038921Y004515D01*
X038888Y004546D01*
X038853Y004573D01*
X038816Y004598D01*
X038777Y004620D01*
X038737Y004639D01*
X038695Y004655D01*
X038652Y004667D01*
X038608Y004676D01*
X038564Y004682D01*
X038519Y004684D01*
X038518Y004733D01*
X038519Y004734D01*
X038568Y004732D01*
X038616Y004726D01*
X038664Y004716D01*
X038710Y004702D01*
X038756Y004685D01*
X038800Y004665D01*
X038842Y004641D01*
X038883Y004614D01*
X038921Y004583D01*
X038957Y004550D01*
X038990Y004515D01*
X039020Y004476D01*
X039012Y004471D01*
X038983Y004509D01*
X038950Y004544D01*
X038915Y004577D01*
X038877Y004606D01*
X038838Y004633D01*
X038796Y004657D01*
X038752Y004677D01*
X038708Y004694D01*
X038661Y004707D01*
X038614Y004717D01*
X038567Y004723D01*
X038519Y004725D01*
X038519Y004716D01*
X038566Y004714D01*
X038613Y004708D01*
X038659Y004698D01*
X038705Y004685D01*
X038749Y004669D01*
X038792Y004649D01*
X038833Y004625D01*
X038872Y004599D01*
X038909Y004570D01*
X038944Y004538D01*
X038976Y004503D01*
X039005Y004466D01*
X038998Y004461D01*
X038969Y004497D01*
X038937Y004531D01*
X038903Y004563D01*
X038867Y004592D01*
X038828Y004618D01*
X038788Y004641D01*
X038745Y004660D01*
X038702Y004677D01*
X038657Y004690D01*
X038612Y004699D01*
X038565Y004705D01*
X038519Y004707D01*
X038519Y004698D01*
X038565Y004696D01*
X038610Y004690D01*
X038655Y004681D01*
X038699Y004668D01*
X038742Y004652D01*
X038784Y004633D01*
X038823Y004610D01*
X038861Y004585D01*
X038897Y004556D01*
X038931Y004525D01*
X038962Y004491D01*
X038990Y004455D01*
X038983Y004450D01*
X038955Y004486D01*
X038925Y004519D01*
X038891Y004549D01*
X038856Y004577D01*
X038819Y004603D01*
X038779Y004625D01*
X038739Y004644D01*
X038696Y004660D01*
X038653Y004672D01*
X038609Y004681D01*
X038564Y004687D01*
X038519Y004689D01*
X037783Y005686D02*
X037861Y005731D01*
X037861Y005730D02*
X037889Y005686D01*
X037920Y005644D01*
X037953Y005604D01*
X037989Y005566D01*
X038028Y005531D01*
X038069Y005499D01*
X038113Y005469D01*
X038158Y005443D01*
X038205Y005420D01*
X038253Y005400D01*
X038303Y005384D01*
X038353Y005371D01*
X038405Y005362D01*
X038457Y005356D01*
X038509Y005354D01*
X038510Y005265D01*
X038509Y005264D01*
X038454Y005266D01*
X038400Y005272D01*
X038345Y005281D01*
X038292Y005294D01*
X038240Y005310D01*
X038188Y005329D01*
X038138Y005352D01*
X038090Y005378D01*
X038043Y005407D01*
X037999Y005439D01*
X037956Y005474D01*
X037916Y005512D01*
X037879Y005552D01*
X037844Y005594D01*
X037812Y005639D01*
X037783Y005685D01*
X037791Y005690D01*
X037819Y005644D01*
X037851Y005600D01*
X037886Y005558D01*
X037923Y005518D01*
X037962Y005481D01*
X038004Y005446D01*
X038048Y005415D01*
X038094Y005386D01*
X038142Y005360D01*
X038192Y005338D01*
X038242Y005318D01*
X038294Y005302D01*
X038347Y005290D01*
X038401Y005281D01*
X038455Y005275D01*
X038509Y005273D01*
X038509Y005282D01*
X038455Y005284D01*
X038402Y005290D01*
X038349Y005299D01*
X038297Y005311D01*
X038245Y005327D01*
X038195Y005346D01*
X038146Y005368D01*
X038099Y005394D01*
X038053Y005422D01*
X038010Y005454D01*
X037968Y005488D01*
X037929Y005524D01*
X037892Y005564D01*
X037858Y005605D01*
X037827Y005649D01*
X037798Y005694D01*
X037806Y005699D01*
X037836Y005651D01*
X037870Y005605D01*
X037906Y005562D01*
X037946Y005521D01*
X037988Y005483D01*
X038032Y005448D01*
X038079Y005416D01*
X038128Y005388D01*
X038179Y005363D01*
X038232Y005341D01*
X038285Y005324D01*
X038340Y005310D01*
X038396Y005300D01*
X038452Y005293D01*
X038509Y005291D01*
X038509Y005300D01*
X038453Y005302D01*
X038397Y005308D01*
X038342Y005318D01*
X038288Y005332D01*
X038235Y005350D01*
X038183Y005371D01*
X038132Y005396D01*
X038084Y005424D01*
X038038Y005455D01*
X037993Y005490D01*
X037952Y005527D01*
X037913Y005568D01*
X037877Y005610D01*
X037844Y005656D01*
X037814Y005703D01*
X037822Y005708D01*
X037851Y005661D01*
X037884Y005616D01*
X037920Y005574D01*
X037958Y005534D01*
X037999Y005497D01*
X038043Y005462D01*
X038089Y005431D01*
X038137Y005404D01*
X038186Y005379D01*
X038238Y005358D01*
X038290Y005341D01*
X038344Y005327D01*
X038399Y005317D01*
X038454Y005311D01*
X038509Y005309D01*
X038509Y005318D01*
X038454Y005320D01*
X038400Y005326D01*
X038346Y005336D01*
X038293Y005350D01*
X038241Y005367D01*
X038190Y005387D01*
X038141Y005412D01*
X038094Y005439D01*
X038048Y005470D01*
X038005Y005503D01*
X037964Y005540D01*
X037926Y005580D01*
X037891Y005622D01*
X037859Y005666D01*
X037830Y005712D01*
X037838Y005717D01*
X037866Y005671D01*
X037898Y005627D01*
X037933Y005586D01*
X037971Y005547D01*
X038011Y005510D01*
X038053Y005477D01*
X038098Y005447D01*
X038145Y005419D01*
X038194Y005396D01*
X038244Y005375D01*
X038295Y005358D01*
X038348Y005345D01*
X038401Y005335D01*
X038455Y005329D01*
X038509Y005327D01*
X038509Y005336D01*
X038456Y005338D01*
X038402Y005344D01*
X038350Y005354D01*
X038298Y005367D01*
X038247Y005384D01*
X038197Y005404D01*
X038149Y005427D01*
X038103Y005454D01*
X038059Y005484D01*
X038017Y005517D01*
X037977Y005553D01*
X037940Y005592D01*
X037905Y005633D01*
X037874Y005676D01*
X037845Y005721D01*
X037853Y005726D01*
X037881Y005681D01*
X037912Y005638D01*
X037946Y005598D01*
X037983Y005560D01*
X038022Y005524D01*
X038064Y005492D01*
X038108Y005462D01*
X038154Y005435D01*
X038201Y005412D01*
X038250Y005392D01*
X038300Y005375D01*
X038352Y005362D01*
X038404Y005353D01*
X038456Y005347D01*
X038509Y005345D01*
X038518Y005265D02*
X038518Y005355D01*
X038519Y005354D02*
X038573Y005356D01*
X038626Y005362D01*
X038679Y005372D01*
X038731Y005386D01*
X038782Y005403D01*
X038832Y005424D01*
X038880Y005448D01*
X038926Y005476D01*
X038970Y005507D01*
X039011Y005541D01*
X039051Y005578D01*
X039087Y005617D01*
X039155Y005560D01*
X039156Y005559D01*
X039118Y005518D01*
X039078Y005480D01*
X039035Y005444D01*
X038990Y005411D01*
X038943Y005381D01*
X038895Y005355D01*
X038844Y005331D01*
X038792Y005311D01*
X038739Y005295D01*
X038685Y005281D01*
X038630Y005272D01*
X038575Y005266D01*
X038519Y005264D01*
X038519Y005273D01*
X038574Y005275D01*
X038629Y005281D01*
X038683Y005290D01*
X038737Y005303D01*
X038789Y005320D01*
X038841Y005339D01*
X038891Y005363D01*
X038939Y005389D01*
X038985Y005419D01*
X039030Y005451D01*
X039072Y005486D01*
X039112Y005525D01*
X039149Y005565D01*
X039142Y005571D01*
X039105Y005531D01*
X039066Y005493D01*
X039024Y005458D01*
X038980Y005426D01*
X038934Y005397D01*
X038886Y005371D01*
X038837Y005348D01*
X038786Y005328D01*
X038734Y005312D01*
X038681Y005299D01*
X038628Y005290D01*
X038573Y005284D01*
X038519Y005282D01*
X038519Y005291D01*
X038573Y005293D01*
X038626Y005299D01*
X038679Y005308D01*
X038732Y005321D01*
X038783Y005337D01*
X038834Y005356D01*
X038882Y005379D01*
X038930Y005404D01*
X038975Y005433D01*
X039019Y005465D01*
X039060Y005500D01*
X039099Y005537D01*
X039135Y005577D01*
X039128Y005583D01*
X039092Y005543D01*
X039054Y005506D01*
X039013Y005472D01*
X038970Y005441D01*
X038925Y005412D01*
X038878Y005387D01*
X038830Y005364D01*
X038780Y005345D01*
X038729Y005329D01*
X038678Y005317D01*
X038625Y005308D01*
X038572Y005302D01*
X038519Y005300D01*
X038519Y005309D01*
X038572Y005311D01*
X038624Y005317D01*
X038676Y005326D01*
X038727Y005338D01*
X038777Y005354D01*
X038827Y005373D01*
X038874Y005395D01*
X038921Y005420D01*
X038965Y005448D01*
X039007Y005479D01*
X039048Y005513D01*
X039086Y005550D01*
X039121Y005588D01*
X039115Y005594D01*
X039079Y005556D01*
X039042Y005520D01*
X039002Y005486D01*
X038960Y005456D01*
X038916Y005428D01*
X038870Y005403D01*
X038823Y005381D01*
X038774Y005362D01*
X038725Y005347D01*
X038674Y005334D01*
X038623Y005326D01*
X038571Y005320D01*
X038519Y005318D01*
X038519Y005327D01*
X038575Y005329D01*
X038630Y005336D01*
X038685Y005346D01*
X038739Y005360D01*
X038792Y005378D01*
X038843Y005400D01*
X038893Y005425D01*
X038941Y005454D01*
X038986Y005486D01*
X039029Y005521D01*
X039070Y005559D01*
X039108Y005600D01*
X039101Y005606D01*
X039064Y005565D01*
X039023Y005528D01*
X038981Y005493D01*
X038936Y005461D01*
X038888Y005433D01*
X038839Y005408D01*
X038788Y005386D01*
X038736Y005369D01*
X038683Y005355D01*
X038629Y005345D01*
X038574Y005338D01*
X038519Y005336D01*
X038519Y005345D01*
X038573Y005347D01*
X038628Y005353D01*
X038681Y005363D01*
X038734Y005377D01*
X038785Y005395D01*
X038835Y005416D01*
X038884Y005441D01*
X038931Y005469D01*
X038975Y005500D01*
X039017Y005534D01*
X039057Y005572D01*
X039094Y005612D01*
X038509Y006953D02*
X038509Y006863D01*
X038509Y006864D02*
X038455Y006862D01*
X038402Y006856D01*
X038349Y006846D01*
X038297Y006832D01*
X038246Y006815D01*
X038197Y006794D01*
X038149Y006770D01*
X038103Y006742D01*
X038059Y006711D01*
X038017Y006677D01*
X037978Y006641D01*
X037941Y006601D01*
X037908Y006559D01*
X037877Y006515D01*
X037850Y006469D01*
X037771Y006511D01*
X037799Y006560D01*
X037831Y006606D01*
X037866Y006651D01*
X037903Y006693D01*
X037944Y006732D01*
X037987Y006769D01*
X038032Y006803D01*
X038079Y006834D01*
X038129Y006861D01*
X038180Y006885D01*
X038232Y006906D01*
X038286Y006923D01*
X038341Y006936D01*
X038396Y006946D01*
X038453Y006952D01*
X038509Y006954D01*
X038509Y006945D01*
X038453Y006943D01*
X038398Y006937D01*
X038343Y006927D01*
X038288Y006914D01*
X038235Y006897D01*
X038183Y006877D01*
X038133Y006853D01*
X038084Y006826D01*
X038037Y006796D01*
X037992Y006762D01*
X037950Y006726D01*
X037910Y006687D01*
X037873Y006645D01*
X037838Y006601D01*
X037807Y006555D01*
X037779Y006507D01*
X037787Y006503D01*
X037815Y006550D01*
X037846Y006596D01*
X037880Y006639D01*
X037916Y006681D01*
X037956Y006719D01*
X037998Y006755D01*
X038042Y006788D01*
X038088Y006818D01*
X038137Y006845D01*
X038187Y006868D01*
X038238Y006889D01*
X038291Y006905D01*
X038344Y006918D01*
X038399Y006928D01*
X038454Y006934D01*
X038509Y006936D01*
X038509Y006927D01*
X038454Y006925D01*
X038400Y006919D01*
X038346Y006910D01*
X038293Y006897D01*
X038241Y006880D01*
X038190Y006860D01*
X038141Y006837D01*
X038093Y006810D01*
X038047Y006781D01*
X038003Y006748D01*
X037962Y006713D01*
X037923Y006674D01*
X037886Y006634D01*
X037853Y006591D01*
X037822Y006545D01*
X037795Y006498D01*
X037803Y006494D01*
X037830Y006541D01*
X037860Y006585D01*
X037893Y006628D01*
X037929Y006668D01*
X037968Y006706D01*
X038009Y006741D01*
X038052Y006773D01*
X038098Y006803D01*
X038145Y006829D01*
X038194Y006852D01*
X038244Y006872D01*
X038296Y006888D01*
X038348Y006901D01*
X038401Y006910D01*
X038455Y006916D01*
X038509Y006918D01*
X038509Y006909D01*
X038456Y006907D01*
X038402Y006901D01*
X038350Y006892D01*
X038298Y006879D01*
X038247Y006863D01*
X038197Y006844D01*
X038149Y006821D01*
X038102Y006795D01*
X038058Y006766D01*
X038015Y006734D01*
X037974Y006699D01*
X037936Y006662D01*
X037900Y006622D01*
X037867Y006580D01*
X037837Y006536D01*
X037810Y006490D01*
X037818Y006486D01*
X037845Y006531D01*
X037875Y006575D01*
X037907Y006616D01*
X037942Y006656D01*
X037980Y006693D01*
X038020Y006727D01*
X038063Y006759D01*
X038107Y006787D01*
X038153Y006813D01*
X038201Y006835D01*
X038250Y006855D01*
X038300Y006871D01*
X038352Y006883D01*
X038404Y006892D01*
X038456Y006898D01*
X038509Y006900D01*
X038509Y006891D01*
X038453Y006889D01*
X038398Y006882D01*
X038343Y006872D01*
X038289Y006858D01*
X038237Y006840D01*
X038185Y006819D01*
X038136Y006793D01*
X038088Y006765D01*
X038042Y006733D01*
X037999Y006698D01*
X037959Y006660D01*
X037921Y006619D01*
X037886Y006575D01*
X037855Y006529D01*
X037826Y006481D01*
X037834Y006477D01*
X037862Y006525D01*
X037893Y006570D01*
X037928Y006613D01*
X037965Y006653D01*
X038005Y006691D01*
X038048Y006726D01*
X038093Y006757D01*
X038140Y006786D01*
X038189Y006810D01*
X038240Y006832D01*
X038292Y006849D01*
X038345Y006863D01*
X038399Y006873D01*
X038454Y006880D01*
X038509Y006882D01*
X038509Y006873D01*
X038455Y006871D01*
X038401Y006865D01*
X038347Y006855D01*
X038295Y006841D01*
X038243Y006823D01*
X038193Y006802D01*
X038144Y006778D01*
X038098Y006750D01*
X038053Y006718D01*
X038011Y006684D01*
X037972Y006647D01*
X037935Y006607D01*
X037901Y006565D01*
X037870Y006520D01*
X037842Y006473D01*
X039159Y006653D02*
X039090Y006596D01*
X039091Y006596D02*
X039054Y006636D01*
X039015Y006674D01*
X038973Y006708D01*
X038929Y006740D01*
X038883Y006768D01*
X038834Y006793D01*
X038784Y006814D01*
X038733Y006832D01*
X038680Y006845D01*
X038627Y006855D01*
X038573Y006862D01*
X038519Y006864D01*
X038518Y006953D01*
X038519Y006954D01*
X038575Y006952D01*
X038631Y006946D01*
X038686Y006936D01*
X038741Y006923D01*
X038794Y006906D01*
X038847Y006886D01*
X038898Y006862D01*
X038947Y006835D01*
X038994Y006804D01*
X039039Y006771D01*
X039082Y006735D01*
X039122Y006696D01*
X039160Y006654D01*
X039153Y006648D01*
X039116Y006689D01*
X039076Y006728D01*
X039034Y006764D01*
X038989Y006797D01*
X038942Y006827D01*
X038894Y006854D01*
X038843Y006877D01*
X038791Y006898D01*
X038738Y006914D01*
X038684Y006927D01*
X038630Y006937D01*
X038575Y006943D01*
X038519Y006945D01*
X038519Y006936D01*
X038574Y006934D01*
X038629Y006928D01*
X038683Y006919D01*
X038736Y006906D01*
X038788Y006889D01*
X038840Y006869D01*
X038889Y006846D01*
X038938Y006819D01*
X038984Y006790D01*
X039028Y006757D01*
X039070Y006721D01*
X039109Y006683D01*
X039146Y006642D01*
X039139Y006637D01*
X039103Y006677D01*
X039064Y006715D01*
X039022Y006750D01*
X038979Y006782D01*
X038933Y006812D01*
X038885Y006838D01*
X038836Y006861D01*
X038786Y006881D01*
X038734Y006897D01*
X038681Y006910D01*
X038627Y006919D01*
X038573Y006925D01*
X038519Y006927D01*
X038519Y006918D01*
X038573Y006916D01*
X038626Y006910D01*
X038679Y006901D01*
X038731Y006888D01*
X038783Y006872D01*
X038833Y006853D01*
X038881Y006830D01*
X038928Y006804D01*
X038974Y006775D01*
X039017Y006743D01*
X039058Y006708D01*
X039096Y006671D01*
X039132Y006631D01*
X039125Y006625D01*
X039090Y006664D01*
X039052Y006701D01*
X039011Y006736D01*
X038968Y006767D01*
X038924Y006796D01*
X038877Y006822D01*
X038829Y006844D01*
X038780Y006864D01*
X038729Y006880D01*
X038677Y006892D01*
X038625Y006901D01*
X038572Y006907D01*
X038519Y006909D01*
X038519Y006900D01*
X038571Y006898D01*
X038624Y006892D01*
X038675Y006883D01*
X038726Y006871D01*
X038777Y006855D01*
X038826Y006836D01*
X038873Y006814D01*
X038919Y006788D01*
X038963Y006760D01*
X039005Y006729D01*
X039046Y006695D01*
X039083Y006658D01*
X039118Y006619D01*
X039112Y006613D01*
X039077Y006652D01*
X039039Y006688D01*
X039000Y006722D01*
X038958Y006753D01*
X038914Y006781D01*
X038869Y006806D01*
X038822Y006828D01*
X038774Y006847D01*
X038724Y006862D01*
X038674Y006875D01*
X038623Y006883D01*
X038571Y006889D01*
X038519Y006891D01*
X038519Y006882D01*
X038570Y006880D01*
X038621Y006875D01*
X038672Y006866D01*
X038722Y006854D01*
X038771Y006838D01*
X038818Y006820D01*
X038865Y006798D01*
X038910Y006773D01*
X038953Y006745D01*
X038994Y006715D01*
X039033Y006682D01*
X039070Y006646D01*
X039105Y006608D01*
X039098Y006602D01*
X039061Y006643D01*
X039021Y006681D01*
X038979Y006715D01*
X038934Y006747D01*
X038887Y006776D01*
X038838Y006801D01*
X038787Y006822D01*
X038736Y006840D01*
X038682Y006854D01*
X038628Y006864D01*
X038574Y006871D01*
X038519Y006873D01*
X038024Y005722D02*
X038064Y005753D01*
X038063Y005752D02*
X038094Y005717D01*
X038127Y005684D01*
X038162Y005654D01*
X038201Y005627D01*
X038241Y005603D01*
X038283Y005583D01*
X038326Y005566D01*
X038371Y005552D01*
X038416Y005542D01*
X038462Y005536D01*
X038509Y005534D01*
X038510Y005485D01*
X038509Y005484D01*
X038463Y005486D01*
X038416Y005492D01*
X038371Y005501D01*
X038326Y005513D01*
X038282Y005529D01*
X038239Y005548D01*
X038198Y005570D01*
X038159Y005595D01*
X038122Y005622D01*
X038087Y005653D01*
X038054Y005686D01*
X038024Y005721D01*
X038031Y005727D01*
X038061Y005692D01*
X038093Y005659D01*
X038127Y005629D01*
X038164Y005602D01*
X038203Y005577D01*
X038243Y005556D01*
X038285Y005537D01*
X038328Y005522D01*
X038373Y005509D01*
X038418Y005501D01*
X038463Y005495D01*
X038509Y005493D01*
X038509Y005502D01*
X038464Y005504D01*
X038419Y005509D01*
X038375Y005518D01*
X038331Y005530D01*
X038289Y005545D01*
X038247Y005564D01*
X038207Y005585D01*
X038169Y005609D01*
X038133Y005636D01*
X038099Y005666D01*
X038067Y005698D01*
X038038Y005732D01*
X038045Y005738D01*
X038077Y005701D01*
X038111Y005667D01*
X038148Y005636D01*
X038188Y005608D01*
X038230Y005583D01*
X038273Y005562D01*
X038318Y005544D01*
X038365Y005530D01*
X038412Y005520D01*
X038461Y005513D01*
X038509Y005511D01*
X038509Y005520D01*
X038461Y005522D01*
X038414Y005529D01*
X038367Y005539D01*
X038321Y005552D01*
X038277Y005570D01*
X038234Y005591D01*
X038193Y005615D01*
X038154Y005643D01*
X038117Y005674D01*
X038083Y005707D01*
X038052Y005743D01*
X038059Y005749D01*
X038090Y005713D01*
X038123Y005680D01*
X038159Y005650D01*
X038198Y005623D01*
X038238Y005599D01*
X038281Y005578D01*
X038324Y005561D01*
X038369Y005547D01*
X038415Y005537D01*
X038462Y005531D01*
X038509Y005529D01*
X038518Y005485D02*
X038518Y005535D01*
X038519Y005534D02*
X038566Y005536D01*
X038612Y005542D01*
X038657Y005552D01*
X038702Y005566D01*
X038745Y005583D01*
X038787Y005603D01*
X038827Y005627D01*
X038866Y005654D01*
X038901Y005684D01*
X038934Y005717D01*
X038965Y005752D01*
X039004Y005722D01*
X039004Y005721D01*
X038974Y005686D01*
X038941Y005653D01*
X038906Y005622D01*
X038869Y005595D01*
X038830Y005570D01*
X038789Y005548D01*
X038746Y005529D01*
X038702Y005513D01*
X038657Y005501D01*
X038612Y005492D01*
X038565Y005486D01*
X038519Y005484D01*
X038519Y005493D01*
X038565Y005495D01*
X038610Y005501D01*
X038655Y005509D01*
X038700Y005522D01*
X038743Y005537D01*
X038785Y005556D01*
X038825Y005577D01*
X038864Y005602D01*
X038901Y005629D01*
X038935Y005659D01*
X038967Y005692D01*
X038997Y005727D01*
X038990Y005732D01*
X038961Y005698D01*
X038929Y005666D01*
X038895Y005636D01*
X038859Y005609D01*
X038821Y005585D01*
X038781Y005564D01*
X038739Y005545D01*
X038697Y005530D01*
X038653Y005518D01*
X038609Y005509D01*
X038564Y005504D01*
X038519Y005502D01*
X038519Y005511D01*
X038567Y005513D01*
X038616Y005520D01*
X038663Y005530D01*
X038710Y005544D01*
X038755Y005562D01*
X038798Y005583D01*
X038840Y005608D01*
X038880Y005636D01*
X038917Y005667D01*
X038951Y005701D01*
X038983Y005738D01*
X038976Y005743D01*
X038945Y005707D01*
X038911Y005674D01*
X038874Y005643D01*
X038835Y005615D01*
X038794Y005591D01*
X038751Y005570D01*
X038707Y005552D01*
X038661Y005539D01*
X038614Y005529D01*
X038567Y005522D01*
X038519Y005520D01*
X038519Y005529D01*
X038566Y005531D01*
X038613Y005537D01*
X038659Y005547D01*
X038704Y005561D01*
X038747Y005578D01*
X038790Y005599D01*
X038830Y005623D01*
X038869Y005650D01*
X038905Y005680D01*
X038938Y005713D01*
X038969Y005749D01*
X038510Y006733D02*
X038510Y006683D01*
X038509Y006684D02*
X038465Y006682D01*
X038422Y006677D01*
X038379Y006668D01*
X038337Y006656D01*
X038297Y006641D01*
X038257Y006623D01*
X038219Y006602D01*
X038182Y006579D01*
X038147Y006552D01*
X038115Y006523D01*
X038085Y006492D01*
X038057Y006458D01*
X038018Y006487D01*
X038017Y006488D01*
X038047Y006525D01*
X038080Y006559D01*
X038115Y006590D01*
X038153Y006619D01*
X038193Y006645D01*
X038234Y006668D01*
X038278Y006688D01*
X038322Y006704D01*
X038368Y006717D01*
X038414Y006726D01*
X038462Y006732D01*
X038509Y006734D01*
X038509Y006725D01*
X038462Y006723D01*
X038416Y006717D01*
X038370Y006708D01*
X038325Y006695D01*
X038281Y006679D01*
X038239Y006660D01*
X038198Y006637D01*
X038158Y006612D01*
X038121Y006584D01*
X038086Y006552D01*
X038054Y006519D01*
X038024Y006483D01*
X038031Y006477D01*
X038061Y006513D01*
X038093Y006546D01*
X038127Y006577D01*
X038164Y006605D01*
X038202Y006630D01*
X038243Y006652D01*
X038284Y006671D01*
X038328Y006687D01*
X038372Y006699D01*
X038417Y006708D01*
X038463Y006714D01*
X038509Y006716D01*
X038509Y006707D01*
X038464Y006705D01*
X038419Y006699D01*
X038374Y006690D01*
X038331Y006678D01*
X038288Y006663D01*
X038247Y006644D01*
X038207Y006622D01*
X038169Y006597D01*
X038133Y006570D01*
X038099Y006539D01*
X038067Y006507D01*
X038039Y006472D01*
X038046Y006466D01*
X038074Y006501D01*
X038105Y006533D01*
X038139Y006563D01*
X038174Y006590D01*
X038211Y006614D01*
X038251Y006636D01*
X038291Y006654D01*
X038333Y006670D01*
X038376Y006682D01*
X038420Y006690D01*
X038464Y006696D01*
X038509Y006698D01*
X038509Y006689D01*
X038465Y006687D01*
X038421Y006682D01*
X038378Y006673D01*
X038336Y006661D01*
X038295Y006646D01*
X038255Y006628D01*
X038216Y006607D01*
X038179Y006583D01*
X038144Y006556D01*
X038111Y006527D01*
X038081Y006495D01*
X038053Y006461D01*
X039019Y006476D02*
X038978Y006447D01*
X038979Y006447D02*
X038951Y006482D01*
X038921Y006515D01*
X038888Y006546D01*
X038853Y006573D01*
X038816Y006598D01*
X038777Y006620D01*
X038737Y006639D01*
X038695Y006655D01*
X038652Y006667D01*
X038608Y006676D01*
X038564Y006682D01*
X038519Y006684D01*
X038518Y006733D01*
X038519Y006734D01*
X038568Y006732D01*
X038616Y006726D01*
X038664Y006716D01*
X038710Y006702D01*
X038756Y006685D01*
X038800Y006665D01*
X038842Y006641D01*
X038883Y006614D01*
X038921Y006583D01*
X038957Y006550D01*
X038990Y006515D01*
X039020Y006476D01*
X039012Y006471D01*
X038983Y006509D01*
X038950Y006544D01*
X038915Y006577D01*
X038877Y006606D01*
X038838Y006633D01*
X038796Y006657D01*
X038752Y006677D01*
X038708Y006694D01*
X038661Y006707D01*
X038614Y006717D01*
X038567Y006723D01*
X038519Y006725D01*
X038519Y006716D01*
X038566Y006714D01*
X038613Y006708D01*
X038659Y006698D01*
X038705Y006685D01*
X038749Y006669D01*
X038792Y006649D01*
X038833Y006625D01*
X038872Y006599D01*
X038909Y006570D01*
X038944Y006538D01*
X038976Y006503D01*
X039005Y006466D01*
X038998Y006461D01*
X038969Y006497D01*
X038937Y006531D01*
X038903Y006563D01*
X038867Y006592D01*
X038828Y006618D01*
X038788Y006641D01*
X038745Y006660D01*
X038702Y006677D01*
X038657Y006690D01*
X038612Y006699D01*
X038565Y006705D01*
X038519Y006707D01*
X038519Y006698D01*
X038565Y006696D01*
X038610Y006690D01*
X038655Y006681D01*
X038699Y006668D01*
X038742Y006652D01*
X038784Y006633D01*
X038823Y006610D01*
X038861Y006585D01*
X038897Y006556D01*
X038931Y006525D01*
X038962Y006491D01*
X038990Y006455D01*
X038983Y006450D01*
X038955Y006486D01*
X038925Y006519D01*
X038891Y006549D01*
X038856Y006577D01*
X038819Y006603D01*
X038779Y006625D01*
X038739Y006644D01*
X038696Y006660D01*
X038653Y006672D01*
X038609Y006681D01*
X038564Y006687D01*
X038519Y006689D01*
X037783Y001686D02*
X037861Y001731D01*
X037861Y001730D02*
X037889Y001686D01*
X037920Y001644D01*
X037953Y001604D01*
X037989Y001566D01*
X038028Y001531D01*
X038069Y001499D01*
X038113Y001469D01*
X038158Y001443D01*
X038205Y001420D01*
X038253Y001400D01*
X038303Y001384D01*
X038353Y001371D01*
X038405Y001362D01*
X038457Y001356D01*
X038509Y001354D01*
X038510Y001265D01*
X038509Y001264D01*
X038454Y001266D01*
X038400Y001272D01*
X038345Y001281D01*
X038292Y001294D01*
X038240Y001310D01*
X038188Y001329D01*
X038138Y001352D01*
X038090Y001378D01*
X038043Y001407D01*
X037999Y001439D01*
X037956Y001474D01*
X037916Y001512D01*
X037879Y001552D01*
X037844Y001594D01*
X037812Y001639D01*
X037783Y001685D01*
X037791Y001690D01*
X037819Y001644D01*
X037851Y001600D01*
X037886Y001558D01*
X037923Y001518D01*
X037962Y001481D01*
X038004Y001446D01*
X038048Y001415D01*
X038094Y001386D01*
X038142Y001360D01*
X038192Y001338D01*
X038242Y001318D01*
X038294Y001302D01*
X038347Y001290D01*
X038401Y001281D01*
X038455Y001275D01*
X038509Y001273D01*
X038509Y001282D01*
X038455Y001284D01*
X038402Y001290D01*
X038349Y001299D01*
X038297Y001311D01*
X038245Y001327D01*
X038195Y001346D01*
X038146Y001368D01*
X038099Y001394D01*
X038053Y001422D01*
X038010Y001454D01*
X037968Y001488D01*
X037929Y001524D01*
X037892Y001564D01*
X037858Y001605D01*
X037827Y001649D01*
X037798Y001694D01*
X037806Y001699D01*
X037836Y001651D01*
X037870Y001605D01*
X037906Y001562D01*
X037946Y001521D01*
X037988Y001483D01*
X038032Y001448D01*
X038079Y001416D01*
X038128Y001388D01*
X038179Y001363D01*
X038232Y001341D01*
X038285Y001324D01*
X038340Y001310D01*
X038396Y001300D01*
X038452Y001293D01*
X038509Y001291D01*
X038509Y001300D01*
X038453Y001302D01*
X038397Y001308D01*
X038342Y001318D01*
X038288Y001332D01*
X038235Y001350D01*
X038183Y001371D01*
X038132Y001396D01*
X038084Y001424D01*
X038038Y001455D01*
X037993Y001490D01*
X037952Y001527D01*
X037913Y001568D01*
X037877Y001610D01*
X037844Y001656D01*
X037814Y001703D01*
X037822Y001708D01*
X037851Y001661D01*
X037884Y001616D01*
X037920Y001574D01*
X037958Y001534D01*
X037999Y001497D01*
X038043Y001462D01*
X038089Y001431D01*
X038137Y001404D01*
X038186Y001379D01*
X038238Y001358D01*
X038290Y001341D01*
X038344Y001327D01*
X038399Y001317D01*
X038454Y001311D01*
X038509Y001309D01*
X038509Y001318D01*
X038454Y001320D01*
X038400Y001326D01*
X038346Y001336D01*
X038293Y001350D01*
X038241Y001367D01*
X038190Y001387D01*
X038141Y001412D01*
X038094Y001439D01*
X038048Y001470D01*
X038005Y001503D01*
X037964Y001540D01*
X037926Y001580D01*
X037891Y001622D01*
X037859Y001666D01*
X037830Y001712D01*
X037838Y001717D01*
X037866Y001671D01*
X037898Y001627D01*
X037933Y001586D01*
X037971Y001547D01*
X038011Y001510D01*
X038053Y001477D01*
X038098Y001447D01*
X038145Y001419D01*
X038194Y001396D01*
X038244Y001375D01*
X038295Y001358D01*
X038348Y001345D01*
X038401Y001335D01*
X038455Y001329D01*
X038509Y001327D01*
X038509Y001336D01*
X038456Y001338D01*
X038402Y001344D01*
X038350Y001354D01*
X038298Y001367D01*
X038247Y001384D01*
X038197Y001404D01*
X038149Y001427D01*
X038103Y001454D01*
X038059Y001484D01*
X038017Y001517D01*
X037977Y001553D01*
X037940Y001592D01*
X037905Y001633D01*
X037874Y001676D01*
X037845Y001721D01*
X037853Y001726D01*
X037881Y001681D01*
X037912Y001638D01*
X037946Y001598D01*
X037983Y001560D01*
X038022Y001524D01*
X038064Y001492D01*
X038108Y001462D01*
X038154Y001435D01*
X038201Y001412D01*
X038250Y001392D01*
X038300Y001375D01*
X038352Y001362D01*
X038404Y001353D01*
X038456Y001347D01*
X038509Y001345D01*
X038518Y001265D02*
X038518Y001355D01*
X038519Y001354D02*
X038573Y001356D01*
X038626Y001362D01*
X038679Y001372D01*
X038731Y001386D01*
X038782Y001403D01*
X038832Y001424D01*
X038880Y001448D01*
X038926Y001476D01*
X038970Y001507D01*
X039011Y001541D01*
X039051Y001578D01*
X039087Y001617D01*
X039155Y001560D01*
X039156Y001559D01*
X039118Y001518D01*
X039078Y001480D01*
X039035Y001444D01*
X038990Y001411D01*
X038943Y001381D01*
X038895Y001355D01*
X038844Y001331D01*
X038792Y001311D01*
X038739Y001295D01*
X038685Y001281D01*
X038630Y001272D01*
X038575Y001266D01*
X038519Y001264D01*
X038519Y001273D01*
X038574Y001275D01*
X038629Y001281D01*
X038683Y001290D01*
X038737Y001303D01*
X038789Y001320D01*
X038841Y001339D01*
X038891Y001363D01*
X038939Y001389D01*
X038985Y001419D01*
X039030Y001451D01*
X039072Y001486D01*
X039112Y001525D01*
X039149Y001565D01*
X039142Y001571D01*
X039105Y001531D01*
X039066Y001493D01*
X039024Y001458D01*
X038980Y001426D01*
X038934Y001397D01*
X038886Y001371D01*
X038837Y001348D01*
X038786Y001328D01*
X038734Y001312D01*
X038681Y001299D01*
X038628Y001290D01*
X038573Y001284D01*
X038519Y001282D01*
X038519Y001291D01*
X038573Y001293D01*
X038626Y001299D01*
X038679Y001308D01*
X038732Y001321D01*
X038783Y001337D01*
X038834Y001356D01*
X038882Y001379D01*
X038930Y001404D01*
X038975Y001433D01*
X039019Y001465D01*
X039060Y001500D01*
X039099Y001537D01*
X039135Y001577D01*
X039128Y001583D01*
X039092Y001543D01*
X039054Y001506D01*
X039013Y001472D01*
X038970Y001441D01*
X038925Y001412D01*
X038878Y001387D01*
X038830Y001364D01*
X038780Y001345D01*
X038729Y001329D01*
X038678Y001317D01*
X038625Y001308D01*
X038572Y001302D01*
X038519Y001300D01*
X038519Y001309D01*
X038572Y001311D01*
X038624Y001317D01*
X038676Y001326D01*
X038727Y001338D01*
X038777Y001354D01*
X038827Y001373D01*
X038874Y001395D01*
X038921Y001420D01*
X038965Y001448D01*
X039007Y001479D01*
X039048Y001513D01*
X039086Y001550D01*
X039121Y001588D01*
X039115Y001594D01*
X039079Y001556D01*
X039042Y001520D01*
X039002Y001486D01*
X038960Y001456D01*
X038916Y001428D01*
X038870Y001403D01*
X038823Y001381D01*
X038774Y001362D01*
X038725Y001347D01*
X038674Y001334D01*
X038623Y001326D01*
X038571Y001320D01*
X038519Y001318D01*
X038519Y001327D01*
X038575Y001329D01*
X038630Y001336D01*
X038685Y001346D01*
X038739Y001360D01*
X038792Y001378D01*
X038843Y001400D01*
X038893Y001425D01*
X038941Y001454D01*
X038986Y001486D01*
X039029Y001521D01*
X039070Y001559D01*
X039108Y001600D01*
X039101Y001606D01*
X039064Y001565D01*
X039023Y001528D01*
X038981Y001493D01*
X038936Y001461D01*
X038888Y001433D01*
X038839Y001408D01*
X038788Y001386D01*
X038736Y001369D01*
X038683Y001355D01*
X038629Y001345D01*
X038574Y001338D01*
X038519Y001336D01*
X038519Y001345D01*
X038573Y001347D01*
X038628Y001353D01*
X038681Y001363D01*
X038734Y001377D01*
X038785Y001395D01*
X038835Y001416D01*
X038884Y001441D01*
X038931Y001469D01*
X038975Y001500D01*
X039017Y001534D01*
X039057Y001572D01*
X039094Y001612D01*
X038509Y002953D02*
X038509Y002863D01*
X038509Y002864D02*
X038455Y002862D01*
X038402Y002856D01*
X038349Y002846D01*
X038297Y002832D01*
X038246Y002815D01*
X038197Y002794D01*
X038149Y002770D01*
X038103Y002742D01*
X038059Y002711D01*
X038017Y002677D01*
X037978Y002641D01*
X037941Y002601D01*
X037908Y002559D01*
X037877Y002515D01*
X037850Y002469D01*
X037771Y002511D01*
X037799Y002560D01*
X037831Y002606D01*
X037866Y002651D01*
X037903Y002693D01*
X037944Y002732D01*
X037987Y002769D01*
X038032Y002803D01*
X038079Y002834D01*
X038129Y002861D01*
X038180Y002885D01*
X038232Y002906D01*
X038286Y002923D01*
X038341Y002936D01*
X038396Y002946D01*
X038453Y002952D01*
X038509Y002954D01*
X038509Y002945D01*
X038453Y002943D01*
X038398Y002937D01*
X038343Y002927D01*
X038288Y002914D01*
X038235Y002897D01*
X038183Y002877D01*
X038133Y002853D01*
X038084Y002826D01*
X038037Y002796D01*
X037992Y002762D01*
X037950Y002726D01*
X037910Y002687D01*
X037873Y002645D01*
X037838Y002601D01*
X037807Y002555D01*
X037779Y002507D01*
X037787Y002503D01*
X037815Y002550D01*
X037846Y002596D01*
X037880Y002639D01*
X037916Y002681D01*
X037956Y002719D01*
X037998Y002755D01*
X038042Y002788D01*
X038088Y002818D01*
X038137Y002845D01*
X038187Y002868D01*
X038238Y002889D01*
X038291Y002905D01*
X038344Y002918D01*
X038399Y002928D01*
X038454Y002934D01*
X038509Y002936D01*
X038509Y002927D01*
X038454Y002925D01*
X038400Y002919D01*
X038346Y002910D01*
X038293Y002897D01*
X038241Y002880D01*
X038190Y002860D01*
X038141Y002837D01*
X038093Y002810D01*
X038047Y002781D01*
X038003Y002748D01*
X037962Y002713D01*
X037923Y002674D01*
X037886Y002634D01*
X037853Y002591D01*
X037822Y002545D01*
X037795Y002498D01*
X037803Y002494D01*
X037830Y002541D01*
X037860Y002585D01*
X037893Y002628D01*
X037929Y002668D01*
X037968Y002706D01*
X038009Y002741D01*
X038052Y002773D01*
X038098Y002803D01*
X038145Y002829D01*
X038194Y002852D01*
X038244Y002872D01*
X038296Y002888D01*
X038348Y002901D01*
X038401Y002910D01*
X038455Y002916D01*
X038509Y002918D01*
X038509Y002909D01*
X038456Y002907D01*
X038402Y002901D01*
X038350Y002892D01*
X038298Y002879D01*
X038247Y002863D01*
X038197Y002844D01*
X038149Y002821D01*
X038102Y002795D01*
X038058Y002766D01*
X038015Y002734D01*
X037974Y002699D01*
X037936Y002662D01*
X037900Y002622D01*
X037867Y002580D01*
X037837Y002536D01*
X037810Y002490D01*
X037818Y002486D01*
X037845Y002531D01*
X037875Y002575D01*
X037907Y002616D01*
X037942Y002656D01*
X037980Y002693D01*
X038020Y002727D01*
X038063Y002759D01*
X038107Y002787D01*
X038153Y002813D01*
X038201Y002835D01*
X038250Y002855D01*
X038300Y002871D01*
X038352Y002883D01*
X038404Y002892D01*
X038456Y002898D01*
X038509Y002900D01*
X038509Y002891D01*
X038453Y002889D01*
X038398Y002882D01*
X038343Y002872D01*
X038289Y002858D01*
X038237Y002840D01*
X038185Y002819D01*
X038136Y002793D01*
X038088Y002765D01*
X038042Y002733D01*
X037999Y002698D01*
X037959Y002660D01*
X037921Y002619D01*
X037886Y002575D01*
X037855Y002529D01*
X037826Y002481D01*
X037834Y002477D01*
X037862Y002525D01*
X037893Y002570D01*
X037928Y002613D01*
X037965Y002653D01*
X038005Y002691D01*
X038048Y002726D01*
X038093Y002757D01*
X038140Y002786D01*
X038189Y002810D01*
X038240Y002832D01*
X038292Y002849D01*
X038345Y002863D01*
X038399Y002873D01*
X038454Y002880D01*
X038509Y002882D01*
X038509Y002873D01*
X038455Y002871D01*
X038401Y002865D01*
X038347Y002855D01*
X038295Y002841D01*
X038243Y002823D01*
X038193Y002802D01*
X038144Y002778D01*
X038098Y002750D01*
X038053Y002718D01*
X038011Y002684D01*
X037972Y002647D01*
X037935Y002607D01*
X037901Y002565D01*
X037870Y002520D01*
X037842Y002473D01*
X039159Y002653D02*
X039090Y002596D01*
X039091Y002596D02*
X039054Y002636D01*
X039015Y002674D01*
X038973Y002708D01*
X038929Y002740D01*
X038883Y002768D01*
X038834Y002793D01*
X038784Y002814D01*
X038733Y002832D01*
X038680Y002845D01*
X038627Y002855D01*
X038573Y002862D01*
X038519Y002864D01*
X038518Y002953D01*
X038519Y002954D01*
X038575Y002952D01*
X038631Y002946D01*
X038686Y002936D01*
X038741Y002923D01*
X038794Y002906D01*
X038847Y002886D01*
X038898Y002862D01*
X038947Y002835D01*
X038994Y002804D01*
X039039Y002771D01*
X039082Y002735D01*
X039122Y002696D01*
X039160Y002654D01*
X039153Y002648D01*
X039116Y002689D01*
X039076Y002728D01*
X039034Y002764D01*
X038989Y002797D01*
X038942Y002827D01*
X038894Y002854D01*
X038843Y002877D01*
X038791Y002898D01*
X038738Y002914D01*
X038684Y002927D01*
X038630Y002937D01*
X038575Y002943D01*
X038519Y002945D01*
X038519Y002936D01*
X038574Y002934D01*
X038629Y002928D01*
X038683Y002919D01*
X038736Y002906D01*
X038788Y002889D01*
X038840Y002869D01*
X038889Y002846D01*
X038938Y002819D01*
X038984Y002790D01*
X039028Y002757D01*
X039070Y002721D01*
X039109Y002683D01*
X039146Y002642D01*
X039139Y002637D01*
X039103Y002677D01*
X039064Y002715D01*
X039022Y002750D01*
X038979Y002782D01*
X038933Y002812D01*
X038885Y002838D01*
X038836Y002861D01*
X038786Y002881D01*
X038734Y002897D01*
X038681Y002910D01*
X038627Y002919D01*
X038573Y002925D01*
X038519Y002927D01*
X038519Y002918D01*
X038573Y002916D01*
X038626Y002910D01*
X038679Y002901D01*
X038731Y002888D01*
X038783Y002872D01*
X038833Y002853D01*
X038881Y002830D01*
X038928Y002804D01*
X038974Y002775D01*
X039017Y002743D01*
X039058Y002708D01*
X039096Y002671D01*
X039132Y002631D01*
X039125Y002625D01*
X039090Y002664D01*
X039052Y002701D01*
X039011Y002736D01*
X038968Y002767D01*
X038924Y002796D01*
X038877Y002822D01*
X038829Y002844D01*
X038780Y002864D01*
X038729Y002880D01*
X038677Y002892D01*
X038625Y002901D01*
X038572Y002907D01*
X038519Y002909D01*
X038519Y002900D01*
X038571Y002898D01*
X038624Y002892D01*
X038675Y002883D01*
X038726Y002871D01*
X038777Y002855D01*
X038826Y002836D01*
X038873Y002814D01*
X038919Y002788D01*
X038963Y002760D01*
X039005Y002729D01*
X039046Y002695D01*
X039083Y002658D01*
X039118Y002619D01*
X039112Y002613D01*
X039077Y002652D01*
X039039Y002688D01*
X039000Y002722D01*
X038958Y002753D01*
X038914Y002781D01*
X038869Y002806D01*
X038822Y002828D01*
X038774Y002847D01*
X038724Y002862D01*
X038674Y002875D01*
X038623Y002883D01*
X038571Y002889D01*
X038519Y002891D01*
X038519Y002882D01*
X038570Y002880D01*
X038621Y002875D01*
X038672Y002866D01*
X038722Y002854D01*
X038771Y002838D01*
X038818Y002820D01*
X038865Y002798D01*
X038910Y002773D01*
X038953Y002745D01*
X038994Y002715D01*
X039033Y002682D01*
X039070Y002646D01*
X039105Y002608D01*
X039098Y002602D01*
X039061Y002643D01*
X039021Y002681D01*
X038979Y002715D01*
X038934Y002747D01*
X038887Y002776D01*
X038838Y002801D01*
X038787Y002822D01*
X038736Y002840D01*
X038682Y002854D01*
X038628Y002864D01*
X038574Y002871D01*
X038519Y002873D01*
X038024Y001722D02*
X038064Y001753D01*
X038063Y001752D02*
X038094Y001717D01*
X038127Y001684D01*
X038162Y001654D01*
X038201Y001627D01*
X038241Y001603D01*
X038283Y001583D01*
X038326Y001566D01*
X038371Y001552D01*
X038416Y001542D01*
X038462Y001536D01*
X038509Y001534D01*
X038510Y001485D01*
X038509Y001484D01*
X038463Y001486D01*
X038416Y001492D01*
X038371Y001501D01*
X038326Y001513D01*
X038282Y001529D01*
X038239Y001548D01*
X038198Y001570D01*
X038159Y001595D01*
X038122Y001622D01*
X038087Y001653D01*
X038054Y001686D01*
X038024Y001721D01*
X038031Y001727D01*
X038061Y001692D01*
X038093Y001659D01*
X038127Y001629D01*
X038164Y001602D01*
X038203Y001577D01*
X038243Y001556D01*
X038285Y001537D01*
X038328Y001522D01*
X038373Y001509D01*
X038418Y001501D01*
X038463Y001495D01*
X038509Y001493D01*
X038509Y001502D01*
X038464Y001504D01*
X038419Y001509D01*
X038375Y001518D01*
X038331Y001530D01*
X038289Y001545D01*
X038247Y001564D01*
X038207Y001585D01*
X038169Y001609D01*
X038133Y001636D01*
X038099Y001666D01*
X038067Y001698D01*
X038038Y001732D01*
X038045Y001738D01*
X038077Y001701D01*
X038111Y001667D01*
X038148Y001636D01*
X038188Y001608D01*
X038230Y001583D01*
X038273Y001562D01*
X038318Y001544D01*
X038365Y001530D01*
X038412Y001520D01*
X038461Y001513D01*
X038509Y001511D01*
X038509Y001520D01*
X038461Y001522D01*
X038414Y001529D01*
X038367Y001539D01*
X038321Y001552D01*
X038277Y001570D01*
X038234Y001591D01*
X038193Y001615D01*
X038154Y001643D01*
X038117Y001674D01*
X038083Y001707D01*
X038052Y001743D01*
X038059Y001749D01*
X038090Y001713D01*
X038123Y001680D01*
X038159Y001650D01*
X038198Y001623D01*
X038238Y001599D01*
X038281Y001578D01*
X038324Y001561D01*
X038369Y001547D01*
X038415Y001537D01*
X038462Y001531D01*
X038509Y001529D01*
X038518Y001485D02*
X038518Y001535D01*
X038519Y001534D02*
X038566Y001536D01*
X038612Y001542D01*
X038657Y001552D01*
X038702Y001566D01*
X038745Y001583D01*
X038787Y001603D01*
X038827Y001627D01*
X038866Y001654D01*
X038901Y001684D01*
X038934Y001717D01*
X038965Y001752D01*
X039004Y001722D01*
X039004Y001721D01*
X038974Y001686D01*
X038941Y001653D01*
X038906Y001622D01*
X038869Y001595D01*
X038830Y001570D01*
X038789Y001548D01*
X038746Y001529D01*
X038702Y001513D01*
X038657Y001501D01*
X038612Y001492D01*
X038565Y001486D01*
X038519Y001484D01*
X038519Y001493D01*
X038565Y001495D01*
X038610Y001501D01*
X038655Y001509D01*
X038700Y001522D01*
X038743Y001537D01*
X038785Y001556D01*
X038825Y001577D01*
X038864Y001602D01*
X038901Y001629D01*
X038935Y001659D01*
X038967Y001692D01*
X038997Y001727D01*
X038990Y001732D01*
X038961Y001698D01*
X038929Y001666D01*
X038895Y001636D01*
X038859Y001609D01*
X038821Y001585D01*
X038781Y001564D01*
X038739Y001545D01*
X038697Y001530D01*
X038653Y001518D01*
X038609Y001509D01*
X038564Y001504D01*
X038519Y001502D01*
X038519Y001511D01*
X038567Y001513D01*
X038616Y001520D01*
X038663Y001530D01*
X038710Y001544D01*
X038755Y001562D01*
X038798Y001583D01*
X038840Y001608D01*
X038880Y001636D01*
X038917Y001667D01*
X038951Y001701D01*
X038983Y001738D01*
X038976Y001743D01*
X038945Y001707D01*
X038911Y001674D01*
X038874Y001643D01*
X038835Y001615D01*
X038794Y001591D01*
X038751Y001570D01*
X038707Y001552D01*
X038661Y001539D01*
X038614Y001529D01*
X038567Y001522D01*
X038519Y001520D01*
X038519Y001529D01*
X038566Y001531D01*
X038613Y001537D01*
X038659Y001547D01*
X038704Y001561D01*
X038747Y001578D01*
X038790Y001599D01*
X038830Y001623D01*
X038869Y001650D01*
X038905Y001680D01*
X038938Y001713D01*
X038969Y001749D01*
X038510Y002733D02*
X038510Y002683D01*
X038509Y002684D02*
X038465Y002682D01*
X038422Y002677D01*
X038379Y002668D01*
X038337Y002656D01*
X038297Y002641D01*
X038257Y002623D01*
X038219Y002602D01*
X038182Y002579D01*
X038147Y002552D01*
X038115Y002523D01*
X038085Y002492D01*
X038057Y002458D01*
X038018Y002487D01*
X038017Y002488D01*
X038047Y002525D01*
X038080Y002559D01*
X038115Y002590D01*
X038153Y002619D01*
X038193Y002645D01*
X038234Y002668D01*
X038278Y002688D01*
X038322Y002704D01*
X038368Y002717D01*
X038414Y002726D01*
X038462Y002732D01*
X038509Y002734D01*
X038509Y002725D01*
X038462Y002723D01*
X038416Y002717D01*
X038370Y002708D01*
X038325Y002695D01*
X038281Y002679D01*
X038239Y002660D01*
X038198Y002637D01*
X038158Y002612D01*
X038121Y002584D01*
X038086Y002552D01*
X038054Y002519D01*
X038024Y002483D01*
X038031Y002477D01*
X038061Y002513D01*
X038093Y002546D01*
X038127Y002577D01*
X038164Y002605D01*
X038202Y002630D01*
X038243Y002652D01*
X038284Y002671D01*
X038328Y002687D01*
X038372Y002699D01*
X038417Y002708D01*
X038463Y002714D01*
X038509Y002716D01*
X038509Y002707D01*
X038464Y002705D01*
X038419Y002699D01*
X038374Y002690D01*
X038331Y002678D01*
X038288Y002663D01*
X038247Y002644D01*
X038207Y002622D01*
X038169Y002597D01*
X038133Y002570D01*
X038099Y002539D01*
X038067Y002507D01*
X038039Y002472D01*
X038046Y002466D01*
X038074Y002501D01*
X038105Y002533D01*
X038139Y002563D01*
X038174Y002590D01*
X038211Y002614D01*
X038251Y002636D01*
X038291Y002654D01*
X038333Y002670D01*
X038376Y002682D01*
X038420Y002690D01*
X038464Y002696D01*
X038509Y002698D01*
X038509Y002689D01*
X038465Y002687D01*
X038421Y002682D01*
X038378Y002673D01*
X038336Y002661D01*
X038295Y002646D01*
X038255Y002628D01*
X038216Y002607D01*
X038179Y002583D01*
X038144Y002556D01*
X038111Y002527D01*
X038081Y002495D01*
X038053Y002461D01*
X039019Y002476D02*
X038978Y002447D01*
X038979Y002447D02*
X038951Y002482D01*
X038921Y002515D01*
X038888Y002546D01*
X038853Y002573D01*
X038816Y002598D01*
X038777Y002620D01*
X038737Y002639D01*
X038695Y002655D01*
X038652Y002667D01*
X038608Y002676D01*
X038564Y002682D01*
X038519Y002684D01*
X038518Y002733D01*
X038519Y002734D01*
X038568Y002732D01*
X038616Y002726D01*
X038664Y002716D01*
X038710Y002702D01*
X038756Y002685D01*
X038800Y002665D01*
X038842Y002641D01*
X038883Y002614D01*
X038921Y002583D01*
X038957Y002550D01*
X038990Y002515D01*
X039020Y002476D01*
X039012Y002471D01*
X038983Y002509D01*
X038950Y002544D01*
X038915Y002577D01*
X038877Y002606D01*
X038838Y002633D01*
X038796Y002657D01*
X038752Y002677D01*
X038708Y002694D01*
X038661Y002707D01*
X038614Y002717D01*
X038567Y002723D01*
X038519Y002725D01*
X038519Y002716D01*
X038566Y002714D01*
X038613Y002708D01*
X038659Y002698D01*
X038705Y002685D01*
X038749Y002669D01*
X038792Y002649D01*
X038833Y002625D01*
X038872Y002599D01*
X038909Y002570D01*
X038944Y002538D01*
X038976Y002503D01*
X039005Y002466D01*
X038998Y002461D01*
X038969Y002497D01*
X038937Y002531D01*
X038903Y002563D01*
X038867Y002592D01*
X038828Y002618D01*
X038788Y002641D01*
X038745Y002660D01*
X038702Y002677D01*
X038657Y002690D01*
X038612Y002699D01*
X038565Y002705D01*
X038519Y002707D01*
X038519Y002698D01*
X038565Y002696D01*
X038610Y002690D01*
X038655Y002681D01*
X038699Y002668D01*
X038742Y002652D01*
X038784Y002633D01*
X038823Y002610D01*
X038861Y002585D01*
X038897Y002556D01*
X038931Y002525D01*
X038962Y002491D01*
X038990Y002455D01*
X038983Y002450D01*
X038955Y002486D01*
X038925Y002519D01*
X038891Y002549D01*
X038856Y002577D01*
X038819Y002603D01*
X038779Y002625D01*
X038739Y002644D01*
X038696Y002660D01*
X038653Y002672D01*
X038609Y002681D01*
X038564Y002687D01*
X038519Y002689D01*
D14*
X002014Y001609D02*
X001014Y001609D01*
X001014Y002109D01*
X002014Y001609D02*
X002014Y004609D01*
X001014Y004609D01*
X001014Y004109D01*
X002184Y003893D02*
X002784Y003893D01*
X002709Y003968D02*
X002634Y004043D01*
X002559Y004043D01*
X002484Y003968D01*
X002484Y003818D01*
X002409Y003743D01*
X002334Y003743D01*
X002259Y003818D01*
X002259Y003968D01*
X002334Y004043D01*
X002334Y004203D02*
X002259Y004278D01*
X002259Y004428D01*
X002334Y004503D01*
X002409Y004503D01*
X002484Y004428D01*
X002559Y004503D01*
X002634Y004503D01*
X002709Y004428D01*
X002709Y004278D01*
X002634Y004203D01*
X002484Y004353D02*
X002484Y004428D01*
X002709Y003968D02*
X002709Y003818D01*
X002634Y003743D01*
X002634Y003583D02*
X002259Y003583D01*
X002634Y003583D02*
X002709Y003508D01*
X002709Y003358D01*
X002634Y003283D01*
X002259Y003283D01*
X005259Y003258D02*
X005259Y003108D01*
X005334Y003033D01*
X005634Y003033D01*
X005709Y003108D01*
X005709Y003258D01*
X005634Y003333D01*
X005484Y003333D01*
X005484Y003183D01*
X005334Y003333D02*
X005259Y003258D01*
X005259Y003493D02*
X005634Y003493D01*
X005709Y003568D01*
X005709Y003718D01*
X005634Y003793D01*
X005259Y003793D01*
X005259Y003953D02*
X005709Y004253D01*
X005259Y004253D01*
X005259Y003953D02*
X005709Y003953D01*
X009389Y003669D02*
X009389Y003489D01*
X009434Y003669D02*
X009614Y003489D01*
X009659Y003489D01*
X009434Y003669D02*
X009389Y003669D01*
X010389Y003637D02*
X010389Y003547D01*
X010434Y003502D01*
X010524Y003592D02*
X010524Y003637D01*
X010569Y003683D01*
X010614Y003683D01*
X010659Y003637D01*
X010659Y003547D01*
X010614Y003502D01*
X010524Y003637D02*
X010479Y003683D01*
X010434Y003683D01*
X010389Y003637D01*
X010614Y003797D02*
X010614Y003842D01*
X010659Y003842D01*
X010659Y003797D01*
X010614Y003797D01*
X010614Y003944D02*
X010659Y003989D01*
X010659Y004079D01*
X010614Y004124D01*
X010569Y004124D01*
X010524Y004079D01*
X010524Y003944D01*
X010614Y003944D01*
X010524Y003944D02*
X010434Y004034D01*
X010389Y004124D01*
X010389Y004239D02*
X010659Y004239D01*
X010569Y004239D02*
X010389Y004419D01*
X010524Y004284D02*
X010659Y004419D01*
X010684Y003269D02*
X010684Y003089D01*
X010504Y003269D01*
X010459Y003269D01*
X010414Y003224D01*
X010414Y003134D01*
X010459Y003089D01*
X010459Y002974D02*
X010549Y002974D01*
X010594Y002929D01*
X010594Y002794D01*
X010684Y002794D02*
X010414Y002794D01*
X010414Y002929D01*
X010459Y002974D01*
X010594Y002884D02*
X010684Y002974D01*
X009684Y002964D02*
X009684Y003144D01*
X009684Y003054D02*
X009414Y003054D01*
X009504Y002964D01*
X009459Y002849D02*
X009549Y002849D01*
X009594Y002804D01*
X009594Y002669D01*
X009684Y002669D02*
X009414Y002669D01*
X009414Y002804D01*
X009459Y002849D01*
X009594Y002759D02*
X009684Y002849D01*
X015344Y003134D02*
X015344Y003269D01*
X015389Y003314D01*
X015479Y003314D01*
X015524Y003269D01*
X015524Y003134D01*
X015524Y003224D02*
X015614Y003314D01*
X015614Y003428D02*
X015614Y003608D01*
X015614Y003518D02*
X015344Y003518D01*
X015434Y003428D01*
X015389Y003723D02*
X015344Y003768D01*
X015344Y003858D01*
X015389Y003903D01*
X015569Y003723D01*
X015614Y003768D01*
X015614Y003858D01*
X015569Y003903D01*
X015389Y003903D01*
X015389Y003723D02*
X015569Y003723D01*
X016844Y003733D02*
X016889Y003643D01*
X016979Y003553D01*
X016979Y003688D01*
X017024Y003733D01*
X017069Y003733D01*
X017114Y003688D01*
X017114Y003598D01*
X017069Y003553D01*
X016979Y003553D01*
X016979Y003439D02*
X016889Y003439D01*
X016844Y003394D01*
X016844Y003259D01*
X017114Y003259D01*
X017024Y003259D02*
X017024Y003394D01*
X016979Y003439D01*
X017024Y003349D02*
X017114Y003439D01*
X015614Y003134D02*
X015344Y003134D01*
X016869Y004199D02*
X017139Y004199D01*
X017139Y004109D02*
X017139Y004289D01*
X017094Y004403D02*
X016914Y004403D01*
X016869Y004448D01*
X016869Y004538D01*
X016914Y004583D01*
X017094Y004403D01*
X017139Y004448D01*
X017139Y004538D01*
X017094Y004583D01*
X016914Y004583D01*
X016869Y004698D02*
X017139Y004698D01*
X017049Y004698D02*
X016869Y004878D01*
X017004Y004743D02*
X017139Y004878D01*
X015639Y004823D02*
X015369Y004823D01*
X015414Y004708D02*
X015594Y004528D01*
X015639Y004573D01*
X015639Y004663D01*
X015594Y004708D01*
X015414Y004708D01*
X015369Y004663D01*
X015369Y004573D01*
X015414Y004528D01*
X015594Y004528D01*
X015639Y004414D02*
X015639Y004234D01*
X015639Y004324D02*
X015369Y004324D01*
X015459Y004234D01*
X016869Y004199D02*
X016959Y004109D01*
X015549Y004823D02*
X015369Y005003D01*
X015504Y004868D02*
X015639Y005003D01*
X021950Y007314D02*
X021950Y007584D01*
X022085Y007584D01*
X022130Y007539D01*
X022130Y007449D01*
X022085Y007404D01*
X021950Y007404D01*
X022040Y007404D02*
X022130Y007314D01*
X022244Y007359D02*
X022289Y007314D01*
X022379Y007314D01*
X022424Y007359D01*
X022424Y007404D01*
X022379Y007449D01*
X022334Y007449D01*
X022379Y007449D02*
X022424Y007494D01*
X022424Y007539D01*
X022379Y007584D01*
X022289Y007584D01*
X022244Y007539D01*
X023055Y007509D02*
X023100Y007464D01*
X023190Y007464D01*
X023235Y007509D01*
X023235Y007554D01*
X023190Y007599D01*
X023145Y007599D01*
X023190Y007599D02*
X023235Y007644D01*
X023235Y007689D01*
X023190Y007734D01*
X023100Y007734D01*
X023055Y007689D01*
X023350Y007689D02*
X023395Y007734D01*
X023485Y007734D01*
X023530Y007689D01*
X023530Y007644D01*
X023485Y007599D01*
X023530Y007554D01*
X023530Y007509D01*
X023485Y007464D01*
X023395Y007464D01*
X023350Y007509D01*
X023440Y007599D02*
X023485Y007599D01*
X023644Y007689D02*
X023689Y007734D01*
X023779Y007734D01*
X023824Y007689D01*
X023644Y007509D01*
X023689Y007464D01*
X023779Y007464D01*
X023824Y007509D01*
X023824Y007689D01*
X023644Y007689D02*
X023644Y007509D01*
X027200Y007529D02*
X027335Y007529D01*
X027380Y007574D01*
X027380Y007664D01*
X027335Y007709D01*
X027200Y007709D01*
X027200Y007439D01*
X027290Y007529D02*
X027380Y007439D01*
X027494Y007574D02*
X027674Y007574D01*
X027629Y007709D02*
X027494Y007574D01*
X027629Y007439D02*
X027629Y007709D01*
X028055Y007689D02*
X028100Y007734D01*
X028190Y007734D01*
X028235Y007689D01*
X028235Y007644D01*
X028190Y007599D01*
X028235Y007554D01*
X028235Y007509D01*
X028190Y007464D01*
X028100Y007464D01*
X028055Y007509D01*
X028145Y007599D02*
X028190Y007599D01*
X028350Y007689D02*
X028395Y007734D01*
X028485Y007734D01*
X028530Y007689D01*
X028530Y007644D01*
X028485Y007599D01*
X028530Y007554D01*
X028530Y007509D01*
X028485Y007464D01*
X028395Y007464D01*
X028350Y007509D01*
X028440Y007599D02*
X028485Y007599D01*
X028644Y007689D02*
X028689Y007734D01*
X028779Y007734D01*
X028824Y007689D01*
X028644Y007509D01*
X028689Y007464D01*
X028779Y007464D01*
X028824Y007509D01*
X028824Y007689D01*
X028644Y007689D02*
X028644Y007509D01*
X032200Y007529D02*
X032335Y007529D01*
X032380Y007574D01*
X032380Y007664D01*
X032335Y007709D01*
X032200Y007709D01*
X032200Y007439D01*
X032290Y007529D02*
X032380Y007439D01*
X032494Y007484D02*
X032539Y007439D01*
X032629Y007439D01*
X032674Y007484D01*
X032674Y007574D01*
X032629Y007619D01*
X032584Y007619D01*
X032494Y007574D01*
X032494Y007709D01*
X032674Y007709D01*
X033055Y007689D02*
X033100Y007734D01*
X033190Y007734D01*
X033235Y007689D01*
X033235Y007644D01*
X033190Y007599D01*
X033235Y007554D01*
X033235Y007509D01*
X033190Y007464D01*
X033100Y007464D01*
X033055Y007509D01*
X033145Y007599D02*
X033190Y007599D01*
X033350Y007689D02*
X033395Y007734D01*
X033485Y007734D01*
X033530Y007689D01*
X033530Y007644D01*
X033485Y007599D01*
X033530Y007554D01*
X033530Y007509D01*
X033485Y007464D01*
X033395Y007464D01*
X033350Y007509D01*
X033440Y007599D02*
X033485Y007599D01*
X033644Y007509D02*
X033644Y007689D01*
X033689Y007734D01*
X033779Y007734D01*
X033824Y007689D01*
X033644Y007509D01*
X033689Y007464D01*
X033779Y007464D01*
X033824Y007509D01*
X033824Y007689D01*
X037494Y006789D02*
X037784Y006789D01*
X037634Y006939D02*
X037634Y006629D01*
X039289Y006734D02*
X039289Y006284D01*
X039589Y006284D01*
X039749Y006284D02*
X040050Y006284D01*
X040210Y006284D02*
X040435Y006284D01*
X040510Y006359D01*
X040510Y006659D01*
X040435Y006734D01*
X040210Y006734D01*
X040210Y006284D01*
X039749Y006284D02*
X039749Y006734D01*
X040050Y006734D01*
X039899Y006509D02*
X039749Y006509D01*
X040670Y006509D02*
X040895Y006734D01*
X040895Y006284D01*
X040970Y006509D02*
X040670Y006509D01*
X035824Y006189D02*
X035644Y006009D01*
X035689Y005964D01*
X035779Y005964D01*
X035824Y006009D01*
X035824Y006189D01*
X035779Y006234D01*
X035689Y006234D01*
X035644Y006189D01*
X035644Y006009D01*
X035530Y006009D02*
X035485Y005964D01*
X035395Y005964D01*
X035350Y006009D01*
X035235Y006009D02*
X035190Y005964D01*
X035100Y005964D01*
X035055Y006009D01*
X035145Y006099D02*
X035190Y006099D01*
X035235Y006054D01*
X035235Y006009D01*
X035190Y006099D02*
X035235Y006144D01*
X035235Y006189D01*
X035190Y006234D01*
X035100Y006234D01*
X035055Y006189D01*
X035350Y006189D02*
X035395Y006234D01*
X035485Y006234D01*
X035530Y006189D01*
X035530Y006144D01*
X035485Y006099D01*
X035530Y006054D01*
X035530Y006009D01*
X035485Y006099D02*
X035440Y006099D01*
X034674Y006074D02*
X034539Y006074D01*
X034494Y006119D01*
X034494Y006164D01*
X034539Y006209D01*
X034629Y006209D01*
X034674Y006164D01*
X034674Y005984D01*
X034629Y005939D01*
X034539Y005939D01*
X034494Y005984D01*
X034380Y005939D02*
X034290Y006029D01*
X034335Y006029D02*
X034200Y006029D01*
X034200Y005939D02*
X034200Y006209D01*
X034335Y006209D01*
X034380Y006164D01*
X034380Y006074D01*
X034335Y006029D01*
X037634Y004939D02*
X037634Y004629D01*
X037494Y004789D02*
X037784Y004789D01*
X039289Y004734D02*
X039289Y004284D01*
X039589Y004284D01*
X039749Y004284D02*
X040050Y004284D01*
X040210Y004284D02*
X040435Y004284D01*
X040510Y004359D01*
X040510Y004659D01*
X040435Y004734D01*
X040210Y004734D01*
X040210Y004284D01*
X039749Y004284D02*
X039749Y004734D01*
X040050Y004734D01*
X039899Y004509D02*
X039749Y004509D01*
X040670Y004509D02*
X040670Y004734D01*
X040970Y004734D01*
X040895Y004584D02*
X040970Y004509D01*
X040970Y004359D01*
X040895Y004284D01*
X040745Y004284D01*
X040670Y004359D01*
X040670Y004509D02*
X040820Y004584D01*
X040895Y004584D01*
X035824Y004189D02*
X035644Y004009D01*
X035689Y003964D01*
X035779Y003964D01*
X035824Y004009D01*
X035824Y004189D01*
X035779Y004234D01*
X035689Y004234D01*
X035644Y004189D01*
X035644Y004009D01*
X035530Y004009D02*
X035485Y003964D01*
X035395Y003964D01*
X035350Y004009D01*
X035235Y004009D02*
X035190Y003964D01*
X035100Y003964D01*
X035055Y004009D01*
X035145Y004099D02*
X035190Y004099D01*
X035235Y004054D01*
X035235Y004009D01*
X035190Y004099D02*
X035235Y004144D01*
X035235Y004189D01*
X035190Y004234D01*
X035100Y004234D01*
X035055Y004189D01*
X034799Y004164D02*
X034799Y004119D01*
X034754Y004074D01*
X034664Y004074D01*
X034619Y004119D01*
X034619Y004164D01*
X034664Y004209D01*
X034754Y004209D01*
X034799Y004164D01*
X034754Y004074D02*
X034799Y004029D01*
X034799Y003984D01*
X034754Y003939D01*
X034664Y003939D01*
X034619Y003984D01*
X034619Y004029D01*
X034664Y004074D01*
X034505Y004074D02*
X034460Y004029D01*
X034325Y004029D01*
X034415Y004029D02*
X034505Y003939D01*
X034505Y004074D02*
X034505Y004164D01*
X034460Y004209D01*
X034325Y004209D01*
X034325Y003939D01*
X035350Y004189D02*
X035395Y004234D01*
X035485Y004234D01*
X035530Y004189D01*
X035530Y004144D01*
X035485Y004099D01*
X035530Y004054D01*
X035530Y004009D01*
X035485Y004099D02*
X035440Y004099D01*
X037634Y002939D02*
X037634Y002629D01*
X037494Y002789D02*
X037784Y002789D01*
X039289Y002734D02*
X039289Y002284D01*
X039589Y002284D01*
X039749Y002284D02*
X040050Y002284D01*
X040210Y002284D02*
X040435Y002284D01*
X040510Y002359D01*
X040510Y002659D01*
X040435Y002734D01*
X040210Y002734D01*
X040210Y002284D01*
X039749Y002284D02*
X039749Y002734D01*
X040050Y002734D01*
X039899Y002509D02*
X039749Y002509D01*
X040670Y002659D02*
X040745Y002734D01*
X040895Y002734D01*
X040970Y002659D01*
X040970Y002584D01*
X040895Y002509D01*
X040970Y002434D01*
X040970Y002359D01*
X040895Y002284D01*
X040745Y002284D01*
X040670Y002359D01*
X040820Y002509D02*
X040895Y002509D01*
X035824Y002189D02*
X035644Y002009D01*
X035689Y001964D01*
X035779Y001964D01*
X035824Y002009D01*
X035824Y002189D01*
X035779Y002234D01*
X035689Y002234D01*
X035644Y002189D01*
X035644Y002009D01*
X035530Y002009D02*
X035485Y001964D01*
X035395Y001964D01*
X035350Y002009D01*
X035235Y002009D02*
X035190Y001964D01*
X035100Y001964D01*
X035055Y002009D01*
X035145Y002099D02*
X035190Y002099D01*
X035235Y002054D01*
X035235Y002009D01*
X035190Y002099D02*
X035235Y002144D01*
X035235Y002189D01*
X035190Y002234D01*
X035100Y002234D01*
X035055Y002189D01*
X035350Y002189D02*
X035395Y002234D01*
X035485Y002234D01*
X035530Y002189D01*
X035530Y002144D01*
X035485Y002099D01*
X035530Y002054D01*
X035530Y002009D01*
X035485Y002099D02*
X035440Y002099D01*
X034674Y002164D02*
X034494Y001984D01*
X034494Y001939D01*
X034380Y001939D02*
X034290Y002029D01*
X034335Y002029D02*
X034200Y002029D01*
X034200Y001939D02*
X034200Y002209D01*
X034335Y002209D01*
X034380Y002164D01*
X034380Y002074D01*
X034335Y002029D01*
X034494Y002209D02*
X034674Y002209D01*
X034674Y002164D01*
X029659Y000789D02*
X029659Y000639D01*
X029584Y000564D01*
X029359Y000564D01*
X029509Y000564D02*
X029659Y000414D01*
X029359Y000414D02*
X029359Y000864D01*
X029584Y000864D01*
X029659Y000789D01*
X029198Y000864D02*
X029198Y000414D01*
X029048Y000564D01*
X028898Y000414D01*
X028898Y000864D01*
X028738Y000789D02*
X028663Y000864D01*
X028438Y000864D01*
X028438Y000414D01*
X028438Y000564D02*
X028663Y000564D01*
X028738Y000639D01*
X028738Y000789D01*
X027361Y000804D02*
X027061Y000804D01*
X027211Y000804D02*
X027211Y000354D01*
X026901Y000354D02*
X026600Y000354D01*
X026600Y000804D01*
X026901Y000804D01*
X026751Y000579D02*
X026600Y000579D01*
X026440Y000579D02*
X026440Y000429D01*
X026365Y000354D01*
X026215Y000354D01*
X026140Y000429D01*
X026140Y000729D01*
X026215Y000804D01*
X026365Y000804D01*
X026440Y000729D01*
X025980Y000729D02*
X025980Y000579D01*
X025905Y000504D01*
X025680Y000504D01*
X025830Y000504D02*
X025980Y000354D01*
X025680Y000354D02*
X025680Y000804D01*
X025905Y000804D01*
X025980Y000729D01*
X025520Y000654D02*
X025520Y000354D01*
X025520Y000579D02*
X025219Y000579D01*
X025219Y000654D02*
X025219Y000354D01*
X024909Y000354D02*
X024909Y000804D01*
X024759Y000804D02*
X025059Y000804D01*
X025219Y000654D02*
X025369Y000804D01*
X025520Y000654D01*
X026290Y000579D02*
X026440Y000579D01*
X014918Y000579D02*
X014843Y000504D01*
X014618Y000504D01*
X014768Y000504D02*
X014918Y000354D01*
X014918Y000579D02*
X014918Y000729D01*
X014843Y000804D01*
X014618Y000804D01*
X014618Y000354D01*
X014458Y000354D02*
X014157Y000354D01*
X014157Y000804D01*
X014458Y000804D01*
X013997Y000729D02*
X013922Y000804D01*
X013772Y000804D01*
X013697Y000729D01*
X013697Y000429D01*
X013772Y000354D01*
X013922Y000354D01*
X013997Y000429D01*
X013997Y000579D01*
X013847Y000579D01*
X013537Y000579D02*
X013537Y000429D01*
X013462Y000354D01*
X013312Y000354D01*
X013237Y000429D01*
X013237Y000729D01*
X013312Y000804D01*
X013462Y000804D01*
X013537Y000729D01*
X013080Y000804D02*
X012930Y000804D01*
X013005Y000804D02*
X013005Y000354D01*
X012930Y000354D02*
X013080Y000354D01*
X012770Y000354D02*
X012619Y000504D01*
X012695Y000504D02*
X012469Y000504D01*
X012469Y000354D02*
X012469Y000804D01*
X012695Y000804D01*
X012770Y000729D01*
X012770Y000579D01*
X012695Y000504D01*
X012159Y000354D02*
X012159Y000804D01*
X012009Y000804D02*
X012309Y000804D01*
X013387Y000579D02*
X013537Y000579D01*
X014157Y000579D02*
X014307Y000579D01*
X006129Y006924D02*
X005829Y006924D01*
X005979Y006924D02*
X005979Y007374D01*
X005829Y007224D01*
X005668Y007299D02*
X005593Y007374D01*
X005368Y007374D01*
X005368Y006924D01*
X005593Y006924D01*
X005668Y006999D01*
X005668Y007299D01*
X005208Y007374D02*
X004908Y007374D01*
X004908Y006924D01*
X005208Y006924D01*
X004748Y006924D02*
X004447Y006924D01*
X004447Y007374D01*
X004908Y007149D02*
X005058Y007149D01*
X027014Y008859D02*
X027014Y010359D01*
X027414Y009609D02*
X027414Y008859D01*
X028114Y008859D01*
X028114Y009609D01*
X027414Y009609D01*
X027014Y008859D02*
X027057Y008805D01*
X027103Y008753D01*
X027152Y008704D01*
X027204Y008657D01*
X027258Y008614D01*
X027314Y008573D01*
X027373Y008536D01*
X027433Y008502D01*
X027496Y008472D01*
X027559Y008445D01*
X027625Y008421D01*
X027691Y008401D01*
X027759Y008385D01*
X027827Y008373D01*
X027896Y008365D01*
X027965Y008360D01*
X028035Y008359D01*
X028104Y008362D01*
X028173Y008369D01*
X028241Y008380D01*
X028309Y008394D01*
X028376Y008413D01*
X028442Y008435D01*
X028507Y008460D01*
X028570Y008489D01*
X028631Y008522D01*
X028690Y008558D01*
X028747Y008597D01*
X028803Y008639D01*
X028855Y008684D01*
X028905Y008732D01*
X028952Y008783D01*
X028997Y008837D01*
X029038Y008892D01*
X029076Y008950D01*
X029111Y009010D01*
X029143Y009072D01*
X029171Y009135D01*
X029195Y009200D01*
X029216Y009266D01*
X029233Y009334D01*
X029247Y009402D01*
X029256Y009471D01*
X029262Y009540D01*
X029264Y009609D01*
X029262Y009678D01*
X029256Y009747D01*
X029247Y009816D01*
X029233Y009884D01*
X029216Y009952D01*
X029195Y010018D01*
X029171Y010083D01*
X029143Y010146D01*
X029111Y010208D01*
X029076Y010268D01*
X029038Y010326D01*
X028997Y010381D01*
X028952Y010435D01*
X028905Y010486D01*
X028855Y010534D01*
X028803Y010579D01*
X028747Y010621D01*
X028690Y010660D01*
X028631Y010696D01*
X028570Y010729D01*
X028507Y010758D01*
X028442Y010783D01*
X028376Y010805D01*
X028309Y010824D01*
X028241Y010838D01*
X028173Y010849D01*
X028104Y010856D01*
X028035Y010859D01*
X027965Y010858D01*
X027896Y010853D01*
X027827Y010845D01*
X027759Y010833D01*
X027691Y010817D01*
X027625Y010797D01*
X027559Y010773D01*
X027496Y010746D01*
X027433Y010716D01*
X027373Y010682D01*
X027314Y010645D01*
X027258Y010604D01*
X027204Y010561D01*
X027152Y010514D01*
X027103Y010465D01*
X027057Y010413D01*
X027014Y010359D01*
X027030Y009609D02*
X027032Y009671D01*
X027038Y009734D01*
X027048Y009795D01*
X027062Y009856D01*
X027079Y009916D01*
X027100Y009975D01*
X027126Y010032D01*
X027154Y010087D01*
X027186Y010141D01*
X027222Y010192D01*
X027260Y010242D01*
X027302Y010288D01*
X027346Y010332D01*
X027394Y010373D01*
X027443Y010411D01*
X027495Y010445D01*
X027549Y010476D01*
X027605Y010504D01*
X027663Y010528D01*
X027722Y010549D01*
X027782Y010565D01*
X027843Y010578D01*
X027905Y010587D01*
X027967Y010592D01*
X028030Y010593D01*
X028092Y010590D01*
X028154Y010583D01*
X028216Y010572D01*
X028276Y010557D01*
X028336Y010539D01*
X028394Y010517D01*
X028451Y010491D01*
X028506Y010461D01*
X028559Y010428D01*
X028610Y010392D01*
X028658Y010353D01*
X028704Y010310D01*
X028747Y010265D01*
X028787Y010217D01*
X028824Y010167D01*
X028858Y010114D01*
X028889Y010060D01*
X028915Y010004D01*
X028939Y009946D01*
X028958Y009886D01*
X028974Y009826D01*
X028986Y009764D01*
X028994Y009703D01*
X028998Y009640D01*
X028998Y009578D01*
X028994Y009515D01*
X028986Y009454D01*
X028974Y009392D01*
X028958Y009332D01*
X028939Y009272D01*
X028915Y009214D01*
X028889Y009158D01*
X028858Y009104D01*
X028824Y009051D01*
X028787Y009001D01*
X028747Y008953D01*
X028704Y008908D01*
X028658Y008865D01*
X028610Y008826D01*
X028559Y008790D01*
X028506Y008757D01*
X028451Y008727D01*
X028394Y008701D01*
X028336Y008679D01*
X028276Y008661D01*
X028216Y008646D01*
X028154Y008635D01*
X028092Y008628D01*
X028030Y008625D01*
X027967Y008626D01*
X027905Y008631D01*
X027843Y008640D01*
X027782Y008653D01*
X027722Y008669D01*
X027663Y008690D01*
X027605Y008714D01*
X027549Y008742D01*
X027495Y008773D01*
X027443Y008807D01*
X027394Y008845D01*
X027346Y008886D01*
X027302Y008930D01*
X027260Y008976D01*
X027222Y009026D01*
X027186Y009077D01*
X027154Y009131D01*
X027126Y009186D01*
X027100Y009243D01*
X027079Y009302D01*
X027062Y009362D01*
X027048Y009423D01*
X027038Y009484D01*
X027032Y009547D01*
X027030Y009609D01*
D15*
X001014Y004109D02*
X000959Y004070D01*
X000906Y004028D01*
X000856Y003983D01*
X000808Y003935D01*
X000763Y003885D01*
X000721Y003832D01*
X000682Y003777D01*
X000646Y003720D01*
X000613Y003661D01*
X000584Y003600D01*
X000558Y003538D01*
X000536Y003474D01*
X000517Y003410D01*
X000502Y003344D01*
X000491Y003277D01*
X000483Y003210D01*
X000479Y003143D01*
X000479Y003075D01*
X000483Y003008D01*
X000491Y002941D01*
X000502Y002874D01*
X000517Y002808D01*
X000536Y002744D01*
X000558Y002680D01*
X000584Y002618D01*
X000613Y002557D01*
X000646Y002498D01*
X000682Y002441D01*
X000721Y002386D01*
X000763Y002333D01*
X000808Y002283D01*
X000856Y002235D01*
X000906Y002190D01*
X000959Y002148D01*
X001014Y002109D01*
X001014Y004109D01*
D16*
X011472Y006004D02*
X011665Y006004D01*
X011569Y006004D02*
X011569Y006294D01*
X011472Y006197D01*
X011766Y006294D02*
X011960Y006004D01*
X011960Y006294D01*
X012061Y006246D02*
X012061Y006197D01*
X012109Y006149D01*
X012255Y006149D01*
X012255Y006052D02*
X012255Y006246D01*
X012206Y006294D01*
X012109Y006294D01*
X012061Y006246D01*
X011766Y006294D02*
X011766Y006004D01*
X012061Y006052D02*
X012109Y006004D01*
X012206Y006004D01*
X012255Y006052D01*
X012356Y006004D02*
X012549Y006004D01*
X012452Y006004D02*
X012452Y006294D01*
X012356Y006197D01*
X012650Y006149D02*
X012796Y006294D01*
X012796Y006004D01*
X012945Y006004D02*
X013090Y006004D01*
X013139Y006052D01*
X013139Y006100D01*
X013090Y006149D01*
X012945Y006149D01*
X012844Y006149D02*
X012650Y006149D01*
X012945Y006004D02*
X012945Y006294D01*
X013090Y006294D01*
X013139Y006246D01*
X013139Y006197D01*
X013090Y006149D01*
X013240Y006294D02*
X013433Y006294D01*
X013336Y006294D02*
X013336Y006004D01*
X013534Y006004D02*
X013534Y006294D01*
X013679Y006294D01*
X013728Y006246D01*
X013728Y006149D01*
X013679Y006100D01*
X013534Y006100D01*
X013631Y006100D02*
X013728Y006004D01*
X013702Y006924D02*
X013847Y006924D01*
X013896Y006972D01*
X013896Y007020D01*
X013847Y007069D01*
X013702Y007069D01*
X013601Y007069D02*
X013408Y007069D01*
X013553Y007214D01*
X013553Y006924D01*
X013702Y006924D02*
X013702Y007214D01*
X013847Y007214D01*
X013896Y007166D01*
X013896Y007117D01*
X013847Y007069D01*
X013997Y007214D02*
X014190Y007214D01*
X014094Y007214D02*
X014094Y006924D01*
X014292Y006924D02*
X014292Y007214D01*
X014437Y007214D01*
X014485Y007166D01*
X014485Y007069D01*
X014437Y007020D01*
X014292Y007020D01*
X014388Y007020D02*
X014485Y006924D01*
X013306Y006924D02*
X013113Y006924D01*
X013210Y006924D02*
X013210Y007214D01*
X013113Y007117D01*
X013012Y007069D02*
X012867Y007069D01*
X012818Y007117D01*
X012818Y007166D01*
X012867Y007214D01*
X012963Y007214D01*
X013012Y007166D01*
X013012Y006972D01*
X012963Y006924D01*
X012867Y006924D01*
X012818Y006972D01*
X012717Y006924D02*
X012717Y007214D01*
X012524Y007214D02*
X012717Y006924D01*
X012524Y006924D02*
X012524Y007214D01*
X012326Y007214D02*
X012229Y007117D01*
X012326Y007214D02*
X012326Y006924D01*
X012422Y006924D02*
X012229Y006924D01*
D17*
X006514Y007609D02*
X006516Y007672D01*
X006522Y007734D01*
X006532Y007796D01*
X006545Y007858D01*
X006563Y007918D01*
X006584Y007977D01*
X006609Y008035D01*
X006638Y008091D01*
X006670Y008145D01*
X006705Y008197D01*
X006743Y008246D01*
X006785Y008294D01*
X006829Y008338D01*
X006877Y008380D01*
X006926Y008418D01*
X006978Y008453D01*
X007032Y008485D01*
X007088Y008514D01*
X007146Y008539D01*
X007205Y008560D01*
X007265Y008578D01*
X007327Y008591D01*
X007389Y008601D01*
X007451Y008607D01*
X007514Y008609D01*
X007577Y008607D01*
X007639Y008601D01*
X007701Y008591D01*
X007763Y008578D01*
X007823Y008560D01*
X007882Y008539D01*
X007940Y008514D01*
X007996Y008485D01*
X008050Y008453D01*
X008102Y008418D01*
X008151Y008380D01*
X008199Y008338D01*
X008243Y008294D01*
X008285Y008246D01*
X008323Y008197D01*
X008358Y008145D01*
X008390Y008091D01*
X008419Y008035D01*
X008444Y007977D01*
X008465Y007918D01*
X008483Y007858D01*
X008496Y007796D01*
X008506Y007734D01*
X008512Y007672D01*
X008514Y007609D01*
X008512Y007546D01*
X008506Y007484D01*
X008496Y007422D01*
X008483Y007360D01*
X008465Y007300D01*
X008444Y007241D01*
X008419Y007183D01*
X008390Y007127D01*
X008358Y007073D01*
X008323Y007021D01*
X008285Y006972D01*
X008243Y006924D01*
X008199Y006880D01*
X008151Y006838D01*
X008102Y006800D01*
X008050Y006765D01*
X007996Y006733D01*
X007940Y006704D01*
X007882Y006679D01*
X007823Y006658D01*
X007763Y006640D01*
X007701Y006627D01*
X007639Y006617D01*
X007577Y006611D01*
X007514Y006609D01*
X007451Y006611D01*
X007389Y006617D01*
X007327Y006627D01*
X007265Y006640D01*
X007205Y006658D01*
X007146Y006679D01*
X007088Y006704D01*
X007032Y006733D01*
X006978Y006765D01*
X006926Y006800D01*
X006877Y006838D01*
X006829Y006880D01*
X006785Y006924D01*
X006743Y006972D01*
X006705Y007021D01*
X006670Y007073D01*
X006638Y007127D01*
X006609Y007183D01*
X006584Y007241D01*
X006563Y007300D01*
X006545Y007360D01*
X006532Y007422D01*
X006522Y007484D01*
X006516Y007546D01*
X006514Y007609D01*
M02*
