G75*
G70*
%OFA0B0*%
%FSLAX25Y25*%
%IPPOS*%
%LPD*%
%AMOC8*
5,1,8,0,0,1.08239X$1,22.5*
%
%ADD110C,0.04340*%
%ADD158C,0.06000*%
%ADD166C,0.08200*%
%ADD186C,0.04800*%
%ADD212R,0.08800X0.08800*%
%ADD223R,0.07300X0.07300*%
%ADD263C,0.04740*%
%ADD28R,0.04760X0.04760*%
%ADD284C,0.06800*%
%ADD286R,0.08200X0.08200*%
%ADD329C,0.11820*%
%ADD340C,0.00850*%
%ADD366C,0.13400*%
%ADD371C,0.00820*%
%ADD463C,0.17800*%
%ADD493C,0.00870*%
%ADD539C,0.00840*%
%ADD553C,0.07300*%
%ADD598C,0.00800*%
%ADD688C,0.03900*%
%ADD74C,0.08800*%
X0020000Y0020000D02*
G75*
%LPD*%
D263*
X0123760Y0024800D03*
X0025360Y0026000D03*
X0025360Y0276800D03*
X0123760Y0276800D03*
D598*
X0080880Y0121250D02*
X0079520Y0121250D01*
X0079520Y0126750D01*
X0080880Y0126750D01*
X0080880Y0121250D01*
X0080090Y0121250D02*
X0080090Y0126750D01*
X0078320Y0121250D02*
X0076960Y0121250D01*
X0076960Y0126750D01*
X0078320Y0126750D01*
X0078320Y0121250D01*
X0077530Y0121250D02*
X0077530Y0126750D01*
X0075760Y0121250D02*
X0074400Y0121250D01*
X0074400Y0126750D01*
X0075760Y0126750D01*
X0075760Y0121250D01*
X0074970Y0121250D02*
X0074970Y0126750D01*
X0073200Y0121250D02*
X0071840Y0121250D01*
X0071840Y0126750D01*
X0073200Y0126750D01*
X0073200Y0121250D01*
X0072410Y0121250D02*
X0072410Y0126750D01*
X0070640Y0121250D02*
X0069280Y0121250D01*
X0069280Y0126750D01*
X0070640Y0126750D01*
X0070640Y0121250D01*
X0069850Y0121250D02*
X0069850Y0126750D01*
X0068080Y0121250D02*
X0066720Y0121250D01*
X0066720Y0126750D01*
X0068080Y0126750D01*
X0068080Y0121250D01*
X0067290Y0121250D02*
X0067290Y0126750D01*
X0065520Y0121250D02*
X0064160Y0121250D01*
X0064160Y0126750D01*
X0065520Y0126750D01*
X0065520Y0121250D01*
X0064730Y0121250D02*
X0064730Y0126750D01*
X0062960Y0121250D02*
X0061600Y0121250D01*
X0061600Y0126750D01*
X0062960Y0126750D01*
X0062960Y0121250D01*
X0062170Y0121250D02*
X0062170Y0126750D01*
X0060400Y0121250D02*
X0059040Y0121250D01*
X0059040Y0126750D01*
X0060400Y0126750D01*
X0060400Y0121250D01*
X0059610Y0121250D02*
X0059610Y0126750D01*
X0057840Y0121250D02*
X0056480Y0121250D01*
X0056480Y0126750D01*
X0057840Y0126750D01*
X0057840Y0121250D01*
X0057050Y0121250D02*
X0057050Y0126750D01*
X0055290Y0121250D02*
X0053930Y0121250D01*
X0053930Y0126750D01*
X0055290Y0126750D01*
X0055290Y0121250D01*
X0054500Y0121250D02*
X0054500Y0126750D01*
X0052730Y0121250D02*
X0051370Y0121250D01*
X0051370Y0126750D01*
X0052730Y0126750D01*
X0052730Y0121250D01*
X0051940Y0121250D02*
X0051940Y0126750D01*
X0050170Y0121250D02*
X0048810Y0121250D01*
X0048810Y0126750D01*
X0050170Y0126750D01*
X0050170Y0121250D01*
X0049380Y0121250D02*
X0049380Y0126750D01*
X0047610Y0121250D02*
X0046250Y0121250D01*
X0046250Y0126750D01*
X0047610Y0126750D01*
X0047610Y0121250D01*
X0046820Y0121250D02*
X0046820Y0126750D01*
X0047610Y0092460D02*
X0046250Y0092460D01*
X0046250Y0097960D01*
X0047610Y0097960D01*
X0047610Y0092460D01*
X0046820Y0092460D02*
X0046820Y0097960D01*
X0048810Y0092460D02*
X0050170Y0092460D01*
X0048810Y0092460D02*
X0048810Y0097960D01*
X0050170Y0097960D01*
X0050170Y0092460D01*
X0049380Y0092460D02*
X0049380Y0097960D01*
X0051370Y0092460D02*
X0052730Y0092460D01*
X0051370Y0092460D02*
X0051370Y0097960D01*
X0052730Y0097960D01*
X0052730Y0092460D01*
X0051940Y0092460D02*
X0051940Y0097960D01*
X0053930Y0092460D02*
X0055290Y0092460D01*
X0053930Y0092460D02*
X0053930Y0097960D01*
X0055290Y0097960D01*
X0055290Y0092460D01*
X0054500Y0092460D02*
X0054500Y0097960D01*
X0056480Y0092460D02*
X0057840Y0092460D01*
X0056480Y0092460D02*
X0056480Y0097960D01*
X0057840Y0097960D01*
X0057840Y0092460D01*
X0057050Y0092460D02*
X0057050Y0097960D01*
X0059040Y0092460D02*
X0060400Y0092460D01*
X0059040Y0092460D02*
X0059040Y0097960D01*
X0060400Y0097960D01*
X0060400Y0092460D01*
X0059610Y0092460D02*
X0059610Y0097960D01*
X0061600Y0092460D02*
X0062960Y0092460D01*
X0061600Y0092460D02*
X0061600Y0097960D01*
X0062960Y0097960D01*
X0062960Y0092460D01*
X0062170Y0092460D02*
X0062170Y0097960D01*
X0064160Y0092460D02*
X0065520Y0092460D01*
X0064160Y0092460D02*
X0064160Y0097960D01*
X0065520Y0097960D01*
X0065520Y0092460D01*
X0064730Y0092460D02*
X0064730Y0097960D01*
X0066720Y0092460D02*
X0068080Y0092460D01*
X0066720Y0092460D02*
X0066720Y0097960D01*
X0068080Y0097960D01*
X0068080Y0092460D01*
X0067290Y0092460D02*
X0067290Y0097960D01*
X0069280Y0092460D02*
X0070640Y0092460D01*
X0069280Y0092460D02*
X0069280Y0097960D01*
X0070640Y0097960D01*
X0070640Y0092460D01*
X0069850Y0092460D02*
X0069850Y0097960D01*
X0071840Y0092460D02*
X0073200Y0092460D01*
X0071840Y0092460D02*
X0071840Y0097960D01*
X0073200Y0097960D01*
X0073200Y0092460D01*
X0072410Y0092460D02*
X0072410Y0097960D01*
X0074400Y0092460D02*
X0075760Y0092460D01*
X0074400Y0092460D02*
X0074400Y0097960D01*
X0075760Y0097960D01*
X0075760Y0092460D01*
X0074970Y0092460D02*
X0074970Y0097960D01*
X0076960Y0092460D02*
X0078320Y0092460D01*
X0076960Y0092460D02*
X0076960Y0097960D01*
X0078320Y0097960D01*
X0078320Y0092460D01*
X0077530Y0092460D02*
X0077530Y0097960D01*
X0079520Y0092460D02*
X0080880Y0092460D01*
X0079520Y0092460D02*
X0079520Y0097960D01*
X0080880Y0097960D01*
X0080880Y0092460D01*
X0080090Y0092460D02*
X0080090Y0097960D01*
X0063440Y0059360D02*
X0063440Y0049520D01*
X0061480Y0049520D01*
X0061480Y0059360D01*
X0063440Y0059360D01*
X0062650Y0059360D02*
X0062650Y0049520D01*
X0061860Y0049520D02*
X0061860Y0059360D01*
X0060290Y0059360D02*
X0060290Y0049520D01*
X0058330Y0049520D01*
X0058330Y0059360D01*
X0060290Y0059360D01*
X0059500Y0059360D02*
X0059500Y0049520D01*
X0058710Y0049520D02*
X0058710Y0059360D01*
X0057140Y0059360D02*
X0057140Y0049520D01*
X0055180Y0049520D01*
X0055180Y0059360D01*
X0057140Y0059360D01*
X0056350Y0059360D02*
X0056350Y0049520D01*
X0055560Y0049520D02*
X0055560Y0059360D01*
X0053990Y0059360D02*
X0053990Y0049520D01*
X0052030Y0049520D01*
X0052030Y0059360D01*
X0053990Y0059360D01*
X0053200Y0059360D02*
X0053200Y0049520D01*
X0052410Y0049520D02*
X0052410Y0059360D01*
X0050840Y0059360D02*
X0050840Y0049520D01*
X0048880Y0049520D01*
X0048880Y0059360D01*
X0050840Y0059360D01*
X0050050Y0059360D02*
X0050050Y0049520D01*
X0049260Y0049520D02*
X0049260Y0059360D01*
D493*
X0042350Y0059330D02*
X0042350Y0049550D01*
X0034550Y0049550D01*
X0034550Y0059330D01*
X0042350Y0059330D01*
X0041490Y0059330D02*
X0041490Y0049550D01*
X0040630Y0049550D02*
X0040630Y0059330D01*
X0039770Y0059330D02*
X0039770Y0049550D01*
X0038910Y0049550D02*
X0038910Y0059330D01*
X0038050Y0059330D02*
X0038050Y0049550D01*
X0037190Y0049550D02*
X0037190Y0059330D01*
X0036330Y0059330D02*
X0036330Y0049550D01*
X0035470Y0049550D02*
X0035470Y0059330D01*
X0034610Y0059330D02*
X0034610Y0049550D01*
X0042350Y0037680D02*
X0042350Y0027900D01*
X0034550Y0027900D01*
X0034550Y0037680D01*
X0042350Y0037680D01*
X0041490Y0037680D02*
X0041490Y0027900D01*
X0040630Y0027900D02*
X0040630Y0037680D01*
X0039770Y0037680D02*
X0039770Y0027900D01*
X0038910Y0027900D02*
X0038910Y0037680D01*
X0038050Y0037680D02*
X0038050Y0027900D01*
X0037190Y0027900D02*
X0037190Y0037680D01*
X0036330Y0037680D02*
X0036330Y0027900D01*
X0035470Y0027900D02*
X0035470Y0037680D01*
X0034610Y0037680D02*
X0034610Y0027900D01*
X0077780Y0027900D02*
X0077780Y0037680D01*
X0077780Y0027900D02*
X0069980Y0027900D01*
X0069980Y0037680D01*
X0077780Y0037680D01*
X0076920Y0037680D02*
X0076920Y0027900D01*
X0076060Y0027900D02*
X0076060Y0037680D01*
X0075200Y0037680D02*
X0075200Y0027900D01*
X0074340Y0027900D02*
X0074340Y0037680D01*
X0073480Y0037680D02*
X0073480Y0027900D01*
X0072620Y0027900D02*
X0072620Y0037680D01*
X0071760Y0037680D02*
X0071760Y0027900D01*
X0070900Y0027900D02*
X0070900Y0037680D01*
X0070040Y0037680D02*
X0070040Y0027900D01*
X0077780Y0049550D02*
X0077780Y0059330D01*
X0077780Y0049550D02*
X0069980Y0049550D01*
X0069980Y0059330D01*
X0077780Y0059330D01*
X0076920Y0059330D02*
X0076920Y0049550D01*
X0076060Y0049550D02*
X0076060Y0059330D01*
X0075200Y0059330D02*
X0075200Y0049550D01*
X0074340Y0049550D02*
X0074340Y0059330D01*
X0073480Y0059330D02*
X0073480Y0049550D01*
X0072620Y0049550D02*
X0072620Y0059330D01*
X0071760Y0059330D02*
X0071760Y0049550D01*
X0070900Y0049550D02*
X0070900Y0059330D01*
X0070040Y0059330D02*
X0070040Y0049550D01*
D110*
X0064820Y0044600D03*
X0047500Y0044600D03*
D340*
X0042200Y0086080D02*
X0035940Y0086080D01*
X0035940Y0093120D01*
X0042200Y0093120D01*
X0042200Y0086080D01*
X0041360Y0086080D02*
X0041360Y0093120D01*
X0040520Y0093120D02*
X0040520Y0086080D01*
X0039680Y0086080D02*
X0039680Y0093120D01*
X0038840Y0093120D02*
X0038840Y0086080D01*
X0038000Y0086080D02*
X0038000Y0093120D01*
X0037160Y0093120D02*
X0037160Y0086080D01*
X0036320Y0086080D02*
X0036320Y0093120D01*
X0032080Y0100960D02*
X0032080Y0107220D01*
X0032080Y0100960D02*
X0025040Y0100960D01*
X0025040Y0107220D01*
X0032080Y0107220D01*
X0031240Y0107220D02*
X0031240Y0100960D01*
X0030400Y0100960D02*
X0030400Y0107220D01*
X0029560Y0107220D02*
X0029560Y0100960D01*
X0028720Y0100960D02*
X0028720Y0107220D01*
X0027880Y0107220D02*
X0027880Y0100960D01*
X0027040Y0100960D02*
X0027040Y0107220D01*
X0026200Y0107220D02*
X0026200Y0100960D01*
X0025360Y0100960D02*
X0025360Y0107220D01*
X0032080Y0111980D02*
X0032080Y0118240D01*
X0032080Y0111980D02*
X0025040Y0111980D01*
X0025040Y0118240D01*
X0032080Y0118240D01*
X0031240Y0118240D02*
X0031240Y0111980D01*
X0030400Y0111980D02*
X0030400Y0118240D01*
X0029560Y0118240D02*
X0029560Y0111980D01*
X0028720Y0111980D02*
X0028720Y0118240D01*
X0027880Y0118240D02*
X0027880Y0111980D01*
X0027040Y0111980D02*
X0027040Y0118240D01*
X0026200Y0118240D02*
X0026200Y0111980D01*
X0025360Y0111980D02*
X0025360Y0118240D01*
X0024920Y0086080D02*
X0031180Y0086080D01*
X0024920Y0086080D02*
X0024920Y0093120D01*
X0031180Y0093120D01*
X0031180Y0086080D01*
X0030340Y0086080D02*
X0030340Y0093120D01*
X0029500Y0093120D02*
X0029500Y0086080D01*
X0028660Y0086080D02*
X0028660Y0093120D01*
X0027820Y0093120D02*
X0027820Y0086080D01*
X0026980Y0086080D02*
X0026980Y0093120D01*
X0026140Y0093120D02*
X0026140Y0086080D01*
X0025300Y0086080D02*
X0025300Y0093120D01*
X0050480Y0133960D02*
X0050480Y0140220D01*
X0050480Y0133960D02*
X0043440Y0133960D01*
X0043440Y0140220D01*
X0050480Y0140220D01*
X0049640Y0140220D02*
X0049640Y0133960D01*
X0048800Y0133960D02*
X0048800Y0140220D01*
X0047960Y0140220D02*
X0047960Y0133960D01*
X0047120Y0133960D02*
X0047120Y0140220D01*
X0046280Y0140220D02*
X0046280Y0133960D01*
X0045440Y0133960D02*
X0045440Y0140220D01*
X0044600Y0140220D02*
X0044600Y0133960D01*
X0043760Y0133960D02*
X0043760Y0140220D01*
X0050480Y0144980D02*
X0050480Y0151240D01*
X0050480Y0144980D02*
X0043440Y0144980D01*
X0043440Y0151240D01*
X0050480Y0151240D01*
X0049640Y0151240D02*
X0049640Y0144980D01*
X0048800Y0144980D02*
X0048800Y0151240D01*
X0047960Y0151240D02*
X0047960Y0144980D01*
X0047120Y0144980D02*
X0047120Y0151240D01*
X0046280Y0151240D02*
X0046280Y0144980D01*
X0045440Y0144980D02*
X0045440Y0151240D01*
X0044600Y0151240D02*
X0044600Y0144980D01*
X0043760Y0144980D02*
X0043760Y0151240D01*
X0097080Y0148240D02*
X0097080Y0141980D01*
X0090040Y0141980D01*
X0090040Y0148240D01*
X0097080Y0148240D01*
X0096240Y0148240D02*
X0096240Y0141980D01*
X0095400Y0141980D02*
X0095400Y0148240D01*
X0094560Y0148240D02*
X0094560Y0141980D01*
X0093720Y0141980D02*
X0093720Y0148240D01*
X0092880Y0148240D02*
X0092880Y0141980D01*
X0092040Y0141980D02*
X0092040Y0148240D01*
X0091200Y0148240D02*
X0091200Y0141980D01*
X0090360Y0141980D02*
X0090360Y0148240D01*
X0090040Y0155960D02*
X0090040Y0162220D01*
X0097080Y0162220D01*
X0097080Y0155960D01*
X0090040Y0155960D01*
X0096240Y0155960D02*
X0096240Y0162220D01*
X0095400Y0162220D02*
X0095400Y0155960D01*
X0094560Y0155960D02*
X0094560Y0162220D01*
X0093720Y0162220D02*
X0093720Y0155960D01*
X0092880Y0155960D02*
X0092880Y0162220D01*
X0092040Y0162220D02*
X0092040Y0155960D01*
X0091200Y0155960D02*
X0091200Y0162220D01*
X0090360Y0162220D02*
X0090360Y0155960D01*
X0090040Y0166980D02*
X0090040Y0173240D01*
X0097080Y0173240D01*
X0097080Y0166980D01*
X0090040Y0166980D01*
X0096240Y0166980D02*
X0096240Y0173240D01*
X0095400Y0173240D02*
X0095400Y0166980D01*
X0094560Y0166980D02*
X0094560Y0173240D01*
X0093720Y0173240D02*
X0093720Y0166980D01*
X0092880Y0166980D02*
X0092880Y0173240D01*
X0092040Y0173240D02*
X0092040Y0166980D01*
X0091200Y0166980D02*
X0091200Y0173240D01*
X0090360Y0173240D02*
X0090360Y0166980D01*
X0097080Y0137220D02*
X0097080Y0130960D01*
X0090040Y0130960D01*
X0090040Y0137220D01*
X0097080Y0137220D01*
X0096240Y0137220D02*
X0096240Y0130960D01*
X0095400Y0130960D02*
X0095400Y0137220D01*
X0094560Y0137220D02*
X0094560Y0130960D01*
X0093720Y0130960D02*
X0093720Y0137220D01*
X0092880Y0137220D02*
X0092880Y0130960D01*
X0092040Y0130960D02*
X0092040Y0137220D01*
X0091200Y0137220D02*
X0091200Y0130960D01*
X0090360Y0130960D02*
X0090360Y0137220D01*
X0100040Y0138240D02*
X0100040Y0131980D01*
X0100040Y0138240D02*
X0107080Y0138240D01*
X0107080Y0131980D01*
X0100040Y0131980D01*
X0106240Y0131980D02*
X0106240Y0138240D01*
X0105400Y0138240D02*
X0105400Y0131980D01*
X0104560Y0131980D02*
X0104560Y0138240D01*
X0103720Y0138240D02*
X0103720Y0131980D01*
X0102880Y0131980D02*
X0102880Y0138240D01*
X0102040Y0138240D02*
X0102040Y0131980D01*
X0101200Y0131980D02*
X0101200Y0138240D01*
X0100360Y0138240D02*
X0100360Y0131980D01*
X0100040Y0127220D02*
X0100040Y0120960D01*
X0100040Y0127220D02*
X0107080Y0127220D01*
X0107080Y0120960D01*
X0100040Y0120960D01*
X0106240Y0120960D02*
X0106240Y0127220D01*
X0105400Y0127220D02*
X0105400Y0120960D01*
X0104560Y0120960D02*
X0104560Y0127220D01*
X0103720Y0127220D02*
X0103720Y0120960D01*
X0102880Y0120960D02*
X0102880Y0127220D01*
X0102040Y0127220D02*
X0102040Y0120960D01*
X0101200Y0120960D02*
X0101200Y0127220D01*
X0100360Y0127220D02*
X0100360Y0120960D01*
X0105040Y0160960D02*
X0105040Y0167220D01*
X0112080Y0167220D01*
X0112080Y0160960D01*
X0105040Y0160960D01*
X0111240Y0160960D02*
X0111240Y0167220D01*
X0110400Y0167220D02*
X0110400Y0160960D01*
X0109560Y0160960D02*
X0109560Y0167220D01*
X0108720Y0167220D02*
X0108720Y0160960D01*
X0107880Y0160960D02*
X0107880Y0167220D01*
X0107040Y0167220D02*
X0107040Y0160960D01*
X0106200Y0160960D02*
X0106200Y0167220D01*
X0105360Y0167220D02*
X0105360Y0160960D01*
X0105040Y0171980D02*
X0105040Y0178240D01*
X0112080Y0178240D01*
X0112080Y0171980D01*
X0105040Y0171980D01*
X0111240Y0171980D02*
X0111240Y0178240D01*
X0110400Y0178240D02*
X0110400Y0171980D01*
X0109560Y0171980D02*
X0109560Y0178240D01*
X0108720Y0178240D02*
X0108720Y0171980D01*
X0107880Y0171980D02*
X0107880Y0178240D01*
X0107040Y0178240D02*
X0107040Y0171980D01*
X0106200Y0171980D02*
X0106200Y0178240D01*
X0105360Y0178240D02*
X0105360Y0171980D01*
D371*
X0036330Y0077740D02*
X0036330Y0071460D01*
X0036330Y0077740D02*
X0041810Y0077740D01*
X0041810Y0071460D01*
X0036330Y0071460D01*
X0041000Y0071460D02*
X0041000Y0077740D01*
X0040190Y0077740D02*
X0040190Y0071460D01*
X0039380Y0071460D02*
X0039380Y0077740D01*
X0038570Y0077740D02*
X0038570Y0071460D01*
X0037760Y0071460D02*
X0037760Y0077740D01*
X0036950Y0077740D02*
X0036950Y0071460D01*
X0025310Y0071460D02*
X0025310Y0077740D01*
X0030790Y0077740D01*
X0030790Y0071460D01*
X0025310Y0071460D01*
X0029980Y0071460D02*
X0029980Y0077740D01*
X0029170Y0077740D02*
X0029170Y0071460D01*
X0028360Y0071460D02*
X0028360Y0077740D01*
X0027550Y0077740D02*
X0027550Y0071460D01*
X0026740Y0071460D02*
X0026740Y0077740D01*
X0025930Y0077740D02*
X0025930Y0071460D01*
D598*
X0035610Y0099760D02*
X0041510Y0099760D01*
X0035610Y0099760D02*
X0035610Y0105660D01*
X0041510Y0105660D01*
X0041510Y0099760D01*
X0040720Y0099760D02*
X0040720Y0105660D01*
X0039930Y0105660D02*
X0039930Y0099760D01*
X0039140Y0099760D02*
X0039140Y0105660D01*
X0038350Y0105660D02*
X0038350Y0099760D01*
X0037560Y0099760D02*
X0037560Y0105660D01*
X0036770Y0105660D02*
X0036770Y0099760D01*
X0035980Y0099760D02*
X0035980Y0105660D01*
X0035610Y0113540D02*
X0041510Y0113540D01*
X0035610Y0113540D02*
X0035610Y0119440D01*
X0041510Y0119440D01*
X0041510Y0113540D01*
X0040720Y0113540D02*
X0040720Y0119440D01*
X0039930Y0119440D02*
X0039930Y0113540D01*
X0039140Y0113540D02*
X0039140Y0119440D01*
X0038350Y0119440D02*
X0038350Y0113540D01*
X0037560Y0113540D02*
X0037560Y0119440D01*
X0036770Y0119440D02*
X0036770Y0113540D01*
X0035980Y0113540D02*
X0035980Y0119440D01*
X0092610Y0119440D02*
X0098510Y0119440D01*
X0098510Y0113540D01*
X0092610Y0113540D01*
X0092610Y0119440D01*
X0097720Y0119440D02*
X0097720Y0113540D01*
X0096930Y0113540D02*
X0096930Y0119440D01*
X0096140Y0119440D02*
X0096140Y0113540D01*
X0095350Y0113540D02*
X0095350Y0119440D01*
X0094560Y0119440D02*
X0094560Y0113540D01*
X0093770Y0113540D02*
X0093770Y0119440D01*
X0092980Y0119440D02*
X0092980Y0113540D01*
X0092610Y0105660D02*
X0098510Y0105660D01*
X0098510Y0099760D01*
X0092610Y0099760D01*
X0092610Y0105660D01*
X0097720Y0105660D02*
X0097720Y0099760D01*
X0096930Y0099760D02*
X0096930Y0105660D01*
X0096140Y0105660D02*
X0096140Y0099760D01*
X0095350Y0099760D02*
X0095350Y0105660D01*
X0094560Y0105660D02*
X0094560Y0099760D01*
X0093770Y0099760D02*
X0093770Y0105660D01*
X0092980Y0105660D02*
X0092980Y0099760D01*
D166*
X0091660Y0203000D03*
X0086660Y0213000D03*
X0081660Y0203000D03*
X0076660Y0213000D03*
X0071660Y0203000D03*
X0066660Y0213000D03*
X0061660Y0203000D03*
X0040760Y0179600D03*
X0040760Y0169600D03*
X0033360Y0140000D03*
X0033360Y0130000D03*
D371*
X0060450Y0153310D02*
X0060450Y0155890D01*
X0060450Y0153310D02*
X0052470Y0153310D01*
X0052470Y0155890D01*
X0060450Y0155890D01*
X0059640Y0155890D02*
X0059640Y0153310D01*
X0058830Y0153310D02*
X0058830Y0155890D01*
X0058020Y0155890D02*
X0058020Y0153310D01*
X0057210Y0153310D02*
X0057210Y0155890D01*
X0056400Y0155890D02*
X0056400Y0153310D01*
X0055590Y0153310D02*
X0055590Y0155890D01*
X0054780Y0155890D02*
X0054780Y0153310D01*
X0053970Y0153310D02*
X0053970Y0155890D01*
X0053160Y0155890D02*
X0053160Y0153310D01*
X0060450Y0158310D02*
X0060450Y0160890D01*
X0060450Y0158310D02*
X0052470Y0158310D01*
X0052470Y0160890D01*
X0060450Y0160890D01*
X0059640Y0160890D02*
X0059640Y0158310D01*
X0058830Y0158310D02*
X0058830Y0160890D01*
X0058020Y0160890D02*
X0058020Y0158310D01*
X0057210Y0158310D02*
X0057210Y0160890D01*
X0056400Y0160890D02*
X0056400Y0158310D01*
X0055590Y0158310D02*
X0055590Y0160890D01*
X0054780Y0160890D02*
X0054780Y0158310D01*
X0053970Y0158310D02*
X0053970Y0160890D01*
X0053160Y0160890D02*
X0053160Y0158310D01*
X0060450Y0163310D02*
X0060450Y0165890D01*
X0060450Y0163310D02*
X0052470Y0163310D01*
X0052470Y0165890D01*
X0060450Y0165890D01*
X0059640Y0165890D02*
X0059640Y0163310D01*
X0058830Y0163310D02*
X0058830Y0165890D01*
X0058020Y0165890D02*
X0058020Y0163310D01*
X0057210Y0163310D02*
X0057210Y0165890D01*
X0056400Y0165890D02*
X0056400Y0163310D01*
X0055590Y0163310D02*
X0055590Y0165890D01*
X0054780Y0165890D02*
X0054780Y0163310D01*
X0053970Y0163310D02*
X0053970Y0165890D01*
X0053160Y0165890D02*
X0053160Y0163310D01*
X0060450Y0168310D02*
X0060450Y0170890D01*
X0060450Y0168310D02*
X0052470Y0168310D01*
X0052470Y0170890D01*
X0060450Y0170890D01*
X0059640Y0170890D02*
X0059640Y0168310D01*
X0058830Y0168310D02*
X0058830Y0170890D01*
X0058020Y0170890D02*
X0058020Y0168310D01*
X0057210Y0168310D02*
X0057210Y0170890D01*
X0056400Y0170890D02*
X0056400Y0168310D01*
X0055590Y0168310D02*
X0055590Y0170890D01*
X0054780Y0170890D02*
X0054780Y0168310D01*
X0053970Y0168310D02*
X0053970Y0170890D01*
X0053160Y0170890D02*
X0053160Y0168310D01*
X0060450Y0173310D02*
X0060450Y0175890D01*
X0060450Y0173310D02*
X0052470Y0173310D01*
X0052470Y0175890D01*
X0060450Y0175890D01*
X0059640Y0175890D02*
X0059640Y0173310D01*
X0058830Y0173310D02*
X0058830Y0175890D01*
X0058020Y0175890D02*
X0058020Y0173310D01*
X0057210Y0173310D02*
X0057210Y0175890D01*
X0056400Y0175890D02*
X0056400Y0173310D01*
X0055590Y0173310D02*
X0055590Y0175890D01*
X0054780Y0175890D02*
X0054780Y0173310D01*
X0053970Y0173310D02*
X0053970Y0175890D01*
X0053160Y0175890D02*
X0053160Y0173310D01*
X0060450Y0178310D02*
X0060450Y0180890D01*
X0060450Y0178310D02*
X0052470Y0178310D01*
X0052470Y0180890D01*
X0060450Y0180890D01*
X0059640Y0180890D02*
X0059640Y0178310D01*
X0058830Y0178310D02*
X0058830Y0180890D01*
X0058020Y0180890D02*
X0058020Y0178310D01*
X0057210Y0178310D02*
X0057210Y0180890D01*
X0056400Y0180890D02*
X0056400Y0178310D01*
X0055590Y0178310D02*
X0055590Y0180890D01*
X0054780Y0180890D02*
X0054780Y0178310D01*
X0053970Y0178310D02*
X0053970Y0180890D01*
X0053160Y0180890D02*
X0053160Y0178310D01*
X0060450Y0183310D02*
X0060450Y0185890D01*
X0060450Y0183310D02*
X0052470Y0183310D01*
X0052470Y0185890D01*
X0060450Y0185890D01*
X0059640Y0185890D02*
X0059640Y0183310D01*
X0058830Y0183310D02*
X0058830Y0185890D01*
X0058020Y0185890D02*
X0058020Y0183310D01*
X0057210Y0183310D02*
X0057210Y0185890D01*
X0056400Y0185890D02*
X0056400Y0183310D01*
X0055590Y0183310D02*
X0055590Y0185890D01*
X0054780Y0185890D02*
X0054780Y0183310D01*
X0053970Y0183310D02*
X0053970Y0185890D01*
X0053160Y0185890D02*
X0053160Y0183310D01*
X0084650Y0183310D02*
X0084650Y0185890D01*
X0084650Y0183310D02*
X0076670Y0183310D01*
X0076670Y0185890D01*
X0084650Y0185890D01*
X0083840Y0185890D02*
X0083840Y0183310D01*
X0083030Y0183310D02*
X0083030Y0185890D01*
X0082220Y0185890D02*
X0082220Y0183310D01*
X0081410Y0183310D02*
X0081410Y0185890D01*
X0080600Y0185890D02*
X0080600Y0183310D01*
X0079790Y0183310D02*
X0079790Y0185890D01*
X0078980Y0185890D02*
X0078980Y0183310D01*
X0078170Y0183310D02*
X0078170Y0185890D01*
X0077360Y0185890D02*
X0077360Y0183310D01*
X0084650Y0180890D02*
X0084650Y0178310D01*
X0076670Y0178310D01*
X0076670Y0180890D01*
X0084650Y0180890D01*
X0083840Y0180890D02*
X0083840Y0178310D01*
X0083030Y0178310D02*
X0083030Y0180890D01*
X0082220Y0180890D02*
X0082220Y0178310D01*
X0081410Y0178310D02*
X0081410Y0180890D01*
X0080600Y0180890D02*
X0080600Y0178310D01*
X0079790Y0178310D02*
X0079790Y0180890D01*
X0078980Y0180890D02*
X0078980Y0178310D01*
X0078170Y0178310D02*
X0078170Y0180890D01*
X0077360Y0180890D02*
X0077360Y0178310D01*
X0084650Y0175890D02*
X0084650Y0173310D01*
X0076670Y0173310D01*
X0076670Y0175890D01*
X0084650Y0175890D01*
X0083840Y0175890D02*
X0083840Y0173310D01*
X0083030Y0173310D02*
X0083030Y0175890D01*
X0082220Y0175890D02*
X0082220Y0173310D01*
X0081410Y0173310D02*
X0081410Y0175890D01*
X0080600Y0175890D02*
X0080600Y0173310D01*
X0079790Y0173310D02*
X0079790Y0175890D01*
X0078980Y0175890D02*
X0078980Y0173310D01*
X0078170Y0173310D02*
X0078170Y0175890D01*
X0077360Y0175890D02*
X0077360Y0173310D01*
X0084650Y0170890D02*
X0084650Y0168310D01*
X0076670Y0168310D01*
X0076670Y0170890D01*
X0084650Y0170890D01*
X0083840Y0170890D02*
X0083840Y0168310D01*
X0083030Y0168310D02*
X0083030Y0170890D01*
X0082220Y0170890D02*
X0082220Y0168310D01*
X0081410Y0168310D02*
X0081410Y0170890D01*
X0080600Y0170890D02*
X0080600Y0168310D01*
X0079790Y0168310D02*
X0079790Y0170890D01*
X0078980Y0170890D02*
X0078980Y0168310D01*
X0078170Y0168310D02*
X0078170Y0170890D01*
X0077360Y0170890D02*
X0077360Y0168310D01*
X0084650Y0165890D02*
X0084650Y0163310D01*
X0076670Y0163310D01*
X0076670Y0165890D01*
X0084650Y0165890D01*
X0083840Y0165890D02*
X0083840Y0163310D01*
X0083030Y0163310D02*
X0083030Y0165890D01*
X0082220Y0165890D02*
X0082220Y0163310D01*
X0081410Y0163310D02*
X0081410Y0165890D01*
X0080600Y0165890D02*
X0080600Y0163310D01*
X0079790Y0163310D02*
X0079790Y0165890D01*
X0078980Y0165890D02*
X0078980Y0163310D01*
X0078170Y0163310D02*
X0078170Y0165890D01*
X0077360Y0165890D02*
X0077360Y0163310D01*
X0084650Y0160890D02*
X0084650Y0158310D01*
X0076670Y0158310D01*
X0076670Y0160890D01*
X0084650Y0160890D01*
X0083840Y0160890D02*
X0083840Y0158310D01*
X0083030Y0158310D02*
X0083030Y0160890D01*
X0082220Y0160890D02*
X0082220Y0158310D01*
X0081410Y0158310D02*
X0081410Y0160890D01*
X0080600Y0160890D02*
X0080600Y0158310D01*
X0079790Y0158310D02*
X0079790Y0160890D01*
X0078980Y0160890D02*
X0078980Y0158310D01*
X0078170Y0158310D02*
X0078170Y0160890D01*
X0077360Y0160890D02*
X0077360Y0158310D01*
X0084650Y0155890D02*
X0084650Y0153310D01*
X0076670Y0153310D01*
X0076670Y0155890D01*
X0084650Y0155890D01*
X0083840Y0155890D02*
X0083840Y0153310D01*
X0083030Y0153310D02*
X0083030Y0155890D01*
X0082220Y0155890D02*
X0082220Y0153310D01*
X0081410Y0153310D02*
X0081410Y0155890D01*
X0080600Y0155890D02*
X0080600Y0153310D01*
X0079790Y0153310D02*
X0079790Y0155890D01*
X0078980Y0155890D02*
X0078980Y0153310D01*
X0078170Y0153310D02*
X0078170Y0155890D01*
X0077360Y0155890D02*
X0077360Y0153310D01*
D366*
X0056660Y0238000D03*
X0101660Y0238000D03*
D286*
X0096660Y0213000D03*
D463*
X0098760Y0074940D03*
X0098760Y0051320D03*
X0117270Y0063130D03*
D28*
X0084160Y0135200D03*
X0076360Y0112200D03*
X0080560Y0105600D03*
X0068560Y0112400D03*
X0073360Y0131600D03*
X0060160Y0112400D03*
X0058960Y0105200D03*
X0046960Y0130400D03*
X0045760Y0088400D03*
X0053160Y0067800D03*
X0059160Y0068000D03*
X0070960Y0174800D03*
D688*
X0048560Y0175000D03*
X0135060Y0020000D02*
G75*
%LPD*%
D263*
X0238820Y0024800D03*
X0140420Y0026000D03*
X0140420Y0276800D03*
X0238820Y0276800D03*
D598*
X0195940Y0121250D02*
X0194580Y0121250D01*
X0194580Y0126750D01*
X0195940Y0126750D01*
X0195940Y0121250D01*
X0195150Y0121250D02*
X0195150Y0126750D01*
X0193380Y0121250D02*
X0192020Y0121250D01*
X0192020Y0126750D01*
X0193380Y0126750D01*
X0193380Y0121250D01*
X0192590Y0121250D02*
X0192590Y0126750D01*
X0190820Y0121250D02*
X0189460Y0121250D01*
X0189460Y0126750D01*
X0190820Y0126750D01*
X0190820Y0121250D01*
X0190030Y0121250D02*
X0190030Y0126750D01*
X0188260Y0121250D02*
X0186900Y0121250D01*
X0186900Y0126750D01*
X0188260Y0126750D01*
X0188260Y0121250D01*
X0187470Y0121250D02*
X0187470Y0126750D01*
X0185700Y0121250D02*
X0184340Y0121250D01*
X0184340Y0126750D01*
X0185700Y0126750D01*
X0185700Y0121250D01*
X0184910Y0121250D02*
X0184910Y0126750D01*
X0183140Y0121250D02*
X0181780Y0121250D01*
X0181780Y0126750D01*
X0183140Y0126750D01*
X0183140Y0121250D01*
X0182350Y0121250D02*
X0182350Y0126750D01*
X0180580Y0121250D02*
X0179220Y0121250D01*
X0179220Y0126750D01*
X0180580Y0126750D01*
X0180580Y0121250D01*
X0179790Y0121250D02*
X0179790Y0126750D01*
X0178020Y0121250D02*
X0176660Y0121250D01*
X0176660Y0126750D01*
X0178020Y0126750D01*
X0178020Y0121250D01*
X0177230Y0121250D02*
X0177230Y0126750D01*
X0175460Y0121250D02*
X0174100Y0121250D01*
X0174100Y0126750D01*
X0175460Y0126750D01*
X0175460Y0121250D01*
X0174670Y0121250D02*
X0174670Y0126750D01*
X0172900Y0121250D02*
X0171540Y0121250D01*
X0171540Y0126750D01*
X0172900Y0126750D01*
X0172900Y0121250D01*
X0172110Y0121250D02*
X0172110Y0126750D01*
X0170350Y0121250D02*
X0168990Y0121250D01*
X0168990Y0126750D01*
X0170350Y0126750D01*
X0170350Y0121250D01*
X0169560Y0121250D02*
X0169560Y0126750D01*
X0167790Y0121250D02*
X0166430Y0121250D01*
X0166430Y0126750D01*
X0167790Y0126750D01*
X0167790Y0121250D01*
X0167000Y0121250D02*
X0167000Y0126750D01*
X0165230Y0121250D02*
X0163870Y0121250D01*
X0163870Y0126750D01*
X0165230Y0126750D01*
X0165230Y0121250D01*
X0164440Y0121250D02*
X0164440Y0126750D01*
X0162670Y0121250D02*
X0161310Y0121250D01*
X0161310Y0126750D01*
X0162670Y0126750D01*
X0162670Y0121250D01*
X0161880Y0121250D02*
X0161880Y0126750D01*
X0162670Y0092460D02*
X0161310Y0092460D01*
X0161310Y0097960D01*
X0162670Y0097960D01*
X0162670Y0092460D01*
X0161880Y0092460D02*
X0161880Y0097960D01*
X0163870Y0092460D02*
X0165230Y0092460D01*
X0163870Y0092460D02*
X0163870Y0097960D01*
X0165230Y0097960D01*
X0165230Y0092460D01*
X0164440Y0092460D02*
X0164440Y0097960D01*
X0166430Y0092460D02*
X0167790Y0092460D01*
X0166430Y0092460D02*
X0166430Y0097960D01*
X0167790Y0097960D01*
X0167790Y0092460D01*
X0167000Y0092460D02*
X0167000Y0097960D01*
X0168990Y0092460D02*
X0170350Y0092460D01*
X0168990Y0092460D02*
X0168990Y0097960D01*
X0170350Y0097960D01*
X0170350Y0092460D01*
X0169560Y0092460D02*
X0169560Y0097960D01*
X0171540Y0092460D02*
X0172900Y0092460D01*
X0171540Y0092460D02*
X0171540Y0097960D01*
X0172900Y0097960D01*
X0172900Y0092460D01*
X0172110Y0092460D02*
X0172110Y0097960D01*
X0174100Y0092460D02*
X0175460Y0092460D01*
X0174100Y0092460D02*
X0174100Y0097960D01*
X0175460Y0097960D01*
X0175460Y0092460D01*
X0174670Y0092460D02*
X0174670Y0097960D01*
X0176660Y0092460D02*
X0178020Y0092460D01*
X0176660Y0092460D02*
X0176660Y0097960D01*
X0178020Y0097960D01*
X0178020Y0092460D01*
X0177230Y0092460D02*
X0177230Y0097960D01*
X0179220Y0092460D02*
X0180580Y0092460D01*
X0179220Y0092460D02*
X0179220Y0097960D01*
X0180580Y0097960D01*
X0180580Y0092460D01*
X0179790Y0092460D02*
X0179790Y0097960D01*
X0181780Y0092460D02*
X0183140Y0092460D01*
X0181780Y0092460D02*
X0181780Y0097960D01*
X0183140Y0097960D01*
X0183140Y0092460D01*
X0182350Y0092460D02*
X0182350Y0097960D01*
X0184340Y0092460D02*
X0185700Y0092460D01*
X0184340Y0092460D02*
X0184340Y0097960D01*
X0185700Y0097960D01*
X0185700Y0092460D01*
X0184910Y0092460D02*
X0184910Y0097960D01*
X0186900Y0092460D02*
X0188260Y0092460D01*
X0186900Y0092460D02*
X0186900Y0097960D01*
X0188260Y0097960D01*
X0188260Y0092460D01*
X0187470Y0092460D02*
X0187470Y0097960D01*
X0189460Y0092460D02*
X0190820Y0092460D01*
X0189460Y0092460D02*
X0189460Y0097960D01*
X0190820Y0097960D01*
X0190820Y0092460D01*
X0190030Y0092460D02*
X0190030Y0097960D01*
X0192020Y0092460D02*
X0193380Y0092460D01*
X0192020Y0092460D02*
X0192020Y0097960D01*
X0193380Y0097960D01*
X0193380Y0092460D01*
X0192590Y0092460D02*
X0192590Y0097960D01*
X0194580Y0092460D02*
X0195940Y0092460D01*
X0194580Y0092460D02*
X0194580Y0097960D01*
X0195940Y0097960D01*
X0195940Y0092460D01*
X0195150Y0092460D02*
X0195150Y0097960D01*
X0178500Y0059360D02*
X0178500Y0049520D01*
X0176540Y0049520D01*
X0176540Y0059360D01*
X0178500Y0059360D01*
X0177710Y0059360D02*
X0177710Y0049520D01*
X0176920Y0049520D02*
X0176920Y0059360D01*
X0175350Y0059360D02*
X0175350Y0049520D01*
X0173390Y0049520D01*
X0173390Y0059360D01*
X0175350Y0059360D01*
X0174560Y0059360D02*
X0174560Y0049520D01*
X0173770Y0049520D02*
X0173770Y0059360D01*
X0172200Y0059360D02*
X0172200Y0049520D01*
X0170240Y0049520D01*
X0170240Y0059360D01*
X0172200Y0059360D01*
X0171410Y0059360D02*
X0171410Y0049520D01*
X0170620Y0049520D02*
X0170620Y0059360D01*
X0169050Y0059360D02*
X0169050Y0049520D01*
X0167090Y0049520D01*
X0167090Y0059360D01*
X0169050Y0059360D01*
X0168260Y0059360D02*
X0168260Y0049520D01*
X0167470Y0049520D02*
X0167470Y0059360D01*
X0165900Y0059360D02*
X0165900Y0049520D01*
X0163940Y0049520D01*
X0163940Y0059360D01*
X0165900Y0059360D01*
X0165110Y0059360D02*
X0165110Y0049520D01*
X0164320Y0049520D02*
X0164320Y0059360D01*
D493*
X0157410Y0059330D02*
X0157410Y0049550D01*
X0149610Y0049550D01*
X0149610Y0059330D01*
X0157410Y0059330D01*
X0156550Y0059330D02*
X0156550Y0049550D01*
X0155690Y0049550D02*
X0155690Y0059330D01*
X0154830Y0059330D02*
X0154830Y0049550D01*
X0153970Y0049550D02*
X0153970Y0059330D01*
X0153110Y0059330D02*
X0153110Y0049550D01*
X0152250Y0049550D02*
X0152250Y0059330D01*
X0151390Y0059330D02*
X0151390Y0049550D01*
X0150530Y0049550D02*
X0150530Y0059330D01*
X0149670Y0059330D02*
X0149670Y0049550D01*
X0157410Y0037680D02*
X0157410Y0027900D01*
X0149610Y0027900D01*
X0149610Y0037680D01*
X0157410Y0037680D01*
X0156550Y0037680D02*
X0156550Y0027900D01*
X0155690Y0027900D02*
X0155690Y0037680D01*
X0154830Y0037680D02*
X0154830Y0027900D01*
X0153970Y0027900D02*
X0153970Y0037680D01*
X0153110Y0037680D02*
X0153110Y0027900D01*
X0152250Y0027900D02*
X0152250Y0037680D01*
X0151390Y0037680D02*
X0151390Y0027900D01*
X0150530Y0027900D02*
X0150530Y0037680D01*
X0149670Y0037680D02*
X0149670Y0027900D01*
X0192840Y0027900D02*
X0192840Y0037680D01*
X0192840Y0027900D02*
X0185040Y0027900D01*
X0185040Y0037680D01*
X0192840Y0037680D01*
X0191980Y0037680D02*
X0191980Y0027900D01*
X0191120Y0027900D02*
X0191120Y0037680D01*
X0190260Y0037680D02*
X0190260Y0027900D01*
X0189400Y0027900D02*
X0189400Y0037680D01*
X0188540Y0037680D02*
X0188540Y0027900D01*
X0187680Y0027900D02*
X0187680Y0037680D01*
X0186820Y0037680D02*
X0186820Y0027900D01*
X0185960Y0027900D02*
X0185960Y0037680D01*
X0185100Y0037680D02*
X0185100Y0027900D01*
X0192840Y0049550D02*
X0192840Y0059330D01*
X0192840Y0049550D02*
X0185040Y0049550D01*
X0185040Y0059330D01*
X0192840Y0059330D01*
X0191980Y0059330D02*
X0191980Y0049550D01*
X0191120Y0049550D02*
X0191120Y0059330D01*
X0190260Y0059330D02*
X0190260Y0049550D01*
X0189400Y0049550D02*
X0189400Y0059330D01*
X0188540Y0059330D02*
X0188540Y0049550D01*
X0187680Y0049550D02*
X0187680Y0059330D01*
X0186820Y0059330D02*
X0186820Y0049550D01*
X0185960Y0049550D02*
X0185960Y0059330D01*
X0185100Y0059330D02*
X0185100Y0049550D01*
D110*
X0179880Y0044600D03*
X0162560Y0044600D03*
D340*
X0157260Y0086080D02*
X0151000Y0086080D01*
X0151000Y0093120D01*
X0157260Y0093120D01*
X0157260Y0086080D01*
X0156420Y0086080D02*
X0156420Y0093120D01*
X0155580Y0093120D02*
X0155580Y0086080D01*
X0154740Y0086080D02*
X0154740Y0093120D01*
X0153900Y0093120D02*
X0153900Y0086080D01*
X0153060Y0086080D02*
X0153060Y0093120D01*
X0152220Y0093120D02*
X0152220Y0086080D01*
X0151380Y0086080D02*
X0151380Y0093120D01*
X0147140Y0100960D02*
X0147140Y0107220D01*
X0147140Y0100960D02*
X0140100Y0100960D01*
X0140100Y0107220D01*
X0147140Y0107220D01*
X0146300Y0107220D02*
X0146300Y0100960D01*
X0145460Y0100960D02*
X0145460Y0107220D01*
X0144620Y0107220D02*
X0144620Y0100960D01*
X0143780Y0100960D02*
X0143780Y0107220D01*
X0142940Y0107220D02*
X0142940Y0100960D01*
X0142100Y0100960D02*
X0142100Y0107220D01*
X0141260Y0107220D02*
X0141260Y0100960D01*
X0140420Y0100960D02*
X0140420Y0107220D01*
X0147140Y0111980D02*
X0147140Y0118240D01*
X0147140Y0111980D02*
X0140100Y0111980D01*
X0140100Y0118240D01*
X0147140Y0118240D01*
X0146300Y0118240D02*
X0146300Y0111980D01*
X0145460Y0111980D02*
X0145460Y0118240D01*
X0144620Y0118240D02*
X0144620Y0111980D01*
X0143780Y0111980D02*
X0143780Y0118240D01*
X0142940Y0118240D02*
X0142940Y0111980D01*
X0142100Y0111980D02*
X0142100Y0118240D01*
X0141260Y0118240D02*
X0141260Y0111980D01*
X0140420Y0111980D02*
X0140420Y0118240D01*
X0139980Y0086080D02*
X0146240Y0086080D01*
X0139980Y0086080D02*
X0139980Y0093120D01*
X0146240Y0093120D01*
X0146240Y0086080D01*
X0145400Y0086080D02*
X0145400Y0093120D01*
X0144560Y0093120D02*
X0144560Y0086080D01*
X0143720Y0086080D02*
X0143720Y0093120D01*
X0142880Y0093120D02*
X0142880Y0086080D01*
X0142040Y0086080D02*
X0142040Y0093120D01*
X0141200Y0093120D02*
X0141200Y0086080D01*
X0140360Y0086080D02*
X0140360Y0093120D01*
X0165540Y0133960D02*
X0165540Y0140220D01*
X0165540Y0133960D02*
X0158500Y0133960D01*
X0158500Y0140220D01*
X0165540Y0140220D01*
X0164700Y0140220D02*
X0164700Y0133960D01*
X0163860Y0133960D02*
X0163860Y0140220D01*
X0163020Y0140220D02*
X0163020Y0133960D01*
X0162180Y0133960D02*
X0162180Y0140220D01*
X0161340Y0140220D02*
X0161340Y0133960D01*
X0160500Y0133960D02*
X0160500Y0140220D01*
X0159660Y0140220D02*
X0159660Y0133960D01*
X0158820Y0133960D02*
X0158820Y0140220D01*
X0165540Y0144980D02*
X0165540Y0151240D01*
X0165540Y0144980D02*
X0158500Y0144980D01*
X0158500Y0151240D01*
X0165540Y0151240D01*
X0164700Y0151240D02*
X0164700Y0144980D01*
X0163860Y0144980D02*
X0163860Y0151240D01*
X0163020Y0151240D02*
X0163020Y0144980D01*
X0162180Y0144980D02*
X0162180Y0151240D01*
X0161340Y0151240D02*
X0161340Y0144980D01*
X0160500Y0144980D02*
X0160500Y0151240D01*
X0159660Y0151240D02*
X0159660Y0144980D01*
X0158820Y0144980D02*
X0158820Y0151240D01*
X0212140Y0148240D02*
X0212140Y0141980D01*
X0205100Y0141980D01*
X0205100Y0148240D01*
X0212140Y0148240D01*
X0211300Y0148240D02*
X0211300Y0141980D01*
X0210460Y0141980D02*
X0210460Y0148240D01*
X0209620Y0148240D02*
X0209620Y0141980D01*
X0208780Y0141980D02*
X0208780Y0148240D01*
X0207940Y0148240D02*
X0207940Y0141980D01*
X0207100Y0141980D02*
X0207100Y0148240D01*
X0206260Y0148240D02*
X0206260Y0141980D01*
X0205420Y0141980D02*
X0205420Y0148240D01*
X0205100Y0155960D02*
X0205100Y0162220D01*
X0212140Y0162220D01*
X0212140Y0155960D01*
X0205100Y0155960D01*
X0211300Y0155960D02*
X0211300Y0162220D01*
X0210460Y0162220D02*
X0210460Y0155960D01*
X0209620Y0155960D02*
X0209620Y0162220D01*
X0208780Y0162220D02*
X0208780Y0155960D01*
X0207940Y0155960D02*
X0207940Y0162220D01*
X0207100Y0162220D02*
X0207100Y0155960D01*
X0206260Y0155960D02*
X0206260Y0162220D01*
X0205420Y0162220D02*
X0205420Y0155960D01*
X0205100Y0166980D02*
X0205100Y0173240D01*
X0212140Y0173240D01*
X0212140Y0166980D01*
X0205100Y0166980D01*
X0211300Y0166980D02*
X0211300Y0173240D01*
X0210460Y0173240D02*
X0210460Y0166980D01*
X0209620Y0166980D02*
X0209620Y0173240D01*
X0208780Y0173240D02*
X0208780Y0166980D01*
X0207940Y0166980D02*
X0207940Y0173240D01*
X0207100Y0173240D02*
X0207100Y0166980D01*
X0206260Y0166980D02*
X0206260Y0173240D01*
X0205420Y0173240D02*
X0205420Y0166980D01*
X0212140Y0137220D02*
X0212140Y0130960D01*
X0205100Y0130960D01*
X0205100Y0137220D01*
X0212140Y0137220D01*
X0211300Y0137220D02*
X0211300Y0130960D01*
X0210460Y0130960D02*
X0210460Y0137220D01*
X0209620Y0137220D02*
X0209620Y0130960D01*
X0208780Y0130960D02*
X0208780Y0137220D01*
X0207940Y0137220D02*
X0207940Y0130960D01*
X0207100Y0130960D02*
X0207100Y0137220D01*
X0206260Y0137220D02*
X0206260Y0130960D01*
X0205420Y0130960D02*
X0205420Y0137220D01*
X0215100Y0138240D02*
X0215100Y0131980D01*
X0215100Y0138240D02*
X0222140Y0138240D01*
X0222140Y0131980D01*
X0215100Y0131980D01*
X0221300Y0131980D02*
X0221300Y0138240D01*
X0220460Y0138240D02*
X0220460Y0131980D01*
X0219620Y0131980D02*
X0219620Y0138240D01*
X0218780Y0138240D02*
X0218780Y0131980D01*
X0217940Y0131980D02*
X0217940Y0138240D01*
X0217100Y0138240D02*
X0217100Y0131980D01*
X0216260Y0131980D02*
X0216260Y0138240D01*
X0215420Y0138240D02*
X0215420Y0131980D01*
X0215100Y0127220D02*
X0215100Y0120960D01*
X0215100Y0127220D02*
X0222140Y0127220D01*
X0222140Y0120960D01*
X0215100Y0120960D01*
X0221300Y0120960D02*
X0221300Y0127220D01*
X0220460Y0127220D02*
X0220460Y0120960D01*
X0219620Y0120960D02*
X0219620Y0127220D01*
X0218780Y0127220D02*
X0218780Y0120960D01*
X0217940Y0120960D02*
X0217940Y0127220D01*
X0217100Y0127220D02*
X0217100Y0120960D01*
X0216260Y0120960D02*
X0216260Y0127220D01*
X0215420Y0127220D02*
X0215420Y0120960D01*
X0220100Y0160960D02*
X0220100Y0167220D01*
X0227140Y0167220D01*
X0227140Y0160960D01*
X0220100Y0160960D01*
X0226300Y0160960D02*
X0226300Y0167220D01*
X0225460Y0167220D02*
X0225460Y0160960D01*
X0224620Y0160960D02*
X0224620Y0167220D01*
X0223780Y0167220D02*
X0223780Y0160960D01*
X0222940Y0160960D02*
X0222940Y0167220D01*
X0222100Y0167220D02*
X0222100Y0160960D01*
X0221260Y0160960D02*
X0221260Y0167220D01*
X0220420Y0167220D02*
X0220420Y0160960D01*
X0220100Y0171980D02*
X0220100Y0178240D01*
X0227140Y0178240D01*
X0227140Y0171980D01*
X0220100Y0171980D01*
X0226300Y0171980D02*
X0226300Y0178240D01*
X0225460Y0178240D02*
X0225460Y0171980D01*
X0224620Y0171980D02*
X0224620Y0178240D01*
X0223780Y0178240D02*
X0223780Y0171980D01*
X0222940Y0171980D02*
X0222940Y0178240D01*
X0222100Y0178240D02*
X0222100Y0171980D01*
X0221260Y0171980D02*
X0221260Y0178240D01*
X0220420Y0178240D02*
X0220420Y0171980D01*
D371*
X0151390Y0077740D02*
X0151390Y0071460D01*
X0151390Y0077740D02*
X0156870Y0077740D01*
X0156870Y0071460D01*
X0151390Y0071460D01*
X0156060Y0071460D02*
X0156060Y0077740D01*
X0155250Y0077740D02*
X0155250Y0071460D01*
X0154440Y0071460D02*
X0154440Y0077740D01*
X0153630Y0077740D02*
X0153630Y0071460D01*
X0152820Y0071460D02*
X0152820Y0077740D01*
X0152010Y0077740D02*
X0152010Y0071460D01*
X0140370Y0071460D02*
X0140370Y0077740D01*
X0145850Y0077740D01*
X0145850Y0071460D01*
X0140370Y0071460D01*
X0145040Y0071460D02*
X0145040Y0077740D01*
X0144230Y0077740D02*
X0144230Y0071460D01*
X0143420Y0071460D02*
X0143420Y0077740D01*
X0142610Y0077740D02*
X0142610Y0071460D01*
X0141800Y0071460D02*
X0141800Y0077740D01*
X0140990Y0077740D02*
X0140990Y0071460D01*
D598*
X0150670Y0099760D02*
X0156570Y0099760D01*
X0150670Y0099760D02*
X0150670Y0105660D01*
X0156570Y0105660D01*
X0156570Y0099760D01*
X0155780Y0099760D02*
X0155780Y0105660D01*
X0154990Y0105660D02*
X0154990Y0099760D01*
X0154200Y0099760D02*
X0154200Y0105660D01*
X0153410Y0105660D02*
X0153410Y0099760D01*
X0152620Y0099760D02*
X0152620Y0105660D01*
X0151830Y0105660D02*
X0151830Y0099760D01*
X0151040Y0099760D02*
X0151040Y0105660D01*
X0150670Y0113540D02*
X0156570Y0113540D01*
X0150670Y0113540D02*
X0150670Y0119440D01*
X0156570Y0119440D01*
X0156570Y0113540D01*
X0155780Y0113540D02*
X0155780Y0119440D01*
X0154990Y0119440D02*
X0154990Y0113540D01*
X0154200Y0113540D02*
X0154200Y0119440D01*
X0153410Y0119440D02*
X0153410Y0113540D01*
X0152620Y0113540D02*
X0152620Y0119440D01*
X0151830Y0119440D02*
X0151830Y0113540D01*
X0151040Y0113540D02*
X0151040Y0119440D01*
X0207670Y0119440D02*
X0213570Y0119440D01*
X0213570Y0113540D01*
X0207670Y0113540D01*
X0207670Y0119440D01*
X0212780Y0119440D02*
X0212780Y0113540D01*
X0211990Y0113540D02*
X0211990Y0119440D01*
X0211200Y0119440D02*
X0211200Y0113540D01*
X0210410Y0113540D02*
X0210410Y0119440D01*
X0209620Y0119440D02*
X0209620Y0113540D01*
X0208830Y0113540D02*
X0208830Y0119440D01*
X0208040Y0119440D02*
X0208040Y0113540D01*
X0207670Y0105660D02*
X0213570Y0105660D01*
X0213570Y0099760D01*
X0207670Y0099760D01*
X0207670Y0105660D01*
X0212780Y0105660D02*
X0212780Y0099760D01*
X0211990Y0099760D02*
X0211990Y0105660D01*
X0211200Y0105660D02*
X0211200Y0099760D01*
X0210410Y0099760D02*
X0210410Y0105660D01*
X0209620Y0105660D02*
X0209620Y0099760D01*
X0208830Y0099760D02*
X0208830Y0105660D01*
X0208040Y0105660D02*
X0208040Y0099760D01*
D166*
X0206720Y0203000D03*
X0201720Y0213000D03*
X0196720Y0203000D03*
X0191720Y0213000D03*
X0186720Y0203000D03*
X0181720Y0213000D03*
X0176720Y0203000D03*
X0155820Y0179600D03*
X0155820Y0169600D03*
X0148420Y0140000D03*
X0148420Y0130000D03*
D371*
X0175510Y0153310D02*
X0175510Y0155890D01*
X0175510Y0153310D02*
X0167530Y0153310D01*
X0167530Y0155890D01*
X0175510Y0155890D01*
X0174700Y0155890D02*
X0174700Y0153310D01*
X0173890Y0153310D02*
X0173890Y0155890D01*
X0173080Y0155890D02*
X0173080Y0153310D01*
X0172270Y0153310D02*
X0172270Y0155890D01*
X0171460Y0155890D02*
X0171460Y0153310D01*
X0170650Y0153310D02*
X0170650Y0155890D01*
X0169840Y0155890D02*
X0169840Y0153310D01*
X0169030Y0153310D02*
X0169030Y0155890D01*
X0168220Y0155890D02*
X0168220Y0153310D01*
X0175510Y0158310D02*
X0175510Y0160890D01*
X0175510Y0158310D02*
X0167530Y0158310D01*
X0167530Y0160890D01*
X0175510Y0160890D01*
X0174700Y0160890D02*
X0174700Y0158310D01*
X0173890Y0158310D02*
X0173890Y0160890D01*
X0173080Y0160890D02*
X0173080Y0158310D01*
X0172270Y0158310D02*
X0172270Y0160890D01*
X0171460Y0160890D02*
X0171460Y0158310D01*
X0170650Y0158310D02*
X0170650Y0160890D01*
X0169840Y0160890D02*
X0169840Y0158310D01*
X0169030Y0158310D02*
X0169030Y0160890D01*
X0168220Y0160890D02*
X0168220Y0158310D01*
X0175510Y0163310D02*
X0175510Y0165890D01*
X0175510Y0163310D02*
X0167530Y0163310D01*
X0167530Y0165890D01*
X0175510Y0165890D01*
X0174700Y0165890D02*
X0174700Y0163310D01*
X0173890Y0163310D02*
X0173890Y0165890D01*
X0173080Y0165890D02*
X0173080Y0163310D01*
X0172270Y0163310D02*
X0172270Y0165890D01*
X0171460Y0165890D02*
X0171460Y0163310D01*
X0170650Y0163310D02*
X0170650Y0165890D01*
X0169840Y0165890D02*
X0169840Y0163310D01*
X0169030Y0163310D02*
X0169030Y0165890D01*
X0168220Y0165890D02*
X0168220Y0163310D01*
X0175510Y0168310D02*
X0175510Y0170890D01*
X0175510Y0168310D02*
X0167530Y0168310D01*
X0167530Y0170890D01*
X0175510Y0170890D01*
X0174700Y0170890D02*
X0174700Y0168310D01*
X0173890Y0168310D02*
X0173890Y0170890D01*
X0173080Y0170890D02*
X0173080Y0168310D01*
X0172270Y0168310D02*
X0172270Y0170890D01*
X0171460Y0170890D02*
X0171460Y0168310D01*
X0170650Y0168310D02*
X0170650Y0170890D01*
X0169840Y0170890D02*
X0169840Y0168310D01*
X0169030Y0168310D02*
X0169030Y0170890D01*
X0168220Y0170890D02*
X0168220Y0168310D01*
X0175510Y0173310D02*
X0175510Y0175890D01*
X0175510Y0173310D02*
X0167530Y0173310D01*
X0167530Y0175890D01*
X0175510Y0175890D01*
X0174700Y0175890D02*
X0174700Y0173310D01*
X0173890Y0173310D02*
X0173890Y0175890D01*
X0173080Y0175890D02*
X0173080Y0173310D01*
X0172270Y0173310D02*
X0172270Y0175890D01*
X0171460Y0175890D02*
X0171460Y0173310D01*
X0170650Y0173310D02*
X0170650Y0175890D01*
X0169840Y0175890D02*
X0169840Y0173310D01*
X0169030Y0173310D02*
X0169030Y0175890D01*
X0168220Y0175890D02*
X0168220Y0173310D01*
X0175510Y0178310D02*
X0175510Y0180890D01*
X0175510Y0178310D02*
X0167530Y0178310D01*
X0167530Y0180890D01*
X0175510Y0180890D01*
X0174700Y0180890D02*
X0174700Y0178310D01*
X0173890Y0178310D02*
X0173890Y0180890D01*
X0173080Y0180890D02*
X0173080Y0178310D01*
X0172270Y0178310D02*
X0172270Y0180890D01*
X0171460Y0180890D02*
X0171460Y0178310D01*
X0170650Y0178310D02*
X0170650Y0180890D01*
X0169840Y0180890D02*
X0169840Y0178310D01*
X0169030Y0178310D02*
X0169030Y0180890D01*
X0168220Y0180890D02*
X0168220Y0178310D01*
X0175510Y0183310D02*
X0175510Y0185890D01*
X0175510Y0183310D02*
X0167530Y0183310D01*
X0167530Y0185890D01*
X0175510Y0185890D01*
X0174700Y0185890D02*
X0174700Y0183310D01*
X0173890Y0183310D02*
X0173890Y0185890D01*
X0173080Y0185890D02*
X0173080Y0183310D01*
X0172270Y0183310D02*
X0172270Y0185890D01*
X0171460Y0185890D02*
X0171460Y0183310D01*
X0170650Y0183310D02*
X0170650Y0185890D01*
X0169840Y0185890D02*
X0169840Y0183310D01*
X0169030Y0183310D02*
X0169030Y0185890D01*
X0168220Y0185890D02*
X0168220Y0183310D01*
X0199710Y0183310D02*
X0199710Y0185890D01*
X0199710Y0183310D02*
X0191730Y0183310D01*
X0191730Y0185890D01*
X0199710Y0185890D01*
X0198900Y0185890D02*
X0198900Y0183310D01*
X0198090Y0183310D02*
X0198090Y0185890D01*
X0197280Y0185890D02*
X0197280Y0183310D01*
X0196470Y0183310D02*
X0196470Y0185890D01*
X0195660Y0185890D02*
X0195660Y0183310D01*
X0194850Y0183310D02*
X0194850Y0185890D01*
X0194040Y0185890D02*
X0194040Y0183310D01*
X0193230Y0183310D02*
X0193230Y0185890D01*
X0192420Y0185890D02*
X0192420Y0183310D01*
X0199710Y0180890D02*
X0199710Y0178310D01*
X0191730Y0178310D01*
X0191730Y0180890D01*
X0199710Y0180890D01*
X0198900Y0180890D02*
X0198900Y0178310D01*
X0198090Y0178310D02*
X0198090Y0180890D01*
X0197280Y0180890D02*
X0197280Y0178310D01*
X0196470Y0178310D02*
X0196470Y0180890D01*
X0195660Y0180890D02*
X0195660Y0178310D01*
X0194850Y0178310D02*
X0194850Y0180890D01*
X0194040Y0180890D02*
X0194040Y0178310D01*
X0193230Y0178310D02*
X0193230Y0180890D01*
X0192420Y0180890D02*
X0192420Y0178310D01*
X0199710Y0175890D02*
X0199710Y0173310D01*
X0191730Y0173310D01*
X0191730Y0175890D01*
X0199710Y0175890D01*
X0198900Y0175890D02*
X0198900Y0173310D01*
X0198090Y0173310D02*
X0198090Y0175890D01*
X0197280Y0175890D02*
X0197280Y0173310D01*
X0196470Y0173310D02*
X0196470Y0175890D01*
X0195660Y0175890D02*
X0195660Y0173310D01*
X0194850Y0173310D02*
X0194850Y0175890D01*
X0194040Y0175890D02*
X0194040Y0173310D01*
X0193230Y0173310D02*
X0193230Y0175890D01*
X0192420Y0175890D02*
X0192420Y0173310D01*
X0199710Y0170890D02*
X0199710Y0168310D01*
X0191730Y0168310D01*
X0191730Y0170890D01*
X0199710Y0170890D01*
X0198900Y0170890D02*
X0198900Y0168310D01*
X0198090Y0168310D02*
X0198090Y0170890D01*
X0197280Y0170890D02*
X0197280Y0168310D01*
X0196470Y0168310D02*
X0196470Y0170890D01*
X0195660Y0170890D02*
X0195660Y0168310D01*
X0194850Y0168310D02*
X0194850Y0170890D01*
X0194040Y0170890D02*
X0194040Y0168310D01*
X0193230Y0168310D02*
X0193230Y0170890D01*
X0192420Y0170890D02*
X0192420Y0168310D01*
X0199710Y0165890D02*
X0199710Y0163310D01*
X0191730Y0163310D01*
X0191730Y0165890D01*
X0199710Y0165890D01*
X0198900Y0165890D02*
X0198900Y0163310D01*
X0198090Y0163310D02*
X0198090Y0165890D01*
X0197280Y0165890D02*
X0197280Y0163310D01*
X0196470Y0163310D02*
X0196470Y0165890D01*
X0195660Y0165890D02*
X0195660Y0163310D01*
X0194850Y0163310D02*
X0194850Y0165890D01*
X0194040Y0165890D02*
X0194040Y0163310D01*
X0193230Y0163310D02*
X0193230Y0165890D01*
X0192420Y0165890D02*
X0192420Y0163310D01*
X0199710Y0160890D02*
X0199710Y0158310D01*
X0191730Y0158310D01*
X0191730Y0160890D01*
X0199710Y0160890D01*
X0198900Y0160890D02*
X0198900Y0158310D01*
X0198090Y0158310D02*
X0198090Y0160890D01*
X0197280Y0160890D02*
X0197280Y0158310D01*
X0196470Y0158310D02*
X0196470Y0160890D01*
X0195660Y0160890D02*
X0195660Y0158310D01*
X0194850Y0158310D02*
X0194850Y0160890D01*
X0194040Y0160890D02*
X0194040Y0158310D01*
X0193230Y0158310D02*
X0193230Y0160890D01*
X0192420Y0160890D02*
X0192420Y0158310D01*
X0199710Y0155890D02*
X0199710Y0153310D01*
X0191730Y0153310D01*
X0191730Y0155890D01*
X0199710Y0155890D01*
X0198900Y0155890D02*
X0198900Y0153310D01*
X0198090Y0153310D02*
X0198090Y0155890D01*
X0197280Y0155890D02*
X0197280Y0153310D01*
X0196470Y0153310D02*
X0196470Y0155890D01*
X0195660Y0155890D02*
X0195660Y0153310D01*
X0194850Y0153310D02*
X0194850Y0155890D01*
X0194040Y0155890D02*
X0194040Y0153310D01*
X0193230Y0153310D02*
X0193230Y0155890D01*
X0192420Y0155890D02*
X0192420Y0153310D01*
D366*
X0171720Y0238000D03*
X0216720Y0238000D03*
D286*
X0211720Y0213000D03*
D463*
X0213820Y0074940D03*
X0213820Y0051320D03*
X0232330Y0063130D03*
D28*
X0199220Y0135200D03*
X0191420Y0112200D03*
X0195620Y0105600D03*
X0183620Y0112400D03*
X0188420Y0131600D03*
X0175220Y0112400D03*
X0174020Y0105200D03*
X0162020Y0130400D03*
X0160820Y0088400D03*
X0168220Y0067800D03*
X0174220Y0068000D03*
X0186020Y0174800D03*
D688*
X0163620Y0175000D03*
X0250120Y0020000D02*
G75*
%LPD*%
D263*
X0353880Y0024800D03*
X0255480Y0026000D03*
X0255480Y0276800D03*
X0353880Y0276800D03*
D598*
X0311000Y0121250D02*
X0309640Y0121250D01*
X0309640Y0126750D01*
X0311000Y0126750D01*
X0311000Y0121250D01*
X0310210Y0121250D02*
X0310210Y0126750D01*
X0308440Y0121250D02*
X0307080Y0121250D01*
X0307080Y0126750D01*
X0308440Y0126750D01*
X0308440Y0121250D01*
X0307650Y0121250D02*
X0307650Y0126750D01*
X0305880Y0121250D02*
X0304520Y0121250D01*
X0304520Y0126750D01*
X0305880Y0126750D01*
X0305880Y0121250D01*
X0305090Y0121250D02*
X0305090Y0126750D01*
X0303320Y0121250D02*
X0301960Y0121250D01*
X0301960Y0126750D01*
X0303320Y0126750D01*
X0303320Y0121250D01*
X0302530Y0121250D02*
X0302530Y0126750D01*
X0300760Y0121250D02*
X0299400Y0121250D01*
X0299400Y0126750D01*
X0300760Y0126750D01*
X0300760Y0121250D01*
X0299970Y0121250D02*
X0299970Y0126750D01*
X0298200Y0121250D02*
X0296840Y0121250D01*
X0296840Y0126750D01*
X0298200Y0126750D01*
X0298200Y0121250D01*
X0297410Y0121250D02*
X0297410Y0126750D01*
X0295640Y0121250D02*
X0294280Y0121250D01*
X0294280Y0126750D01*
X0295640Y0126750D01*
X0295640Y0121250D01*
X0294850Y0121250D02*
X0294850Y0126750D01*
X0293080Y0121250D02*
X0291720Y0121250D01*
X0291720Y0126750D01*
X0293080Y0126750D01*
X0293080Y0121250D01*
X0292290Y0121250D02*
X0292290Y0126750D01*
X0290520Y0121250D02*
X0289160Y0121250D01*
X0289160Y0126750D01*
X0290520Y0126750D01*
X0290520Y0121250D01*
X0289730Y0121250D02*
X0289730Y0126750D01*
X0287960Y0121250D02*
X0286600Y0121250D01*
X0286600Y0126750D01*
X0287960Y0126750D01*
X0287960Y0121250D01*
X0287170Y0121250D02*
X0287170Y0126750D01*
X0285410Y0121250D02*
X0284050Y0121250D01*
X0284050Y0126750D01*
X0285410Y0126750D01*
X0285410Y0121250D01*
X0284620Y0121250D02*
X0284620Y0126750D01*
X0282850Y0121250D02*
X0281490Y0121250D01*
X0281490Y0126750D01*
X0282850Y0126750D01*
X0282850Y0121250D01*
X0282060Y0121250D02*
X0282060Y0126750D01*
X0280290Y0121250D02*
X0278930Y0121250D01*
X0278930Y0126750D01*
X0280290Y0126750D01*
X0280290Y0121250D01*
X0279500Y0121250D02*
X0279500Y0126750D01*
X0277730Y0121250D02*
X0276370Y0121250D01*
X0276370Y0126750D01*
X0277730Y0126750D01*
X0277730Y0121250D01*
X0276940Y0121250D02*
X0276940Y0126750D01*
X0277730Y0092460D02*
X0276370Y0092460D01*
X0276370Y0097960D01*
X0277730Y0097960D01*
X0277730Y0092460D01*
X0276940Y0092460D02*
X0276940Y0097960D01*
X0278930Y0092460D02*
X0280290Y0092460D01*
X0278930Y0092460D02*
X0278930Y0097960D01*
X0280290Y0097960D01*
X0280290Y0092460D01*
X0279500Y0092460D02*
X0279500Y0097960D01*
X0281490Y0092460D02*
X0282850Y0092460D01*
X0281490Y0092460D02*
X0281490Y0097960D01*
X0282850Y0097960D01*
X0282850Y0092460D01*
X0282060Y0092460D02*
X0282060Y0097960D01*
X0284050Y0092460D02*
X0285410Y0092460D01*
X0284050Y0092460D02*
X0284050Y0097960D01*
X0285410Y0097960D01*
X0285410Y0092460D01*
X0284620Y0092460D02*
X0284620Y0097960D01*
X0286600Y0092460D02*
X0287960Y0092460D01*
X0286600Y0092460D02*
X0286600Y0097960D01*
X0287960Y0097960D01*
X0287960Y0092460D01*
X0287170Y0092460D02*
X0287170Y0097960D01*
X0289160Y0092460D02*
X0290520Y0092460D01*
X0289160Y0092460D02*
X0289160Y0097960D01*
X0290520Y0097960D01*
X0290520Y0092460D01*
X0289730Y0092460D02*
X0289730Y0097960D01*
X0291720Y0092460D02*
X0293080Y0092460D01*
X0291720Y0092460D02*
X0291720Y0097960D01*
X0293080Y0097960D01*
X0293080Y0092460D01*
X0292290Y0092460D02*
X0292290Y0097960D01*
X0294280Y0092460D02*
X0295640Y0092460D01*
X0294280Y0092460D02*
X0294280Y0097960D01*
X0295640Y0097960D01*
X0295640Y0092460D01*
X0294850Y0092460D02*
X0294850Y0097960D01*
X0296840Y0092460D02*
X0298200Y0092460D01*
X0296840Y0092460D02*
X0296840Y0097960D01*
X0298200Y0097960D01*
X0298200Y0092460D01*
X0297410Y0092460D02*
X0297410Y0097960D01*
X0299400Y0092460D02*
X0300760Y0092460D01*
X0299400Y0092460D02*
X0299400Y0097960D01*
X0300760Y0097960D01*
X0300760Y0092460D01*
X0299970Y0092460D02*
X0299970Y0097960D01*
X0301960Y0092460D02*
X0303320Y0092460D01*
X0301960Y0092460D02*
X0301960Y0097960D01*
X0303320Y0097960D01*
X0303320Y0092460D01*
X0302530Y0092460D02*
X0302530Y0097960D01*
X0304520Y0092460D02*
X0305880Y0092460D01*
X0304520Y0092460D02*
X0304520Y0097960D01*
X0305880Y0097960D01*
X0305880Y0092460D01*
X0305090Y0092460D02*
X0305090Y0097960D01*
X0307080Y0092460D02*
X0308440Y0092460D01*
X0307080Y0092460D02*
X0307080Y0097960D01*
X0308440Y0097960D01*
X0308440Y0092460D01*
X0307650Y0092460D02*
X0307650Y0097960D01*
X0309640Y0092460D02*
X0311000Y0092460D01*
X0309640Y0092460D02*
X0309640Y0097960D01*
X0311000Y0097960D01*
X0311000Y0092460D01*
X0310210Y0092460D02*
X0310210Y0097960D01*
X0293560Y0059360D02*
X0293560Y0049520D01*
X0291600Y0049520D01*
X0291600Y0059360D01*
X0293560Y0059360D01*
X0292770Y0059360D02*
X0292770Y0049520D01*
X0291980Y0049520D02*
X0291980Y0059360D01*
X0290410Y0059360D02*
X0290410Y0049520D01*
X0288450Y0049520D01*
X0288450Y0059360D01*
X0290410Y0059360D01*
X0289620Y0059360D02*
X0289620Y0049520D01*
X0288830Y0049520D02*
X0288830Y0059360D01*
X0287260Y0059360D02*
X0287260Y0049520D01*
X0285300Y0049520D01*
X0285300Y0059360D01*
X0287260Y0059360D01*
X0286470Y0059360D02*
X0286470Y0049520D01*
X0285680Y0049520D02*
X0285680Y0059360D01*
X0284110Y0059360D02*
X0284110Y0049520D01*
X0282150Y0049520D01*
X0282150Y0059360D01*
X0284110Y0059360D01*
X0283320Y0059360D02*
X0283320Y0049520D01*
X0282530Y0049520D02*
X0282530Y0059360D01*
X0280960Y0059360D02*
X0280960Y0049520D01*
X0279000Y0049520D01*
X0279000Y0059360D01*
X0280960Y0059360D01*
X0280170Y0059360D02*
X0280170Y0049520D01*
X0279380Y0049520D02*
X0279380Y0059360D01*
D493*
X0272470Y0059330D02*
X0272470Y0049550D01*
X0264670Y0049550D01*
X0264670Y0059330D01*
X0272470Y0059330D01*
X0271610Y0059330D02*
X0271610Y0049550D01*
X0270750Y0049550D02*
X0270750Y0059330D01*
X0269890Y0059330D02*
X0269890Y0049550D01*
X0269030Y0049550D02*
X0269030Y0059330D01*
X0268170Y0059330D02*
X0268170Y0049550D01*
X0267310Y0049550D02*
X0267310Y0059330D01*
X0266450Y0059330D02*
X0266450Y0049550D01*
X0265590Y0049550D02*
X0265590Y0059330D01*
X0264730Y0059330D02*
X0264730Y0049550D01*
X0272470Y0037680D02*
X0272470Y0027900D01*
X0264670Y0027900D01*
X0264670Y0037680D01*
X0272470Y0037680D01*
X0271610Y0037680D02*
X0271610Y0027900D01*
X0270750Y0027900D02*
X0270750Y0037680D01*
X0269890Y0037680D02*
X0269890Y0027900D01*
X0269030Y0027900D02*
X0269030Y0037680D01*
X0268170Y0037680D02*
X0268170Y0027900D01*
X0267310Y0027900D02*
X0267310Y0037680D01*
X0266450Y0037680D02*
X0266450Y0027900D01*
X0265590Y0027900D02*
X0265590Y0037680D01*
X0264730Y0037680D02*
X0264730Y0027900D01*
X0307900Y0027900D02*
X0307900Y0037680D01*
X0307900Y0027900D02*
X0300100Y0027900D01*
X0300100Y0037680D01*
X0307900Y0037680D01*
X0307040Y0037680D02*
X0307040Y0027900D01*
X0306180Y0027900D02*
X0306180Y0037680D01*
X0305320Y0037680D02*
X0305320Y0027900D01*
X0304460Y0027900D02*
X0304460Y0037680D01*
X0303600Y0037680D02*
X0303600Y0027900D01*
X0302740Y0027900D02*
X0302740Y0037680D01*
X0301880Y0037680D02*
X0301880Y0027900D01*
X0301020Y0027900D02*
X0301020Y0037680D01*
X0300160Y0037680D02*
X0300160Y0027900D01*
X0307900Y0049550D02*
X0307900Y0059330D01*
X0307900Y0049550D02*
X0300100Y0049550D01*
X0300100Y0059330D01*
X0307900Y0059330D01*
X0307040Y0059330D02*
X0307040Y0049550D01*
X0306180Y0049550D02*
X0306180Y0059330D01*
X0305320Y0059330D02*
X0305320Y0049550D01*
X0304460Y0049550D02*
X0304460Y0059330D01*
X0303600Y0059330D02*
X0303600Y0049550D01*
X0302740Y0049550D02*
X0302740Y0059330D01*
X0301880Y0059330D02*
X0301880Y0049550D01*
X0301020Y0049550D02*
X0301020Y0059330D01*
X0300160Y0059330D02*
X0300160Y0049550D01*
D110*
X0294940Y0044600D03*
X0277620Y0044600D03*
D340*
X0272320Y0086080D02*
X0266060Y0086080D01*
X0266060Y0093120D01*
X0272320Y0093120D01*
X0272320Y0086080D01*
X0271480Y0086080D02*
X0271480Y0093120D01*
X0270640Y0093120D02*
X0270640Y0086080D01*
X0269800Y0086080D02*
X0269800Y0093120D01*
X0268960Y0093120D02*
X0268960Y0086080D01*
X0268120Y0086080D02*
X0268120Y0093120D01*
X0267280Y0093120D02*
X0267280Y0086080D01*
X0266440Y0086080D02*
X0266440Y0093120D01*
X0262200Y0100960D02*
X0262200Y0107220D01*
X0262200Y0100960D02*
X0255160Y0100960D01*
X0255160Y0107220D01*
X0262200Y0107220D01*
X0261360Y0107220D02*
X0261360Y0100960D01*
X0260520Y0100960D02*
X0260520Y0107220D01*
X0259680Y0107220D02*
X0259680Y0100960D01*
X0258840Y0100960D02*
X0258840Y0107220D01*
X0258000Y0107220D02*
X0258000Y0100960D01*
X0257160Y0100960D02*
X0257160Y0107220D01*
X0256320Y0107220D02*
X0256320Y0100960D01*
X0255480Y0100960D02*
X0255480Y0107220D01*
X0262200Y0111980D02*
X0262200Y0118240D01*
X0262200Y0111980D02*
X0255160Y0111980D01*
X0255160Y0118240D01*
X0262200Y0118240D01*
X0261360Y0118240D02*
X0261360Y0111980D01*
X0260520Y0111980D02*
X0260520Y0118240D01*
X0259680Y0118240D02*
X0259680Y0111980D01*
X0258840Y0111980D02*
X0258840Y0118240D01*
X0258000Y0118240D02*
X0258000Y0111980D01*
X0257160Y0111980D02*
X0257160Y0118240D01*
X0256320Y0118240D02*
X0256320Y0111980D01*
X0255480Y0111980D02*
X0255480Y0118240D01*
X0255040Y0086080D02*
X0261300Y0086080D01*
X0255040Y0086080D02*
X0255040Y0093120D01*
X0261300Y0093120D01*
X0261300Y0086080D01*
X0260460Y0086080D02*
X0260460Y0093120D01*
X0259620Y0093120D02*
X0259620Y0086080D01*
X0258780Y0086080D02*
X0258780Y0093120D01*
X0257940Y0093120D02*
X0257940Y0086080D01*
X0257100Y0086080D02*
X0257100Y0093120D01*
X0256260Y0093120D02*
X0256260Y0086080D01*
X0255420Y0086080D02*
X0255420Y0093120D01*
X0280600Y0133960D02*
X0280600Y0140220D01*
X0280600Y0133960D02*
X0273560Y0133960D01*
X0273560Y0140220D01*
X0280600Y0140220D01*
X0279760Y0140220D02*
X0279760Y0133960D01*
X0278920Y0133960D02*
X0278920Y0140220D01*
X0278080Y0140220D02*
X0278080Y0133960D01*
X0277240Y0133960D02*
X0277240Y0140220D01*
X0276400Y0140220D02*
X0276400Y0133960D01*
X0275560Y0133960D02*
X0275560Y0140220D01*
X0274720Y0140220D02*
X0274720Y0133960D01*
X0273880Y0133960D02*
X0273880Y0140220D01*
X0280600Y0144980D02*
X0280600Y0151240D01*
X0280600Y0144980D02*
X0273560Y0144980D01*
X0273560Y0151240D01*
X0280600Y0151240D01*
X0279760Y0151240D02*
X0279760Y0144980D01*
X0278920Y0144980D02*
X0278920Y0151240D01*
X0278080Y0151240D02*
X0278080Y0144980D01*
X0277240Y0144980D02*
X0277240Y0151240D01*
X0276400Y0151240D02*
X0276400Y0144980D01*
X0275560Y0144980D02*
X0275560Y0151240D01*
X0274720Y0151240D02*
X0274720Y0144980D01*
X0273880Y0144980D02*
X0273880Y0151240D01*
X0327200Y0148240D02*
X0327200Y0141980D01*
X0320160Y0141980D01*
X0320160Y0148240D01*
X0327200Y0148240D01*
X0326360Y0148240D02*
X0326360Y0141980D01*
X0325520Y0141980D02*
X0325520Y0148240D01*
X0324680Y0148240D02*
X0324680Y0141980D01*
X0323840Y0141980D02*
X0323840Y0148240D01*
X0323000Y0148240D02*
X0323000Y0141980D01*
X0322160Y0141980D02*
X0322160Y0148240D01*
X0321320Y0148240D02*
X0321320Y0141980D01*
X0320480Y0141980D02*
X0320480Y0148240D01*
X0320160Y0155960D02*
X0320160Y0162220D01*
X0327200Y0162220D01*
X0327200Y0155960D01*
X0320160Y0155960D01*
X0326360Y0155960D02*
X0326360Y0162220D01*
X0325520Y0162220D02*
X0325520Y0155960D01*
X0324680Y0155960D02*
X0324680Y0162220D01*
X0323840Y0162220D02*
X0323840Y0155960D01*
X0323000Y0155960D02*
X0323000Y0162220D01*
X0322160Y0162220D02*
X0322160Y0155960D01*
X0321320Y0155960D02*
X0321320Y0162220D01*
X0320480Y0162220D02*
X0320480Y0155960D01*
X0320160Y0166980D02*
X0320160Y0173240D01*
X0327200Y0173240D01*
X0327200Y0166980D01*
X0320160Y0166980D01*
X0326360Y0166980D02*
X0326360Y0173240D01*
X0325520Y0173240D02*
X0325520Y0166980D01*
X0324680Y0166980D02*
X0324680Y0173240D01*
X0323840Y0173240D02*
X0323840Y0166980D01*
X0323000Y0166980D02*
X0323000Y0173240D01*
X0322160Y0173240D02*
X0322160Y0166980D01*
X0321320Y0166980D02*
X0321320Y0173240D01*
X0320480Y0173240D02*
X0320480Y0166980D01*
X0327200Y0137220D02*
X0327200Y0130960D01*
X0320160Y0130960D01*
X0320160Y0137220D01*
X0327200Y0137220D01*
X0326360Y0137220D02*
X0326360Y0130960D01*
X0325520Y0130960D02*
X0325520Y0137220D01*
X0324680Y0137220D02*
X0324680Y0130960D01*
X0323840Y0130960D02*
X0323840Y0137220D01*
X0323000Y0137220D02*
X0323000Y0130960D01*
X0322160Y0130960D02*
X0322160Y0137220D01*
X0321320Y0137220D02*
X0321320Y0130960D01*
X0320480Y0130960D02*
X0320480Y0137220D01*
X0330160Y0138240D02*
X0330160Y0131980D01*
X0330160Y0138240D02*
X0337200Y0138240D01*
X0337200Y0131980D01*
X0330160Y0131980D01*
X0336360Y0131980D02*
X0336360Y0138240D01*
X0335520Y0138240D02*
X0335520Y0131980D01*
X0334680Y0131980D02*
X0334680Y0138240D01*
X0333840Y0138240D02*
X0333840Y0131980D01*
X0333000Y0131980D02*
X0333000Y0138240D01*
X0332160Y0138240D02*
X0332160Y0131980D01*
X0331320Y0131980D02*
X0331320Y0138240D01*
X0330480Y0138240D02*
X0330480Y0131980D01*
X0330160Y0127220D02*
X0330160Y0120960D01*
X0330160Y0127220D02*
X0337200Y0127220D01*
X0337200Y0120960D01*
X0330160Y0120960D01*
X0336360Y0120960D02*
X0336360Y0127220D01*
X0335520Y0127220D02*
X0335520Y0120960D01*
X0334680Y0120960D02*
X0334680Y0127220D01*
X0333840Y0127220D02*
X0333840Y0120960D01*
X0333000Y0120960D02*
X0333000Y0127220D01*
X0332160Y0127220D02*
X0332160Y0120960D01*
X0331320Y0120960D02*
X0331320Y0127220D01*
X0330480Y0127220D02*
X0330480Y0120960D01*
X0335160Y0160960D02*
X0335160Y0167220D01*
X0342200Y0167220D01*
X0342200Y0160960D01*
X0335160Y0160960D01*
X0341360Y0160960D02*
X0341360Y0167220D01*
X0340520Y0167220D02*
X0340520Y0160960D01*
X0339680Y0160960D02*
X0339680Y0167220D01*
X0338840Y0167220D02*
X0338840Y0160960D01*
X0338000Y0160960D02*
X0338000Y0167220D01*
X0337160Y0167220D02*
X0337160Y0160960D01*
X0336320Y0160960D02*
X0336320Y0167220D01*
X0335480Y0167220D02*
X0335480Y0160960D01*
X0335160Y0171980D02*
X0335160Y0178240D01*
X0342200Y0178240D01*
X0342200Y0171980D01*
X0335160Y0171980D01*
X0341360Y0171980D02*
X0341360Y0178240D01*
X0340520Y0178240D02*
X0340520Y0171980D01*
X0339680Y0171980D02*
X0339680Y0178240D01*
X0338840Y0178240D02*
X0338840Y0171980D01*
X0338000Y0171980D02*
X0338000Y0178240D01*
X0337160Y0178240D02*
X0337160Y0171980D01*
X0336320Y0171980D02*
X0336320Y0178240D01*
X0335480Y0178240D02*
X0335480Y0171980D01*
D371*
X0266450Y0077740D02*
X0266450Y0071460D01*
X0266450Y0077740D02*
X0271930Y0077740D01*
X0271930Y0071460D01*
X0266450Y0071460D01*
X0271120Y0071460D02*
X0271120Y0077740D01*
X0270310Y0077740D02*
X0270310Y0071460D01*
X0269500Y0071460D02*
X0269500Y0077740D01*
X0268690Y0077740D02*
X0268690Y0071460D01*
X0267880Y0071460D02*
X0267880Y0077740D01*
X0267070Y0077740D02*
X0267070Y0071460D01*
X0255430Y0071460D02*
X0255430Y0077740D01*
X0260910Y0077740D01*
X0260910Y0071460D01*
X0255430Y0071460D01*
X0260100Y0071460D02*
X0260100Y0077740D01*
X0259290Y0077740D02*
X0259290Y0071460D01*
X0258480Y0071460D02*
X0258480Y0077740D01*
X0257670Y0077740D02*
X0257670Y0071460D01*
X0256860Y0071460D02*
X0256860Y0077740D01*
X0256050Y0077740D02*
X0256050Y0071460D01*
D598*
X0265730Y0099760D02*
X0271630Y0099760D01*
X0265730Y0099760D02*
X0265730Y0105660D01*
X0271630Y0105660D01*
X0271630Y0099760D01*
X0270840Y0099760D02*
X0270840Y0105660D01*
X0270050Y0105660D02*
X0270050Y0099760D01*
X0269260Y0099760D02*
X0269260Y0105660D01*
X0268470Y0105660D02*
X0268470Y0099760D01*
X0267680Y0099760D02*
X0267680Y0105660D01*
X0266890Y0105660D02*
X0266890Y0099760D01*
X0266100Y0099760D02*
X0266100Y0105660D01*
X0265730Y0113540D02*
X0271630Y0113540D01*
X0265730Y0113540D02*
X0265730Y0119440D01*
X0271630Y0119440D01*
X0271630Y0113540D01*
X0270840Y0113540D02*
X0270840Y0119440D01*
X0270050Y0119440D02*
X0270050Y0113540D01*
X0269260Y0113540D02*
X0269260Y0119440D01*
X0268470Y0119440D02*
X0268470Y0113540D01*
X0267680Y0113540D02*
X0267680Y0119440D01*
X0266890Y0119440D02*
X0266890Y0113540D01*
X0266100Y0113540D02*
X0266100Y0119440D01*
X0322730Y0119440D02*
X0328630Y0119440D01*
X0328630Y0113540D01*
X0322730Y0113540D01*
X0322730Y0119440D01*
X0327840Y0119440D02*
X0327840Y0113540D01*
X0327050Y0113540D02*
X0327050Y0119440D01*
X0326260Y0119440D02*
X0326260Y0113540D01*
X0325470Y0113540D02*
X0325470Y0119440D01*
X0324680Y0119440D02*
X0324680Y0113540D01*
X0323890Y0113540D02*
X0323890Y0119440D01*
X0323100Y0119440D02*
X0323100Y0113540D01*
X0322730Y0105660D02*
X0328630Y0105660D01*
X0328630Y0099760D01*
X0322730Y0099760D01*
X0322730Y0105660D01*
X0327840Y0105660D02*
X0327840Y0099760D01*
X0327050Y0099760D02*
X0327050Y0105660D01*
X0326260Y0105660D02*
X0326260Y0099760D01*
X0325470Y0099760D02*
X0325470Y0105660D01*
X0324680Y0105660D02*
X0324680Y0099760D01*
X0323890Y0099760D02*
X0323890Y0105660D01*
X0323100Y0105660D02*
X0323100Y0099760D01*
D166*
X0321780Y0203000D03*
X0316780Y0213000D03*
X0311780Y0203000D03*
X0306780Y0213000D03*
X0301780Y0203000D03*
X0296780Y0213000D03*
X0291780Y0203000D03*
X0270880Y0179600D03*
X0270880Y0169600D03*
X0263480Y0140000D03*
X0263480Y0130000D03*
D371*
X0290570Y0153310D02*
X0290570Y0155890D01*
X0290570Y0153310D02*
X0282590Y0153310D01*
X0282590Y0155890D01*
X0290570Y0155890D01*
X0289760Y0155890D02*
X0289760Y0153310D01*
X0288950Y0153310D02*
X0288950Y0155890D01*
X0288140Y0155890D02*
X0288140Y0153310D01*
X0287330Y0153310D02*
X0287330Y0155890D01*
X0286520Y0155890D02*
X0286520Y0153310D01*
X0285710Y0153310D02*
X0285710Y0155890D01*
X0284900Y0155890D02*
X0284900Y0153310D01*
X0284090Y0153310D02*
X0284090Y0155890D01*
X0283280Y0155890D02*
X0283280Y0153310D01*
X0290570Y0158310D02*
X0290570Y0160890D01*
X0290570Y0158310D02*
X0282590Y0158310D01*
X0282590Y0160890D01*
X0290570Y0160890D01*
X0289760Y0160890D02*
X0289760Y0158310D01*
X0288950Y0158310D02*
X0288950Y0160890D01*
X0288140Y0160890D02*
X0288140Y0158310D01*
X0287330Y0158310D02*
X0287330Y0160890D01*
X0286520Y0160890D02*
X0286520Y0158310D01*
X0285710Y0158310D02*
X0285710Y0160890D01*
X0284900Y0160890D02*
X0284900Y0158310D01*
X0284090Y0158310D02*
X0284090Y0160890D01*
X0283280Y0160890D02*
X0283280Y0158310D01*
X0290570Y0163310D02*
X0290570Y0165890D01*
X0290570Y0163310D02*
X0282590Y0163310D01*
X0282590Y0165890D01*
X0290570Y0165890D01*
X0289760Y0165890D02*
X0289760Y0163310D01*
X0288950Y0163310D02*
X0288950Y0165890D01*
X0288140Y0165890D02*
X0288140Y0163310D01*
X0287330Y0163310D02*
X0287330Y0165890D01*
X0286520Y0165890D02*
X0286520Y0163310D01*
X0285710Y0163310D02*
X0285710Y0165890D01*
X0284900Y0165890D02*
X0284900Y0163310D01*
X0284090Y0163310D02*
X0284090Y0165890D01*
X0283280Y0165890D02*
X0283280Y0163310D01*
X0290570Y0168310D02*
X0290570Y0170890D01*
X0290570Y0168310D02*
X0282590Y0168310D01*
X0282590Y0170890D01*
X0290570Y0170890D01*
X0289760Y0170890D02*
X0289760Y0168310D01*
X0288950Y0168310D02*
X0288950Y0170890D01*
X0288140Y0170890D02*
X0288140Y0168310D01*
X0287330Y0168310D02*
X0287330Y0170890D01*
X0286520Y0170890D02*
X0286520Y0168310D01*
X0285710Y0168310D02*
X0285710Y0170890D01*
X0284900Y0170890D02*
X0284900Y0168310D01*
X0284090Y0168310D02*
X0284090Y0170890D01*
X0283280Y0170890D02*
X0283280Y0168310D01*
X0290570Y0173310D02*
X0290570Y0175890D01*
X0290570Y0173310D02*
X0282590Y0173310D01*
X0282590Y0175890D01*
X0290570Y0175890D01*
X0289760Y0175890D02*
X0289760Y0173310D01*
X0288950Y0173310D02*
X0288950Y0175890D01*
X0288140Y0175890D02*
X0288140Y0173310D01*
X0287330Y0173310D02*
X0287330Y0175890D01*
X0286520Y0175890D02*
X0286520Y0173310D01*
X0285710Y0173310D02*
X0285710Y0175890D01*
X0284900Y0175890D02*
X0284900Y0173310D01*
X0284090Y0173310D02*
X0284090Y0175890D01*
X0283280Y0175890D02*
X0283280Y0173310D01*
X0290570Y0178310D02*
X0290570Y0180890D01*
X0290570Y0178310D02*
X0282590Y0178310D01*
X0282590Y0180890D01*
X0290570Y0180890D01*
X0289760Y0180890D02*
X0289760Y0178310D01*
X0288950Y0178310D02*
X0288950Y0180890D01*
X0288140Y0180890D02*
X0288140Y0178310D01*
X0287330Y0178310D02*
X0287330Y0180890D01*
X0286520Y0180890D02*
X0286520Y0178310D01*
X0285710Y0178310D02*
X0285710Y0180890D01*
X0284900Y0180890D02*
X0284900Y0178310D01*
X0284090Y0178310D02*
X0284090Y0180890D01*
X0283280Y0180890D02*
X0283280Y0178310D01*
X0290570Y0183310D02*
X0290570Y0185890D01*
X0290570Y0183310D02*
X0282590Y0183310D01*
X0282590Y0185890D01*
X0290570Y0185890D01*
X0289760Y0185890D02*
X0289760Y0183310D01*
X0288950Y0183310D02*
X0288950Y0185890D01*
X0288140Y0185890D02*
X0288140Y0183310D01*
X0287330Y0183310D02*
X0287330Y0185890D01*
X0286520Y0185890D02*
X0286520Y0183310D01*
X0285710Y0183310D02*
X0285710Y0185890D01*
X0284900Y0185890D02*
X0284900Y0183310D01*
X0284090Y0183310D02*
X0284090Y0185890D01*
X0283280Y0185890D02*
X0283280Y0183310D01*
X0314770Y0183310D02*
X0314770Y0185890D01*
X0314770Y0183310D02*
X0306790Y0183310D01*
X0306790Y0185890D01*
X0314770Y0185890D01*
X0313960Y0185890D02*
X0313960Y0183310D01*
X0313150Y0183310D02*
X0313150Y0185890D01*
X0312340Y0185890D02*
X0312340Y0183310D01*
X0311530Y0183310D02*
X0311530Y0185890D01*
X0310720Y0185890D02*
X0310720Y0183310D01*
X0309910Y0183310D02*
X0309910Y0185890D01*
X0309100Y0185890D02*
X0309100Y0183310D01*
X0308290Y0183310D02*
X0308290Y0185890D01*
X0307480Y0185890D02*
X0307480Y0183310D01*
X0314770Y0180890D02*
X0314770Y0178310D01*
X0306790Y0178310D01*
X0306790Y0180890D01*
X0314770Y0180890D01*
X0313960Y0180890D02*
X0313960Y0178310D01*
X0313150Y0178310D02*
X0313150Y0180890D01*
X0312340Y0180890D02*
X0312340Y0178310D01*
X0311530Y0178310D02*
X0311530Y0180890D01*
X0310720Y0180890D02*
X0310720Y0178310D01*
X0309910Y0178310D02*
X0309910Y0180890D01*
X0309100Y0180890D02*
X0309100Y0178310D01*
X0308290Y0178310D02*
X0308290Y0180890D01*
X0307480Y0180890D02*
X0307480Y0178310D01*
X0314770Y0175890D02*
X0314770Y0173310D01*
X0306790Y0173310D01*
X0306790Y0175890D01*
X0314770Y0175890D01*
X0313960Y0175890D02*
X0313960Y0173310D01*
X0313150Y0173310D02*
X0313150Y0175890D01*
X0312340Y0175890D02*
X0312340Y0173310D01*
X0311530Y0173310D02*
X0311530Y0175890D01*
X0310720Y0175890D02*
X0310720Y0173310D01*
X0309910Y0173310D02*
X0309910Y0175890D01*
X0309100Y0175890D02*
X0309100Y0173310D01*
X0308290Y0173310D02*
X0308290Y0175890D01*
X0307480Y0175890D02*
X0307480Y0173310D01*
X0314770Y0170890D02*
X0314770Y0168310D01*
X0306790Y0168310D01*
X0306790Y0170890D01*
X0314770Y0170890D01*
X0313960Y0170890D02*
X0313960Y0168310D01*
X0313150Y0168310D02*
X0313150Y0170890D01*
X0312340Y0170890D02*
X0312340Y0168310D01*
X0311530Y0168310D02*
X0311530Y0170890D01*
X0310720Y0170890D02*
X0310720Y0168310D01*
X0309910Y0168310D02*
X0309910Y0170890D01*
X0309100Y0170890D02*
X0309100Y0168310D01*
X0308290Y0168310D02*
X0308290Y0170890D01*
X0307480Y0170890D02*
X0307480Y0168310D01*
X0314770Y0165890D02*
X0314770Y0163310D01*
X0306790Y0163310D01*
X0306790Y0165890D01*
X0314770Y0165890D01*
X0313960Y0165890D02*
X0313960Y0163310D01*
X0313150Y0163310D02*
X0313150Y0165890D01*
X0312340Y0165890D02*
X0312340Y0163310D01*
X0311530Y0163310D02*
X0311530Y0165890D01*
X0310720Y0165890D02*
X0310720Y0163310D01*
X0309910Y0163310D02*
X0309910Y0165890D01*
X0309100Y0165890D02*
X0309100Y0163310D01*
X0308290Y0163310D02*
X0308290Y0165890D01*
X0307480Y0165890D02*
X0307480Y0163310D01*
X0314770Y0160890D02*
X0314770Y0158310D01*
X0306790Y0158310D01*
X0306790Y0160890D01*
X0314770Y0160890D01*
X0313960Y0160890D02*
X0313960Y0158310D01*
X0313150Y0158310D02*
X0313150Y0160890D01*
X0312340Y0160890D02*
X0312340Y0158310D01*
X0311530Y0158310D02*
X0311530Y0160890D01*
X0310720Y0160890D02*
X0310720Y0158310D01*
X0309910Y0158310D02*
X0309910Y0160890D01*
X0309100Y0160890D02*
X0309100Y0158310D01*
X0308290Y0158310D02*
X0308290Y0160890D01*
X0307480Y0160890D02*
X0307480Y0158310D01*
X0314770Y0155890D02*
X0314770Y0153310D01*
X0306790Y0153310D01*
X0306790Y0155890D01*
X0314770Y0155890D01*
X0313960Y0155890D02*
X0313960Y0153310D01*
X0313150Y0153310D02*
X0313150Y0155890D01*
X0312340Y0155890D02*
X0312340Y0153310D01*
X0311530Y0153310D02*
X0311530Y0155890D01*
X0310720Y0155890D02*
X0310720Y0153310D01*
X0309910Y0153310D02*
X0309910Y0155890D01*
X0309100Y0155890D02*
X0309100Y0153310D01*
X0308290Y0153310D02*
X0308290Y0155890D01*
X0307480Y0155890D02*
X0307480Y0153310D01*
D366*
X0286780Y0238000D03*
X0331780Y0238000D03*
D286*
X0326780Y0213000D03*
D463*
X0328880Y0074940D03*
X0328880Y0051320D03*
X0347390Y0063130D03*
D28*
X0314280Y0135200D03*
X0306480Y0112200D03*
X0310680Y0105600D03*
X0298680Y0112400D03*
X0303480Y0131600D03*
X0290280Y0112400D03*
X0289080Y0105200D03*
X0277080Y0130400D03*
X0275880Y0088400D03*
X0283280Y0067800D03*
X0289280Y0068000D03*
X0301080Y0174800D03*
D688*
X0278680Y0175000D03*
X0365180Y0020000D02*
G75*
%LPD*%
D329*
X0675140Y0030000D03*
X0375140Y0030000D03*
X0375140Y0395000D03*
X0675140Y0395000D03*
D371*
X0616430Y0283110D02*
X0613850Y0283110D01*
X0613850Y0291090D01*
X0616430Y0291090D01*
X0616430Y0283110D01*
X0615620Y0283110D02*
X0615620Y0291090D01*
X0614810Y0291090D02*
X0614810Y0283110D01*
X0614000Y0283110D02*
X0614000Y0291090D01*
X0611430Y0283110D02*
X0608850Y0283110D01*
X0608850Y0291090D01*
X0611430Y0291090D01*
X0611430Y0283110D01*
X0610620Y0283110D02*
X0610620Y0291090D01*
X0609810Y0291090D02*
X0609810Y0283110D01*
X0609000Y0283110D02*
X0609000Y0291090D01*
X0606430Y0283110D02*
X0603850Y0283110D01*
X0603850Y0291090D01*
X0606430Y0291090D01*
X0606430Y0283110D01*
X0605620Y0283110D02*
X0605620Y0291090D01*
X0604810Y0291090D02*
X0604810Y0283110D01*
X0604000Y0283110D02*
X0604000Y0291090D01*
X0601430Y0283110D02*
X0598850Y0283110D01*
X0598850Y0291090D01*
X0601430Y0291090D01*
X0601430Y0283110D01*
X0600620Y0283110D02*
X0600620Y0291090D01*
X0599810Y0291090D02*
X0599810Y0283110D01*
X0599000Y0283110D02*
X0599000Y0291090D01*
X0596430Y0283110D02*
X0593850Y0283110D01*
X0593850Y0291090D01*
X0596430Y0291090D01*
X0596430Y0283110D01*
X0595620Y0283110D02*
X0595620Y0291090D01*
X0594810Y0291090D02*
X0594810Y0283110D01*
X0594000Y0283110D02*
X0594000Y0291090D01*
X0591430Y0283110D02*
X0588850Y0283110D01*
X0588850Y0291090D01*
X0591430Y0291090D01*
X0591430Y0283110D01*
X0590620Y0283110D02*
X0590620Y0291090D01*
X0589810Y0291090D02*
X0589810Y0283110D01*
X0589000Y0283110D02*
X0589000Y0291090D01*
X0586430Y0283110D02*
X0583850Y0283110D01*
X0583850Y0291090D01*
X0586430Y0291090D01*
X0586430Y0283110D01*
X0585620Y0283110D02*
X0585620Y0291090D01*
X0584810Y0291090D02*
X0584810Y0283110D01*
X0584000Y0283110D02*
X0584000Y0291090D01*
X0583850Y0258910D02*
X0586430Y0258910D01*
X0583850Y0258910D02*
X0583850Y0266890D01*
X0586430Y0266890D01*
X0586430Y0258910D01*
X0585620Y0258910D02*
X0585620Y0266890D01*
X0584810Y0266890D02*
X0584810Y0258910D01*
X0584000Y0258910D02*
X0584000Y0266890D01*
X0588850Y0258910D02*
X0591430Y0258910D01*
X0588850Y0258910D02*
X0588850Y0266890D01*
X0591430Y0266890D01*
X0591430Y0258910D01*
X0590620Y0258910D02*
X0590620Y0266890D01*
X0589810Y0266890D02*
X0589810Y0258910D01*
X0589000Y0258910D02*
X0589000Y0266890D01*
X0593850Y0258910D02*
X0596430Y0258910D01*
X0593850Y0258910D02*
X0593850Y0266890D01*
X0596430Y0266890D01*
X0596430Y0258910D01*
X0595620Y0258910D02*
X0595620Y0266890D01*
X0594810Y0266890D02*
X0594810Y0258910D01*
X0594000Y0258910D02*
X0594000Y0266890D01*
X0598850Y0258910D02*
X0601430Y0258910D01*
X0598850Y0258910D02*
X0598850Y0266890D01*
X0601430Y0266890D01*
X0601430Y0258910D01*
X0600620Y0258910D02*
X0600620Y0266890D01*
X0599810Y0266890D02*
X0599810Y0258910D01*
X0599000Y0258910D02*
X0599000Y0266890D01*
X0603850Y0258910D02*
X0606430Y0258910D01*
X0603850Y0258910D02*
X0603850Y0266890D01*
X0606430Y0266890D01*
X0606430Y0258910D01*
X0605620Y0258910D02*
X0605620Y0266890D01*
X0604810Y0266890D02*
X0604810Y0258910D01*
X0604000Y0258910D02*
X0604000Y0266890D01*
X0608850Y0258910D02*
X0611430Y0258910D01*
X0608850Y0258910D02*
X0608850Y0266890D01*
X0611430Y0266890D01*
X0611430Y0258910D01*
X0610620Y0258910D02*
X0610620Y0266890D01*
X0609810Y0266890D02*
X0609810Y0258910D01*
X0609000Y0258910D02*
X0609000Y0266890D01*
X0613850Y0258910D02*
X0616430Y0258910D01*
X0613850Y0258910D02*
X0613850Y0266890D01*
X0616430Y0266890D01*
X0616430Y0258910D01*
X0615620Y0258910D02*
X0615620Y0266890D01*
X0614810Y0266890D02*
X0614810Y0258910D01*
X0614000Y0258910D02*
X0614000Y0266890D01*
D158*
X0592740Y0220000D02*
X0587540Y0220000D01*
X0587540Y0210000D02*
X0592740Y0210000D01*
X0592740Y0200000D02*
X0587540Y0200000D01*
X0587540Y0190000D02*
X0592740Y0190000D01*
X0592740Y0180000D02*
X0587540Y0180000D01*
X0587540Y0170000D02*
X0592740Y0170000D01*
X0592740Y0160000D02*
X0587540Y0160000D01*
X0587540Y0150000D02*
X0592740Y0150000D01*
X0592740Y0140000D02*
X0587540Y0140000D01*
X0587540Y0130000D02*
X0592740Y0130000D01*
X0592740Y0120000D02*
X0587540Y0120000D01*
X0587540Y0110000D02*
X0592740Y0110000D01*
X0592740Y0100000D02*
X0587540Y0100000D01*
X0587540Y0090000D02*
X0592740Y0090000D01*
X0562740Y0090000D02*
X0557540Y0090000D01*
X0557540Y0100000D02*
X0562740Y0100000D01*
X0562740Y0110000D02*
X0557540Y0110000D01*
X0557540Y0120000D02*
X0562740Y0120000D01*
X0562740Y0130000D02*
X0557540Y0130000D01*
X0557540Y0140000D02*
X0562740Y0140000D01*
X0562740Y0150000D02*
X0557540Y0150000D01*
X0557540Y0160000D02*
X0562740Y0160000D01*
X0562740Y0170000D02*
X0557540Y0170000D01*
X0557540Y0180000D02*
X0562740Y0180000D01*
X0562740Y0190000D02*
X0557540Y0190000D01*
X0557540Y0200000D02*
X0562740Y0200000D01*
X0562740Y0210000D02*
X0557540Y0210000D01*
X0557540Y0220000D02*
X0562740Y0220000D01*
X0555140Y0269800D02*
X0555140Y0275000D01*
X0545140Y0275000D02*
X0545140Y0269800D01*
X0535140Y0269800D02*
X0535140Y0275000D01*
X0535140Y0305000D02*
X0535140Y0310200D01*
X0545140Y0310200D02*
X0545140Y0305000D01*
X0555140Y0305000D02*
X0555140Y0310200D01*
X0495340Y0315000D02*
X0490140Y0315000D01*
X0490140Y0305000D02*
X0495340Y0305000D01*
X0495340Y0295000D02*
X0490140Y0295000D01*
X0460140Y0295000D02*
X0454940Y0295000D01*
X0454940Y0305000D02*
X0460140Y0305000D01*
X0460140Y0315000D02*
X0454940Y0315000D01*
X0454940Y0360000D02*
X0460140Y0360000D01*
X0460140Y0370000D02*
X0454940Y0370000D01*
X0454940Y0380000D02*
X0460140Y0380000D01*
X0490140Y0380000D02*
X0495340Y0380000D01*
X0495340Y0370000D02*
X0490140Y0370000D01*
X0490140Y0360000D02*
X0495340Y0360000D01*
X0495340Y0255000D02*
X0490140Y0255000D01*
X0490140Y0245000D02*
X0495340Y0245000D01*
X0495340Y0235000D02*
X0490140Y0235000D01*
X0460140Y0235000D02*
X0454940Y0235000D01*
X0454940Y0245000D02*
X0460140Y0245000D01*
X0460140Y0255000D02*
X0454940Y0255000D01*
X0454940Y0195000D02*
X0460140Y0195000D01*
X0460140Y0185000D02*
X0454940Y0185000D01*
X0454940Y0175000D02*
X0460140Y0175000D01*
X0490140Y0175000D02*
X0495340Y0175000D01*
X0495340Y0185000D02*
X0490140Y0185000D01*
X0490140Y0195000D02*
X0495340Y0195000D01*
X0495340Y0140000D02*
X0490140Y0140000D01*
X0490140Y0130000D02*
X0495340Y0130000D01*
X0495340Y0120000D02*
X0490140Y0120000D01*
X0460140Y0120000D02*
X0454940Y0120000D01*
X0454940Y0130000D02*
X0460140Y0130000D01*
X0460140Y0140000D02*
X0454940Y0140000D01*
X0454940Y0080000D02*
X0460140Y0080000D01*
X0460140Y0070000D02*
X0454940Y0070000D01*
X0454940Y0060000D02*
X0460140Y0060000D01*
X0490140Y0060000D02*
X0495340Y0060000D01*
X0495340Y0070000D02*
X0490140Y0070000D01*
X0490140Y0080000D02*
X0495340Y0080000D01*
D166*
X0460140Y0100000D03*
X0420140Y0100000D03*
X0405140Y0100000D03*
X0405140Y0080000D03*
X0405140Y0040000D03*
X0420140Y0040000D03*
X0460140Y0040000D03*
X0405140Y0140000D03*
X0405140Y0160000D03*
X0420140Y0160000D03*
X0405140Y0200000D03*
X0405140Y0220000D03*
X0420140Y0220000D03*
X0405140Y0260000D03*
X0405140Y0280000D03*
X0420140Y0280000D03*
X0405140Y0320000D03*
X0405140Y0340000D03*
X0420140Y0340000D03*
X0405140Y0380000D03*
X0460140Y0340000D03*
X0460140Y0280000D03*
X0460140Y0220000D03*
X0460140Y0160000D03*
X0535140Y0325000D03*
X0555140Y0325000D03*
X0555140Y0365000D03*
X0535140Y0365000D03*
X0605140Y0362500D03*
X0605140Y0372500D03*
X0615140Y0367500D03*
X0615140Y0357500D03*
X0615140Y0347500D03*
X0605140Y0352500D03*
X0605140Y0342500D03*
X0621140Y0135000D03*
X0620140Y0125000D03*
X0621140Y0115000D03*
X0620140Y0105000D03*
X0621140Y0095000D03*
X0620140Y0085000D03*
D340*
X0608660Y0087610D02*
X0608660Y0081350D01*
X0601620Y0081350D01*
X0601620Y0087610D01*
X0608660Y0087610D01*
X0607820Y0087610D02*
X0607820Y0081350D01*
X0606980Y0081350D02*
X0606980Y0087610D01*
X0606140Y0087610D02*
X0606140Y0081350D01*
X0605300Y0081350D02*
X0605300Y0087610D01*
X0604460Y0087610D02*
X0604460Y0081350D01*
X0603620Y0081350D02*
X0603620Y0087610D01*
X0602780Y0087610D02*
X0602780Y0081350D01*
X0601940Y0081350D02*
X0601940Y0087610D01*
X0608660Y0092380D02*
X0608660Y0098640D01*
X0608660Y0092380D02*
X0601620Y0092380D01*
X0601620Y0098640D01*
X0608660Y0098640D01*
X0607820Y0098640D02*
X0607820Y0092380D01*
X0606980Y0092380D02*
X0606980Y0098640D01*
X0606140Y0098640D02*
X0606140Y0092380D01*
X0605300Y0092380D02*
X0605300Y0098640D01*
X0604460Y0098640D02*
X0604460Y0092380D01*
X0603620Y0092380D02*
X0603620Y0098640D01*
X0602780Y0098640D02*
X0602780Y0092380D01*
X0601940Y0092380D02*
X0601940Y0098640D01*
X0548660Y0097380D02*
X0548660Y0103640D01*
X0548660Y0097380D02*
X0541620Y0097380D01*
X0541620Y0103640D01*
X0548660Y0103640D01*
X0547820Y0103640D02*
X0547820Y0097380D01*
X0546980Y0097380D02*
X0546980Y0103640D01*
X0546140Y0103640D02*
X0546140Y0097380D01*
X0545300Y0097380D02*
X0545300Y0103640D01*
X0544460Y0103640D02*
X0544460Y0097380D01*
X0543620Y0097380D02*
X0543620Y0103640D01*
X0542780Y0103640D02*
X0542780Y0097380D01*
X0541940Y0097380D02*
X0541940Y0103640D01*
X0548660Y0111350D02*
X0548660Y0117610D01*
X0548660Y0111350D02*
X0541620Y0111350D01*
X0541620Y0117610D01*
X0548660Y0117610D01*
X0547820Y0117610D02*
X0547820Y0111350D01*
X0546980Y0111350D02*
X0546980Y0117610D01*
X0546140Y0117610D02*
X0546140Y0111350D01*
X0545300Y0111350D02*
X0545300Y0117610D01*
X0544460Y0117610D02*
X0544460Y0111350D01*
X0543620Y0111350D02*
X0543620Y0117610D01*
X0542780Y0117610D02*
X0542780Y0111350D01*
X0541940Y0111350D02*
X0541940Y0117610D01*
X0548660Y0122380D02*
X0548660Y0128640D01*
X0548660Y0122380D02*
X0541620Y0122380D01*
X0541620Y0128640D01*
X0548660Y0128640D01*
X0547820Y0128640D02*
X0547820Y0122380D01*
X0546980Y0122380D02*
X0546980Y0128640D01*
X0546140Y0128640D02*
X0546140Y0122380D01*
X0545300Y0122380D02*
X0545300Y0128640D01*
X0544460Y0128640D02*
X0544460Y0122380D01*
X0543620Y0122380D02*
X0543620Y0128640D01*
X0542780Y0128640D02*
X0542780Y0122380D01*
X0541940Y0122380D02*
X0541940Y0128640D01*
X0533660Y0103640D02*
X0533660Y0097380D01*
X0526620Y0097380D01*
X0526620Y0103640D01*
X0533660Y0103640D01*
X0532820Y0103640D02*
X0532820Y0097380D01*
X0531980Y0097380D02*
X0531980Y0103640D01*
X0531140Y0103640D02*
X0531140Y0097380D01*
X0530300Y0097380D02*
X0530300Y0103640D01*
X0529460Y0103640D02*
X0529460Y0097380D01*
X0528620Y0097380D02*
X0528620Y0103640D01*
X0527780Y0103640D02*
X0527780Y0097380D01*
X0526940Y0097380D02*
X0526940Y0103640D01*
X0533660Y0092610D02*
X0533660Y0086350D01*
X0526620Y0086350D01*
X0526620Y0092610D01*
X0533660Y0092610D01*
X0532820Y0092610D02*
X0532820Y0086350D01*
X0531980Y0086350D02*
X0531980Y0092610D01*
X0531140Y0092610D02*
X0531140Y0086350D01*
X0530300Y0086350D02*
X0530300Y0092610D01*
X0529460Y0092610D02*
X0529460Y0086350D01*
X0528620Y0086350D02*
X0528620Y0092610D01*
X0527780Y0092610D02*
X0527780Y0086350D01*
X0526940Y0086350D02*
X0526940Y0092610D01*
X0548660Y0092610D02*
X0548660Y0086350D01*
X0541620Y0086350D01*
X0541620Y0092610D01*
X0548660Y0092610D01*
X0547820Y0092610D02*
X0547820Y0086350D01*
X0546980Y0086350D02*
X0546980Y0092610D01*
X0546140Y0092610D02*
X0546140Y0086350D01*
X0545300Y0086350D02*
X0545300Y0092610D01*
X0544460Y0092610D02*
X0544460Y0086350D01*
X0543620Y0086350D02*
X0543620Y0092610D01*
X0542780Y0092610D02*
X0542780Y0086350D01*
X0541940Y0086350D02*
X0541940Y0092610D01*
X0493780Y0108520D02*
X0487520Y0108520D01*
X0493780Y0108520D02*
X0493780Y0101480D01*
X0487520Y0101480D01*
X0487520Y0108520D01*
X0492940Y0108520D02*
X0492940Y0101480D01*
X0492100Y0101480D02*
X0492100Y0108520D01*
X0491260Y0108520D02*
X0491260Y0101480D01*
X0490420Y0101480D02*
X0490420Y0108520D01*
X0489580Y0108520D02*
X0489580Y0101480D01*
X0488740Y0101480D02*
X0488740Y0108520D01*
X0487900Y0108520D02*
X0487900Y0101480D01*
X0482760Y0108520D02*
X0476500Y0108520D01*
X0482760Y0108520D02*
X0482760Y0101480D01*
X0476500Y0101480D01*
X0476500Y0108520D01*
X0481920Y0108520D02*
X0481920Y0101480D01*
X0481080Y0101480D02*
X0481080Y0108520D01*
X0480240Y0108520D02*
X0480240Y0101480D01*
X0479400Y0101480D02*
X0479400Y0108520D01*
X0478560Y0108520D02*
X0478560Y0101480D01*
X0477720Y0101480D02*
X0477720Y0108520D01*
X0476880Y0108520D02*
X0476880Y0101480D01*
X0476500Y0048520D02*
X0482760Y0048520D01*
X0482760Y0041480D01*
X0476500Y0041480D01*
X0476500Y0048520D01*
X0481920Y0048520D02*
X0481920Y0041480D01*
X0481080Y0041480D02*
X0481080Y0048520D01*
X0480240Y0048520D02*
X0480240Y0041480D01*
X0479400Y0041480D02*
X0479400Y0048520D01*
X0478560Y0048520D02*
X0478560Y0041480D01*
X0477720Y0041480D02*
X0477720Y0048520D01*
X0476880Y0048520D02*
X0476880Y0041480D01*
X0487520Y0048520D02*
X0493780Y0048520D01*
X0493780Y0041480D01*
X0487520Y0041480D01*
X0487520Y0048520D01*
X0492940Y0048520D02*
X0492940Y0041480D01*
X0492100Y0041480D02*
X0492100Y0048520D01*
X0491260Y0048520D02*
X0491260Y0041480D01*
X0490420Y0041480D02*
X0490420Y0048520D01*
X0489580Y0048520D02*
X0489580Y0041480D01*
X0488740Y0041480D02*
X0488740Y0048520D01*
X0487900Y0048520D02*
X0487900Y0041480D01*
X0423660Y0111350D02*
X0423660Y0117610D01*
X0423660Y0111350D02*
X0416620Y0111350D01*
X0416620Y0117610D01*
X0423660Y0117610D01*
X0422820Y0117610D02*
X0422820Y0111350D01*
X0421980Y0111350D02*
X0421980Y0117610D01*
X0421140Y0117610D02*
X0421140Y0111350D01*
X0420300Y0111350D02*
X0420300Y0117610D01*
X0419460Y0117610D02*
X0419460Y0111350D01*
X0418620Y0111350D02*
X0418620Y0117610D01*
X0417780Y0117610D02*
X0417780Y0111350D01*
X0416940Y0111350D02*
X0416940Y0117610D01*
X0423660Y0122380D02*
X0423660Y0128640D01*
X0423660Y0122380D02*
X0416620Y0122380D01*
X0416620Y0128640D01*
X0423660Y0128640D01*
X0422820Y0128640D02*
X0422820Y0122380D01*
X0421980Y0122380D02*
X0421980Y0128640D01*
X0421140Y0128640D02*
X0421140Y0122380D01*
X0420300Y0122380D02*
X0420300Y0128640D01*
X0419460Y0128640D02*
X0419460Y0122380D01*
X0418620Y0122380D02*
X0418620Y0128640D01*
X0417780Y0128640D02*
X0417780Y0122380D01*
X0416940Y0122380D02*
X0416940Y0128640D01*
X0423660Y0171350D02*
X0423660Y0177610D01*
X0423660Y0171350D02*
X0416620Y0171350D01*
X0416620Y0177610D01*
X0423660Y0177610D01*
X0422820Y0177610D02*
X0422820Y0171350D01*
X0421980Y0171350D02*
X0421980Y0177610D01*
X0421140Y0177610D02*
X0421140Y0171350D01*
X0420300Y0171350D02*
X0420300Y0177610D01*
X0419460Y0177610D02*
X0419460Y0171350D01*
X0418620Y0171350D02*
X0418620Y0177610D01*
X0417780Y0177610D02*
X0417780Y0171350D01*
X0416940Y0171350D02*
X0416940Y0177610D01*
X0423660Y0182380D02*
X0423660Y0188640D01*
X0423660Y0182380D02*
X0416620Y0182380D01*
X0416620Y0188640D01*
X0423660Y0188640D01*
X0422820Y0188640D02*
X0422820Y0182380D01*
X0421980Y0182380D02*
X0421980Y0188640D01*
X0421140Y0188640D02*
X0421140Y0182380D01*
X0420300Y0182380D02*
X0420300Y0188640D01*
X0419460Y0188640D02*
X0419460Y0182380D01*
X0418620Y0182380D02*
X0418620Y0188640D01*
X0417780Y0188640D02*
X0417780Y0182380D01*
X0416940Y0182380D02*
X0416940Y0188640D01*
X0423660Y0231350D02*
X0423660Y0237610D01*
X0423660Y0231350D02*
X0416620Y0231350D01*
X0416620Y0237610D01*
X0423660Y0237610D01*
X0422820Y0237610D02*
X0422820Y0231350D01*
X0421980Y0231350D02*
X0421980Y0237610D01*
X0421140Y0237610D02*
X0421140Y0231350D01*
X0420300Y0231350D02*
X0420300Y0237610D01*
X0419460Y0237610D02*
X0419460Y0231350D01*
X0418620Y0231350D02*
X0418620Y0237610D01*
X0417780Y0237610D02*
X0417780Y0231350D01*
X0416940Y0231350D02*
X0416940Y0237610D01*
X0423660Y0242380D02*
X0423660Y0248640D01*
X0423660Y0242380D02*
X0416620Y0242380D01*
X0416620Y0248640D01*
X0423660Y0248640D01*
X0422820Y0248640D02*
X0422820Y0242380D01*
X0421980Y0242380D02*
X0421980Y0248640D01*
X0421140Y0248640D02*
X0421140Y0242380D01*
X0420300Y0242380D02*
X0420300Y0248640D01*
X0419460Y0248640D02*
X0419460Y0242380D01*
X0418620Y0242380D02*
X0418620Y0248640D01*
X0417780Y0248640D02*
X0417780Y0242380D01*
X0416940Y0242380D02*
X0416940Y0248640D01*
X0423660Y0291350D02*
X0423660Y0297610D01*
X0423660Y0291350D02*
X0416620Y0291350D01*
X0416620Y0297610D01*
X0423660Y0297610D01*
X0422820Y0297610D02*
X0422820Y0291350D01*
X0421980Y0291350D02*
X0421980Y0297610D01*
X0421140Y0297610D02*
X0421140Y0291350D01*
X0420300Y0291350D02*
X0420300Y0297610D01*
X0419460Y0297610D02*
X0419460Y0291350D01*
X0418620Y0291350D02*
X0418620Y0297610D01*
X0417780Y0297610D02*
X0417780Y0291350D01*
X0416940Y0291350D02*
X0416940Y0297610D01*
X0423660Y0302380D02*
X0423660Y0308640D01*
X0423660Y0302380D02*
X0416620Y0302380D01*
X0416620Y0308640D01*
X0423660Y0308640D01*
X0422820Y0308640D02*
X0422820Y0302380D01*
X0421980Y0302380D02*
X0421980Y0308640D01*
X0421140Y0308640D02*
X0421140Y0302380D01*
X0420300Y0302380D02*
X0420300Y0308640D01*
X0419460Y0308640D02*
X0419460Y0302380D01*
X0418620Y0302380D02*
X0418620Y0308640D01*
X0417780Y0308640D02*
X0417780Y0302380D01*
X0416940Y0302380D02*
X0416940Y0308640D01*
X0423660Y0351350D02*
X0423660Y0357610D01*
X0423660Y0351350D02*
X0416620Y0351350D01*
X0416620Y0357610D01*
X0423660Y0357610D01*
X0422820Y0357610D02*
X0422820Y0351350D01*
X0421980Y0351350D02*
X0421980Y0357610D01*
X0421140Y0357610D02*
X0421140Y0351350D01*
X0420300Y0351350D02*
X0420300Y0357610D01*
X0419460Y0357610D02*
X0419460Y0351350D01*
X0418620Y0351350D02*
X0418620Y0357610D01*
X0417780Y0357610D02*
X0417780Y0351350D01*
X0416940Y0351350D02*
X0416940Y0357610D01*
X0423660Y0362380D02*
X0423660Y0368640D01*
X0423660Y0362380D02*
X0416620Y0362380D01*
X0416620Y0368640D01*
X0423660Y0368640D01*
X0422820Y0368640D02*
X0422820Y0362380D01*
X0421980Y0362380D02*
X0421980Y0368640D01*
X0421140Y0368640D02*
X0421140Y0362380D01*
X0420300Y0362380D02*
X0420300Y0368640D01*
X0419460Y0368640D02*
X0419460Y0362380D01*
X0418620Y0362380D02*
X0418620Y0368640D01*
X0417780Y0368640D02*
X0417780Y0362380D01*
X0416940Y0362380D02*
X0416940Y0368640D01*
X0476500Y0348520D02*
X0482760Y0348520D01*
X0482760Y0341480D01*
X0476500Y0341480D01*
X0476500Y0348520D01*
X0481920Y0348520D02*
X0481920Y0341480D01*
X0481080Y0341480D02*
X0481080Y0348520D01*
X0480240Y0348520D02*
X0480240Y0341480D01*
X0479400Y0341480D02*
X0479400Y0348520D01*
X0478560Y0348520D02*
X0478560Y0341480D01*
X0477720Y0341480D02*
X0477720Y0348520D01*
X0476880Y0348520D02*
X0476880Y0341480D01*
X0487520Y0348520D02*
X0493780Y0348520D01*
X0493780Y0341480D01*
X0487520Y0341480D01*
X0487520Y0348520D01*
X0492940Y0348520D02*
X0492940Y0341480D01*
X0492100Y0341480D02*
X0492100Y0348520D01*
X0491260Y0348520D02*
X0491260Y0341480D01*
X0490420Y0341480D02*
X0490420Y0348520D01*
X0489580Y0348520D02*
X0489580Y0341480D01*
X0488740Y0341480D02*
X0488740Y0348520D01*
X0487900Y0348520D02*
X0487900Y0341480D01*
X0487520Y0283520D02*
X0493780Y0283520D01*
X0493780Y0276480D01*
X0487520Y0276480D01*
X0487520Y0283520D01*
X0492940Y0283520D02*
X0492940Y0276480D01*
X0492100Y0276480D02*
X0492100Y0283520D01*
X0491260Y0283520D02*
X0491260Y0276480D01*
X0490420Y0276480D02*
X0490420Y0283520D01*
X0489580Y0283520D02*
X0489580Y0276480D01*
X0488740Y0276480D02*
X0488740Y0283520D01*
X0487900Y0283520D02*
X0487900Y0276480D01*
X0482760Y0283520D02*
X0476500Y0283520D01*
X0482760Y0283520D02*
X0482760Y0276480D01*
X0476500Y0276480D01*
X0476500Y0283520D01*
X0481920Y0283520D02*
X0481920Y0276480D01*
X0481080Y0276480D02*
X0481080Y0283520D01*
X0480240Y0283520D02*
X0480240Y0276480D01*
X0479400Y0276480D02*
X0479400Y0283520D01*
X0478560Y0283520D02*
X0478560Y0276480D01*
X0477720Y0276480D02*
X0477720Y0283520D01*
X0476880Y0283520D02*
X0476880Y0276480D01*
X0476500Y0223520D02*
X0482760Y0223520D01*
X0482760Y0216480D01*
X0476500Y0216480D01*
X0476500Y0223520D01*
X0481920Y0223520D02*
X0481920Y0216480D01*
X0481080Y0216480D02*
X0481080Y0223520D01*
X0480240Y0223520D02*
X0480240Y0216480D01*
X0479400Y0216480D02*
X0479400Y0223520D01*
X0478560Y0223520D02*
X0478560Y0216480D01*
X0477720Y0216480D02*
X0477720Y0223520D01*
X0476880Y0223520D02*
X0476880Y0216480D01*
X0487520Y0223520D02*
X0493780Y0223520D01*
X0493780Y0216480D01*
X0487520Y0216480D01*
X0487520Y0223520D01*
X0492940Y0223520D02*
X0492940Y0216480D01*
X0492100Y0216480D02*
X0492100Y0223520D01*
X0491260Y0223520D02*
X0491260Y0216480D01*
X0490420Y0216480D02*
X0490420Y0223520D01*
X0489580Y0223520D02*
X0489580Y0216480D01*
X0488740Y0216480D02*
X0488740Y0223520D01*
X0487900Y0223520D02*
X0487900Y0216480D01*
X0487520Y0163520D02*
X0493780Y0163520D01*
X0493780Y0156480D01*
X0487520Y0156480D01*
X0487520Y0163520D01*
X0492940Y0163520D02*
X0492940Y0156480D01*
X0492100Y0156480D02*
X0492100Y0163520D01*
X0491260Y0163520D02*
X0491260Y0156480D01*
X0490420Y0156480D02*
X0490420Y0163520D01*
X0489580Y0163520D02*
X0489580Y0156480D01*
X0488740Y0156480D02*
X0488740Y0163520D01*
X0487900Y0163520D02*
X0487900Y0156480D01*
X0482760Y0163520D02*
X0476500Y0163520D01*
X0482760Y0163520D02*
X0482760Y0156480D01*
X0476500Y0156480D01*
X0476500Y0163520D01*
X0481920Y0163520D02*
X0481920Y0156480D01*
X0481080Y0156480D02*
X0481080Y0163520D01*
X0480240Y0163520D02*
X0480240Y0156480D01*
X0479400Y0156480D02*
X0479400Y0163520D01*
X0478560Y0163520D02*
X0478560Y0156480D01*
X0477720Y0156480D02*
X0477720Y0163520D01*
X0476880Y0163520D02*
X0476880Y0156480D01*
X0541500Y0251480D02*
X0547760Y0251480D01*
X0541500Y0251480D02*
X0541500Y0258520D01*
X0547760Y0258520D01*
X0547760Y0251480D01*
X0546920Y0251480D02*
X0546920Y0258520D01*
X0546080Y0258520D02*
X0546080Y0251480D01*
X0545240Y0251480D02*
X0545240Y0258520D01*
X0544400Y0258520D02*
X0544400Y0251480D01*
X0543560Y0251480D02*
X0543560Y0258520D01*
X0542720Y0258520D02*
X0542720Y0251480D01*
X0541880Y0251480D02*
X0541880Y0258520D01*
X0552520Y0251480D02*
X0558780Y0251480D01*
X0552520Y0251480D02*
X0552520Y0258520D01*
X0558780Y0258520D01*
X0558780Y0251480D01*
X0557940Y0251480D02*
X0557940Y0258520D01*
X0557100Y0258520D02*
X0557100Y0251480D01*
X0556260Y0251480D02*
X0556260Y0258520D01*
X0555420Y0258520D02*
X0555420Y0251480D01*
X0554580Y0251480D02*
X0554580Y0258520D01*
X0553740Y0258520D02*
X0553740Y0251480D01*
X0552900Y0251480D02*
X0552900Y0258520D01*
X0578660Y0266350D02*
X0578660Y0272610D01*
X0578660Y0266350D02*
X0571620Y0266350D01*
X0571620Y0272610D01*
X0578660Y0272610D01*
X0577820Y0272610D02*
X0577820Y0266350D01*
X0576980Y0266350D02*
X0576980Y0272610D01*
X0576140Y0272610D02*
X0576140Y0266350D01*
X0575300Y0266350D02*
X0575300Y0272610D01*
X0574460Y0272610D02*
X0574460Y0266350D01*
X0573620Y0266350D02*
X0573620Y0272610D01*
X0572780Y0272610D02*
X0572780Y0266350D01*
X0571940Y0266350D02*
X0571940Y0272610D01*
X0578660Y0277380D02*
X0578660Y0283640D01*
X0578660Y0277380D02*
X0571620Y0277380D01*
X0571620Y0283640D01*
X0578660Y0283640D01*
X0577820Y0283640D02*
X0577820Y0277380D01*
X0576980Y0277380D02*
X0576980Y0283640D01*
X0576140Y0283640D02*
X0576140Y0277380D01*
X0575300Y0277380D02*
X0575300Y0283640D01*
X0574460Y0283640D02*
X0574460Y0277380D01*
X0573620Y0277380D02*
X0573620Y0283640D01*
X0572780Y0283640D02*
X0572780Y0277380D01*
X0571940Y0277380D02*
X0571940Y0283640D01*
D539*
X0656720Y0283520D02*
X0656720Y0288280D01*
X0656720Y0283520D02*
X0647960Y0283520D01*
X0647960Y0288280D01*
X0656720Y0288280D01*
X0655890Y0288280D02*
X0655890Y0283520D01*
X0655060Y0283520D02*
X0655060Y0288280D01*
X0654230Y0288280D02*
X0654230Y0283520D01*
X0653400Y0283520D02*
X0653400Y0288280D01*
X0652570Y0288280D02*
X0652570Y0283520D01*
X0651740Y0283520D02*
X0651740Y0288280D01*
X0650910Y0288280D02*
X0650910Y0283520D01*
X0650080Y0283520D02*
X0650080Y0288280D01*
X0649250Y0288280D02*
X0649250Y0283520D01*
X0648420Y0283520D02*
X0648420Y0288280D01*
X0656720Y0292620D02*
X0656720Y0297380D01*
X0656720Y0292620D02*
X0647960Y0292620D01*
X0647960Y0297380D01*
X0656720Y0297380D01*
X0655890Y0297380D02*
X0655890Y0292620D01*
X0655060Y0292620D02*
X0655060Y0297380D01*
X0654230Y0297380D02*
X0654230Y0292620D01*
X0653400Y0292620D02*
X0653400Y0297380D01*
X0652570Y0297380D02*
X0652570Y0292620D01*
X0651740Y0292620D02*
X0651740Y0297380D01*
X0650910Y0297380D02*
X0650910Y0292620D01*
X0650080Y0292620D02*
X0650080Y0297380D01*
X0649250Y0297380D02*
X0649250Y0292620D01*
X0648420Y0292620D02*
X0648420Y0297380D01*
X0656720Y0301720D02*
X0656720Y0306480D01*
X0656720Y0301720D02*
X0647960Y0301720D01*
X0647960Y0306480D01*
X0656720Y0306480D01*
X0655890Y0306480D02*
X0655890Y0301720D01*
X0655060Y0301720D02*
X0655060Y0306480D01*
X0654230Y0306480D02*
X0654230Y0301720D01*
X0653400Y0301720D02*
X0653400Y0306480D01*
X0652570Y0306480D02*
X0652570Y0301720D01*
X0651740Y0301720D02*
X0651740Y0306480D01*
X0650910Y0306480D02*
X0650910Y0301720D01*
X0650080Y0301720D02*
X0650080Y0306480D01*
X0649250Y0306480D02*
X0649250Y0301720D01*
X0648420Y0301720D02*
X0648420Y0306480D01*
X0656720Y0226480D02*
X0656720Y0221720D01*
X0647960Y0221720D01*
X0647960Y0226480D01*
X0656720Y0226480D01*
X0655890Y0226480D02*
X0655890Y0221720D01*
X0655060Y0221720D02*
X0655060Y0226480D01*
X0654230Y0226480D02*
X0654230Y0221720D01*
X0653400Y0221720D02*
X0653400Y0226480D01*
X0652570Y0226480D02*
X0652570Y0221720D01*
X0651740Y0221720D02*
X0651740Y0226480D01*
X0650910Y0226480D02*
X0650910Y0221720D01*
X0650080Y0221720D02*
X0650080Y0226480D01*
X0649250Y0226480D02*
X0649250Y0221720D01*
X0648420Y0221720D02*
X0648420Y0226480D01*
X0656720Y0217380D02*
X0656720Y0212620D01*
X0647960Y0212620D01*
X0647960Y0217380D01*
X0656720Y0217380D01*
X0655890Y0217380D02*
X0655890Y0212620D01*
X0655060Y0212620D02*
X0655060Y0217380D01*
X0654230Y0217380D02*
X0654230Y0212620D01*
X0653400Y0212620D02*
X0653400Y0217380D01*
X0652570Y0217380D02*
X0652570Y0212620D01*
X0651740Y0212620D02*
X0651740Y0217380D01*
X0650910Y0217380D02*
X0650910Y0212620D01*
X0650080Y0212620D02*
X0650080Y0217380D01*
X0649250Y0217380D02*
X0649250Y0212620D01*
X0648420Y0212620D02*
X0648420Y0217380D01*
X0656720Y0208280D02*
X0656720Y0203520D01*
X0647960Y0203520D01*
X0647960Y0208280D01*
X0656720Y0208280D01*
X0655890Y0208280D02*
X0655890Y0203520D01*
X0655060Y0203520D02*
X0655060Y0208280D01*
X0654230Y0208280D02*
X0654230Y0203520D01*
X0653400Y0203520D02*
X0653400Y0208280D01*
X0652570Y0208280D02*
X0652570Y0203520D01*
X0651740Y0203520D02*
X0651740Y0208280D01*
X0650910Y0208280D02*
X0650910Y0203520D01*
X0650080Y0203520D02*
X0650080Y0208280D01*
X0649250Y0208280D02*
X0649250Y0203520D01*
X0648420Y0203520D02*
X0648420Y0208280D01*
D340*
X0632250Y0207940D02*
X0632250Y0222060D01*
X0632250Y0207940D02*
X0623630Y0207940D01*
X0623630Y0222060D01*
X0632250Y0222060D01*
X0631410Y0222060D02*
X0631410Y0207940D01*
X0630570Y0207940D02*
X0630570Y0222060D01*
X0629730Y0222060D02*
X0629730Y0207940D01*
X0628890Y0207940D02*
X0628890Y0222060D01*
X0628050Y0222060D02*
X0628050Y0207940D01*
X0627210Y0207940D02*
X0627210Y0222060D01*
X0626370Y0222060D02*
X0626370Y0207940D01*
X0625530Y0207940D02*
X0625530Y0222060D01*
X0624690Y0222060D02*
X0624690Y0207940D01*
X0623850Y0207940D02*
X0623850Y0222060D01*
X0632250Y0287940D02*
X0632250Y0302060D01*
X0632250Y0287940D02*
X0623630Y0287940D01*
X0623630Y0302060D01*
X0632250Y0302060D01*
X0631410Y0302060D02*
X0631410Y0287940D01*
X0630570Y0287940D02*
X0630570Y0302060D01*
X0629730Y0302060D02*
X0629730Y0287940D01*
X0628890Y0287940D02*
X0628890Y0302060D01*
X0628050Y0302060D02*
X0628050Y0287940D01*
X0627210Y0287940D02*
X0627210Y0302060D01*
X0626370Y0302060D02*
X0626370Y0287940D01*
X0625530Y0287940D02*
X0625530Y0302060D01*
X0624690Y0302060D02*
X0624690Y0287940D01*
X0623850Y0287940D02*
X0623850Y0302060D01*
D284*
X0443140Y0300000D02*
X0437140Y0300000D01*
X0437140Y0310000D02*
X0443140Y0310000D01*
X0443140Y0320000D02*
X0437140Y0320000D01*
X0437140Y0360000D02*
X0443140Y0360000D01*
X0443140Y0370000D02*
X0437140Y0370000D01*
X0437140Y0380000D02*
X0443140Y0380000D01*
X0443140Y0260000D02*
X0437140Y0260000D01*
X0437140Y0250000D02*
X0443140Y0250000D01*
X0443140Y0240000D02*
X0437140Y0240000D01*
X0437140Y0200000D02*
X0443140Y0200000D01*
X0443140Y0190000D02*
X0437140Y0190000D01*
X0437140Y0180000D02*
X0443140Y0180000D01*
X0443140Y0140000D02*
X0437140Y0140000D01*
X0437140Y0130000D02*
X0443140Y0130000D01*
X0443140Y0120000D02*
X0437140Y0120000D01*
X0437140Y0080000D02*
X0443140Y0080000D01*
X0443140Y0070000D02*
X0437140Y0070000D01*
X0437140Y0060000D02*
X0443140Y0060000D01*
D553*
X0420140Y0069840D03*
X0420140Y0050150D03*
X0670140Y0185000D03*
X0670140Y0215000D03*
X0670140Y0265000D03*
X0670140Y0295000D03*
D366*
X0640140Y0332500D03*
X0640140Y0377500D03*
D286*
X0615140Y0337500D03*
D223*
X0670140Y0305000D03*
X0670140Y0275000D03*
X0670140Y0225000D03*
X0670140Y0195000D03*
D463*
X0655140Y0133930D03*
X0673640Y0122120D03*
X0655140Y0110310D03*
D212*
X0545140Y0385000D03*
X0380140Y0370000D03*
X0380140Y0310000D03*
X0380140Y0250000D03*
X0380140Y0190000D03*
X0380140Y0130000D03*
X0380140Y0070000D03*
D74*
X0380140Y0050310D03*
X0380140Y0110310D03*
X0380140Y0170310D03*
X0380140Y0230310D03*
X0380140Y0290310D03*
X0380140Y0350310D03*
X0525450Y0385000D03*
D186*
X0595140Y0305000D03*
X0600140Y0300000D03*
X0575140Y0260000D03*
X0580140Y0250000D03*
X0570140Y0245000D03*
X0510140Y0235000D03*
X0515140Y0105000D03*
X0670140Y0240000D03*
X0020000Y0288200D02*
G75*
%LPD*%
D263*
X0024800Y0293000D03*
X0026000Y0391400D03*
X0276800Y0391400D03*
X0276800Y0293000D03*
D598*
X0121250Y0335880D02*
X0121250Y0337240D01*
X0126750Y0337240D01*
X0126750Y0335880D01*
X0121250Y0335880D01*
X0121250Y0336670D02*
X0126750Y0336670D01*
X0121250Y0338440D02*
X0121250Y0339800D01*
X0126750Y0339800D01*
X0126750Y0338440D01*
X0121250Y0338440D01*
X0121250Y0339230D02*
X0126750Y0339230D01*
X0121250Y0341000D02*
X0121250Y0342360D01*
X0126750Y0342360D01*
X0126750Y0341000D01*
X0121250Y0341000D01*
X0121250Y0341790D02*
X0126750Y0341790D01*
X0121250Y0343560D02*
X0121250Y0344920D01*
X0126750Y0344920D01*
X0126750Y0343560D01*
X0121250Y0343560D01*
X0121250Y0344350D02*
X0126750Y0344350D01*
X0121250Y0346120D02*
X0121250Y0347480D01*
X0126750Y0347480D01*
X0126750Y0346120D01*
X0121250Y0346120D01*
X0121250Y0346910D02*
X0126750Y0346910D01*
X0121250Y0348680D02*
X0121250Y0350040D01*
X0126750Y0350040D01*
X0126750Y0348680D01*
X0121250Y0348680D01*
X0121250Y0349470D02*
X0126750Y0349470D01*
X0121250Y0351240D02*
X0121250Y0352600D01*
X0126750Y0352600D01*
X0126750Y0351240D01*
X0121250Y0351240D01*
X0121250Y0352030D02*
X0126750Y0352030D01*
X0121250Y0353800D02*
X0121250Y0355160D01*
X0126750Y0355160D01*
X0126750Y0353800D01*
X0121250Y0353800D01*
X0121250Y0354590D02*
X0126750Y0354590D01*
X0121250Y0356360D02*
X0121250Y0357720D01*
X0126750Y0357720D01*
X0126750Y0356360D01*
X0121250Y0356360D01*
X0121250Y0357150D02*
X0126750Y0357150D01*
X0121250Y0358920D02*
X0121250Y0360280D01*
X0126750Y0360280D01*
X0126750Y0358920D01*
X0121250Y0358920D01*
X0121250Y0359710D02*
X0126750Y0359710D01*
X0121250Y0361470D02*
X0121250Y0362830D01*
X0126750Y0362830D01*
X0126750Y0361470D01*
X0121250Y0361470D01*
X0121250Y0362260D02*
X0126750Y0362260D01*
X0121250Y0364030D02*
X0121250Y0365390D01*
X0126750Y0365390D01*
X0126750Y0364030D01*
X0121250Y0364030D01*
X0121250Y0364820D02*
X0126750Y0364820D01*
X0121250Y0366590D02*
X0121250Y0367950D01*
X0126750Y0367950D01*
X0126750Y0366590D01*
X0121250Y0366590D01*
X0121250Y0367380D02*
X0126750Y0367380D01*
X0121250Y0369150D02*
X0121250Y0370510D01*
X0126750Y0370510D01*
X0126750Y0369150D01*
X0121250Y0369150D01*
X0121250Y0369940D02*
X0126750Y0369940D01*
X0092460Y0369150D02*
X0092460Y0370510D01*
X0097960Y0370510D01*
X0097960Y0369150D01*
X0092460Y0369150D01*
X0092460Y0369940D02*
X0097960Y0369940D01*
X0092460Y0367950D02*
X0092460Y0366590D01*
X0092460Y0367950D02*
X0097960Y0367950D01*
X0097960Y0366590D01*
X0092460Y0366590D01*
X0092460Y0367380D02*
X0097960Y0367380D01*
X0092460Y0365390D02*
X0092460Y0364030D01*
X0092460Y0365390D02*
X0097960Y0365390D01*
X0097960Y0364030D01*
X0092460Y0364030D01*
X0092460Y0364820D02*
X0097960Y0364820D01*
X0092460Y0362830D02*
X0092460Y0361470D01*
X0092460Y0362830D02*
X0097960Y0362830D01*
X0097960Y0361470D01*
X0092460Y0361470D01*
X0092460Y0362260D02*
X0097960Y0362260D01*
X0092460Y0360280D02*
X0092460Y0358920D01*
X0092460Y0360280D02*
X0097960Y0360280D01*
X0097960Y0358920D01*
X0092460Y0358920D01*
X0092460Y0359710D02*
X0097960Y0359710D01*
X0092460Y0357720D02*
X0092460Y0356360D01*
X0092460Y0357720D02*
X0097960Y0357720D01*
X0097960Y0356360D01*
X0092460Y0356360D01*
X0092460Y0357150D02*
X0097960Y0357150D01*
X0092460Y0355160D02*
X0092460Y0353800D01*
X0092460Y0355160D02*
X0097960Y0355160D01*
X0097960Y0353800D01*
X0092460Y0353800D01*
X0092460Y0354590D02*
X0097960Y0354590D01*
X0092460Y0352600D02*
X0092460Y0351240D01*
X0092460Y0352600D02*
X0097960Y0352600D01*
X0097960Y0351240D01*
X0092460Y0351240D01*
X0092460Y0352030D02*
X0097960Y0352030D01*
X0092460Y0350040D02*
X0092460Y0348680D01*
X0092460Y0350040D02*
X0097960Y0350040D01*
X0097960Y0348680D01*
X0092460Y0348680D01*
X0092460Y0349470D02*
X0097960Y0349470D01*
X0092460Y0347480D02*
X0092460Y0346120D01*
X0092460Y0347480D02*
X0097960Y0347480D01*
X0097960Y0346120D01*
X0092460Y0346120D01*
X0092460Y0346910D02*
X0097960Y0346910D01*
X0092460Y0344920D02*
X0092460Y0343560D01*
X0092460Y0344920D02*
X0097960Y0344920D01*
X0097960Y0343560D01*
X0092460Y0343560D01*
X0092460Y0344350D02*
X0097960Y0344350D01*
X0092460Y0342360D02*
X0092460Y0341000D01*
X0092460Y0342360D02*
X0097960Y0342360D01*
X0097960Y0341000D01*
X0092460Y0341000D01*
X0092460Y0341790D02*
X0097960Y0341790D01*
X0092460Y0339800D02*
X0092460Y0338440D01*
X0092460Y0339800D02*
X0097960Y0339800D01*
X0097960Y0338440D01*
X0092460Y0338440D01*
X0092460Y0339230D02*
X0097960Y0339230D01*
X0092460Y0337240D02*
X0092460Y0335880D01*
X0092460Y0337240D02*
X0097960Y0337240D01*
X0097960Y0335880D01*
X0092460Y0335880D01*
X0092460Y0336670D02*
X0097960Y0336670D01*
X0059360Y0353320D02*
X0049520Y0353320D01*
X0049520Y0355280D01*
X0059360Y0355280D01*
X0059360Y0353320D01*
X0059360Y0354110D02*
X0049520Y0354110D01*
X0049520Y0354900D02*
X0059360Y0354900D01*
X0059360Y0356470D02*
X0049520Y0356470D01*
X0049520Y0358430D01*
X0059360Y0358430D01*
X0059360Y0356470D01*
X0059360Y0357260D02*
X0049520Y0357260D01*
X0049520Y0358050D02*
X0059360Y0358050D01*
X0059360Y0359620D02*
X0049520Y0359620D01*
X0049520Y0361580D01*
X0059360Y0361580D01*
X0059360Y0359620D01*
X0059360Y0360410D02*
X0049520Y0360410D01*
X0049520Y0361200D02*
X0059360Y0361200D01*
X0059360Y0362770D02*
X0049520Y0362770D01*
X0049520Y0364730D01*
X0059360Y0364730D01*
X0059360Y0362770D01*
X0059360Y0363560D02*
X0049520Y0363560D01*
X0049520Y0364350D02*
X0059360Y0364350D01*
X0059360Y0365920D02*
X0049520Y0365920D01*
X0049520Y0367880D01*
X0059360Y0367880D01*
X0059360Y0365920D01*
X0059360Y0366710D02*
X0049520Y0366710D01*
X0049520Y0367500D02*
X0059360Y0367500D01*
D493*
X0059330Y0374410D02*
X0049550Y0374410D01*
X0049550Y0382210D01*
X0059330Y0382210D01*
X0059330Y0374410D01*
X0059330Y0375270D02*
X0049550Y0375270D01*
X0049550Y0376130D02*
X0059330Y0376130D01*
X0059330Y0376990D02*
X0049550Y0376990D01*
X0049550Y0377850D02*
X0059330Y0377850D01*
X0059330Y0378710D02*
X0049550Y0378710D01*
X0049550Y0379570D02*
X0059330Y0379570D01*
X0059330Y0380430D02*
X0049550Y0380430D01*
X0049550Y0381290D02*
X0059330Y0381290D01*
X0059330Y0382150D02*
X0049550Y0382150D01*
X0037680Y0374410D02*
X0027900Y0374410D01*
X0027900Y0382210D01*
X0037680Y0382210D01*
X0037680Y0374410D01*
X0037680Y0375270D02*
X0027900Y0375270D01*
X0027900Y0376130D02*
X0037680Y0376130D01*
X0037680Y0376990D02*
X0027900Y0376990D01*
X0027900Y0377850D02*
X0037680Y0377850D01*
X0037680Y0378710D02*
X0027900Y0378710D01*
X0027900Y0379570D02*
X0037680Y0379570D01*
X0037680Y0380430D02*
X0027900Y0380430D01*
X0027900Y0381290D02*
X0037680Y0381290D01*
X0037680Y0382150D02*
X0027900Y0382150D01*
X0027900Y0338980D02*
X0037680Y0338980D01*
X0027900Y0338980D02*
X0027900Y0346780D01*
X0037680Y0346780D01*
X0037680Y0338980D01*
X0037680Y0339840D02*
X0027900Y0339840D01*
X0027900Y0340700D02*
X0037680Y0340700D01*
X0037680Y0341560D02*
X0027900Y0341560D01*
X0027900Y0342420D02*
X0037680Y0342420D01*
X0037680Y0343280D02*
X0027900Y0343280D01*
X0027900Y0344140D02*
X0037680Y0344140D01*
X0037680Y0345000D02*
X0027900Y0345000D01*
X0027900Y0345860D02*
X0037680Y0345860D01*
X0037680Y0346720D02*
X0027900Y0346720D01*
X0049550Y0338980D02*
X0059330Y0338980D01*
X0049550Y0338980D02*
X0049550Y0346780D01*
X0059330Y0346780D01*
X0059330Y0338980D01*
X0059330Y0339840D02*
X0049550Y0339840D01*
X0049550Y0340700D02*
X0059330Y0340700D01*
X0059330Y0341560D02*
X0049550Y0341560D01*
X0049550Y0342420D02*
X0059330Y0342420D01*
X0059330Y0343280D02*
X0049550Y0343280D01*
X0049550Y0344140D02*
X0059330Y0344140D01*
X0059330Y0345000D02*
X0049550Y0345000D01*
X0049550Y0345860D02*
X0059330Y0345860D01*
X0059330Y0346720D02*
X0049550Y0346720D01*
D110*
X0044600Y0351940D03*
X0044600Y0369260D03*
D340*
X0086080Y0374560D02*
X0086080Y0380820D01*
X0093120Y0380820D01*
X0093120Y0374560D01*
X0086080Y0374560D01*
X0086080Y0375400D02*
X0093120Y0375400D01*
X0093120Y0376240D02*
X0086080Y0376240D01*
X0086080Y0377080D02*
X0093120Y0377080D01*
X0093120Y0377920D02*
X0086080Y0377920D01*
X0086080Y0378760D02*
X0093120Y0378760D01*
X0093120Y0379600D02*
X0086080Y0379600D01*
X0086080Y0380440D02*
X0093120Y0380440D01*
X0100960Y0384680D02*
X0107220Y0384680D01*
X0100960Y0384680D02*
X0100960Y0391720D01*
X0107220Y0391720D01*
X0107220Y0384680D01*
X0107220Y0385520D02*
X0100960Y0385520D01*
X0100960Y0386360D02*
X0107220Y0386360D01*
X0107220Y0387200D02*
X0100960Y0387200D01*
X0100960Y0388040D02*
X0107220Y0388040D01*
X0107220Y0388880D02*
X0100960Y0388880D01*
X0100960Y0389720D02*
X0107220Y0389720D01*
X0107220Y0390560D02*
X0100960Y0390560D01*
X0100960Y0391400D02*
X0107220Y0391400D01*
X0111980Y0384680D02*
X0118240Y0384680D01*
X0111980Y0384680D02*
X0111980Y0391720D01*
X0118240Y0391720D01*
X0118240Y0384680D01*
X0118240Y0385520D02*
X0111980Y0385520D01*
X0111980Y0386360D02*
X0118240Y0386360D01*
X0118240Y0387200D02*
X0111980Y0387200D01*
X0111980Y0388040D02*
X0118240Y0388040D01*
X0118240Y0388880D02*
X0111980Y0388880D01*
X0111980Y0389720D02*
X0118240Y0389720D01*
X0118240Y0390560D02*
X0111980Y0390560D01*
X0111980Y0391400D02*
X0118240Y0391400D01*
X0086080Y0391840D02*
X0086080Y0385580D01*
X0086080Y0391840D02*
X0093120Y0391840D01*
X0093120Y0385580D01*
X0086080Y0385580D01*
X0086080Y0386420D02*
X0093120Y0386420D01*
X0093120Y0387260D02*
X0086080Y0387260D01*
X0086080Y0388100D02*
X0093120Y0388100D01*
X0093120Y0388940D02*
X0086080Y0388940D01*
X0086080Y0389780D02*
X0093120Y0389780D01*
X0093120Y0390620D02*
X0086080Y0390620D01*
X0086080Y0391460D02*
X0093120Y0391460D01*
X0133960Y0366280D02*
X0140220Y0366280D01*
X0133960Y0366280D02*
X0133960Y0373320D01*
X0140220Y0373320D01*
X0140220Y0366280D01*
X0140220Y0367120D02*
X0133960Y0367120D01*
X0133960Y0367960D02*
X0140220Y0367960D01*
X0140220Y0368800D02*
X0133960Y0368800D01*
X0133960Y0369640D02*
X0140220Y0369640D01*
X0140220Y0370480D02*
X0133960Y0370480D01*
X0133960Y0371320D02*
X0140220Y0371320D01*
X0140220Y0372160D02*
X0133960Y0372160D01*
X0133960Y0373000D02*
X0140220Y0373000D01*
X0144980Y0366280D02*
X0151240Y0366280D01*
X0144980Y0366280D02*
X0144980Y0373320D01*
X0151240Y0373320D01*
X0151240Y0366280D01*
X0151240Y0367120D02*
X0144980Y0367120D01*
X0144980Y0367960D02*
X0151240Y0367960D01*
X0151240Y0368800D02*
X0144980Y0368800D01*
X0144980Y0369640D02*
X0151240Y0369640D01*
X0151240Y0370480D02*
X0144980Y0370480D01*
X0144980Y0371320D02*
X0151240Y0371320D01*
X0151240Y0372160D02*
X0144980Y0372160D01*
X0144980Y0373000D02*
X0151240Y0373000D01*
X0148240Y0319680D02*
X0141980Y0319680D01*
X0141980Y0326720D01*
X0148240Y0326720D01*
X0148240Y0319680D01*
X0148240Y0320520D02*
X0141980Y0320520D01*
X0141980Y0321360D02*
X0148240Y0321360D01*
X0148240Y0322200D02*
X0141980Y0322200D01*
X0141980Y0323040D02*
X0148240Y0323040D01*
X0148240Y0323880D02*
X0141980Y0323880D01*
X0141980Y0324720D02*
X0148240Y0324720D01*
X0148240Y0325560D02*
X0141980Y0325560D01*
X0141980Y0326400D02*
X0148240Y0326400D01*
X0155960Y0326720D02*
X0162220Y0326720D01*
X0162220Y0319680D01*
X0155960Y0319680D01*
X0155960Y0326720D01*
X0155960Y0320520D02*
X0162220Y0320520D01*
X0162220Y0321360D02*
X0155960Y0321360D01*
X0155960Y0322200D02*
X0162220Y0322200D01*
X0162220Y0323040D02*
X0155960Y0323040D01*
X0155960Y0323880D02*
X0162220Y0323880D01*
X0162220Y0324720D02*
X0155960Y0324720D01*
X0155960Y0325560D02*
X0162220Y0325560D01*
X0162220Y0326400D02*
X0155960Y0326400D01*
X0166980Y0326720D02*
X0173240Y0326720D01*
X0173240Y0319680D01*
X0166980Y0319680D01*
X0166980Y0326720D01*
X0166980Y0320520D02*
X0173240Y0320520D01*
X0173240Y0321360D02*
X0166980Y0321360D01*
X0166980Y0322200D02*
X0173240Y0322200D01*
X0173240Y0323040D02*
X0166980Y0323040D01*
X0166980Y0323880D02*
X0173240Y0323880D01*
X0173240Y0324720D02*
X0166980Y0324720D01*
X0166980Y0325560D02*
X0173240Y0325560D01*
X0173240Y0326400D02*
X0166980Y0326400D01*
X0137220Y0319680D02*
X0130960Y0319680D01*
X0130960Y0326720D01*
X0137220Y0326720D01*
X0137220Y0319680D01*
X0137220Y0320520D02*
X0130960Y0320520D01*
X0130960Y0321360D02*
X0137220Y0321360D01*
X0137220Y0322200D02*
X0130960Y0322200D01*
X0130960Y0323040D02*
X0137220Y0323040D01*
X0137220Y0323880D02*
X0130960Y0323880D01*
X0130960Y0324720D02*
X0137220Y0324720D01*
X0137220Y0325560D02*
X0130960Y0325560D01*
X0130960Y0326400D02*
X0137220Y0326400D01*
X0138240Y0316720D02*
X0131980Y0316720D01*
X0138240Y0316720D02*
X0138240Y0309680D01*
X0131980Y0309680D01*
X0131980Y0316720D01*
X0131980Y0310520D02*
X0138240Y0310520D01*
X0138240Y0311360D02*
X0131980Y0311360D01*
X0131980Y0312200D02*
X0138240Y0312200D01*
X0138240Y0313040D02*
X0131980Y0313040D01*
X0131980Y0313880D02*
X0138240Y0313880D01*
X0138240Y0314720D02*
X0131980Y0314720D01*
X0131980Y0315560D02*
X0138240Y0315560D01*
X0138240Y0316400D02*
X0131980Y0316400D01*
X0127220Y0316720D02*
X0120960Y0316720D01*
X0127220Y0316720D02*
X0127220Y0309680D01*
X0120960Y0309680D01*
X0120960Y0316720D01*
X0120960Y0310520D02*
X0127220Y0310520D01*
X0127220Y0311360D02*
X0120960Y0311360D01*
X0120960Y0312200D02*
X0127220Y0312200D01*
X0127220Y0313040D02*
X0120960Y0313040D01*
X0120960Y0313880D02*
X0127220Y0313880D01*
X0127220Y0314720D02*
X0120960Y0314720D01*
X0120960Y0315560D02*
X0127220Y0315560D01*
X0127220Y0316400D02*
X0120960Y0316400D01*
X0160960Y0311720D02*
X0167220Y0311720D01*
X0167220Y0304680D01*
X0160960Y0304680D01*
X0160960Y0311720D01*
X0160960Y0305520D02*
X0167220Y0305520D01*
X0167220Y0306360D02*
X0160960Y0306360D01*
X0160960Y0307200D02*
X0167220Y0307200D01*
X0167220Y0308040D02*
X0160960Y0308040D01*
X0160960Y0308880D02*
X0167220Y0308880D01*
X0167220Y0309720D02*
X0160960Y0309720D01*
X0160960Y0310560D02*
X0167220Y0310560D01*
X0167220Y0311400D02*
X0160960Y0311400D01*
X0171980Y0311720D02*
X0178240Y0311720D01*
X0178240Y0304680D01*
X0171980Y0304680D01*
X0171980Y0311720D01*
X0171980Y0305520D02*
X0178240Y0305520D01*
X0178240Y0306360D02*
X0171980Y0306360D01*
X0171980Y0307200D02*
X0178240Y0307200D01*
X0178240Y0308040D02*
X0171980Y0308040D01*
X0171980Y0308880D02*
X0178240Y0308880D01*
X0178240Y0309720D02*
X0171980Y0309720D01*
X0171980Y0310560D02*
X0178240Y0310560D01*
X0178240Y0311400D02*
X0171980Y0311400D01*
D371*
X0077740Y0380430D02*
X0071460Y0380430D01*
X0077740Y0380430D02*
X0077740Y0374950D01*
X0071460Y0374950D01*
X0071460Y0380430D01*
X0071460Y0375760D02*
X0077740Y0375760D01*
X0077740Y0376570D02*
X0071460Y0376570D01*
X0071460Y0377380D02*
X0077740Y0377380D01*
X0077740Y0378190D02*
X0071460Y0378190D01*
X0071460Y0379000D02*
X0077740Y0379000D01*
X0077740Y0379810D02*
X0071460Y0379810D01*
X0071460Y0391450D02*
X0077740Y0391450D01*
X0077740Y0385970D01*
X0071460Y0385970D01*
X0071460Y0391450D01*
X0071460Y0386780D02*
X0077740Y0386780D01*
X0077740Y0387590D02*
X0071460Y0387590D01*
X0071460Y0388400D02*
X0077740Y0388400D01*
X0077740Y0389210D02*
X0071460Y0389210D01*
X0071460Y0390020D02*
X0077740Y0390020D01*
X0077740Y0390830D02*
X0071460Y0390830D01*
D598*
X0099760Y0381150D02*
X0099760Y0375250D01*
X0099760Y0381150D02*
X0105660Y0381150D01*
X0105660Y0375250D01*
X0099760Y0375250D01*
X0099760Y0376040D02*
X0105660Y0376040D01*
X0105660Y0376830D02*
X0099760Y0376830D01*
X0099760Y0377620D02*
X0105660Y0377620D01*
X0105660Y0378410D02*
X0099760Y0378410D01*
X0099760Y0379200D02*
X0105660Y0379200D01*
X0105660Y0379990D02*
X0099760Y0379990D01*
X0099760Y0380780D02*
X0105660Y0380780D01*
X0113540Y0381150D02*
X0113540Y0375250D01*
X0113540Y0381150D02*
X0119440Y0381150D01*
X0119440Y0375250D01*
X0113540Y0375250D01*
X0113540Y0376040D02*
X0119440Y0376040D01*
X0119440Y0376830D02*
X0113540Y0376830D01*
X0113540Y0377620D02*
X0119440Y0377620D01*
X0119440Y0378410D02*
X0113540Y0378410D01*
X0113540Y0379200D02*
X0119440Y0379200D01*
X0119440Y0379990D02*
X0113540Y0379990D01*
X0113540Y0380780D02*
X0119440Y0380780D01*
X0119440Y0324150D02*
X0119440Y0318250D01*
X0113540Y0318250D01*
X0113540Y0324150D01*
X0119440Y0324150D01*
X0119440Y0319040D02*
X0113540Y0319040D01*
X0113540Y0319830D02*
X0119440Y0319830D01*
X0119440Y0320620D02*
X0113540Y0320620D01*
X0113540Y0321410D02*
X0119440Y0321410D01*
X0119440Y0322200D02*
X0113540Y0322200D01*
X0113540Y0322990D02*
X0119440Y0322990D01*
X0119440Y0323780D02*
X0113540Y0323780D01*
X0105660Y0324150D02*
X0105660Y0318250D01*
X0099760Y0318250D01*
X0099760Y0324150D01*
X0105660Y0324150D01*
X0105660Y0319040D02*
X0099760Y0319040D01*
X0099760Y0319830D02*
X0105660Y0319830D01*
X0105660Y0320620D02*
X0099760Y0320620D01*
X0099760Y0321410D02*
X0105660Y0321410D01*
X0105660Y0322200D02*
X0099760Y0322200D01*
X0099760Y0322990D02*
X0105660Y0322990D01*
X0105660Y0323780D02*
X0099760Y0323780D01*
D166*
X0203000Y0325100D03*
X0213000Y0330100D03*
X0203000Y0335100D03*
X0213000Y0340100D03*
X0203000Y0345100D03*
X0213000Y0350100D03*
X0203000Y0355100D03*
X0179600Y0376000D03*
X0169600Y0376000D03*
X0140000Y0383400D03*
X0130000Y0383400D03*
D371*
X0153310Y0356310D02*
X0155890Y0356310D01*
X0153310Y0356310D02*
X0153310Y0364290D01*
X0155890Y0364290D01*
X0155890Y0356310D01*
X0155890Y0357120D02*
X0153310Y0357120D01*
X0153310Y0357930D02*
X0155890Y0357930D01*
X0155890Y0358740D02*
X0153310Y0358740D01*
X0153310Y0359550D02*
X0155890Y0359550D01*
X0155890Y0360360D02*
X0153310Y0360360D01*
X0153310Y0361170D02*
X0155890Y0361170D01*
X0155890Y0361980D02*
X0153310Y0361980D01*
X0153310Y0362790D02*
X0155890Y0362790D01*
X0155890Y0363600D02*
X0153310Y0363600D01*
X0158310Y0356310D02*
X0160890Y0356310D01*
X0158310Y0356310D02*
X0158310Y0364290D01*
X0160890Y0364290D01*
X0160890Y0356310D01*
X0160890Y0357120D02*
X0158310Y0357120D01*
X0158310Y0357930D02*
X0160890Y0357930D01*
X0160890Y0358740D02*
X0158310Y0358740D01*
X0158310Y0359550D02*
X0160890Y0359550D01*
X0160890Y0360360D02*
X0158310Y0360360D01*
X0158310Y0361170D02*
X0160890Y0361170D01*
X0160890Y0361980D02*
X0158310Y0361980D01*
X0158310Y0362790D02*
X0160890Y0362790D01*
X0160890Y0363600D02*
X0158310Y0363600D01*
X0163310Y0356310D02*
X0165890Y0356310D01*
X0163310Y0356310D02*
X0163310Y0364290D01*
X0165890Y0364290D01*
X0165890Y0356310D01*
X0165890Y0357120D02*
X0163310Y0357120D01*
X0163310Y0357930D02*
X0165890Y0357930D01*
X0165890Y0358740D02*
X0163310Y0358740D01*
X0163310Y0359550D02*
X0165890Y0359550D01*
X0165890Y0360360D02*
X0163310Y0360360D01*
X0163310Y0361170D02*
X0165890Y0361170D01*
X0165890Y0361980D02*
X0163310Y0361980D01*
X0163310Y0362790D02*
X0165890Y0362790D01*
X0165890Y0363600D02*
X0163310Y0363600D01*
X0168310Y0356310D02*
X0170890Y0356310D01*
X0168310Y0356310D02*
X0168310Y0364290D01*
X0170890Y0364290D01*
X0170890Y0356310D01*
X0170890Y0357120D02*
X0168310Y0357120D01*
X0168310Y0357930D02*
X0170890Y0357930D01*
X0170890Y0358740D02*
X0168310Y0358740D01*
X0168310Y0359550D02*
X0170890Y0359550D01*
X0170890Y0360360D02*
X0168310Y0360360D01*
X0168310Y0361170D02*
X0170890Y0361170D01*
X0170890Y0361980D02*
X0168310Y0361980D01*
X0168310Y0362790D02*
X0170890Y0362790D01*
X0170890Y0363600D02*
X0168310Y0363600D01*
X0173310Y0356310D02*
X0175890Y0356310D01*
X0173310Y0356310D02*
X0173310Y0364290D01*
X0175890Y0364290D01*
X0175890Y0356310D01*
X0175890Y0357120D02*
X0173310Y0357120D01*
X0173310Y0357930D02*
X0175890Y0357930D01*
X0175890Y0358740D02*
X0173310Y0358740D01*
X0173310Y0359550D02*
X0175890Y0359550D01*
X0175890Y0360360D02*
X0173310Y0360360D01*
X0173310Y0361170D02*
X0175890Y0361170D01*
X0175890Y0361980D02*
X0173310Y0361980D01*
X0173310Y0362790D02*
X0175890Y0362790D01*
X0175890Y0363600D02*
X0173310Y0363600D01*
X0178310Y0356310D02*
X0180890Y0356310D01*
X0178310Y0356310D02*
X0178310Y0364290D01*
X0180890Y0364290D01*
X0180890Y0356310D01*
X0180890Y0357120D02*
X0178310Y0357120D01*
X0178310Y0357930D02*
X0180890Y0357930D01*
X0180890Y0358740D02*
X0178310Y0358740D01*
X0178310Y0359550D02*
X0180890Y0359550D01*
X0180890Y0360360D02*
X0178310Y0360360D01*
X0178310Y0361170D02*
X0180890Y0361170D01*
X0180890Y0361980D02*
X0178310Y0361980D01*
X0178310Y0362790D02*
X0180890Y0362790D01*
X0180890Y0363600D02*
X0178310Y0363600D01*
X0183310Y0356310D02*
X0185890Y0356310D01*
X0183310Y0356310D02*
X0183310Y0364290D01*
X0185890Y0364290D01*
X0185890Y0356310D01*
X0185890Y0357120D02*
X0183310Y0357120D01*
X0183310Y0357930D02*
X0185890Y0357930D01*
X0185890Y0358740D02*
X0183310Y0358740D01*
X0183310Y0359550D02*
X0185890Y0359550D01*
X0185890Y0360360D02*
X0183310Y0360360D01*
X0183310Y0361170D02*
X0185890Y0361170D01*
X0185890Y0361980D02*
X0183310Y0361980D01*
X0183310Y0362790D02*
X0185890Y0362790D01*
X0185890Y0363600D02*
X0183310Y0363600D01*
X0183310Y0332110D02*
X0185890Y0332110D01*
X0183310Y0332110D02*
X0183310Y0340090D01*
X0185890Y0340090D01*
X0185890Y0332110D01*
X0185890Y0332920D02*
X0183310Y0332920D01*
X0183310Y0333730D02*
X0185890Y0333730D01*
X0185890Y0334540D02*
X0183310Y0334540D01*
X0183310Y0335350D02*
X0185890Y0335350D01*
X0185890Y0336160D02*
X0183310Y0336160D01*
X0183310Y0336970D02*
X0185890Y0336970D01*
X0185890Y0337780D02*
X0183310Y0337780D01*
X0183310Y0338590D02*
X0185890Y0338590D01*
X0185890Y0339400D02*
X0183310Y0339400D01*
X0180890Y0332110D02*
X0178310Y0332110D01*
X0178310Y0340090D01*
X0180890Y0340090D01*
X0180890Y0332110D01*
X0180890Y0332920D02*
X0178310Y0332920D01*
X0178310Y0333730D02*
X0180890Y0333730D01*
X0180890Y0334540D02*
X0178310Y0334540D01*
X0178310Y0335350D02*
X0180890Y0335350D01*
X0180890Y0336160D02*
X0178310Y0336160D01*
X0178310Y0336970D02*
X0180890Y0336970D01*
X0180890Y0337780D02*
X0178310Y0337780D01*
X0178310Y0338590D02*
X0180890Y0338590D01*
X0180890Y0339400D02*
X0178310Y0339400D01*
X0175890Y0332110D02*
X0173310Y0332110D01*
X0173310Y0340090D01*
X0175890Y0340090D01*
X0175890Y0332110D01*
X0175890Y0332920D02*
X0173310Y0332920D01*
X0173310Y0333730D02*
X0175890Y0333730D01*
X0175890Y0334540D02*
X0173310Y0334540D01*
X0173310Y0335350D02*
X0175890Y0335350D01*
X0175890Y0336160D02*
X0173310Y0336160D01*
X0173310Y0336970D02*
X0175890Y0336970D01*
X0175890Y0337780D02*
X0173310Y0337780D01*
X0173310Y0338590D02*
X0175890Y0338590D01*
X0175890Y0339400D02*
X0173310Y0339400D01*
X0170890Y0332110D02*
X0168310Y0332110D01*
X0168310Y0340090D01*
X0170890Y0340090D01*
X0170890Y0332110D01*
X0170890Y0332920D02*
X0168310Y0332920D01*
X0168310Y0333730D02*
X0170890Y0333730D01*
X0170890Y0334540D02*
X0168310Y0334540D01*
X0168310Y0335350D02*
X0170890Y0335350D01*
X0170890Y0336160D02*
X0168310Y0336160D01*
X0168310Y0336970D02*
X0170890Y0336970D01*
X0170890Y0337780D02*
X0168310Y0337780D01*
X0168310Y0338590D02*
X0170890Y0338590D01*
X0170890Y0339400D02*
X0168310Y0339400D01*
X0165890Y0332110D02*
X0163310Y0332110D01*
X0163310Y0340090D01*
X0165890Y0340090D01*
X0165890Y0332110D01*
X0165890Y0332920D02*
X0163310Y0332920D01*
X0163310Y0333730D02*
X0165890Y0333730D01*
X0165890Y0334540D02*
X0163310Y0334540D01*
X0163310Y0335350D02*
X0165890Y0335350D01*
X0165890Y0336160D02*
X0163310Y0336160D01*
X0163310Y0336970D02*
X0165890Y0336970D01*
X0165890Y0337780D02*
X0163310Y0337780D01*
X0163310Y0338590D02*
X0165890Y0338590D01*
X0165890Y0339400D02*
X0163310Y0339400D01*
X0160890Y0332110D02*
X0158310Y0332110D01*
X0158310Y0340090D01*
X0160890Y0340090D01*
X0160890Y0332110D01*
X0160890Y0332920D02*
X0158310Y0332920D01*
X0158310Y0333730D02*
X0160890Y0333730D01*
X0160890Y0334540D02*
X0158310Y0334540D01*
X0158310Y0335350D02*
X0160890Y0335350D01*
X0160890Y0336160D02*
X0158310Y0336160D01*
X0158310Y0336970D02*
X0160890Y0336970D01*
X0160890Y0337780D02*
X0158310Y0337780D01*
X0158310Y0338590D02*
X0160890Y0338590D01*
X0160890Y0339400D02*
X0158310Y0339400D01*
X0155890Y0332110D02*
X0153310Y0332110D01*
X0153310Y0340090D01*
X0155890Y0340090D01*
X0155890Y0332110D01*
X0155890Y0332920D02*
X0153310Y0332920D01*
X0153310Y0333730D02*
X0155890Y0333730D01*
X0155890Y0334540D02*
X0153310Y0334540D01*
X0153310Y0335350D02*
X0155890Y0335350D01*
X0155890Y0336160D02*
X0153310Y0336160D01*
X0153310Y0336970D02*
X0155890Y0336970D01*
X0155890Y0337780D02*
X0153310Y0337780D01*
X0153310Y0338590D02*
X0155890Y0338590D01*
X0155890Y0339400D02*
X0153310Y0339400D01*
D366*
X0238000Y0360100D03*
X0238000Y0315100D03*
D286*
X0213000Y0320100D03*
D463*
X0074940Y0318000D03*
X0051320Y0318000D03*
X0063130Y0299490D03*
D28*
X0135200Y0332600D03*
X0112200Y0340400D03*
X0105600Y0336200D03*
X0112400Y0348200D03*
X0131600Y0343400D03*
X0112400Y0356600D03*
X0105200Y0357800D03*
X0130400Y0369800D03*
X0088400Y0371000D03*
X0067800Y0363600D03*
X0068000Y0357600D03*
X0174800Y0345800D03*
D688*
X0175000Y0368200D03*
X0038720Y0403260D02*
G75*
%LPD*%
D329*
X0348680Y0413260D03*
X0048680Y0413260D03*
X0048680Y0778260D03*
X0348680Y0778260D03*
D371*
X0289970Y0666370D02*
X0287390Y0666370D01*
X0287390Y0674350D01*
X0289970Y0674350D01*
X0289970Y0666370D01*
X0289160Y0666370D02*
X0289160Y0674350D01*
X0288350Y0674350D02*
X0288350Y0666370D01*
X0287540Y0666370D02*
X0287540Y0674350D01*
X0284970Y0666370D02*
X0282390Y0666370D01*
X0282390Y0674350D01*
X0284970Y0674350D01*
X0284970Y0666370D01*
X0284160Y0666370D02*
X0284160Y0674350D01*
X0283350Y0674350D02*
X0283350Y0666370D01*
X0282540Y0666370D02*
X0282540Y0674350D01*
X0279970Y0666370D02*
X0277390Y0666370D01*
X0277390Y0674350D01*
X0279970Y0674350D01*
X0279970Y0666370D01*
X0279160Y0666370D02*
X0279160Y0674350D01*
X0278350Y0674350D02*
X0278350Y0666370D01*
X0277540Y0666370D02*
X0277540Y0674350D01*
X0274970Y0666370D02*
X0272390Y0666370D01*
X0272390Y0674350D01*
X0274970Y0674350D01*
X0274970Y0666370D01*
X0274160Y0666370D02*
X0274160Y0674350D01*
X0273350Y0674350D02*
X0273350Y0666370D01*
X0272540Y0666370D02*
X0272540Y0674350D01*
X0269970Y0666370D02*
X0267390Y0666370D01*
X0267390Y0674350D01*
X0269970Y0674350D01*
X0269970Y0666370D01*
X0269160Y0666370D02*
X0269160Y0674350D01*
X0268350Y0674350D02*
X0268350Y0666370D01*
X0267540Y0666370D02*
X0267540Y0674350D01*
X0264970Y0666370D02*
X0262390Y0666370D01*
X0262390Y0674350D01*
X0264970Y0674350D01*
X0264970Y0666370D01*
X0264160Y0666370D02*
X0264160Y0674350D01*
X0263350Y0674350D02*
X0263350Y0666370D01*
X0262540Y0666370D02*
X0262540Y0674350D01*
X0259970Y0666370D02*
X0257390Y0666370D01*
X0257390Y0674350D01*
X0259970Y0674350D01*
X0259970Y0666370D01*
X0259160Y0666370D02*
X0259160Y0674350D01*
X0258350Y0674350D02*
X0258350Y0666370D01*
X0257540Y0666370D02*
X0257540Y0674350D01*
X0257390Y0642170D02*
X0259970Y0642170D01*
X0257390Y0642170D02*
X0257390Y0650150D01*
X0259970Y0650150D01*
X0259970Y0642170D01*
X0259160Y0642170D02*
X0259160Y0650150D01*
X0258350Y0650150D02*
X0258350Y0642170D01*
X0257540Y0642170D02*
X0257540Y0650150D01*
X0262390Y0642170D02*
X0264970Y0642170D01*
X0262390Y0642170D02*
X0262390Y0650150D01*
X0264970Y0650150D01*
X0264970Y0642170D01*
X0264160Y0642170D02*
X0264160Y0650150D01*
X0263350Y0650150D02*
X0263350Y0642170D01*
X0262540Y0642170D02*
X0262540Y0650150D01*
X0267390Y0642170D02*
X0269970Y0642170D01*
X0267390Y0642170D02*
X0267390Y0650150D01*
X0269970Y0650150D01*
X0269970Y0642170D01*
X0269160Y0642170D02*
X0269160Y0650150D01*
X0268350Y0650150D02*
X0268350Y0642170D01*
X0267540Y0642170D02*
X0267540Y0650150D01*
X0272390Y0642170D02*
X0274970Y0642170D01*
X0272390Y0642170D02*
X0272390Y0650150D01*
X0274970Y0650150D01*
X0274970Y0642170D01*
X0274160Y0642170D02*
X0274160Y0650150D01*
X0273350Y0650150D02*
X0273350Y0642170D01*
X0272540Y0642170D02*
X0272540Y0650150D01*
X0277390Y0642170D02*
X0279970Y0642170D01*
X0277390Y0642170D02*
X0277390Y0650150D01*
X0279970Y0650150D01*
X0279970Y0642170D01*
X0279160Y0642170D02*
X0279160Y0650150D01*
X0278350Y0650150D02*
X0278350Y0642170D01*
X0277540Y0642170D02*
X0277540Y0650150D01*
X0282390Y0642170D02*
X0284970Y0642170D01*
X0282390Y0642170D02*
X0282390Y0650150D01*
X0284970Y0650150D01*
X0284970Y0642170D01*
X0284160Y0642170D02*
X0284160Y0650150D01*
X0283350Y0650150D02*
X0283350Y0642170D01*
X0282540Y0642170D02*
X0282540Y0650150D01*
X0287390Y0642170D02*
X0289970Y0642170D01*
X0287390Y0642170D02*
X0287390Y0650150D01*
X0289970Y0650150D01*
X0289970Y0642170D01*
X0289160Y0642170D02*
X0289160Y0650150D01*
X0288350Y0650150D02*
X0288350Y0642170D01*
X0287540Y0642170D02*
X0287540Y0650150D01*
D158*
X0266280Y0603260D02*
X0261080Y0603260D01*
X0261080Y0593260D02*
X0266280Y0593260D01*
X0266280Y0583260D02*
X0261080Y0583260D01*
X0261080Y0573260D02*
X0266280Y0573260D01*
X0266280Y0563260D02*
X0261080Y0563260D01*
X0261080Y0553260D02*
X0266280Y0553260D01*
X0266280Y0543260D02*
X0261080Y0543260D01*
X0261080Y0533260D02*
X0266280Y0533260D01*
X0266280Y0523260D02*
X0261080Y0523260D01*
X0261080Y0513260D02*
X0266280Y0513260D01*
X0266280Y0503260D02*
X0261080Y0503260D01*
X0261080Y0493260D02*
X0266280Y0493260D01*
X0266280Y0483260D02*
X0261080Y0483260D01*
X0261080Y0473260D02*
X0266280Y0473260D01*
X0236280Y0473260D02*
X0231080Y0473260D01*
X0231080Y0483260D02*
X0236280Y0483260D01*
X0236280Y0493260D02*
X0231080Y0493260D01*
X0231080Y0503260D02*
X0236280Y0503260D01*
X0236280Y0513260D02*
X0231080Y0513260D01*
X0231080Y0523260D02*
X0236280Y0523260D01*
X0236280Y0533260D02*
X0231080Y0533260D01*
X0231080Y0543260D02*
X0236280Y0543260D01*
X0236280Y0553260D02*
X0231080Y0553260D01*
X0231080Y0563260D02*
X0236280Y0563260D01*
X0236280Y0573260D02*
X0231080Y0573260D01*
X0231080Y0583260D02*
X0236280Y0583260D01*
X0236280Y0593260D02*
X0231080Y0593260D01*
X0231080Y0603260D02*
X0236280Y0603260D01*
X0228680Y0653060D02*
X0228680Y0658260D01*
X0218680Y0658260D02*
X0218680Y0653060D01*
X0208680Y0653060D02*
X0208680Y0658260D01*
X0208680Y0688260D02*
X0208680Y0693460D01*
X0218680Y0693460D02*
X0218680Y0688260D01*
X0228680Y0688260D02*
X0228680Y0693460D01*
X0168880Y0698260D02*
X0163680Y0698260D01*
X0163680Y0688260D02*
X0168880Y0688260D01*
X0168880Y0678260D02*
X0163680Y0678260D01*
X0133680Y0678260D02*
X0128480Y0678260D01*
X0128480Y0688260D02*
X0133680Y0688260D01*
X0133680Y0698260D02*
X0128480Y0698260D01*
X0128480Y0743260D02*
X0133680Y0743260D01*
X0133680Y0753260D02*
X0128480Y0753260D01*
X0128480Y0763260D02*
X0133680Y0763260D01*
X0163680Y0763260D02*
X0168880Y0763260D01*
X0168880Y0753260D02*
X0163680Y0753260D01*
X0163680Y0743260D02*
X0168880Y0743260D01*
X0168880Y0638260D02*
X0163680Y0638260D01*
X0163680Y0628260D02*
X0168880Y0628260D01*
X0168880Y0618260D02*
X0163680Y0618260D01*
X0133680Y0618260D02*
X0128480Y0618260D01*
X0128480Y0628260D02*
X0133680Y0628260D01*
X0133680Y0638260D02*
X0128480Y0638260D01*
X0128480Y0578260D02*
X0133680Y0578260D01*
X0133680Y0568260D02*
X0128480Y0568260D01*
X0128480Y0558260D02*
X0133680Y0558260D01*
X0163680Y0558260D02*
X0168880Y0558260D01*
X0168880Y0568260D02*
X0163680Y0568260D01*
X0163680Y0578260D02*
X0168880Y0578260D01*
X0168880Y0523260D02*
X0163680Y0523260D01*
X0163680Y0513260D02*
X0168880Y0513260D01*
X0168880Y0503260D02*
X0163680Y0503260D01*
X0133680Y0503260D02*
X0128480Y0503260D01*
X0128480Y0513260D02*
X0133680Y0513260D01*
X0133680Y0523260D02*
X0128480Y0523260D01*
X0128480Y0463260D02*
X0133680Y0463260D01*
X0133680Y0453260D02*
X0128480Y0453260D01*
X0128480Y0443260D02*
X0133680Y0443260D01*
X0163680Y0443260D02*
X0168880Y0443260D01*
X0168880Y0453260D02*
X0163680Y0453260D01*
X0163680Y0463260D02*
X0168880Y0463260D01*
D166*
X0133680Y0483260D03*
X0093680Y0483260D03*
X0078680Y0483260D03*
X0078680Y0463260D03*
X0078680Y0423260D03*
X0093680Y0423260D03*
X0133680Y0423260D03*
X0078680Y0523260D03*
X0078680Y0543260D03*
X0093680Y0543260D03*
X0078680Y0583260D03*
X0078680Y0603260D03*
X0093680Y0603260D03*
X0078680Y0643260D03*
X0078680Y0663260D03*
X0093680Y0663260D03*
X0078680Y0703260D03*
X0078680Y0723260D03*
X0093680Y0723260D03*
X0078680Y0763260D03*
X0133680Y0723260D03*
X0133680Y0663260D03*
X0133680Y0603260D03*
X0133680Y0543260D03*
X0208680Y0708260D03*
X0228680Y0708260D03*
X0228680Y0748260D03*
X0208680Y0748260D03*
X0278680Y0745760D03*
X0278680Y0755760D03*
X0288680Y0750760D03*
X0288680Y0740760D03*
X0288680Y0730760D03*
X0278680Y0735760D03*
X0278680Y0725760D03*
X0294680Y0518260D03*
X0293680Y0508260D03*
X0294680Y0498260D03*
X0293680Y0488260D03*
X0294680Y0478260D03*
X0293680Y0468260D03*
D340*
X0282200Y0470870D02*
X0282200Y0464610D01*
X0275160Y0464610D01*
X0275160Y0470870D01*
X0282200Y0470870D01*
X0281360Y0470870D02*
X0281360Y0464610D01*
X0280520Y0464610D02*
X0280520Y0470870D01*
X0279680Y0470870D02*
X0279680Y0464610D01*
X0278840Y0464610D02*
X0278840Y0470870D01*
X0278000Y0470870D02*
X0278000Y0464610D01*
X0277160Y0464610D02*
X0277160Y0470870D01*
X0276320Y0470870D02*
X0276320Y0464610D01*
X0275480Y0464610D02*
X0275480Y0470870D01*
X0282200Y0475640D02*
X0282200Y0481900D01*
X0282200Y0475640D02*
X0275160Y0475640D01*
X0275160Y0481900D01*
X0282200Y0481900D01*
X0281360Y0481900D02*
X0281360Y0475640D01*
X0280520Y0475640D02*
X0280520Y0481900D01*
X0279680Y0481900D02*
X0279680Y0475640D01*
X0278840Y0475640D02*
X0278840Y0481900D01*
X0278000Y0481900D02*
X0278000Y0475640D01*
X0277160Y0475640D02*
X0277160Y0481900D01*
X0276320Y0481900D02*
X0276320Y0475640D01*
X0275480Y0475640D02*
X0275480Y0481900D01*
X0222200Y0480640D02*
X0222200Y0486900D01*
X0222200Y0480640D02*
X0215160Y0480640D01*
X0215160Y0486900D01*
X0222200Y0486900D01*
X0221360Y0486900D02*
X0221360Y0480640D01*
X0220520Y0480640D02*
X0220520Y0486900D01*
X0219680Y0486900D02*
X0219680Y0480640D01*
X0218840Y0480640D02*
X0218840Y0486900D01*
X0218000Y0486900D02*
X0218000Y0480640D01*
X0217160Y0480640D02*
X0217160Y0486900D01*
X0216320Y0486900D02*
X0216320Y0480640D01*
X0215480Y0480640D02*
X0215480Y0486900D01*
X0222200Y0494610D02*
X0222200Y0500870D01*
X0222200Y0494610D02*
X0215160Y0494610D01*
X0215160Y0500870D01*
X0222200Y0500870D01*
X0221360Y0500870D02*
X0221360Y0494610D01*
X0220520Y0494610D02*
X0220520Y0500870D01*
X0219680Y0500870D02*
X0219680Y0494610D01*
X0218840Y0494610D02*
X0218840Y0500870D01*
X0218000Y0500870D02*
X0218000Y0494610D01*
X0217160Y0494610D02*
X0217160Y0500870D01*
X0216320Y0500870D02*
X0216320Y0494610D01*
X0215480Y0494610D02*
X0215480Y0500870D01*
X0222200Y0505640D02*
X0222200Y0511900D01*
X0222200Y0505640D02*
X0215160Y0505640D01*
X0215160Y0511900D01*
X0222200Y0511900D01*
X0221360Y0511900D02*
X0221360Y0505640D01*
X0220520Y0505640D02*
X0220520Y0511900D01*
X0219680Y0511900D02*
X0219680Y0505640D01*
X0218840Y0505640D02*
X0218840Y0511900D01*
X0218000Y0511900D02*
X0218000Y0505640D01*
X0217160Y0505640D02*
X0217160Y0511900D01*
X0216320Y0511900D02*
X0216320Y0505640D01*
X0215480Y0505640D02*
X0215480Y0511900D01*
X0207200Y0486900D02*
X0207200Y0480640D01*
X0200160Y0480640D01*
X0200160Y0486900D01*
X0207200Y0486900D01*
X0206360Y0486900D02*
X0206360Y0480640D01*
X0205520Y0480640D02*
X0205520Y0486900D01*
X0204680Y0486900D02*
X0204680Y0480640D01*
X0203840Y0480640D02*
X0203840Y0486900D01*
X0203000Y0486900D02*
X0203000Y0480640D01*
X0202160Y0480640D02*
X0202160Y0486900D01*
X0201320Y0486900D02*
X0201320Y0480640D01*
X0200480Y0480640D02*
X0200480Y0486900D01*
X0207200Y0475870D02*
X0207200Y0469610D01*
X0200160Y0469610D01*
X0200160Y0475870D01*
X0207200Y0475870D01*
X0206360Y0475870D02*
X0206360Y0469610D01*
X0205520Y0469610D02*
X0205520Y0475870D01*
X0204680Y0475870D02*
X0204680Y0469610D01*
X0203840Y0469610D02*
X0203840Y0475870D01*
X0203000Y0475870D02*
X0203000Y0469610D01*
X0202160Y0469610D02*
X0202160Y0475870D01*
X0201320Y0475870D02*
X0201320Y0469610D01*
X0200480Y0469610D02*
X0200480Y0475870D01*
X0222200Y0475870D02*
X0222200Y0469610D01*
X0215160Y0469610D01*
X0215160Y0475870D01*
X0222200Y0475870D01*
X0221360Y0475870D02*
X0221360Y0469610D01*
X0220520Y0469610D02*
X0220520Y0475870D01*
X0219680Y0475870D02*
X0219680Y0469610D01*
X0218840Y0469610D02*
X0218840Y0475870D01*
X0218000Y0475870D02*
X0218000Y0469610D01*
X0217160Y0469610D02*
X0217160Y0475870D01*
X0216320Y0475870D02*
X0216320Y0469610D01*
X0215480Y0469610D02*
X0215480Y0475870D01*
X0167320Y0491780D02*
X0161060Y0491780D01*
X0167320Y0491780D02*
X0167320Y0484740D01*
X0161060Y0484740D01*
X0161060Y0491780D01*
X0166480Y0491780D02*
X0166480Y0484740D01*
X0165640Y0484740D02*
X0165640Y0491780D01*
X0164800Y0491780D02*
X0164800Y0484740D01*
X0163960Y0484740D02*
X0163960Y0491780D01*
X0163120Y0491780D02*
X0163120Y0484740D01*
X0162280Y0484740D02*
X0162280Y0491780D01*
X0161440Y0491780D02*
X0161440Y0484740D01*
X0156300Y0491780D02*
X0150040Y0491780D01*
X0156300Y0491780D02*
X0156300Y0484740D01*
X0150040Y0484740D01*
X0150040Y0491780D01*
X0155460Y0491780D02*
X0155460Y0484740D01*
X0154620Y0484740D02*
X0154620Y0491780D01*
X0153780Y0491780D02*
X0153780Y0484740D01*
X0152940Y0484740D02*
X0152940Y0491780D01*
X0152100Y0491780D02*
X0152100Y0484740D01*
X0151260Y0484740D02*
X0151260Y0491780D01*
X0150420Y0491780D02*
X0150420Y0484740D01*
X0150040Y0431780D02*
X0156300Y0431780D01*
X0156300Y0424740D01*
X0150040Y0424740D01*
X0150040Y0431780D01*
X0155460Y0431780D02*
X0155460Y0424740D01*
X0154620Y0424740D02*
X0154620Y0431780D01*
X0153780Y0431780D02*
X0153780Y0424740D01*
X0152940Y0424740D02*
X0152940Y0431780D01*
X0152100Y0431780D02*
X0152100Y0424740D01*
X0151260Y0424740D02*
X0151260Y0431780D01*
X0150420Y0431780D02*
X0150420Y0424740D01*
X0161060Y0431780D02*
X0167320Y0431780D01*
X0167320Y0424740D01*
X0161060Y0424740D01*
X0161060Y0431780D01*
X0166480Y0431780D02*
X0166480Y0424740D01*
X0165640Y0424740D02*
X0165640Y0431780D01*
X0164800Y0431780D02*
X0164800Y0424740D01*
X0163960Y0424740D02*
X0163960Y0431780D01*
X0163120Y0431780D02*
X0163120Y0424740D01*
X0162280Y0424740D02*
X0162280Y0431780D01*
X0161440Y0431780D02*
X0161440Y0424740D01*
X0097200Y0494610D02*
X0097200Y0500870D01*
X0097200Y0494610D02*
X0090160Y0494610D01*
X0090160Y0500870D01*
X0097200Y0500870D01*
X0096360Y0500870D02*
X0096360Y0494610D01*
X0095520Y0494610D02*
X0095520Y0500870D01*
X0094680Y0500870D02*
X0094680Y0494610D01*
X0093840Y0494610D02*
X0093840Y0500870D01*
X0093000Y0500870D02*
X0093000Y0494610D01*
X0092160Y0494610D02*
X0092160Y0500870D01*
X0091320Y0500870D02*
X0091320Y0494610D01*
X0090480Y0494610D02*
X0090480Y0500870D01*
X0097200Y0505640D02*
X0097200Y0511900D01*
X0097200Y0505640D02*
X0090160Y0505640D01*
X0090160Y0511900D01*
X0097200Y0511900D01*
X0096360Y0511900D02*
X0096360Y0505640D01*
X0095520Y0505640D02*
X0095520Y0511900D01*
X0094680Y0511900D02*
X0094680Y0505640D01*
X0093840Y0505640D02*
X0093840Y0511900D01*
X0093000Y0511900D02*
X0093000Y0505640D01*
X0092160Y0505640D02*
X0092160Y0511900D01*
X0091320Y0511900D02*
X0091320Y0505640D01*
X0090480Y0505640D02*
X0090480Y0511900D01*
X0097200Y0554610D02*
X0097200Y0560870D01*
X0097200Y0554610D02*
X0090160Y0554610D01*
X0090160Y0560870D01*
X0097200Y0560870D01*
X0096360Y0560870D02*
X0096360Y0554610D01*
X0095520Y0554610D02*
X0095520Y0560870D01*
X0094680Y0560870D02*
X0094680Y0554610D01*
X0093840Y0554610D02*
X0093840Y0560870D01*
X0093000Y0560870D02*
X0093000Y0554610D01*
X0092160Y0554610D02*
X0092160Y0560870D01*
X0091320Y0560870D02*
X0091320Y0554610D01*
X0090480Y0554610D02*
X0090480Y0560870D01*
X0097200Y0565640D02*
X0097200Y0571900D01*
X0097200Y0565640D02*
X0090160Y0565640D01*
X0090160Y0571900D01*
X0097200Y0571900D01*
X0096360Y0571900D02*
X0096360Y0565640D01*
X0095520Y0565640D02*
X0095520Y0571900D01*
X0094680Y0571900D02*
X0094680Y0565640D01*
X0093840Y0565640D02*
X0093840Y0571900D01*
X0093000Y0571900D02*
X0093000Y0565640D01*
X0092160Y0565640D02*
X0092160Y0571900D01*
X0091320Y0571900D02*
X0091320Y0565640D01*
X0090480Y0565640D02*
X0090480Y0571900D01*
X0097200Y0614610D02*
X0097200Y0620870D01*
X0097200Y0614610D02*
X0090160Y0614610D01*
X0090160Y0620870D01*
X0097200Y0620870D01*
X0096360Y0620870D02*
X0096360Y0614610D01*
X0095520Y0614610D02*
X0095520Y0620870D01*
X0094680Y0620870D02*
X0094680Y0614610D01*
X0093840Y0614610D02*
X0093840Y0620870D01*
X0093000Y0620870D02*
X0093000Y0614610D01*
X0092160Y0614610D02*
X0092160Y0620870D01*
X0091320Y0620870D02*
X0091320Y0614610D01*
X0090480Y0614610D02*
X0090480Y0620870D01*
X0097200Y0625640D02*
X0097200Y0631900D01*
X0097200Y0625640D02*
X0090160Y0625640D01*
X0090160Y0631900D01*
X0097200Y0631900D01*
X0096360Y0631900D02*
X0096360Y0625640D01*
X0095520Y0625640D02*
X0095520Y0631900D01*
X0094680Y0631900D02*
X0094680Y0625640D01*
X0093840Y0625640D02*
X0093840Y0631900D01*
X0093000Y0631900D02*
X0093000Y0625640D01*
X0092160Y0625640D02*
X0092160Y0631900D01*
X0091320Y0631900D02*
X0091320Y0625640D01*
X0090480Y0625640D02*
X0090480Y0631900D01*
X0097200Y0674610D02*
X0097200Y0680870D01*
X0097200Y0674610D02*
X0090160Y0674610D01*
X0090160Y0680870D01*
X0097200Y0680870D01*
X0096360Y0680870D02*
X0096360Y0674610D01*
X0095520Y0674610D02*
X0095520Y0680870D01*
X0094680Y0680870D02*
X0094680Y0674610D01*
X0093840Y0674610D02*
X0093840Y0680870D01*
X0093000Y0680870D02*
X0093000Y0674610D01*
X0092160Y0674610D02*
X0092160Y0680870D01*
X0091320Y0680870D02*
X0091320Y0674610D01*
X0090480Y0674610D02*
X0090480Y0680870D01*
X0097200Y0685640D02*
X0097200Y0691900D01*
X0097200Y0685640D02*
X0090160Y0685640D01*
X0090160Y0691900D01*
X0097200Y0691900D01*
X0096360Y0691900D02*
X0096360Y0685640D01*
X0095520Y0685640D02*
X0095520Y0691900D01*
X0094680Y0691900D02*
X0094680Y0685640D01*
X0093840Y0685640D02*
X0093840Y0691900D01*
X0093000Y0691900D02*
X0093000Y0685640D01*
X0092160Y0685640D02*
X0092160Y0691900D01*
X0091320Y0691900D02*
X0091320Y0685640D01*
X0090480Y0685640D02*
X0090480Y0691900D01*
X0097200Y0734610D02*
X0097200Y0740870D01*
X0097200Y0734610D02*
X0090160Y0734610D01*
X0090160Y0740870D01*
X0097200Y0740870D01*
X0096360Y0740870D02*
X0096360Y0734610D01*
X0095520Y0734610D02*
X0095520Y0740870D01*
X0094680Y0740870D02*
X0094680Y0734610D01*
X0093840Y0734610D02*
X0093840Y0740870D01*
X0093000Y0740870D02*
X0093000Y0734610D01*
X0092160Y0734610D02*
X0092160Y0740870D01*
X0091320Y0740870D02*
X0091320Y0734610D01*
X0090480Y0734610D02*
X0090480Y0740870D01*
X0097200Y0745640D02*
X0097200Y0751900D01*
X0097200Y0745640D02*
X0090160Y0745640D01*
X0090160Y0751900D01*
X0097200Y0751900D01*
X0096360Y0751900D02*
X0096360Y0745640D01*
X0095520Y0745640D02*
X0095520Y0751900D01*
X0094680Y0751900D02*
X0094680Y0745640D01*
X0093840Y0745640D02*
X0093840Y0751900D01*
X0093000Y0751900D02*
X0093000Y0745640D01*
X0092160Y0745640D02*
X0092160Y0751900D01*
X0091320Y0751900D02*
X0091320Y0745640D01*
X0090480Y0745640D02*
X0090480Y0751900D01*
X0150040Y0731780D02*
X0156300Y0731780D01*
X0156300Y0724740D01*
X0150040Y0724740D01*
X0150040Y0731780D01*
X0155460Y0731780D02*
X0155460Y0724740D01*
X0154620Y0724740D02*
X0154620Y0731780D01*
X0153780Y0731780D02*
X0153780Y0724740D01*
X0152940Y0724740D02*
X0152940Y0731780D01*
X0152100Y0731780D02*
X0152100Y0724740D01*
X0151260Y0724740D02*
X0151260Y0731780D01*
X0150420Y0731780D02*
X0150420Y0724740D01*
X0161060Y0731780D02*
X0167320Y0731780D01*
X0167320Y0724740D01*
X0161060Y0724740D01*
X0161060Y0731780D01*
X0166480Y0731780D02*
X0166480Y0724740D01*
X0165640Y0724740D02*
X0165640Y0731780D01*
X0164800Y0731780D02*
X0164800Y0724740D01*
X0163960Y0724740D02*
X0163960Y0731780D01*
X0163120Y0731780D02*
X0163120Y0724740D01*
X0162280Y0724740D02*
X0162280Y0731780D01*
X0161440Y0731780D02*
X0161440Y0724740D01*
X0161060Y0666780D02*
X0167320Y0666780D01*
X0167320Y0659740D01*
X0161060Y0659740D01*
X0161060Y0666780D01*
X0166480Y0666780D02*
X0166480Y0659740D01*
X0165640Y0659740D02*
X0165640Y0666780D01*
X0164800Y0666780D02*
X0164800Y0659740D01*
X0163960Y0659740D02*
X0163960Y0666780D01*
X0163120Y0666780D02*
X0163120Y0659740D01*
X0162280Y0659740D02*
X0162280Y0666780D01*
X0161440Y0666780D02*
X0161440Y0659740D01*
X0156300Y0666780D02*
X0150040Y0666780D01*
X0156300Y0666780D02*
X0156300Y0659740D01*
X0150040Y0659740D01*
X0150040Y0666780D01*
X0155460Y0666780D02*
X0155460Y0659740D01*
X0154620Y0659740D02*
X0154620Y0666780D01*
X0153780Y0666780D02*
X0153780Y0659740D01*
X0152940Y0659740D02*
X0152940Y0666780D01*
X0152100Y0666780D02*
X0152100Y0659740D01*
X0151260Y0659740D02*
X0151260Y0666780D01*
X0150420Y0666780D02*
X0150420Y0659740D01*
X0150040Y0606780D02*
X0156300Y0606780D01*
X0156300Y0599740D01*
X0150040Y0599740D01*
X0150040Y0606780D01*
X0155460Y0606780D02*
X0155460Y0599740D01*
X0154620Y0599740D02*
X0154620Y0606780D01*
X0153780Y0606780D02*
X0153780Y0599740D01*
X0152940Y0599740D02*
X0152940Y0606780D01*
X0152100Y0606780D02*
X0152100Y0599740D01*
X0151260Y0599740D02*
X0151260Y0606780D01*
X0150420Y0606780D02*
X0150420Y0599740D01*
X0161060Y0606780D02*
X0167320Y0606780D01*
X0167320Y0599740D01*
X0161060Y0599740D01*
X0161060Y0606780D01*
X0166480Y0606780D02*
X0166480Y0599740D01*
X0165640Y0599740D02*
X0165640Y0606780D01*
X0164800Y0606780D02*
X0164800Y0599740D01*
X0163960Y0599740D02*
X0163960Y0606780D01*
X0163120Y0606780D02*
X0163120Y0599740D01*
X0162280Y0599740D02*
X0162280Y0606780D01*
X0161440Y0606780D02*
X0161440Y0599740D01*
X0161060Y0546780D02*
X0167320Y0546780D01*
X0167320Y0539740D01*
X0161060Y0539740D01*
X0161060Y0546780D01*
X0166480Y0546780D02*
X0166480Y0539740D01*
X0165640Y0539740D02*
X0165640Y0546780D01*
X0164800Y0546780D02*
X0164800Y0539740D01*
X0163960Y0539740D02*
X0163960Y0546780D01*
X0163120Y0546780D02*
X0163120Y0539740D01*
X0162280Y0539740D02*
X0162280Y0546780D01*
X0161440Y0546780D02*
X0161440Y0539740D01*
X0156300Y0546780D02*
X0150040Y0546780D01*
X0156300Y0546780D02*
X0156300Y0539740D01*
X0150040Y0539740D01*
X0150040Y0546780D01*
X0155460Y0546780D02*
X0155460Y0539740D01*
X0154620Y0539740D02*
X0154620Y0546780D01*
X0153780Y0546780D02*
X0153780Y0539740D01*
X0152940Y0539740D02*
X0152940Y0546780D01*
X0152100Y0546780D02*
X0152100Y0539740D01*
X0151260Y0539740D02*
X0151260Y0546780D01*
X0150420Y0546780D02*
X0150420Y0539740D01*
X0215040Y0634740D02*
X0221300Y0634740D01*
X0215040Y0634740D02*
X0215040Y0641780D01*
X0221300Y0641780D01*
X0221300Y0634740D01*
X0220460Y0634740D02*
X0220460Y0641780D01*
X0219620Y0641780D02*
X0219620Y0634740D01*
X0218780Y0634740D02*
X0218780Y0641780D01*
X0217940Y0641780D02*
X0217940Y0634740D01*
X0217100Y0634740D02*
X0217100Y0641780D01*
X0216260Y0641780D02*
X0216260Y0634740D01*
X0215420Y0634740D02*
X0215420Y0641780D01*
X0226060Y0634740D02*
X0232320Y0634740D01*
X0226060Y0634740D02*
X0226060Y0641780D01*
X0232320Y0641780D01*
X0232320Y0634740D01*
X0231480Y0634740D02*
X0231480Y0641780D01*
X0230640Y0641780D02*
X0230640Y0634740D01*
X0229800Y0634740D02*
X0229800Y0641780D01*
X0228960Y0641780D02*
X0228960Y0634740D01*
X0228120Y0634740D02*
X0228120Y0641780D01*
X0227280Y0641780D02*
X0227280Y0634740D01*
X0226440Y0634740D02*
X0226440Y0641780D01*
X0252200Y0649610D02*
X0252200Y0655870D01*
X0252200Y0649610D02*
X0245160Y0649610D01*
X0245160Y0655870D01*
X0252200Y0655870D01*
X0251360Y0655870D02*
X0251360Y0649610D01*
X0250520Y0649610D02*
X0250520Y0655870D01*
X0249680Y0655870D02*
X0249680Y0649610D01*
X0248840Y0649610D02*
X0248840Y0655870D01*
X0248000Y0655870D02*
X0248000Y0649610D01*
X0247160Y0649610D02*
X0247160Y0655870D01*
X0246320Y0655870D02*
X0246320Y0649610D01*
X0245480Y0649610D02*
X0245480Y0655870D01*
X0252200Y0660640D02*
X0252200Y0666900D01*
X0252200Y0660640D02*
X0245160Y0660640D01*
X0245160Y0666900D01*
X0252200Y0666900D01*
X0251360Y0666900D02*
X0251360Y0660640D01*
X0250520Y0660640D02*
X0250520Y0666900D01*
X0249680Y0666900D02*
X0249680Y0660640D01*
X0248840Y0660640D02*
X0248840Y0666900D01*
X0248000Y0666900D02*
X0248000Y0660640D01*
X0247160Y0660640D02*
X0247160Y0666900D01*
X0246320Y0666900D02*
X0246320Y0660640D01*
X0245480Y0660640D02*
X0245480Y0666900D01*
D539*
X0330260Y0666780D02*
X0330260Y0671540D01*
X0330260Y0666780D02*
X0321500Y0666780D01*
X0321500Y0671540D01*
X0330260Y0671540D01*
X0329430Y0671540D02*
X0329430Y0666780D01*
X0328600Y0666780D02*
X0328600Y0671540D01*
X0327770Y0671540D02*
X0327770Y0666780D01*
X0326940Y0666780D02*
X0326940Y0671540D01*
X0326110Y0671540D02*
X0326110Y0666780D01*
X0325280Y0666780D02*
X0325280Y0671540D01*
X0324450Y0671540D02*
X0324450Y0666780D01*
X0323620Y0666780D02*
X0323620Y0671540D01*
X0322790Y0671540D02*
X0322790Y0666780D01*
X0321960Y0666780D02*
X0321960Y0671540D01*
X0330260Y0675880D02*
X0330260Y0680640D01*
X0330260Y0675880D02*
X0321500Y0675880D01*
X0321500Y0680640D01*
X0330260Y0680640D01*
X0329430Y0680640D02*
X0329430Y0675880D01*
X0328600Y0675880D02*
X0328600Y0680640D01*
X0327770Y0680640D02*
X0327770Y0675880D01*
X0326940Y0675880D02*
X0326940Y0680640D01*
X0326110Y0680640D02*
X0326110Y0675880D01*
X0325280Y0675880D02*
X0325280Y0680640D01*
X0324450Y0680640D02*
X0324450Y0675880D01*
X0323620Y0675880D02*
X0323620Y0680640D01*
X0322790Y0680640D02*
X0322790Y0675880D01*
X0321960Y0675880D02*
X0321960Y0680640D01*
X0330260Y0684980D02*
X0330260Y0689740D01*
X0330260Y0684980D02*
X0321500Y0684980D01*
X0321500Y0689740D01*
X0330260Y0689740D01*
X0329430Y0689740D02*
X0329430Y0684980D01*
X0328600Y0684980D02*
X0328600Y0689740D01*
X0327770Y0689740D02*
X0327770Y0684980D01*
X0326940Y0684980D02*
X0326940Y0689740D01*
X0326110Y0689740D02*
X0326110Y0684980D01*
X0325280Y0684980D02*
X0325280Y0689740D01*
X0324450Y0689740D02*
X0324450Y0684980D01*
X0323620Y0684980D02*
X0323620Y0689740D01*
X0322790Y0689740D02*
X0322790Y0684980D01*
X0321960Y0684980D02*
X0321960Y0689740D01*
X0330260Y0609740D02*
X0330260Y0604980D01*
X0321500Y0604980D01*
X0321500Y0609740D01*
X0330260Y0609740D01*
X0329430Y0609740D02*
X0329430Y0604980D01*
X0328600Y0604980D02*
X0328600Y0609740D01*
X0327770Y0609740D02*
X0327770Y0604980D01*
X0326940Y0604980D02*
X0326940Y0609740D01*
X0326110Y0609740D02*
X0326110Y0604980D01*
X0325280Y0604980D02*
X0325280Y0609740D01*
X0324450Y0609740D02*
X0324450Y0604980D01*
X0323620Y0604980D02*
X0323620Y0609740D01*
X0322790Y0609740D02*
X0322790Y0604980D01*
X0321960Y0604980D02*
X0321960Y0609740D01*
X0330260Y0600640D02*
X0330260Y0595880D01*
X0321500Y0595880D01*
X0321500Y0600640D01*
X0330260Y0600640D01*
X0329430Y0600640D02*
X0329430Y0595880D01*
X0328600Y0595880D02*
X0328600Y0600640D01*
X0327770Y0600640D02*
X0327770Y0595880D01*
X0326940Y0595880D02*
X0326940Y0600640D01*
X0326110Y0600640D02*
X0326110Y0595880D01*
X0325280Y0595880D02*
X0325280Y0600640D01*
X0324450Y0600640D02*
X0324450Y0595880D01*
X0323620Y0595880D02*
X0323620Y0600640D01*
X0322790Y0600640D02*
X0322790Y0595880D01*
X0321960Y0595880D02*
X0321960Y0600640D01*
X0330260Y0591540D02*
X0330260Y0586780D01*
X0321500Y0586780D01*
X0321500Y0591540D01*
X0330260Y0591540D01*
X0329430Y0591540D02*
X0329430Y0586780D01*
X0328600Y0586780D02*
X0328600Y0591540D01*
X0327770Y0591540D02*
X0327770Y0586780D01*
X0326940Y0586780D02*
X0326940Y0591540D01*
X0326110Y0591540D02*
X0326110Y0586780D01*
X0325280Y0586780D02*
X0325280Y0591540D01*
X0324450Y0591540D02*
X0324450Y0586780D01*
X0323620Y0586780D02*
X0323620Y0591540D01*
X0322790Y0591540D02*
X0322790Y0586780D01*
X0321960Y0586780D02*
X0321960Y0591540D01*
D340*
X0305790Y0591200D02*
X0305790Y0605320D01*
X0305790Y0591200D02*
X0297170Y0591200D01*
X0297170Y0605320D01*
X0305790Y0605320D01*
X0304950Y0605320D02*
X0304950Y0591200D01*
X0304110Y0591200D02*
X0304110Y0605320D01*
X0303270Y0605320D02*
X0303270Y0591200D01*
X0302430Y0591200D02*
X0302430Y0605320D01*
X0301590Y0605320D02*
X0301590Y0591200D01*
X0300750Y0591200D02*
X0300750Y0605320D01*
X0299910Y0605320D02*
X0299910Y0591200D01*
X0299070Y0591200D02*
X0299070Y0605320D01*
X0298230Y0605320D02*
X0298230Y0591200D01*
X0297390Y0591200D02*
X0297390Y0605320D01*
X0305790Y0671200D02*
X0305790Y0685320D01*
X0305790Y0671200D02*
X0297170Y0671200D01*
X0297170Y0685320D01*
X0305790Y0685320D01*
X0304950Y0685320D02*
X0304950Y0671200D01*
X0304110Y0671200D02*
X0304110Y0685320D01*
X0303270Y0685320D02*
X0303270Y0671200D01*
X0302430Y0671200D02*
X0302430Y0685320D01*
X0301590Y0685320D02*
X0301590Y0671200D01*
X0300750Y0671200D02*
X0300750Y0685320D01*
X0299910Y0685320D02*
X0299910Y0671200D01*
X0299070Y0671200D02*
X0299070Y0685320D01*
X0298230Y0685320D02*
X0298230Y0671200D01*
X0297390Y0671200D02*
X0297390Y0685320D01*
D284*
X0116680Y0683260D02*
X0110680Y0683260D01*
X0110680Y0693260D02*
X0116680Y0693260D01*
X0116680Y0703260D02*
X0110680Y0703260D01*
X0110680Y0743260D02*
X0116680Y0743260D01*
X0116680Y0753260D02*
X0110680Y0753260D01*
X0110680Y0763260D02*
X0116680Y0763260D01*
X0116680Y0643260D02*
X0110680Y0643260D01*
X0110680Y0633260D02*
X0116680Y0633260D01*
X0116680Y0623260D02*
X0110680Y0623260D01*
X0110680Y0583260D02*
X0116680Y0583260D01*
X0116680Y0573260D02*
X0110680Y0573260D01*
X0110680Y0563260D02*
X0116680Y0563260D01*
X0116680Y0523260D02*
X0110680Y0523260D01*
X0110680Y0513260D02*
X0116680Y0513260D01*
X0116680Y0503260D02*
X0110680Y0503260D01*
X0110680Y0463260D02*
X0116680Y0463260D01*
X0116680Y0453260D02*
X0110680Y0453260D01*
X0110680Y0443260D02*
X0116680Y0443260D01*
D553*
X0093680Y0453100D03*
X0093680Y0433410D03*
X0343680Y0568260D03*
X0343680Y0598260D03*
X0343680Y0648260D03*
X0343680Y0678260D03*
D366*
X0313680Y0715760D03*
X0313680Y0760760D03*
D286*
X0288680Y0720760D03*
D223*
X0343680Y0688260D03*
X0343680Y0658260D03*
X0343680Y0608260D03*
X0343680Y0578260D03*
D463*
X0328680Y0517190D03*
X0347180Y0505380D03*
X0328680Y0493570D03*
D212*
X0218680Y0768260D03*
X0053680Y0753260D03*
X0053680Y0693260D03*
X0053680Y0633260D03*
X0053680Y0573260D03*
X0053680Y0513260D03*
X0053680Y0453260D03*
D74*
X0053680Y0433570D03*
X0053680Y0493570D03*
X0053680Y0553570D03*
X0053680Y0613570D03*
X0053680Y0673570D03*
X0053680Y0733570D03*
X0198990Y0768260D03*
D186*
X0268680Y0688260D03*
X0273680Y0683260D03*
X0248680Y0643260D03*
X0253680Y0633260D03*
X0243680Y0628260D03*
X0183680Y0618260D03*
X0188680Y0488260D03*
X0343680Y0623260D03*
X0365180Y0410200D02*
G75*
%LPD*%
D329*
X0675140Y0420200D03*
X0375140Y0420200D03*
X0375140Y0785200D03*
X0675140Y0785200D03*
D371*
X0616430Y0673310D02*
X0613850Y0673310D01*
X0613850Y0681290D01*
X0616430Y0681290D01*
X0616430Y0673310D01*
X0615620Y0673310D02*
X0615620Y0681290D01*
X0614810Y0681290D02*
X0614810Y0673310D01*
X0614000Y0673310D02*
X0614000Y0681290D01*
X0611430Y0673310D02*
X0608850Y0673310D01*
X0608850Y0681290D01*
X0611430Y0681290D01*
X0611430Y0673310D01*
X0610620Y0673310D02*
X0610620Y0681290D01*
X0609810Y0681290D02*
X0609810Y0673310D01*
X0609000Y0673310D02*
X0609000Y0681290D01*
X0606430Y0673310D02*
X0603850Y0673310D01*
X0603850Y0681290D01*
X0606430Y0681290D01*
X0606430Y0673310D01*
X0605620Y0673310D02*
X0605620Y0681290D01*
X0604810Y0681290D02*
X0604810Y0673310D01*
X0604000Y0673310D02*
X0604000Y0681290D01*
X0601430Y0673310D02*
X0598850Y0673310D01*
X0598850Y0681290D01*
X0601430Y0681290D01*
X0601430Y0673310D01*
X0600620Y0673310D02*
X0600620Y0681290D01*
X0599810Y0681290D02*
X0599810Y0673310D01*
X0599000Y0673310D02*
X0599000Y0681290D01*
X0596430Y0673310D02*
X0593850Y0673310D01*
X0593850Y0681290D01*
X0596430Y0681290D01*
X0596430Y0673310D01*
X0595620Y0673310D02*
X0595620Y0681290D01*
X0594810Y0681290D02*
X0594810Y0673310D01*
X0594000Y0673310D02*
X0594000Y0681290D01*
X0591430Y0673310D02*
X0588850Y0673310D01*
X0588850Y0681290D01*
X0591430Y0681290D01*
X0591430Y0673310D01*
X0590620Y0673310D02*
X0590620Y0681290D01*
X0589810Y0681290D02*
X0589810Y0673310D01*
X0589000Y0673310D02*
X0589000Y0681290D01*
X0586430Y0673310D02*
X0583850Y0673310D01*
X0583850Y0681290D01*
X0586430Y0681290D01*
X0586430Y0673310D01*
X0585620Y0673310D02*
X0585620Y0681290D01*
X0584810Y0681290D02*
X0584810Y0673310D01*
X0584000Y0673310D02*
X0584000Y0681290D01*
X0583850Y0649110D02*
X0586430Y0649110D01*
X0583850Y0649110D02*
X0583850Y0657090D01*
X0586430Y0657090D01*
X0586430Y0649110D01*
X0585620Y0649110D02*
X0585620Y0657090D01*
X0584810Y0657090D02*
X0584810Y0649110D01*
X0584000Y0649110D02*
X0584000Y0657090D01*
X0588850Y0649110D02*
X0591430Y0649110D01*
X0588850Y0649110D02*
X0588850Y0657090D01*
X0591430Y0657090D01*
X0591430Y0649110D01*
X0590620Y0649110D02*
X0590620Y0657090D01*
X0589810Y0657090D02*
X0589810Y0649110D01*
X0589000Y0649110D02*
X0589000Y0657090D01*
X0593850Y0649110D02*
X0596430Y0649110D01*
X0593850Y0649110D02*
X0593850Y0657090D01*
X0596430Y0657090D01*
X0596430Y0649110D01*
X0595620Y0649110D02*
X0595620Y0657090D01*
X0594810Y0657090D02*
X0594810Y0649110D01*
X0594000Y0649110D02*
X0594000Y0657090D01*
X0598850Y0649110D02*
X0601430Y0649110D01*
X0598850Y0649110D02*
X0598850Y0657090D01*
X0601430Y0657090D01*
X0601430Y0649110D01*
X0600620Y0649110D02*
X0600620Y0657090D01*
X0599810Y0657090D02*
X0599810Y0649110D01*
X0599000Y0649110D02*
X0599000Y0657090D01*
X0603850Y0649110D02*
X0606430Y0649110D01*
X0603850Y0649110D02*
X0603850Y0657090D01*
X0606430Y0657090D01*
X0606430Y0649110D01*
X0605620Y0649110D02*
X0605620Y0657090D01*
X0604810Y0657090D02*
X0604810Y0649110D01*
X0604000Y0649110D02*
X0604000Y0657090D01*
X0608850Y0649110D02*
X0611430Y0649110D01*
X0608850Y0649110D02*
X0608850Y0657090D01*
X0611430Y0657090D01*
X0611430Y0649110D01*
X0610620Y0649110D02*
X0610620Y0657090D01*
X0609810Y0657090D02*
X0609810Y0649110D01*
X0609000Y0649110D02*
X0609000Y0657090D01*
X0613850Y0649110D02*
X0616430Y0649110D01*
X0613850Y0649110D02*
X0613850Y0657090D01*
X0616430Y0657090D01*
X0616430Y0649110D01*
X0615620Y0649110D02*
X0615620Y0657090D01*
X0614810Y0657090D02*
X0614810Y0649110D01*
X0614000Y0649110D02*
X0614000Y0657090D01*
D158*
X0592740Y0610200D02*
X0587540Y0610200D01*
X0587540Y0600200D02*
X0592740Y0600200D01*
X0592740Y0590200D02*
X0587540Y0590200D01*
X0587540Y0580200D02*
X0592740Y0580200D01*
X0592740Y0570200D02*
X0587540Y0570200D01*
X0587540Y0560200D02*
X0592740Y0560200D01*
X0592740Y0550200D02*
X0587540Y0550200D01*
X0587540Y0540200D02*
X0592740Y0540200D01*
X0592740Y0530200D02*
X0587540Y0530200D01*
X0587540Y0520200D02*
X0592740Y0520200D01*
X0592740Y0510200D02*
X0587540Y0510200D01*
X0587540Y0500200D02*
X0592740Y0500200D01*
X0592740Y0490200D02*
X0587540Y0490200D01*
X0587540Y0480200D02*
X0592740Y0480200D01*
X0562740Y0480200D02*
X0557540Y0480200D01*
X0557540Y0490200D02*
X0562740Y0490200D01*
X0562740Y0500200D02*
X0557540Y0500200D01*
X0557540Y0510200D02*
X0562740Y0510200D01*
X0562740Y0520200D02*
X0557540Y0520200D01*
X0557540Y0530200D02*
X0562740Y0530200D01*
X0562740Y0540200D02*
X0557540Y0540200D01*
X0557540Y0550200D02*
X0562740Y0550200D01*
X0562740Y0560200D02*
X0557540Y0560200D01*
X0557540Y0570200D02*
X0562740Y0570200D01*
X0562740Y0580200D02*
X0557540Y0580200D01*
X0557540Y0590200D02*
X0562740Y0590200D01*
X0562740Y0600200D02*
X0557540Y0600200D01*
X0557540Y0610200D02*
X0562740Y0610200D01*
X0555140Y0660000D02*
X0555140Y0665200D01*
X0545140Y0665200D02*
X0545140Y0660000D01*
X0535140Y0660000D02*
X0535140Y0665200D01*
X0535140Y0695200D02*
X0535140Y0700400D01*
X0545140Y0700400D02*
X0545140Y0695200D01*
X0555140Y0695200D02*
X0555140Y0700400D01*
X0495340Y0705200D02*
X0490140Y0705200D01*
X0490140Y0695200D02*
X0495340Y0695200D01*
X0495340Y0685200D02*
X0490140Y0685200D01*
X0460140Y0685200D02*
X0454940Y0685200D01*
X0454940Y0695200D02*
X0460140Y0695200D01*
X0460140Y0705200D02*
X0454940Y0705200D01*
X0454940Y0750200D02*
X0460140Y0750200D01*
X0460140Y0760200D02*
X0454940Y0760200D01*
X0454940Y0770200D02*
X0460140Y0770200D01*
X0490140Y0770200D02*
X0495340Y0770200D01*
X0495340Y0760200D02*
X0490140Y0760200D01*
X0490140Y0750200D02*
X0495340Y0750200D01*
X0495340Y0645200D02*
X0490140Y0645200D01*
X0490140Y0635200D02*
X0495340Y0635200D01*
X0495340Y0625200D02*
X0490140Y0625200D01*
X0460140Y0625200D02*
X0454940Y0625200D01*
X0454940Y0635200D02*
X0460140Y0635200D01*
X0460140Y0645200D02*
X0454940Y0645200D01*
X0454940Y0585200D02*
X0460140Y0585200D01*
X0460140Y0575200D02*
X0454940Y0575200D01*
X0454940Y0565200D02*
X0460140Y0565200D01*
X0490140Y0565200D02*
X0495340Y0565200D01*
X0495340Y0575200D02*
X0490140Y0575200D01*
X0490140Y0585200D02*
X0495340Y0585200D01*
X0495340Y0530200D02*
X0490140Y0530200D01*
X0490140Y0520200D02*
X0495340Y0520200D01*
X0495340Y0510200D02*
X0490140Y0510200D01*
X0460140Y0510200D02*
X0454940Y0510200D01*
X0454940Y0520200D02*
X0460140Y0520200D01*
X0460140Y0530200D02*
X0454940Y0530200D01*
X0454940Y0470200D02*
X0460140Y0470200D01*
X0460140Y0460200D02*
X0454940Y0460200D01*
X0454940Y0450200D02*
X0460140Y0450200D01*
X0490140Y0450200D02*
X0495340Y0450200D01*
X0495340Y0460200D02*
X0490140Y0460200D01*
X0490140Y0470200D02*
X0495340Y0470200D01*
D166*
X0460140Y0490200D03*
X0420140Y0490200D03*
X0405140Y0490200D03*
X0405140Y0470200D03*
X0405140Y0430200D03*
X0420140Y0430200D03*
X0460140Y0430200D03*
X0405140Y0530200D03*
X0405140Y0550200D03*
X0420140Y0550200D03*
X0405140Y0590200D03*
X0405140Y0610200D03*
X0420140Y0610200D03*
X0405140Y0650200D03*
X0405140Y0670200D03*
X0420140Y0670200D03*
X0405140Y0710200D03*
X0405140Y0730200D03*
X0420140Y0730200D03*
X0405140Y0770200D03*
X0460140Y0730200D03*
X0460140Y0670200D03*
X0460140Y0610200D03*
X0460140Y0550200D03*
X0535140Y0715200D03*
X0555140Y0715200D03*
X0555140Y0755200D03*
X0535140Y0755200D03*
X0605140Y0752700D03*
X0605140Y0762700D03*
X0615140Y0757700D03*
X0615140Y0747700D03*
X0615140Y0737700D03*
X0605140Y0742700D03*
X0605140Y0732700D03*
X0621140Y0525200D03*
X0620140Y0515200D03*
X0621140Y0505200D03*
X0620140Y0495200D03*
X0621140Y0485200D03*
X0620140Y0475200D03*
D340*
X0608660Y0477810D02*
X0608660Y0471550D01*
X0601620Y0471550D01*
X0601620Y0477810D01*
X0608660Y0477810D01*
X0607820Y0477810D02*
X0607820Y0471550D01*
X0606980Y0471550D02*
X0606980Y0477810D01*
X0606140Y0477810D02*
X0606140Y0471550D01*
X0605300Y0471550D02*
X0605300Y0477810D01*
X0604460Y0477810D02*
X0604460Y0471550D01*
X0603620Y0471550D02*
X0603620Y0477810D01*
X0602780Y0477810D02*
X0602780Y0471550D01*
X0601940Y0471550D02*
X0601940Y0477810D01*
X0608660Y0482580D02*
X0608660Y0488840D01*
X0608660Y0482580D02*
X0601620Y0482580D01*
X0601620Y0488840D01*
X0608660Y0488840D01*
X0607820Y0488840D02*
X0607820Y0482580D01*
X0606980Y0482580D02*
X0606980Y0488840D01*
X0606140Y0488840D02*
X0606140Y0482580D01*
X0605300Y0482580D02*
X0605300Y0488840D01*
X0604460Y0488840D02*
X0604460Y0482580D01*
X0603620Y0482580D02*
X0603620Y0488840D01*
X0602780Y0488840D02*
X0602780Y0482580D01*
X0601940Y0482580D02*
X0601940Y0488840D01*
X0548660Y0487580D02*
X0548660Y0493840D01*
X0548660Y0487580D02*
X0541620Y0487580D01*
X0541620Y0493840D01*
X0548660Y0493840D01*
X0547820Y0493840D02*
X0547820Y0487580D01*
X0546980Y0487580D02*
X0546980Y0493840D01*
X0546140Y0493840D02*
X0546140Y0487580D01*
X0545300Y0487580D02*
X0545300Y0493840D01*
X0544460Y0493840D02*
X0544460Y0487580D01*
X0543620Y0487580D02*
X0543620Y0493840D01*
X0542780Y0493840D02*
X0542780Y0487580D01*
X0541940Y0487580D02*
X0541940Y0493840D01*
X0548660Y0501550D02*
X0548660Y0507810D01*
X0548660Y0501550D02*
X0541620Y0501550D01*
X0541620Y0507810D01*
X0548660Y0507810D01*
X0547820Y0507810D02*
X0547820Y0501550D01*
X0546980Y0501550D02*
X0546980Y0507810D01*
X0546140Y0507810D02*
X0546140Y0501550D01*
X0545300Y0501550D02*
X0545300Y0507810D01*
X0544460Y0507810D02*
X0544460Y0501550D01*
X0543620Y0501550D02*
X0543620Y0507810D01*
X0542780Y0507810D02*
X0542780Y0501550D01*
X0541940Y0501550D02*
X0541940Y0507810D01*
X0548660Y0512580D02*
X0548660Y0518840D01*
X0548660Y0512580D02*
X0541620Y0512580D01*
X0541620Y0518840D01*
X0548660Y0518840D01*
X0547820Y0518840D02*
X0547820Y0512580D01*
X0546980Y0512580D02*
X0546980Y0518840D01*
X0546140Y0518840D02*
X0546140Y0512580D01*
X0545300Y0512580D02*
X0545300Y0518840D01*
X0544460Y0518840D02*
X0544460Y0512580D01*
X0543620Y0512580D02*
X0543620Y0518840D01*
X0542780Y0518840D02*
X0542780Y0512580D01*
X0541940Y0512580D02*
X0541940Y0518840D01*
X0533660Y0493840D02*
X0533660Y0487580D01*
X0526620Y0487580D01*
X0526620Y0493840D01*
X0533660Y0493840D01*
X0532820Y0493840D02*
X0532820Y0487580D01*
X0531980Y0487580D02*
X0531980Y0493840D01*
X0531140Y0493840D02*
X0531140Y0487580D01*
X0530300Y0487580D02*
X0530300Y0493840D01*
X0529460Y0493840D02*
X0529460Y0487580D01*
X0528620Y0487580D02*
X0528620Y0493840D01*
X0527780Y0493840D02*
X0527780Y0487580D01*
X0526940Y0487580D02*
X0526940Y0493840D01*
X0533660Y0482810D02*
X0533660Y0476550D01*
X0526620Y0476550D01*
X0526620Y0482810D01*
X0533660Y0482810D01*
X0532820Y0482810D02*
X0532820Y0476550D01*
X0531980Y0476550D02*
X0531980Y0482810D01*
X0531140Y0482810D02*
X0531140Y0476550D01*
X0530300Y0476550D02*
X0530300Y0482810D01*
X0529460Y0482810D02*
X0529460Y0476550D01*
X0528620Y0476550D02*
X0528620Y0482810D01*
X0527780Y0482810D02*
X0527780Y0476550D01*
X0526940Y0476550D02*
X0526940Y0482810D01*
X0548660Y0482810D02*
X0548660Y0476550D01*
X0541620Y0476550D01*
X0541620Y0482810D01*
X0548660Y0482810D01*
X0547820Y0482810D02*
X0547820Y0476550D01*
X0546980Y0476550D02*
X0546980Y0482810D01*
X0546140Y0482810D02*
X0546140Y0476550D01*
X0545300Y0476550D02*
X0545300Y0482810D01*
X0544460Y0482810D02*
X0544460Y0476550D01*
X0543620Y0476550D02*
X0543620Y0482810D01*
X0542780Y0482810D02*
X0542780Y0476550D01*
X0541940Y0476550D02*
X0541940Y0482810D01*
X0493780Y0498720D02*
X0487520Y0498720D01*
X0493780Y0498720D02*
X0493780Y0491680D01*
X0487520Y0491680D01*
X0487520Y0498720D01*
X0492940Y0498720D02*
X0492940Y0491680D01*
X0492100Y0491680D02*
X0492100Y0498720D01*
X0491260Y0498720D02*
X0491260Y0491680D01*
X0490420Y0491680D02*
X0490420Y0498720D01*
X0489580Y0498720D02*
X0489580Y0491680D01*
X0488740Y0491680D02*
X0488740Y0498720D01*
X0487900Y0498720D02*
X0487900Y0491680D01*
X0482760Y0498720D02*
X0476500Y0498720D01*
X0482760Y0498720D02*
X0482760Y0491680D01*
X0476500Y0491680D01*
X0476500Y0498720D01*
X0481920Y0498720D02*
X0481920Y0491680D01*
X0481080Y0491680D02*
X0481080Y0498720D01*
X0480240Y0498720D02*
X0480240Y0491680D01*
X0479400Y0491680D02*
X0479400Y0498720D01*
X0478560Y0498720D02*
X0478560Y0491680D01*
X0477720Y0491680D02*
X0477720Y0498720D01*
X0476880Y0498720D02*
X0476880Y0491680D01*
X0476500Y0438720D02*
X0482760Y0438720D01*
X0482760Y0431680D01*
X0476500Y0431680D01*
X0476500Y0438720D01*
X0481920Y0438720D02*
X0481920Y0431680D01*
X0481080Y0431680D02*
X0481080Y0438720D01*
X0480240Y0438720D02*
X0480240Y0431680D01*
X0479400Y0431680D02*
X0479400Y0438720D01*
X0478560Y0438720D02*
X0478560Y0431680D01*
X0477720Y0431680D02*
X0477720Y0438720D01*
X0476880Y0438720D02*
X0476880Y0431680D01*
X0487520Y0438720D02*
X0493780Y0438720D01*
X0493780Y0431680D01*
X0487520Y0431680D01*
X0487520Y0438720D01*
X0492940Y0438720D02*
X0492940Y0431680D01*
X0492100Y0431680D02*
X0492100Y0438720D01*
X0491260Y0438720D02*
X0491260Y0431680D01*
X0490420Y0431680D02*
X0490420Y0438720D01*
X0489580Y0438720D02*
X0489580Y0431680D01*
X0488740Y0431680D02*
X0488740Y0438720D01*
X0487900Y0438720D02*
X0487900Y0431680D01*
X0423660Y0501550D02*
X0423660Y0507810D01*
X0423660Y0501550D02*
X0416620Y0501550D01*
X0416620Y0507810D01*
X0423660Y0507810D01*
X0422820Y0507810D02*
X0422820Y0501550D01*
X0421980Y0501550D02*
X0421980Y0507810D01*
X0421140Y0507810D02*
X0421140Y0501550D01*
X0420300Y0501550D02*
X0420300Y0507810D01*
X0419460Y0507810D02*
X0419460Y0501550D01*
X0418620Y0501550D02*
X0418620Y0507810D01*
X0417780Y0507810D02*
X0417780Y0501550D01*
X0416940Y0501550D02*
X0416940Y0507810D01*
X0423660Y0512580D02*
X0423660Y0518840D01*
X0423660Y0512580D02*
X0416620Y0512580D01*
X0416620Y0518840D01*
X0423660Y0518840D01*
X0422820Y0518840D02*
X0422820Y0512580D01*
X0421980Y0512580D02*
X0421980Y0518840D01*
X0421140Y0518840D02*
X0421140Y0512580D01*
X0420300Y0512580D02*
X0420300Y0518840D01*
X0419460Y0518840D02*
X0419460Y0512580D01*
X0418620Y0512580D02*
X0418620Y0518840D01*
X0417780Y0518840D02*
X0417780Y0512580D01*
X0416940Y0512580D02*
X0416940Y0518840D01*
X0423660Y0561550D02*
X0423660Y0567810D01*
X0423660Y0561550D02*
X0416620Y0561550D01*
X0416620Y0567810D01*
X0423660Y0567810D01*
X0422820Y0567810D02*
X0422820Y0561550D01*
X0421980Y0561550D02*
X0421980Y0567810D01*
X0421140Y0567810D02*
X0421140Y0561550D01*
X0420300Y0561550D02*
X0420300Y0567810D01*
X0419460Y0567810D02*
X0419460Y0561550D01*
X0418620Y0561550D02*
X0418620Y0567810D01*
X0417780Y0567810D02*
X0417780Y0561550D01*
X0416940Y0561550D02*
X0416940Y0567810D01*
X0423660Y0572580D02*
X0423660Y0578840D01*
X0423660Y0572580D02*
X0416620Y0572580D01*
X0416620Y0578840D01*
X0423660Y0578840D01*
X0422820Y0578840D02*
X0422820Y0572580D01*
X0421980Y0572580D02*
X0421980Y0578840D01*
X0421140Y0578840D02*
X0421140Y0572580D01*
X0420300Y0572580D02*
X0420300Y0578840D01*
X0419460Y0578840D02*
X0419460Y0572580D01*
X0418620Y0572580D02*
X0418620Y0578840D01*
X0417780Y0578840D02*
X0417780Y0572580D01*
X0416940Y0572580D02*
X0416940Y0578840D01*
X0423660Y0621550D02*
X0423660Y0627810D01*
X0423660Y0621550D02*
X0416620Y0621550D01*
X0416620Y0627810D01*
X0423660Y0627810D01*
X0422820Y0627810D02*
X0422820Y0621550D01*
X0421980Y0621550D02*
X0421980Y0627810D01*
X0421140Y0627810D02*
X0421140Y0621550D01*
X0420300Y0621550D02*
X0420300Y0627810D01*
X0419460Y0627810D02*
X0419460Y0621550D01*
X0418620Y0621550D02*
X0418620Y0627810D01*
X0417780Y0627810D02*
X0417780Y0621550D01*
X0416940Y0621550D02*
X0416940Y0627810D01*
X0423660Y0632580D02*
X0423660Y0638840D01*
X0423660Y0632580D02*
X0416620Y0632580D01*
X0416620Y0638840D01*
X0423660Y0638840D01*
X0422820Y0638840D02*
X0422820Y0632580D01*
X0421980Y0632580D02*
X0421980Y0638840D01*
X0421140Y0638840D02*
X0421140Y0632580D01*
X0420300Y0632580D02*
X0420300Y0638840D01*
X0419460Y0638840D02*
X0419460Y0632580D01*
X0418620Y0632580D02*
X0418620Y0638840D01*
X0417780Y0638840D02*
X0417780Y0632580D01*
X0416940Y0632580D02*
X0416940Y0638840D01*
X0423660Y0681550D02*
X0423660Y0687810D01*
X0423660Y0681550D02*
X0416620Y0681550D01*
X0416620Y0687810D01*
X0423660Y0687810D01*
X0422820Y0687810D02*
X0422820Y0681550D01*
X0421980Y0681550D02*
X0421980Y0687810D01*
X0421140Y0687810D02*
X0421140Y0681550D01*
X0420300Y0681550D02*
X0420300Y0687810D01*
X0419460Y0687810D02*
X0419460Y0681550D01*
X0418620Y0681550D02*
X0418620Y0687810D01*
X0417780Y0687810D02*
X0417780Y0681550D01*
X0416940Y0681550D02*
X0416940Y0687810D01*
X0423660Y0692580D02*
X0423660Y0698840D01*
X0423660Y0692580D02*
X0416620Y0692580D01*
X0416620Y0698840D01*
X0423660Y0698840D01*
X0422820Y0698840D02*
X0422820Y0692580D01*
X0421980Y0692580D02*
X0421980Y0698840D01*
X0421140Y0698840D02*
X0421140Y0692580D01*
X0420300Y0692580D02*
X0420300Y0698840D01*
X0419460Y0698840D02*
X0419460Y0692580D01*
X0418620Y0692580D02*
X0418620Y0698840D01*
X0417780Y0698840D02*
X0417780Y0692580D01*
X0416940Y0692580D02*
X0416940Y0698840D01*
X0423660Y0741550D02*
X0423660Y0747810D01*
X0423660Y0741550D02*
X0416620Y0741550D01*
X0416620Y0747810D01*
X0423660Y0747810D01*
X0422820Y0747810D02*
X0422820Y0741550D01*
X0421980Y0741550D02*
X0421980Y0747810D01*
X0421140Y0747810D02*
X0421140Y0741550D01*
X0420300Y0741550D02*
X0420300Y0747810D01*
X0419460Y0747810D02*
X0419460Y0741550D01*
X0418620Y0741550D02*
X0418620Y0747810D01*
X0417780Y0747810D02*
X0417780Y0741550D01*
X0416940Y0741550D02*
X0416940Y0747810D01*
X0423660Y0752580D02*
X0423660Y0758840D01*
X0423660Y0752580D02*
X0416620Y0752580D01*
X0416620Y0758840D01*
X0423660Y0758840D01*
X0422820Y0758840D02*
X0422820Y0752580D01*
X0421980Y0752580D02*
X0421980Y0758840D01*
X0421140Y0758840D02*
X0421140Y0752580D01*
X0420300Y0752580D02*
X0420300Y0758840D01*
X0419460Y0758840D02*
X0419460Y0752580D01*
X0418620Y0752580D02*
X0418620Y0758840D01*
X0417780Y0758840D02*
X0417780Y0752580D01*
X0416940Y0752580D02*
X0416940Y0758840D01*
X0476500Y0738720D02*
X0482760Y0738720D01*
X0482760Y0731680D01*
X0476500Y0731680D01*
X0476500Y0738720D01*
X0481920Y0738720D02*
X0481920Y0731680D01*
X0481080Y0731680D02*
X0481080Y0738720D01*
X0480240Y0738720D02*
X0480240Y0731680D01*
X0479400Y0731680D02*
X0479400Y0738720D01*
X0478560Y0738720D02*
X0478560Y0731680D01*
X0477720Y0731680D02*
X0477720Y0738720D01*
X0476880Y0738720D02*
X0476880Y0731680D01*
X0487520Y0738720D02*
X0493780Y0738720D01*
X0493780Y0731680D01*
X0487520Y0731680D01*
X0487520Y0738720D01*
X0492940Y0738720D02*
X0492940Y0731680D01*
X0492100Y0731680D02*
X0492100Y0738720D01*
X0491260Y0738720D02*
X0491260Y0731680D01*
X0490420Y0731680D02*
X0490420Y0738720D01*
X0489580Y0738720D02*
X0489580Y0731680D01*
X0488740Y0731680D02*
X0488740Y0738720D01*
X0487900Y0738720D02*
X0487900Y0731680D01*
X0487520Y0673720D02*
X0493780Y0673720D01*
X0493780Y0666680D01*
X0487520Y0666680D01*
X0487520Y0673720D01*
X0492940Y0673720D02*
X0492940Y0666680D01*
X0492100Y0666680D02*
X0492100Y0673720D01*
X0491260Y0673720D02*
X0491260Y0666680D01*
X0490420Y0666680D02*
X0490420Y0673720D01*
X0489580Y0673720D02*
X0489580Y0666680D01*
X0488740Y0666680D02*
X0488740Y0673720D01*
X0487900Y0673720D02*
X0487900Y0666680D01*
X0482760Y0673720D02*
X0476500Y0673720D01*
X0482760Y0673720D02*
X0482760Y0666680D01*
X0476500Y0666680D01*
X0476500Y0673720D01*
X0481920Y0673720D02*
X0481920Y0666680D01*
X0481080Y0666680D02*
X0481080Y0673720D01*
X0480240Y0673720D02*
X0480240Y0666680D01*
X0479400Y0666680D02*
X0479400Y0673720D01*
X0478560Y0673720D02*
X0478560Y0666680D01*
X0477720Y0666680D02*
X0477720Y0673720D01*
X0476880Y0673720D02*
X0476880Y0666680D01*
X0476500Y0613720D02*
X0482760Y0613720D01*
X0482760Y0606680D01*
X0476500Y0606680D01*
X0476500Y0613720D01*
X0481920Y0613720D02*
X0481920Y0606680D01*
X0481080Y0606680D02*
X0481080Y0613720D01*
X0480240Y0613720D02*
X0480240Y0606680D01*
X0479400Y0606680D02*
X0479400Y0613720D01*
X0478560Y0613720D02*
X0478560Y0606680D01*
X0477720Y0606680D02*
X0477720Y0613720D01*
X0476880Y0613720D02*
X0476880Y0606680D01*
X0487520Y0613720D02*
X0493780Y0613720D01*
X0493780Y0606680D01*
X0487520Y0606680D01*
X0487520Y0613720D01*
X0492940Y0613720D02*
X0492940Y0606680D01*
X0492100Y0606680D02*
X0492100Y0613720D01*
X0491260Y0613720D02*
X0491260Y0606680D01*
X0490420Y0606680D02*
X0490420Y0613720D01*
X0489580Y0613720D02*
X0489580Y0606680D01*
X0488740Y0606680D02*
X0488740Y0613720D01*
X0487900Y0613720D02*
X0487900Y0606680D01*
X0487520Y0553720D02*
X0493780Y0553720D01*
X0493780Y0546680D01*
X0487520Y0546680D01*
X0487520Y0553720D01*
X0492940Y0553720D02*
X0492940Y0546680D01*
X0492100Y0546680D02*
X0492100Y0553720D01*
X0491260Y0553720D02*
X0491260Y0546680D01*
X0490420Y0546680D02*
X0490420Y0553720D01*
X0489580Y0553720D02*
X0489580Y0546680D01*
X0488740Y0546680D02*
X0488740Y0553720D01*
X0487900Y0553720D02*
X0487900Y0546680D01*
X0482760Y0553720D02*
X0476500Y0553720D01*
X0482760Y0553720D02*
X0482760Y0546680D01*
X0476500Y0546680D01*
X0476500Y0553720D01*
X0481920Y0553720D02*
X0481920Y0546680D01*
X0481080Y0546680D02*
X0481080Y0553720D01*
X0480240Y0553720D02*
X0480240Y0546680D01*
X0479400Y0546680D02*
X0479400Y0553720D01*
X0478560Y0553720D02*
X0478560Y0546680D01*
X0477720Y0546680D02*
X0477720Y0553720D01*
X0476880Y0553720D02*
X0476880Y0546680D01*
X0541500Y0641680D02*
X0547760Y0641680D01*
X0541500Y0641680D02*
X0541500Y0648720D01*
X0547760Y0648720D01*
X0547760Y0641680D01*
X0546920Y0641680D02*
X0546920Y0648720D01*
X0546080Y0648720D02*
X0546080Y0641680D01*
X0545240Y0641680D02*
X0545240Y0648720D01*
X0544400Y0648720D02*
X0544400Y0641680D01*
X0543560Y0641680D02*
X0543560Y0648720D01*
X0542720Y0648720D02*
X0542720Y0641680D01*
X0541880Y0641680D02*
X0541880Y0648720D01*
X0552520Y0641680D02*
X0558780Y0641680D01*
X0552520Y0641680D02*
X0552520Y0648720D01*
X0558780Y0648720D01*
X0558780Y0641680D01*
X0557940Y0641680D02*
X0557940Y0648720D01*
X0557100Y0648720D02*
X0557100Y0641680D01*
X0556260Y0641680D02*
X0556260Y0648720D01*
X0555420Y0648720D02*
X0555420Y0641680D01*
X0554580Y0641680D02*
X0554580Y0648720D01*
X0553740Y0648720D02*
X0553740Y0641680D01*
X0552900Y0641680D02*
X0552900Y0648720D01*
X0578660Y0656550D02*
X0578660Y0662810D01*
X0578660Y0656550D02*
X0571620Y0656550D01*
X0571620Y0662810D01*
X0578660Y0662810D01*
X0577820Y0662810D02*
X0577820Y0656550D01*
X0576980Y0656550D02*
X0576980Y0662810D01*
X0576140Y0662810D02*
X0576140Y0656550D01*
X0575300Y0656550D02*
X0575300Y0662810D01*
X0574460Y0662810D02*
X0574460Y0656550D01*
X0573620Y0656550D02*
X0573620Y0662810D01*
X0572780Y0662810D02*
X0572780Y0656550D01*
X0571940Y0656550D02*
X0571940Y0662810D01*
X0578660Y0667580D02*
X0578660Y0673840D01*
X0578660Y0667580D02*
X0571620Y0667580D01*
X0571620Y0673840D01*
X0578660Y0673840D01*
X0577820Y0673840D02*
X0577820Y0667580D01*
X0576980Y0667580D02*
X0576980Y0673840D01*
X0576140Y0673840D02*
X0576140Y0667580D01*
X0575300Y0667580D02*
X0575300Y0673840D01*
X0574460Y0673840D02*
X0574460Y0667580D01*
X0573620Y0667580D02*
X0573620Y0673840D01*
X0572780Y0673840D02*
X0572780Y0667580D01*
X0571940Y0667580D02*
X0571940Y0673840D01*
D539*
X0656720Y0673720D02*
X0656720Y0678480D01*
X0656720Y0673720D02*
X0647960Y0673720D01*
X0647960Y0678480D01*
X0656720Y0678480D01*
X0655890Y0678480D02*
X0655890Y0673720D01*
X0655060Y0673720D02*
X0655060Y0678480D01*
X0654230Y0678480D02*
X0654230Y0673720D01*
X0653400Y0673720D02*
X0653400Y0678480D01*
X0652570Y0678480D02*
X0652570Y0673720D01*
X0651740Y0673720D02*
X0651740Y0678480D01*
X0650910Y0678480D02*
X0650910Y0673720D01*
X0650080Y0673720D02*
X0650080Y0678480D01*
X0649250Y0678480D02*
X0649250Y0673720D01*
X0648420Y0673720D02*
X0648420Y0678480D01*
X0656720Y0682820D02*
X0656720Y0687580D01*
X0656720Y0682820D02*
X0647960Y0682820D01*
X0647960Y0687580D01*
X0656720Y0687580D01*
X0655890Y0687580D02*
X0655890Y0682820D01*
X0655060Y0682820D02*
X0655060Y0687580D01*
X0654230Y0687580D02*
X0654230Y0682820D01*
X0653400Y0682820D02*
X0653400Y0687580D01*
X0652570Y0687580D02*
X0652570Y0682820D01*
X0651740Y0682820D02*
X0651740Y0687580D01*
X0650910Y0687580D02*
X0650910Y0682820D01*
X0650080Y0682820D02*
X0650080Y0687580D01*
X0649250Y0687580D02*
X0649250Y0682820D01*
X0648420Y0682820D02*
X0648420Y0687580D01*
X0656720Y0691920D02*
X0656720Y0696680D01*
X0656720Y0691920D02*
X0647960Y0691920D01*
X0647960Y0696680D01*
X0656720Y0696680D01*
X0655890Y0696680D02*
X0655890Y0691920D01*
X0655060Y0691920D02*
X0655060Y0696680D01*
X0654230Y0696680D02*
X0654230Y0691920D01*
X0653400Y0691920D02*
X0653400Y0696680D01*
X0652570Y0696680D02*
X0652570Y0691920D01*
X0651740Y0691920D02*
X0651740Y0696680D01*
X0650910Y0696680D02*
X0650910Y0691920D01*
X0650080Y0691920D02*
X0650080Y0696680D01*
X0649250Y0696680D02*
X0649250Y0691920D01*
X0648420Y0691920D02*
X0648420Y0696680D01*
X0656720Y0616680D02*
X0656720Y0611920D01*
X0647960Y0611920D01*
X0647960Y0616680D01*
X0656720Y0616680D01*
X0655890Y0616680D02*
X0655890Y0611920D01*
X0655060Y0611920D02*
X0655060Y0616680D01*
X0654230Y0616680D02*
X0654230Y0611920D01*
X0653400Y0611920D02*
X0653400Y0616680D01*
X0652570Y0616680D02*
X0652570Y0611920D01*
X0651740Y0611920D02*
X0651740Y0616680D01*
X0650910Y0616680D02*
X0650910Y0611920D01*
X0650080Y0611920D02*
X0650080Y0616680D01*
X0649250Y0616680D02*
X0649250Y0611920D01*
X0648420Y0611920D02*
X0648420Y0616680D01*
X0656720Y0607580D02*
X0656720Y0602820D01*
X0647960Y0602820D01*
X0647960Y0607580D01*
X0656720Y0607580D01*
X0655890Y0607580D02*
X0655890Y0602820D01*
X0655060Y0602820D02*
X0655060Y0607580D01*
X0654230Y0607580D02*
X0654230Y0602820D01*
X0653400Y0602820D02*
X0653400Y0607580D01*
X0652570Y0607580D02*
X0652570Y0602820D01*
X0651740Y0602820D02*
X0651740Y0607580D01*
X0650910Y0607580D02*
X0650910Y0602820D01*
X0650080Y0602820D02*
X0650080Y0607580D01*
X0649250Y0607580D02*
X0649250Y0602820D01*
X0648420Y0602820D02*
X0648420Y0607580D01*
X0656720Y0598480D02*
X0656720Y0593720D01*
X0647960Y0593720D01*
X0647960Y0598480D01*
X0656720Y0598480D01*
X0655890Y0598480D02*
X0655890Y0593720D01*
X0655060Y0593720D02*
X0655060Y0598480D01*
X0654230Y0598480D02*
X0654230Y0593720D01*
X0653400Y0593720D02*
X0653400Y0598480D01*
X0652570Y0598480D02*
X0652570Y0593720D01*
X0651740Y0593720D02*
X0651740Y0598480D01*
X0650910Y0598480D02*
X0650910Y0593720D01*
X0650080Y0593720D02*
X0650080Y0598480D01*
X0649250Y0598480D02*
X0649250Y0593720D01*
X0648420Y0593720D02*
X0648420Y0598480D01*
D340*
X0632250Y0598140D02*
X0632250Y0612260D01*
X0632250Y0598140D02*
X0623630Y0598140D01*
X0623630Y0612260D01*
X0632250Y0612260D01*
X0631410Y0612260D02*
X0631410Y0598140D01*
X0630570Y0598140D02*
X0630570Y0612260D01*
X0629730Y0612260D02*
X0629730Y0598140D01*
X0628890Y0598140D02*
X0628890Y0612260D01*
X0628050Y0612260D02*
X0628050Y0598140D01*
X0627210Y0598140D02*
X0627210Y0612260D01*
X0626370Y0612260D02*
X0626370Y0598140D01*
X0625530Y0598140D02*
X0625530Y0612260D01*
X0624690Y0612260D02*
X0624690Y0598140D01*
X0623850Y0598140D02*
X0623850Y0612260D01*
X0632250Y0678140D02*
X0632250Y0692260D01*
X0632250Y0678140D02*
X0623630Y0678140D01*
X0623630Y0692260D01*
X0632250Y0692260D01*
X0631410Y0692260D02*
X0631410Y0678140D01*
X0630570Y0678140D02*
X0630570Y0692260D01*
X0629730Y0692260D02*
X0629730Y0678140D01*
X0628890Y0678140D02*
X0628890Y0692260D01*
X0628050Y0692260D02*
X0628050Y0678140D01*
X0627210Y0678140D02*
X0627210Y0692260D01*
X0626370Y0692260D02*
X0626370Y0678140D01*
X0625530Y0678140D02*
X0625530Y0692260D01*
X0624690Y0692260D02*
X0624690Y0678140D01*
X0623850Y0678140D02*
X0623850Y0692260D01*
D284*
X0443140Y0690200D02*
X0437140Y0690200D01*
X0437140Y0700200D02*
X0443140Y0700200D01*
X0443140Y0710200D02*
X0437140Y0710200D01*
X0437140Y0750200D02*
X0443140Y0750200D01*
X0443140Y0760200D02*
X0437140Y0760200D01*
X0437140Y0770200D02*
X0443140Y0770200D01*
X0443140Y0650200D02*
X0437140Y0650200D01*
X0437140Y0640200D02*
X0443140Y0640200D01*
X0443140Y0630200D02*
X0437140Y0630200D01*
X0437140Y0590200D02*
X0443140Y0590200D01*
X0443140Y0580200D02*
X0437140Y0580200D01*
X0437140Y0570200D02*
X0443140Y0570200D01*
X0443140Y0530200D02*
X0437140Y0530200D01*
X0437140Y0520200D02*
X0443140Y0520200D01*
X0443140Y0510200D02*
X0437140Y0510200D01*
X0437140Y0470200D02*
X0443140Y0470200D01*
X0443140Y0460200D02*
X0437140Y0460200D01*
X0437140Y0450200D02*
X0443140Y0450200D01*
D553*
X0420140Y0460040D03*
X0420140Y0440350D03*
X0670140Y0575200D03*
X0670140Y0605200D03*
X0670140Y0655200D03*
X0670140Y0685200D03*
D366*
X0640140Y0722700D03*
X0640140Y0767700D03*
D286*
X0615140Y0727700D03*
D223*
X0670140Y0695200D03*
X0670140Y0665200D03*
X0670140Y0615200D03*
X0670140Y0585200D03*
D463*
X0655140Y0524130D03*
X0673640Y0512320D03*
X0655140Y0500510D03*
D212*
X0545140Y0775200D03*
X0380140Y0760200D03*
X0380140Y0700200D03*
X0380140Y0640200D03*
X0380140Y0580200D03*
X0380140Y0520200D03*
X0380140Y0460200D03*
D74*
X0380140Y0440510D03*
X0380140Y0500510D03*
X0380140Y0560510D03*
X0380140Y0620510D03*
X0380140Y0680510D03*
X0380140Y0740510D03*
X0525450Y0775200D03*
D186*
X0595140Y0695200D03*
X0600140Y0690200D03*
X0575140Y0650200D03*
X0580140Y0640200D03*
X0570140Y0635200D03*
X0510140Y0625200D03*
X0515140Y0495200D03*
X0670140Y0630200D03*
M02*
