%
T01C0.015000
X4856Y17500
X16362Y17500
X27868Y17500
X17500Y36820
T02C0.025600
X4696Y13040
X5896Y10520
X6016Y11240
X6856Y11240
X7636Y11220
X8056Y10560
X7336Y13160
X8416Y13520
X7096Y17480
X4576Y8840
X5316Y6780
X5916Y6800
X16202Y13040
X17402Y10520
X17522Y11240
X18362Y11240
X19142Y11220
X19562Y10560
X18842Y13160
X19922Y13520
X18602Y17480
X16082Y8840
X16822Y6780
X17422Y6800
X27708Y13040
X28908Y10520
X29028Y11240
X29868Y11240
X30648Y11220
X31068Y10560
X30348Y13160
X31428Y13520
X30108Y17480
X27588Y8840
X28328Y6780
X28928Y6800
X67014Y22500
X67014Y21500
X67014Y19500
X67014Y18500
X67014Y26500
X67014Y27500
X67014Y29500
X67014Y30500
X42014Y6984
X42014Y5015
X51514Y10500
X51014Y23500
X57014Y24500
X58014Y25000
X57514Y26000
X60014Y30000
X59514Y30500
X67014Y24000
X13040Y36980
X10520Y35780
X11240Y35660
X11240Y34820
X11220Y34040
X10560Y33620
X13160Y34340
X13520Y33260
X17480Y34580
X8840Y37100
X6780Y36360
X6800Y35760
X34368Y60826
X34368Y59826
X34368Y57826
X34368Y56826
X34368Y64826
X34368Y65826
X34368Y67826
X34368Y68826
X9368Y45310
X9368Y43341
X18868Y48826
X18368Y61826
X24368Y62826
X25368Y63326
X24868Y64326
X27368Y68326
X26868Y68826
X34368Y62326
X67014Y61520
X67014Y60520
X67014Y58520
X67014Y57520
X67014Y65520
X67014Y66520
X67014Y68520
X67014Y69520
X42014Y46004
X42014Y44035
X51514Y49520
X51014Y62520
X57014Y63520
X58014Y64020
X57514Y65020
X60014Y69020
X59514Y69520
X67014Y63020
T03C0.033450
X6482Y4460
X4750Y4460
X17988Y4460
X16256Y4460
X29494Y4460
X27762Y4460
X46014Y34000
X42014Y34000
X40514Y34000
X40514Y32000
X40514Y28000
X42014Y28000
X40514Y26000
X40514Y22000
X42014Y22000
X40514Y20000
X40514Y16000
X42014Y16000
X40514Y14000
X40514Y10000
X42014Y10000
X40514Y8000
X40514Y4000
X42014Y4000
X46014Y4000
X46014Y10000
X46014Y16000
X46014Y22000
X46014Y28000
X53514Y32500
X55514Y32500
X55514Y36500
X53514Y36500
X40514Y38000
X46014Y6000
X46014Y7000
X46014Y8000
X49014Y8000
X49014Y7000
X49014Y6000
X49014Y12000
X49014Y13000
X49014Y14000
X46014Y14000
X46014Y13000
X46014Y12000
X46014Y17500
X46014Y18500
X46014Y19500
X49014Y19500
X49014Y18500
X49014Y17500
X49014Y23500
X49014Y24500
X49014Y25500
X46014Y25500
X46014Y24500
X46014Y23500
X46014Y29500
X46014Y30500
X46014Y31500
X49014Y31500
X49014Y30500
X49014Y29500
X53514Y30500
X54514Y30500
X55514Y30500
X55514Y27500
X54514Y27500
X53514Y27500
X56014Y22000
X56014Y21000
X56014Y20000
X56014Y19000
X56014Y18000
X56014Y17000
X56014Y16000
X56014Y15000
X56014Y14000
X56014Y13000
X56014Y12000
X56014Y11000
X56014Y10000
X56014Y9000
X59014Y9000
X59014Y10000
X59014Y11000
X59014Y12000
X59014Y13000
X59014Y14000
X59014Y15000
X59014Y16000
X59014Y17000
X59014Y18000
X59014Y19000
X59014Y20000
X59014Y21000
X59014Y22000
X49014Y36000
X49014Y37000
X49014Y38000
X46014Y38000
X46014Y37000
X46014Y36000
X4460Y35194
X4460Y36926
X13368Y72326
X9368Y72326
X7868Y72326
X7868Y70326
X7868Y66326
X9368Y66326
X7868Y64326
X7868Y60326
X9368Y60326
X7868Y58326
X7868Y54326
X9368Y54326
X7868Y52326
X7868Y48326
X9368Y48326
X7868Y46326
X7868Y42326
X9368Y42326
X13368Y42326
X13368Y48326
X13368Y54326
X13368Y60326
X13368Y66326
X20868Y70826
X22868Y70826
X22868Y74826
X20868Y74826
X7868Y76326
X13368Y44326
X13368Y45326
X13368Y46326
X16368Y46326
X16368Y45326
X16368Y44326
X16368Y50326
X16368Y51326
X16368Y52326
X13368Y52326
X13368Y51326
X13368Y50326
X13368Y55826
X13368Y56826
X13368Y57826
X16368Y57826
X16368Y56826
X16368Y55826
X16368Y61826
X16368Y62826
X16368Y63826
X13368Y63826
X13368Y62826
X13368Y61826
X13368Y67826
X13368Y68826
X13368Y69826
X16368Y69826
X16368Y68826
X16368Y67826
X20868Y68826
X21868Y68826
X22868Y68826
X22868Y65826
X21868Y65826
X20868Y65826
X23368Y60326
X23368Y59326
X23368Y58326
X23368Y57326
X23368Y56326
X23368Y55326
X23368Y54326
X23368Y53326
X23368Y52326
X23368Y51326
X23368Y50326
X23368Y49326
X23368Y48326
X23368Y47326
X26368Y47326
X26368Y48326
X26368Y49326
X26368Y50326
X26368Y51326
X26368Y52326
X26368Y53326
X26368Y54326
X26368Y55326
X26368Y56326
X26368Y57326
X26368Y58326
X26368Y59326
X26368Y60326
X16368Y74326
X16368Y75326
X16368Y76326
X13368Y76326
X13368Y75326
X13368Y74326
X46014Y73020
X42014Y73020
X40514Y73020
X40514Y71020
X40514Y67020
X42014Y67020
X40514Y65020
X40514Y61020
X42014Y61020
X40514Y59020
X40514Y55020
X42014Y55020
X40514Y53020
X40514Y49020
X42014Y49020
X40514Y47020
X40514Y43020
X42014Y43020
X46014Y43020
X46014Y49020
X46014Y55020
X46014Y61020
X46014Y67020
X53514Y71520
X55514Y71520
X55514Y75520
X53514Y75520
X40514Y77020
X46014Y45020
X46014Y46020
X46014Y47020
X49014Y47020
X49014Y46020
X49014Y45020
X49014Y51020
X49014Y52020
X49014Y53020
X46014Y53020
X46014Y52020
X46014Y51020
X46014Y56520
X46014Y57520
X46014Y58520
X49014Y58520
X49014Y57520
X49014Y56520
X49014Y62520
X49014Y63520
X49014Y64520
X46014Y64520
X46014Y63520
X46014Y62520
X46014Y68520
X46014Y69520
X46014Y70520
X49014Y70520
X49014Y69520
X49014Y68520
X53514Y69520
X54514Y69520
X55514Y69520
X55514Y66520
X54514Y66520
X53514Y66520
X56014Y61020
X56014Y60020
X56014Y59020
X56014Y58020
X56014Y57020
X56014Y56020
X56014Y55020
X56014Y54020
X56014Y53020
X56014Y52020
X56014Y51020
X56014Y50020
X56014Y49020
X56014Y48020
X59014Y48020
X59014Y49020
X59014Y50020
X59014Y51020
X59014Y52020
X59014Y53020
X59014Y54020
X59014Y55020
X59014Y56020
X59014Y57020
X59014Y58020
X59014Y59020
X59014Y60020
X59014Y61020
X49014Y75020
X49014Y76020
X49014Y77020
X46014Y77020
X46014Y76020
X46014Y75020
T04C0.039700
X3336Y13000
X3336Y14000
X4076Y16960
X4076Y17960
X12376Y2480
X9166Y20300
X8666Y21300
X8166Y20300
X7666Y21300
X7166Y20300
X6666Y21300
X6166Y20300
X9666Y21300
X12376Y27680
X2536Y27680
X2536Y2600
X14842Y13000
X14842Y14000
X15582Y16960
X15582Y17960
X23882Y2480
X20672Y20300
X20172Y21300
X19672Y20300
X19172Y21300
X18672Y20300
X18172Y21300
X17672Y20300
X21172Y21300
X23882Y27680
X14042Y27680
X14042Y2600
X26348Y13000
X26348Y14000
X27088Y16960
X27088Y17960
X35388Y2480
X32178Y20300
X31678Y21300
X31178Y20300
X30678Y21300
X30178Y20300
X29678Y21300
X29178Y20300
X32678Y21300
X35388Y27680
X25548Y27680
X25548Y2600
X62114Y13500
X62014Y12500
X62114Y11500
X62014Y10500
X62114Y9500
X62014Y8500
X44014Y8000
X44014Y7000
X44014Y6000
X44014Y12000
X44014Y13000
X44014Y14000
X44014Y18000
X44014Y19000
X44014Y20000
X44014Y24000
X44014Y25000
X44014Y26000
X44014Y30000
X44014Y31000
X44014Y32000
X44014Y36000
X44014Y37000
X44014Y38000
X60514Y37250
X60514Y36250
X60514Y35250
X60514Y34250
X61514Y34750
X61514Y35750
X61514Y36750
X61514Y33750
X13000Y38340
X14000Y38340
X16960Y37600
X17960Y37600
X2480Y29300
X20300Y32510
X21300Y33010
X20300Y33510
X21300Y34010
X20300Y34510
X21300Y35010
X20300Y35510
X21300Y32010
X27680Y29300
X27680Y39140
X2600Y39140
X29468Y51826
X29368Y50826
X29468Y49826
X29368Y48826
X29468Y47826
X29368Y46826
X11368Y46326
X11368Y45326
X11368Y44326
X11368Y50326
X11368Y51326
X11368Y52326
X11368Y56326
X11368Y57326
X11368Y58326
X11368Y62326
X11368Y63326
X11368Y64326
X11368Y68326
X11368Y69326
X11368Y70326
X11368Y74326
X11368Y75326
X11368Y76326
X27868Y75576
X27868Y74576
X27868Y73576
X27868Y72576
X28868Y73076
X28868Y74076
X28868Y75076
X28868Y72076
X62114Y52520
X62014Y51520
X62114Y50520
X62014Y49520
X62114Y48520
X62014Y47520
X44014Y47020
X44014Y46020
X44014Y45020
X44014Y51020
X44014Y52020
X44014Y53020
X44014Y57020
X44014Y58020
X44014Y59020
X44014Y63020
X44014Y64020
X44014Y65020
X44014Y69020
X44014Y70020
X44014Y71020
X44014Y75020
X44014Y76020
X44014Y77020
X60514Y76270
X60514Y75270
X60514Y74270
X60514Y73270
X61514Y73770
X61514Y74770
X61514Y75770
X61514Y72770
T05C0.051200
X38014Y37000
X38014Y35031
X38014Y31000
X38014Y29031
X38014Y25000
X38014Y23031
X38014Y19000
X38014Y17031
X38014Y13000
X38014Y11031
X38014Y7000
X38014Y5031
X52545Y38500
X54514Y38500
X5368Y75326
X5368Y73357
X5368Y69326
X5368Y67357
X5368Y63326
X5368Y61357
X5368Y57326
X5368Y55357
X5368Y51326
X5368Y49357
X5368Y45326
X5368Y43357
X19899Y76826
X21868Y76826
X38014Y76020
X38014Y74051
X38014Y70020
X38014Y68051
X38014Y64020
X38014Y62051
X38014Y58020
X38014Y56051
X38014Y52020
X38014Y50051
X38014Y46020
X38014Y44051
X52545Y77520
X54514Y77520
T06C0.110200
X67514Y3000
X37514Y3000
X37514Y39500
X67514Y39500
X34868Y41326
X4868Y41326
X4868Y77826
X34868Y77826
X67514Y42020
X37514Y42020
X37514Y78520
X67514Y78520
T07C0.118000
X9876Y7494
X9876Y5132
X11727Y6313
X21382Y7494
X21382Y5132
X23233Y6313
X32888Y7494
X32888Y5132
X34739Y6313
X65514Y13393
X67364Y12212
X65514Y11031
X7494Y31800
X5132Y31800
X6313Y29949
X32868Y51719
X34718Y50538
X32868Y49357
X65514Y52413
X67364Y51232
X65514Y50051
T08C0.126000
X10166Y23800
X5666Y23800
X21672Y23800
X17172Y23800
X33178Y23800
X28678Y23800
X64014Y33250
X64014Y37750
X23800Y31510
X23800Y36010
X31368Y71576
X31368Y76076
X64014Y72270
X64014Y76770
M30
