G75*
G70*
%OFA0B0*%
%FSLAX25Y25*%
%IPPOS*%
%LPD*%
%AMOC8*
5,1,8,0,0,1.08239X$1,22.5*
%
%ADD102R,0.08000X0.08000*%
%ADD111R,0.06300X0.05510*%
%ADD12R,0.06300X0.07090*%
%ADD1303R,0.08800X0.04800*%
%ADD1304R,0.08660X0.14170*%
%ADD1306R,0.05510X0.06300*%
%ADD1307R,0.01370X0.05500*%
%ADD1308R,0.01970X0.09840*%
%ADD1309R,0.07870X0.09840*%
%ADD158C,0.06000*%
%ADD173C,0.07400*%
%ADD175R,0.09840X0.07870*%
%ADD207R,0.06500X0.06500*%
%ADD224C,0.06500*%
%ADD230R,0.08000X0.02600*%
%ADD260C,0.08000*%
%ADD289C,0.01600*%
%ADD291R,0.07090X0.06300*%
%ADD320R,0.07400X0.07400*%
%ADD346C,0.17000*%
%ADD35C,0.01200*%
%ADD390R,0.05910X0.05910*%
%ADD436R,0.03960X0.03960*%
%ADD458C,0.07870*%
%ADD485C,0.00000*%
%ADD498C,0.01000*%
%ADD527C,0.03100*%
%ADD574R,0.02600X0.08000*%
%ADD586R,0.09840X0.01970*%
%ADD599C,0.05200*%
%ADD602C,0.04000*%
%ADD674R,0.05500X0.01370*%
X0020000Y0020000D02*
G75*
%LPD*%
D485*
X0128560Y0020000D02*
X0020000Y0020000D01*
X0020000Y0281700D01*
X0128560Y0281700D01*
X0128560Y0020000D01*
X0123760Y0022830D02*
X0123490Y0022850D01*
X0123220Y0022910D01*
X0122960Y0023000D01*
X0122720Y0023130D01*
X0122490Y0023290D01*
X0122300Y0023480D01*
X0122130Y0023700D01*
X0121990Y0023940D01*
X0121890Y0024190D01*
X0121820Y0024460D01*
X0121790Y0024730D01*
X0121800Y0025010D01*
X0121850Y0025280D01*
X0121930Y0025540D01*
X0122050Y0025780D01*
X0122210Y0026010D01*
X0122390Y0026220D01*
X0122600Y0026390D01*
X0122840Y0026540D01*
X0123090Y0026650D01*
X0123350Y0026730D01*
X0123620Y0026770D01*
X0123900Y0026770D01*
X0124170Y0026730D01*
X0124430Y0026650D01*
X0124680Y0026540D01*
X0124920Y0026390D01*
X0125130Y0026220D01*
X0125310Y0026010D01*
X0125470Y0025790D01*
X0125590Y0025540D01*
X0125670Y0025280D01*
X0125720Y0025010D01*
X0125730Y0024730D01*
X0125700Y0024460D01*
X0125630Y0024190D01*
X0125530Y0023940D01*
X0125390Y0023700D01*
X0125220Y0023480D01*
X0125030Y0023290D01*
X0124800Y0023130D01*
X0124560Y0023000D01*
X0124300Y0022910D01*
X0124030Y0022850D01*
X0123760Y0022830D01*
X0064820Y0042830D02*
X0064560Y0042850D01*
X0064300Y0042910D01*
X0064050Y0043010D01*
X0063820Y0043140D01*
X0063620Y0043300D01*
X0063440Y0043500D01*
X0063290Y0043720D01*
X0063170Y0043950D01*
X0063090Y0044210D01*
X0063050Y0044470D01*
X0063050Y0044730D01*
X0063090Y0044990D01*
X0063170Y0045250D01*
X0063290Y0045490D01*
X0063440Y0045700D01*
X0063620Y0045900D01*
X0063820Y0046060D01*
X0064050Y0046190D01*
X0064300Y0046290D01*
X0064560Y0046350D01*
X0064820Y0046370D01*
X0065080Y0046350D01*
X0065340Y0046290D01*
X0065590Y0046190D01*
X0065820Y0046060D01*
X0066020Y0045900D01*
X0066200Y0045700D01*
X0066350Y0045480D01*
X0066470Y0045250D01*
X0066550Y0044990D01*
X0066590Y0044730D01*
X0066590Y0044470D01*
X0066550Y0044210D01*
X0066470Y0043950D01*
X0066350Y0043710D01*
X0066200Y0043500D01*
X0066020Y0043300D01*
X0065820Y0043140D01*
X0065590Y0043010D01*
X0065340Y0042910D01*
X0065080Y0042850D01*
X0064820Y0042830D01*
X0047500Y0042830D02*
X0047240Y0042850D01*
X0046980Y0042910D01*
X0046730Y0043010D01*
X0046500Y0043140D01*
X0046300Y0043300D01*
X0046120Y0043500D01*
X0045970Y0043720D01*
X0045850Y0043950D01*
X0045770Y0044210D01*
X0045730Y0044470D01*
X0045730Y0044730D01*
X0045770Y0044990D01*
X0045850Y0045250D01*
X0045970Y0045490D01*
X0046120Y0045700D01*
X0046300Y0045900D01*
X0046500Y0046060D01*
X0046730Y0046190D01*
X0046980Y0046290D01*
X0047240Y0046350D01*
X0047500Y0046370D01*
X0047760Y0046350D01*
X0048020Y0046290D01*
X0048270Y0046190D01*
X0048500Y0046060D01*
X0048700Y0045900D01*
X0048880Y0045700D01*
X0049030Y0045480D01*
X0049150Y0045250D01*
X0049230Y0044990D01*
X0049270Y0044730D01*
X0049270Y0044470D01*
X0049230Y0044210D01*
X0049150Y0043950D01*
X0049030Y0043710D01*
X0048880Y0043500D01*
X0048700Y0043300D01*
X0048500Y0043140D01*
X0048270Y0043010D01*
X0048020Y0042910D01*
X0047760Y0042850D01*
X0047500Y0042830D01*
X0025360Y0024030D02*
X0025090Y0024050D01*
X0024820Y0024110D01*
X0024560Y0024200D01*
X0024320Y0024330D01*
X0024090Y0024490D01*
X0023900Y0024680D01*
X0023730Y0024900D01*
X0023590Y0025140D01*
X0023490Y0025390D01*
X0023420Y0025660D01*
X0023390Y0025930D01*
X0023400Y0026210D01*
X0023450Y0026480D01*
X0023530Y0026740D01*
X0023650Y0026980D01*
X0023810Y0027210D01*
X0023990Y0027420D01*
X0024200Y0027590D01*
X0024440Y0027740D01*
X0024690Y0027850D01*
X0024950Y0027930D01*
X0025220Y0027970D01*
X0025500Y0027970D01*
X0025770Y0027930D01*
X0026030Y0027850D01*
X0026280Y0027740D01*
X0026520Y0027590D01*
X0026730Y0027420D01*
X0026910Y0027210D01*
X0027070Y0026990D01*
X0027190Y0026740D01*
X0027270Y0026480D01*
X0027320Y0026210D01*
X0027330Y0025930D01*
X0027300Y0025660D01*
X0027230Y0025390D01*
X0027130Y0025140D01*
X0026990Y0024900D01*
X0026820Y0024680D01*
X0026630Y0024490D01*
X0026400Y0024330D01*
X0026160Y0024200D01*
X0025900Y0024110D01*
X0025630Y0024050D01*
X0025360Y0024030D01*
X0056660Y0231700D02*
X0056160Y0231720D01*
X0055660Y0231780D01*
X0055170Y0231880D01*
X0054690Y0232020D01*
X0054220Y0232190D01*
X0053770Y0232400D01*
X0053330Y0232650D01*
X0052920Y0232930D01*
X0052530Y0233250D01*
X0052160Y0233590D01*
X0051820Y0233960D01*
X0051520Y0234360D01*
X0051250Y0234780D01*
X0051010Y0235220D01*
X0050800Y0235680D01*
X0050640Y0236150D01*
X0050510Y0236630D01*
X0050420Y0237130D01*
X0050370Y0237620D01*
X0050360Y0238130D01*
X0050390Y0238630D01*
X0050460Y0239120D01*
X0050570Y0239610D01*
X0050720Y0240090D01*
X0050900Y0240550D01*
X0051120Y0241000D01*
X0051380Y0241430D01*
X0051670Y0241840D01*
X0051990Y0242230D01*
X0052340Y0242590D01*
X0052720Y0242910D01*
X0053120Y0243210D01*
X0053550Y0243480D01*
X0053990Y0243710D01*
X0054450Y0243900D01*
X0054930Y0244060D01*
X0055420Y0244180D01*
X0055910Y0244260D01*
X0056410Y0244300D01*
X0056910Y0244300D01*
X0057410Y0244260D01*
X0057900Y0244180D01*
X0058390Y0244060D01*
X0058870Y0243900D01*
X0059330Y0243710D01*
X0059770Y0243480D01*
X0060200Y0243210D01*
X0060600Y0242910D01*
X0060980Y0242590D01*
X0061330Y0242230D01*
X0061650Y0241840D01*
X0061940Y0241430D01*
X0062200Y0241000D01*
X0062420Y0240550D01*
X0062600Y0240090D01*
X0062750Y0239610D01*
X0062860Y0239120D01*
X0062930Y0238630D01*
X0062960Y0238130D01*
X0062950Y0237620D01*
X0062900Y0237130D01*
X0062810Y0236630D01*
X0062680Y0236150D01*
X0062520Y0235680D01*
X0062310Y0235220D01*
X0062070Y0234780D01*
X0061800Y0234360D01*
X0061500Y0233960D01*
X0061160Y0233590D01*
X0060790Y0233250D01*
X0060400Y0232930D01*
X0059990Y0232650D01*
X0059550Y0232400D01*
X0059100Y0232190D01*
X0058630Y0232020D01*
X0058150Y0231880D01*
X0057660Y0231780D01*
X0057160Y0231720D01*
X0056660Y0231700D01*
X0025360Y0274830D02*
X0025090Y0274850D01*
X0024820Y0274910D01*
X0024560Y0275000D01*
X0024320Y0275130D01*
X0024090Y0275290D01*
X0023900Y0275480D01*
X0023730Y0275700D01*
X0023590Y0275940D01*
X0023490Y0276190D01*
X0023420Y0276460D01*
X0023390Y0276730D01*
X0023400Y0277010D01*
X0023450Y0277280D01*
X0023530Y0277540D01*
X0023650Y0277780D01*
X0023810Y0278010D01*
X0023990Y0278220D01*
X0024200Y0278390D01*
X0024440Y0278540D01*
X0024690Y0278650D01*
X0024950Y0278730D01*
X0025220Y0278770D01*
X0025500Y0278770D01*
X0025770Y0278730D01*
X0026030Y0278650D01*
X0026280Y0278540D01*
X0026520Y0278390D01*
X0026730Y0278220D01*
X0026910Y0278010D01*
X0027070Y0277790D01*
X0027190Y0277540D01*
X0027270Y0277280D01*
X0027320Y0277010D01*
X0027330Y0276730D01*
X0027300Y0276460D01*
X0027230Y0276190D01*
X0027130Y0275940D01*
X0026990Y0275700D01*
X0026820Y0275480D01*
X0026630Y0275290D01*
X0026400Y0275130D01*
X0026160Y0275000D01*
X0025900Y0274910D01*
X0025630Y0274850D01*
X0025360Y0274830D01*
X0101660Y0231700D02*
X0101160Y0231720D01*
X0100660Y0231780D01*
X0100170Y0231880D01*
X0099690Y0232020D01*
X0099220Y0232190D01*
X0098770Y0232400D01*
X0098330Y0232650D01*
X0097920Y0232930D01*
X0097530Y0233250D01*
X0097160Y0233590D01*
X0096820Y0233960D01*
X0096520Y0234360D01*
X0096250Y0234780D01*
X0096010Y0235220D01*
X0095800Y0235680D01*
X0095640Y0236150D01*
X0095510Y0236630D01*
X0095420Y0237130D01*
X0095370Y0237620D01*
X0095360Y0238130D01*
X0095390Y0238630D01*
X0095460Y0239120D01*
X0095570Y0239610D01*
X0095720Y0240090D01*
X0095900Y0240550D01*
X0096120Y0241000D01*
X0096380Y0241430D01*
X0096670Y0241840D01*
X0096990Y0242230D01*
X0097340Y0242590D01*
X0097720Y0242910D01*
X0098120Y0243210D01*
X0098550Y0243480D01*
X0098990Y0243710D01*
X0099450Y0243900D01*
X0099930Y0244060D01*
X0100420Y0244180D01*
X0100910Y0244260D01*
X0101410Y0244300D01*
X0101910Y0244300D01*
X0102410Y0244260D01*
X0102900Y0244180D01*
X0103390Y0244060D01*
X0103870Y0243900D01*
X0104330Y0243710D01*
X0104770Y0243480D01*
X0105200Y0243210D01*
X0105600Y0242910D01*
X0105980Y0242590D01*
X0106330Y0242230D01*
X0106650Y0241840D01*
X0106940Y0241430D01*
X0107200Y0241000D01*
X0107420Y0240550D01*
X0107600Y0240090D01*
X0107750Y0239610D01*
X0107860Y0239120D01*
X0107930Y0238630D01*
X0107960Y0238130D01*
X0107950Y0237620D01*
X0107900Y0237130D01*
X0107810Y0236630D01*
X0107680Y0236150D01*
X0107520Y0235680D01*
X0107310Y0235220D01*
X0107070Y0234780D01*
X0106800Y0234360D01*
X0106500Y0233960D01*
X0106160Y0233590D01*
X0105790Y0233250D01*
X0105400Y0232930D01*
X0104990Y0232650D01*
X0104550Y0232400D01*
X0104100Y0232190D01*
X0103630Y0232020D01*
X0103150Y0231880D01*
X0102660Y0231780D01*
X0102160Y0231720D01*
X0101660Y0231700D01*
X0123760Y0274830D02*
X0123490Y0274850D01*
X0123220Y0274910D01*
X0122960Y0275000D01*
X0122720Y0275130D01*
X0122490Y0275290D01*
X0122300Y0275480D01*
X0122130Y0275700D01*
X0121990Y0275940D01*
X0121890Y0276190D01*
X0121820Y0276460D01*
X0121790Y0276730D01*
X0121800Y0277010D01*
X0121850Y0277280D01*
X0121930Y0277540D01*
X0122050Y0277780D01*
X0122210Y0278010D01*
X0122390Y0278220D01*
X0122600Y0278390D01*
X0122840Y0278540D01*
X0123090Y0278650D01*
X0123350Y0278730D01*
X0123620Y0278770D01*
X0123900Y0278770D01*
X0124170Y0278730D01*
X0124430Y0278650D01*
X0124680Y0278540D01*
X0124920Y0278390D01*
X0125130Y0278220D01*
X0125310Y0278010D01*
X0125470Y0277790D01*
X0125590Y0277540D01*
X0125670Y0277280D01*
X0125720Y0277010D01*
X0125730Y0276730D01*
X0125700Y0276460D01*
X0125630Y0276190D01*
X0125530Y0275940D01*
X0125390Y0275700D01*
X0125220Y0275480D01*
X0125030Y0275290D01*
X0124800Y0275130D01*
X0124560Y0275000D01*
X0124300Y0274910D01*
X0124030Y0274850D01*
X0123760Y0274830D01*
D1307*
X0080200Y0124000D03*
X0077640Y0124000D03*
X0075080Y0124000D03*
X0072520Y0124000D03*
X0069960Y0124000D03*
X0067400Y0124000D03*
X0064840Y0124000D03*
X0062280Y0124000D03*
X0059720Y0124000D03*
X0057160Y0124000D03*
X0054610Y0124000D03*
X0052050Y0124000D03*
X0049490Y0124000D03*
X0046930Y0124000D03*
X0046930Y0095210D03*
X0049490Y0095210D03*
X0052050Y0095210D03*
X0054610Y0095210D03*
X0057160Y0095210D03*
X0059720Y0095210D03*
X0062280Y0095210D03*
X0064840Y0095210D03*
X0067400Y0095210D03*
X0069960Y0095210D03*
X0072520Y0095210D03*
X0075080Y0095210D03*
X0077640Y0095210D03*
X0080200Y0095210D03*
D1308*
X0062460Y0054440D03*
X0059310Y0054440D03*
X0056160Y0054440D03*
X0053010Y0054440D03*
X0049860Y0054440D03*
D1309*
X0038450Y0054440D03*
X0038450Y0032790D03*
X0073880Y0032790D03*
X0073880Y0054440D03*
D12*
X0039070Y0089600D03*
X0028050Y0089600D03*
D291*
X0028560Y0104090D03*
X0028560Y0115110D03*
X0046960Y0137090D03*
X0046960Y0148110D03*
X0093560Y0145110D03*
X0093560Y0134090D03*
X0103560Y0135110D03*
X0103560Y0124090D03*
X0093560Y0159090D03*
X0093560Y0170110D03*
X0108560Y0175110D03*
X0108560Y0164090D03*
D1306*
X0039070Y0074600D03*
X0028050Y0074600D03*
D390*
X0038560Y0102710D03*
X0038560Y0116490D03*
X0095560Y0116490D03*
X0095560Y0102710D03*
D173*
X0091660Y0203000D03*
X0086660Y0213000D03*
X0081660Y0203000D03*
X0076660Y0213000D03*
X0071660Y0203000D03*
X0066660Y0213000D03*
X0061660Y0203000D03*
X0040760Y0179600D03*
X0040760Y0169600D03*
X0033360Y0140000D03*
X0033360Y0130000D03*
D230*
X0056460Y0154600D03*
X0056460Y0159600D03*
X0056460Y0164600D03*
X0056460Y0169600D03*
X0056460Y0174600D03*
X0056460Y0179600D03*
X0056460Y0184600D03*
X0080660Y0184600D03*
X0080660Y0179600D03*
X0080660Y0174600D03*
X0080660Y0169600D03*
X0080660Y0164600D03*
X0080660Y0159600D03*
X0080660Y0154600D03*
D320*
X0096660Y0213000D03*
D346*
X0098760Y0074940D03*
X0098760Y0051320D03*
X0117270Y0063130D03*
D35*
X0095560Y0102710D02*
X0088960Y0100400D01*
X0072160Y0100400D01*
X0064960Y0108800D01*
X0064960Y0113600D01*
X0062560Y0117200D01*
X0062280Y0124000D01*
X0059720Y0124000D02*
X0059720Y0119160D01*
X0057760Y0117200D01*
X0038560Y0117200D01*
X0038560Y0116490D01*
X0033360Y0110400D02*
X0034960Y0108800D01*
X0051760Y0108800D01*
X0054610Y0105960D01*
X0054610Y0095210D01*
X0057160Y0095210D02*
X0057160Y0102200D01*
X0058960Y0105200D01*
X0062280Y0105200D02*
X0062560Y0102800D01*
X0062280Y0095210D01*
X0062560Y0095210D01*
X0062560Y0088600D01*
X0062460Y0081400D01*
X0062460Y0074600D01*
X0066560Y0074600D01*
X0062460Y0074600D02*
X0062460Y0054440D01*
X0059160Y0063800D02*
X0059160Y0068000D01*
X0059160Y0063800D02*
X0056160Y0062600D01*
X0056160Y0054440D01*
X0053010Y0054440D02*
X0053010Y0067800D01*
X0053160Y0067800D01*
X0049860Y0062700D02*
X0046960Y0064400D01*
X0031360Y0064400D01*
X0028960Y0066800D01*
X0028960Y0073690D01*
X0028050Y0074600D01*
X0028050Y0089600D01*
X0028050Y0095600D01*
X0022760Y0095600D01*
X0022760Y0115110D01*
X0028560Y0115110D01*
X0028560Y0120800D01*
X0026560Y0123200D01*
X0026560Y0153200D01*
X0028560Y0154600D01*
X0048560Y0154600D01*
X0046960Y0149600D02*
X0046960Y0148110D01*
X0046960Y0149600D02*
X0054160Y0149600D01*
X0054160Y0128000D01*
X0055360Y0129200D01*
X0063760Y0129200D01*
X0064840Y0128120D01*
X0064840Y0124000D01*
X0064840Y0118520D01*
X0064960Y0118400D01*
X0067360Y0118400D01*
X0068560Y0117200D01*
X0068560Y0112400D01*
X0070960Y0113600D01*
X0072160Y0114800D01*
X0072160Y0123640D01*
X0072520Y0124000D01*
X0075080Y0124000D02*
X0075080Y0129890D01*
X0073360Y0131600D01*
X0078160Y0136400D02*
X0075760Y0138800D01*
X0068600Y0138800D01*
X0067400Y0140000D01*
X0067400Y0124000D01*
X0060160Y0112400D02*
X0062280Y0108520D01*
X0062280Y0105200D01*
X0054610Y0124000D02*
X0054160Y0124000D01*
X0052050Y0124000D01*
X0054160Y0124000D02*
X0054160Y0128000D01*
X0046960Y0130400D02*
X0046960Y0137090D01*
X0039760Y0137090D01*
X0039760Y0143600D01*
X0034560Y0143600D01*
X0033360Y0140000D01*
X0033360Y0130000D02*
X0033360Y0110400D01*
X0046960Y0089600D02*
X0045760Y0088400D01*
X0046960Y0089600D02*
X0046960Y0095170D01*
X0046930Y0095210D01*
X0049860Y0062700D02*
X0049860Y0054440D01*
X0076360Y0112200D02*
X0076560Y0117000D01*
X0077560Y0117000D01*
X0077560Y0120400D01*
X0077640Y0124000D01*
X0080200Y0124000D02*
X0080560Y0124000D01*
X0080560Y0105600D01*
X0082960Y0128000D02*
X0079360Y0129200D01*
X0078160Y0130400D01*
X0078160Y0136400D01*
X0082960Y0128000D02*
X0087760Y0132800D01*
X0087760Y0143600D01*
X0089270Y0145110D01*
X0093560Y0145110D01*
X0093870Y0144800D01*
X0103360Y0144800D01*
X0103560Y0144600D01*
X0103560Y0135110D01*
X0093760Y0126800D02*
X0095560Y0125000D01*
X0095560Y0116490D01*
X0093760Y0126800D02*
X0093760Y0133890D01*
X0093560Y0134090D01*
X0084160Y0147200D02*
X0087760Y0150800D01*
X0087760Y0156800D01*
X0085360Y0159200D01*
X0081060Y0159200D01*
X0080660Y0159600D01*
X0084160Y0147200D02*
X0084160Y0135200D01*
X0067400Y0140000D02*
X0067400Y0146000D01*
X0060160Y0146000D01*
X0057760Y0148400D01*
X0057760Y0153300D01*
X0056460Y0154600D01*
X0057760Y0154600D01*
X0071160Y0174600D02*
X0070960Y0174800D01*
X0071160Y0174600D02*
X0080660Y0174600D01*
D436*
X0070960Y0174800D03*
X0084160Y0135200D03*
X0076360Y0112200D03*
X0080560Y0105600D03*
X0068560Y0112400D03*
X0073360Y0131600D03*
X0060160Y0112400D03*
X0058960Y0105200D03*
X0046960Y0130400D03*
X0045760Y0088400D03*
X0053160Y0067800D03*
X0059160Y0068000D03*
D498*
X0062460Y0074600D02*
X0039070Y0074600D01*
X0038560Y0074600D01*
X0038560Y0089600D01*
X0039070Y0089600D01*
X0038560Y0102710D02*
X0038560Y0104600D01*
X0028560Y0104600D01*
X0028560Y0104090D01*
X0048560Y0154600D02*
X0056460Y0154600D01*
X0048560Y0154600D02*
X0040760Y0169600D01*
X0040760Y0179600D02*
X0048560Y0179600D01*
X0053560Y0184600D01*
X0056460Y0184600D01*
X0056460Y0179600D02*
X0058560Y0180000D01*
X0063560Y0180000D01*
X0063560Y0195000D01*
X0058560Y0195000D01*
X0053560Y0200000D01*
X0053560Y0225000D01*
X0083560Y0225000D01*
X0093560Y0215000D01*
X0096660Y0213000D01*
X0086660Y0213000D02*
X0083560Y0215000D01*
X0078560Y0220000D01*
X0073560Y0220000D01*
X0068560Y0215000D01*
X0066660Y0213000D01*
X0066160Y0207600D01*
X0063560Y0205000D01*
X0061660Y0203000D01*
X0063560Y0200000D01*
X0078560Y0185000D01*
X0080660Y0184600D01*
X0078560Y0185000D02*
X0078560Y0180000D01*
X0080660Y0179600D01*
X0083560Y0180000D01*
X0103560Y0180000D01*
X0108560Y0175000D01*
X0108560Y0175110D01*
X0108560Y0175000D02*
X0113560Y0170000D01*
X0113560Y0125000D01*
X0103560Y0125000D01*
X0103560Y0124090D01*
X0103360Y0092000D01*
X0098760Y0092000D01*
X0098760Y0074940D01*
X0098760Y0074600D01*
X0066560Y0074600D01*
X0093560Y0145000D02*
X0093560Y0145110D01*
X0093560Y0159090D01*
X0093560Y0160000D01*
X0093560Y0169600D02*
X0080660Y0169600D01*
X0080660Y0164600D02*
X0108560Y0164600D01*
X0108560Y0164090D01*
X0093560Y0169600D02*
X0093560Y0170110D01*
X0081660Y0203000D02*
X0078560Y0205000D01*
X0078560Y0210000D01*
X0076660Y0213000D01*
X0056460Y0174600D02*
X0053560Y0175000D01*
X0048560Y0175000D01*
D527*
X0048560Y0175000D03*
X0135060Y0020000D02*
G75*
%LPD*%
D485*
X0243620Y0020000D02*
X0135060Y0020000D01*
X0135060Y0281700D01*
X0243620Y0281700D01*
X0243620Y0020000D01*
X0238820Y0022830D02*
X0238550Y0022850D01*
X0238280Y0022910D01*
X0238020Y0023000D01*
X0237780Y0023130D01*
X0237550Y0023290D01*
X0237360Y0023480D01*
X0237190Y0023700D01*
X0237050Y0023940D01*
X0236950Y0024190D01*
X0236880Y0024460D01*
X0236850Y0024730D01*
X0236860Y0025010D01*
X0236910Y0025280D01*
X0236990Y0025540D01*
X0237110Y0025780D01*
X0237270Y0026010D01*
X0237450Y0026220D01*
X0237660Y0026390D01*
X0237900Y0026540D01*
X0238150Y0026650D01*
X0238410Y0026730D01*
X0238680Y0026770D01*
X0238960Y0026770D01*
X0239230Y0026730D01*
X0239490Y0026650D01*
X0239740Y0026540D01*
X0239980Y0026390D01*
X0240190Y0026220D01*
X0240370Y0026010D01*
X0240530Y0025790D01*
X0240650Y0025540D01*
X0240730Y0025280D01*
X0240780Y0025010D01*
X0240790Y0024730D01*
X0240760Y0024460D01*
X0240690Y0024190D01*
X0240590Y0023940D01*
X0240450Y0023700D01*
X0240280Y0023480D01*
X0240090Y0023290D01*
X0239860Y0023130D01*
X0239620Y0023000D01*
X0239360Y0022910D01*
X0239090Y0022850D01*
X0238820Y0022830D01*
X0179880Y0042830D02*
X0179620Y0042850D01*
X0179360Y0042910D01*
X0179110Y0043010D01*
X0178880Y0043140D01*
X0178680Y0043300D01*
X0178500Y0043500D01*
X0178350Y0043720D01*
X0178230Y0043950D01*
X0178150Y0044210D01*
X0178110Y0044470D01*
X0178110Y0044730D01*
X0178150Y0044990D01*
X0178230Y0045250D01*
X0178350Y0045490D01*
X0178500Y0045700D01*
X0178680Y0045900D01*
X0178880Y0046060D01*
X0179110Y0046190D01*
X0179360Y0046290D01*
X0179620Y0046350D01*
X0179880Y0046370D01*
X0180140Y0046350D01*
X0180400Y0046290D01*
X0180650Y0046190D01*
X0180880Y0046060D01*
X0181080Y0045900D01*
X0181260Y0045700D01*
X0181410Y0045480D01*
X0181530Y0045250D01*
X0181610Y0044990D01*
X0181650Y0044730D01*
X0181650Y0044470D01*
X0181610Y0044210D01*
X0181530Y0043950D01*
X0181410Y0043710D01*
X0181260Y0043500D01*
X0181080Y0043300D01*
X0180880Y0043140D01*
X0180650Y0043010D01*
X0180400Y0042910D01*
X0180140Y0042850D01*
X0179880Y0042830D01*
X0162560Y0042830D02*
X0162300Y0042850D01*
X0162040Y0042910D01*
X0161790Y0043010D01*
X0161560Y0043140D01*
X0161360Y0043300D01*
X0161180Y0043500D01*
X0161030Y0043720D01*
X0160910Y0043950D01*
X0160830Y0044210D01*
X0160790Y0044470D01*
X0160790Y0044730D01*
X0160830Y0044990D01*
X0160910Y0045250D01*
X0161030Y0045490D01*
X0161180Y0045700D01*
X0161360Y0045900D01*
X0161560Y0046060D01*
X0161790Y0046190D01*
X0162040Y0046290D01*
X0162300Y0046350D01*
X0162560Y0046370D01*
X0162820Y0046350D01*
X0163080Y0046290D01*
X0163330Y0046190D01*
X0163560Y0046060D01*
X0163760Y0045900D01*
X0163940Y0045700D01*
X0164090Y0045480D01*
X0164210Y0045250D01*
X0164290Y0044990D01*
X0164330Y0044730D01*
X0164330Y0044470D01*
X0164290Y0044210D01*
X0164210Y0043950D01*
X0164090Y0043710D01*
X0163940Y0043500D01*
X0163760Y0043300D01*
X0163560Y0043140D01*
X0163330Y0043010D01*
X0163080Y0042910D01*
X0162820Y0042850D01*
X0162560Y0042830D01*
X0140420Y0024030D02*
X0140150Y0024050D01*
X0139880Y0024110D01*
X0139620Y0024200D01*
X0139380Y0024330D01*
X0139150Y0024490D01*
X0138960Y0024680D01*
X0138790Y0024900D01*
X0138650Y0025140D01*
X0138550Y0025390D01*
X0138480Y0025660D01*
X0138450Y0025930D01*
X0138460Y0026210D01*
X0138510Y0026480D01*
X0138590Y0026740D01*
X0138710Y0026980D01*
X0138870Y0027210D01*
X0139050Y0027420D01*
X0139260Y0027590D01*
X0139500Y0027740D01*
X0139750Y0027850D01*
X0140010Y0027930D01*
X0140280Y0027970D01*
X0140560Y0027970D01*
X0140830Y0027930D01*
X0141090Y0027850D01*
X0141340Y0027740D01*
X0141580Y0027590D01*
X0141790Y0027420D01*
X0141970Y0027210D01*
X0142130Y0026990D01*
X0142250Y0026740D01*
X0142330Y0026480D01*
X0142380Y0026210D01*
X0142390Y0025930D01*
X0142360Y0025660D01*
X0142290Y0025390D01*
X0142190Y0025140D01*
X0142050Y0024900D01*
X0141880Y0024680D01*
X0141690Y0024490D01*
X0141460Y0024330D01*
X0141220Y0024200D01*
X0140960Y0024110D01*
X0140690Y0024050D01*
X0140420Y0024030D01*
X0171720Y0231700D02*
X0171220Y0231720D01*
X0170720Y0231780D01*
X0170230Y0231880D01*
X0169750Y0232020D01*
X0169280Y0232190D01*
X0168830Y0232400D01*
X0168390Y0232650D01*
X0167980Y0232930D01*
X0167590Y0233250D01*
X0167220Y0233590D01*
X0166880Y0233960D01*
X0166580Y0234360D01*
X0166310Y0234780D01*
X0166070Y0235220D01*
X0165860Y0235680D01*
X0165700Y0236150D01*
X0165570Y0236630D01*
X0165480Y0237130D01*
X0165430Y0237620D01*
X0165420Y0238130D01*
X0165450Y0238630D01*
X0165520Y0239120D01*
X0165630Y0239610D01*
X0165780Y0240090D01*
X0165960Y0240550D01*
X0166180Y0241000D01*
X0166440Y0241430D01*
X0166730Y0241840D01*
X0167050Y0242230D01*
X0167400Y0242590D01*
X0167780Y0242910D01*
X0168180Y0243210D01*
X0168610Y0243480D01*
X0169050Y0243710D01*
X0169510Y0243900D01*
X0169990Y0244060D01*
X0170480Y0244180D01*
X0170970Y0244260D01*
X0171470Y0244300D01*
X0171970Y0244300D01*
X0172470Y0244260D01*
X0172960Y0244180D01*
X0173450Y0244060D01*
X0173930Y0243900D01*
X0174390Y0243710D01*
X0174830Y0243480D01*
X0175260Y0243210D01*
X0175660Y0242910D01*
X0176040Y0242590D01*
X0176390Y0242230D01*
X0176710Y0241840D01*
X0177000Y0241430D01*
X0177260Y0241000D01*
X0177480Y0240550D01*
X0177660Y0240090D01*
X0177810Y0239610D01*
X0177920Y0239120D01*
X0177990Y0238630D01*
X0178020Y0238130D01*
X0178010Y0237620D01*
X0177960Y0237130D01*
X0177870Y0236630D01*
X0177740Y0236150D01*
X0177580Y0235680D01*
X0177370Y0235220D01*
X0177130Y0234780D01*
X0176860Y0234360D01*
X0176560Y0233960D01*
X0176220Y0233590D01*
X0175850Y0233250D01*
X0175460Y0232930D01*
X0175050Y0232650D01*
X0174610Y0232400D01*
X0174160Y0232190D01*
X0173690Y0232020D01*
X0173210Y0231880D01*
X0172720Y0231780D01*
X0172220Y0231720D01*
X0171720Y0231700D01*
X0140420Y0274830D02*
X0140150Y0274850D01*
X0139880Y0274910D01*
X0139620Y0275000D01*
X0139380Y0275130D01*
X0139150Y0275290D01*
X0138960Y0275480D01*
X0138790Y0275700D01*
X0138650Y0275940D01*
X0138550Y0276190D01*
X0138480Y0276460D01*
X0138450Y0276730D01*
X0138460Y0277010D01*
X0138510Y0277280D01*
X0138590Y0277540D01*
X0138710Y0277780D01*
X0138870Y0278010D01*
X0139050Y0278220D01*
X0139260Y0278390D01*
X0139500Y0278540D01*
X0139750Y0278650D01*
X0140010Y0278730D01*
X0140280Y0278770D01*
X0140560Y0278770D01*
X0140830Y0278730D01*
X0141090Y0278650D01*
X0141340Y0278540D01*
X0141580Y0278390D01*
X0141790Y0278220D01*
X0141970Y0278010D01*
X0142130Y0277790D01*
X0142250Y0277540D01*
X0142330Y0277280D01*
X0142380Y0277010D01*
X0142390Y0276730D01*
X0142360Y0276460D01*
X0142290Y0276190D01*
X0142190Y0275940D01*
X0142050Y0275700D01*
X0141880Y0275480D01*
X0141690Y0275290D01*
X0141460Y0275130D01*
X0141220Y0275000D01*
X0140960Y0274910D01*
X0140690Y0274850D01*
X0140420Y0274830D01*
X0216720Y0231700D02*
X0216220Y0231720D01*
X0215720Y0231780D01*
X0215230Y0231880D01*
X0214750Y0232020D01*
X0214280Y0232190D01*
X0213830Y0232400D01*
X0213390Y0232650D01*
X0212980Y0232930D01*
X0212590Y0233250D01*
X0212220Y0233590D01*
X0211880Y0233960D01*
X0211580Y0234360D01*
X0211310Y0234780D01*
X0211070Y0235220D01*
X0210860Y0235680D01*
X0210700Y0236150D01*
X0210570Y0236630D01*
X0210480Y0237130D01*
X0210430Y0237620D01*
X0210420Y0238130D01*
X0210450Y0238630D01*
X0210520Y0239120D01*
X0210630Y0239610D01*
X0210780Y0240090D01*
X0210960Y0240550D01*
X0211180Y0241000D01*
X0211440Y0241430D01*
X0211730Y0241840D01*
X0212050Y0242230D01*
X0212400Y0242590D01*
X0212780Y0242910D01*
X0213180Y0243210D01*
X0213610Y0243480D01*
X0214050Y0243710D01*
X0214510Y0243900D01*
X0214990Y0244060D01*
X0215480Y0244180D01*
X0215970Y0244260D01*
X0216470Y0244300D01*
X0216970Y0244300D01*
X0217470Y0244260D01*
X0217960Y0244180D01*
X0218450Y0244060D01*
X0218930Y0243900D01*
X0219390Y0243710D01*
X0219830Y0243480D01*
X0220260Y0243210D01*
X0220660Y0242910D01*
X0221040Y0242590D01*
X0221390Y0242230D01*
X0221710Y0241840D01*
X0222000Y0241430D01*
X0222260Y0241000D01*
X0222480Y0240550D01*
X0222660Y0240090D01*
X0222810Y0239610D01*
X0222920Y0239120D01*
X0222990Y0238630D01*
X0223020Y0238130D01*
X0223010Y0237620D01*
X0222960Y0237130D01*
X0222870Y0236630D01*
X0222740Y0236150D01*
X0222580Y0235680D01*
X0222370Y0235220D01*
X0222130Y0234780D01*
X0221860Y0234360D01*
X0221560Y0233960D01*
X0221220Y0233590D01*
X0220850Y0233250D01*
X0220460Y0232930D01*
X0220050Y0232650D01*
X0219610Y0232400D01*
X0219160Y0232190D01*
X0218690Y0232020D01*
X0218210Y0231880D01*
X0217720Y0231780D01*
X0217220Y0231720D01*
X0216720Y0231700D01*
X0238820Y0274830D02*
X0238550Y0274850D01*
X0238280Y0274910D01*
X0238020Y0275000D01*
X0237780Y0275130D01*
X0237550Y0275290D01*
X0237360Y0275480D01*
X0237190Y0275700D01*
X0237050Y0275940D01*
X0236950Y0276190D01*
X0236880Y0276460D01*
X0236850Y0276730D01*
X0236860Y0277010D01*
X0236910Y0277280D01*
X0236990Y0277540D01*
X0237110Y0277780D01*
X0237270Y0278010D01*
X0237450Y0278220D01*
X0237660Y0278390D01*
X0237900Y0278540D01*
X0238150Y0278650D01*
X0238410Y0278730D01*
X0238680Y0278770D01*
X0238960Y0278770D01*
X0239230Y0278730D01*
X0239490Y0278650D01*
X0239740Y0278540D01*
X0239980Y0278390D01*
X0240190Y0278220D01*
X0240370Y0278010D01*
X0240530Y0277790D01*
X0240650Y0277540D01*
X0240730Y0277280D01*
X0240780Y0277010D01*
X0240790Y0276730D01*
X0240760Y0276460D01*
X0240690Y0276190D01*
X0240590Y0275940D01*
X0240450Y0275700D01*
X0240280Y0275480D01*
X0240090Y0275290D01*
X0239860Y0275130D01*
X0239620Y0275000D01*
X0239360Y0274910D01*
X0239090Y0274850D01*
X0238820Y0274830D01*
D1307*
X0195260Y0124000D03*
X0192700Y0124000D03*
X0190140Y0124000D03*
X0187580Y0124000D03*
X0185020Y0124000D03*
X0182460Y0124000D03*
X0179900Y0124000D03*
X0177340Y0124000D03*
X0174780Y0124000D03*
X0172220Y0124000D03*
X0169670Y0124000D03*
X0167110Y0124000D03*
X0164550Y0124000D03*
X0161990Y0124000D03*
X0161990Y0095210D03*
X0164550Y0095210D03*
X0167110Y0095210D03*
X0169670Y0095210D03*
X0172220Y0095210D03*
X0174780Y0095210D03*
X0177340Y0095210D03*
X0179900Y0095210D03*
X0182460Y0095210D03*
X0185020Y0095210D03*
X0187580Y0095210D03*
X0190140Y0095210D03*
X0192700Y0095210D03*
X0195260Y0095210D03*
D1308*
X0177520Y0054440D03*
X0174370Y0054440D03*
X0171220Y0054440D03*
X0168070Y0054440D03*
X0164920Y0054440D03*
D1309*
X0153510Y0054440D03*
X0153510Y0032790D03*
X0188940Y0032790D03*
X0188940Y0054440D03*
D12*
X0154130Y0089600D03*
X0143110Y0089600D03*
D291*
X0143620Y0104090D03*
X0143620Y0115110D03*
X0162020Y0137090D03*
X0162020Y0148110D03*
X0208620Y0145110D03*
X0208620Y0134090D03*
X0218620Y0135110D03*
X0218620Y0124090D03*
X0208620Y0159090D03*
X0208620Y0170110D03*
X0223620Y0175110D03*
X0223620Y0164090D03*
D1306*
X0154130Y0074600D03*
X0143110Y0074600D03*
D390*
X0153620Y0102710D03*
X0153620Y0116490D03*
X0210620Y0116490D03*
X0210620Y0102710D03*
D173*
X0206720Y0203000D03*
X0201720Y0213000D03*
X0196720Y0203000D03*
X0191720Y0213000D03*
X0186720Y0203000D03*
X0181720Y0213000D03*
X0176720Y0203000D03*
X0155820Y0179600D03*
X0155820Y0169600D03*
X0148420Y0140000D03*
X0148420Y0130000D03*
D230*
X0171520Y0154600D03*
X0171520Y0159600D03*
X0171520Y0164600D03*
X0171520Y0169600D03*
X0171520Y0174600D03*
X0171520Y0179600D03*
X0171520Y0184600D03*
X0195720Y0184600D03*
X0195720Y0179600D03*
X0195720Y0174600D03*
X0195720Y0169600D03*
X0195720Y0164600D03*
X0195720Y0159600D03*
X0195720Y0154600D03*
D320*
X0211720Y0213000D03*
D346*
X0213820Y0074940D03*
X0213820Y0051320D03*
X0232330Y0063130D03*
D35*
X0210620Y0102710D02*
X0204020Y0100400D01*
X0187220Y0100400D01*
X0180020Y0108800D01*
X0180020Y0113600D01*
X0177620Y0117200D01*
X0177340Y0124000D01*
X0174780Y0124000D02*
X0174780Y0119160D01*
X0172820Y0117200D01*
X0153620Y0117200D01*
X0153620Y0116490D01*
X0148420Y0110400D02*
X0150020Y0108800D01*
X0166820Y0108800D01*
X0169670Y0105960D01*
X0169670Y0095210D01*
X0172220Y0095210D02*
X0172220Y0102200D01*
X0174020Y0105200D01*
X0177340Y0105200D02*
X0177620Y0102800D01*
X0177340Y0095210D01*
X0177620Y0095210D01*
X0177620Y0088600D01*
X0177520Y0081400D01*
X0177520Y0074600D01*
X0181620Y0074600D01*
X0177520Y0074600D02*
X0177520Y0054440D01*
X0174220Y0063800D02*
X0174220Y0068000D01*
X0174220Y0063800D02*
X0171220Y0062600D01*
X0171220Y0054440D01*
X0168070Y0054440D02*
X0168070Y0067800D01*
X0168220Y0067800D01*
X0164920Y0062700D02*
X0162020Y0064400D01*
X0146420Y0064400D01*
X0144020Y0066800D01*
X0144020Y0073690D01*
X0143110Y0074600D01*
X0143110Y0089600D01*
X0143110Y0095600D01*
X0137820Y0095600D01*
X0137820Y0115110D01*
X0143620Y0115110D01*
X0143620Y0120800D01*
X0141620Y0123200D01*
X0141620Y0153200D01*
X0143620Y0154600D01*
X0163620Y0154600D01*
X0162020Y0149600D02*
X0162020Y0148110D01*
X0162020Y0149600D02*
X0169220Y0149600D01*
X0169220Y0128000D01*
X0170420Y0129200D01*
X0178820Y0129200D01*
X0179900Y0128120D01*
X0179900Y0124000D01*
X0179900Y0118520D01*
X0180020Y0118400D01*
X0182420Y0118400D01*
X0183620Y0117200D01*
X0183620Y0112400D01*
X0186020Y0113600D01*
X0187220Y0114800D01*
X0187220Y0123640D01*
X0187580Y0124000D01*
X0190140Y0124000D02*
X0190140Y0129890D01*
X0188420Y0131600D01*
X0193220Y0136400D02*
X0190820Y0138800D01*
X0183660Y0138800D01*
X0182460Y0140000D01*
X0182460Y0124000D01*
X0175220Y0112400D02*
X0177340Y0108520D01*
X0177340Y0105200D01*
X0169670Y0124000D02*
X0169220Y0124000D01*
X0167110Y0124000D01*
X0169220Y0124000D02*
X0169220Y0128000D01*
X0162020Y0130400D02*
X0162020Y0137090D01*
X0154820Y0137090D01*
X0154820Y0143600D01*
X0149620Y0143600D01*
X0148420Y0140000D01*
X0148420Y0130000D02*
X0148420Y0110400D01*
X0162020Y0089600D02*
X0160820Y0088400D01*
X0162020Y0089600D02*
X0162020Y0095170D01*
X0161990Y0095210D01*
X0164920Y0062700D02*
X0164920Y0054440D01*
X0191420Y0112200D02*
X0191620Y0117000D01*
X0192620Y0117000D01*
X0192620Y0120400D01*
X0192700Y0124000D01*
X0195260Y0124000D02*
X0195620Y0124000D01*
X0195620Y0105600D01*
X0198020Y0128000D02*
X0194420Y0129200D01*
X0193220Y0130400D01*
X0193220Y0136400D01*
X0198020Y0128000D02*
X0202820Y0132800D01*
X0202820Y0143600D01*
X0204330Y0145110D01*
X0208620Y0145110D01*
X0208930Y0144800D01*
X0218420Y0144800D01*
X0218620Y0144600D01*
X0218620Y0135110D01*
X0208820Y0126800D02*
X0210620Y0125000D01*
X0210620Y0116490D01*
X0208820Y0126800D02*
X0208820Y0133890D01*
X0208620Y0134090D01*
X0199220Y0147200D02*
X0202820Y0150800D01*
X0202820Y0156800D01*
X0200420Y0159200D01*
X0196120Y0159200D01*
X0195720Y0159600D01*
X0199220Y0147200D02*
X0199220Y0135200D01*
X0182460Y0140000D02*
X0182460Y0146000D01*
X0175220Y0146000D01*
X0172820Y0148400D01*
X0172820Y0153300D01*
X0171520Y0154600D01*
X0172820Y0154600D01*
X0186220Y0174600D02*
X0186020Y0174800D01*
X0186220Y0174600D02*
X0195720Y0174600D01*
D436*
X0186020Y0174800D03*
X0199220Y0135200D03*
X0191420Y0112200D03*
X0195620Y0105600D03*
X0183620Y0112400D03*
X0188420Y0131600D03*
X0175220Y0112400D03*
X0174020Y0105200D03*
X0162020Y0130400D03*
X0160820Y0088400D03*
X0168220Y0067800D03*
X0174220Y0068000D03*
D498*
X0177520Y0074600D02*
X0154130Y0074600D01*
X0153620Y0074600D01*
X0153620Y0089600D01*
X0154130Y0089600D01*
X0153620Y0102710D02*
X0153620Y0104600D01*
X0143620Y0104600D01*
X0143620Y0104090D01*
X0163620Y0154600D02*
X0171520Y0154600D01*
X0163620Y0154600D02*
X0155820Y0169600D01*
X0155820Y0179600D02*
X0163620Y0179600D01*
X0168620Y0184600D01*
X0171520Y0184600D01*
X0171520Y0179600D02*
X0173620Y0180000D01*
X0178620Y0180000D01*
X0178620Y0195000D01*
X0173620Y0195000D01*
X0168620Y0200000D01*
X0168620Y0225000D01*
X0198620Y0225000D01*
X0208620Y0215000D01*
X0211720Y0213000D01*
X0201720Y0213000D02*
X0198620Y0215000D01*
X0193620Y0220000D01*
X0188620Y0220000D01*
X0183620Y0215000D01*
X0181720Y0213000D01*
X0181220Y0207600D01*
X0178620Y0205000D01*
X0176720Y0203000D01*
X0178620Y0200000D01*
X0193620Y0185000D01*
X0195720Y0184600D01*
X0193620Y0185000D02*
X0193620Y0180000D01*
X0195720Y0179600D01*
X0198620Y0180000D01*
X0218620Y0180000D01*
X0223620Y0175000D01*
X0223620Y0175110D01*
X0223620Y0175000D02*
X0228620Y0170000D01*
X0228620Y0125000D01*
X0218620Y0125000D01*
X0218620Y0124090D01*
X0218420Y0092000D01*
X0213820Y0092000D01*
X0213820Y0074940D01*
X0213820Y0074600D01*
X0181620Y0074600D01*
X0208620Y0145000D02*
X0208620Y0145110D01*
X0208620Y0159090D01*
X0208620Y0160000D01*
X0208620Y0169600D02*
X0195720Y0169600D01*
X0195720Y0164600D02*
X0223620Y0164600D01*
X0223620Y0164090D01*
X0208620Y0169600D02*
X0208620Y0170110D01*
X0196720Y0203000D02*
X0193620Y0205000D01*
X0193620Y0210000D01*
X0191720Y0213000D01*
X0171520Y0174600D02*
X0168620Y0175000D01*
X0163620Y0175000D01*
D527*
X0163620Y0175000D03*
X0250120Y0020000D02*
G75*
%LPD*%
D485*
X0358680Y0020000D02*
X0250120Y0020000D01*
X0250120Y0281700D01*
X0358680Y0281700D01*
X0358680Y0020000D01*
X0353880Y0022830D02*
X0353610Y0022850D01*
X0353340Y0022910D01*
X0353080Y0023000D01*
X0352840Y0023130D01*
X0352610Y0023290D01*
X0352420Y0023480D01*
X0352250Y0023700D01*
X0352110Y0023940D01*
X0352010Y0024190D01*
X0351940Y0024460D01*
X0351910Y0024730D01*
X0351920Y0025010D01*
X0351970Y0025280D01*
X0352050Y0025540D01*
X0352170Y0025780D01*
X0352330Y0026010D01*
X0352510Y0026220D01*
X0352720Y0026390D01*
X0352960Y0026540D01*
X0353210Y0026650D01*
X0353470Y0026730D01*
X0353740Y0026770D01*
X0354020Y0026770D01*
X0354290Y0026730D01*
X0354550Y0026650D01*
X0354800Y0026540D01*
X0355040Y0026390D01*
X0355250Y0026220D01*
X0355430Y0026010D01*
X0355590Y0025790D01*
X0355710Y0025540D01*
X0355790Y0025280D01*
X0355840Y0025010D01*
X0355850Y0024730D01*
X0355820Y0024460D01*
X0355750Y0024190D01*
X0355650Y0023940D01*
X0355510Y0023700D01*
X0355340Y0023480D01*
X0355150Y0023290D01*
X0354920Y0023130D01*
X0354680Y0023000D01*
X0354420Y0022910D01*
X0354150Y0022850D01*
X0353880Y0022830D01*
X0294940Y0042830D02*
X0294680Y0042850D01*
X0294420Y0042910D01*
X0294170Y0043010D01*
X0293940Y0043140D01*
X0293740Y0043300D01*
X0293560Y0043500D01*
X0293410Y0043720D01*
X0293290Y0043950D01*
X0293210Y0044210D01*
X0293170Y0044470D01*
X0293170Y0044730D01*
X0293210Y0044990D01*
X0293290Y0045250D01*
X0293410Y0045490D01*
X0293560Y0045700D01*
X0293740Y0045900D01*
X0293940Y0046060D01*
X0294170Y0046190D01*
X0294420Y0046290D01*
X0294680Y0046350D01*
X0294940Y0046370D01*
X0295200Y0046350D01*
X0295460Y0046290D01*
X0295710Y0046190D01*
X0295940Y0046060D01*
X0296140Y0045900D01*
X0296320Y0045700D01*
X0296470Y0045480D01*
X0296590Y0045250D01*
X0296670Y0044990D01*
X0296710Y0044730D01*
X0296710Y0044470D01*
X0296670Y0044210D01*
X0296590Y0043950D01*
X0296470Y0043710D01*
X0296320Y0043500D01*
X0296140Y0043300D01*
X0295940Y0043140D01*
X0295710Y0043010D01*
X0295460Y0042910D01*
X0295200Y0042850D01*
X0294940Y0042830D01*
X0277620Y0042830D02*
X0277360Y0042850D01*
X0277100Y0042910D01*
X0276850Y0043010D01*
X0276620Y0043140D01*
X0276420Y0043300D01*
X0276240Y0043500D01*
X0276090Y0043720D01*
X0275970Y0043950D01*
X0275890Y0044210D01*
X0275850Y0044470D01*
X0275850Y0044730D01*
X0275890Y0044990D01*
X0275970Y0045250D01*
X0276090Y0045490D01*
X0276240Y0045700D01*
X0276420Y0045900D01*
X0276620Y0046060D01*
X0276850Y0046190D01*
X0277100Y0046290D01*
X0277360Y0046350D01*
X0277620Y0046370D01*
X0277880Y0046350D01*
X0278140Y0046290D01*
X0278390Y0046190D01*
X0278620Y0046060D01*
X0278820Y0045900D01*
X0279000Y0045700D01*
X0279150Y0045480D01*
X0279270Y0045250D01*
X0279350Y0044990D01*
X0279390Y0044730D01*
X0279390Y0044470D01*
X0279350Y0044210D01*
X0279270Y0043950D01*
X0279150Y0043710D01*
X0279000Y0043500D01*
X0278820Y0043300D01*
X0278620Y0043140D01*
X0278390Y0043010D01*
X0278140Y0042910D01*
X0277880Y0042850D01*
X0277620Y0042830D01*
X0255480Y0024030D02*
X0255210Y0024050D01*
X0254940Y0024110D01*
X0254680Y0024200D01*
X0254440Y0024330D01*
X0254210Y0024490D01*
X0254020Y0024680D01*
X0253850Y0024900D01*
X0253710Y0025140D01*
X0253610Y0025390D01*
X0253540Y0025660D01*
X0253510Y0025930D01*
X0253520Y0026210D01*
X0253570Y0026480D01*
X0253650Y0026740D01*
X0253770Y0026980D01*
X0253930Y0027210D01*
X0254110Y0027420D01*
X0254320Y0027590D01*
X0254560Y0027740D01*
X0254810Y0027850D01*
X0255070Y0027930D01*
X0255340Y0027970D01*
X0255620Y0027970D01*
X0255890Y0027930D01*
X0256150Y0027850D01*
X0256400Y0027740D01*
X0256640Y0027590D01*
X0256850Y0027420D01*
X0257030Y0027210D01*
X0257190Y0026990D01*
X0257310Y0026740D01*
X0257390Y0026480D01*
X0257440Y0026210D01*
X0257450Y0025930D01*
X0257420Y0025660D01*
X0257350Y0025390D01*
X0257250Y0025140D01*
X0257110Y0024900D01*
X0256940Y0024680D01*
X0256750Y0024490D01*
X0256520Y0024330D01*
X0256280Y0024200D01*
X0256020Y0024110D01*
X0255750Y0024050D01*
X0255480Y0024030D01*
X0286780Y0231700D02*
X0286280Y0231720D01*
X0285780Y0231780D01*
X0285290Y0231880D01*
X0284810Y0232020D01*
X0284340Y0232190D01*
X0283890Y0232400D01*
X0283450Y0232650D01*
X0283040Y0232930D01*
X0282650Y0233250D01*
X0282280Y0233590D01*
X0281940Y0233960D01*
X0281640Y0234360D01*
X0281370Y0234780D01*
X0281130Y0235220D01*
X0280920Y0235680D01*
X0280760Y0236150D01*
X0280630Y0236630D01*
X0280540Y0237130D01*
X0280490Y0237620D01*
X0280480Y0238130D01*
X0280510Y0238630D01*
X0280580Y0239120D01*
X0280690Y0239610D01*
X0280840Y0240090D01*
X0281020Y0240550D01*
X0281240Y0241000D01*
X0281500Y0241430D01*
X0281790Y0241840D01*
X0282110Y0242230D01*
X0282460Y0242590D01*
X0282840Y0242910D01*
X0283240Y0243210D01*
X0283670Y0243480D01*
X0284110Y0243710D01*
X0284570Y0243900D01*
X0285050Y0244060D01*
X0285540Y0244180D01*
X0286030Y0244260D01*
X0286530Y0244300D01*
X0287030Y0244300D01*
X0287530Y0244260D01*
X0288020Y0244180D01*
X0288510Y0244060D01*
X0288990Y0243900D01*
X0289450Y0243710D01*
X0289890Y0243480D01*
X0290320Y0243210D01*
X0290720Y0242910D01*
X0291100Y0242590D01*
X0291450Y0242230D01*
X0291770Y0241840D01*
X0292060Y0241430D01*
X0292320Y0241000D01*
X0292540Y0240550D01*
X0292720Y0240090D01*
X0292870Y0239610D01*
X0292980Y0239120D01*
X0293050Y0238630D01*
X0293080Y0238130D01*
X0293070Y0237620D01*
X0293020Y0237130D01*
X0292930Y0236630D01*
X0292800Y0236150D01*
X0292640Y0235680D01*
X0292430Y0235220D01*
X0292190Y0234780D01*
X0291920Y0234360D01*
X0291620Y0233960D01*
X0291280Y0233590D01*
X0290910Y0233250D01*
X0290520Y0232930D01*
X0290110Y0232650D01*
X0289670Y0232400D01*
X0289220Y0232190D01*
X0288750Y0232020D01*
X0288270Y0231880D01*
X0287780Y0231780D01*
X0287280Y0231720D01*
X0286780Y0231700D01*
X0255480Y0274830D02*
X0255210Y0274850D01*
X0254940Y0274910D01*
X0254680Y0275000D01*
X0254440Y0275130D01*
X0254210Y0275290D01*
X0254020Y0275480D01*
X0253850Y0275700D01*
X0253710Y0275940D01*
X0253610Y0276190D01*
X0253540Y0276460D01*
X0253510Y0276730D01*
X0253520Y0277010D01*
X0253570Y0277280D01*
X0253650Y0277540D01*
X0253770Y0277780D01*
X0253930Y0278010D01*
X0254110Y0278220D01*
X0254320Y0278390D01*
X0254560Y0278540D01*
X0254810Y0278650D01*
X0255070Y0278730D01*
X0255340Y0278770D01*
X0255620Y0278770D01*
X0255890Y0278730D01*
X0256150Y0278650D01*
X0256400Y0278540D01*
X0256640Y0278390D01*
X0256850Y0278220D01*
X0257030Y0278010D01*
X0257190Y0277790D01*
X0257310Y0277540D01*
X0257390Y0277280D01*
X0257440Y0277010D01*
X0257450Y0276730D01*
X0257420Y0276460D01*
X0257350Y0276190D01*
X0257250Y0275940D01*
X0257110Y0275700D01*
X0256940Y0275480D01*
X0256750Y0275290D01*
X0256520Y0275130D01*
X0256280Y0275000D01*
X0256020Y0274910D01*
X0255750Y0274850D01*
X0255480Y0274830D01*
X0331780Y0231700D02*
X0331280Y0231720D01*
X0330780Y0231780D01*
X0330290Y0231880D01*
X0329810Y0232020D01*
X0329340Y0232190D01*
X0328890Y0232400D01*
X0328450Y0232650D01*
X0328040Y0232930D01*
X0327650Y0233250D01*
X0327280Y0233590D01*
X0326940Y0233960D01*
X0326640Y0234360D01*
X0326370Y0234780D01*
X0326130Y0235220D01*
X0325920Y0235680D01*
X0325760Y0236150D01*
X0325630Y0236630D01*
X0325540Y0237130D01*
X0325490Y0237620D01*
X0325480Y0238130D01*
X0325510Y0238630D01*
X0325580Y0239120D01*
X0325690Y0239610D01*
X0325840Y0240090D01*
X0326020Y0240550D01*
X0326240Y0241000D01*
X0326500Y0241430D01*
X0326790Y0241840D01*
X0327110Y0242230D01*
X0327460Y0242590D01*
X0327840Y0242910D01*
X0328240Y0243210D01*
X0328670Y0243480D01*
X0329110Y0243710D01*
X0329570Y0243900D01*
X0330050Y0244060D01*
X0330540Y0244180D01*
X0331030Y0244260D01*
X0331530Y0244300D01*
X0332030Y0244300D01*
X0332530Y0244260D01*
X0333020Y0244180D01*
X0333510Y0244060D01*
X0333990Y0243900D01*
X0334450Y0243710D01*
X0334890Y0243480D01*
X0335320Y0243210D01*
X0335720Y0242910D01*
X0336100Y0242590D01*
X0336450Y0242230D01*
X0336770Y0241840D01*
X0337060Y0241430D01*
X0337320Y0241000D01*
X0337540Y0240550D01*
X0337720Y0240090D01*
X0337870Y0239610D01*
X0337980Y0239120D01*
X0338050Y0238630D01*
X0338080Y0238130D01*
X0338070Y0237620D01*
X0338020Y0237130D01*
X0337930Y0236630D01*
X0337800Y0236150D01*
X0337640Y0235680D01*
X0337430Y0235220D01*
X0337190Y0234780D01*
X0336920Y0234360D01*
X0336620Y0233960D01*
X0336280Y0233590D01*
X0335910Y0233250D01*
X0335520Y0232930D01*
X0335110Y0232650D01*
X0334670Y0232400D01*
X0334220Y0232190D01*
X0333750Y0232020D01*
X0333270Y0231880D01*
X0332780Y0231780D01*
X0332280Y0231720D01*
X0331780Y0231700D01*
X0353880Y0274830D02*
X0353610Y0274850D01*
X0353340Y0274910D01*
X0353080Y0275000D01*
X0352840Y0275130D01*
X0352610Y0275290D01*
X0352420Y0275480D01*
X0352250Y0275700D01*
X0352110Y0275940D01*
X0352010Y0276190D01*
X0351940Y0276460D01*
X0351910Y0276730D01*
X0351920Y0277010D01*
X0351970Y0277280D01*
X0352050Y0277540D01*
X0352170Y0277780D01*
X0352330Y0278010D01*
X0352510Y0278220D01*
X0352720Y0278390D01*
X0352960Y0278540D01*
X0353210Y0278650D01*
X0353470Y0278730D01*
X0353740Y0278770D01*
X0354020Y0278770D01*
X0354290Y0278730D01*
X0354550Y0278650D01*
X0354800Y0278540D01*
X0355040Y0278390D01*
X0355250Y0278220D01*
X0355430Y0278010D01*
X0355590Y0277790D01*
X0355710Y0277540D01*
X0355790Y0277280D01*
X0355840Y0277010D01*
X0355850Y0276730D01*
X0355820Y0276460D01*
X0355750Y0276190D01*
X0355650Y0275940D01*
X0355510Y0275700D01*
X0355340Y0275480D01*
X0355150Y0275290D01*
X0354920Y0275130D01*
X0354680Y0275000D01*
X0354420Y0274910D01*
X0354150Y0274850D01*
X0353880Y0274830D01*
D1307*
X0310320Y0124000D03*
X0307760Y0124000D03*
X0305200Y0124000D03*
X0302640Y0124000D03*
X0300080Y0124000D03*
X0297520Y0124000D03*
X0294960Y0124000D03*
X0292400Y0124000D03*
X0289840Y0124000D03*
X0287280Y0124000D03*
X0284730Y0124000D03*
X0282170Y0124000D03*
X0279610Y0124000D03*
X0277050Y0124000D03*
X0277050Y0095210D03*
X0279610Y0095210D03*
X0282170Y0095210D03*
X0284730Y0095210D03*
X0287280Y0095210D03*
X0289840Y0095210D03*
X0292400Y0095210D03*
X0294960Y0095210D03*
X0297520Y0095210D03*
X0300080Y0095210D03*
X0302640Y0095210D03*
X0305200Y0095210D03*
X0307760Y0095210D03*
X0310320Y0095210D03*
D1308*
X0292580Y0054440D03*
X0289430Y0054440D03*
X0286280Y0054440D03*
X0283130Y0054440D03*
X0279980Y0054440D03*
D1309*
X0268570Y0054440D03*
X0268570Y0032790D03*
X0304000Y0032790D03*
X0304000Y0054440D03*
D12*
X0269190Y0089600D03*
X0258170Y0089600D03*
D291*
X0258680Y0104090D03*
X0258680Y0115110D03*
X0277080Y0137090D03*
X0277080Y0148110D03*
X0323680Y0145110D03*
X0323680Y0134090D03*
X0333680Y0135110D03*
X0333680Y0124090D03*
X0323680Y0159090D03*
X0323680Y0170110D03*
X0338680Y0175110D03*
X0338680Y0164090D03*
D1306*
X0269190Y0074600D03*
X0258170Y0074600D03*
D390*
X0268680Y0102710D03*
X0268680Y0116490D03*
X0325680Y0116490D03*
X0325680Y0102710D03*
D173*
X0321780Y0203000D03*
X0316780Y0213000D03*
X0311780Y0203000D03*
X0306780Y0213000D03*
X0301780Y0203000D03*
X0296780Y0213000D03*
X0291780Y0203000D03*
X0270880Y0179600D03*
X0270880Y0169600D03*
X0263480Y0140000D03*
X0263480Y0130000D03*
D230*
X0286580Y0154600D03*
X0286580Y0159600D03*
X0286580Y0164600D03*
X0286580Y0169600D03*
X0286580Y0174600D03*
X0286580Y0179600D03*
X0286580Y0184600D03*
X0310780Y0184600D03*
X0310780Y0179600D03*
X0310780Y0174600D03*
X0310780Y0169600D03*
X0310780Y0164600D03*
X0310780Y0159600D03*
X0310780Y0154600D03*
D320*
X0326780Y0213000D03*
D346*
X0328880Y0074940D03*
X0328880Y0051320D03*
X0347390Y0063130D03*
D35*
X0325680Y0102710D02*
X0319080Y0100400D01*
X0302280Y0100400D01*
X0295080Y0108800D01*
X0295080Y0113600D01*
X0292680Y0117200D01*
X0292400Y0124000D01*
X0289840Y0124000D02*
X0289840Y0119160D01*
X0287880Y0117200D01*
X0268680Y0117200D01*
X0268680Y0116490D01*
X0263480Y0110400D02*
X0265080Y0108800D01*
X0281880Y0108800D01*
X0284730Y0105960D01*
X0284730Y0095210D01*
X0287280Y0095210D02*
X0287280Y0102200D01*
X0289080Y0105200D01*
X0292400Y0105200D02*
X0292680Y0102800D01*
X0292400Y0095210D01*
X0292680Y0095210D01*
X0292680Y0088600D01*
X0292580Y0081400D01*
X0292580Y0074600D01*
X0296680Y0074600D01*
X0292580Y0074600D02*
X0292580Y0054440D01*
X0289280Y0063800D02*
X0289280Y0068000D01*
X0289280Y0063800D02*
X0286280Y0062600D01*
X0286280Y0054440D01*
X0283130Y0054440D02*
X0283130Y0067800D01*
X0283280Y0067800D01*
X0279980Y0062700D02*
X0277080Y0064400D01*
X0261480Y0064400D01*
X0259080Y0066800D01*
X0259080Y0073690D01*
X0258170Y0074600D01*
X0258170Y0089600D01*
X0258170Y0095600D01*
X0252880Y0095600D01*
X0252880Y0115110D01*
X0258680Y0115110D01*
X0258680Y0120800D01*
X0256680Y0123200D01*
X0256680Y0153200D01*
X0258680Y0154600D01*
X0278680Y0154600D01*
X0277080Y0149600D02*
X0277080Y0148110D01*
X0277080Y0149600D02*
X0284280Y0149600D01*
X0284280Y0128000D01*
X0285480Y0129200D01*
X0293880Y0129200D01*
X0294960Y0128120D01*
X0294960Y0124000D01*
X0294960Y0118520D01*
X0295080Y0118400D01*
X0297480Y0118400D01*
X0298680Y0117200D01*
X0298680Y0112400D01*
X0301080Y0113600D01*
X0302280Y0114800D01*
X0302280Y0123640D01*
X0302640Y0124000D01*
X0305200Y0124000D02*
X0305200Y0129890D01*
X0303480Y0131600D01*
X0308280Y0136400D02*
X0305880Y0138800D01*
X0298720Y0138800D01*
X0297520Y0140000D01*
X0297520Y0124000D01*
X0290280Y0112400D02*
X0292400Y0108520D01*
X0292400Y0105200D01*
X0284730Y0124000D02*
X0284280Y0124000D01*
X0282170Y0124000D01*
X0284280Y0124000D02*
X0284280Y0128000D01*
X0277080Y0130400D02*
X0277080Y0137090D01*
X0269880Y0137090D01*
X0269880Y0143600D01*
X0264680Y0143600D01*
X0263480Y0140000D01*
X0263480Y0130000D02*
X0263480Y0110400D01*
X0277080Y0089600D02*
X0275880Y0088400D01*
X0277080Y0089600D02*
X0277080Y0095170D01*
X0277050Y0095210D01*
X0279980Y0062700D02*
X0279980Y0054440D01*
X0306480Y0112200D02*
X0306680Y0117000D01*
X0307680Y0117000D01*
X0307680Y0120400D01*
X0307760Y0124000D01*
X0310320Y0124000D02*
X0310680Y0124000D01*
X0310680Y0105600D01*
X0313080Y0128000D02*
X0309480Y0129200D01*
X0308280Y0130400D01*
X0308280Y0136400D01*
X0313080Y0128000D02*
X0317880Y0132800D01*
X0317880Y0143600D01*
X0319390Y0145110D01*
X0323680Y0145110D01*
X0323990Y0144800D01*
X0333480Y0144800D01*
X0333680Y0144600D01*
X0333680Y0135110D01*
X0323880Y0126800D02*
X0325680Y0125000D01*
X0325680Y0116490D01*
X0323880Y0126800D02*
X0323880Y0133890D01*
X0323680Y0134090D01*
X0314280Y0147200D02*
X0317880Y0150800D01*
X0317880Y0156800D01*
X0315480Y0159200D01*
X0311180Y0159200D01*
X0310780Y0159600D01*
X0314280Y0147200D02*
X0314280Y0135200D01*
X0297520Y0140000D02*
X0297520Y0146000D01*
X0290280Y0146000D01*
X0287880Y0148400D01*
X0287880Y0153300D01*
X0286580Y0154600D01*
X0287880Y0154600D01*
X0301280Y0174600D02*
X0301080Y0174800D01*
X0301280Y0174600D02*
X0310780Y0174600D01*
D436*
X0301080Y0174800D03*
X0314280Y0135200D03*
X0306480Y0112200D03*
X0310680Y0105600D03*
X0298680Y0112400D03*
X0303480Y0131600D03*
X0290280Y0112400D03*
X0289080Y0105200D03*
X0277080Y0130400D03*
X0275880Y0088400D03*
X0283280Y0067800D03*
X0289280Y0068000D03*
D498*
X0292580Y0074600D02*
X0269190Y0074600D01*
X0268680Y0074600D01*
X0268680Y0089600D01*
X0269190Y0089600D01*
X0268680Y0102710D02*
X0268680Y0104600D01*
X0258680Y0104600D01*
X0258680Y0104090D01*
X0278680Y0154600D02*
X0286580Y0154600D01*
X0278680Y0154600D02*
X0270880Y0169600D01*
X0270880Y0179600D02*
X0278680Y0179600D01*
X0283680Y0184600D01*
X0286580Y0184600D01*
X0286580Y0179600D02*
X0288680Y0180000D01*
X0293680Y0180000D01*
X0293680Y0195000D01*
X0288680Y0195000D01*
X0283680Y0200000D01*
X0283680Y0225000D01*
X0313680Y0225000D01*
X0323680Y0215000D01*
X0326780Y0213000D01*
X0316780Y0213000D02*
X0313680Y0215000D01*
X0308680Y0220000D01*
X0303680Y0220000D01*
X0298680Y0215000D01*
X0296780Y0213000D01*
X0296280Y0207600D01*
X0293680Y0205000D01*
X0291780Y0203000D01*
X0293680Y0200000D01*
X0308680Y0185000D01*
X0310780Y0184600D01*
X0308680Y0185000D02*
X0308680Y0180000D01*
X0310780Y0179600D01*
X0313680Y0180000D01*
X0333680Y0180000D01*
X0338680Y0175000D01*
X0338680Y0175110D01*
X0338680Y0175000D02*
X0343680Y0170000D01*
X0343680Y0125000D01*
X0333680Y0125000D01*
X0333680Y0124090D01*
X0333480Y0092000D01*
X0328880Y0092000D01*
X0328880Y0074940D01*
X0328880Y0074600D01*
X0296680Y0074600D01*
X0323680Y0145000D02*
X0323680Y0145110D01*
X0323680Y0159090D01*
X0323680Y0160000D01*
X0323680Y0169600D02*
X0310780Y0169600D01*
X0310780Y0164600D02*
X0338680Y0164600D01*
X0338680Y0164090D01*
X0323680Y0169600D02*
X0323680Y0170110D01*
X0311780Y0203000D02*
X0308680Y0205000D01*
X0308680Y0210000D01*
X0306780Y0213000D01*
X0286580Y0174600D02*
X0283680Y0175000D01*
X0278680Y0175000D01*
D527*
X0278680Y0175000D03*
X0365180Y0020000D02*
G75*
%LPD*%
D485*
X0685140Y0020000D02*
X0365180Y0020000D01*
X0365180Y0403700D01*
X0685140Y0403700D01*
X0685140Y0020000D01*
X0675140Y0024490D02*
X0674670Y0024510D01*
X0674210Y0024570D01*
X0673750Y0024670D01*
X0673300Y0024800D01*
X0672870Y0024980D01*
X0672450Y0025190D01*
X0672050Y0025430D01*
X0671680Y0025710D01*
X0671330Y0026020D01*
X0671000Y0026360D01*
X0670710Y0026720D01*
X0670450Y0027110D01*
X0670220Y0027520D01*
X0670030Y0027950D01*
X0669870Y0028390D01*
X0669750Y0028840D01*
X0669670Y0029300D01*
X0669630Y0029770D01*
X0669630Y0030230D01*
X0669670Y0030700D01*
X0669750Y0031160D01*
X0669870Y0031610D01*
X0670030Y0032050D01*
X0670220Y0032480D01*
X0670450Y0032890D01*
X0670710Y0033280D01*
X0671000Y0033640D01*
X0671330Y0033980D01*
X0671680Y0034290D01*
X0672050Y0034570D01*
X0672450Y0034810D01*
X0672870Y0035020D01*
X0673300Y0035200D01*
X0673750Y0035330D01*
X0674210Y0035430D01*
X0674670Y0035490D01*
X0675140Y0035510D01*
X0675610Y0035490D01*
X0676070Y0035430D01*
X0676530Y0035330D01*
X0676980Y0035200D01*
X0677410Y0035020D01*
X0677830Y0034810D01*
X0678230Y0034570D01*
X0678600Y0034290D01*
X0678950Y0033980D01*
X0679280Y0033640D01*
X0679570Y0033280D01*
X0679830Y0032890D01*
X0680060Y0032480D01*
X0680250Y0032050D01*
X0680410Y0031610D01*
X0680530Y0031160D01*
X0680610Y0030700D01*
X0680650Y0030230D01*
X0680650Y0029770D01*
X0680610Y0029300D01*
X0680530Y0028840D01*
X0680410Y0028390D01*
X0680250Y0027950D01*
X0680060Y0027520D01*
X0679830Y0027110D01*
X0679570Y0026720D01*
X0679280Y0026360D01*
X0678950Y0026020D01*
X0678600Y0025710D01*
X0678230Y0025430D01*
X0677830Y0025190D01*
X0677410Y0024980D01*
X0676980Y0024800D01*
X0676530Y0024670D01*
X0676070Y0024570D01*
X0675610Y0024510D01*
X0675140Y0024490D01*
X0640140Y0326200D02*
X0639640Y0326220D01*
X0639140Y0326280D01*
X0638650Y0326380D01*
X0638170Y0326520D01*
X0637700Y0326690D01*
X0637250Y0326900D01*
X0636810Y0327150D01*
X0636400Y0327430D01*
X0636010Y0327750D01*
X0635640Y0328090D01*
X0635300Y0328460D01*
X0635000Y0328860D01*
X0634730Y0329280D01*
X0634490Y0329720D01*
X0634280Y0330180D01*
X0634120Y0330650D01*
X0633990Y0331130D01*
X0633900Y0331630D01*
X0633850Y0332120D01*
X0633840Y0332630D01*
X0633870Y0333130D01*
X0633940Y0333620D01*
X0634050Y0334110D01*
X0634200Y0334590D01*
X0634380Y0335050D01*
X0634600Y0335500D01*
X0634860Y0335930D01*
X0635150Y0336340D01*
X0635470Y0336730D01*
X0635820Y0337090D01*
X0636200Y0337410D01*
X0636600Y0337710D01*
X0637030Y0337980D01*
X0637470Y0338210D01*
X0637930Y0338400D01*
X0638410Y0338560D01*
X0638900Y0338680D01*
X0639390Y0338760D01*
X0639890Y0338800D01*
X0640390Y0338800D01*
X0640890Y0338760D01*
X0641380Y0338680D01*
X0641870Y0338560D01*
X0642350Y0338400D01*
X0642810Y0338210D01*
X0643250Y0337980D01*
X0643680Y0337710D01*
X0644080Y0337410D01*
X0644460Y0337090D01*
X0644810Y0336730D01*
X0645130Y0336340D01*
X0645420Y0335930D01*
X0645680Y0335500D01*
X0645900Y0335050D01*
X0646080Y0334590D01*
X0646230Y0334110D01*
X0646340Y0333620D01*
X0646410Y0333130D01*
X0646440Y0332630D01*
X0646430Y0332120D01*
X0646380Y0331630D01*
X0646290Y0331130D01*
X0646160Y0330650D01*
X0646000Y0330180D01*
X0645790Y0329720D01*
X0645550Y0329280D01*
X0645280Y0328860D01*
X0644980Y0328460D01*
X0644640Y0328090D01*
X0644270Y0327750D01*
X0643880Y0327430D01*
X0643470Y0327150D01*
X0643030Y0326900D01*
X0642580Y0326690D01*
X0642110Y0326520D01*
X0641630Y0326380D01*
X0641140Y0326280D01*
X0640640Y0326220D01*
X0640140Y0326200D01*
X0640140Y0371200D02*
X0639640Y0371220D01*
X0639140Y0371280D01*
X0638650Y0371380D01*
X0638170Y0371520D01*
X0637700Y0371690D01*
X0637250Y0371900D01*
X0636810Y0372150D01*
X0636400Y0372430D01*
X0636010Y0372750D01*
X0635640Y0373090D01*
X0635300Y0373460D01*
X0635000Y0373860D01*
X0634730Y0374280D01*
X0634490Y0374720D01*
X0634280Y0375180D01*
X0634120Y0375650D01*
X0633990Y0376130D01*
X0633900Y0376630D01*
X0633850Y0377120D01*
X0633840Y0377630D01*
X0633870Y0378130D01*
X0633940Y0378620D01*
X0634050Y0379110D01*
X0634200Y0379590D01*
X0634380Y0380050D01*
X0634600Y0380500D01*
X0634860Y0380930D01*
X0635150Y0381340D01*
X0635470Y0381730D01*
X0635820Y0382090D01*
X0636200Y0382410D01*
X0636600Y0382710D01*
X0637030Y0382980D01*
X0637470Y0383210D01*
X0637930Y0383400D01*
X0638410Y0383560D01*
X0638900Y0383680D01*
X0639390Y0383760D01*
X0639890Y0383800D01*
X0640390Y0383800D01*
X0640890Y0383760D01*
X0641380Y0383680D01*
X0641870Y0383560D01*
X0642350Y0383400D01*
X0642810Y0383210D01*
X0643250Y0382980D01*
X0643680Y0382710D01*
X0644080Y0382410D01*
X0644460Y0382090D01*
X0644810Y0381730D01*
X0645130Y0381340D01*
X0645420Y0380930D01*
X0645680Y0380500D01*
X0645900Y0380050D01*
X0646080Y0379590D01*
X0646230Y0379110D01*
X0646340Y0378620D01*
X0646410Y0378130D01*
X0646440Y0377630D01*
X0646430Y0377120D01*
X0646380Y0376630D01*
X0646290Y0376130D01*
X0646160Y0375650D01*
X0646000Y0375180D01*
X0645790Y0374720D01*
X0645550Y0374280D01*
X0645280Y0373860D01*
X0644980Y0373460D01*
X0644640Y0373090D01*
X0644270Y0372750D01*
X0643880Y0372430D01*
X0643470Y0372150D01*
X0643030Y0371900D01*
X0642580Y0371690D01*
X0642110Y0371520D01*
X0641630Y0371380D01*
X0641140Y0371280D01*
X0640640Y0371220D01*
X0640140Y0371200D01*
X0675140Y0389490D02*
X0674670Y0389510D01*
X0674210Y0389570D01*
X0673750Y0389670D01*
X0673300Y0389800D01*
X0672870Y0389980D01*
X0672450Y0390190D01*
X0672050Y0390430D01*
X0671680Y0390710D01*
X0671330Y0391020D01*
X0671000Y0391360D01*
X0670710Y0391720D01*
X0670450Y0392110D01*
X0670220Y0392520D01*
X0670030Y0392950D01*
X0669870Y0393390D01*
X0669750Y0393840D01*
X0669670Y0394300D01*
X0669630Y0394770D01*
X0669630Y0395230D01*
X0669670Y0395700D01*
X0669750Y0396160D01*
X0669870Y0396610D01*
X0670030Y0397050D01*
X0670220Y0397480D01*
X0670450Y0397890D01*
X0670710Y0398280D01*
X0671000Y0398640D01*
X0671330Y0398980D01*
X0671680Y0399290D01*
X0672050Y0399570D01*
X0672450Y0399810D01*
X0672870Y0400020D01*
X0673300Y0400200D01*
X0673750Y0400330D01*
X0674210Y0400430D01*
X0674670Y0400490D01*
X0675140Y0400510D01*
X0675610Y0400490D01*
X0676070Y0400430D01*
X0676530Y0400330D01*
X0676980Y0400200D01*
X0677410Y0400020D01*
X0677830Y0399810D01*
X0678230Y0399570D01*
X0678600Y0399290D01*
X0678950Y0398980D01*
X0679280Y0398640D01*
X0679570Y0398280D01*
X0679830Y0397890D01*
X0680060Y0397480D01*
X0680250Y0397050D01*
X0680410Y0396610D01*
X0680530Y0396160D01*
X0680610Y0395700D01*
X0680650Y0395230D01*
X0680650Y0394770D01*
X0680610Y0394300D01*
X0680530Y0393840D01*
X0680410Y0393390D01*
X0680250Y0392950D01*
X0680060Y0392520D01*
X0679830Y0392110D01*
X0679570Y0391720D01*
X0679280Y0391360D01*
X0678950Y0391020D01*
X0678600Y0390710D01*
X0678230Y0390430D01*
X0677830Y0390190D01*
X0677410Y0389980D01*
X0676980Y0389800D01*
X0676530Y0389670D01*
X0676070Y0389570D01*
X0675610Y0389510D01*
X0675140Y0389490D01*
X0375140Y0389490D02*
X0374670Y0389510D01*
X0374210Y0389570D01*
X0373750Y0389670D01*
X0373300Y0389800D01*
X0372870Y0389980D01*
X0372450Y0390190D01*
X0372050Y0390430D01*
X0371680Y0390710D01*
X0371330Y0391020D01*
X0371000Y0391360D01*
X0370710Y0391720D01*
X0370450Y0392110D01*
X0370220Y0392520D01*
X0370030Y0392950D01*
X0369870Y0393390D01*
X0369750Y0393840D01*
X0369670Y0394300D01*
X0369630Y0394770D01*
X0369630Y0395230D01*
X0369670Y0395700D01*
X0369750Y0396160D01*
X0369870Y0396610D01*
X0370030Y0397050D01*
X0370220Y0397480D01*
X0370450Y0397890D01*
X0370710Y0398280D01*
X0371000Y0398640D01*
X0371330Y0398980D01*
X0371680Y0399290D01*
X0372050Y0399570D01*
X0372450Y0399810D01*
X0372870Y0400020D01*
X0373300Y0400200D01*
X0373750Y0400330D01*
X0374210Y0400430D01*
X0374670Y0400490D01*
X0375140Y0400510D01*
X0375610Y0400490D01*
X0376070Y0400430D01*
X0376530Y0400330D01*
X0376980Y0400200D01*
X0377410Y0400020D01*
X0377830Y0399810D01*
X0378230Y0399570D01*
X0378600Y0399290D01*
X0378950Y0398980D01*
X0379280Y0398640D01*
X0379570Y0398280D01*
X0379830Y0397890D01*
X0380060Y0397480D01*
X0380250Y0397050D01*
X0380410Y0396610D01*
X0380530Y0396160D01*
X0380610Y0395700D01*
X0380650Y0395230D01*
X0380650Y0394770D01*
X0380610Y0394300D01*
X0380530Y0393840D01*
X0380410Y0393390D01*
X0380250Y0392950D01*
X0380060Y0392520D01*
X0379830Y0392110D01*
X0379570Y0391720D01*
X0379280Y0391360D01*
X0378950Y0391020D01*
X0378600Y0390710D01*
X0378230Y0390430D01*
X0377830Y0390190D01*
X0377410Y0389980D01*
X0376980Y0389800D01*
X0376530Y0389670D01*
X0376070Y0389570D01*
X0375610Y0389510D01*
X0375140Y0389490D01*
X0375140Y0024490D02*
X0374670Y0024510D01*
X0374210Y0024570D01*
X0373750Y0024670D01*
X0373300Y0024800D01*
X0372870Y0024980D01*
X0372450Y0025190D01*
X0372050Y0025430D01*
X0371680Y0025710D01*
X0371330Y0026020D01*
X0371000Y0026360D01*
X0370710Y0026720D01*
X0370450Y0027110D01*
X0370220Y0027520D01*
X0370030Y0027950D01*
X0369870Y0028390D01*
X0369750Y0028840D01*
X0369670Y0029300D01*
X0369630Y0029770D01*
X0369630Y0030230D01*
X0369670Y0030700D01*
X0369750Y0031160D01*
X0369870Y0031610D01*
X0370030Y0032050D01*
X0370220Y0032480D01*
X0370450Y0032890D01*
X0370710Y0033280D01*
X0371000Y0033640D01*
X0371330Y0033980D01*
X0371680Y0034290D01*
X0372050Y0034570D01*
X0372450Y0034810D01*
X0372870Y0035020D01*
X0373300Y0035200D01*
X0373750Y0035330D01*
X0374210Y0035430D01*
X0374670Y0035490D01*
X0375140Y0035510D01*
X0375610Y0035490D01*
X0376070Y0035430D01*
X0376530Y0035330D01*
X0376980Y0035200D01*
X0377410Y0035020D01*
X0377830Y0034810D01*
X0378230Y0034570D01*
X0378600Y0034290D01*
X0378950Y0033980D01*
X0379280Y0033640D01*
X0379570Y0033280D01*
X0379830Y0032890D01*
X0380060Y0032480D01*
X0380250Y0032050D01*
X0380410Y0031610D01*
X0380530Y0031160D01*
X0380610Y0030700D01*
X0380650Y0030230D01*
X0380650Y0029770D01*
X0380610Y0029300D01*
X0380530Y0028840D01*
X0380410Y0028390D01*
X0380250Y0027950D01*
X0380060Y0027520D01*
X0379830Y0027110D01*
X0379570Y0026720D01*
X0379280Y0026360D01*
X0378950Y0026020D01*
X0378600Y0025710D01*
X0378230Y0025430D01*
X0377830Y0025190D01*
X0377410Y0024980D01*
X0376980Y0024800D01*
X0376530Y0024670D01*
X0376070Y0024570D01*
X0375610Y0024510D01*
X0375140Y0024490D01*
D574*
X0585140Y0262900D03*
X0590140Y0262900D03*
X0595140Y0262900D03*
X0600140Y0262900D03*
X0605140Y0262900D03*
X0610140Y0262900D03*
X0615140Y0262900D03*
X0615140Y0287100D03*
X0610140Y0287100D03*
X0605140Y0287100D03*
X0600140Y0287100D03*
X0595140Y0287100D03*
X0590140Y0287100D03*
X0585140Y0287100D03*
D599*
X0555140Y0275000D02*
X0555140Y0269800D01*
X0545140Y0269800D02*
X0545140Y0275000D01*
X0535140Y0275000D02*
X0535140Y0269800D01*
X0535140Y0305000D02*
X0535140Y0310200D01*
X0545140Y0310200D02*
X0545140Y0305000D01*
X0555140Y0305000D02*
X0555140Y0310200D01*
X0495340Y0315000D02*
X0490140Y0315000D01*
X0490140Y0305000D02*
X0495340Y0305000D01*
X0495340Y0295000D02*
X0490140Y0295000D01*
X0460140Y0295000D02*
X0454940Y0295000D01*
X0454940Y0305000D02*
X0460140Y0305000D01*
X0460140Y0315000D02*
X0454940Y0315000D01*
X0454940Y0360000D02*
X0460140Y0360000D01*
X0460140Y0370000D02*
X0454940Y0370000D01*
X0454940Y0380000D02*
X0460140Y0380000D01*
X0490140Y0380000D02*
X0495340Y0380000D01*
X0495340Y0370000D02*
X0490140Y0370000D01*
X0490140Y0360000D02*
X0495340Y0360000D01*
X0495340Y0255000D02*
X0490140Y0255000D01*
X0490140Y0245000D02*
X0495340Y0245000D01*
X0495340Y0235000D02*
X0490140Y0235000D01*
X0460140Y0235000D02*
X0454940Y0235000D01*
X0454940Y0245000D02*
X0460140Y0245000D01*
X0460140Y0255000D02*
X0454940Y0255000D01*
X0454940Y0195000D02*
X0460140Y0195000D01*
X0460140Y0185000D02*
X0454940Y0185000D01*
X0454940Y0175000D02*
X0460140Y0175000D01*
X0490140Y0175000D02*
X0495340Y0175000D01*
X0495340Y0185000D02*
X0490140Y0185000D01*
X0490140Y0195000D02*
X0495340Y0195000D01*
X0495340Y0140000D02*
X0490140Y0140000D01*
X0490140Y0130000D02*
X0495340Y0130000D01*
X0495340Y0120000D02*
X0490140Y0120000D01*
X0460140Y0120000D02*
X0454940Y0120000D01*
X0454940Y0130000D02*
X0460140Y0130000D01*
X0460140Y0140000D02*
X0454940Y0140000D01*
X0454940Y0080000D02*
X0460140Y0080000D01*
X0460140Y0070000D02*
X0454940Y0070000D01*
X0454940Y0060000D02*
X0460140Y0060000D01*
X0490140Y0060000D02*
X0495340Y0060000D01*
X0495340Y0070000D02*
X0490140Y0070000D01*
X0490140Y0080000D02*
X0495340Y0080000D01*
X0557540Y0090000D02*
X0562740Y0090000D01*
X0562740Y0100000D02*
X0557540Y0100000D01*
X0557540Y0110000D02*
X0562740Y0110000D01*
X0562740Y0120000D02*
X0557540Y0120000D01*
X0557540Y0130000D02*
X0562740Y0130000D01*
X0562740Y0140000D02*
X0557540Y0140000D01*
X0557540Y0150000D02*
X0562740Y0150000D01*
X0562740Y0160000D02*
X0557540Y0160000D01*
X0557540Y0170000D02*
X0562740Y0170000D01*
X0562740Y0180000D02*
X0557540Y0180000D01*
X0557540Y0190000D02*
X0562740Y0190000D01*
X0562740Y0200000D02*
X0557540Y0200000D01*
X0557540Y0210000D02*
X0562740Y0210000D01*
X0562740Y0220000D02*
X0557540Y0220000D01*
X0587540Y0220000D02*
X0592740Y0220000D01*
X0592740Y0210000D02*
X0587540Y0210000D01*
X0587540Y0200000D02*
X0592740Y0200000D01*
X0592740Y0190000D02*
X0587540Y0190000D01*
X0587540Y0180000D02*
X0592740Y0180000D01*
X0592740Y0170000D02*
X0587540Y0170000D01*
X0587540Y0160000D02*
X0592740Y0160000D01*
X0592740Y0150000D02*
X0587540Y0150000D01*
X0587540Y0140000D02*
X0592740Y0140000D01*
X0592740Y0130000D02*
X0587540Y0130000D01*
X0587540Y0120000D02*
X0592740Y0120000D01*
X0592740Y0110000D02*
X0587540Y0110000D01*
X0587540Y0100000D02*
X0592740Y0100000D01*
X0592740Y0090000D02*
X0587540Y0090000D01*
D173*
X0620140Y0085000D03*
X0621140Y0095000D03*
X0620140Y0105000D03*
X0621140Y0115000D03*
X0620140Y0125000D03*
X0621140Y0135000D03*
X0460140Y0160000D03*
X0420140Y0160000D03*
X0405140Y0160000D03*
X0405140Y0140000D03*
X0405140Y0100000D03*
X0420140Y0100000D03*
X0405140Y0080000D03*
X0405140Y0040000D03*
X0420140Y0040000D03*
X0460140Y0040000D03*
X0460140Y0100000D03*
X0405140Y0200000D03*
X0405140Y0220000D03*
X0420140Y0220000D03*
X0405140Y0260000D03*
X0405140Y0280000D03*
X0420140Y0280000D03*
X0405140Y0320000D03*
X0405140Y0340000D03*
X0420140Y0340000D03*
X0405140Y0380000D03*
X0460140Y0340000D03*
X0460140Y0280000D03*
X0460140Y0220000D03*
X0535140Y0325000D03*
X0555140Y0325000D03*
X0555140Y0365000D03*
X0535140Y0365000D03*
X0605140Y0362500D03*
X0605140Y0372500D03*
X0615140Y0367500D03*
X0615140Y0357500D03*
X0615140Y0347500D03*
X0605140Y0352500D03*
X0605140Y0342500D03*
D291*
X0575140Y0280510D03*
X0575140Y0269480D03*
X0545140Y0125510D03*
X0545140Y0114480D03*
X0545140Y0100510D03*
X0545140Y0089480D03*
X0530140Y0089480D03*
X0530140Y0100510D03*
X0605140Y0095510D03*
X0605140Y0084480D03*
X0420140Y0114480D03*
X0420140Y0125510D03*
X0420140Y0174480D03*
X0420140Y0185510D03*
X0420140Y0234480D03*
X0420140Y0245510D03*
X0420140Y0294480D03*
X0420140Y0305510D03*
X0420140Y0354480D03*
X0420140Y0365510D03*
D1303*
X0652340Y0304100D03*
X0652340Y0295000D03*
X0652340Y0285900D03*
X0652340Y0224100D03*
X0652340Y0215000D03*
X0652340Y0205900D03*
D1304*
X0627940Y0215000D03*
X0627940Y0295000D03*
D158*
X0443140Y0300000D02*
X0437140Y0300000D01*
X0437140Y0310000D02*
X0443140Y0310000D01*
X0443140Y0320000D02*
X0437140Y0320000D01*
X0437140Y0360000D02*
X0443140Y0360000D01*
X0443140Y0370000D02*
X0437140Y0370000D01*
X0437140Y0380000D02*
X0443140Y0380000D01*
X0443140Y0260000D02*
X0437140Y0260000D01*
X0437140Y0250000D02*
X0443140Y0250000D01*
X0443140Y0240000D02*
X0437140Y0240000D01*
X0437140Y0200000D02*
X0443140Y0200000D01*
X0443140Y0190000D02*
X0437140Y0190000D01*
X0437140Y0180000D02*
X0443140Y0180000D01*
X0443140Y0140000D02*
X0437140Y0140000D01*
X0437140Y0130000D02*
X0443140Y0130000D01*
X0443140Y0120000D02*
X0437140Y0120000D01*
X0437140Y0080000D02*
X0443140Y0080000D01*
X0443140Y0070000D02*
X0437140Y0070000D01*
X0437140Y0060000D02*
X0443140Y0060000D01*
D224*
X0420140Y0069840D03*
X0420140Y0050150D03*
X0670140Y0185000D03*
X0670140Y0215000D03*
X0670140Y0265000D03*
X0670140Y0295000D03*
D12*
X0555650Y0255000D03*
X0544630Y0255000D03*
X0490650Y0280000D03*
X0479630Y0280000D03*
X0479630Y0220000D03*
X0490650Y0220000D03*
X0490650Y0160000D03*
X0479630Y0160000D03*
X0479630Y0105000D03*
X0490650Y0105000D03*
X0490650Y0045000D03*
X0479630Y0045000D03*
X0479630Y0345000D03*
X0490650Y0345000D03*
D320*
X0615140Y0337500D03*
D207*
X0670140Y0305000D03*
X0670140Y0275000D03*
X0670140Y0225000D03*
X0670140Y0195000D03*
D346*
X0655140Y0133930D03*
X0673640Y0122120D03*
X0655140Y0110310D03*
D102*
X0545140Y0385000D03*
X0380140Y0370000D03*
X0380140Y0310000D03*
X0380140Y0250000D03*
X0380140Y0190000D03*
X0380140Y0130000D03*
X0380140Y0070000D03*
D260*
X0380140Y0050310D03*
X0380140Y0110310D03*
X0380140Y0170310D03*
X0380140Y0230310D03*
X0380140Y0290310D03*
X0380140Y0350310D03*
X0525450Y0385000D03*
D289*
X0525140Y0385000D01*
X0525450Y0385000D02*
X0530140Y0385000D01*
X0555140Y0365000D01*
X0555140Y0325000D02*
X0555140Y0305000D01*
X0545140Y0305000D02*
X0545140Y0325000D01*
X0535140Y0325000D01*
X0505140Y0305000D02*
X0490140Y0305000D01*
X0490140Y0295000D02*
X0480140Y0295000D01*
X0480140Y0280000D01*
X0479630Y0280000D01*
X0485140Y0285000D02*
X0485140Y0240000D01*
X0520140Y0240000D01*
X0550140Y0210000D01*
X0560140Y0210000D01*
X0585140Y0205000D02*
X0590140Y0200000D01*
X0585140Y0205000D02*
X0470140Y0205000D01*
X0470140Y0280000D01*
X0465140Y0285000D01*
X0465140Y0320000D01*
X0490140Y0345000D01*
X0490650Y0345000D01*
X0480140Y0345000D02*
X0479630Y0345000D01*
X0480140Y0345000D02*
X0480140Y0360000D01*
X0490140Y0360000D01*
X0460140Y0360000D02*
X0460140Y0340000D01*
X0455140Y0320000D02*
X0440140Y0320000D01*
X0455140Y0320000D02*
X0460140Y0315000D01*
X0460140Y0295000D02*
X0460140Y0280000D01*
X0455140Y0260000D02*
X0440140Y0260000D01*
X0455140Y0260000D02*
X0460140Y0255000D01*
X0460140Y0235000D02*
X0460140Y0220000D01*
X0479630Y0220000D02*
X0480140Y0220000D01*
X0480140Y0235000D01*
X0490140Y0235000D01*
X0505140Y0235000D02*
X0490140Y0220000D01*
X0490650Y0220000D01*
X0505140Y0235000D02*
X0510140Y0235000D01*
X0515140Y0265000D02*
X0490140Y0290000D01*
X0485140Y0285000D01*
X0490140Y0280000D02*
X0490650Y0280000D01*
X0490140Y0280000D02*
X0535140Y0235000D01*
X0670140Y0235000D01*
X0675140Y0230000D01*
X0675140Y0190000D01*
X0590140Y0190000D01*
X0595140Y0205000D02*
X0640140Y0205000D01*
X0650140Y0215000D01*
X0652340Y0215000D01*
X0670140Y0215000D01*
X0670140Y0225000D02*
X0655140Y0225000D01*
X0652340Y0224100D01*
X0652340Y0205900D02*
X0655140Y0205000D01*
X0665140Y0195000D01*
X0670140Y0195000D01*
X0680140Y0160000D02*
X0680140Y0230000D01*
X0670140Y0240000D01*
X0555140Y0240000D01*
X0555140Y0255000D01*
X0555650Y0255000D01*
X0545140Y0255000D02*
X0544630Y0255000D01*
X0545140Y0255000D02*
X0545140Y0275000D01*
X0540140Y0280000D02*
X0540140Y0265000D01*
X0515140Y0265000D01*
X0535140Y0275000D02*
X0505140Y0305000D01*
X0540140Y0280000D02*
X0560140Y0280000D01*
X0565140Y0275000D01*
X0605140Y0275000D01*
X0605140Y0262900D01*
X0600140Y0262900D02*
X0600140Y0260000D01*
X0585140Y0245000D01*
X0570140Y0245000D01*
X0580140Y0250000D02*
X0590140Y0260000D01*
X0590140Y0262900D01*
X0595140Y0262900D02*
X0595140Y0270000D01*
X0575140Y0270000D01*
X0575140Y0269480D01*
X0575140Y0260000D01*
X0575140Y0280000D02*
X0575140Y0280510D01*
X0575140Y0280000D02*
X0580140Y0285000D01*
X0585140Y0285000D01*
X0585140Y0287100D01*
X0585140Y0310000D01*
X0645140Y0310000D01*
X0650140Y0305000D01*
X0652340Y0304100D01*
X0655140Y0305000D01*
X0670140Y0305000D01*
X0675140Y0310000D02*
X0675140Y0295000D01*
X0670140Y0295000D01*
X0652340Y0295000D01*
X0645140Y0295000D01*
X0630140Y0280000D01*
X0655140Y0280000D01*
X0670140Y0265000D01*
X0670140Y0275000D02*
X0665140Y0275000D01*
X0655140Y0285000D01*
X0652340Y0285900D01*
X0630140Y0280000D02*
X0615140Y0265000D01*
X0615140Y0262900D01*
X0615140Y0265000D02*
X0610140Y0265000D01*
X0610140Y0262900D01*
X0600140Y0287100D02*
X0600140Y0300000D01*
X0595140Y0305000D02*
X0595140Y0287100D01*
X0615140Y0347500D02*
X0615140Y0350000D01*
X0625140Y0360000D01*
X0675140Y0310000D01*
X0625140Y0360000D02*
X0625140Y0365000D01*
X0615140Y0365000D01*
X0615140Y0367500D01*
X0615140Y0370000D01*
X0605140Y0370000D01*
X0605140Y0372500D01*
X0605140Y0355000D02*
X0615140Y0355000D01*
X0615140Y0357500D01*
X0605140Y0355000D02*
X0605140Y0352500D01*
X0590140Y0210000D02*
X0595140Y0205000D01*
X0590140Y0170000D02*
X0585140Y0165000D01*
X0495140Y0165000D01*
X0490140Y0160000D01*
X0490650Y0160000D01*
X0480140Y0160000D02*
X0479630Y0160000D01*
X0480140Y0160000D02*
X0480140Y0175000D01*
X0490140Y0175000D01*
X0460140Y0175000D02*
X0460140Y0160000D01*
X0460140Y0140000D02*
X0440140Y0140000D01*
X0420140Y0160000D02*
X0405140Y0160000D01*
X0420140Y0160000D02*
X0420140Y0174480D01*
X0420140Y0175000D01*
X0440140Y0200000D02*
X0455140Y0200000D01*
X0460140Y0195000D01*
X0420140Y0220000D02*
X0405140Y0220000D01*
X0420140Y0220000D02*
X0420140Y0234480D01*
X0420140Y0235000D01*
X0420140Y0280000D02*
X0405140Y0280000D01*
X0420140Y0280000D02*
X0420140Y0294480D01*
X0420140Y0295000D01*
X0420140Y0340000D02*
X0405140Y0340000D01*
X0420140Y0340000D02*
X0420140Y0354480D01*
X0420140Y0355000D01*
X0440140Y0380000D02*
X0460140Y0380000D01*
X0590140Y0160000D02*
X0680140Y0160000D01*
X0655140Y0110310D02*
X0625140Y0110000D01*
X0620140Y0105000D01*
X0545140Y0105000D01*
X0545140Y0114480D01*
X0545140Y0115000D01*
X0545140Y0105000D02*
X0545140Y0100510D01*
X0545140Y0100000D01*
X0560140Y0100000D01*
X0560140Y0090000D02*
X0545140Y0090000D01*
X0545140Y0089480D01*
X0545140Y0090000D02*
X0530140Y0090000D01*
X0530140Y0089480D01*
X0530140Y0100000D02*
X0530140Y0100510D01*
X0530140Y0100000D02*
X0505140Y0125000D01*
X0495140Y0125000D01*
X0490140Y0130000D01*
X0490140Y0120000D02*
X0480140Y0120000D01*
X0480140Y0105000D01*
X0479630Y0105000D01*
X0490140Y0105000D02*
X0490650Y0105000D01*
X0515140Y0105000D01*
X0530140Y0100000D02*
X0505140Y0075000D01*
X0495140Y0075000D01*
X0490140Y0070000D01*
X0490140Y0060000D02*
X0480140Y0060000D01*
X0480140Y0045000D01*
X0479630Y0045000D01*
X0490140Y0045000D02*
X0490650Y0045000D01*
X0490140Y0045000D02*
X0525140Y0080000D01*
X0570140Y0080000D01*
X0590140Y0100000D01*
X0590140Y0090000D02*
X0595140Y0085000D01*
X0605140Y0085000D01*
X0605140Y0084480D01*
X0605140Y0085000D02*
X0620140Y0085000D01*
X0621140Y0095000D02*
X0605140Y0095000D01*
X0605140Y0095510D01*
X0595140Y0115000D02*
X0621140Y0115000D01*
X0620140Y0125000D02*
X0595140Y0125000D01*
X0590140Y0130000D01*
X0590140Y0120000D02*
X0595140Y0115000D01*
X0560140Y0130000D02*
X0550140Y0130000D01*
X0545140Y0125000D01*
X0545140Y0125510D01*
X0545140Y0100000D02*
X0530140Y0100000D01*
X0460140Y0100000D02*
X0460140Y0120000D01*
X0460140Y0080000D02*
X0440140Y0080000D01*
X0420140Y0100000D02*
X0405140Y0100000D01*
X0420140Y0100000D02*
X0420140Y0114480D01*
X0420140Y0115000D01*
X0460140Y0060000D02*
X0460140Y0040000D01*
X0420140Y0040000D02*
X0405140Y0040000D01*
X0420140Y0040000D02*
X0420140Y0050150D01*
D602*
X0515140Y0105000D03*
X0510140Y0235000D03*
X0570140Y0245000D03*
X0580140Y0250000D03*
X0575140Y0260000D03*
X0600140Y0300000D03*
X0595140Y0305000D03*
X0670140Y0240000D03*
D458*
X0440140Y0240000D02*
X0435140Y0240000D01*
X0430140Y0245000D01*
X0420140Y0245000D01*
X0420140Y0245510D01*
X0420140Y0245000D02*
X0395140Y0245000D01*
X0380140Y0230000D01*
X0380140Y0230310D01*
X0395140Y0185000D02*
X0420140Y0185000D01*
X0420140Y0185510D01*
X0420140Y0185000D02*
X0430140Y0185000D01*
X0435140Y0180000D01*
X0440140Y0180000D01*
X0395140Y0185000D02*
X0380140Y0170000D01*
X0380140Y0170310D01*
X0395140Y0125000D02*
X0420140Y0125000D01*
X0420140Y0125510D01*
X0420140Y0125000D02*
X0430140Y0125000D01*
X0435140Y0120000D01*
X0440140Y0120000D01*
X0425140Y0080000D02*
X0405140Y0080000D01*
X0390140Y0080000D01*
X0380140Y0070000D01*
X0380140Y0050310D02*
X0380140Y0050000D01*
X0400140Y0070000D01*
X0420140Y0070000D01*
X0420140Y0069840D01*
X0425140Y0080000D02*
X0435140Y0070000D01*
X0440140Y0070000D01*
X0395140Y0125000D02*
X0380140Y0110000D01*
X0380140Y0110310D01*
X0380140Y0290000D02*
X0380140Y0290310D01*
X0380140Y0290000D02*
X0395140Y0305000D01*
X0420140Y0305000D01*
X0420140Y0305510D01*
X0420140Y0305000D02*
X0430140Y0305000D01*
X0435140Y0300000D01*
X0440140Y0300000D01*
X0440140Y0360000D02*
X0435140Y0360000D01*
X0430140Y0365000D01*
X0420140Y0365000D01*
X0420140Y0365510D01*
X0420140Y0365000D02*
X0395140Y0365000D01*
X0380140Y0350000D01*
X0380140Y0350310D01*
X0020000Y0288200D02*
G75*
%LPD*%
D485*
X0020000Y0288200D02*
X0020000Y0396760D01*
X0281700Y0396760D01*
X0281700Y0288200D01*
X0020000Y0288200D01*
X0022830Y0293000D02*
X0022850Y0293270D01*
X0022910Y0293540D01*
X0023000Y0293800D01*
X0023130Y0294040D01*
X0023290Y0294270D01*
X0023480Y0294460D01*
X0023700Y0294630D01*
X0023940Y0294770D01*
X0024190Y0294870D01*
X0024460Y0294940D01*
X0024730Y0294970D01*
X0025010Y0294960D01*
X0025280Y0294910D01*
X0025540Y0294830D01*
X0025780Y0294710D01*
X0026010Y0294550D01*
X0026220Y0294370D01*
X0026390Y0294160D01*
X0026540Y0293920D01*
X0026650Y0293670D01*
X0026730Y0293410D01*
X0026770Y0293140D01*
X0026770Y0292860D01*
X0026730Y0292590D01*
X0026650Y0292330D01*
X0026540Y0292080D01*
X0026390Y0291840D01*
X0026220Y0291630D01*
X0026010Y0291450D01*
X0025790Y0291290D01*
X0025540Y0291170D01*
X0025280Y0291090D01*
X0025010Y0291040D01*
X0024730Y0291030D01*
X0024460Y0291060D01*
X0024190Y0291130D01*
X0023940Y0291230D01*
X0023700Y0291370D01*
X0023480Y0291540D01*
X0023290Y0291730D01*
X0023130Y0291960D01*
X0023000Y0292200D01*
X0022910Y0292460D01*
X0022850Y0292730D01*
X0022830Y0293000D01*
X0042830Y0351940D02*
X0042850Y0352200D01*
X0042910Y0352460D01*
X0043010Y0352710D01*
X0043140Y0352940D01*
X0043300Y0353140D01*
X0043500Y0353320D01*
X0043720Y0353470D01*
X0043950Y0353590D01*
X0044210Y0353670D01*
X0044470Y0353710D01*
X0044730Y0353710D01*
X0044990Y0353670D01*
X0045250Y0353590D01*
X0045490Y0353470D01*
X0045700Y0353320D01*
X0045900Y0353140D01*
X0046060Y0352940D01*
X0046190Y0352710D01*
X0046290Y0352460D01*
X0046350Y0352200D01*
X0046370Y0351940D01*
X0046350Y0351680D01*
X0046290Y0351420D01*
X0046190Y0351170D01*
X0046060Y0350940D01*
X0045900Y0350740D01*
X0045700Y0350560D01*
X0045480Y0350410D01*
X0045250Y0350290D01*
X0044990Y0350210D01*
X0044730Y0350170D01*
X0044470Y0350170D01*
X0044210Y0350210D01*
X0043950Y0350290D01*
X0043710Y0350410D01*
X0043500Y0350560D01*
X0043300Y0350740D01*
X0043140Y0350940D01*
X0043010Y0351170D01*
X0042910Y0351420D01*
X0042850Y0351680D01*
X0042830Y0351940D01*
X0042830Y0369260D02*
X0042850Y0369520D01*
X0042910Y0369780D01*
X0043010Y0370030D01*
X0043140Y0370260D01*
X0043300Y0370460D01*
X0043500Y0370640D01*
X0043720Y0370790D01*
X0043950Y0370910D01*
X0044210Y0370990D01*
X0044470Y0371030D01*
X0044730Y0371030D01*
X0044990Y0370990D01*
X0045250Y0370910D01*
X0045490Y0370790D01*
X0045700Y0370640D01*
X0045900Y0370460D01*
X0046060Y0370260D01*
X0046190Y0370030D01*
X0046290Y0369780D01*
X0046350Y0369520D01*
X0046370Y0369260D01*
X0046350Y0369000D01*
X0046290Y0368740D01*
X0046190Y0368490D01*
X0046060Y0368260D01*
X0045900Y0368060D01*
X0045700Y0367880D01*
X0045480Y0367730D01*
X0045250Y0367610D01*
X0044990Y0367530D01*
X0044730Y0367490D01*
X0044470Y0367490D01*
X0044210Y0367530D01*
X0043950Y0367610D01*
X0043710Y0367730D01*
X0043500Y0367880D01*
X0043300Y0368060D01*
X0043140Y0368260D01*
X0043010Y0368490D01*
X0042910Y0368740D01*
X0042850Y0369000D01*
X0042830Y0369260D01*
X0024030Y0391400D02*
X0024050Y0391670D01*
X0024110Y0391940D01*
X0024200Y0392200D01*
X0024330Y0392440D01*
X0024490Y0392670D01*
X0024680Y0392860D01*
X0024900Y0393030D01*
X0025140Y0393170D01*
X0025390Y0393270D01*
X0025660Y0393340D01*
X0025930Y0393370D01*
X0026210Y0393360D01*
X0026480Y0393310D01*
X0026740Y0393230D01*
X0026980Y0393110D01*
X0027210Y0392950D01*
X0027420Y0392770D01*
X0027590Y0392560D01*
X0027740Y0392320D01*
X0027850Y0392070D01*
X0027930Y0391810D01*
X0027970Y0391540D01*
X0027970Y0391260D01*
X0027930Y0390990D01*
X0027850Y0390730D01*
X0027740Y0390480D01*
X0027590Y0390240D01*
X0027420Y0390030D01*
X0027210Y0389850D01*
X0026990Y0389690D01*
X0026740Y0389570D01*
X0026480Y0389490D01*
X0026210Y0389440D01*
X0025930Y0389430D01*
X0025660Y0389460D01*
X0025390Y0389530D01*
X0025140Y0389630D01*
X0024900Y0389770D01*
X0024680Y0389940D01*
X0024490Y0390130D01*
X0024330Y0390360D01*
X0024200Y0390600D01*
X0024110Y0390860D01*
X0024050Y0391130D01*
X0024030Y0391400D01*
X0231700Y0360100D02*
X0231720Y0360600D01*
X0231780Y0361100D01*
X0231880Y0361590D01*
X0232020Y0362070D01*
X0232190Y0362540D01*
X0232400Y0362990D01*
X0232650Y0363430D01*
X0232930Y0363840D01*
X0233250Y0364230D01*
X0233590Y0364600D01*
X0233960Y0364940D01*
X0234360Y0365240D01*
X0234780Y0365510D01*
X0235220Y0365750D01*
X0235680Y0365960D01*
X0236150Y0366120D01*
X0236630Y0366250D01*
X0237130Y0366340D01*
X0237620Y0366390D01*
X0238130Y0366400D01*
X0238630Y0366370D01*
X0239120Y0366300D01*
X0239610Y0366190D01*
X0240090Y0366040D01*
X0240550Y0365860D01*
X0241000Y0365640D01*
X0241430Y0365380D01*
X0241840Y0365090D01*
X0242230Y0364770D01*
X0242590Y0364420D01*
X0242910Y0364040D01*
X0243210Y0363640D01*
X0243480Y0363210D01*
X0243710Y0362770D01*
X0243900Y0362310D01*
X0244060Y0361830D01*
X0244180Y0361340D01*
X0244260Y0360850D01*
X0244300Y0360350D01*
X0244300Y0359850D01*
X0244260Y0359350D01*
X0244180Y0358860D01*
X0244060Y0358370D01*
X0243900Y0357890D01*
X0243710Y0357430D01*
X0243480Y0356990D01*
X0243210Y0356560D01*
X0242910Y0356160D01*
X0242590Y0355780D01*
X0242230Y0355430D01*
X0241840Y0355110D01*
X0241430Y0354820D01*
X0241000Y0354560D01*
X0240550Y0354340D01*
X0240090Y0354160D01*
X0239610Y0354010D01*
X0239120Y0353900D01*
X0238630Y0353830D01*
X0238130Y0353800D01*
X0237620Y0353810D01*
X0237130Y0353860D01*
X0236630Y0353950D01*
X0236150Y0354080D01*
X0235680Y0354240D01*
X0235220Y0354450D01*
X0234780Y0354690D01*
X0234360Y0354960D01*
X0233960Y0355260D01*
X0233590Y0355600D01*
X0233250Y0355970D01*
X0232930Y0356360D01*
X0232650Y0356770D01*
X0232400Y0357210D01*
X0232190Y0357660D01*
X0232020Y0358130D01*
X0231880Y0358610D01*
X0231780Y0359100D01*
X0231720Y0359600D01*
X0231700Y0360100D01*
X0274830Y0391400D02*
X0274850Y0391670D01*
X0274910Y0391940D01*
X0275000Y0392200D01*
X0275130Y0392440D01*
X0275290Y0392670D01*
X0275480Y0392860D01*
X0275700Y0393030D01*
X0275940Y0393170D01*
X0276190Y0393270D01*
X0276460Y0393340D01*
X0276730Y0393370D01*
X0277010Y0393360D01*
X0277280Y0393310D01*
X0277540Y0393230D01*
X0277780Y0393110D01*
X0278010Y0392950D01*
X0278220Y0392770D01*
X0278390Y0392560D01*
X0278540Y0392320D01*
X0278650Y0392070D01*
X0278730Y0391810D01*
X0278770Y0391540D01*
X0278770Y0391260D01*
X0278730Y0390990D01*
X0278650Y0390730D01*
X0278540Y0390480D01*
X0278390Y0390240D01*
X0278220Y0390030D01*
X0278010Y0389850D01*
X0277790Y0389690D01*
X0277540Y0389570D01*
X0277280Y0389490D01*
X0277010Y0389440D01*
X0276730Y0389430D01*
X0276460Y0389460D01*
X0276190Y0389530D01*
X0275940Y0389630D01*
X0275700Y0389770D01*
X0275480Y0389940D01*
X0275290Y0390130D01*
X0275130Y0390360D01*
X0275000Y0390600D01*
X0274910Y0390860D01*
X0274850Y0391130D01*
X0274830Y0391400D01*
X0231700Y0315100D02*
X0231720Y0315600D01*
X0231780Y0316100D01*
X0231880Y0316590D01*
X0232020Y0317070D01*
X0232190Y0317540D01*
X0232400Y0317990D01*
X0232650Y0318430D01*
X0232930Y0318840D01*
X0233250Y0319230D01*
X0233590Y0319600D01*
X0233960Y0319940D01*
X0234360Y0320240D01*
X0234780Y0320510D01*
X0235220Y0320750D01*
X0235680Y0320960D01*
X0236150Y0321120D01*
X0236630Y0321250D01*
X0237130Y0321340D01*
X0237620Y0321390D01*
X0238130Y0321400D01*
X0238630Y0321370D01*
X0239120Y0321300D01*
X0239610Y0321190D01*
X0240090Y0321040D01*
X0240550Y0320860D01*
X0241000Y0320640D01*
X0241430Y0320380D01*
X0241840Y0320090D01*
X0242230Y0319770D01*
X0242590Y0319420D01*
X0242910Y0319040D01*
X0243210Y0318640D01*
X0243480Y0318210D01*
X0243710Y0317770D01*
X0243900Y0317310D01*
X0244060Y0316830D01*
X0244180Y0316340D01*
X0244260Y0315850D01*
X0244300Y0315350D01*
X0244300Y0314850D01*
X0244260Y0314350D01*
X0244180Y0313860D01*
X0244060Y0313370D01*
X0243900Y0312890D01*
X0243710Y0312430D01*
X0243480Y0311990D01*
X0243210Y0311560D01*
X0242910Y0311160D01*
X0242590Y0310780D01*
X0242230Y0310430D01*
X0241840Y0310110D01*
X0241430Y0309820D01*
X0241000Y0309560D01*
X0240550Y0309340D01*
X0240090Y0309160D01*
X0239610Y0309010D01*
X0239120Y0308900D01*
X0238630Y0308830D01*
X0238130Y0308800D01*
X0237620Y0308810D01*
X0237130Y0308860D01*
X0236630Y0308950D01*
X0236150Y0309080D01*
X0235680Y0309240D01*
X0235220Y0309450D01*
X0234780Y0309690D01*
X0234360Y0309960D01*
X0233960Y0310260D01*
X0233590Y0310600D01*
X0233250Y0310970D01*
X0232930Y0311360D01*
X0232650Y0311770D01*
X0232400Y0312210D01*
X0232190Y0312660D01*
X0232020Y0313130D01*
X0231880Y0313610D01*
X0231780Y0314100D01*
X0231720Y0314600D01*
X0231700Y0315100D01*
X0274830Y0293000D02*
X0274850Y0293270D01*
X0274910Y0293540D01*
X0275000Y0293800D01*
X0275130Y0294040D01*
X0275290Y0294270D01*
X0275480Y0294460D01*
X0275700Y0294630D01*
X0275940Y0294770D01*
X0276190Y0294870D01*
X0276460Y0294940D01*
X0276730Y0294970D01*
X0277010Y0294960D01*
X0277280Y0294910D01*
X0277540Y0294830D01*
X0277780Y0294710D01*
X0278010Y0294550D01*
X0278220Y0294370D01*
X0278390Y0294160D01*
X0278540Y0293920D01*
X0278650Y0293670D01*
X0278730Y0293410D01*
X0278770Y0293140D01*
X0278770Y0292860D01*
X0278730Y0292590D01*
X0278650Y0292330D01*
X0278540Y0292080D01*
X0278390Y0291840D01*
X0278220Y0291630D01*
X0278010Y0291450D01*
X0277790Y0291290D01*
X0277540Y0291170D01*
X0277280Y0291090D01*
X0277010Y0291040D01*
X0276730Y0291030D01*
X0276460Y0291060D01*
X0276190Y0291130D01*
X0275940Y0291230D01*
X0275700Y0291370D01*
X0275480Y0291540D01*
X0275290Y0291730D01*
X0275130Y0291960D01*
X0275000Y0292200D01*
X0274910Y0292460D01*
X0274850Y0292730D01*
X0274830Y0293000D01*
D674*
X0124000Y0336560D03*
X0124000Y0339120D03*
X0124000Y0341680D03*
X0124000Y0344240D03*
X0124000Y0346800D03*
X0124000Y0349360D03*
X0124000Y0351920D03*
X0124000Y0354480D03*
X0124000Y0357040D03*
X0124000Y0359600D03*
X0124000Y0362150D03*
X0124000Y0364710D03*
X0124000Y0367270D03*
X0124000Y0369830D03*
X0095210Y0369830D03*
X0095210Y0367270D03*
X0095210Y0364710D03*
X0095210Y0362150D03*
X0095210Y0359600D03*
X0095210Y0357040D03*
X0095210Y0354480D03*
X0095210Y0351920D03*
X0095210Y0349360D03*
X0095210Y0346800D03*
X0095210Y0344240D03*
X0095210Y0341680D03*
X0095210Y0339120D03*
X0095210Y0336560D03*
D586*
X0054440Y0354300D03*
X0054440Y0357450D03*
X0054440Y0360600D03*
X0054440Y0363750D03*
X0054440Y0366900D03*
D175*
X0054440Y0378310D03*
X0032790Y0378310D03*
X0032790Y0342880D03*
X0054440Y0342880D03*
D291*
X0089600Y0377690D03*
X0089600Y0388710D03*
D12*
X0104090Y0388200D03*
X0115110Y0388200D03*
X0137090Y0369800D03*
X0148110Y0369800D03*
X0145110Y0323200D03*
X0134090Y0323200D03*
X0135110Y0313200D03*
X0124090Y0313200D03*
X0159090Y0323200D03*
X0170110Y0323200D03*
X0175110Y0308200D03*
X0164090Y0308200D03*
D111*
X0074600Y0377690D03*
X0074600Y0388710D03*
D390*
X0102710Y0378200D03*
X0116490Y0378200D03*
X0116490Y0321200D03*
X0102710Y0321200D03*
D173*
X0203000Y0325100D03*
X0213000Y0330100D03*
X0203000Y0335100D03*
X0213000Y0340100D03*
X0203000Y0345100D03*
X0213000Y0350100D03*
X0203000Y0355100D03*
X0179600Y0376000D03*
X0169600Y0376000D03*
X0140000Y0383400D03*
X0130000Y0383400D03*
D574*
X0154600Y0360300D03*
X0159600Y0360300D03*
X0164600Y0360300D03*
X0169600Y0360300D03*
X0174600Y0360300D03*
X0179600Y0360300D03*
X0184600Y0360300D03*
X0184600Y0336100D03*
X0179600Y0336100D03*
X0174600Y0336100D03*
X0169600Y0336100D03*
X0164600Y0336100D03*
X0159600Y0336100D03*
X0154600Y0336100D03*
D320*
X0213000Y0320100D03*
D346*
X0074940Y0318000D03*
X0051320Y0318000D03*
X0063130Y0299490D03*
D35*
X0102710Y0321200D02*
X0100400Y0327800D01*
X0100400Y0344600D01*
X0108800Y0351800D01*
X0113600Y0351800D01*
X0117200Y0354200D01*
X0124000Y0354480D01*
X0124000Y0357040D02*
X0119160Y0357040D01*
X0117200Y0359000D01*
X0117200Y0378200D01*
X0116490Y0378200D01*
X0110400Y0383400D02*
X0108800Y0381800D01*
X0108800Y0365000D01*
X0105960Y0362150D01*
X0095210Y0362150D01*
X0095210Y0359600D02*
X0102200Y0359600D01*
X0105200Y0357800D01*
X0105200Y0354480D02*
X0102800Y0354200D01*
X0095210Y0354480D01*
X0095210Y0354200D01*
X0088600Y0354200D01*
X0081400Y0354300D01*
X0074600Y0354300D01*
X0074600Y0350200D01*
X0074600Y0354300D02*
X0054440Y0354300D01*
X0063800Y0357600D02*
X0068000Y0357600D01*
X0063800Y0357600D02*
X0062600Y0360600D01*
X0054440Y0360600D01*
X0054440Y0363750D02*
X0067800Y0363750D01*
X0067800Y0363600D01*
X0062700Y0366900D02*
X0064400Y0369800D01*
X0064400Y0385400D01*
X0066800Y0387800D01*
X0073690Y0387800D01*
X0074600Y0388710D01*
X0089600Y0388710D01*
X0095600Y0388710D01*
X0095600Y0394000D01*
X0115110Y0394000D01*
X0115110Y0388200D01*
X0120800Y0388200D01*
X0123200Y0390200D01*
X0153200Y0390200D01*
X0154600Y0388200D01*
X0154600Y0368200D01*
X0149600Y0369800D02*
X0148110Y0369800D01*
X0149600Y0369800D02*
X0149600Y0362600D01*
X0128000Y0362600D01*
X0129200Y0361400D01*
X0129200Y0353000D01*
X0128120Y0351920D01*
X0124000Y0351920D01*
X0118520Y0351920D01*
X0118400Y0351800D01*
X0118400Y0349400D01*
X0117200Y0348200D01*
X0112400Y0348200D01*
X0113600Y0345800D01*
X0114800Y0344600D01*
X0123640Y0344600D01*
X0124000Y0344240D01*
X0124000Y0341680D02*
X0129890Y0341680D01*
X0131600Y0343400D01*
X0136400Y0338600D02*
X0138800Y0341000D01*
X0138800Y0348160D01*
X0140000Y0349360D01*
X0124000Y0349360D01*
X0112400Y0356600D02*
X0108520Y0354480D01*
X0105200Y0354480D01*
X0124000Y0362150D02*
X0124000Y0362600D01*
X0124000Y0364710D01*
X0124000Y0362600D02*
X0128000Y0362600D01*
X0130400Y0369800D02*
X0137090Y0369800D01*
X0137090Y0377000D01*
X0143600Y0377000D01*
X0143600Y0382200D01*
X0140000Y0383400D01*
X0130000Y0383400D02*
X0110400Y0383400D01*
X0089600Y0369800D02*
X0088400Y0371000D01*
X0089600Y0369800D02*
X0095170Y0369800D01*
X0095210Y0369830D01*
X0062700Y0366900D02*
X0054440Y0366900D01*
X0112200Y0340400D02*
X0117000Y0340200D01*
X0117000Y0339200D01*
X0120400Y0339200D01*
X0124000Y0339120D01*
X0124000Y0336560D02*
X0124000Y0336200D01*
X0105600Y0336200D01*
X0128000Y0333800D02*
X0129200Y0337400D01*
X0130400Y0338600D01*
X0136400Y0338600D01*
X0128000Y0333800D02*
X0132800Y0329000D01*
X0143600Y0329000D01*
X0145110Y0327490D01*
X0145110Y0323200D01*
X0144800Y0322890D01*
X0144800Y0313400D01*
X0144600Y0313200D01*
X0135110Y0313200D01*
X0126800Y0323000D02*
X0125000Y0321200D01*
X0116490Y0321200D01*
X0126800Y0323000D02*
X0133890Y0323000D01*
X0134090Y0323200D01*
X0147200Y0332600D02*
X0150800Y0329000D01*
X0156800Y0329000D01*
X0159200Y0331400D01*
X0159200Y0335700D01*
X0159600Y0336100D01*
X0147200Y0332600D02*
X0135200Y0332600D01*
X0140000Y0349360D02*
X0146000Y0349360D01*
X0146000Y0356600D01*
X0148400Y0359000D01*
X0153300Y0359000D01*
X0154600Y0360300D01*
X0154600Y0359000D01*
X0174600Y0345600D02*
X0174800Y0345800D01*
X0174600Y0345600D02*
X0174600Y0336100D01*
D436*
X0174800Y0345800D03*
X0135200Y0332600D03*
X0112200Y0340400D03*
X0105600Y0336200D03*
X0112400Y0348200D03*
X0131600Y0343400D03*
X0112400Y0356600D03*
X0105200Y0357800D03*
X0130400Y0369800D03*
X0088400Y0371000D03*
X0067800Y0363600D03*
X0068000Y0357600D03*
D498*
X0074600Y0354300D02*
X0074600Y0377690D01*
X0074600Y0378200D01*
X0089600Y0378200D01*
X0089600Y0377690D01*
X0102710Y0378200D02*
X0104600Y0378200D01*
X0104600Y0388200D01*
X0104090Y0388200D01*
X0154600Y0368200D02*
X0154600Y0360300D01*
X0154600Y0368200D02*
X0169600Y0376000D01*
X0179600Y0376000D02*
X0179600Y0368200D01*
X0184600Y0363200D01*
X0184600Y0360300D01*
X0179600Y0360300D02*
X0180000Y0358200D01*
X0180000Y0353200D01*
X0195000Y0353200D01*
X0195000Y0358200D01*
X0200000Y0363200D01*
X0225000Y0363200D01*
X0225000Y0333200D01*
X0215000Y0323200D01*
X0213000Y0320100D01*
X0213000Y0330100D02*
X0215000Y0333200D01*
X0220000Y0338200D01*
X0220000Y0343200D01*
X0215000Y0348200D01*
X0213000Y0350100D01*
X0207600Y0350600D01*
X0205000Y0353200D01*
X0203000Y0355100D01*
X0200000Y0353200D01*
X0185000Y0338200D01*
X0184600Y0336100D01*
X0185000Y0338200D02*
X0180000Y0338200D01*
X0179600Y0336100D01*
X0180000Y0333200D01*
X0180000Y0313200D01*
X0175000Y0308200D01*
X0175110Y0308200D01*
X0175000Y0308200D02*
X0170000Y0303200D01*
X0125000Y0303200D01*
X0125000Y0313200D01*
X0124090Y0313200D01*
X0092000Y0313400D01*
X0092000Y0318000D01*
X0074940Y0318000D01*
X0074600Y0318000D01*
X0074600Y0350200D01*
X0145000Y0323200D02*
X0145110Y0323200D01*
X0159090Y0323200D01*
X0160000Y0323200D01*
X0169600Y0323200D02*
X0169600Y0336100D01*
X0164600Y0336100D02*
X0164600Y0308200D01*
X0164090Y0308200D01*
X0169600Y0323200D02*
X0170110Y0323200D01*
X0203000Y0335100D02*
X0205000Y0338200D01*
X0210000Y0338200D01*
X0213000Y0340100D01*
X0174600Y0360300D02*
X0175000Y0363200D01*
X0175000Y0368200D01*
D527*
X0175000Y0368200D03*
X0038720Y0403260D02*
G75*
%LPD*%
D485*
X0358680Y0403260D02*
X0038720Y0403260D01*
X0038720Y0786960D01*
X0358680Y0786960D01*
X0358680Y0403260D01*
X0348680Y0407750D02*
X0348210Y0407770D01*
X0347750Y0407830D01*
X0347290Y0407930D01*
X0346840Y0408060D01*
X0346410Y0408240D01*
X0345990Y0408450D01*
X0345590Y0408690D01*
X0345220Y0408970D01*
X0344870Y0409280D01*
X0344540Y0409620D01*
X0344250Y0409980D01*
X0343990Y0410370D01*
X0343760Y0410780D01*
X0343570Y0411210D01*
X0343410Y0411650D01*
X0343290Y0412100D01*
X0343210Y0412560D01*
X0343170Y0413030D01*
X0343170Y0413490D01*
X0343210Y0413960D01*
X0343290Y0414420D01*
X0343410Y0414870D01*
X0343570Y0415310D01*
X0343760Y0415740D01*
X0343990Y0416150D01*
X0344250Y0416540D01*
X0344540Y0416900D01*
X0344870Y0417240D01*
X0345220Y0417550D01*
X0345590Y0417830D01*
X0345990Y0418070D01*
X0346410Y0418280D01*
X0346840Y0418460D01*
X0347290Y0418590D01*
X0347750Y0418690D01*
X0348210Y0418750D01*
X0348680Y0418770D01*
X0349150Y0418750D01*
X0349610Y0418690D01*
X0350070Y0418590D01*
X0350520Y0418460D01*
X0350950Y0418280D01*
X0351370Y0418070D01*
X0351770Y0417830D01*
X0352140Y0417550D01*
X0352490Y0417240D01*
X0352820Y0416900D01*
X0353110Y0416540D01*
X0353370Y0416150D01*
X0353600Y0415740D01*
X0353790Y0415310D01*
X0353950Y0414870D01*
X0354070Y0414420D01*
X0354150Y0413960D01*
X0354190Y0413490D01*
X0354190Y0413030D01*
X0354150Y0412560D01*
X0354070Y0412100D01*
X0353950Y0411650D01*
X0353790Y0411210D01*
X0353600Y0410780D01*
X0353370Y0410370D01*
X0353110Y0409980D01*
X0352820Y0409620D01*
X0352490Y0409280D01*
X0352140Y0408970D01*
X0351770Y0408690D01*
X0351370Y0408450D01*
X0350950Y0408240D01*
X0350520Y0408060D01*
X0350070Y0407930D01*
X0349610Y0407830D01*
X0349150Y0407770D01*
X0348680Y0407750D01*
X0313680Y0709460D02*
X0313180Y0709480D01*
X0312680Y0709540D01*
X0312190Y0709640D01*
X0311710Y0709780D01*
X0311240Y0709950D01*
X0310790Y0710160D01*
X0310350Y0710410D01*
X0309940Y0710690D01*
X0309550Y0711010D01*
X0309180Y0711350D01*
X0308840Y0711720D01*
X0308540Y0712120D01*
X0308270Y0712540D01*
X0308030Y0712980D01*
X0307820Y0713440D01*
X0307660Y0713910D01*
X0307530Y0714390D01*
X0307440Y0714890D01*
X0307390Y0715380D01*
X0307380Y0715890D01*
X0307410Y0716390D01*
X0307480Y0716880D01*
X0307590Y0717370D01*
X0307740Y0717850D01*
X0307920Y0718310D01*
X0308140Y0718760D01*
X0308400Y0719190D01*
X0308690Y0719600D01*
X0309010Y0719990D01*
X0309360Y0720350D01*
X0309740Y0720670D01*
X0310140Y0720970D01*
X0310570Y0721240D01*
X0311010Y0721470D01*
X0311470Y0721660D01*
X0311950Y0721820D01*
X0312440Y0721940D01*
X0312930Y0722020D01*
X0313430Y0722060D01*
X0313930Y0722060D01*
X0314430Y0722020D01*
X0314920Y0721940D01*
X0315410Y0721820D01*
X0315890Y0721660D01*
X0316350Y0721470D01*
X0316790Y0721240D01*
X0317220Y0720970D01*
X0317620Y0720670D01*
X0318000Y0720350D01*
X0318350Y0719990D01*
X0318670Y0719600D01*
X0318960Y0719190D01*
X0319220Y0718760D01*
X0319440Y0718310D01*
X0319620Y0717850D01*
X0319770Y0717370D01*
X0319880Y0716880D01*
X0319950Y0716390D01*
X0319980Y0715890D01*
X0319970Y0715380D01*
X0319920Y0714890D01*
X0319830Y0714390D01*
X0319700Y0713910D01*
X0319540Y0713440D01*
X0319330Y0712980D01*
X0319090Y0712540D01*
X0318820Y0712120D01*
X0318520Y0711720D01*
X0318180Y0711350D01*
X0317810Y0711010D01*
X0317420Y0710690D01*
X0317010Y0710410D01*
X0316570Y0710160D01*
X0316120Y0709950D01*
X0315650Y0709780D01*
X0315170Y0709640D01*
X0314680Y0709540D01*
X0314180Y0709480D01*
X0313680Y0709460D01*
X0313680Y0754460D02*
X0313180Y0754480D01*
X0312680Y0754540D01*
X0312190Y0754640D01*
X0311710Y0754780D01*
X0311240Y0754950D01*
X0310790Y0755160D01*
X0310350Y0755410D01*
X0309940Y0755690D01*
X0309550Y0756010D01*
X0309180Y0756350D01*
X0308840Y0756720D01*
X0308540Y0757120D01*
X0308270Y0757540D01*
X0308030Y0757980D01*
X0307820Y0758440D01*
X0307660Y0758910D01*
X0307530Y0759390D01*
X0307440Y0759890D01*
X0307390Y0760380D01*
X0307380Y0760890D01*
X0307410Y0761390D01*
X0307480Y0761880D01*
X0307590Y0762370D01*
X0307740Y0762850D01*
X0307920Y0763310D01*
X0308140Y0763760D01*
X0308400Y0764190D01*
X0308690Y0764600D01*
X0309010Y0764990D01*
X0309360Y0765350D01*
X0309740Y0765670D01*
X0310140Y0765970D01*
X0310570Y0766240D01*
X0311010Y0766470D01*
X0311470Y0766660D01*
X0311950Y0766820D01*
X0312440Y0766940D01*
X0312930Y0767020D01*
X0313430Y0767060D01*
X0313930Y0767060D01*
X0314430Y0767020D01*
X0314920Y0766940D01*
X0315410Y0766820D01*
X0315890Y0766660D01*
X0316350Y0766470D01*
X0316790Y0766240D01*
X0317220Y0765970D01*
X0317620Y0765670D01*
X0318000Y0765350D01*
X0318350Y0764990D01*
X0318670Y0764600D01*
X0318960Y0764190D01*
X0319220Y0763760D01*
X0319440Y0763310D01*
X0319620Y0762850D01*
X0319770Y0762370D01*
X0319880Y0761880D01*
X0319950Y0761390D01*
X0319980Y0760890D01*
X0319970Y0760380D01*
X0319920Y0759890D01*
X0319830Y0759390D01*
X0319700Y0758910D01*
X0319540Y0758440D01*
X0319330Y0757980D01*
X0319090Y0757540D01*
X0318820Y0757120D01*
X0318520Y0756720D01*
X0318180Y0756350D01*
X0317810Y0756010D01*
X0317420Y0755690D01*
X0317010Y0755410D01*
X0316570Y0755160D01*
X0316120Y0754950D01*
X0315650Y0754780D01*
X0315170Y0754640D01*
X0314680Y0754540D01*
X0314180Y0754480D01*
X0313680Y0754460D01*
X0348680Y0772750D02*
X0348210Y0772770D01*
X0347750Y0772830D01*
X0347290Y0772930D01*
X0346840Y0773060D01*
X0346410Y0773240D01*
X0345990Y0773450D01*
X0345590Y0773690D01*
X0345220Y0773970D01*
X0344870Y0774280D01*
X0344540Y0774620D01*
X0344250Y0774980D01*
X0343990Y0775370D01*
X0343760Y0775780D01*
X0343570Y0776210D01*
X0343410Y0776650D01*
X0343290Y0777100D01*
X0343210Y0777560D01*
X0343170Y0778030D01*
X0343170Y0778490D01*
X0343210Y0778960D01*
X0343290Y0779420D01*
X0343410Y0779870D01*
X0343570Y0780310D01*
X0343760Y0780740D01*
X0343990Y0781150D01*
X0344250Y0781540D01*
X0344540Y0781900D01*
X0344870Y0782240D01*
X0345220Y0782550D01*
X0345590Y0782830D01*
X0345990Y0783070D01*
X0346410Y0783280D01*
X0346840Y0783460D01*
X0347290Y0783590D01*
X0347750Y0783690D01*
X0348210Y0783750D01*
X0348680Y0783770D01*
X0349150Y0783750D01*
X0349610Y0783690D01*
X0350070Y0783590D01*
X0350520Y0783460D01*
X0350950Y0783280D01*
X0351370Y0783070D01*
X0351770Y0782830D01*
X0352140Y0782550D01*
X0352490Y0782240D01*
X0352820Y0781900D01*
X0353110Y0781540D01*
X0353370Y0781150D01*
X0353600Y0780740D01*
X0353790Y0780310D01*
X0353950Y0779870D01*
X0354070Y0779420D01*
X0354150Y0778960D01*
X0354190Y0778490D01*
X0354190Y0778030D01*
X0354150Y0777560D01*
X0354070Y0777100D01*
X0353950Y0776650D01*
X0353790Y0776210D01*
X0353600Y0775780D01*
X0353370Y0775370D01*
X0353110Y0774980D01*
X0352820Y0774620D01*
X0352490Y0774280D01*
X0352140Y0773970D01*
X0351770Y0773690D01*
X0351370Y0773450D01*
X0350950Y0773240D01*
X0350520Y0773060D01*
X0350070Y0772930D01*
X0349610Y0772830D01*
X0349150Y0772770D01*
X0348680Y0772750D01*
X0048680Y0772750D02*
X0048210Y0772770D01*
X0047750Y0772830D01*
X0047290Y0772930D01*
X0046840Y0773060D01*
X0046410Y0773240D01*
X0045990Y0773450D01*
X0045590Y0773690D01*
X0045220Y0773970D01*
X0044870Y0774280D01*
X0044540Y0774620D01*
X0044250Y0774980D01*
X0043990Y0775370D01*
X0043760Y0775780D01*
X0043570Y0776210D01*
X0043410Y0776650D01*
X0043290Y0777100D01*
X0043210Y0777560D01*
X0043170Y0778030D01*
X0043170Y0778490D01*
X0043210Y0778960D01*
X0043290Y0779420D01*
X0043410Y0779870D01*
X0043570Y0780310D01*
X0043760Y0780740D01*
X0043990Y0781150D01*
X0044250Y0781540D01*
X0044540Y0781900D01*
X0044870Y0782240D01*
X0045220Y0782550D01*
X0045590Y0782830D01*
X0045990Y0783070D01*
X0046410Y0783280D01*
X0046840Y0783460D01*
X0047290Y0783590D01*
X0047750Y0783690D01*
X0048210Y0783750D01*
X0048680Y0783770D01*
X0049150Y0783750D01*
X0049610Y0783690D01*
X0050070Y0783590D01*
X0050520Y0783460D01*
X0050950Y0783280D01*
X0051370Y0783070D01*
X0051770Y0782830D01*
X0052140Y0782550D01*
X0052490Y0782240D01*
X0052820Y0781900D01*
X0053110Y0781540D01*
X0053370Y0781150D01*
X0053600Y0780740D01*
X0053790Y0780310D01*
X0053950Y0779870D01*
X0054070Y0779420D01*
X0054150Y0778960D01*
X0054190Y0778490D01*
X0054190Y0778030D01*
X0054150Y0777560D01*
X0054070Y0777100D01*
X0053950Y0776650D01*
X0053790Y0776210D01*
X0053600Y0775780D01*
X0053370Y0775370D01*
X0053110Y0774980D01*
X0052820Y0774620D01*
X0052490Y0774280D01*
X0052140Y0773970D01*
X0051770Y0773690D01*
X0051370Y0773450D01*
X0050950Y0773240D01*
X0050520Y0773060D01*
X0050070Y0772930D01*
X0049610Y0772830D01*
X0049150Y0772770D01*
X0048680Y0772750D01*
X0048680Y0407750D02*
X0048210Y0407770D01*
X0047750Y0407830D01*
X0047290Y0407930D01*
X0046840Y0408060D01*
X0046410Y0408240D01*
X0045990Y0408450D01*
X0045590Y0408690D01*
X0045220Y0408970D01*
X0044870Y0409280D01*
X0044540Y0409620D01*
X0044250Y0409980D01*
X0043990Y0410370D01*
X0043760Y0410780D01*
X0043570Y0411210D01*
X0043410Y0411650D01*
X0043290Y0412100D01*
X0043210Y0412560D01*
X0043170Y0413030D01*
X0043170Y0413490D01*
X0043210Y0413960D01*
X0043290Y0414420D01*
X0043410Y0414870D01*
X0043570Y0415310D01*
X0043760Y0415740D01*
X0043990Y0416150D01*
X0044250Y0416540D01*
X0044540Y0416900D01*
X0044870Y0417240D01*
X0045220Y0417550D01*
X0045590Y0417830D01*
X0045990Y0418070D01*
X0046410Y0418280D01*
X0046840Y0418460D01*
X0047290Y0418590D01*
X0047750Y0418690D01*
X0048210Y0418750D01*
X0048680Y0418770D01*
X0049150Y0418750D01*
X0049610Y0418690D01*
X0050070Y0418590D01*
X0050520Y0418460D01*
X0050950Y0418280D01*
X0051370Y0418070D01*
X0051770Y0417830D01*
X0052140Y0417550D01*
X0052490Y0417240D01*
X0052820Y0416900D01*
X0053110Y0416540D01*
X0053370Y0416150D01*
X0053600Y0415740D01*
X0053790Y0415310D01*
X0053950Y0414870D01*
X0054070Y0414420D01*
X0054150Y0413960D01*
X0054190Y0413490D01*
X0054190Y0413030D01*
X0054150Y0412560D01*
X0054070Y0412100D01*
X0053950Y0411650D01*
X0053790Y0411210D01*
X0053600Y0410780D01*
X0053370Y0410370D01*
X0053110Y0409980D01*
X0052820Y0409620D01*
X0052490Y0409280D01*
X0052140Y0408970D01*
X0051770Y0408690D01*
X0051370Y0408450D01*
X0050950Y0408240D01*
X0050520Y0408060D01*
X0050070Y0407930D01*
X0049610Y0407830D01*
X0049150Y0407770D01*
X0048680Y0407750D01*
D574*
X0258680Y0646160D03*
X0263680Y0646160D03*
X0268680Y0646160D03*
X0273680Y0646160D03*
X0278680Y0646160D03*
X0283680Y0646160D03*
X0288680Y0646160D03*
X0288680Y0670360D03*
X0283680Y0670360D03*
X0278680Y0670360D03*
X0273680Y0670360D03*
X0268680Y0670360D03*
X0263680Y0670360D03*
X0258680Y0670360D03*
D599*
X0228680Y0658260D02*
X0228680Y0653060D01*
X0218680Y0653060D02*
X0218680Y0658260D01*
X0208680Y0658260D02*
X0208680Y0653060D01*
X0208680Y0688260D02*
X0208680Y0693460D01*
X0218680Y0693460D02*
X0218680Y0688260D01*
X0228680Y0688260D02*
X0228680Y0693460D01*
X0168880Y0698260D02*
X0163680Y0698260D01*
X0163680Y0688260D02*
X0168880Y0688260D01*
X0168880Y0678260D02*
X0163680Y0678260D01*
X0133680Y0678260D02*
X0128480Y0678260D01*
X0128480Y0688260D02*
X0133680Y0688260D01*
X0133680Y0698260D02*
X0128480Y0698260D01*
X0128480Y0743260D02*
X0133680Y0743260D01*
X0133680Y0753260D02*
X0128480Y0753260D01*
X0128480Y0763260D02*
X0133680Y0763260D01*
X0163680Y0763260D02*
X0168880Y0763260D01*
X0168880Y0753260D02*
X0163680Y0753260D01*
X0163680Y0743260D02*
X0168880Y0743260D01*
X0168880Y0638260D02*
X0163680Y0638260D01*
X0163680Y0628260D02*
X0168880Y0628260D01*
X0168880Y0618260D02*
X0163680Y0618260D01*
X0133680Y0618260D02*
X0128480Y0618260D01*
X0128480Y0628260D02*
X0133680Y0628260D01*
X0133680Y0638260D02*
X0128480Y0638260D01*
X0128480Y0578260D02*
X0133680Y0578260D01*
X0133680Y0568260D02*
X0128480Y0568260D01*
X0128480Y0558260D02*
X0133680Y0558260D01*
X0163680Y0558260D02*
X0168880Y0558260D01*
X0168880Y0568260D02*
X0163680Y0568260D01*
X0163680Y0578260D02*
X0168880Y0578260D01*
X0168880Y0523260D02*
X0163680Y0523260D01*
X0163680Y0513260D02*
X0168880Y0513260D01*
X0168880Y0503260D02*
X0163680Y0503260D01*
X0133680Y0503260D02*
X0128480Y0503260D01*
X0128480Y0513260D02*
X0133680Y0513260D01*
X0133680Y0523260D02*
X0128480Y0523260D01*
X0128480Y0463260D02*
X0133680Y0463260D01*
X0133680Y0453260D02*
X0128480Y0453260D01*
X0128480Y0443260D02*
X0133680Y0443260D01*
X0163680Y0443260D02*
X0168880Y0443260D01*
X0168880Y0453260D02*
X0163680Y0453260D01*
X0163680Y0463260D02*
X0168880Y0463260D01*
X0231080Y0473260D02*
X0236280Y0473260D01*
X0236280Y0483260D02*
X0231080Y0483260D01*
X0231080Y0493260D02*
X0236280Y0493260D01*
X0236280Y0503260D02*
X0231080Y0503260D01*
X0231080Y0513260D02*
X0236280Y0513260D01*
X0236280Y0523260D02*
X0231080Y0523260D01*
X0231080Y0533260D02*
X0236280Y0533260D01*
X0236280Y0543260D02*
X0231080Y0543260D01*
X0231080Y0553260D02*
X0236280Y0553260D01*
X0236280Y0563260D02*
X0231080Y0563260D01*
X0231080Y0573260D02*
X0236280Y0573260D01*
X0236280Y0583260D02*
X0231080Y0583260D01*
X0231080Y0593260D02*
X0236280Y0593260D01*
X0236280Y0603260D02*
X0231080Y0603260D01*
X0261080Y0603260D02*
X0266280Y0603260D01*
X0266280Y0593260D02*
X0261080Y0593260D01*
X0261080Y0583260D02*
X0266280Y0583260D01*
X0266280Y0573260D02*
X0261080Y0573260D01*
X0261080Y0563260D02*
X0266280Y0563260D01*
X0266280Y0553260D02*
X0261080Y0553260D01*
X0261080Y0543260D02*
X0266280Y0543260D01*
X0266280Y0533260D02*
X0261080Y0533260D01*
X0261080Y0523260D02*
X0266280Y0523260D01*
X0266280Y0513260D02*
X0261080Y0513260D01*
X0261080Y0503260D02*
X0266280Y0503260D01*
X0266280Y0493260D02*
X0261080Y0493260D01*
X0261080Y0483260D02*
X0266280Y0483260D01*
X0266280Y0473260D02*
X0261080Y0473260D01*
D173*
X0293680Y0468260D03*
X0294680Y0478260D03*
X0293680Y0488260D03*
X0294680Y0498260D03*
X0293680Y0508260D03*
X0294680Y0518260D03*
X0133680Y0543260D03*
X0093680Y0543260D03*
X0078680Y0543260D03*
X0078680Y0523260D03*
X0078680Y0483260D03*
X0093680Y0483260D03*
X0078680Y0463260D03*
X0078680Y0423260D03*
X0093680Y0423260D03*
X0133680Y0423260D03*
X0133680Y0483260D03*
X0078680Y0583260D03*
X0078680Y0603260D03*
X0093680Y0603260D03*
X0078680Y0643260D03*
X0078680Y0663260D03*
X0093680Y0663260D03*
X0078680Y0703260D03*
X0078680Y0723260D03*
X0093680Y0723260D03*
X0078680Y0763260D03*
X0133680Y0723260D03*
X0133680Y0663260D03*
X0133680Y0603260D03*
X0208680Y0708260D03*
X0228680Y0708260D03*
X0228680Y0748260D03*
X0208680Y0748260D03*
X0278680Y0745760D03*
X0278680Y0755760D03*
X0288680Y0750760D03*
X0288680Y0740760D03*
X0288680Y0730760D03*
X0278680Y0735760D03*
X0278680Y0725760D03*
D291*
X0248680Y0663770D03*
X0248680Y0652740D03*
X0218680Y0508770D03*
X0218680Y0497740D03*
X0218680Y0483770D03*
X0218680Y0472740D03*
X0203680Y0472740D03*
X0203680Y0483770D03*
X0278680Y0478770D03*
X0278680Y0467740D03*
X0093680Y0497740D03*
X0093680Y0508770D03*
X0093680Y0557740D03*
X0093680Y0568770D03*
X0093680Y0617740D03*
X0093680Y0628770D03*
X0093680Y0677740D03*
X0093680Y0688770D03*
X0093680Y0737740D03*
X0093680Y0748770D03*
D1303*
X0325880Y0687360D03*
X0325880Y0678260D03*
X0325880Y0669160D03*
X0325880Y0607360D03*
X0325880Y0598260D03*
X0325880Y0589160D03*
D1304*
X0301480Y0598260D03*
X0301480Y0678260D03*
D158*
X0116680Y0683260D02*
X0110680Y0683260D01*
X0110680Y0693260D02*
X0116680Y0693260D01*
X0116680Y0703260D02*
X0110680Y0703260D01*
X0110680Y0743260D02*
X0116680Y0743260D01*
X0116680Y0753260D02*
X0110680Y0753260D01*
X0110680Y0763260D02*
X0116680Y0763260D01*
X0116680Y0643260D02*
X0110680Y0643260D01*
X0110680Y0633260D02*
X0116680Y0633260D01*
X0116680Y0623260D02*
X0110680Y0623260D01*
X0110680Y0583260D02*
X0116680Y0583260D01*
X0116680Y0573260D02*
X0110680Y0573260D01*
X0110680Y0563260D02*
X0116680Y0563260D01*
X0116680Y0523260D02*
X0110680Y0523260D01*
X0110680Y0513260D02*
X0116680Y0513260D01*
X0116680Y0503260D02*
X0110680Y0503260D01*
X0110680Y0463260D02*
X0116680Y0463260D01*
X0116680Y0453260D02*
X0110680Y0453260D01*
X0110680Y0443260D02*
X0116680Y0443260D01*
D224*
X0093680Y0453100D03*
X0093680Y0433410D03*
X0343680Y0568260D03*
X0343680Y0598260D03*
X0343680Y0648260D03*
X0343680Y0678260D03*
D12*
X0229190Y0638260D03*
X0218170Y0638260D03*
X0164190Y0663260D03*
X0153170Y0663260D03*
X0153170Y0603260D03*
X0164190Y0603260D03*
X0164190Y0543260D03*
X0153170Y0543260D03*
X0153170Y0488260D03*
X0164190Y0488260D03*
X0164190Y0428260D03*
X0153170Y0428260D03*
X0153170Y0728260D03*
X0164190Y0728260D03*
D320*
X0288680Y0720760D03*
D207*
X0343680Y0688260D03*
X0343680Y0658260D03*
X0343680Y0608260D03*
X0343680Y0578260D03*
D346*
X0328680Y0517190D03*
X0347180Y0505380D03*
X0328680Y0493570D03*
D102*
X0218680Y0768260D03*
X0053680Y0753260D03*
X0053680Y0693260D03*
X0053680Y0633260D03*
X0053680Y0573260D03*
X0053680Y0513260D03*
X0053680Y0453260D03*
D260*
X0053680Y0433570D03*
X0053680Y0493570D03*
X0053680Y0553570D03*
X0053680Y0613570D03*
X0053680Y0673570D03*
X0053680Y0733570D03*
X0198990Y0768260D03*
D289*
X0198680Y0768260D01*
X0198990Y0768260D02*
X0203680Y0768260D01*
X0228680Y0748260D01*
X0228680Y0708260D02*
X0228680Y0688260D01*
X0218680Y0688260D02*
X0218680Y0708260D01*
X0208680Y0708260D01*
X0178680Y0688260D02*
X0163680Y0688260D01*
X0163680Y0678260D02*
X0153680Y0678260D01*
X0153680Y0663260D01*
X0153170Y0663260D01*
X0158680Y0668260D02*
X0158680Y0623260D01*
X0193680Y0623260D01*
X0223680Y0593260D01*
X0233680Y0593260D01*
X0258680Y0588260D02*
X0263680Y0583260D01*
X0258680Y0588260D02*
X0143680Y0588260D01*
X0143680Y0663260D01*
X0138680Y0668260D01*
X0138680Y0703260D01*
X0163680Y0728260D01*
X0164190Y0728260D01*
X0153680Y0728260D02*
X0153170Y0728260D01*
X0153680Y0728260D02*
X0153680Y0743260D01*
X0163680Y0743260D01*
X0133680Y0743260D02*
X0133680Y0723260D01*
X0128680Y0703260D02*
X0113680Y0703260D01*
X0128680Y0703260D02*
X0133680Y0698260D01*
X0133680Y0678260D02*
X0133680Y0663260D01*
X0128680Y0643260D02*
X0113680Y0643260D01*
X0128680Y0643260D02*
X0133680Y0638260D01*
X0133680Y0618260D02*
X0133680Y0603260D01*
X0153170Y0603260D02*
X0153680Y0603260D01*
X0153680Y0618260D01*
X0163680Y0618260D01*
X0178680Y0618260D02*
X0163680Y0603260D01*
X0164190Y0603260D01*
X0178680Y0618260D02*
X0183680Y0618260D01*
X0188680Y0648260D02*
X0163680Y0673260D01*
X0158680Y0668260D01*
X0163680Y0663260D02*
X0164190Y0663260D01*
X0163680Y0663260D02*
X0208680Y0618260D01*
X0343680Y0618260D01*
X0348680Y0613260D01*
X0348680Y0573260D01*
X0263680Y0573260D01*
X0268680Y0588260D02*
X0313680Y0588260D01*
X0323680Y0598260D01*
X0325880Y0598260D01*
X0343680Y0598260D01*
X0343680Y0608260D02*
X0328680Y0608260D01*
X0325880Y0607360D01*
X0325880Y0589160D02*
X0328680Y0588260D01*
X0338680Y0578260D01*
X0343680Y0578260D01*
X0353680Y0543260D02*
X0353680Y0613260D01*
X0343680Y0623260D01*
X0228680Y0623260D01*
X0228680Y0638260D01*
X0229190Y0638260D01*
X0218680Y0638260D02*
X0218170Y0638260D01*
X0218680Y0638260D02*
X0218680Y0658260D01*
X0213680Y0663260D02*
X0213680Y0648260D01*
X0188680Y0648260D01*
X0208680Y0658260D02*
X0178680Y0688260D01*
X0213680Y0663260D02*
X0233680Y0663260D01*
X0238680Y0658260D01*
X0278680Y0658260D01*
X0278680Y0646160D01*
X0273680Y0646160D02*
X0273680Y0643260D01*
X0258680Y0628260D01*
X0243680Y0628260D01*
X0253680Y0633260D02*
X0263680Y0643260D01*
X0263680Y0646160D01*
X0268680Y0646160D02*
X0268680Y0653260D01*
X0248680Y0653260D01*
X0248680Y0652740D01*
X0248680Y0643260D01*
X0248680Y0663260D02*
X0248680Y0663770D01*
X0248680Y0663260D02*
X0253680Y0668260D01*
X0258680Y0668260D01*
X0258680Y0670360D01*
X0258680Y0693260D01*
X0318680Y0693260D01*
X0323680Y0688260D01*
X0325880Y0687360D01*
X0328680Y0688260D01*
X0343680Y0688260D01*
X0348680Y0693260D02*
X0348680Y0678260D01*
X0343680Y0678260D01*
X0325880Y0678260D01*
X0318680Y0678260D01*
X0303680Y0663260D01*
X0328680Y0663260D01*
X0343680Y0648260D01*
X0343680Y0658260D02*
X0338680Y0658260D01*
X0328680Y0668260D01*
X0325880Y0669160D01*
X0303680Y0663260D02*
X0288680Y0648260D01*
X0288680Y0646160D01*
X0288680Y0648260D02*
X0283680Y0648260D01*
X0283680Y0646160D01*
X0273680Y0670360D02*
X0273680Y0683260D01*
X0268680Y0688260D02*
X0268680Y0670360D01*
X0288680Y0730760D02*
X0288680Y0733260D01*
X0298680Y0743260D01*
X0348680Y0693260D01*
X0298680Y0743260D02*
X0298680Y0748260D01*
X0288680Y0748260D01*
X0288680Y0750760D01*
X0288680Y0753260D01*
X0278680Y0753260D01*
X0278680Y0755760D01*
X0278680Y0738260D02*
X0288680Y0738260D01*
X0288680Y0740760D01*
X0278680Y0738260D02*
X0278680Y0735760D01*
X0263680Y0593260D02*
X0268680Y0588260D01*
X0263680Y0553260D02*
X0258680Y0548260D01*
X0168680Y0548260D01*
X0163680Y0543260D01*
X0164190Y0543260D01*
X0153680Y0543260D02*
X0153170Y0543260D01*
X0153680Y0543260D02*
X0153680Y0558260D01*
X0163680Y0558260D01*
X0133680Y0558260D02*
X0133680Y0543260D01*
X0133680Y0523260D02*
X0113680Y0523260D01*
X0093680Y0543260D02*
X0078680Y0543260D01*
X0093680Y0543260D02*
X0093680Y0557740D01*
X0093680Y0558260D01*
X0113680Y0583260D02*
X0128680Y0583260D01*
X0133680Y0578260D01*
X0093680Y0603260D02*
X0078680Y0603260D01*
X0093680Y0603260D02*
X0093680Y0617740D01*
X0093680Y0618260D01*
X0093680Y0663260D02*
X0078680Y0663260D01*
X0093680Y0663260D02*
X0093680Y0677740D01*
X0093680Y0678260D01*
X0093680Y0723260D02*
X0078680Y0723260D01*
X0093680Y0723260D02*
X0093680Y0737740D01*
X0093680Y0738260D01*
X0113680Y0763260D02*
X0133680Y0763260D01*
X0263680Y0543260D02*
X0353680Y0543260D01*
X0328680Y0493570D02*
X0298680Y0493260D01*
X0293680Y0488260D01*
X0218680Y0488260D01*
X0218680Y0497740D01*
X0218680Y0498260D01*
X0218680Y0488260D02*
X0218680Y0483770D01*
X0218680Y0483260D01*
X0233680Y0483260D01*
X0233680Y0473260D02*
X0218680Y0473260D01*
X0218680Y0472740D01*
X0218680Y0473260D02*
X0203680Y0473260D01*
X0203680Y0472740D01*
X0203680Y0483260D02*
X0203680Y0483770D01*
X0203680Y0483260D02*
X0178680Y0508260D01*
X0168680Y0508260D01*
X0163680Y0513260D01*
X0163680Y0503260D02*
X0153680Y0503260D01*
X0153680Y0488260D01*
X0153170Y0488260D01*
X0163680Y0488260D02*
X0164190Y0488260D01*
X0188680Y0488260D01*
X0203680Y0483260D02*
X0178680Y0458260D01*
X0168680Y0458260D01*
X0163680Y0453260D01*
X0163680Y0443260D02*
X0153680Y0443260D01*
X0153680Y0428260D01*
X0153170Y0428260D01*
X0163680Y0428260D02*
X0164190Y0428260D01*
X0163680Y0428260D02*
X0198680Y0463260D01*
X0243680Y0463260D01*
X0263680Y0483260D01*
X0263680Y0473260D02*
X0268680Y0468260D01*
X0278680Y0468260D01*
X0278680Y0467740D01*
X0278680Y0468260D02*
X0293680Y0468260D01*
X0294680Y0478260D02*
X0278680Y0478260D01*
X0278680Y0478770D01*
X0268680Y0498260D02*
X0294680Y0498260D01*
X0293680Y0508260D02*
X0268680Y0508260D01*
X0263680Y0513260D01*
X0263680Y0503260D02*
X0268680Y0498260D01*
X0233680Y0513260D02*
X0223680Y0513260D01*
X0218680Y0508260D01*
X0218680Y0508770D01*
X0218680Y0483260D02*
X0203680Y0483260D01*
X0133680Y0483260D02*
X0133680Y0503260D01*
X0133680Y0463260D02*
X0113680Y0463260D01*
X0093680Y0483260D02*
X0078680Y0483260D01*
X0093680Y0483260D02*
X0093680Y0497740D01*
X0093680Y0498260D01*
X0133680Y0443260D02*
X0133680Y0423260D01*
X0093680Y0423260D02*
X0078680Y0423260D01*
X0093680Y0423260D02*
X0093680Y0433410D01*
D602*
X0188680Y0488260D03*
X0183680Y0618260D03*
X0243680Y0628260D03*
X0253680Y0633260D03*
X0248680Y0643260D03*
X0273680Y0683260D03*
X0268680Y0688260D03*
X0343680Y0623260D03*
D458*
X0113680Y0623260D02*
X0108680Y0623260D01*
X0103680Y0628260D01*
X0093680Y0628260D01*
X0093680Y0628770D01*
X0093680Y0628260D02*
X0068680Y0628260D01*
X0053680Y0613260D01*
X0053680Y0613570D01*
X0068680Y0568260D02*
X0093680Y0568260D01*
X0093680Y0568770D01*
X0093680Y0568260D02*
X0103680Y0568260D01*
X0108680Y0563260D01*
X0113680Y0563260D01*
X0068680Y0568260D02*
X0053680Y0553260D01*
X0053680Y0553570D01*
X0068680Y0508260D02*
X0093680Y0508260D01*
X0093680Y0508770D01*
X0093680Y0508260D02*
X0103680Y0508260D01*
X0108680Y0503260D01*
X0113680Y0503260D01*
X0098680Y0463260D02*
X0078680Y0463260D01*
X0063680Y0463260D01*
X0053680Y0453260D01*
X0053680Y0433570D02*
X0053680Y0433260D01*
X0073680Y0453260D01*
X0093680Y0453260D01*
X0093680Y0453100D01*
X0098680Y0463260D02*
X0108680Y0453260D01*
X0113680Y0453260D01*
X0068680Y0508260D02*
X0053680Y0493260D01*
X0053680Y0493570D01*
X0053680Y0673260D02*
X0053680Y0673570D01*
X0053680Y0673260D02*
X0068680Y0688260D01*
X0093680Y0688260D01*
X0093680Y0688770D01*
X0093680Y0688260D02*
X0103680Y0688260D01*
X0108680Y0683260D01*
X0113680Y0683260D01*
X0113680Y0743260D02*
X0108680Y0743260D01*
X0103680Y0748260D01*
X0093680Y0748260D01*
X0093680Y0748770D01*
X0093680Y0748260D02*
X0068680Y0748260D01*
X0053680Y0733260D01*
X0053680Y0733570D01*
X0365180Y0410200D02*
G75*
%LPD*%
D485*
X0685140Y0410200D02*
X0365180Y0410200D01*
X0365180Y0793900D01*
X0685140Y0793900D01*
X0685140Y0410200D01*
X0675140Y0414690D02*
X0674670Y0414710D01*
X0674210Y0414770D01*
X0673750Y0414870D01*
X0673300Y0415000D01*
X0672870Y0415180D01*
X0672450Y0415390D01*
X0672050Y0415630D01*
X0671680Y0415910D01*
X0671330Y0416220D01*
X0671000Y0416560D01*
X0670710Y0416920D01*
X0670450Y0417310D01*
X0670220Y0417720D01*
X0670030Y0418150D01*
X0669870Y0418590D01*
X0669750Y0419040D01*
X0669670Y0419500D01*
X0669630Y0419970D01*
X0669630Y0420430D01*
X0669670Y0420900D01*
X0669750Y0421360D01*
X0669870Y0421810D01*
X0670030Y0422250D01*
X0670220Y0422680D01*
X0670450Y0423090D01*
X0670710Y0423480D01*
X0671000Y0423840D01*
X0671330Y0424180D01*
X0671680Y0424490D01*
X0672050Y0424770D01*
X0672450Y0425010D01*
X0672870Y0425220D01*
X0673300Y0425400D01*
X0673750Y0425530D01*
X0674210Y0425630D01*
X0674670Y0425690D01*
X0675140Y0425710D01*
X0675610Y0425690D01*
X0676070Y0425630D01*
X0676530Y0425530D01*
X0676980Y0425400D01*
X0677410Y0425220D01*
X0677830Y0425010D01*
X0678230Y0424770D01*
X0678600Y0424490D01*
X0678950Y0424180D01*
X0679280Y0423840D01*
X0679570Y0423480D01*
X0679830Y0423090D01*
X0680060Y0422680D01*
X0680250Y0422250D01*
X0680410Y0421810D01*
X0680530Y0421360D01*
X0680610Y0420900D01*
X0680650Y0420430D01*
X0680650Y0419970D01*
X0680610Y0419500D01*
X0680530Y0419040D01*
X0680410Y0418590D01*
X0680250Y0418150D01*
X0680060Y0417720D01*
X0679830Y0417310D01*
X0679570Y0416920D01*
X0679280Y0416560D01*
X0678950Y0416220D01*
X0678600Y0415910D01*
X0678230Y0415630D01*
X0677830Y0415390D01*
X0677410Y0415180D01*
X0676980Y0415000D01*
X0676530Y0414870D01*
X0676070Y0414770D01*
X0675610Y0414710D01*
X0675140Y0414690D01*
X0640140Y0716400D02*
X0639640Y0716420D01*
X0639140Y0716480D01*
X0638650Y0716580D01*
X0638170Y0716720D01*
X0637700Y0716890D01*
X0637250Y0717100D01*
X0636810Y0717350D01*
X0636400Y0717630D01*
X0636010Y0717950D01*
X0635640Y0718290D01*
X0635300Y0718660D01*
X0635000Y0719060D01*
X0634730Y0719480D01*
X0634490Y0719920D01*
X0634280Y0720380D01*
X0634120Y0720850D01*
X0633990Y0721330D01*
X0633900Y0721830D01*
X0633850Y0722320D01*
X0633840Y0722830D01*
X0633870Y0723330D01*
X0633940Y0723820D01*
X0634050Y0724310D01*
X0634200Y0724790D01*
X0634380Y0725250D01*
X0634600Y0725700D01*
X0634860Y0726130D01*
X0635150Y0726540D01*
X0635470Y0726930D01*
X0635820Y0727290D01*
X0636200Y0727610D01*
X0636600Y0727910D01*
X0637030Y0728180D01*
X0637470Y0728410D01*
X0637930Y0728600D01*
X0638410Y0728760D01*
X0638900Y0728880D01*
X0639390Y0728960D01*
X0639890Y0729000D01*
X0640390Y0729000D01*
X0640890Y0728960D01*
X0641380Y0728880D01*
X0641870Y0728760D01*
X0642350Y0728600D01*
X0642810Y0728410D01*
X0643250Y0728180D01*
X0643680Y0727910D01*
X0644080Y0727610D01*
X0644460Y0727290D01*
X0644810Y0726930D01*
X0645130Y0726540D01*
X0645420Y0726130D01*
X0645680Y0725700D01*
X0645900Y0725250D01*
X0646080Y0724790D01*
X0646230Y0724310D01*
X0646340Y0723820D01*
X0646410Y0723330D01*
X0646440Y0722830D01*
X0646430Y0722320D01*
X0646380Y0721830D01*
X0646290Y0721330D01*
X0646160Y0720850D01*
X0646000Y0720380D01*
X0645790Y0719920D01*
X0645550Y0719480D01*
X0645280Y0719060D01*
X0644980Y0718660D01*
X0644640Y0718290D01*
X0644270Y0717950D01*
X0643880Y0717630D01*
X0643470Y0717350D01*
X0643030Y0717100D01*
X0642580Y0716890D01*
X0642110Y0716720D01*
X0641630Y0716580D01*
X0641140Y0716480D01*
X0640640Y0716420D01*
X0640140Y0716400D01*
X0640140Y0761400D02*
X0639640Y0761420D01*
X0639140Y0761480D01*
X0638650Y0761580D01*
X0638170Y0761720D01*
X0637700Y0761890D01*
X0637250Y0762100D01*
X0636810Y0762350D01*
X0636400Y0762630D01*
X0636010Y0762950D01*
X0635640Y0763290D01*
X0635300Y0763660D01*
X0635000Y0764060D01*
X0634730Y0764480D01*
X0634490Y0764920D01*
X0634280Y0765380D01*
X0634120Y0765850D01*
X0633990Y0766330D01*
X0633900Y0766830D01*
X0633850Y0767320D01*
X0633840Y0767830D01*
X0633870Y0768330D01*
X0633940Y0768820D01*
X0634050Y0769310D01*
X0634200Y0769790D01*
X0634380Y0770250D01*
X0634600Y0770700D01*
X0634860Y0771130D01*
X0635150Y0771540D01*
X0635470Y0771930D01*
X0635820Y0772290D01*
X0636200Y0772610D01*
X0636600Y0772910D01*
X0637030Y0773180D01*
X0637470Y0773410D01*
X0637930Y0773600D01*
X0638410Y0773760D01*
X0638900Y0773880D01*
X0639390Y0773960D01*
X0639890Y0774000D01*
X0640390Y0774000D01*
X0640890Y0773960D01*
X0641380Y0773880D01*
X0641870Y0773760D01*
X0642350Y0773600D01*
X0642810Y0773410D01*
X0643250Y0773180D01*
X0643680Y0772910D01*
X0644080Y0772610D01*
X0644460Y0772290D01*
X0644810Y0771930D01*
X0645130Y0771540D01*
X0645420Y0771130D01*
X0645680Y0770700D01*
X0645900Y0770250D01*
X0646080Y0769790D01*
X0646230Y0769310D01*
X0646340Y0768820D01*
X0646410Y0768330D01*
X0646440Y0767830D01*
X0646430Y0767320D01*
X0646380Y0766830D01*
X0646290Y0766330D01*
X0646160Y0765850D01*
X0646000Y0765380D01*
X0645790Y0764920D01*
X0645550Y0764480D01*
X0645280Y0764060D01*
X0644980Y0763660D01*
X0644640Y0763290D01*
X0644270Y0762950D01*
X0643880Y0762630D01*
X0643470Y0762350D01*
X0643030Y0762100D01*
X0642580Y0761890D01*
X0642110Y0761720D01*
X0641630Y0761580D01*
X0641140Y0761480D01*
X0640640Y0761420D01*
X0640140Y0761400D01*
X0675140Y0779690D02*
X0674670Y0779710D01*
X0674210Y0779770D01*
X0673750Y0779870D01*
X0673300Y0780000D01*
X0672870Y0780180D01*
X0672450Y0780390D01*
X0672050Y0780630D01*
X0671680Y0780910D01*
X0671330Y0781220D01*
X0671000Y0781560D01*
X0670710Y0781920D01*
X0670450Y0782310D01*
X0670220Y0782720D01*
X0670030Y0783150D01*
X0669870Y0783590D01*
X0669750Y0784040D01*
X0669670Y0784500D01*
X0669630Y0784970D01*
X0669630Y0785430D01*
X0669670Y0785900D01*
X0669750Y0786360D01*
X0669870Y0786810D01*
X0670030Y0787250D01*
X0670220Y0787680D01*
X0670450Y0788090D01*
X0670710Y0788480D01*
X0671000Y0788840D01*
X0671330Y0789180D01*
X0671680Y0789490D01*
X0672050Y0789770D01*
X0672450Y0790010D01*
X0672870Y0790220D01*
X0673300Y0790400D01*
X0673750Y0790530D01*
X0674210Y0790630D01*
X0674670Y0790690D01*
X0675140Y0790710D01*
X0675610Y0790690D01*
X0676070Y0790630D01*
X0676530Y0790530D01*
X0676980Y0790400D01*
X0677410Y0790220D01*
X0677830Y0790010D01*
X0678230Y0789770D01*
X0678600Y0789490D01*
X0678950Y0789180D01*
X0679280Y0788840D01*
X0679570Y0788480D01*
X0679830Y0788090D01*
X0680060Y0787680D01*
X0680250Y0787250D01*
X0680410Y0786810D01*
X0680530Y0786360D01*
X0680610Y0785900D01*
X0680650Y0785430D01*
X0680650Y0784970D01*
X0680610Y0784500D01*
X0680530Y0784040D01*
X0680410Y0783590D01*
X0680250Y0783150D01*
X0680060Y0782720D01*
X0679830Y0782310D01*
X0679570Y0781920D01*
X0679280Y0781560D01*
X0678950Y0781220D01*
X0678600Y0780910D01*
X0678230Y0780630D01*
X0677830Y0780390D01*
X0677410Y0780180D01*
X0676980Y0780000D01*
X0676530Y0779870D01*
X0676070Y0779770D01*
X0675610Y0779710D01*
X0675140Y0779690D01*
X0375140Y0779690D02*
X0374670Y0779710D01*
X0374210Y0779770D01*
X0373750Y0779870D01*
X0373300Y0780000D01*
X0372870Y0780180D01*
X0372450Y0780390D01*
X0372050Y0780630D01*
X0371680Y0780910D01*
X0371330Y0781220D01*
X0371000Y0781560D01*
X0370710Y0781920D01*
X0370450Y0782310D01*
X0370220Y0782720D01*
X0370030Y0783150D01*
X0369870Y0783590D01*
X0369750Y0784040D01*
X0369670Y0784500D01*
X0369630Y0784970D01*
X0369630Y0785430D01*
X0369670Y0785900D01*
X0369750Y0786360D01*
X0369870Y0786810D01*
X0370030Y0787250D01*
X0370220Y0787680D01*
X0370450Y0788090D01*
X0370710Y0788480D01*
X0371000Y0788840D01*
X0371330Y0789180D01*
X0371680Y0789490D01*
X0372050Y0789770D01*
X0372450Y0790010D01*
X0372870Y0790220D01*
X0373300Y0790400D01*
X0373750Y0790530D01*
X0374210Y0790630D01*
X0374670Y0790690D01*
X0375140Y0790710D01*
X0375610Y0790690D01*
X0376070Y0790630D01*
X0376530Y0790530D01*
X0376980Y0790400D01*
X0377410Y0790220D01*
X0377830Y0790010D01*
X0378230Y0789770D01*
X0378600Y0789490D01*
X0378950Y0789180D01*
X0379280Y0788840D01*
X0379570Y0788480D01*
X0379830Y0788090D01*
X0380060Y0787680D01*
X0380250Y0787250D01*
X0380410Y0786810D01*
X0380530Y0786360D01*
X0380610Y0785900D01*
X0380650Y0785430D01*
X0380650Y0784970D01*
X0380610Y0784500D01*
X0380530Y0784040D01*
X0380410Y0783590D01*
X0380250Y0783150D01*
X0380060Y0782720D01*
X0379830Y0782310D01*
X0379570Y0781920D01*
X0379280Y0781560D01*
X0378950Y0781220D01*
X0378600Y0780910D01*
X0378230Y0780630D01*
X0377830Y0780390D01*
X0377410Y0780180D01*
X0376980Y0780000D01*
X0376530Y0779870D01*
X0376070Y0779770D01*
X0375610Y0779710D01*
X0375140Y0779690D01*
X0375140Y0414690D02*
X0374670Y0414710D01*
X0374210Y0414770D01*
X0373750Y0414870D01*
X0373300Y0415000D01*
X0372870Y0415180D01*
X0372450Y0415390D01*
X0372050Y0415630D01*
X0371680Y0415910D01*
X0371330Y0416220D01*
X0371000Y0416560D01*
X0370710Y0416920D01*
X0370450Y0417310D01*
X0370220Y0417720D01*
X0370030Y0418150D01*
X0369870Y0418590D01*
X0369750Y0419040D01*
X0369670Y0419500D01*
X0369630Y0419970D01*
X0369630Y0420430D01*
X0369670Y0420900D01*
X0369750Y0421360D01*
X0369870Y0421810D01*
X0370030Y0422250D01*
X0370220Y0422680D01*
X0370450Y0423090D01*
X0370710Y0423480D01*
X0371000Y0423840D01*
X0371330Y0424180D01*
X0371680Y0424490D01*
X0372050Y0424770D01*
X0372450Y0425010D01*
X0372870Y0425220D01*
X0373300Y0425400D01*
X0373750Y0425530D01*
X0374210Y0425630D01*
X0374670Y0425690D01*
X0375140Y0425710D01*
X0375610Y0425690D01*
X0376070Y0425630D01*
X0376530Y0425530D01*
X0376980Y0425400D01*
X0377410Y0425220D01*
X0377830Y0425010D01*
X0378230Y0424770D01*
X0378600Y0424490D01*
X0378950Y0424180D01*
X0379280Y0423840D01*
X0379570Y0423480D01*
X0379830Y0423090D01*
X0380060Y0422680D01*
X0380250Y0422250D01*
X0380410Y0421810D01*
X0380530Y0421360D01*
X0380610Y0420900D01*
X0380650Y0420430D01*
X0380650Y0419970D01*
X0380610Y0419500D01*
X0380530Y0419040D01*
X0380410Y0418590D01*
X0380250Y0418150D01*
X0380060Y0417720D01*
X0379830Y0417310D01*
X0379570Y0416920D01*
X0379280Y0416560D01*
X0378950Y0416220D01*
X0378600Y0415910D01*
X0378230Y0415630D01*
X0377830Y0415390D01*
X0377410Y0415180D01*
X0376980Y0415000D01*
X0376530Y0414870D01*
X0376070Y0414770D01*
X0375610Y0414710D01*
X0375140Y0414690D01*
D574*
X0585140Y0653100D03*
X0590140Y0653100D03*
X0595140Y0653100D03*
X0600140Y0653100D03*
X0605140Y0653100D03*
X0610140Y0653100D03*
X0615140Y0653100D03*
X0615140Y0677300D03*
X0610140Y0677300D03*
X0605140Y0677300D03*
X0600140Y0677300D03*
X0595140Y0677300D03*
X0590140Y0677300D03*
X0585140Y0677300D03*
D599*
X0555140Y0665200D02*
X0555140Y0660000D01*
X0545140Y0660000D02*
X0545140Y0665200D01*
X0535140Y0665200D02*
X0535140Y0660000D01*
X0535140Y0695200D02*
X0535140Y0700400D01*
X0545140Y0700400D02*
X0545140Y0695200D01*
X0555140Y0695200D02*
X0555140Y0700400D01*
X0495340Y0705200D02*
X0490140Y0705200D01*
X0490140Y0695200D02*
X0495340Y0695200D01*
X0495340Y0685200D02*
X0490140Y0685200D01*
X0460140Y0685200D02*
X0454940Y0685200D01*
X0454940Y0695200D02*
X0460140Y0695200D01*
X0460140Y0705200D02*
X0454940Y0705200D01*
X0454940Y0750200D02*
X0460140Y0750200D01*
X0460140Y0760200D02*
X0454940Y0760200D01*
X0454940Y0770200D02*
X0460140Y0770200D01*
X0490140Y0770200D02*
X0495340Y0770200D01*
X0495340Y0760200D02*
X0490140Y0760200D01*
X0490140Y0750200D02*
X0495340Y0750200D01*
X0495340Y0645200D02*
X0490140Y0645200D01*
X0490140Y0635200D02*
X0495340Y0635200D01*
X0495340Y0625200D02*
X0490140Y0625200D01*
X0460140Y0625200D02*
X0454940Y0625200D01*
X0454940Y0635200D02*
X0460140Y0635200D01*
X0460140Y0645200D02*
X0454940Y0645200D01*
X0454940Y0585200D02*
X0460140Y0585200D01*
X0460140Y0575200D02*
X0454940Y0575200D01*
X0454940Y0565200D02*
X0460140Y0565200D01*
X0490140Y0565200D02*
X0495340Y0565200D01*
X0495340Y0575200D02*
X0490140Y0575200D01*
X0490140Y0585200D02*
X0495340Y0585200D01*
X0495340Y0530200D02*
X0490140Y0530200D01*
X0490140Y0520200D02*
X0495340Y0520200D01*
X0495340Y0510200D02*
X0490140Y0510200D01*
X0460140Y0510200D02*
X0454940Y0510200D01*
X0454940Y0520200D02*
X0460140Y0520200D01*
X0460140Y0530200D02*
X0454940Y0530200D01*
X0454940Y0470200D02*
X0460140Y0470200D01*
X0460140Y0460200D02*
X0454940Y0460200D01*
X0454940Y0450200D02*
X0460140Y0450200D01*
X0490140Y0450200D02*
X0495340Y0450200D01*
X0495340Y0460200D02*
X0490140Y0460200D01*
X0490140Y0470200D02*
X0495340Y0470200D01*
X0557540Y0480200D02*
X0562740Y0480200D01*
X0562740Y0490200D02*
X0557540Y0490200D01*
X0557540Y0500200D02*
X0562740Y0500200D01*
X0562740Y0510200D02*
X0557540Y0510200D01*
X0557540Y0520200D02*
X0562740Y0520200D01*
X0562740Y0530200D02*
X0557540Y0530200D01*
X0557540Y0540200D02*
X0562740Y0540200D01*
X0562740Y0550200D02*
X0557540Y0550200D01*
X0557540Y0560200D02*
X0562740Y0560200D01*
X0562740Y0570200D02*
X0557540Y0570200D01*
X0557540Y0580200D02*
X0562740Y0580200D01*
X0562740Y0590200D02*
X0557540Y0590200D01*
X0557540Y0600200D02*
X0562740Y0600200D01*
X0562740Y0610200D02*
X0557540Y0610200D01*
X0587540Y0610200D02*
X0592740Y0610200D01*
X0592740Y0600200D02*
X0587540Y0600200D01*
X0587540Y0590200D02*
X0592740Y0590200D01*
X0592740Y0580200D02*
X0587540Y0580200D01*
X0587540Y0570200D02*
X0592740Y0570200D01*
X0592740Y0560200D02*
X0587540Y0560200D01*
X0587540Y0550200D02*
X0592740Y0550200D01*
X0592740Y0540200D02*
X0587540Y0540200D01*
X0587540Y0530200D02*
X0592740Y0530200D01*
X0592740Y0520200D02*
X0587540Y0520200D01*
X0587540Y0510200D02*
X0592740Y0510200D01*
X0592740Y0500200D02*
X0587540Y0500200D01*
X0587540Y0490200D02*
X0592740Y0490200D01*
X0592740Y0480200D02*
X0587540Y0480200D01*
D173*
X0620140Y0475200D03*
X0621140Y0485200D03*
X0620140Y0495200D03*
X0621140Y0505200D03*
X0620140Y0515200D03*
X0621140Y0525200D03*
X0460140Y0550200D03*
X0420140Y0550200D03*
X0405140Y0550200D03*
X0405140Y0530200D03*
X0405140Y0490200D03*
X0420140Y0490200D03*
X0405140Y0470200D03*
X0405140Y0430200D03*
X0420140Y0430200D03*
X0460140Y0430200D03*
X0460140Y0490200D03*
X0405140Y0590200D03*
X0405140Y0610200D03*
X0420140Y0610200D03*
X0405140Y0650200D03*
X0405140Y0670200D03*
X0420140Y0670200D03*
X0405140Y0710200D03*
X0405140Y0730200D03*
X0420140Y0730200D03*
X0405140Y0770200D03*
X0460140Y0730200D03*
X0460140Y0670200D03*
X0460140Y0610200D03*
X0535140Y0715200D03*
X0555140Y0715200D03*
X0555140Y0755200D03*
X0535140Y0755200D03*
X0605140Y0752700D03*
X0605140Y0762700D03*
X0615140Y0757700D03*
X0615140Y0747700D03*
X0615140Y0737700D03*
X0605140Y0742700D03*
X0605140Y0732700D03*
D291*
X0575140Y0670710D03*
X0575140Y0659680D03*
X0545140Y0515710D03*
X0545140Y0504680D03*
X0545140Y0490710D03*
X0545140Y0479680D03*
X0530140Y0479680D03*
X0530140Y0490710D03*
X0605140Y0485710D03*
X0605140Y0474680D03*
X0420140Y0504680D03*
X0420140Y0515710D03*
X0420140Y0564680D03*
X0420140Y0575710D03*
X0420140Y0624680D03*
X0420140Y0635710D03*
X0420140Y0684680D03*
X0420140Y0695710D03*
X0420140Y0744680D03*
X0420140Y0755710D03*
D1303*
X0652340Y0694300D03*
X0652340Y0685200D03*
X0652340Y0676100D03*
X0652340Y0614300D03*
X0652340Y0605200D03*
X0652340Y0596100D03*
D1304*
X0627940Y0605200D03*
X0627940Y0685200D03*
D158*
X0443140Y0690200D02*
X0437140Y0690200D01*
X0437140Y0700200D02*
X0443140Y0700200D01*
X0443140Y0710200D02*
X0437140Y0710200D01*
X0437140Y0750200D02*
X0443140Y0750200D01*
X0443140Y0760200D02*
X0437140Y0760200D01*
X0437140Y0770200D02*
X0443140Y0770200D01*
X0443140Y0650200D02*
X0437140Y0650200D01*
X0437140Y0640200D02*
X0443140Y0640200D01*
X0443140Y0630200D02*
X0437140Y0630200D01*
X0437140Y0590200D02*
X0443140Y0590200D01*
X0443140Y0580200D02*
X0437140Y0580200D01*
X0437140Y0570200D02*
X0443140Y0570200D01*
X0443140Y0530200D02*
X0437140Y0530200D01*
X0437140Y0520200D02*
X0443140Y0520200D01*
X0443140Y0510200D02*
X0437140Y0510200D01*
X0437140Y0470200D02*
X0443140Y0470200D01*
X0443140Y0460200D02*
X0437140Y0460200D01*
X0437140Y0450200D02*
X0443140Y0450200D01*
D224*
X0420140Y0460040D03*
X0420140Y0440350D03*
X0670140Y0575200D03*
X0670140Y0605200D03*
X0670140Y0655200D03*
X0670140Y0685200D03*
D12*
X0555650Y0645200D03*
X0544630Y0645200D03*
X0490650Y0670200D03*
X0479630Y0670200D03*
X0479630Y0610200D03*
X0490650Y0610200D03*
X0490650Y0550200D03*
X0479630Y0550200D03*
X0479630Y0495200D03*
X0490650Y0495200D03*
X0490650Y0435200D03*
X0479630Y0435200D03*
X0479630Y0735200D03*
X0490650Y0735200D03*
D320*
X0615140Y0727700D03*
D207*
X0670140Y0695200D03*
X0670140Y0665200D03*
X0670140Y0615200D03*
X0670140Y0585200D03*
D346*
X0655140Y0524130D03*
X0673640Y0512320D03*
X0655140Y0500510D03*
D102*
X0545140Y0775200D03*
X0380140Y0760200D03*
X0380140Y0700200D03*
X0380140Y0640200D03*
X0380140Y0580200D03*
X0380140Y0520200D03*
X0380140Y0460200D03*
D260*
X0380140Y0440510D03*
X0380140Y0500510D03*
X0380140Y0560510D03*
X0380140Y0620510D03*
X0380140Y0680510D03*
X0380140Y0740510D03*
X0525450Y0775200D03*
D289*
X0525140Y0775200D01*
X0525450Y0775200D02*
X0530140Y0775200D01*
X0555140Y0755200D01*
X0555140Y0715200D02*
X0555140Y0695200D01*
X0545140Y0695200D02*
X0545140Y0715200D01*
X0535140Y0715200D01*
X0505140Y0695200D02*
X0490140Y0695200D01*
X0490140Y0685200D02*
X0480140Y0685200D01*
X0480140Y0670200D01*
X0479630Y0670200D01*
X0485140Y0675200D02*
X0485140Y0630200D01*
X0520140Y0630200D01*
X0550140Y0600200D01*
X0560140Y0600200D01*
X0585140Y0595200D02*
X0590140Y0590200D01*
X0585140Y0595200D02*
X0470140Y0595200D01*
X0470140Y0670200D01*
X0465140Y0675200D01*
X0465140Y0710200D01*
X0490140Y0735200D01*
X0490650Y0735200D01*
X0480140Y0735200D02*
X0479630Y0735200D01*
X0480140Y0735200D02*
X0480140Y0750200D01*
X0490140Y0750200D01*
X0460140Y0750200D02*
X0460140Y0730200D01*
X0455140Y0710200D02*
X0440140Y0710200D01*
X0455140Y0710200D02*
X0460140Y0705200D01*
X0460140Y0685200D02*
X0460140Y0670200D01*
X0455140Y0650200D02*
X0440140Y0650200D01*
X0455140Y0650200D02*
X0460140Y0645200D01*
X0460140Y0625200D02*
X0460140Y0610200D01*
X0479630Y0610200D02*
X0480140Y0610200D01*
X0480140Y0625200D01*
X0490140Y0625200D01*
X0505140Y0625200D02*
X0490140Y0610200D01*
X0490650Y0610200D01*
X0505140Y0625200D02*
X0510140Y0625200D01*
X0515140Y0655200D02*
X0490140Y0680200D01*
X0485140Y0675200D01*
X0490140Y0670200D02*
X0490650Y0670200D01*
X0490140Y0670200D02*
X0535140Y0625200D01*
X0670140Y0625200D01*
X0675140Y0620200D01*
X0675140Y0580200D01*
X0590140Y0580200D01*
X0595140Y0595200D02*
X0640140Y0595200D01*
X0650140Y0605200D01*
X0652340Y0605200D01*
X0670140Y0605200D01*
X0670140Y0615200D02*
X0655140Y0615200D01*
X0652340Y0614300D01*
X0652340Y0596100D02*
X0655140Y0595200D01*
X0665140Y0585200D01*
X0670140Y0585200D01*
X0680140Y0550200D02*
X0680140Y0620200D01*
X0670140Y0630200D01*
X0555140Y0630200D01*
X0555140Y0645200D01*
X0555650Y0645200D01*
X0545140Y0645200D02*
X0544630Y0645200D01*
X0545140Y0645200D02*
X0545140Y0665200D01*
X0540140Y0670200D02*
X0540140Y0655200D01*
X0515140Y0655200D01*
X0535140Y0665200D02*
X0505140Y0695200D01*
X0540140Y0670200D02*
X0560140Y0670200D01*
X0565140Y0665200D01*
X0605140Y0665200D01*
X0605140Y0653100D01*
X0600140Y0653100D02*
X0600140Y0650200D01*
X0585140Y0635200D01*
X0570140Y0635200D01*
X0580140Y0640200D02*
X0590140Y0650200D01*
X0590140Y0653100D01*
X0595140Y0653100D02*
X0595140Y0660200D01*
X0575140Y0660200D01*
X0575140Y0659680D01*
X0575140Y0650200D01*
X0575140Y0670200D02*
X0575140Y0670710D01*
X0575140Y0670200D02*
X0580140Y0675200D01*
X0585140Y0675200D01*
X0585140Y0677300D01*
X0585140Y0700200D01*
X0645140Y0700200D01*
X0650140Y0695200D01*
X0652340Y0694300D01*
X0655140Y0695200D01*
X0670140Y0695200D01*
X0675140Y0700200D02*
X0675140Y0685200D01*
X0670140Y0685200D01*
X0652340Y0685200D01*
X0645140Y0685200D01*
X0630140Y0670200D01*
X0655140Y0670200D01*
X0670140Y0655200D01*
X0670140Y0665200D02*
X0665140Y0665200D01*
X0655140Y0675200D01*
X0652340Y0676100D01*
X0630140Y0670200D02*
X0615140Y0655200D01*
X0615140Y0653100D01*
X0615140Y0655200D02*
X0610140Y0655200D01*
X0610140Y0653100D01*
X0600140Y0677300D02*
X0600140Y0690200D01*
X0595140Y0695200D02*
X0595140Y0677300D01*
X0615140Y0737700D02*
X0615140Y0740200D01*
X0625140Y0750200D01*
X0675140Y0700200D01*
X0625140Y0750200D02*
X0625140Y0755200D01*
X0615140Y0755200D01*
X0615140Y0757700D01*
X0615140Y0760200D01*
X0605140Y0760200D01*
X0605140Y0762700D01*
X0605140Y0745200D02*
X0615140Y0745200D01*
X0615140Y0747700D01*
X0605140Y0745200D02*
X0605140Y0742700D01*
X0590140Y0600200D02*
X0595140Y0595200D01*
X0590140Y0560200D02*
X0585140Y0555200D01*
X0495140Y0555200D01*
X0490140Y0550200D01*
X0490650Y0550200D01*
X0480140Y0550200D02*
X0479630Y0550200D01*
X0480140Y0550200D02*
X0480140Y0565200D01*
X0490140Y0565200D01*
X0460140Y0565200D02*
X0460140Y0550200D01*
X0460140Y0530200D02*
X0440140Y0530200D01*
X0420140Y0550200D02*
X0405140Y0550200D01*
X0420140Y0550200D02*
X0420140Y0564680D01*
X0420140Y0565200D01*
X0440140Y0590200D02*
X0455140Y0590200D01*
X0460140Y0585200D01*
X0420140Y0610200D02*
X0405140Y0610200D01*
X0420140Y0610200D02*
X0420140Y0624680D01*
X0420140Y0625200D01*
X0420140Y0670200D02*
X0405140Y0670200D01*
X0420140Y0670200D02*
X0420140Y0684680D01*
X0420140Y0685200D01*
X0420140Y0730200D02*
X0405140Y0730200D01*
X0420140Y0730200D02*
X0420140Y0744680D01*
X0420140Y0745200D01*
X0440140Y0770200D02*
X0460140Y0770200D01*
X0590140Y0550200D02*
X0680140Y0550200D01*
X0655140Y0500510D02*
X0625140Y0500200D01*
X0620140Y0495200D01*
X0545140Y0495200D01*
X0545140Y0504680D01*
X0545140Y0505200D01*
X0545140Y0495200D02*
X0545140Y0490710D01*
X0545140Y0490200D01*
X0560140Y0490200D01*
X0560140Y0480200D02*
X0545140Y0480200D01*
X0545140Y0479680D01*
X0545140Y0480200D02*
X0530140Y0480200D01*
X0530140Y0479680D01*
X0530140Y0490200D02*
X0530140Y0490710D01*
X0530140Y0490200D02*
X0505140Y0515200D01*
X0495140Y0515200D01*
X0490140Y0520200D01*
X0490140Y0510200D02*
X0480140Y0510200D01*
X0480140Y0495200D01*
X0479630Y0495200D01*
X0490140Y0495200D02*
X0490650Y0495200D01*
X0515140Y0495200D01*
X0530140Y0490200D02*
X0505140Y0465200D01*
X0495140Y0465200D01*
X0490140Y0460200D01*
X0490140Y0450200D02*
X0480140Y0450200D01*
X0480140Y0435200D01*
X0479630Y0435200D01*
X0490140Y0435200D02*
X0490650Y0435200D01*
X0490140Y0435200D02*
X0525140Y0470200D01*
X0570140Y0470200D01*
X0590140Y0490200D01*
X0590140Y0480200D02*
X0595140Y0475200D01*
X0605140Y0475200D01*
X0605140Y0474680D01*
X0605140Y0475200D02*
X0620140Y0475200D01*
X0621140Y0485200D02*
X0605140Y0485200D01*
X0605140Y0485710D01*
X0595140Y0505200D02*
X0621140Y0505200D01*
X0620140Y0515200D02*
X0595140Y0515200D01*
X0590140Y0520200D01*
X0590140Y0510200D02*
X0595140Y0505200D01*
X0560140Y0520200D02*
X0550140Y0520200D01*
X0545140Y0515200D01*
X0545140Y0515710D01*
X0545140Y0490200D02*
X0530140Y0490200D01*
X0460140Y0490200D02*
X0460140Y0510200D01*
X0460140Y0470200D02*
X0440140Y0470200D01*
X0420140Y0490200D02*
X0405140Y0490200D01*
X0420140Y0490200D02*
X0420140Y0504680D01*
X0420140Y0505200D01*
X0460140Y0450200D02*
X0460140Y0430200D01*
X0420140Y0430200D02*
X0405140Y0430200D01*
X0420140Y0430200D02*
X0420140Y0440350D01*
D602*
X0515140Y0495200D03*
X0510140Y0625200D03*
X0570140Y0635200D03*
X0580140Y0640200D03*
X0575140Y0650200D03*
X0600140Y0690200D03*
X0595140Y0695200D03*
X0670140Y0630200D03*
D458*
X0440140Y0630200D02*
X0435140Y0630200D01*
X0430140Y0635200D01*
X0420140Y0635200D01*
X0420140Y0635710D01*
X0420140Y0635200D02*
X0395140Y0635200D01*
X0380140Y0620200D01*
X0380140Y0620510D01*
X0395140Y0575200D02*
X0420140Y0575200D01*
X0420140Y0575710D01*
X0420140Y0575200D02*
X0430140Y0575200D01*
X0435140Y0570200D01*
X0440140Y0570200D01*
X0395140Y0575200D02*
X0380140Y0560200D01*
X0380140Y0560510D01*
X0395140Y0515200D02*
X0420140Y0515200D01*
X0420140Y0515710D01*
X0420140Y0515200D02*
X0430140Y0515200D01*
X0435140Y0510200D01*
X0440140Y0510200D01*
X0425140Y0470200D02*
X0405140Y0470200D01*
X0390140Y0470200D01*
X0380140Y0460200D01*
X0380140Y0440510D02*
X0380140Y0440200D01*
X0400140Y0460200D01*
X0420140Y0460200D01*
X0420140Y0460040D01*
X0425140Y0470200D02*
X0435140Y0460200D01*
X0440140Y0460200D01*
X0395140Y0515200D02*
X0380140Y0500200D01*
X0380140Y0500510D01*
X0380140Y0680200D02*
X0380140Y0680510D01*
X0380140Y0680200D02*
X0395140Y0695200D01*
X0420140Y0695200D01*
X0420140Y0695710D01*
X0420140Y0695200D02*
X0430140Y0695200D01*
X0435140Y0690200D01*
X0440140Y0690200D01*
X0440140Y0750200D02*
X0435140Y0750200D01*
X0430140Y0755200D01*
X0420140Y0755200D01*
X0420140Y0755710D01*
X0420140Y0755200D02*
X0395140Y0755200D01*
X0380140Y0740200D01*
X0380140Y0740510D01*
M02*
