G75*
G70*
%OFA0B0*%
%FSLAX25Y25*%
%IPPOS*%
%LPD*%
%AMOC8*
5,1,8,0,0,1.08239X$1,22.5*
%
%ADD110C,0.04340*%
%ADD158C,0.06000*%
%ADD166C,0.08200*%
%ADD173C,0.07400*%
%ADD184OC8,0.07400*%
%ADD186C,0.04800*%
%ADD212R,0.08800X0.08800*%
%ADD223R,0.07300X0.07300*%
%ADD263C,0.04740*%
%ADD28R,0.04760X0.04760*%
%ADD284C,0.06800*%
%ADD286R,0.08200X0.08200*%
%ADD329C,0.11820*%
%ADD366C,0.13400*%
%ADD44C,0.08400*%
%ADD463C,0.17800*%
%ADD553C,0.07300*%
%ADD600R,0.08400X0.08400*%
%ADD688C,0.03900*%
%ADD74C,0.08800*%
X0020000Y0020000D02*
G75*
%LPD*%
D158*
X0107560Y0203750D02*
X0102360Y0203750D01*
X0102360Y0213750D02*
X0107560Y0213750D01*
X0107560Y0223750D02*
X0102360Y0223750D01*
X0102360Y0233750D02*
X0107560Y0233750D01*
X0107560Y0243750D02*
X0102360Y0243750D01*
X0102360Y0253750D02*
X0107560Y0253750D01*
X0107560Y0263750D02*
X0102360Y0263750D01*
X0102360Y0273750D02*
X0107560Y0273750D01*
X0107560Y0283750D02*
X0102360Y0283750D01*
X0102360Y0293750D02*
X0107560Y0293750D01*
X0107560Y0303750D02*
X0102360Y0303750D01*
X0102360Y0313750D02*
X0107560Y0313750D01*
X0107560Y0323750D02*
X0102360Y0323750D01*
X0102360Y0333750D02*
X0107560Y0333750D01*
X0077560Y0333750D02*
X0072360Y0333750D01*
X0072360Y0323750D02*
X0077560Y0323750D01*
X0077560Y0313750D02*
X0072360Y0313750D01*
X0072360Y0303750D02*
X0077560Y0303750D01*
X0077560Y0293750D02*
X0072360Y0293750D01*
X0072360Y0283750D02*
X0077560Y0283750D01*
X0077560Y0273750D02*
X0072360Y0273750D01*
X0072360Y0263750D02*
X0077560Y0263750D01*
X0077560Y0253750D02*
X0072360Y0253750D01*
X0072360Y0243750D02*
X0077560Y0243750D01*
X0077560Y0233750D02*
X0072360Y0233750D01*
X0072360Y0223750D02*
X0077560Y0223750D01*
X0077560Y0213750D02*
X0072360Y0213750D01*
X0072360Y0203750D02*
X0077560Y0203750D01*
D166*
X0074960Y0188750D03*
X0074960Y0173750D03*
X0074960Y0163750D03*
X0064960Y0163750D03*
X0064960Y0133750D03*
X0074960Y0133750D03*
X0079960Y0123750D03*
X0079960Y0113750D03*
X0089960Y0153750D03*
X0094960Y0146250D03*
X0099960Y0153750D03*
X0114960Y0173750D03*
X0114960Y0188750D03*
X0119960Y0203750D03*
X0120960Y0213750D03*
X0119960Y0223750D03*
X0120960Y0233750D03*
X0119960Y0243750D03*
X0120960Y0253750D03*
X0119460Y0268750D03*
X0120460Y0278750D03*
X0119460Y0288750D03*
X0119960Y0303050D03*
X0119960Y0314450D03*
X0114960Y0348750D03*
X0114960Y0388750D03*
X0094960Y0388750D03*
X0094960Y0348750D03*
X0074960Y0348750D03*
X0074960Y0388750D03*
X0059960Y0368750D03*
X0059960Y0328750D03*
X0059960Y0318750D03*
X0059960Y0278750D03*
X0059960Y0268750D03*
X0059960Y0228750D03*
X0094960Y0064250D03*
X0104960Y0063250D03*
X0114960Y0064250D03*
X0114960Y0088750D03*
X0114960Y0098750D03*
X0119960Y0113750D03*
X0119960Y0123750D03*
X0119960Y0148050D03*
X0119960Y0159450D03*
X0122460Y0093750D03*
D553*
X0109810Y0133750D03*
X0094960Y0093750D03*
X0090120Y0133750D03*
X0104960Y0048750D03*
X0114960Y0048750D03*
X0064960Y0203750D03*
X0064960Y0213750D03*
X0054960Y0213750D03*
X0054960Y0203750D03*
X0054960Y0188750D03*
D223*
X0064960Y0188750D03*
X0084960Y0093750D03*
D600*
X0094960Y0033750D03*
D44*
X0114960Y0033750D03*
X0104960Y0033750D03*
D184*
X0059960Y0088750D03*
X0059960Y0098750D03*
X0043780Y0296250D03*
X0074960Y0398750D03*
X0074960Y0408750D03*
X0094960Y0408750D03*
X0094960Y0398750D03*
X0114960Y0398750D03*
X0114960Y0408750D03*
D173*
X0043780Y0307250D03*
X0036150Y0302250D03*
X0036150Y0290250D03*
D186*
X0084960Y0298750D03*
X0141460Y0020000D02*
G75*
%LPD*%
D158*
X0229020Y0203750D02*
X0223820Y0203750D01*
X0223820Y0213750D02*
X0229020Y0213750D01*
X0229020Y0223750D02*
X0223820Y0223750D01*
X0223820Y0233750D02*
X0229020Y0233750D01*
X0229020Y0243750D02*
X0223820Y0243750D01*
X0223820Y0253750D02*
X0229020Y0253750D01*
X0229020Y0263750D02*
X0223820Y0263750D01*
X0223820Y0273750D02*
X0229020Y0273750D01*
X0229020Y0283750D02*
X0223820Y0283750D01*
X0223820Y0293750D02*
X0229020Y0293750D01*
X0229020Y0303750D02*
X0223820Y0303750D01*
X0223820Y0313750D02*
X0229020Y0313750D01*
X0229020Y0323750D02*
X0223820Y0323750D01*
X0223820Y0333750D02*
X0229020Y0333750D01*
X0199020Y0333750D02*
X0193820Y0333750D01*
X0193820Y0323750D02*
X0199020Y0323750D01*
X0199020Y0313750D02*
X0193820Y0313750D01*
X0193820Y0303750D02*
X0199020Y0303750D01*
X0199020Y0293750D02*
X0193820Y0293750D01*
X0193820Y0283750D02*
X0199020Y0283750D01*
X0199020Y0273750D02*
X0193820Y0273750D01*
X0193820Y0263750D02*
X0199020Y0263750D01*
X0199020Y0253750D02*
X0193820Y0253750D01*
X0193820Y0243750D02*
X0199020Y0243750D01*
X0199020Y0233750D02*
X0193820Y0233750D01*
X0193820Y0223750D02*
X0199020Y0223750D01*
X0199020Y0213750D02*
X0193820Y0213750D01*
X0193820Y0203750D02*
X0199020Y0203750D01*
D166*
X0196420Y0188750D03*
X0196420Y0173750D03*
X0196420Y0163750D03*
X0186420Y0163750D03*
X0186420Y0133750D03*
X0196420Y0133750D03*
X0201420Y0123750D03*
X0201420Y0113750D03*
X0211420Y0153750D03*
X0216420Y0146250D03*
X0221420Y0153750D03*
X0236420Y0173750D03*
X0236420Y0188750D03*
X0241420Y0203750D03*
X0242420Y0213750D03*
X0241420Y0223750D03*
X0242420Y0233750D03*
X0241420Y0243750D03*
X0242420Y0253750D03*
X0240920Y0268750D03*
X0241920Y0278750D03*
X0240920Y0288750D03*
X0241420Y0303050D03*
X0241420Y0314450D03*
X0236420Y0348750D03*
X0236420Y0388750D03*
X0216420Y0388750D03*
X0216420Y0348750D03*
X0196420Y0348750D03*
X0196420Y0388750D03*
X0181420Y0368750D03*
X0181420Y0328750D03*
X0181420Y0318750D03*
X0181420Y0278750D03*
X0181420Y0268750D03*
X0181420Y0228750D03*
X0216420Y0064250D03*
X0226420Y0063250D03*
X0236420Y0064250D03*
X0236420Y0088750D03*
X0236420Y0098750D03*
X0241420Y0113750D03*
X0241420Y0123750D03*
X0241420Y0148050D03*
X0241420Y0159450D03*
X0243920Y0093750D03*
D553*
X0231270Y0133750D03*
X0216420Y0093750D03*
X0211580Y0133750D03*
X0226420Y0048750D03*
X0236420Y0048750D03*
X0186420Y0203750D03*
X0186420Y0213750D03*
X0176420Y0213750D03*
X0176420Y0203750D03*
X0176420Y0188750D03*
D223*
X0186420Y0188750D03*
X0206420Y0093750D03*
D600*
X0216420Y0033750D03*
D44*
X0236420Y0033750D03*
X0226420Y0033750D03*
D184*
X0181420Y0088750D03*
X0181420Y0098750D03*
X0165240Y0296250D03*
X0196420Y0398750D03*
X0196420Y0408750D03*
X0216420Y0408750D03*
X0216420Y0398750D03*
X0236420Y0398750D03*
X0236420Y0408750D03*
D173*
X0165240Y0307250D03*
X0157610Y0302250D03*
X0157610Y0290250D03*
D186*
X0206420Y0298750D03*
X0262920Y0020000D02*
G75*
%LPD*%
D158*
X0350480Y0203750D02*
X0345280Y0203750D01*
X0345280Y0213750D02*
X0350480Y0213750D01*
X0350480Y0223750D02*
X0345280Y0223750D01*
X0345280Y0233750D02*
X0350480Y0233750D01*
X0350480Y0243750D02*
X0345280Y0243750D01*
X0345280Y0253750D02*
X0350480Y0253750D01*
X0350480Y0263750D02*
X0345280Y0263750D01*
X0345280Y0273750D02*
X0350480Y0273750D01*
X0350480Y0283750D02*
X0345280Y0283750D01*
X0345280Y0293750D02*
X0350480Y0293750D01*
X0350480Y0303750D02*
X0345280Y0303750D01*
X0345280Y0313750D02*
X0350480Y0313750D01*
X0350480Y0323750D02*
X0345280Y0323750D01*
X0345280Y0333750D02*
X0350480Y0333750D01*
X0320480Y0333750D02*
X0315280Y0333750D01*
X0315280Y0323750D02*
X0320480Y0323750D01*
X0320480Y0313750D02*
X0315280Y0313750D01*
X0315280Y0303750D02*
X0320480Y0303750D01*
X0320480Y0293750D02*
X0315280Y0293750D01*
X0315280Y0283750D02*
X0320480Y0283750D01*
X0320480Y0273750D02*
X0315280Y0273750D01*
X0315280Y0263750D02*
X0320480Y0263750D01*
X0320480Y0253750D02*
X0315280Y0253750D01*
X0315280Y0243750D02*
X0320480Y0243750D01*
X0320480Y0233750D02*
X0315280Y0233750D01*
X0315280Y0223750D02*
X0320480Y0223750D01*
X0320480Y0213750D02*
X0315280Y0213750D01*
X0315280Y0203750D02*
X0320480Y0203750D01*
D166*
X0317880Y0188750D03*
X0317880Y0173750D03*
X0317880Y0163750D03*
X0307880Y0163750D03*
X0307880Y0133750D03*
X0317880Y0133750D03*
X0322880Y0123750D03*
X0322880Y0113750D03*
X0332880Y0153750D03*
X0337880Y0146250D03*
X0342880Y0153750D03*
X0357880Y0173750D03*
X0357880Y0188750D03*
X0362880Y0203750D03*
X0363880Y0213750D03*
X0362880Y0223750D03*
X0363880Y0233750D03*
X0362880Y0243750D03*
X0363880Y0253750D03*
X0362380Y0268750D03*
X0363380Y0278750D03*
X0362380Y0288750D03*
X0362880Y0303050D03*
X0362880Y0314450D03*
X0357880Y0348750D03*
X0357880Y0388750D03*
X0337880Y0388750D03*
X0337880Y0348750D03*
X0317880Y0348750D03*
X0317880Y0388750D03*
X0302880Y0368750D03*
X0302880Y0328750D03*
X0302880Y0318750D03*
X0302880Y0278750D03*
X0302880Y0268750D03*
X0302880Y0228750D03*
X0337880Y0064250D03*
X0347880Y0063250D03*
X0357880Y0064250D03*
X0357880Y0088750D03*
X0357880Y0098750D03*
X0362880Y0113750D03*
X0362880Y0123750D03*
X0362880Y0148050D03*
X0362880Y0159450D03*
X0365380Y0093750D03*
D553*
X0352730Y0133750D03*
X0337880Y0093750D03*
X0333040Y0133750D03*
X0347880Y0048750D03*
X0357880Y0048750D03*
X0307880Y0203750D03*
X0307880Y0213750D03*
X0297880Y0213750D03*
X0297880Y0203750D03*
X0297880Y0188750D03*
D223*
X0307880Y0188750D03*
X0327880Y0093750D03*
D600*
X0337880Y0033750D03*
D44*
X0357880Y0033750D03*
X0347880Y0033750D03*
D184*
X0302880Y0088750D03*
X0302880Y0098750D03*
X0286700Y0296250D03*
X0317880Y0398750D03*
X0317880Y0408750D03*
X0337880Y0408750D03*
X0337880Y0398750D03*
X0357880Y0398750D03*
X0357880Y0408750D03*
D173*
X0286700Y0307250D03*
X0279070Y0302250D03*
X0279070Y0290250D03*
D186*
X0327880Y0298750D03*
X0384380Y0020000D02*
G75*
%LPD*%
D158*
X0471940Y0203750D02*
X0466740Y0203750D01*
X0466740Y0213750D02*
X0471940Y0213750D01*
X0471940Y0223750D02*
X0466740Y0223750D01*
X0466740Y0233750D02*
X0471940Y0233750D01*
X0471940Y0243750D02*
X0466740Y0243750D01*
X0466740Y0253750D02*
X0471940Y0253750D01*
X0471940Y0263750D02*
X0466740Y0263750D01*
X0466740Y0273750D02*
X0471940Y0273750D01*
X0471940Y0283750D02*
X0466740Y0283750D01*
X0466740Y0293750D02*
X0471940Y0293750D01*
X0471940Y0303750D02*
X0466740Y0303750D01*
X0466740Y0313750D02*
X0471940Y0313750D01*
X0471940Y0323750D02*
X0466740Y0323750D01*
X0466740Y0333750D02*
X0471940Y0333750D01*
X0441940Y0333750D02*
X0436740Y0333750D01*
X0436740Y0323750D02*
X0441940Y0323750D01*
X0441940Y0313750D02*
X0436740Y0313750D01*
X0436740Y0303750D02*
X0441940Y0303750D01*
X0441940Y0293750D02*
X0436740Y0293750D01*
X0436740Y0283750D02*
X0441940Y0283750D01*
X0441940Y0273750D02*
X0436740Y0273750D01*
X0436740Y0263750D02*
X0441940Y0263750D01*
X0441940Y0253750D02*
X0436740Y0253750D01*
X0436740Y0243750D02*
X0441940Y0243750D01*
X0441940Y0233750D02*
X0436740Y0233750D01*
X0436740Y0223750D02*
X0441940Y0223750D01*
X0441940Y0213750D02*
X0436740Y0213750D01*
X0436740Y0203750D02*
X0441940Y0203750D01*
D166*
X0439340Y0188750D03*
X0439340Y0173750D03*
X0439340Y0163750D03*
X0429340Y0163750D03*
X0429340Y0133750D03*
X0439340Y0133750D03*
X0444340Y0123750D03*
X0444340Y0113750D03*
X0454340Y0153750D03*
X0459340Y0146250D03*
X0464340Y0153750D03*
X0479340Y0173750D03*
X0479340Y0188750D03*
X0484340Y0203750D03*
X0485340Y0213750D03*
X0484340Y0223750D03*
X0485340Y0233750D03*
X0484340Y0243750D03*
X0485340Y0253750D03*
X0483840Y0268750D03*
X0484840Y0278750D03*
X0483840Y0288750D03*
X0484340Y0303050D03*
X0484340Y0314450D03*
X0479340Y0348750D03*
X0479340Y0388750D03*
X0459340Y0388750D03*
X0459340Y0348750D03*
X0439340Y0348750D03*
X0439340Y0388750D03*
X0424340Y0368750D03*
X0424340Y0328750D03*
X0424340Y0318750D03*
X0424340Y0278750D03*
X0424340Y0268750D03*
X0424340Y0228750D03*
X0459340Y0064250D03*
X0469340Y0063250D03*
X0479340Y0064250D03*
X0479340Y0088750D03*
X0479340Y0098750D03*
X0484340Y0113750D03*
X0484340Y0123750D03*
X0484340Y0148050D03*
X0484340Y0159450D03*
X0486840Y0093750D03*
D553*
X0474190Y0133750D03*
X0459340Y0093750D03*
X0454500Y0133750D03*
X0469340Y0048750D03*
X0479340Y0048750D03*
X0429340Y0203750D03*
X0429340Y0213750D03*
X0419340Y0213750D03*
X0419340Y0203750D03*
X0419340Y0188750D03*
D223*
X0429340Y0188750D03*
X0449340Y0093750D03*
D600*
X0459340Y0033750D03*
D44*
X0479340Y0033750D03*
X0469340Y0033750D03*
D184*
X0424340Y0088750D03*
X0424340Y0098750D03*
X0408160Y0296250D03*
X0439340Y0398750D03*
X0439340Y0408750D03*
X0459340Y0408750D03*
X0459340Y0398750D03*
X0479340Y0398750D03*
X0479340Y0408750D03*
D173*
X0408160Y0307250D03*
X0400530Y0302250D03*
X0400530Y0290250D03*
D186*
X0449340Y0298750D03*
X0505840Y0020000D02*
G75*
%LPD*%
D158*
X0593400Y0203750D02*
X0588200Y0203750D01*
X0588200Y0213750D02*
X0593400Y0213750D01*
X0593400Y0223750D02*
X0588200Y0223750D01*
X0588200Y0233750D02*
X0593400Y0233750D01*
X0593400Y0243750D02*
X0588200Y0243750D01*
X0588200Y0253750D02*
X0593400Y0253750D01*
X0593400Y0263750D02*
X0588200Y0263750D01*
X0588200Y0273750D02*
X0593400Y0273750D01*
X0593400Y0283750D02*
X0588200Y0283750D01*
X0588200Y0293750D02*
X0593400Y0293750D01*
X0593400Y0303750D02*
X0588200Y0303750D01*
X0588200Y0313750D02*
X0593400Y0313750D01*
X0593400Y0323750D02*
X0588200Y0323750D01*
X0588200Y0333750D02*
X0593400Y0333750D01*
X0563400Y0333750D02*
X0558200Y0333750D01*
X0558200Y0323750D02*
X0563400Y0323750D01*
X0563400Y0313750D02*
X0558200Y0313750D01*
X0558200Y0303750D02*
X0563400Y0303750D01*
X0563400Y0293750D02*
X0558200Y0293750D01*
X0558200Y0283750D02*
X0563400Y0283750D01*
X0563400Y0273750D02*
X0558200Y0273750D01*
X0558200Y0263750D02*
X0563400Y0263750D01*
X0563400Y0253750D02*
X0558200Y0253750D01*
X0558200Y0243750D02*
X0563400Y0243750D01*
X0563400Y0233750D02*
X0558200Y0233750D01*
X0558200Y0223750D02*
X0563400Y0223750D01*
X0563400Y0213750D02*
X0558200Y0213750D01*
X0558200Y0203750D02*
X0563400Y0203750D01*
D166*
X0560800Y0188750D03*
X0560800Y0173750D03*
X0560800Y0163750D03*
X0550800Y0163750D03*
X0550800Y0133750D03*
X0560800Y0133750D03*
X0565800Y0123750D03*
X0565800Y0113750D03*
X0575800Y0153750D03*
X0580800Y0146250D03*
X0585800Y0153750D03*
X0600800Y0173750D03*
X0600800Y0188750D03*
X0605800Y0203750D03*
X0606800Y0213750D03*
X0605800Y0223750D03*
X0606800Y0233750D03*
X0605800Y0243750D03*
X0606800Y0253750D03*
X0605300Y0268750D03*
X0606300Y0278750D03*
X0605300Y0288750D03*
X0605800Y0303050D03*
X0605800Y0314450D03*
X0600800Y0348750D03*
X0600800Y0388750D03*
X0580800Y0388750D03*
X0580800Y0348750D03*
X0560800Y0348750D03*
X0560800Y0388750D03*
X0545800Y0368750D03*
X0545800Y0328750D03*
X0545800Y0318750D03*
X0545800Y0278750D03*
X0545800Y0268750D03*
X0545800Y0228750D03*
X0580800Y0064250D03*
X0590800Y0063250D03*
X0600800Y0064250D03*
X0600800Y0088750D03*
X0600800Y0098750D03*
X0605800Y0113750D03*
X0605800Y0123750D03*
X0605800Y0148050D03*
X0605800Y0159450D03*
X0608300Y0093750D03*
D553*
X0595650Y0133750D03*
X0580800Y0093750D03*
X0575960Y0133750D03*
X0590800Y0048750D03*
X0600800Y0048750D03*
X0550800Y0203750D03*
X0550800Y0213750D03*
X0540800Y0213750D03*
X0540800Y0203750D03*
X0540800Y0188750D03*
D223*
X0550800Y0188750D03*
X0570800Y0093750D03*
D600*
X0580800Y0033750D03*
D44*
X0600800Y0033750D03*
X0590800Y0033750D03*
D184*
X0545800Y0088750D03*
X0545800Y0098750D03*
X0529620Y0296250D03*
X0560800Y0398750D03*
X0560800Y0408750D03*
X0580800Y0408750D03*
X0580800Y0398750D03*
X0600800Y0398750D03*
X0600800Y0408750D03*
D173*
X0529620Y0307250D03*
X0521990Y0302250D03*
X0521990Y0290250D03*
D186*
X0570800Y0298750D03*
X0020000Y0428950D02*
G75*
%LPD*%
D158*
X0107560Y0612700D02*
X0102360Y0612700D01*
X0102360Y0622700D02*
X0107560Y0622700D01*
X0107560Y0632700D02*
X0102360Y0632700D01*
X0102360Y0642700D02*
X0107560Y0642700D01*
X0107560Y0652700D02*
X0102360Y0652700D01*
X0102360Y0662700D02*
X0107560Y0662700D01*
X0107560Y0672700D02*
X0102360Y0672700D01*
X0102360Y0682700D02*
X0107560Y0682700D01*
X0107560Y0692700D02*
X0102360Y0692700D01*
X0102360Y0702700D02*
X0107560Y0702700D01*
X0107560Y0712700D02*
X0102360Y0712700D01*
X0102360Y0722700D02*
X0107560Y0722700D01*
X0107560Y0732700D02*
X0102360Y0732700D01*
X0102360Y0742700D02*
X0107560Y0742700D01*
X0077560Y0742700D02*
X0072360Y0742700D01*
X0072360Y0732700D02*
X0077560Y0732700D01*
X0077560Y0722700D02*
X0072360Y0722700D01*
X0072360Y0712700D02*
X0077560Y0712700D01*
X0077560Y0702700D02*
X0072360Y0702700D01*
X0072360Y0692700D02*
X0077560Y0692700D01*
X0077560Y0682700D02*
X0072360Y0682700D01*
X0072360Y0672700D02*
X0077560Y0672700D01*
X0077560Y0662700D02*
X0072360Y0662700D01*
X0072360Y0652700D02*
X0077560Y0652700D01*
X0077560Y0642700D02*
X0072360Y0642700D01*
X0072360Y0632700D02*
X0077560Y0632700D01*
X0077560Y0622700D02*
X0072360Y0622700D01*
X0072360Y0612700D02*
X0077560Y0612700D01*
D166*
X0074960Y0597700D03*
X0074960Y0582700D03*
X0074960Y0572700D03*
X0064960Y0572700D03*
X0064960Y0542700D03*
X0074960Y0542700D03*
X0079960Y0532700D03*
X0079960Y0522700D03*
X0089960Y0562700D03*
X0094960Y0555200D03*
X0099960Y0562700D03*
X0114960Y0582700D03*
X0114960Y0597700D03*
X0119960Y0612700D03*
X0120960Y0622700D03*
X0119960Y0632700D03*
X0120960Y0642700D03*
X0119960Y0652700D03*
X0120960Y0662700D03*
X0119460Y0677700D03*
X0120460Y0687700D03*
X0119460Y0697700D03*
X0119960Y0712000D03*
X0119960Y0723400D03*
X0114960Y0757700D03*
X0114960Y0797700D03*
X0094960Y0797700D03*
X0094960Y0757700D03*
X0074960Y0757700D03*
X0074960Y0797700D03*
X0059960Y0777700D03*
X0059960Y0737700D03*
X0059960Y0727700D03*
X0059960Y0687700D03*
X0059960Y0677700D03*
X0059960Y0637700D03*
X0094960Y0473200D03*
X0104960Y0472200D03*
X0114960Y0473200D03*
X0114960Y0497700D03*
X0114960Y0507700D03*
X0119960Y0522700D03*
X0119960Y0532700D03*
X0119960Y0557000D03*
X0119960Y0568400D03*
X0122460Y0502700D03*
D553*
X0109810Y0542700D03*
X0094960Y0502700D03*
X0090120Y0542700D03*
X0104960Y0457700D03*
X0114960Y0457700D03*
X0064960Y0612700D03*
X0064960Y0622700D03*
X0054960Y0622700D03*
X0054960Y0612700D03*
X0054960Y0597700D03*
D223*
X0064960Y0597700D03*
X0084960Y0502700D03*
D600*
X0094960Y0442700D03*
D44*
X0114960Y0442700D03*
X0104960Y0442700D03*
D184*
X0059960Y0497700D03*
X0059960Y0507700D03*
X0043780Y0705200D03*
X0074960Y0807700D03*
X0074960Y0817700D03*
X0094960Y0817700D03*
X0094960Y0807700D03*
X0114960Y0807700D03*
X0114960Y0817700D03*
D173*
X0043780Y0716200D03*
X0036150Y0711200D03*
X0036150Y0699200D03*
D186*
X0084960Y0707700D03*
X0141460Y0428950D02*
G75*
%LPD*%
D158*
X0229020Y0612700D02*
X0223820Y0612700D01*
X0223820Y0622700D02*
X0229020Y0622700D01*
X0229020Y0632700D02*
X0223820Y0632700D01*
X0223820Y0642700D02*
X0229020Y0642700D01*
X0229020Y0652700D02*
X0223820Y0652700D01*
X0223820Y0662700D02*
X0229020Y0662700D01*
X0229020Y0672700D02*
X0223820Y0672700D01*
X0223820Y0682700D02*
X0229020Y0682700D01*
X0229020Y0692700D02*
X0223820Y0692700D01*
X0223820Y0702700D02*
X0229020Y0702700D01*
X0229020Y0712700D02*
X0223820Y0712700D01*
X0223820Y0722700D02*
X0229020Y0722700D01*
X0229020Y0732700D02*
X0223820Y0732700D01*
X0223820Y0742700D02*
X0229020Y0742700D01*
X0199020Y0742700D02*
X0193820Y0742700D01*
X0193820Y0732700D02*
X0199020Y0732700D01*
X0199020Y0722700D02*
X0193820Y0722700D01*
X0193820Y0712700D02*
X0199020Y0712700D01*
X0199020Y0702700D02*
X0193820Y0702700D01*
X0193820Y0692700D02*
X0199020Y0692700D01*
X0199020Y0682700D02*
X0193820Y0682700D01*
X0193820Y0672700D02*
X0199020Y0672700D01*
X0199020Y0662700D02*
X0193820Y0662700D01*
X0193820Y0652700D02*
X0199020Y0652700D01*
X0199020Y0642700D02*
X0193820Y0642700D01*
X0193820Y0632700D02*
X0199020Y0632700D01*
X0199020Y0622700D02*
X0193820Y0622700D01*
X0193820Y0612700D02*
X0199020Y0612700D01*
D166*
X0196420Y0597700D03*
X0196420Y0582700D03*
X0196420Y0572700D03*
X0186420Y0572700D03*
X0186420Y0542700D03*
X0196420Y0542700D03*
X0201420Y0532700D03*
X0201420Y0522700D03*
X0211420Y0562700D03*
X0216420Y0555200D03*
X0221420Y0562700D03*
X0236420Y0582700D03*
X0236420Y0597700D03*
X0241420Y0612700D03*
X0242420Y0622700D03*
X0241420Y0632700D03*
X0242420Y0642700D03*
X0241420Y0652700D03*
X0242420Y0662700D03*
X0240920Y0677700D03*
X0241920Y0687700D03*
X0240920Y0697700D03*
X0241420Y0712000D03*
X0241420Y0723400D03*
X0236420Y0757700D03*
X0236420Y0797700D03*
X0216420Y0797700D03*
X0216420Y0757700D03*
X0196420Y0757700D03*
X0196420Y0797700D03*
X0181420Y0777700D03*
X0181420Y0737700D03*
X0181420Y0727700D03*
X0181420Y0687700D03*
X0181420Y0677700D03*
X0181420Y0637700D03*
X0216420Y0473200D03*
X0226420Y0472200D03*
X0236420Y0473200D03*
X0236420Y0497700D03*
X0236420Y0507700D03*
X0241420Y0522700D03*
X0241420Y0532700D03*
X0241420Y0557000D03*
X0241420Y0568400D03*
X0243920Y0502700D03*
D553*
X0231270Y0542700D03*
X0216420Y0502700D03*
X0211580Y0542700D03*
X0226420Y0457700D03*
X0236420Y0457700D03*
X0186420Y0612700D03*
X0186420Y0622700D03*
X0176420Y0622700D03*
X0176420Y0612700D03*
X0176420Y0597700D03*
D223*
X0186420Y0597700D03*
X0206420Y0502700D03*
D600*
X0216420Y0442700D03*
D44*
X0236420Y0442700D03*
X0226420Y0442700D03*
D184*
X0181420Y0497700D03*
X0181420Y0507700D03*
X0165240Y0705200D03*
X0196420Y0807700D03*
X0196420Y0817700D03*
X0216420Y0817700D03*
X0216420Y0807700D03*
X0236420Y0807700D03*
X0236420Y0817700D03*
D173*
X0165240Y0716200D03*
X0157610Y0711200D03*
X0157610Y0699200D03*
D186*
X0206420Y0707700D03*
X0262920Y0428950D02*
G75*
%LPD*%
D329*
X0572880Y0438950D03*
X0272880Y0438950D03*
X0272880Y0803950D03*
X0572880Y0803950D03*
D158*
X0452880Y0719150D02*
X0452880Y0713950D01*
X0442880Y0713950D02*
X0442880Y0719150D01*
X0432880Y0719150D02*
X0432880Y0713950D01*
X0432880Y0683950D02*
X0432880Y0678750D01*
X0442880Y0678750D02*
X0442880Y0683950D01*
X0452880Y0683950D02*
X0452880Y0678750D01*
X0455280Y0628950D02*
X0460480Y0628950D01*
X0460480Y0618950D02*
X0455280Y0618950D01*
X0455280Y0608950D02*
X0460480Y0608950D01*
X0460480Y0598950D02*
X0455280Y0598950D01*
X0455280Y0588950D02*
X0460480Y0588950D01*
X0460480Y0578950D02*
X0455280Y0578950D01*
X0455280Y0568950D02*
X0460480Y0568950D01*
X0460480Y0558950D02*
X0455280Y0558950D01*
X0455280Y0548950D02*
X0460480Y0548950D01*
X0460480Y0538950D02*
X0455280Y0538950D01*
X0455280Y0528950D02*
X0460480Y0528950D01*
X0460480Y0518950D02*
X0455280Y0518950D01*
X0455280Y0508950D02*
X0460480Y0508950D01*
X0460480Y0498950D02*
X0455280Y0498950D01*
X0485280Y0498950D02*
X0490480Y0498950D01*
X0490480Y0508950D02*
X0485280Y0508950D01*
X0485280Y0518950D02*
X0490480Y0518950D01*
X0490480Y0528950D02*
X0485280Y0528950D01*
X0485280Y0538950D02*
X0490480Y0538950D01*
X0490480Y0548950D02*
X0485280Y0548950D01*
X0485280Y0558950D02*
X0490480Y0558950D01*
X0490480Y0568950D02*
X0485280Y0568950D01*
X0485280Y0578950D02*
X0490480Y0578950D01*
X0490480Y0588950D02*
X0485280Y0588950D01*
X0485280Y0598950D02*
X0490480Y0598950D01*
X0490480Y0608950D02*
X0485280Y0608950D01*
X0485280Y0618950D02*
X0490480Y0618950D01*
X0490480Y0628950D02*
X0485280Y0628950D01*
X0393080Y0643950D02*
X0387880Y0643950D01*
X0387880Y0653950D02*
X0393080Y0653950D01*
X0393080Y0663950D02*
X0387880Y0663950D01*
X0357880Y0663950D02*
X0352680Y0663950D01*
X0352680Y0653950D02*
X0357880Y0653950D01*
X0357880Y0643950D02*
X0352680Y0643950D01*
X0352680Y0603950D02*
X0357880Y0603950D01*
X0357880Y0593950D02*
X0352680Y0593950D01*
X0352680Y0583950D02*
X0357880Y0583950D01*
X0387880Y0583950D02*
X0393080Y0583950D01*
X0393080Y0593950D02*
X0387880Y0593950D01*
X0387880Y0603950D02*
X0393080Y0603950D01*
X0393080Y0548950D02*
X0387880Y0548950D01*
X0387880Y0538950D02*
X0393080Y0538950D01*
X0393080Y0528950D02*
X0387880Y0528950D01*
X0357880Y0528950D02*
X0352680Y0528950D01*
X0352680Y0538950D02*
X0357880Y0538950D01*
X0357880Y0548950D02*
X0352680Y0548950D01*
X0352680Y0488950D02*
X0357880Y0488950D01*
X0357880Y0478950D02*
X0352680Y0478950D01*
X0352680Y0468950D02*
X0357880Y0468950D01*
X0387880Y0468950D02*
X0393080Y0468950D01*
X0393080Y0478950D02*
X0387880Y0478950D01*
X0387880Y0488950D02*
X0393080Y0488950D01*
X0393080Y0703950D02*
X0387880Y0703950D01*
X0387880Y0713950D02*
X0393080Y0713950D01*
X0393080Y0723950D02*
X0387880Y0723950D01*
X0357880Y0723950D02*
X0352680Y0723950D01*
X0352680Y0713950D02*
X0357880Y0713950D01*
X0357880Y0703950D02*
X0352680Y0703950D01*
X0352680Y0768950D02*
X0357880Y0768950D01*
X0357880Y0778950D02*
X0352680Y0778950D01*
X0352680Y0788950D02*
X0357880Y0788950D01*
X0387880Y0788950D02*
X0393080Y0788950D01*
X0393080Y0778950D02*
X0387880Y0778950D01*
X0387880Y0768950D02*
X0393080Y0768950D01*
D166*
X0357880Y0748950D03*
X0317880Y0748950D03*
X0302880Y0748950D03*
X0302880Y0728950D03*
X0302880Y0688950D03*
X0317880Y0688950D03*
X0302880Y0668950D03*
X0302880Y0628950D03*
X0317880Y0628950D03*
X0302880Y0608950D03*
X0302880Y0568950D03*
X0317880Y0568950D03*
X0302880Y0548950D03*
X0302880Y0508950D03*
X0317880Y0508950D03*
X0302880Y0488950D03*
X0302880Y0448950D03*
X0317880Y0448950D03*
X0357880Y0448950D03*
X0357880Y0508950D03*
X0357880Y0568950D03*
X0357880Y0628950D03*
X0357880Y0688950D03*
X0432880Y0733950D03*
X0452880Y0733950D03*
X0452880Y0773950D03*
X0432880Y0773950D03*
X0502880Y0771450D03*
X0502880Y0781450D03*
X0512880Y0776450D03*
X0512880Y0766450D03*
X0512880Y0756450D03*
X0502880Y0761450D03*
X0502880Y0751450D03*
X0518880Y0543950D03*
X0517880Y0533950D03*
X0518880Y0523950D03*
X0517880Y0513950D03*
X0518880Y0503950D03*
X0517880Y0493950D03*
X0302880Y0788950D03*
D284*
X0334880Y0788950D02*
X0340880Y0788950D01*
X0340880Y0778950D02*
X0334880Y0778950D01*
X0334880Y0768950D02*
X0340880Y0768950D01*
X0340880Y0728950D02*
X0334880Y0728950D01*
X0334880Y0718950D02*
X0340880Y0718950D01*
X0340880Y0708950D02*
X0334880Y0708950D01*
X0334880Y0668950D02*
X0340880Y0668950D01*
X0340880Y0658950D02*
X0334880Y0658950D01*
X0334880Y0648950D02*
X0340880Y0648950D01*
X0340880Y0608950D02*
X0334880Y0608950D01*
X0334880Y0598950D02*
X0340880Y0598950D01*
X0340880Y0588950D02*
X0334880Y0588950D01*
X0334880Y0548950D02*
X0340880Y0548950D01*
X0340880Y0538950D02*
X0334880Y0538950D01*
X0334880Y0528950D02*
X0340880Y0528950D01*
X0340880Y0488950D02*
X0334880Y0488950D01*
X0334880Y0478950D02*
X0340880Y0478950D01*
X0340880Y0468950D02*
X0334880Y0468950D01*
D553*
X0317880Y0478790D03*
X0317880Y0459100D03*
X0567880Y0593950D03*
X0567880Y0623950D03*
X0567880Y0673950D03*
X0567880Y0703950D03*
D366*
X0537880Y0741450D03*
X0537880Y0786450D03*
D286*
X0512880Y0746450D03*
D223*
X0567880Y0713950D03*
X0567880Y0683950D03*
X0567880Y0633950D03*
X0567880Y0603950D03*
D463*
X0552880Y0542880D03*
X0571380Y0531070D03*
X0552880Y0519260D03*
D212*
X0442880Y0793950D03*
X0277880Y0778950D03*
X0277880Y0718950D03*
X0277880Y0658950D03*
X0277880Y0598950D03*
X0277880Y0538950D03*
X0277880Y0478950D03*
D74*
X0277880Y0459260D03*
X0277880Y0519260D03*
X0277880Y0579260D03*
X0277880Y0639260D03*
X0277880Y0699260D03*
X0277880Y0759260D03*
X0423190Y0793950D03*
D186*
X0492880Y0713950D03*
X0497880Y0708950D03*
X0472880Y0668950D03*
X0477880Y0658950D03*
X0467880Y0653950D03*
X0407880Y0643950D03*
X0412880Y0513950D03*
X0567880Y0648950D03*
X0589380Y0428950D02*
G75*
%LPD*%
D263*
X0693140Y0433750D03*
X0594740Y0434950D03*
X0594740Y0685750D03*
X0693140Y0685750D03*
D110*
X0634200Y0453550D03*
X0616880Y0453550D03*
D166*
X0602740Y0538950D03*
X0602740Y0548950D03*
X0610140Y0578550D03*
X0610140Y0588550D03*
X0631040Y0611950D03*
X0636040Y0621950D03*
X0641040Y0611950D03*
X0646040Y0621950D03*
X0651040Y0611950D03*
X0656040Y0621950D03*
X0661040Y0611950D03*
D366*
X0671040Y0646950D03*
X0626040Y0646950D03*
D286*
X0666040Y0621950D03*
D463*
X0668140Y0483890D03*
X0668140Y0460270D03*
X0686650Y0472080D03*
D28*
X0653540Y0544150D03*
X0645740Y0521150D03*
X0649940Y0514550D03*
X0637940Y0521350D03*
X0642740Y0540550D03*
X0629540Y0521350D03*
X0628340Y0514150D03*
X0616340Y0539350D03*
X0615140Y0497350D03*
X0622540Y0476750D03*
X0628540Y0476950D03*
X0640340Y0583750D03*
D688*
X0617940Y0583950D03*
M02*
