%
T01C0.015000
X61794Y58395
T02C0.025600
X6496Y21375
X6496Y20375
X6496Y18875
X5496Y18875
X5496Y20375
X5496Y21375
X8496Y9375
X9496Y9375
X9012Y13375
X10981Y13375
X10496Y4875
X11496Y4875
X8496Y29875
X18642Y21375
X18642Y20375
X18642Y18875
X17642Y18875
X17642Y20375
X17642Y21375
X20642Y9375
X21642Y9375
X21158Y13375
X23127Y13375
X22642Y4875
X23642Y4875
X20642Y29875
X30788Y21375
X30788Y20375
X30788Y18875
X29788Y18875
X29788Y20375
X29788Y21375
X32788Y9375
X33788Y9375
X33304Y13375
X35273Y13375
X34788Y4875
X35788Y4875
X32788Y29875
X42934Y21375
X42934Y20375
X42934Y18875
X41934Y18875
X41934Y20375
X41934Y21375
X44934Y9375
X45934Y9375
X45450Y13375
X47419Y13375
X46934Y4875
X47934Y4875
X44934Y29875
X55080Y21375
X55080Y20375
X55080Y18875
X54080Y18875
X54080Y20375
X54080Y21375
X57080Y9375
X58080Y9375
X57596Y13375
X59565Y13375
X59080Y4875
X60080Y4875
X57080Y29875
X6496Y62270
X6496Y61270
X6496Y59770
X5496Y59770
X5496Y61270
X5496Y62270
X8496Y50270
X9496Y50270
X9012Y54270
X10981Y54270
X10496Y45770
X11496Y45770
X8496Y70770
X18642Y62270
X18642Y61270
X18642Y59770
X17642Y59770
X17642Y61270
X17642Y62270
X20642Y50270
X21642Y50270
X21158Y54270
X23127Y54270
X22642Y45770
X23642Y45770
X20642Y70770
X56788Y63395
X56788Y62395
X56788Y60395
X56788Y59395
X56788Y67395
X56788Y68395
X56788Y70395
X56788Y71395
X31788Y47879
X31788Y45910
X41288Y51395
X40788Y64395
X46788Y65395
X47788Y65895
X47288Y66895
X49788Y70895
X49288Y71395
X56788Y64895
X61634Y53935
X62834Y51415
X62954Y52135
X63794Y52135
X64574Y52115
X64994Y51455
X64274Y54055
X65354Y54415
X64034Y58375
X61514Y49735
X62254Y47675
X62854Y47695
T03C0.033450
X6496Y13375
X7496Y13375
X7996Y12375
X7996Y11375
X7496Y16375
X7496Y17375
X7496Y18875
X6496Y16375
X5996Y22875
X5996Y26875
X5996Y27875
X5996Y31875
X5996Y32875
X5996Y36875
X7496Y34875
X7496Y38875
X9496Y38875
X9496Y34875
X11496Y34875
X11496Y38875
X11496Y18875
X11496Y17375
X11996Y12375
X11996Y11375
X7496Y29375
X7496Y28375
X7496Y27375
X7496Y26375
X7496Y25375
X7496Y24375
X7496Y23375
X7496Y22375
X7496Y21375
X7496Y20375
X8996Y15375
X9496Y14625
X9996Y15375
X10496Y20375
X10496Y21375
X10496Y22375
X10496Y23375
X10496Y24375
X10496Y25375
X10496Y26375
X10496Y27375
X10496Y28375
X10496Y29375
X10496Y30375
X10496Y31375
X10496Y32375
X10496Y33375
X9496Y39875
X9496Y40875
X7496Y40875
X7496Y39875
X7496Y33375
X7496Y32375
X7496Y31375
X7496Y30375
X11496Y39875
X11496Y40875
X11496Y9875
X11496Y8875
X12246Y9375
X5996Y8875
X5996Y9875
X4378Y29625
X4378Y30725
X3615Y30225
X3615Y29025
X18642Y13375
X19642Y13375
X20142Y12375
X20142Y11375
X19642Y16375
X19642Y17375
X19642Y18875
X18642Y16375
X18142Y22875
X18142Y26875
X18142Y27875
X18142Y31875
X18142Y32875
X18142Y36875
X19642Y34875
X19642Y38875
X21642Y38875
X21642Y34875
X23642Y34875
X23642Y38875
X23642Y18875
X23642Y17375
X24142Y12375
X24142Y11375
X19642Y29375
X19642Y28375
X19642Y27375
X19642Y26375
X19642Y25375
X19642Y24375
X19642Y23375
X19642Y22375
X19642Y21375
X19642Y20375
X21142Y15375
X21642Y14625
X22142Y15375
X22642Y20375
X22642Y21375
X22642Y22375
X22642Y23375
X22642Y24375
X22642Y25375
X22642Y26375
X22642Y27375
X22642Y28375
X22642Y29375
X22642Y30375
X22642Y31375
X22642Y32375
X22642Y33375
X21642Y39875
X21642Y40875
X19642Y40875
X19642Y39875
X19642Y33375
X19642Y32375
X19642Y31375
X19642Y30375
X23642Y39875
X23642Y40875
X23642Y9875
X23642Y8875
X24392Y9375
X18142Y8875
X18142Y9875
X16524Y29625
X16524Y30725
X15761Y30225
X15761Y29025
X30788Y13375
X31788Y13375
X32288Y12375
X32288Y11375
X31788Y16375
X31788Y17375
X31788Y18875
X30788Y16375
X30288Y22875
X30288Y26875
X30288Y27875
X30288Y31875
X30288Y32875
X30288Y36875
X31788Y34875
X31788Y38875
X33788Y38875
X33788Y34875
X35788Y34875
X35788Y38875
X35788Y18875
X35788Y17375
X36288Y12375
X36288Y11375
X31788Y29375
X31788Y28375
X31788Y27375
X31788Y26375
X31788Y25375
X31788Y24375
X31788Y23375
X31788Y22375
X31788Y21375
X31788Y20375
X33288Y15375
X33788Y14625
X34288Y15375
X34788Y20375
X34788Y21375
X34788Y22375
X34788Y23375
X34788Y24375
X34788Y25375
X34788Y26375
X34788Y27375
X34788Y28375
X34788Y29375
X34788Y30375
X34788Y31375
X34788Y32375
X34788Y33375
X33788Y39875
X33788Y40875
X31788Y40875
X31788Y39875
X31788Y33375
X31788Y32375
X31788Y31375
X31788Y30375
X35788Y39875
X35788Y40875
X35788Y9875
X35788Y8875
X36538Y9375
X30288Y8875
X30288Y9875
X28670Y29625
X28670Y30725
X27907Y30225
X27907Y29025
X42934Y13375
X43934Y13375
X44434Y12375
X44434Y11375
X43934Y16375
X43934Y17375
X43934Y18875
X42934Y16375
X42434Y22875
X42434Y26875
X42434Y27875
X42434Y31875
X42434Y32875
X42434Y36875
X43934Y34875
X43934Y38875
X45934Y38875
X45934Y34875
X47934Y34875
X47934Y38875
X47934Y18875
X47934Y17375
X48434Y12375
X48434Y11375
X43934Y29375
X43934Y28375
X43934Y27375
X43934Y26375
X43934Y25375
X43934Y24375
X43934Y23375
X43934Y22375
X43934Y21375
X43934Y20375
X45434Y15375
X45934Y14625
X46434Y15375
X46934Y20375
X46934Y21375
X46934Y22375
X46934Y23375
X46934Y24375
X46934Y25375
X46934Y26375
X46934Y27375
X46934Y28375
X46934Y29375
X46934Y30375
X46934Y31375
X46934Y32375
X46934Y33375
X45934Y39875
X45934Y40875
X43934Y40875
X43934Y39875
X43934Y33375
X43934Y32375
X43934Y31375
X43934Y30375
X47934Y39875
X47934Y40875
X47934Y9875
X47934Y8875
X48684Y9375
X42434Y8875
X42434Y9875
X40816Y29625
X40816Y30725
X40053Y30225
X40053Y29025
X55080Y13375
X56080Y13375
X56580Y12375
X56580Y11375
X56080Y16375
X56080Y17375
X56080Y18875
X55080Y16375
X54580Y22875
X54580Y26875
X54580Y27875
X54580Y31875
X54580Y32875
X54580Y36875
X56080Y34875
X56080Y38875
X58080Y38875
X58080Y34875
X60080Y34875
X60080Y38875
X60080Y18875
X60080Y17375
X60580Y12375
X60580Y11375
X56080Y29375
X56080Y28375
X56080Y27375
X56080Y26375
X56080Y25375
X56080Y24375
X56080Y23375
X56080Y22375
X56080Y21375
X56080Y20375
X57580Y15375
X58080Y14625
X58580Y15375
X59080Y20375
X59080Y21375
X59080Y22375
X59080Y23375
X59080Y24375
X59080Y25375
X59080Y26375
X59080Y27375
X59080Y28375
X59080Y29375
X59080Y30375
X59080Y31375
X59080Y32375
X59080Y33375
X58080Y39875
X58080Y40875
X56080Y40875
X56080Y39875
X56080Y33375
X56080Y32375
X56080Y31375
X56080Y30375
X60080Y39875
X60080Y40875
X60080Y9875
X60080Y8875
X60830Y9375
X54580Y8875
X54580Y9875
X52962Y29625
X52962Y30725
X52199Y30225
X52199Y29025
X6496Y54270
X7496Y54270
X7996Y53270
X7996Y52270
X7496Y57270
X7496Y58270
X7496Y59770
X6496Y57270
X5996Y63770
X5996Y67770
X5996Y68770
X5996Y72770
X5996Y73770
X5996Y77770
X7496Y75770
X7496Y79770
X9496Y79770
X9496Y75770
X11496Y75770
X11496Y79770
X11496Y59770
X11496Y58270
X11996Y53270
X11996Y52270
X7496Y70270
X7496Y69270
X7496Y68270
X7496Y67270
X7496Y66270
X7496Y65270
X7496Y64270
X7496Y63270
X7496Y62270
X7496Y61270
X8996Y56270
X9496Y55520
X9996Y56270
X10496Y61270
X10496Y62270
X10496Y63270
X10496Y64270
X10496Y65270
X10496Y66270
X10496Y67270
X10496Y68270
X10496Y69270
X10496Y70270
X10496Y71270
X10496Y72270
X10496Y73270
X10496Y74270
X9496Y80770
X9496Y81770
X7496Y81770
X7496Y80770
X7496Y74270
X7496Y73270
X7496Y72270
X7496Y71270
X11496Y80770
X11496Y81770
X11496Y50770
X11496Y49770
X12246Y50270
X5996Y49770
X5996Y50770
X4378Y70520
X4378Y71620
X3615Y71120
X3615Y69920
X18642Y54270
X19642Y54270
X20142Y53270
X20142Y52270
X19642Y57270
X19642Y58270
X19642Y59770
X18642Y57270
X18142Y63770
X18142Y67770
X18142Y68770
X18142Y72770
X18142Y73770
X18142Y77770
X19642Y75770
X19642Y79770
X21642Y79770
X21642Y75770
X23642Y75770
X23642Y79770
X23642Y59770
X23642Y58270
X24142Y53270
X24142Y52270
X19642Y70270
X19642Y69270
X19642Y68270
X19642Y67270
X19642Y66270
X19642Y65270
X19642Y64270
X19642Y63270
X19642Y62270
X19642Y61270
X21142Y56270
X21642Y55520
X22142Y56270
X22642Y61270
X22642Y62270
X22642Y63270
X22642Y64270
X22642Y65270
X22642Y66270
X22642Y67270
X22642Y68270
X22642Y69270
X22642Y70270
X22642Y71270
X22642Y72270
X22642Y73270
X22642Y74270
X21642Y80770
X21642Y81770
X19642Y81770
X19642Y80770
X19642Y74270
X19642Y73270
X19642Y72270
X19642Y71270
X23642Y80770
X23642Y81770
X23642Y50770
X23642Y49770
X24392Y50270
X18142Y49770
X18142Y50770
X16524Y70520
X16524Y71620
X15761Y71120
X15761Y69920
X35788Y74895
X31788Y74895
X30288Y74895
X30288Y72895
X30288Y68895
X31788Y68895
X30288Y66895
X30288Y62895
X31788Y62895
X30288Y60895
X30288Y56895
X31788Y56895
X30288Y54895
X30288Y50895
X31788Y50895
X30288Y48895
X30288Y44895
X31788Y44895
X35788Y44895
X35788Y50895
X35788Y56895
X35788Y62895
X35788Y68895
X43288Y73395
X45288Y73395
X45288Y77395
X43288Y77395
X30288Y78895
X35788Y46895
X35788Y47895
X35788Y48895
X38788Y48895
X38788Y47895
X38788Y46895
X38788Y52895
X38788Y53895
X38788Y54895
X35788Y54895
X35788Y53895
X35788Y52895
X35788Y58395
X35788Y59395
X35788Y60395
X38788Y60395
X38788Y59395
X38788Y58395
X38788Y64395
X38788Y65395
X38788Y66395
X35788Y66395
X35788Y65395
X35788Y64395
X35788Y70395
X35788Y71395
X35788Y72395
X38788Y72395
X38788Y71395
X38788Y70395
X43288Y71395
X44288Y71395
X45288Y71395
X45288Y68395
X44288Y68395
X43288Y68395
X45788Y62895
X45788Y61895
X45788Y60895
X45788Y59895
X45788Y58895
X45788Y57895
X45788Y56895
X45788Y55895
X45788Y54895
X45788Y53895
X45788Y52895
X45788Y51895
X45788Y50895
X45788Y49895
X48788Y49895
X48788Y50895
X48788Y51895
X48788Y52895
X48788Y53895
X48788Y54895
X48788Y55895
X48788Y56895
X48788Y57895
X48788Y58895
X48788Y59895
X48788Y60895
X48788Y61895
X48788Y62895
X38788Y76895
X38788Y77895
X38788Y78895
X35788Y78895
X35788Y77895
X35788Y76895
X63420Y45355
X61688Y45355
T04C0.039700
X11496Y3375
X10496Y3375
X10496Y6325
X11496Y6425
X9496Y6425
X9496Y3375
X11996Y14805
X11996Y15945
X11996Y20375
X12096Y21375
X11996Y22375
X12096Y23375
X11996Y24375
X12096Y25375
X11946Y26875
X12046Y27875
X11946Y28875
X11996Y30305
X11996Y31445
X23642Y3375
X22642Y3375
X22642Y6325
X23642Y6425
X21642Y6425
X21642Y3375
X24142Y14805
X24142Y15945
X24142Y20375
X24242Y21375
X24142Y22375
X24242Y23375
X24142Y24375
X24242Y25375
X24092Y26875
X24192Y27875
X24092Y28875
X24142Y30305
X24142Y31445
X35788Y3375
X34788Y3375
X34788Y6325
X35788Y6425
X33788Y6425
X33788Y3375
X36288Y14805
X36288Y15945
X36288Y20375
X36388Y21375
X36288Y22375
X36388Y23375
X36288Y24375
X36388Y25375
X36238Y26875
X36338Y27875
X36238Y28875
X36288Y30305
X36288Y31445
X47934Y3375
X46934Y3375
X46934Y6325
X47934Y6425
X45934Y6425
X45934Y3375
X48434Y14805
X48434Y15945
X48434Y20375
X48534Y21375
X48434Y22375
X48534Y23375
X48434Y24375
X48534Y25375
X48384Y26875
X48484Y27875
X48384Y28875
X48434Y30305
X48434Y31445
X60080Y3375
X59080Y3375
X59080Y6325
X60080Y6425
X58080Y6425
X58080Y3375
X60580Y14805
X60580Y15945
X60580Y20375
X60680Y21375
X60580Y22375
X60680Y23375
X60580Y24375
X60680Y25375
X60530Y26875
X60630Y27875
X60530Y28875
X60580Y30305
X60580Y31445
X11496Y44270
X10496Y44270
X10496Y47220
X11496Y47320
X9496Y47320
X9496Y44270
X11996Y55700
X11996Y56840
X11996Y61270
X12096Y62270
X11996Y63270
X12096Y64270
X11996Y65270
X12096Y66270
X11946Y67770
X12046Y68770
X11946Y69770
X11996Y71200
X11996Y72340
X23642Y44270
X22642Y44270
X22642Y47220
X23642Y47320
X21642Y47320
X21642Y44270
X24142Y55700
X24142Y56840
X24142Y61270
X24242Y62270
X24142Y63270
X24242Y64270
X24142Y65270
X24242Y66270
X24092Y67770
X24192Y68770
X24092Y69770
X24142Y71200
X24142Y72340
X51888Y54395
X51788Y53395
X51888Y52395
X51788Y51395
X51888Y50395
X51788Y49395
X33788Y48895
X33788Y47895
X33788Y46895
X33788Y52895
X33788Y53895
X33788Y54895
X33788Y58895
X33788Y59895
X33788Y60895
X33788Y64895
X33788Y65895
X33788Y66895
X33788Y70895
X33788Y71895
X33788Y72895
X33788Y76895
X33788Y77895
X33788Y78895
X50288Y78145
X50288Y77145
X50288Y76145
X50288Y75145
X51288Y75645
X51288Y76645
X51288Y77645
X51288Y74645
X60274Y53895
X60274Y54895
X61014Y57855
X61014Y58855
X69314Y43375
X66104Y61195
X65604Y62195
X65104Y61195
X64604Y62195
X64104Y61195
X63604Y62195
X63104Y61195
X66604Y62195
X69314Y68575
X59474Y68575
X59474Y43495
T05C0.051200
X27788Y77895
X27788Y75926
X27788Y71895
X27788Y69926
X27788Y65895
X27788Y63926
X27788Y59895
X27788Y57926
X27788Y53895
X27788Y51926
X27788Y47895
X27788Y45926
X42319Y79395
X44288Y79395
T06C0.110200
X57288Y43895
X27288Y43895
X27288Y80395
X57288Y80395
T07C0.118000
X55288Y54288
X57138Y53107
X55288Y51926
X66814Y48389
X66814Y46027
X68665Y47208
T08C0.126000
X53788Y74145
X53788Y78645
X67104Y64695
X62604Y64695
M30
