G75*
G70*
%OFA0B0*%
%FSLAX25Y25*%
%IPPOS*%
%LPD*%
%AMOC8*
5,1,8,0,0,1.08239X$1,22.5*
%
%ADD485C,0.00000*%
X0020000Y0020000D02*
G75*
%LPD*%
D485*
X0134960Y0020000D02*
X0020000Y0020000D01*
X0020000Y0422450D01*
X0134960Y0422450D01*
X0134960Y0020000D01*
X0141460Y0020000D02*
G75*
%LPD*%
D485*
X0256420Y0020000D02*
X0141460Y0020000D01*
X0141460Y0422450D01*
X0256420Y0422450D01*
X0256420Y0020000D01*
X0262920Y0020000D02*
G75*
%LPD*%
D485*
X0377880Y0020000D02*
X0262920Y0020000D01*
X0262920Y0422450D01*
X0377880Y0422450D01*
X0377880Y0020000D01*
X0384380Y0020000D02*
G75*
%LPD*%
D485*
X0499340Y0020000D02*
X0384380Y0020000D01*
X0384380Y0422450D01*
X0499340Y0422450D01*
X0499340Y0020000D01*
X0505840Y0020000D02*
G75*
%LPD*%
D485*
X0620800Y0020000D02*
X0505840Y0020000D01*
X0505840Y0422450D01*
X0620800Y0422450D01*
X0620800Y0020000D01*
X0020000Y0428950D02*
G75*
%LPD*%
D485*
X0134960Y0428950D02*
X0020000Y0428950D01*
X0020000Y0831400D01*
X0134960Y0831400D01*
X0134960Y0428950D01*
X0141460Y0428950D02*
G75*
%LPD*%
D485*
X0256420Y0428950D02*
X0141460Y0428950D01*
X0141460Y0831400D01*
X0256420Y0831400D01*
X0256420Y0428950D01*
X0262920Y0428950D02*
G75*
%LPD*%
D485*
X0582880Y0428950D02*
X0262920Y0428950D01*
X0262920Y0812650D01*
X0582880Y0812650D01*
X0582880Y0428950D01*
X0572880Y0433440D02*
X0572410Y0433460D01*
X0571950Y0433520D01*
X0571490Y0433620D01*
X0571040Y0433750D01*
X0570610Y0433930D01*
X0570190Y0434140D01*
X0569790Y0434380D01*
X0569420Y0434660D01*
X0569070Y0434970D01*
X0568740Y0435310D01*
X0568450Y0435670D01*
X0568190Y0436060D01*
X0567960Y0436470D01*
X0567770Y0436900D01*
X0567610Y0437340D01*
X0567490Y0437790D01*
X0567410Y0438250D01*
X0567370Y0438720D01*
X0567370Y0439180D01*
X0567410Y0439650D01*
X0567490Y0440110D01*
X0567610Y0440560D01*
X0567770Y0441000D01*
X0567960Y0441430D01*
X0568190Y0441840D01*
X0568450Y0442230D01*
X0568740Y0442590D01*
X0569070Y0442930D01*
X0569420Y0443240D01*
X0569790Y0443520D01*
X0570190Y0443760D01*
X0570610Y0443970D01*
X0571040Y0444150D01*
X0571490Y0444280D01*
X0571950Y0444380D01*
X0572410Y0444440D01*
X0572880Y0444460D01*
X0573350Y0444440D01*
X0573810Y0444380D01*
X0574270Y0444280D01*
X0574720Y0444150D01*
X0575150Y0443970D01*
X0575570Y0443760D01*
X0575970Y0443520D01*
X0576340Y0443240D01*
X0576690Y0442930D01*
X0577020Y0442590D01*
X0577310Y0442230D01*
X0577570Y0441840D01*
X0577800Y0441430D01*
X0577990Y0441000D01*
X0578150Y0440560D01*
X0578270Y0440110D01*
X0578350Y0439650D01*
X0578390Y0439180D01*
X0578390Y0438720D01*
X0578350Y0438250D01*
X0578270Y0437790D01*
X0578150Y0437340D01*
X0577990Y0436900D01*
X0577800Y0436470D01*
X0577570Y0436060D01*
X0577310Y0435670D01*
X0577020Y0435310D01*
X0576690Y0434970D01*
X0576340Y0434660D01*
X0575970Y0434380D01*
X0575570Y0434140D01*
X0575150Y0433930D01*
X0574720Y0433750D01*
X0574270Y0433620D01*
X0573810Y0433520D01*
X0573350Y0433460D01*
X0572880Y0433440D01*
X0537880Y0735150D02*
X0537380Y0735170D01*
X0536880Y0735230D01*
X0536390Y0735330D01*
X0535910Y0735470D01*
X0535440Y0735640D01*
X0534990Y0735850D01*
X0534550Y0736100D01*
X0534140Y0736380D01*
X0533750Y0736700D01*
X0533380Y0737040D01*
X0533040Y0737410D01*
X0532740Y0737810D01*
X0532470Y0738230D01*
X0532230Y0738670D01*
X0532020Y0739130D01*
X0531860Y0739600D01*
X0531730Y0740080D01*
X0531640Y0740580D01*
X0531590Y0741070D01*
X0531580Y0741580D01*
X0531610Y0742080D01*
X0531680Y0742570D01*
X0531790Y0743060D01*
X0531940Y0743540D01*
X0532120Y0744000D01*
X0532340Y0744450D01*
X0532600Y0744880D01*
X0532890Y0745290D01*
X0533210Y0745680D01*
X0533560Y0746040D01*
X0533940Y0746360D01*
X0534340Y0746660D01*
X0534770Y0746930D01*
X0535210Y0747160D01*
X0535670Y0747350D01*
X0536150Y0747510D01*
X0536640Y0747630D01*
X0537130Y0747710D01*
X0537630Y0747750D01*
X0538130Y0747750D01*
X0538630Y0747710D01*
X0539120Y0747630D01*
X0539610Y0747510D01*
X0540090Y0747350D01*
X0540550Y0747160D01*
X0540990Y0746930D01*
X0541420Y0746660D01*
X0541820Y0746360D01*
X0542200Y0746040D01*
X0542550Y0745680D01*
X0542870Y0745290D01*
X0543160Y0744880D01*
X0543420Y0744450D01*
X0543640Y0744000D01*
X0543820Y0743540D01*
X0543970Y0743060D01*
X0544080Y0742570D01*
X0544150Y0742080D01*
X0544180Y0741580D01*
X0544170Y0741070D01*
X0544120Y0740580D01*
X0544030Y0740080D01*
X0543900Y0739600D01*
X0543740Y0739130D01*
X0543530Y0738670D01*
X0543290Y0738230D01*
X0543020Y0737810D01*
X0542720Y0737410D01*
X0542380Y0737040D01*
X0542010Y0736700D01*
X0541620Y0736380D01*
X0541210Y0736100D01*
X0540770Y0735850D01*
X0540320Y0735640D01*
X0539850Y0735470D01*
X0539370Y0735330D01*
X0538880Y0735230D01*
X0538380Y0735170D01*
X0537880Y0735150D01*
X0537880Y0780150D02*
X0537380Y0780170D01*
X0536880Y0780230D01*
X0536390Y0780330D01*
X0535910Y0780470D01*
X0535440Y0780640D01*
X0534990Y0780850D01*
X0534550Y0781100D01*
X0534140Y0781380D01*
X0533750Y0781700D01*
X0533380Y0782040D01*
X0533040Y0782410D01*
X0532740Y0782810D01*
X0532470Y0783230D01*
X0532230Y0783670D01*
X0532020Y0784130D01*
X0531860Y0784600D01*
X0531730Y0785080D01*
X0531640Y0785580D01*
X0531590Y0786070D01*
X0531580Y0786580D01*
X0531610Y0787080D01*
X0531680Y0787570D01*
X0531790Y0788060D01*
X0531940Y0788540D01*
X0532120Y0789000D01*
X0532340Y0789450D01*
X0532600Y0789880D01*
X0532890Y0790290D01*
X0533210Y0790680D01*
X0533560Y0791040D01*
X0533940Y0791360D01*
X0534340Y0791660D01*
X0534770Y0791930D01*
X0535210Y0792160D01*
X0535670Y0792350D01*
X0536150Y0792510D01*
X0536640Y0792630D01*
X0537130Y0792710D01*
X0537630Y0792750D01*
X0538130Y0792750D01*
X0538630Y0792710D01*
X0539120Y0792630D01*
X0539610Y0792510D01*
X0540090Y0792350D01*
X0540550Y0792160D01*
X0540990Y0791930D01*
X0541420Y0791660D01*
X0541820Y0791360D01*
X0542200Y0791040D01*
X0542550Y0790680D01*
X0542870Y0790290D01*
X0543160Y0789880D01*
X0543420Y0789450D01*
X0543640Y0789000D01*
X0543820Y0788540D01*
X0543970Y0788060D01*
X0544080Y0787570D01*
X0544150Y0787080D01*
X0544180Y0786580D01*
X0544170Y0786070D01*
X0544120Y0785580D01*
X0544030Y0785080D01*
X0543900Y0784600D01*
X0543740Y0784130D01*
X0543530Y0783670D01*
X0543290Y0783230D01*
X0543020Y0782810D01*
X0542720Y0782410D01*
X0542380Y0782040D01*
X0542010Y0781700D01*
X0541620Y0781380D01*
X0541210Y0781100D01*
X0540770Y0780850D01*
X0540320Y0780640D01*
X0539850Y0780470D01*
X0539370Y0780330D01*
X0538880Y0780230D01*
X0538380Y0780170D01*
X0537880Y0780150D01*
X0572880Y0798440D02*
X0572410Y0798460D01*
X0571950Y0798520D01*
X0571490Y0798620D01*
X0571040Y0798750D01*
X0570610Y0798930D01*
X0570190Y0799140D01*
X0569790Y0799380D01*
X0569420Y0799660D01*
X0569070Y0799970D01*
X0568740Y0800310D01*
X0568450Y0800670D01*
X0568190Y0801060D01*
X0567960Y0801470D01*
X0567770Y0801900D01*
X0567610Y0802340D01*
X0567490Y0802790D01*
X0567410Y0803250D01*
X0567370Y0803720D01*
X0567370Y0804180D01*
X0567410Y0804650D01*
X0567490Y0805110D01*
X0567610Y0805560D01*
X0567770Y0806000D01*
X0567960Y0806430D01*
X0568190Y0806840D01*
X0568450Y0807230D01*
X0568740Y0807590D01*
X0569070Y0807930D01*
X0569420Y0808240D01*
X0569790Y0808520D01*
X0570190Y0808760D01*
X0570610Y0808970D01*
X0571040Y0809150D01*
X0571490Y0809280D01*
X0571950Y0809380D01*
X0572410Y0809440D01*
X0572880Y0809460D01*
X0573350Y0809440D01*
X0573810Y0809380D01*
X0574270Y0809280D01*
X0574720Y0809150D01*
X0575150Y0808970D01*
X0575570Y0808760D01*
X0575970Y0808520D01*
X0576340Y0808240D01*
X0576690Y0807930D01*
X0577020Y0807590D01*
X0577310Y0807230D01*
X0577570Y0806840D01*
X0577800Y0806430D01*
X0577990Y0806000D01*
X0578150Y0805560D01*
X0578270Y0805110D01*
X0578350Y0804650D01*
X0578390Y0804180D01*
X0578390Y0803720D01*
X0578350Y0803250D01*
X0578270Y0802790D01*
X0578150Y0802340D01*
X0577990Y0801900D01*
X0577800Y0801470D01*
X0577570Y0801060D01*
X0577310Y0800670D01*
X0577020Y0800310D01*
X0576690Y0799970D01*
X0576340Y0799660D01*
X0575970Y0799380D01*
X0575570Y0799140D01*
X0575150Y0798930D01*
X0574720Y0798750D01*
X0574270Y0798620D01*
X0573810Y0798520D01*
X0573350Y0798460D01*
X0572880Y0798440D01*
X0272880Y0798440D02*
X0272410Y0798460D01*
X0271950Y0798520D01*
X0271490Y0798620D01*
X0271040Y0798750D01*
X0270610Y0798930D01*
X0270190Y0799140D01*
X0269790Y0799380D01*
X0269420Y0799660D01*
X0269070Y0799970D01*
X0268740Y0800310D01*
X0268450Y0800670D01*
X0268190Y0801060D01*
X0267960Y0801470D01*
X0267770Y0801900D01*
X0267610Y0802340D01*
X0267490Y0802790D01*
X0267410Y0803250D01*
X0267370Y0803720D01*
X0267370Y0804180D01*
X0267410Y0804650D01*
X0267490Y0805110D01*
X0267610Y0805560D01*
X0267770Y0806000D01*
X0267960Y0806430D01*
X0268190Y0806840D01*
X0268450Y0807230D01*
X0268740Y0807590D01*
X0269070Y0807930D01*
X0269420Y0808240D01*
X0269790Y0808520D01*
X0270190Y0808760D01*
X0270610Y0808970D01*
X0271040Y0809150D01*
X0271490Y0809280D01*
X0271950Y0809380D01*
X0272410Y0809440D01*
X0272880Y0809460D01*
X0273350Y0809440D01*
X0273810Y0809380D01*
X0274270Y0809280D01*
X0274720Y0809150D01*
X0275150Y0808970D01*
X0275570Y0808760D01*
X0275970Y0808520D01*
X0276340Y0808240D01*
X0276690Y0807930D01*
X0277020Y0807590D01*
X0277310Y0807230D01*
X0277570Y0806840D01*
X0277800Y0806430D01*
X0277990Y0806000D01*
X0278150Y0805560D01*
X0278270Y0805110D01*
X0278350Y0804650D01*
X0278390Y0804180D01*
X0278390Y0803720D01*
X0278350Y0803250D01*
X0278270Y0802790D01*
X0278150Y0802340D01*
X0277990Y0801900D01*
X0277800Y0801470D01*
X0277570Y0801060D01*
X0277310Y0800670D01*
X0277020Y0800310D01*
X0276690Y0799970D01*
X0276340Y0799660D01*
X0275970Y0799380D01*
X0275570Y0799140D01*
X0275150Y0798930D01*
X0274720Y0798750D01*
X0274270Y0798620D01*
X0273810Y0798520D01*
X0273350Y0798460D01*
X0272880Y0798440D01*
X0272880Y0433440D02*
X0272410Y0433460D01*
X0271950Y0433520D01*
X0271490Y0433620D01*
X0271040Y0433750D01*
X0270610Y0433930D01*
X0270190Y0434140D01*
X0269790Y0434380D01*
X0269420Y0434660D01*
X0269070Y0434970D01*
X0268740Y0435310D01*
X0268450Y0435670D01*
X0268190Y0436060D01*
X0267960Y0436470D01*
X0267770Y0436900D01*
X0267610Y0437340D01*
X0267490Y0437790D01*
X0267410Y0438250D01*
X0267370Y0438720D01*
X0267370Y0439180D01*
X0267410Y0439650D01*
X0267490Y0440110D01*
X0267610Y0440560D01*
X0267770Y0441000D01*
X0267960Y0441430D01*
X0268190Y0441840D01*
X0268450Y0442230D01*
X0268740Y0442590D01*
X0269070Y0442930D01*
X0269420Y0443240D01*
X0269790Y0443520D01*
X0270190Y0443760D01*
X0270610Y0443970D01*
X0271040Y0444150D01*
X0271490Y0444280D01*
X0271950Y0444380D01*
X0272410Y0444440D01*
X0272880Y0444460D01*
X0273350Y0444440D01*
X0273810Y0444380D01*
X0274270Y0444280D01*
X0274720Y0444150D01*
X0275150Y0443970D01*
X0275570Y0443760D01*
X0275970Y0443520D01*
X0276340Y0443240D01*
X0276690Y0442930D01*
X0277020Y0442590D01*
X0277310Y0442230D01*
X0277570Y0441840D01*
X0277800Y0441430D01*
X0277990Y0441000D01*
X0278150Y0440560D01*
X0278270Y0440110D01*
X0278350Y0439650D01*
X0278390Y0439180D01*
X0278390Y0438720D01*
X0278350Y0438250D01*
X0278270Y0437790D01*
X0278150Y0437340D01*
X0277990Y0436900D01*
X0277800Y0436470D01*
X0277570Y0436060D01*
X0277310Y0435670D01*
X0277020Y0435310D01*
X0276690Y0434970D01*
X0276340Y0434660D01*
X0275970Y0434380D01*
X0275570Y0434140D01*
X0275150Y0433930D01*
X0274720Y0433750D01*
X0274270Y0433620D01*
X0273810Y0433520D01*
X0273350Y0433460D01*
X0272880Y0433440D01*
X0589380Y0428950D02*
G75*
%LPD*%
D485*
X0697940Y0428950D02*
X0589380Y0428950D01*
X0589380Y0690650D01*
X0697940Y0690650D01*
X0697940Y0428950D01*
X0693140Y0431780D02*
X0692870Y0431800D01*
X0692600Y0431860D01*
X0692340Y0431950D01*
X0692100Y0432080D01*
X0691870Y0432240D01*
X0691680Y0432430D01*
X0691510Y0432650D01*
X0691370Y0432890D01*
X0691270Y0433140D01*
X0691200Y0433410D01*
X0691170Y0433680D01*
X0691180Y0433960D01*
X0691230Y0434230D01*
X0691310Y0434490D01*
X0691430Y0434730D01*
X0691590Y0434960D01*
X0691770Y0435170D01*
X0691980Y0435340D01*
X0692220Y0435490D01*
X0692470Y0435600D01*
X0692730Y0435680D01*
X0693000Y0435720D01*
X0693280Y0435720D01*
X0693550Y0435680D01*
X0693810Y0435600D01*
X0694060Y0435490D01*
X0694300Y0435340D01*
X0694510Y0435170D01*
X0694690Y0434960D01*
X0694850Y0434740D01*
X0694970Y0434490D01*
X0695050Y0434230D01*
X0695100Y0433960D01*
X0695110Y0433680D01*
X0695080Y0433410D01*
X0695010Y0433140D01*
X0694910Y0432890D01*
X0694770Y0432650D01*
X0694600Y0432430D01*
X0694410Y0432240D01*
X0694180Y0432080D01*
X0693940Y0431950D01*
X0693680Y0431860D01*
X0693410Y0431800D01*
X0693140Y0431780D01*
X0634200Y0451780D02*
X0633940Y0451800D01*
X0633680Y0451860D01*
X0633430Y0451960D01*
X0633200Y0452090D01*
X0633000Y0452250D01*
X0632820Y0452450D01*
X0632670Y0452670D01*
X0632550Y0452900D01*
X0632470Y0453160D01*
X0632430Y0453420D01*
X0632430Y0453680D01*
X0632470Y0453940D01*
X0632550Y0454200D01*
X0632670Y0454440D01*
X0632820Y0454650D01*
X0633000Y0454850D01*
X0633200Y0455010D01*
X0633430Y0455140D01*
X0633680Y0455240D01*
X0633940Y0455300D01*
X0634200Y0455320D01*
X0634460Y0455300D01*
X0634720Y0455240D01*
X0634970Y0455140D01*
X0635200Y0455010D01*
X0635400Y0454850D01*
X0635580Y0454650D01*
X0635730Y0454430D01*
X0635850Y0454200D01*
X0635930Y0453940D01*
X0635970Y0453680D01*
X0635970Y0453420D01*
X0635930Y0453160D01*
X0635850Y0452900D01*
X0635730Y0452660D01*
X0635580Y0452450D01*
X0635400Y0452250D01*
X0635200Y0452090D01*
X0634970Y0451960D01*
X0634720Y0451860D01*
X0634460Y0451800D01*
X0634200Y0451780D01*
X0616880Y0451780D02*
X0616620Y0451800D01*
X0616360Y0451860D01*
X0616110Y0451960D01*
X0615880Y0452090D01*
X0615680Y0452250D01*
X0615500Y0452450D01*
X0615350Y0452670D01*
X0615230Y0452900D01*
X0615150Y0453160D01*
X0615110Y0453420D01*
X0615110Y0453680D01*
X0615150Y0453940D01*
X0615230Y0454200D01*
X0615350Y0454440D01*
X0615500Y0454650D01*
X0615680Y0454850D01*
X0615880Y0455010D01*
X0616110Y0455140D01*
X0616360Y0455240D01*
X0616620Y0455300D01*
X0616880Y0455320D01*
X0617140Y0455300D01*
X0617400Y0455240D01*
X0617650Y0455140D01*
X0617880Y0455010D01*
X0618080Y0454850D01*
X0618260Y0454650D01*
X0618410Y0454430D01*
X0618530Y0454200D01*
X0618610Y0453940D01*
X0618650Y0453680D01*
X0618650Y0453420D01*
X0618610Y0453160D01*
X0618530Y0452900D01*
X0618410Y0452660D01*
X0618260Y0452450D01*
X0618080Y0452250D01*
X0617880Y0452090D01*
X0617650Y0451960D01*
X0617400Y0451860D01*
X0617140Y0451800D01*
X0616880Y0451780D01*
X0594740Y0432980D02*
X0594470Y0433000D01*
X0594200Y0433060D01*
X0593940Y0433150D01*
X0593700Y0433280D01*
X0593470Y0433440D01*
X0593280Y0433630D01*
X0593110Y0433850D01*
X0592970Y0434090D01*
X0592870Y0434340D01*
X0592800Y0434610D01*
X0592770Y0434880D01*
X0592780Y0435160D01*
X0592830Y0435430D01*
X0592910Y0435690D01*
X0593030Y0435930D01*
X0593190Y0436160D01*
X0593370Y0436370D01*
X0593580Y0436540D01*
X0593820Y0436690D01*
X0594070Y0436800D01*
X0594330Y0436880D01*
X0594600Y0436920D01*
X0594880Y0436920D01*
X0595150Y0436880D01*
X0595410Y0436800D01*
X0595660Y0436690D01*
X0595900Y0436540D01*
X0596110Y0436370D01*
X0596290Y0436160D01*
X0596450Y0435940D01*
X0596570Y0435690D01*
X0596650Y0435430D01*
X0596700Y0435160D01*
X0596710Y0434880D01*
X0596680Y0434610D01*
X0596610Y0434340D01*
X0596510Y0434090D01*
X0596370Y0433850D01*
X0596200Y0433630D01*
X0596010Y0433440D01*
X0595780Y0433280D01*
X0595540Y0433150D01*
X0595280Y0433060D01*
X0595010Y0433000D01*
X0594740Y0432980D01*
X0626040Y0640650D02*
X0625540Y0640670D01*
X0625040Y0640730D01*
X0624550Y0640830D01*
X0624070Y0640970D01*
X0623600Y0641140D01*
X0623150Y0641350D01*
X0622710Y0641600D01*
X0622300Y0641880D01*
X0621910Y0642200D01*
X0621540Y0642540D01*
X0621200Y0642910D01*
X0620900Y0643310D01*
X0620630Y0643730D01*
X0620390Y0644170D01*
X0620180Y0644630D01*
X0620020Y0645100D01*
X0619890Y0645580D01*
X0619800Y0646080D01*
X0619750Y0646570D01*
X0619740Y0647080D01*
X0619770Y0647580D01*
X0619840Y0648070D01*
X0619950Y0648560D01*
X0620100Y0649040D01*
X0620280Y0649500D01*
X0620500Y0649950D01*
X0620760Y0650380D01*
X0621050Y0650790D01*
X0621370Y0651180D01*
X0621720Y0651540D01*
X0622100Y0651860D01*
X0622500Y0652160D01*
X0622930Y0652430D01*
X0623370Y0652660D01*
X0623830Y0652850D01*
X0624310Y0653010D01*
X0624800Y0653130D01*
X0625290Y0653210D01*
X0625790Y0653250D01*
X0626290Y0653250D01*
X0626790Y0653210D01*
X0627280Y0653130D01*
X0627770Y0653010D01*
X0628250Y0652850D01*
X0628710Y0652660D01*
X0629150Y0652430D01*
X0629580Y0652160D01*
X0629980Y0651860D01*
X0630360Y0651540D01*
X0630710Y0651180D01*
X0631030Y0650790D01*
X0631320Y0650380D01*
X0631580Y0649950D01*
X0631800Y0649500D01*
X0631980Y0649040D01*
X0632130Y0648560D01*
X0632240Y0648070D01*
X0632310Y0647580D01*
X0632340Y0647080D01*
X0632330Y0646570D01*
X0632280Y0646080D01*
X0632190Y0645580D01*
X0632060Y0645100D01*
X0631900Y0644630D01*
X0631690Y0644170D01*
X0631450Y0643730D01*
X0631180Y0643310D01*
X0630880Y0642910D01*
X0630540Y0642540D01*
X0630170Y0642200D01*
X0629780Y0641880D01*
X0629370Y0641600D01*
X0628930Y0641350D01*
X0628480Y0641140D01*
X0628010Y0640970D01*
X0627530Y0640830D01*
X0627040Y0640730D01*
X0626540Y0640670D01*
X0626040Y0640650D01*
X0594740Y0683780D02*
X0594470Y0683800D01*
X0594200Y0683860D01*
X0593940Y0683950D01*
X0593700Y0684080D01*
X0593470Y0684240D01*
X0593280Y0684430D01*
X0593110Y0684650D01*
X0592970Y0684890D01*
X0592870Y0685140D01*
X0592800Y0685410D01*
X0592770Y0685680D01*
X0592780Y0685960D01*
X0592830Y0686230D01*
X0592910Y0686490D01*
X0593030Y0686730D01*
X0593190Y0686960D01*
X0593370Y0687170D01*
X0593580Y0687340D01*
X0593820Y0687490D01*
X0594070Y0687600D01*
X0594330Y0687680D01*
X0594600Y0687720D01*
X0594880Y0687720D01*
X0595150Y0687680D01*
X0595410Y0687600D01*
X0595660Y0687490D01*
X0595900Y0687340D01*
X0596110Y0687170D01*
X0596290Y0686960D01*
X0596450Y0686740D01*
X0596570Y0686490D01*
X0596650Y0686230D01*
X0596700Y0685960D01*
X0596710Y0685680D01*
X0596680Y0685410D01*
X0596610Y0685140D01*
X0596510Y0684890D01*
X0596370Y0684650D01*
X0596200Y0684430D01*
X0596010Y0684240D01*
X0595780Y0684080D01*
X0595540Y0683950D01*
X0595280Y0683860D01*
X0595010Y0683800D01*
X0594740Y0683780D01*
X0671040Y0640650D02*
X0670540Y0640670D01*
X0670040Y0640730D01*
X0669550Y0640830D01*
X0669070Y0640970D01*
X0668600Y0641140D01*
X0668150Y0641350D01*
X0667710Y0641600D01*
X0667300Y0641880D01*
X0666910Y0642200D01*
X0666540Y0642540D01*
X0666200Y0642910D01*
X0665900Y0643310D01*
X0665630Y0643730D01*
X0665390Y0644170D01*
X0665180Y0644630D01*
X0665020Y0645100D01*
X0664890Y0645580D01*
X0664800Y0646080D01*
X0664750Y0646570D01*
X0664740Y0647080D01*
X0664770Y0647580D01*
X0664840Y0648070D01*
X0664950Y0648560D01*
X0665100Y0649040D01*
X0665280Y0649500D01*
X0665500Y0649950D01*
X0665760Y0650380D01*
X0666050Y0650790D01*
X0666370Y0651180D01*
X0666720Y0651540D01*
X0667100Y0651860D01*
X0667500Y0652160D01*
X0667930Y0652430D01*
X0668370Y0652660D01*
X0668830Y0652850D01*
X0669310Y0653010D01*
X0669800Y0653130D01*
X0670290Y0653210D01*
X0670790Y0653250D01*
X0671290Y0653250D01*
X0671790Y0653210D01*
X0672280Y0653130D01*
X0672770Y0653010D01*
X0673250Y0652850D01*
X0673710Y0652660D01*
X0674150Y0652430D01*
X0674580Y0652160D01*
X0674980Y0651860D01*
X0675360Y0651540D01*
X0675710Y0651180D01*
X0676030Y0650790D01*
X0676320Y0650380D01*
X0676580Y0649950D01*
X0676800Y0649500D01*
X0676980Y0649040D01*
X0677130Y0648560D01*
X0677240Y0648070D01*
X0677310Y0647580D01*
X0677340Y0647080D01*
X0677330Y0646570D01*
X0677280Y0646080D01*
X0677190Y0645580D01*
X0677060Y0645100D01*
X0676900Y0644630D01*
X0676690Y0644170D01*
X0676450Y0643730D01*
X0676180Y0643310D01*
X0675880Y0642910D01*
X0675540Y0642540D01*
X0675170Y0642200D01*
X0674780Y0641880D01*
X0674370Y0641600D01*
X0673930Y0641350D01*
X0673480Y0641140D01*
X0673010Y0640970D01*
X0672530Y0640830D01*
X0672040Y0640730D01*
X0671540Y0640670D01*
X0671040Y0640650D01*
X0693140Y0683780D02*
X0692870Y0683800D01*
X0692600Y0683860D01*
X0692340Y0683950D01*
X0692100Y0684080D01*
X0691870Y0684240D01*
X0691680Y0684430D01*
X0691510Y0684650D01*
X0691370Y0684890D01*
X0691270Y0685140D01*
X0691200Y0685410D01*
X0691170Y0685680D01*
X0691180Y0685960D01*
X0691230Y0686230D01*
X0691310Y0686490D01*
X0691430Y0686730D01*
X0691590Y0686960D01*
X0691770Y0687170D01*
X0691980Y0687340D01*
X0692220Y0687490D01*
X0692470Y0687600D01*
X0692730Y0687680D01*
X0693000Y0687720D01*
X0693280Y0687720D01*
X0693550Y0687680D01*
X0693810Y0687600D01*
X0694060Y0687490D01*
X0694300Y0687340D01*
X0694510Y0687170D01*
X0694690Y0686960D01*
X0694850Y0686740D01*
X0694970Y0686490D01*
X0695050Y0686230D01*
X0695100Y0685960D01*
X0695110Y0685680D01*
X0695080Y0685410D01*
X0695010Y0685140D01*
X0694910Y0684890D01*
X0694770Y0684650D01*
X0694600Y0684430D01*
X0694410Y0684240D01*
X0694180Y0684080D01*
X0693940Y0683950D01*
X0693680Y0683860D01*
X0693410Y0683800D01*
X0693140Y0683780D01*
M02*
