G75*
G70*
%OFA0B0*%
%FSLAX25Y25*%
%IPPOS*%
%LPD*%
%AMOC8*
5,1,8,0,0,1.08239X$1,22.5*
%
%ADD177C,0.00100*%
D177*
X0060960Y0209750D02*
X0068960Y0217750D01*
X0068960Y0209750D02*
X0060960Y0217750D01*
X0060960Y0213750D02*
X0068960Y0213750D01*
X0060960Y0199750D02*
X0068960Y0207750D01*
X0068960Y0199750D02*
X0060960Y0207750D01*
X0060960Y0203750D02*
X0068960Y0203750D01*
X0060960Y0184750D02*
X0068960Y0192750D01*
X0068960Y0184750D02*
X0060960Y0192750D01*
X0060960Y0188750D02*
X0068960Y0188750D01*
X0050960Y0184750D02*
X0058960Y0192750D01*
X0058960Y0184750D02*
X0050960Y0192750D01*
X0050960Y0188750D02*
X0058960Y0188750D01*
X0050960Y0199750D02*
X0058960Y0207750D01*
X0058960Y0199750D02*
X0050960Y0207750D01*
X0050960Y0203750D02*
X0058960Y0203750D01*
X0050960Y0209750D02*
X0058960Y0217750D01*
X0058960Y0209750D02*
X0050960Y0217750D01*
X0050960Y0213750D02*
X0058960Y0213750D01*
X0080960Y0089750D02*
X0088960Y0097750D01*
X0088960Y0089750D02*
X0080960Y0097750D01*
X0080960Y0093750D02*
X0088960Y0093750D01*
X0090960Y0089750D02*
X0098960Y0097750D01*
X0098960Y0089750D02*
X0090960Y0097750D01*
X0090960Y0093750D02*
X0098960Y0093750D01*
X0086120Y0129750D02*
X0094120Y0137750D01*
X0094120Y0129750D02*
X0086120Y0137750D01*
X0086120Y0133750D02*
X0094120Y0133750D01*
X0105810Y0129750D02*
X0113810Y0137750D01*
X0113810Y0129750D02*
X0105810Y0137750D01*
X0105810Y0133750D02*
X0113810Y0133750D01*
X0100960Y0044750D02*
X0108960Y0052750D01*
X0108960Y0044750D02*
X0100960Y0052750D01*
X0100960Y0048750D02*
X0108960Y0048750D01*
X0110960Y0044750D02*
X0118960Y0052750D01*
X0118960Y0044750D02*
X0110960Y0052750D01*
X0110960Y0048750D02*
X0118960Y0048750D01*
X0080960Y0294750D02*
X0088960Y0302750D01*
X0088960Y0294750D02*
X0080960Y0302750D01*
X0080960Y0298750D02*
X0088960Y0298750D01*
X0209750Y0494950D02*
X0217750Y0502950D01*
X0217750Y0494950D02*
X0209750Y0502950D01*
X0209750Y0498950D02*
X0217750Y0498950D01*
X0199750Y0494950D02*
X0207750Y0502950D01*
X0207750Y0494950D02*
X0199750Y0502950D01*
X0199750Y0498950D02*
X0207750Y0498950D01*
X0184750Y0494950D02*
X0192750Y0502950D01*
X0192750Y0494950D02*
X0184750Y0502950D01*
X0184750Y0498950D02*
X0192750Y0498950D01*
X0184750Y0504950D02*
X0192750Y0512950D01*
X0192750Y0504950D02*
X0184750Y0512950D01*
X0184750Y0508950D02*
X0192750Y0508950D01*
X0199750Y0504950D02*
X0207750Y0512950D01*
X0207750Y0504950D02*
X0199750Y0512950D01*
X0199750Y0508950D02*
X0207750Y0508950D01*
X0209750Y0504950D02*
X0217750Y0512950D01*
X0217750Y0504950D02*
X0209750Y0512950D01*
X0209750Y0508950D02*
X0217750Y0508950D01*
X0089750Y0474950D02*
X0097750Y0482950D01*
X0097750Y0474950D02*
X0089750Y0482950D01*
X0089750Y0478950D02*
X0097750Y0478950D01*
X0089750Y0464950D02*
X0097750Y0472950D01*
X0097750Y0464950D02*
X0089750Y0472950D01*
X0089750Y0468950D02*
X0097750Y0468950D01*
X0129750Y0469790D02*
X0137750Y0477790D01*
X0137750Y0469790D02*
X0129750Y0477790D01*
X0129750Y0473790D02*
X0137750Y0473790D01*
X0129750Y0450100D02*
X0137750Y0458100D01*
X0137750Y0450100D02*
X0129750Y0458100D01*
X0129750Y0454100D02*
X0137750Y0454100D01*
X0044750Y0454950D02*
X0052750Y0462950D01*
X0052750Y0454950D02*
X0044750Y0462950D01*
X0044750Y0458950D02*
X0052750Y0458950D01*
X0044750Y0444950D02*
X0052750Y0452950D01*
X0052750Y0444950D02*
X0044750Y0452950D01*
X0044750Y0448950D02*
X0052750Y0448950D01*
X0294750Y0474950D02*
X0302750Y0482950D01*
X0302750Y0474950D02*
X0294750Y0482950D01*
X0294750Y0478950D02*
X0302750Y0478950D01*
X0182420Y0209750D02*
X0190420Y0217750D01*
X0190420Y0209750D02*
X0182420Y0217750D01*
X0182420Y0213750D02*
X0190420Y0213750D01*
X0182420Y0199750D02*
X0190420Y0207750D01*
X0190420Y0199750D02*
X0182420Y0207750D01*
X0182420Y0203750D02*
X0190420Y0203750D01*
X0182420Y0184750D02*
X0190420Y0192750D01*
X0190420Y0184750D02*
X0182420Y0192750D01*
X0182420Y0188750D02*
X0190420Y0188750D01*
X0172420Y0184750D02*
X0180420Y0192750D01*
X0180420Y0184750D02*
X0172420Y0192750D01*
X0172420Y0188750D02*
X0180420Y0188750D01*
X0172420Y0199750D02*
X0180420Y0207750D01*
X0180420Y0199750D02*
X0172420Y0207750D01*
X0172420Y0203750D02*
X0180420Y0203750D01*
X0172420Y0209750D02*
X0180420Y0217750D01*
X0180420Y0209750D02*
X0172420Y0217750D01*
X0172420Y0213750D02*
X0180420Y0213750D01*
X0202420Y0089750D02*
X0210420Y0097750D01*
X0210420Y0089750D02*
X0202420Y0097750D01*
X0202420Y0093750D02*
X0210420Y0093750D01*
X0212420Y0089750D02*
X0220420Y0097750D01*
X0220420Y0089750D02*
X0212420Y0097750D01*
X0212420Y0093750D02*
X0220420Y0093750D01*
X0207580Y0129750D02*
X0215580Y0137750D01*
X0215580Y0129750D02*
X0207580Y0137750D01*
X0207580Y0133750D02*
X0215580Y0133750D01*
X0227270Y0129750D02*
X0235270Y0137750D01*
X0235270Y0129750D02*
X0227270Y0137750D01*
X0227270Y0133750D02*
X0235270Y0133750D01*
X0222420Y0044750D02*
X0230420Y0052750D01*
X0230420Y0044750D02*
X0222420Y0052750D01*
X0222420Y0048750D02*
X0230420Y0048750D01*
X0232420Y0044750D02*
X0240420Y0052750D01*
X0240420Y0044750D02*
X0232420Y0052750D01*
X0232420Y0048750D02*
X0240420Y0048750D01*
X0202420Y0294750D02*
X0210420Y0302750D01*
X0210420Y0294750D02*
X0202420Y0302750D01*
X0202420Y0298750D02*
X0210420Y0298750D01*
X0209750Y0616410D02*
X0217750Y0624410D01*
X0217750Y0616410D02*
X0209750Y0624410D01*
X0209750Y0620410D02*
X0217750Y0620410D01*
X0199750Y0616410D02*
X0207750Y0624410D01*
X0207750Y0616410D02*
X0199750Y0624410D01*
X0199750Y0620410D02*
X0207750Y0620410D01*
X0184750Y0616410D02*
X0192750Y0624410D01*
X0192750Y0616410D02*
X0184750Y0624410D01*
X0184750Y0620410D02*
X0192750Y0620410D01*
X0184750Y0626410D02*
X0192750Y0634410D01*
X0192750Y0626410D02*
X0184750Y0634410D01*
X0184750Y0630410D02*
X0192750Y0630410D01*
X0199750Y0626410D02*
X0207750Y0634410D01*
X0207750Y0626410D02*
X0199750Y0634410D01*
X0199750Y0630410D02*
X0207750Y0630410D01*
X0209750Y0626410D02*
X0217750Y0634410D01*
X0217750Y0626410D02*
X0209750Y0634410D01*
X0209750Y0630410D02*
X0217750Y0630410D01*
X0089750Y0596410D02*
X0097750Y0604410D01*
X0097750Y0596410D02*
X0089750Y0604410D01*
X0089750Y0600410D02*
X0097750Y0600410D01*
X0089750Y0586410D02*
X0097750Y0594410D01*
X0097750Y0586410D02*
X0089750Y0594410D01*
X0089750Y0590410D02*
X0097750Y0590410D01*
X0129750Y0591250D02*
X0137750Y0599250D01*
X0137750Y0591250D02*
X0129750Y0599250D01*
X0129750Y0595250D02*
X0137750Y0595250D01*
X0129750Y0571560D02*
X0137750Y0579560D01*
X0137750Y0571560D02*
X0129750Y0579560D01*
X0129750Y0575560D02*
X0137750Y0575560D01*
X0044750Y0576410D02*
X0052750Y0584410D01*
X0052750Y0576410D02*
X0044750Y0584410D01*
X0044750Y0580410D02*
X0052750Y0580410D01*
X0044750Y0566410D02*
X0052750Y0574410D01*
X0052750Y0566410D02*
X0044750Y0574410D01*
X0044750Y0570410D02*
X0052750Y0570410D01*
X0294750Y0596410D02*
X0302750Y0604410D01*
X0302750Y0596410D02*
X0294750Y0604410D01*
X0294750Y0600410D02*
X0302750Y0600410D01*
X0452670Y0086000D02*
X0460670Y0094000D01*
X0460670Y0086000D02*
X0452670Y0094000D01*
X0452670Y0090000D02*
X0460670Y0090000D01*
X0442670Y0086000D02*
X0450670Y0094000D01*
X0450670Y0086000D02*
X0442670Y0094000D01*
X0442670Y0090000D02*
X0450670Y0090000D01*
X0427670Y0086000D02*
X0435670Y0094000D01*
X0435670Y0086000D02*
X0427670Y0094000D01*
X0427670Y0090000D02*
X0435670Y0090000D01*
X0427670Y0096000D02*
X0435670Y0104000D01*
X0435670Y0096000D02*
X0427670Y0104000D01*
X0427670Y0100000D02*
X0435670Y0100000D01*
X0442670Y0096000D02*
X0450670Y0104000D01*
X0450670Y0096000D02*
X0442670Y0104000D01*
X0442670Y0100000D02*
X0450670Y0100000D01*
X0452670Y0096000D02*
X0460670Y0104000D01*
X0460670Y0096000D02*
X0452670Y0104000D01*
X0452670Y0100000D02*
X0460670Y0100000D01*
X0332670Y0066000D02*
X0340670Y0074000D01*
X0340670Y0066000D02*
X0332670Y0074000D01*
X0332670Y0070000D02*
X0340670Y0070000D01*
X0332670Y0056000D02*
X0340670Y0064000D01*
X0340670Y0056000D02*
X0332670Y0064000D01*
X0332670Y0060000D02*
X0340670Y0060000D01*
X0372670Y0060840D02*
X0380670Y0068840D01*
X0380670Y0060840D02*
X0372670Y0068840D01*
X0372670Y0064840D02*
X0380670Y0064840D01*
X0372670Y0041150D02*
X0380670Y0049150D01*
X0380670Y0041150D02*
X0372670Y0049150D01*
X0372670Y0045150D02*
X0380670Y0045150D01*
X0287670Y0046000D02*
X0295670Y0054000D01*
X0295670Y0046000D02*
X0287670Y0054000D01*
X0287670Y0050000D02*
X0295670Y0050000D01*
X0287670Y0036000D02*
X0295670Y0044000D01*
X0295670Y0036000D02*
X0287670Y0044000D01*
X0287670Y0040000D02*
X0295670Y0040000D01*
X0537670Y0066000D02*
X0545670Y0074000D01*
X0545670Y0066000D02*
X0537670Y0074000D01*
X0537670Y0070000D02*
X0545670Y0070000D01*
X0452670Y0207460D02*
X0460670Y0215460D01*
X0460670Y0207460D02*
X0452670Y0215460D01*
X0452670Y0211460D02*
X0460670Y0211460D01*
X0442670Y0207460D02*
X0450670Y0215460D01*
X0450670Y0207460D02*
X0442670Y0215460D01*
X0442670Y0211460D02*
X0450670Y0211460D01*
X0427670Y0207460D02*
X0435670Y0215460D01*
X0435670Y0207460D02*
X0427670Y0215460D01*
X0427670Y0211460D02*
X0435670Y0211460D01*
X0427670Y0217460D02*
X0435670Y0225460D01*
X0435670Y0217460D02*
X0427670Y0225460D01*
X0427670Y0221460D02*
X0435670Y0221460D01*
X0442670Y0217460D02*
X0450670Y0225460D01*
X0450670Y0217460D02*
X0442670Y0225460D01*
X0442670Y0221460D02*
X0450670Y0221460D01*
X0452670Y0217460D02*
X0460670Y0225460D01*
X0460670Y0217460D02*
X0452670Y0225460D01*
X0452670Y0221460D02*
X0460670Y0221460D01*
X0332670Y0187460D02*
X0340670Y0195460D01*
X0340670Y0187460D02*
X0332670Y0195460D01*
X0332670Y0191460D02*
X0340670Y0191460D01*
X0332670Y0177460D02*
X0340670Y0185460D01*
X0340670Y0177460D02*
X0332670Y0185460D01*
X0332670Y0181460D02*
X0340670Y0181460D01*
X0372670Y0182300D02*
X0380670Y0190300D01*
X0380670Y0182300D02*
X0372670Y0190300D01*
X0372670Y0186300D02*
X0380670Y0186300D01*
X0372670Y0162610D02*
X0380670Y0170610D01*
X0380670Y0162610D02*
X0372670Y0170610D01*
X0372670Y0166610D02*
X0380670Y0166610D01*
X0287670Y0167460D02*
X0295670Y0175460D01*
X0295670Y0167460D02*
X0287670Y0175460D01*
X0287670Y0171460D02*
X0295670Y0171460D01*
X0287670Y0157460D02*
X0295670Y0165460D01*
X0295670Y0157460D02*
X0287670Y0165460D01*
X0287670Y0161460D02*
X0295670Y0161460D01*
X0537670Y0187460D02*
X0545670Y0195460D01*
X0545670Y0187460D02*
X0537670Y0195460D01*
X0537670Y0191460D02*
X0545670Y0191460D01*
X0452670Y0328920D02*
X0460670Y0336920D01*
X0460670Y0328920D02*
X0452670Y0336920D01*
X0452670Y0332920D02*
X0460670Y0332920D01*
X0442670Y0328920D02*
X0450670Y0336920D01*
X0450670Y0328920D02*
X0442670Y0336920D01*
X0442670Y0332920D02*
X0450670Y0332920D01*
X0427670Y0328920D02*
X0435670Y0336920D01*
X0435670Y0328920D02*
X0427670Y0336920D01*
X0427670Y0332920D02*
X0435670Y0332920D01*
X0427670Y0338920D02*
X0435670Y0346920D01*
X0435670Y0338920D02*
X0427670Y0346920D01*
X0427670Y0342920D02*
X0435670Y0342920D01*
X0442670Y0338920D02*
X0450670Y0346920D01*
X0450670Y0338920D02*
X0442670Y0346920D01*
X0442670Y0342920D02*
X0450670Y0342920D01*
X0452670Y0338920D02*
X0460670Y0346920D01*
X0460670Y0338920D02*
X0452670Y0346920D01*
X0452670Y0342920D02*
X0460670Y0342920D01*
X0332670Y0308920D02*
X0340670Y0316920D01*
X0340670Y0308920D02*
X0332670Y0316920D01*
X0332670Y0312920D02*
X0340670Y0312920D01*
X0332670Y0298920D02*
X0340670Y0306920D01*
X0340670Y0298920D02*
X0332670Y0306920D01*
X0332670Y0302920D02*
X0340670Y0302920D01*
X0372670Y0303760D02*
X0380670Y0311760D01*
X0380670Y0303760D02*
X0372670Y0311760D01*
X0372670Y0307760D02*
X0380670Y0307760D01*
X0372670Y0284070D02*
X0380670Y0292070D01*
X0380670Y0284070D02*
X0372670Y0292070D01*
X0372670Y0288070D02*
X0380670Y0288070D01*
X0287670Y0288920D02*
X0295670Y0296920D01*
X0295670Y0288920D02*
X0287670Y0296920D01*
X0287670Y0292920D02*
X0295670Y0292920D01*
X0287670Y0278920D02*
X0295670Y0286920D01*
X0295670Y0278920D02*
X0287670Y0286920D01*
X0287670Y0282920D02*
X0295670Y0282920D01*
X0537670Y0308920D02*
X0545670Y0316920D01*
X0545670Y0308920D02*
X0537670Y0316920D01*
X0537670Y0312920D02*
X0545670Y0312920D01*
X0209750Y0737870D02*
X0217750Y0745870D01*
X0217750Y0737870D02*
X0209750Y0745870D01*
X0209750Y0741870D02*
X0217750Y0741870D01*
X0199750Y0737870D02*
X0207750Y0745870D01*
X0207750Y0737870D02*
X0199750Y0745870D01*
X0199750Y0741870D02*
X0207750Y0741870D01*
X0184750Y0737870D02*
X0192750Y0745870D01*
X0192750Y0737870D02*
X0184750Y0745870D01*
X0184750Y0741870D02*
X0192750Y0741870D01*
X0184750Y0747870D02*
X0192750Y0755870D01*
X0192750Y0747870D02*
X0184750Y0755870D01*
X0184750Y0751870D02*
X0192750Y0751870D01*
X0199750Y0747870D02*
X0207750Y0755870D01*
X0207750Y0747870D02*
X0199750Y0755870D01*
X0199750Y0751870D02*
X0207750Y0751870D01*
X0209750Y0747870D02*
X0217750Y0755870D01*
X0217750Y0747870D02*
X0209750Y0755870D01*
X0209750Y0751870D02*
X0217750Y0751870D01*
X0089750Y0717870D02*
X0097750Y0725870D01*
X0097750Y0717870D02*
X0089750Y0725870D01*
X0089750Y0721870D02*
X0097750Y0721870D01*
X0089750Y0707870D02*
X0097750Y0715870D01*
X0097750Y0707870D02*
X0089750Y0715870D01*
X0089750Y0711870D02*
X0097750Y0711870D01*
X0129750Y0712710D02*
X0137750Y0720710D01*
X0137750Y0712710D02*
X0129750Y0720710D01*
X0129750Y0716710D02*
X0137750Y0716710D01*
X0129750Y0693020D02*
X0137750Y0701020D01*
X0137750Y0693020D02*
X0129750Y0701020D01*
X0129750Y0697020D02*
X0137750Y0697020D01*
X0044750Y0697870D02*
X0052750Y0705870D01*
X0052750Y0697870D02*
X0044750Y0705870D01*
X0044750Y0701870D02*
X0052750Y0701870D01*
X0044750Y0687870D02*
X0052750Y0695870D01*
X0052750Y0687870D02*
X0044750Y0695870D01*
X0044750Y0691870D02*
X0052750Y0691870D01*
X0294750Y0717870D02*
X0302750Y0725870D01*
X0302750Y0717870D02*
X0294750Y0725870D01*
X0294750Y0721870D02*
X0302750Y0721870D01*
X0469910Y0574130D02*
X0477910Y0582130D01*
X0477910Y0574130D02*
X0469910Y0582130D01*
X0469910Y0578130D02*
X0477910Y0578130D01*
X0469910Y0564130D02*
X0477910Y0572130D01*
X0477910Y0564130D02*
X0469910Y0572130D01*
X0469910Y0568130D02*
X0477910Y0568130D01*
X0469910Y0549130D02*
X0477910Y0557130D01*
X0477910Y0549130D02*
X0469910Y0557130D01*
X0469910Y0553130D02*
X0477910Y0553130D01*
X0459910Y0549130D02*
X0467910Y0557130D01*
X0467910Y0549130D02*
X0459910Y0557130D01*
X0459910Y0553130D02*
X0467910Y0553130D01*
X0459910Y0564130D02*
X0467910Y0572130D01*
X0467910Y0564130D02*
X0459910Y0572130D01*
X0459910Y0568130D02*
X0467910Y0568130D01*
X0459910Y0574130D02*
X0467910Y0582130D01*
X0467910Y0574130D02*
X0459910Y0582130D01*
X0459910Y0578130D02*
X0467910Y0578130D01*
X0489910Y0454130D02*
X0497910Y0462130D01*
X0497910Y0454130D02*
X0489910Y0462130D01*
X0489910Y0458130D02*
X0497910Y0458130D01*
X0499910Y0454130D02*
X0507910Y0462130D01*
X0507910Y0454130D02*
X0499910Y0462130D01*
X0499910Y0458130D02*
X0507910Y0458130D01*
X0495070Y0494130D02*
X0503070Y0502130D01*
X0503070Y0494130D02*
X0495070Y0502130D01*
X0495070Y0498130D02*
X0503070Y0498130D01*
X0514760Y0494130D02*
X0522760Y0502130D01*
X0522760Y0494130D02*
X0514760Y0502130D01*
X0514760Y0498130D02*
X0522760Y0498130D01*
X0509910Y0409130D02*
X0517910Y0417130D01*
X0517910Y0409130D02*
X0509910Y0417130D01*
X0509910Y0413130D02*
X0517910Y0413130D01*
X0519910Y0409130D02*
X0527910Y0417130D01*
X0527910Y0409130D02*
X0519910Y0417130D01*
X0519910Y0413130D02*
X0527910Y0413130D01*
X0489910Y0659130D02*
X0497910Y0667130D01*
X0497910Y0659130D02*
X0489910Y0667130D01*
X0489910Y0663130D02*
X0497910Y0663130D01*
X0591370Y0574130D02*
X0599370Y0582130D01*
X0599370Y0574130D02*
X0591370Y0582130D01*
X0591370Y0578130D02*
X0599370Y0578130D01*
X0591370Y0564130D02*
X0599370Y0572130D01*
X0599370Y0564130D02*
X0591370Y0572130D01*
X0591370Y0568130D02*
X0599370Y0568130D01*
X0591370Y0549130D02*
X0599370Y0557130D01*
X0599370Y0549130D02*
X0591370Y0557130D01*
X0591370Y0553130D02*
X0599370Y0553130D01*
X0581370Y0549130D02*
X0589370Y0557130D01*
X0589370Y0549130D02*
X0581370Y0557130D01*
X0581370Y0553130D02*
X0589370Y0553130D01*
X0581370Y0564130D02*
X0589370Y0572130D01*
X0589370Y0564130D02*
X0581370Y0572130D01*
X0581370Y0568130D02*
X0589370Y0568130D01*
X0581370Y0574130D02*
X0589370Y0582130D01*
X0589370Y0574130D02*
X0581370Y0582130D01*
X0581370Y0578130D02*
X0589370Y0578130D01*
X0611370Y0454130D02*
X0619370Y0462130D01*
X0619370Y0454130D02*
X0611370Y0462130D01*
X0611370Y0458130D02*
X0619370Y0458130D01*
X0621370Y0454130D02*
X0629370Y0462130D01*
X0629370Y0454130D02*
X0621370Y0462130D01*
X0621370Y0458130D02*
X0629370Y0458130D01*
X0616530Y0494130D02*
X0624530Y0502130D01*
X0624530Y0494130D02*
X0616530Y0502130D01*
X0616530Y0498130D02*
X0624530Y0498130D01*
X0636220Y0494130D02*
X0644220Y0502130D01*
X0644220Y0494130D02*
X0636220Y0502130D01*
X0636220Y0498130D02*
X0644220Y0498130D01*
X0631370Y0409130D02*
X0639370Y0417130D01*
X0639370Y0409130D02*
X0631370Y0417130D01*
X0631370Y0413130D02*
X0639370Y0413130D01*
X0641370Y0409130D02*
X0649370Y0417130D01*
X0649370Y0409130D02*
X0641370Y0417130D01*
X0641370Y0413130D02*
X0649370Y0413130D01*
X0611370Y0659130D02*
X0619370Y0667130D01*
X0619370Y0659130D02*
X0611370Y0667130D01*
X0611370Y0663130D02*
X0619370Y0663130D01*
X0064960Y0133750D02*
X0060960Y0133750D01*
X0064960Y0133750D02*
X0068960Y0137750D01*
X0068960Y0129750D01*
X0064960Y0133750D01*
X0074960Y0133750D02*
X0070960Y0133750D01*
X0074960Y0133750D02*
X0078960Y0137750D01*
X0078960Y0129750D01*
X0074960Y0133750D01*
X0079960Y0123750D02*
X0075960Y0123750D01*
X0079960Y0123750D02*
X0083960Y0127750D01*
X0083960Y0119750D01*
X0079960Y0123750D01*
X0079960Y0113750D02*
X0075960Y0113750D01*
X0079960Y0113750D02*
X0083960Y0117750D01*
X0083960Y0109750D01*
X0079960Y0113750D01*
X0074960Y0163750D02*
X0070960Y0163750D01*
X0074960Y0163750D02*
X0078960Y0167750D01*
X0078960Y0159750D01*
X0074960Y0163750D01*
X0074960Y0173750D02*
X0070960Y0173750D01*
X0074960Y0173750D02*
X0078960Y0177750D01*
X0078960Y0169750D01*
X0074960Y0173750D01*
X0074960Y0188750D02*
X0070960Y0188750D01*
X0074960Y0188750D02*
X0078960Y0192750D01*
X0078960Y0184750D01*
X0074960Y0188750D01*
X0064960Y0163750D02*
X0060960Y0163750D01*
X0064960Y0163750D02*
X0068960Y0167750D01*
X0068960Y0159750D01*
X0064960Y0163750D01*
X0059960Y0228750D02*
X0055960Y0228750D01*
X0059960Y0228750D02*
X0063960Y0232750D01*
X0063960Y0224750D01*
X0059960Y0228750D01*
X0059960Y0268750D02*
X0055960Y0268750D01*
X0059960Y0268750D02*
X0063960Y0272750D01*
X0063960Y0264750D01*
X0059960Y0268750D01*
X0059960Y0278750D02*
X0055960Y0278750D01*
X0059960Y0278750D02*
X0063960Y0282750D01*
X0063960Y0274750D01*
X0059960Y0278750D01*
X0059960Y0318750D02*
X0055960Y0318750D01*
X0059960Y0318750D02*
X0063960Y0322750D01*
X0063960Y0314750D01*
X0059960Y0318750D01*
X0059960Y0328750D02*
X0055960Y0328750D01*
X0059960Y0328750D02*
X0063960Y0332750D01*
X0063960Y0324750D01*
X0059960Y0328750D01*
X0059960Y0368750D02*
X0055960Y0368750D01*
X0059960Y0368750D02*
X0063960Y0372750D01*
X0063960Y0364750D01*
X0059960Y0368750D01*
X0074960Y0348750D02*
X0070960Y0348750D01*
X0074960Y0348750D02*
X0078960Y0352750D01*
X0078960Y0344750D01*
X0074960Y0348750D01*
X0074960Y0388750D02*
X0070960Y0388750D01*
X0074960Y0388750D02*
X0078960Y0392750D01*
X0078960Y0384750D01*
X0074960Y0388750D01*
X0094960Y0388750D02*
X0090960Y0388750D01*
X0094960Y0388750D02*
X0098960Y0392750D01*
X0098960Y0384750D01*
X0094960Y0388750D01*
X0094960Y0348750D02*
X0090960Y0348750D01*
X0094960Y0348750D02*
X0098960Y0352750D01*
X0098960Y0344750D01*
X0094960Y0348750D01*
X0114960Y0348750D02*
X0110960Y0348750D01*
X0114960Y0348750D02*
X0118960Y0352750D01*
X0118960Y0344750D01*
X0114960Y0348750D01*
X0114960Y0388750D02*
X0110960Y0388750D01*
X0114960Y0388750D02*
X0118960Y0392750D01*
X0118960Y0384750D01*
X0114960Y0388750D01*
X0114960Y0188750D02*
X0110960Y0188750D01*
X0114960Y0188750D02*
X0118960Y0192750D01*
X0118960Y0184750D01*
X0114960Y0188750D01*
X0114960Y0173750D02*
X0110960Y0173750D01*
X0114960Y0173750D02*
X0118960Y0177750D01*
X0118960Y0169750D01*
X0114960Y0173750D01*
X0119960Y0123750D02*
X0115960Y0123750D01*
X0119960Y0123750D02*
X0123960Y0127750D01*
X0123960Y0119750D01*
X0119960Y0123750D01*
X0119960Y0113750D02*
X0115960Y0113750D01*
X0119960Y0113750D02*
X0123960Y0117750D01*
X0123960Y0109750D01*
X0119960Y0113750D01*
X0074960Y0293750D02*
X0070960Y0293750D01*
X0074960Y0293750D02*
X0078960Y0297750D01*
X0078960Y0289750D01*
X0074960Y0293750D01*
X0074960Y0283750D02*
X0070960Y0283750D01*
X0074960Y0283750D02*
X0078960Y0287750D01*
X0078960Y0279750D01*
X0074960Y0283750D01*
X0074960Y0273750D02*
X0070960Y0273750D01*
X0074960Y0273750D02*
X0078960Y0277750D01*
X0078960Y0269750D01*
X0074960Y0273750D01*
X0074960Y0263750D02*
X0070960Y0263750D01*
X0074960Y0263750D02*
X0078960Y0267750D01*
X0078960Y0259750D01*
X0074960Y0263750D01*
X0074960Y0253750D02*
X0070960Y0253750D01*
X0074960Y0253750D02*
X0078960Y0257750D01*
X0078960Y0249750D01*
X0074960Y0253750D01*
X0074960Y0243750D02*
X0070960Y0243750D01*
X0074960Y0243750D02*
X0078960Y0247750D01*
X0078960Y0239750D01*
X0074960Y0243750D01*
X0074960Y0233750D02*
X0070960Y0233750D01*
X0074960Y0233750D02*
X0078960Y0237750D01*
X0078960Y0229750D01*
X0074960Y0233750D01*
X0074960Y0223750D02*
X0070960Y0223750D01*
X0074960Y0223750D02*
X0078960Y0227750D01*
X0078960Y0219750D01*
X0074960Y0223750D01*
X0074960Y0213750D02*
X0070960Y0213750D01*
X0074960Y0213750D02*
X0078960Y0217750D01*
X0078960Y0209750D01*
X0074960Y0213750D01*
X0074960Y0203750D02*
X0070960Y0203750D01*
X0074960Y0203750D02*
X0078960Y0207750D01*
X0078960Y0199750D01*
X0074960Y0203750D01*
X0089960Y0153750D02*
X0085960Y0153750D01*
X0089960Y0153750D02*
X0093960Y0157750D01*
X0093960Y0149750D01*
X0089960Y0153750D01*
X0094960Y0146250D02*
X0090960Y0146250D01*
X0094960Y0146250D02*
X0098960Y0150250D01*
X0098960Y0142250D01*
X0094960Y0146250D01*
X0099960Y0153750D02*
X0095960Y0153750D01*
X0099960Y0153750D02*
X0103960Y0157750D01*
X0103960Y0149750D01*
X0099960Y0153750D01*
X0104960Y0203750D02*
X0100960Y0203750D01*
X0104960Y0203750D02*
X0108960Y0207750D01*
X0108960Y0199750D01*
X0104960Y0203750D01*
X0104960Y0213750D02*
X0100960Y0213750D01*
X0104960Y0213750D02*
X0108960Y0217750D01*
X0108960Y0209750D01*
X0104960Y0213750D01*
X0104960Y0223750D02*
X0100960Y0223750D01*
X0104960Y0223750D02*
X0108960Y0227750D01*
X0108960Y0219750D01*
X0104960Y0223750D01*
X0104960Y0233750D02*
X0100960Y0233750D01*
X0104960Y0233750D02*
X0108960Y0237750D01*
X0108960Y0229750D01*
X0104960Y0233750D01*
X0104960Y0243750D02*
X0100960Y0243750D01*
X0104960Y0243750D02*
X0108960Y0247750D01*
X0108960Y0239750D01*
X0104960Y0243750D01*
X0104960Y0253750D02*
X0100960Y0253750D01*
X0104960Y0253750D02*
X0108960Y0257750D01*
X0108960Y0249750D01*
X0104960Y0253750D01*
X0104960Y0263750D02*
X0100960Y0263750D01*
X0104960Y0263750D02*
X0108960Y0267750D01*
X0108960Y0259750D01*
X0104960Y0263750D01*
X0104960Y0273750D02*
X0100960Y0273750D01*
X0104960Y0273750D02*
X0108960Y0277750D01*
X0108960Y0269750D01*
X0104960Y0273750D01*
X0104960Y0283750D02*
X0100960Y0283750D01*
X0104960Y0283750D02*
X0108960Y0287750D01*
X0108960Y0279750D01*
X0104960Y0283750D01*
X0104960Y0293750D02*
X0100960Y0293750D01*
X0104960Y0293750D02*
X0108960Y0297750D01*
X0108960Y0289750D01*
X0104960Y0293750D01*
X0104960Y0303750D02*
X0100960Y0303750D01*
X0104960Y0303750D02*
X0108960Y0307750D01*
X0108960Y0299750D01*
X0104960Y0303750D01*
X0104960Y0313750D02*
X0100960Y0313750D01*
X0104960Y0313750D02*
X0108960Y0317750D01*
X0108960Y0309750D01*
X0104960Y0313750D01*
X0104960Y0323750D02*
X0100960Y0323750D01*
X0104960Y0323750D02*
X0108960Y0327750D01*
X0108960Y0319750D01*
X0104960Y0323750D01*
X0104960Y0333750D02*
X0100960Y0333750D01*
X0104960Y0333750D02*
X0108960Y0337750D01*
X0108960Y0329750D01*
X0104960Y0333750D01*
X0094960Y0398750D02*
X0090960Y0398750D01*
X0094960Y0398750D02*
X0098960Y0402750D01*
X0098960Y0394750D01*
X0094960Y0398750D01*
X0094960Y0408750D02*
X0090960Y0408750D01*
X0094960Y0408750D02*
X0098960Y0412750D01*
X0098960Y0404750D01*
X0094960Y0408750D01*
X0074960Y0408750D02*
X0070960Y0408750D01*
X0074960Y0408750D02*
X0078960Y0412750D01*
X0078960Y0404750D01*
X0074960Y0408750D01*
X0074960Y0398750D02*
X0070960Y0398750D01*
X0074960Y0398750D02*
X0078960Y0402750D01*
X0078960Y0394750D01*
X0074960Y0398750D01*
X0074960Y0333750D02*
X0070960Y0333750D01*
X0074960Y0333750D02*
X0078960Y0337750D01*
X0078960Y0329750D01*
X0074960Y0333750D01*
X0074960Y0323750D02*
X0070960Y0323750D01*
X0074960Y0323750D02*
X0078960Y0327750D01*
X0078960Y0319750D01*
X0074960Y0323750D01*
X0074960Y0313750D02*
X0070960Y0313750D01*
X0074960Y0313750D02*
X0078960Y0317750D01*
X0078960Y0309750D01*
X0074960Y0313750D01*
X0074960Y0303750D02*
X0070960Y0303750D01*
X0074960Y0303750D02*
X0078960Y0307750D01*
X0078960Y0299750D01*
X0074960Y0303750D01*
X0114960Y0398750D02*
X0110960Y0398750D01*
X0114960Y0398750D02*
X0118960Y0402750D01*
X0118960Y0394750D01*
X0114960Y0398750D01*
X0114960Y0408750D02*
X0110960Y0408750D01*
X0114960Y0408750D02*
X0118960Y0412750D01*
X0118960Y0404750D01*
X0114960Y0408750D01*
X0114960Y0098750D02*
X0110960Y0098750D01*
X0114960Y0098750D02*
X0118960Y0102750D01*
X0118960Y0094750D01*
X0114960Y0098750D01*
X0114960Y0088750D02*
X0110960Y0088750D01*
X0114960Y0088750D02*
X0118960Y0092750D01*
X0118960Y0084750D01*
X0114960Y0088750D01*
X0122460Y0093750D02*
X0118460Y0093750D01*
X0122460Y0093750D02*
X0126460Y0097750D01*
X0126460Y0089750D01*
X0122460Y0093750D01*
X0059960Y0088750D02*
X0055960Y0088750D01*
X0059960Y0088750D02*
X0063960Y0092750D01*
X0063960Y0084750D01*
X0059960Y0088750D01*
X0059960Y0098750D02*
X0055960Y0098750D01*
X0059960Y0098750D02*
X0063960Y0102750D01*
X0063960Y0094750D01*
X0059960Y0098750D01*
X0043780Y0296250D02*
X0039780Y0296250D01*
X0043780Y0296250D02*
X0047780Y0300250D01*
X0047780Y0292250D01*
X0043780Y0296250D01*
X0043780Y0307250D02*
X0039780Y0307250D01*
X0043780Y0307250D02*
X0047780Y0311250D01*
X0047780Y0303250D01*
X0043780Y0307250D01*
X0036150Y0302250D02*
X0032150Y0302250D01*
X0036150Y0302250D02*
X0040150Y0306250D01*
X0040150Y0298250D01*
X0036150Y0302250D01*
X0036150Y0290250D02*
X0032150Y0290250D01*
X0036150Y0290250D02*
X0040150Y0294250D01*
X0040150Y0286250D01*
X0036150Y0290250D01*
X0133750Y0498950D02*
X0129750Y0498950D01*
X0133750Y0498950D02*
X0137750Y0502950D01*
X0137750Y0494950D01*
X0133750Y0498950D01*
X0133750Y0488950D02*
X0129750Y0488950D01*
X0133750Y0488950D02*
X0137750Y0492950D01*
X0137750Y0484950D01*
X0133750Y0488950D01*
X0123750Y0483950D02*
X0119750Y0483950D01*
X0123750Y0483950D02*
X0127750Y0487950D01*
X0127750Y0479950D01*
X0123750Y0483950D01*
X0113750Y0483950D02*
X0109750Y0483950D01*
X0113750Y0483950D02*
X0117750Y0487950D01*
X0117750Y0479950D01*
X0113750Y0483950D01*
X0163750Y0488950D02*
X0159750Y0488950D01*
X0163750Y0488950D02*
X0167750Y0492950D01*
X0167750Y0484950D01*
X0163750Y0488950D01*
X0173750Y0488950D02*
X0169750Y0488950D01*
X0173750Y0488950D02*
X0177750Y0492950D01*
X0177750Y0484950D01*
X0173750Y0488950D01*
X0188750Y0488950D02*
X0184750Y0488950D01*
X0188750Y0488950D02*
X0192750Y0492950D01*
X0192750Y0484950D01*
X0188750Y0488950D01*
X0163750Y0498950D02*
X0159750Y0498950D01*
X0163750Y0498950D02*
X0167750Y0502950D01*
X0167750Y0494950D01*
X0163750Y0498950D01*
X0228750Y0503950D02*
X0224750Y0503950D01*
X0228750Y0503950D02*
X0232750Y0507950D01*
X0232750Y0499950D01*
X0228750Y0503950D01*
X0268750Y0503950D02*
X0264750Y0503950D01*
X0268750Y0503950D02*
X0272750Y0507950D01*
X0272750Y0499950D01*
X0268750Y0503950D01*
X0278750Y0503950D02*
X0274750Y0503950D01*
X0278750Y0503950D02*
X0282750Y0507950D01*
X0282750Y0499950D01*
X0278750Y0503950D01*
X0318750Y0503950D02*
X0314750Y0503950D01*
X0318750Y0503950D02*
X0322750Y0507950D01*
X0322750Y0499950D01*
X0318750Y0503950D01*
X0328750Y0503950D02*
X0324750Y0503950D01*
X0328750Y0503950D02*
X0332750Y0507950D01*
X0332750Y0499950D01*
X0328750Y0503950D01*
X0368750Y0503950D02*
X0364750Y0503950D01*
X0368750Y0503950D02*
X0372750Y0507950D01*
X0372750Y0499950D01*
X0368750Y0503950D01*
X0348750Y0488950D02*
X0344750Y0488950D01*
X0348750Y0488950D02*
X0352750Y0492950D01*
X0352750Y0484950D01*
X0348750Y0488950D01*
X0388750Y0488950D02*
X0384750Y0488950D01*
X0388750Y0488950D02*
X0392750Y0492950D01*
X0392750Y0484950D01*
X0388750Y0488950D01*
X0388750Y0468950D02*
X0384750Y0468950D01*
X0388750Y0468950D02*
X0392750Y0472950D01*
X0392750Y0464950D01*
X0388750Y0468950D01*
X0348750Y0468950D02*
X0344750Y0468950D01*
X0348750Y0468950D02*
X0352750Y0472950D01*
X0352750Y0464950D01*
X0348750Y0468950D01*
X0348750Y0448950D02*
X0344750Y0448950D01*
X0348750Y0448950D02*
X0352750Y0452950D01*
X0352750Y0444950D01*
X0348750Y0448950D01*
X0388750Y0448950D02*
X0384750Y0448950D01*
X0388750Y0448950D02*
X0392750Y0452950D01*
X0392750Y0444950D01*
X0388750Y0448950D01*
X0188750Y0448950D02*
X0184750Y0448950D01*
X0188750Y0448950D02*
X0192750Y0452950D01*
X0192750Y0444950D01*
X0188750Y0448950D01*
X0173750Y0448950D02*
X0169750Y0448950D01*
X0173750Y0448950D02*
X0177750Y0452950D01*
X0177750Y0444950D01*
X0173750Y0448950D01*
X0123750Y0443950D02*
X0119750Y0443950D01*
X0123750Y0443950D02*
X0127750Y0447950D01*
X0127750Y0439950D01*
X0123750Y0443950D01*
X0113750Y0443950D02*
X0109750Y0443950D01*
X0113750Y0443950D02*
X0117750Y0447950D01*
X0117750Y0439950D01*
X0113750Y0443950D01*
X0293750Y0488950D02*
X0289750Y0488950D01*
X0293750Y0488950D02*
X0297750Y0492950D01*
X0297750Y0484950D01*
X0293750Y0488950D01*
X0283750Y0488950D02*
X0279750Y0488950D01*
X0283750Y0488950D02*
X0287750Y0492950D01*
X0287750Y0484950D01*
X0283750Y0488950D01*
X0273750Y0488950D02*
X0269750Y0488950D01*
X0273750Y0488950D02*
X0277750Y0492950D01*
X0277750Y0484950D01*
X0273750Y0488950D01*
X0263750Y0488950D02*
X0259750Y0488950D01*
X0263750Y0488950D02*
X0267750Y0492950D01*
X0267750Y0484950D01*
X0263750Y0488950D01*
X0253750Y0488950D02*
X0249750Y0488950D01*
X0253750Y0488950D02*
X0257750Y0492950D01*
X0257750Y0484950D01*
X0253750Y0488950D01*
X0243750Y0488950D02*
X0239750Y0488950D01*
X0243750Y0488950D02*
X0247750Y0492950D01*
X0247750Y0484950D01*
X0243750Y0488950D01*
X0233750Y0488950D02*
X0229750Y0488950D01*
X0233750Y0488950D02*
X0237750Y0492950D01*
X0237750Y0484950D01*
X0233750Y0488950D01*
X0223750Y0488950D02*
X0219750Y0488950D01*
X0223750Y0488950D02*
X0227750Y0492950D01*
X0227750Y0484950D01*
X0223750Y0488950D01*
X0213750Y0488950D02*
X0209750Y0488950D01*
X0213750Y0488950D02*
X0217750Y0492950D01*
X0217750Y0484950D01*
X0213750Y0488950D01*
X0203750Y0488950D02*
X0199750Y0488950D01*
X0203750Y0488950D02*
X0207750Y0492950D01*
X0207750Y0484950D01*
X0203750Y0488950D01*
X0153750Y0473950D02*
X0149750Y0473950D01*
X0153750Y0473950D02*
X0157750Y0477950D01*
X0157750Y0469950D01*
X0153750Y0473950D01*
X0146250Y0468950D02*
X0142250Y0468950D01*
X0146250Y0468950D02*
X0150250Y0472950D01*
X0150250Y0464950D01*
X0146250Y0468950D01*
X0153750Y0463950D02*
X0149750Y0463950D01*
X0153750Y0463950D02*
X0157750Y0467950D01*
X0157750Y0459950D01*
X0153750Y0463950D01*
X0203750Y0458950D02*
X0199750Y0458950D01*
X0203750Y0458950D02*
X0207750Y0462950D01*
X0207750Y0454950D01*
X0203750Y0458950D01*
X0213750Y0458950D02*
X0209750Y0458950D01*
X0213750Y0458950D02*
X0217750Y0462950D01*
X0217750Y0454950D01*
X0213750Y0458950D01*
X0223750Y0458950D02*
X0219750Y0458950D01*
X0223750Y0458950D02*
X0227750Y0462950D01*
X0227750Y0454950D01*
X0223750Y0458950D01*
X0233750Y0458950D02*
X0229750Y0458950D01*
X0233750Y0458950D02*
X0237750Y0462950D01*
X0237750Y0454950D01*
X0233750Y0458950D01*
X0243750Y0458950D02*
X0239750Y0458950D01*
X0243750Y0458950D02*
X0247750Y0462950D01*
X0247750Y0454950D01*
X0243750Y0458950D01*
X0253750Y0458950D02*
X0249750Y0458950D01*
X0253750Y0458950D02*
X0257750Y0462950D01*
X0257750Y0454950D01*
X0253750Y0458950D01*
X0263750Y0458950D02*
X0259750Y0458950D01*
X0263750Y0458950D02*
X0267750Y0462950D01*
X0267750Y0454950D01*
X0263750Y0458950D01*
X0273750Y0458950D02*
X0269750Y0458950D01*
X0273750Y0458950D02*
X0277750Y0462950D01*
X0277750Y0454950D01*
X0273750Y0458950D01*
X0283750Y0458950D02*
X0279750Y0458950D01*
X0283750Y0458950D02*
X0287750Y0462950D01*
X0287750Y0454950D01*
X0283750Y0458950D01*
X0293750Y0458950D02*
X0289750Y0458950D01*
X0293750Y0458950D02*
X0297750Y0462950D01*
X0297750Y0454950D01*
X0293750Y0458950D01*
X0303750Y0458950D02*
X0299750Y0458950D01*
X0303750Y0458950D02*
X0307750Y0462950D01*
X0307750Y0454950D01*
X0303750Y0458950D01*
X0313750Y0458950D02*
X0309750Y0458950D01*
X0313750Y0458950D02*
X0317750Y0462950D01*
X0317750Y0454950D01*
X0313750Y0458950D01*
X0323750Y0458950D02*
X0319750Y0458950D01*
X0323750Y0458950D02*
X0327750Y0462950D01*
X0327750Y0454950D01*
X0323750Y0458950D01*
X0333750Y0458950D02*
X0329750Y0458950D01*
X0333750Y0458950D02*
X0337750Y0462950D01*
X0337750Y0454950D01*
X0333750Y0458950D01*
X0398750Y0468950D02*
X0394750Y0468950D01*
X0398750Y0468950D02*
X0402750Y0472950D01*
X0402750Y0464950D01*
X0398750Y0468950D01*
X0408750Y0468950D02*
X0404750Y0468950D01*
X0408750Y0468950D02*
X0412750Y0472950D01*
X0412750Y0464950D01*
X0408750Y0468950D01*
X0408750Y0488950D02*
X0404750Y0488950D01*
X0408750Y0488950D02*
X0412750Y0492950D01*
X0412750Y0484950D01*
X0408750Y0488950D01*
X0398750Y0488950D02*
X0394750Y0488950D01*
X0398750Y0488950D02*
X0402750Y0492950D01*
X0402750Y0484950D01*
X0398750Y0488950D01*
X0333750Y0488950D02*
X0329750Y0488950D01*
X0333750Y0488950D02*
X0337750Y0492950D01*
X0337750Y0484950D01*
X0333750Y0488950D01*
X0323750Y0488950D02*
X0319750Y0488950D01*
X0323750Y0488950D02*
X0327750Y0492950D01*
X0327750Y0484950D01*
X0323750Y0488950D01*
X0313750Y0488950D02*
X0309750Y0488950D01*
X0313750Y0488950D02*
X0317750Y0492950D01*
X0317750Y0484950D01*
X0313750Y0488950D01*
X0303750Y0488950D02*
X0299750Y0488950D01*
X0303750Y0488950D02*
X0307750Y0492950D01*
X0307750Y0484950D01*
X0303750Y0488950D01*
X0398750Y0448950D02*
X0394750Y0448950D01*
X0398750Y0448950D02*
X0402750Y0452950D01*
X0402750Y0444950D01*
X0398750Y0448950D01*
X0408750Y0448950D02*
X0404750Y0448950D01*
X0408750Y0448950D02*
X0412750Y0452950D01*
X0412750Y0444950D01*
X0408750Y0448950D01*
X0098750Y0448950D02*
X0094750Y0448950D01*
X0098750Y0448950D02*
X0102750Y0452950D01*
X0102750Y0444950D01*
X0098750Y0448950D01*
X0088750Y0448950D02*
X0084750Y0448950D01*
X0088750Y0448950D02*
X0092750Y0452950D01*
X0092750Y0444950D01*
X0088750Y0448950D01*
X0093750Y0441450D02*
X0089750Y0441450D01*
X0093750Y0441450D02*
X0097750Y0445450D01*
X0097750Y0437450D01*
X0093750Y0441450D01*
X0088750Y0503950D02*
X0084750Y0503950D01*
X0088750Y0503950D02*
X0092750Y0507950D01*
X0092750Y0499950D01*
X0088750Y0503950D01*
X0098750Y0503950D02*
X0094750Y0503950D01*
X0098750Y0503950D02*
X0102750Y0507950D01*
X0102750Y0499950D01*
X0098750Y0503950D01*
X0296250Y0520130D02*
X0292250Y0520130D01*
X0296250Y0520130D02*
X0300250Y0524130D01*
X0300250Y0516130D01*
X0296250Y0520130D01*
X0307250Y0520130D02*
X0303250Y0520130D01*
X0307250Y0520130D02*
X0311250Y0524130D01*
X0311250Y0516130D01*
X0307250Y0520130D01*
X0302250Y0527760D02*
X0298250Y0527760D01*
X0302250Y0527760D02*
X0306250Y0531760D01*
X0306250Y0523760D01*
X0302250Y0527760D01*
X0290250Y0527760D02*
X0286250Y0527760D01*
X0290250Y0527760D02*
X0294250Y0531760D01*
X0294250Y0523760D01*
X0290250Y0527760D01*
X0186420Y0133750D02*
X0182420Y0133750D01*
X0186420Y0133750D02*
X0190420Y0137750D01*
X0190420Y0129750D01*
X0186420Y0133750D01*
X0196420Y0133750D02*
X0192420Y0133750D01*
X0196420Y0133750D02*
X0200420Y0137750D01*
X0200420Y0129750D01*
X0196420Y0133750D01*
X0201420Y0123750D02*
X0197420Y0123750D01*
X0201420Y0123750D02*
X0205420Y0127750D01*
X0205420Y0119750D01*
X0201420Y0123750D01*
X0201420Y0113750D02*
X0197420Y0113750D01*
X0201420Y0113750D02*
X0205420Y0117750D01*
X0205420Y0109750D01*
X0201420Y0113750D01*
X0196420Y0163750D02*
X0192420Y0163750D01*
X0196420Y0163750D02*
X0200420Y0167750D01*
X0200420Y0159750D01*
X0196420Y0163750D01*
X0196420Y0173750D02*
X0192420Y0173750D01*
X0196420Y0173750D02*
X0200420Y0177750D01*
X0200420Y0169750D01*
X0196420Y0173750D01*
X0196420Y0188750D02*
X0192420Y0188750D01*
X0196420Y0188750D02*
X0200420Y0192750D01*
X0200420Y0184750D01*
X0196420Y0188750D01*
X0186420Y0163750D02*
X0182420Y0163750D01*
X0186420Y0163750D02*
X0190420Y0167750D01*
X0190420Y0159750D01*
X0186420Y0163750D01*
X0181420Y0228750D02*
X0177420Y0228750D01*
X0181420Y0228750D02*
X0185420Y0232750D01*
X0185420Y0224750D01*
X0181420Y0228750D01*
X0181420Y0268750D02*
X0177420Y0268750D01*
X0181420Y0268750D02*
X0185420Y0272750D01*
X0185420Y0264750D01*
X0181420Y0268750D01*
X0181420Y0278750D02*
X0177420Y0278750D01*
X0181420Y0278750D02*
X0185420Y0282750D01*
X0185420Y0274750D01*
X0181420Y0278750D01*
X0181420Y0318750D02*
X0177420Y0318750D01*
X0181420Y0318750D02*
X0185420Y0322750D01*
X0185420Y0314750D01*
X0181420Y0318750D01*
X0181420Y0328750D02*
X0177420Y0328750D01*
X0181420Y0328750D02*
X0185420Y0332750D01*
X0185420Y0324750D01*
X0181420Y0328750D01*
X0181420Y0368750D02*
X0177420Y0368750D01*
X0181420Y0368750D02*
X0185420Y0372750D01*
X0185420Y0364750D01*
X0181420Y0368750D01*
X0196420Y0348750D02*
X0192420Y0348750D01*
X0196420Y0348750D02*
X0200420Y0352750D01*
X0200420Y0344750D01*
X0196420Y0348750D01*
X0196420Y0388750D02*
X0192420Y0388750D01*
X0196420Y0388750D02*
X0200420Y0392750D01*
X0200420Y0384750D01*
X0196420Y0388750D01*
X0216420Y0388750D02*
X0212420Y0388750D01*
X0216420Y0388750D02*
X0220420Y0392750D01*
X0220420Y0384750D01*
X0216420Y0388750D01*
X0216420Y0348750D02*
X0212420Y0348750D01*
X0216420Y0348750D02*
X0220420Y0352750D01*
X0220420Y0344750D01*
X0216420Y0348750D01*
X0236420Y0348750D02*
X0232420Y0348750D01*
X0236420Y0348750D02*
X0240420Y0352750D01*
X0240420Y0344750D01*
X0236420Y0348750D01*
X0236420Y0388750D02*
X0232420Y0388750D01*
X0236420Y0388750D02*
X0240420Y0392750D01*
X0240420Y0384750D01*
X0236420Y0388750D01*
X0236420Y0188750D02*
X0232420Y0188750D01*
X0236420Y0188750D02*
X0240420Y0192750D01*
X0240420Y0184750D01*
X0236420Y0188750D01*
X0236420Y0173750D02*
X0232420Y0173750D01*
X0236420Y0173750D02*
X0240420Y0177750D01*
X0240420Y0169750D01*
X0236420Y0173750D01*
X0241420Y0123750D02*
X0237420Y0123750D01*
X0241420Y0123750D02*
X0245420Y0127750D01*
X0245420Y0119750D01*
X0241420Y0123750D01*
X0241420Y0113750D02*
X0237420Y0113750D01*
X0241420Y0113750D02*
X0245420Y0117750D01*
X0245420Y0109750D01*
X0241420Y0113750D01*
X0196420Y0293750D02*
X0192420Y0293750D01*
X0196420Y0293750D02*
X0200420Y0297750D01*
X0200420Y0289750D01*
X0196420Y0293750D01*
X0196420Y0283750D02*
X0192420Y0283750D01*
X0196420Y0283750D02*
X0200420Y0287750D01*
X0200420Y0279750D01*
X0196420Y0283750D01*
X0196420Y0273750D02*
X0192420Y0273750D01*
X0196420Y0273750D02*
X0200420Y0277750D01*
X0200420Y0269750D01*
X0196420Y0273750D01*
X0196420Y0263750D02*
X0192420Y0263750D01*
X0196420Y0263750D02*
X0200420Y0267750D01*
X0200420Y0259750D01*
X0196420Y0263750D01*
X0196420Y0253750D02*
X0192420Y0253750D01*
X0196420Y0253750D02*
X0200420Y0257750D01*
X0200420Y0249750D01*
X0196420Y0253750D01*
X0196420Y0243750D02*
X0192420Y0243750D01*
X0196420Y0243750D02*
X0200420Y0247750D01*
X0200420Y0239750D01*
X0196420Y0243750D01*
X0196420Y0233750D02*
X0192420Y0233750D01*
X0196420Y0233750D02*
X0200420Y0237750D01*
X0200420Y0229750D01*
X0196420Y0233750D01*
X0196420Y0223750D02*
X0192420Y0223750D01*
X0196420Y0223750D02*
X0200420Y0227750D01*
X0200420Y0219750D01*
X0196420Y0223750D01*
X0196420Y0213750D02*
X0192420Y0213750D01*
X0196420Y0213750D02*
X0200420Y0217750D01*
X0200420Y0209750D01*
X0196420Y0213750D01*
X0196420Y0203750D02*
X0192420Y0203750D01*
X0196420Y0203750D02*
X0200420Y0207750D01*
X0200420Y0199750D01*
X0196420Y0203750D01*
X0211420Y0153750D02*
X0207420Y0153750D01*
X0211420Y0153750D02*
X0215420Y0157750D01*
X0215420Y0149750D01*
X0211420Y0153750D01*
X0216420Y0146250D02*
X0212420Y0146250D01*
X0216420Y0146250D02*
X0220420Y0150250D01*
X0220420Y0142250D01*
X0216420Y0146250D01*
X0221420Y0153750D02*
X0217420Y0153750D01*
X0221420Y0153750D02*
X0225420Y0157750D01*
X0225420Y0149750D01*
X0221420Y0153750D01*
X0226420Y0203750D02*
X0222420Y0203750D01*
X0226420Y0203750D02*
X0230420Y0207750D01*
X0230420Y0199750D01*
X0226420Y0203750D01*
X0226420Y0213750D02*
X0222420Y0213750D01*
X0226420Y0213750D02*
X0230420Y0217750D01*
X0230420Y0209750D01*
X0226420Y0213750D01*
X0226420Y0223750D02*
X0222420Y0223750D01*
X0226420Y0223750D02*
X0230420Y0227750D01*
X0230420Y0219750D01*
X0226420Y0223750D01*
X0226420Y0233750D02*
X0222420Y0233750D01*
X0226420Y0233750D02*
X0230420Y0237750D01*
X0230420Y0229750D01*
X0226420Y0233750D01*
X0226420Y0243750D02*
X0222420Y0243750D01*
X0226420Y0243750D02*
X0230420Y0247750D01*
X0230420Y0239750D01*
X0226420Y0243750D01*
X0226420Y0253750D02*
X0222420Y0253750D01*
X0226420Y0253750D02*
X0230420Y0257750D01*
X0230420Y0249750D01*
X0226420Y0253750D01*
X0226420Y0263750D02*
X0222420Y0263750D01*
X0226420Y0263750D02*
X0230420Y0267750D01*
X0230420Y0259750D01*
X0226420Y0263750D01*
X0226420Y0273750D02*
X0222420Y0273750D01*
X0226420Y0273750D02*
X0230420Y0277750D01*
X0230420Y0269750D01*
X0226420Y0273750D01*
X0226420Y0283750D02*
X0222420Y0283750D01*
X0226420Y0283750D02*
X0230420Y0287750D01*
X0230420Y0279750D01*
X0226420Y0283750D01*
X0226420Y0293750D02*
X0222420Y0293750D01*
X0226420Y0293750D02*
X0230420Y0297750D01*
X0230420Y0289750D01*
X0226420Y0293750D01*
X0226420Y0303750D02*
X0222420Y0303750D01*
X0226420Y0303750D02*
X0230420Y0307750D01*
X0230420Y0299750D01*
X0226420Y0303750D01*
X0226420Y0313750D02*
X0222420Y0313750D01*
X0226420Y0313750D02*
X0230420Y0317750D01*
X0230420Y0309750D01*
X0226420Y0313750D01*
X0226420Y0323750D02*
X0222420Y0323750D01*
X0226420Y0323750D02*
X0230420Y0327750D01*
X0230420Y0319750D01*
X0226420Y0323750D01*
X0226420Y0333750D02*
X0222420Y0333750D01*
X0226420Y0333750D02*
X0230420Y0337750D01*
X0230420Y0329750D01*
X0226420Y0333750D01*
X0216420Y0398750D02*
X0212420Y0398750D01*
X0216420Y0398750D02*
X0220420Y0402750D01*
X0220420Y0394750D01*
X0216420Y0398750D01*
X0216420Y0408750D02*
X0212420Y0408750D01*
X0216420Y0408750D02*
X0220420Y0412750D01*
X0220420Y0404750D01*
X0216420Y0408750D01*
X0196420Y0408750D02*
X0192420Y0408750D01*
X0196420Y0408750D02*
X0200420Y0412750D01*
X0200420Y0404750D01*
X0196420Y0408750D01*
X0196420Y0398750D02*
X0192420Y0398750D01*
X0196420Y0398750D02*
X0200420Y0402750D01*
X0200420Y0394750D01*
X0196420Y0398750D01*
X0196420Y0333750D02*
X0192420Y0333750D01*
X0196420Y0333750D02*
X0200420Y0337750D01*
X0200420Y0329750D01*
X0196420Y0333750D01*
X0196420Y0323750D02*
X0192420Y0323750D01*
X0196420Y0323750D02*
X0200420Y0327750D01*
X0200420Y0319750D01*
X0196420Y0323750D01*
X0196420Y0313750D02*
X0192420Y0313750D01*
X0196420Y0313750D02*
X0200420Y0317750D01*
X0200420Y0309750D01*
X0196420Y0313750D01*
X0196420Y0303750D02*
X0192420Y0303750D01*
X0196420Y0303750D02*
X0200420Y0307750D01*
X0200420Y0299750D01*
X0196420Y0303750D01*
X0236420Y0398750D02*
X0232420Y0398750D01*
X0236420Y0398750D02*
X0240420Y0402750D01*
X0240420Y0394750D01*
X0236420Y0398750D01*
X0236420Y0408750D02*
X0232420Y0408750D01*
X0236420Y0408750D02*
X0240420Y0412750D01*
X0240420Y0404750D01*
X0236420Y0408750D01*
X0236420Y0098750D02*
X0232420Y0098750D01*
X0236420Y0098750D02*
X0240420Y0102750D01*
X0240420Y0094750D01*
X0236420Y0098750D01*
X0236420Y0088750D02*
X0232420Y0088750D01*
X0236420Y0088750D02*
X0240420Y0092750D01*
X0240420Y0084750D01*
X0236420Y0088750D01*
X0243920Y0093750D02*
X0239920Y0093750D01*
X0243920Y0093750D02*
X0247920Y0097750D01*
X0247920Y0089750D01*
X0243920Y0093750D01*
X0181420Y0088750D02*
X0177420Y0088750D01*
X0181420Y0088750D02*
X0185420Y0092750D01*
X0185420Y0084750D01*
X0181420Y0088750D01*
X0181420Y0098750D02*
X0177420Y0098750D01*
X0181420Y0098750D02*
X0185420Y0102750D01*
X0185420Y0094750D01*
X0181420Y0098750D01*
X0165240Y0296250D02*
X0161240Y0296250D01*
X0165240Y0296250D02*
X0169240Y0300250D01*
X0169240Y0292250D01*
X0165240Y0296250D01*
X0165240Y0307250D02*
X0161240Y0307250D01*
X0165240Y0307250D02*
X0169240Y0311250D01*
X0169240Y0303250D01*
X0165240Y0307250D01*
X0157610Y0302250D02*
X0153610Y0302250D01*
X0157610Y0302250D02*
X0161610Y0306250D01*
X0161610Y0298250D01*
X0157610Y0302250D01*
X0157610Y0290250D02*
X0153610Y0290250D01*
X0157610Y0290250D02*
X0161610Y0294250D01*
X0161610Y0286250D01*
X0157610Y0290250D01*
X0133750Y0620410D02*
X0129750Y0620410D01*
X0133750Y0620410D02*
X0137750Y0624410D01*
X0137750Y0616410D01*
X0133750Y0620410D01*
X0133750Y0610410D02*
X0129750Y0610410D01*
X0133750Y0610410D02*
X0137750Y0614410D01*
X0137750Y0606410D01*
X0133750Y0610410D01*
X0123750Y0605410D02*
X0119750Y0605410D01*
X0123750Y0605410D02*
X0127750Y0609410D01*
X0127750Y0601410D01*
X0123750Y0605410D01*
X0113750Y0605410D02*
X0109750Y0605410D01*
X0113750Y0605410D02*
X0117750Y0609410D01*
X0117750Y0601410D01*
X0113750Y0605410D01*
X0163750Y0610410D02*
X0159750Y0610410D01*
X0163750Y0610410D02*
X0167750Y0614410D01*
X0167750Y0606410D01*
X0163750Y0610410D01*
X0173750Y0610410D02*
X0169750Y0610410D01*
X0173750Y0610410D02*
X0177750Y0614410D01*
X0177750Y0606410D01*
X0173750Y0610410D01*
X0188750Y0610410D02*
X0184750Y0610410D01*
X0188750Y0610410D02*
X0192750Y0614410D01*
X0192750Y0606410D01*
X0188750Y0610410D01*
X0163750Y0620410D02*
X0159750Y0620410D01*
X0163750Y0620410D02*
X0167750Y0624410D01*
X0167750Y0616410D01*
X0163750Y0620410D01*
X0228750Y0625410D02*
X0224750Y0625410D01*
X0228750Y0625410D02*
X0232750Y0629410D01*
X0232750Y0621410D01*
X0228750Y0625410D01*
X0268750Y0625410D02*
X0264750Y0625410D01*
X0268750Y0625410D02*
X0272750Y0629410D01*
X0272750Y0621410D01*
X0268750Y0625410D01*
X0278750Y0625410D02*
X0274750Y0625410D01*
X0278750Y0625410D02*
X0282750Y0629410D01*
X0282750Y0621410D01*
X0278750Y0625410D01*
X0318750Y0625410D02*
X0314750Y0625410D01*
X0318750Y0625410D02*
X0322750Y0629410D01*
X0322750Y0621410D01*
X0318750Y0625410D01*
X0328750Y0625410D02*
X0324750Y0625410D01*
X0328750Y0625410D02*
X0332750Y0629410D01*
X0332750Y0621410D01*
X0328750Y0625410D01*
X0368750Y0625410D02*
X0364750Y0625410D01*
X0368750Y0625410D02*
X0372750Y0629410D01*
X0372750Y0621410D01*
X0368750Y0625410D01*
X0348750Y0610410D02*
X0344750Y0610410D01*
X0348750Y0610410D02*
X0352750Y0614410D01*
X0352750Y0606410D01*
X0348750Y0610410D01*
X0388750Y0610410D02*
X0384750Y0610410D01*
X0388750Y0610410D02*
X0392750Y0614410D01*
X0392750Y0606410D01*
X0388750Y0610410D01*
X0388750Y0590410D02*
X0384750Y0590410D01*
X0388750Y0590410D02*
X0392750Y0594410D01*
X0392750Y0586410D01*
X0388750Y0590410D01*
X0348750Y0590410D02*
X0344750Y0590410D01*
X0348750Y0590410D02*
X0352750Y0594410D01*
X0352750Y0586410D01*
X0348750Y0590410D01*
X0348750Y0570410D02*
X0344750Y0570410D01*
X0348750Y0570410D02*
X0352750Y0574410D01*
X0352750Y0566410D01*
X0348750Y0570410D01*
X0388750Y0570410D02*
X0384750Y0570410D01*
X0388750Y0570410D02*
X0392750Y0574410D01*
X0392750Y0566410D01*
X0388750Y0570410D01*
X0188750Y0570410D02*
X0184750Y0570410D01*
X0188750Y0570410D02*
X0192750Y0574410D01*
X0192750Y0566410D01*
X0188750Y0570410D01*
X0173750Y0570410D02*
X0169750Y0570410D01*
X0173750Y0570410D02*
X0177750Y0574410D01*
X0177750Y0566410D01*
X0173750Y0570410D01*
X0123750Y0565410D02*
X0119750Y0565410D01*
X0123750Y0565410D02*
X0127750Y0569410D01*
X0127750Y0561410D01*
X0123750Y0565410D01*
X0113750Y0565410D02*
X0109750Y0565410D01*
X0113750Y0565410D02*
X0117750Y0569410D01*
X0117750Y0561410D01*
X0113750Y0565410D01*
X0293750Y0610410D02*
X0289750Y0610410D01*
X0293750Y0610410D02*
X0297750Y0614410D01*
X0297750Y0606410D01*
X0293750Y0610410D01*
X0283750Y0610410D02*
X0279750Y0610410D01*
X0283750Y0610410D02*
X0287750Y0614410D01*
X0287750Y0606410D01*
X0283750Y0610410D01*
X0273750Y0610410D02*
X0269750Y0610410D01*
X0273750Y0610410D02*
X0277750Y0614410D01*
X0277750Y0606410D01*
X0273750Y0610410D01*
X0263750Y0610410D02*
X0259750Y0610410D01*
X0263750Y0610410D02*
X0267750Y0614410D01*
X0267750Y0606410D01*
X0263750Y0610410D01*
X0253750Y0610410D02*
X0249750Y0610410D01*
X0253750Y0610410D02*
X0257750Y0614410D01*
X0257750Y0606410D01*
X0253750Y0610410D01*
X0243750Y0610410D02*
X0239750Y0610410D01*
X0243750Y0610410D02*
X0247750Y0614410D01*
X0247750Y0606410D01*
X0243750Y0610410D01*
X0233750Y0610410D02*
X0229750Y0610410D01*
X0233750Y0610410D02*
X0237750Y0614410D01*
X0237750Y0606410D01*
X0233750Y0610410D01*
X0223750Y0610410D02*
X0219750Y0610410D01*
X0223750Y0610410D02*
X0227750Y0614410D01*
X0227750Y0606410D01*
X0223750Y0610410D01*
X0213750Y0610410D02*
X0209750Y0610410D01*
X0213750Y0610410D02*
X0217750Y0614410D01*
X0217750Y0606410D01*
X0213750Y0610410D01*
X0203750Y0610410D02*
X0199750Y0610410D01*
X0203750Y0610410D02*
X0207750Y0614410D01*
X0207750Y0606410D01*
X0203750Y0610410D01*
X0153750Y0595410D02*
X0149750Y0595410D01*
X0153750Y0595410D02*
X0157750Y0599410D01*
X0157750Y0591410D01*
X0153750Y0595410D01*
X0146250Y0590410D02*
X0142250Y0590410D01*
X0146250Y0590410D02*
X0150250Y0594410D01*
X0150250Y0586410D01*
X0146250Y0590410D01*
X0153750Y0585410D02*
X0149750Y0585410D01*
X0153750Y0585410D02*
X0157750Y0589410D01*
X0157750Y0581410D01*
X0153750Y0585410D01*
X0203750Y0580410D02*
X0199750Y0580410D01*
X0203750Y0580410D02*
X0207750Y0584410D01*
X0207750Y0576410D01*
X0203750Y0580410D01*
X0213750Y0580410D02*
X0209750Y0580410D01*
X0213750Y0580410D02*
X0217750Y0584410D01*
X0217750Y0576410D01*
X0213750Y0580410D01*
X0223750Y0580410D02*
X0219750Y0580410D01*
X0223750Y0580410D02*
X0227750Y0584410D01*
X0227750Y0576410D01*
X0223750Y0580410D01*
X0233750Y0580410D02*
X0229750Y0580410D01*
X0233750Y0580410D02*
X0237750Y0584410D01*
X0237750Y0576410D01*
X0233750Y0580410D01*
X0243750Y0580410D02*
X0239750Y0580410D01*
X0243750Y0580410D02*
X0247750Y0584410D01*
X0247750Y0576410D01*
X0243750Y0580410D01*
X0253750Y0580410D02*
X0249750Y0580410D01*
X0253750Y0580410D02*
X0257750Y0584410D01*
X0257750Y0576410D01*
X0253750Y0580410D01*
X0263750Y0580410D02*
X0259750Y0580410D01*
X0263750Y0580410D02*
X0267750Y0584410D01*
X0267750Y0576410D01*
X0263750Y0580410D01*
X0273750Y0580410D02*
X0269750Y0580410D01*
X0273750Y0580410D02*
X0277750Y0584410D01*
X0277750Y0576410D01*
X0273750Y0580410D01*
X0283750Y0580410D02*
X0279750Y0580410D01*
X0283750Y0580410D02*
X0287750Y0584410D01*
X0287750Y0576410D01*
X0283750Y0580410D01*
X0293750Y0580410D02*
X0289750Y0580410D01*
X0293750Y0580410D02*
X0297750Y0584410D01*
X0297750Y0576410D01*
X0293750Y0580410D01*
X0303750Y0580410D02*
X0299750Y0580410D01*
X0303750Y0580410D02*
X0307750Y0584410D01*
X0307750Y0576410D01*
X0303750Y0580410D01*
X0313750Y0580410D02*
X0309750Y0580410D01*
X0313750Y0580410D02*
X0317750Y0584410D01*
X0317750Y0576410D01*
X0313750Y0580410D01*
X0323750Y0580410D02*
X0319750Y0580410D01*
X0323750Y0580410D02*
X0327750Y0584410D01*
X0327750Y0576410D01*
X0323750Y0580410D01*
X0333750Y0580410D02*
X0329750Y0580410D01*
X0333750Y0580410D02*
X0337750Y0584410D01*
X0337750Y0576410D01*
X0333750Y0580410D01*
X0398750Y0590410D02*
X0394750Y0590410D01*
X0398750Y0590410D02*
X0402750Y0594410D01*
X0402750Y0586410D01*
X0398750Y0590410D01*
X0408750Y0590410D02*
X0404750Y0590410D01*
X0408750Y0590410D02*
X0412750Y0594410D01*
X0412750Y0586410D01*
X0408750Y0590410D01*
X0408750Y0610410D02*
X0404750Y0610410D01*
X0408750Y0610410D02*
X0412750Y0614410D01*
X0412750Y0606410D01*
X0408750Y0610410D01*
X0398750Y0610410D02*
X0394750Y0610410D01*
X0398750Y0610410D02*
X0402750Y0614410D01*
X0402750Y0606410D01*
X0398750Y0610410D01*
X0333750Y0610410D02*
X0329750Y0610410D01*
X0333750Y0610410D02*
X0337750Y0614410D01*
X0337750Y0606410D01*
X0333750Y0610410D01*
X0323750Y0610410D02*
X0319750Y0610410D01*
X0323750Y0610410D02*
X0327750Y0614410D01*
X0327750Y0606410D01*
X0323750Y0610410D01*
X0313750Y0610410D02*
X0309750Y0610410D01*
X0313750Y0610410D02*
X0317750Y0614410D01*
X0317750Y0606410D01*
X0313750Y0610410D01*
X0303750Y0610410D02*
X0299750Y0610410D01*
X0303750Y0610410D02*
X0307750Y0614410D01*
X0307750Y0606410D01*
X0303750Y0610410D01*
X0398750Y0570410D02*
X0394750Y0570410D01*
X0398750Y0570410D02*
X0402750Y0574410D01*
X0402750Y0566410D01*
X0398750Y0570410D01*
X0408750Y0570410D02*
X0404750Y0570410D01*
X0408750Y0570410D02*
X0412750Y0574410D01*
X0412750Y0566410D01*
X0408750Y0570410D01*
X0098750Y0570410D02*
X0094750Y0570410D01*
X0098750Y0570410D02*
X0102750Y0574410D01*
X0102750Y0566410D01*
X0098750Y0570410D01*
X0088750Y0570410D02*
X0084750Y0570410D01*
X0088750Y0570410D02*
X0092750Y0574410D01*
X0092750Y0566410D01*
X0088750Y0570410D01*
X0093750Y0562910D02*
X0089750Y0562910D01*
X0093750Y0562910D02*
X0097750Y0566910D01*
X0097750Y0558910D01*
X0093750Y0562910D01*
X0088750Y0625410D02*
X0084750Y0625410D01*
X0088750Y0625410D02*
X0092750Y0629410D01*
X0092750Y0621410D01*
X0088750Y0625410D01*
X0098750Y0625410D02*
X0094750Y0625410D01*
X0098750Y0625410D02*
X0102750Y0629410D01*
X0102750Y0621410D01*
X0098750Y0625410D01*
X0296250Y0641590D02*
X0292250Y0641590D01*
X0296250Y0641590D02*
X0300250Y0645590D01*
X0300250Y0637590D01*
X0296250Y0641590D01*
X0307250Y0641590D02*
X0303250Y0641590D01*
X0307250Y0641590D02*
X0311250Y0645590D01*
X0311250Y0637590D01*
X0307250Y0641590D01*
X0302250Y0649220D02*
X0298250Y0649220D01*
X0302250Y0649220D02*
X0306250Y0653220D01*
X0306250Y0645220D01*
X0302250Y0649220D01*
X0290250Y0649220D02*
X0286250Y0649220D01*
X0290250Y0649220D02*
X0294250Y0653220D01*
X0294250Y0645220D01*
X0290250Y0649220D01*
X0376670Y0090000D02*
X0372670Y0090000D01*
X0376670Y0090000D02*
X0380670Y0094000D01*
X0380670Y0086000D01*
X0376670Y0090000D01*
X0376670Y0080000D02*
X0372670Y0080000D01*
X0376670Y0080000D02*
X0380670Y0084000D01*
X0380670Y0076000D01*
X0376670Y0080000D01*
X0366670Y0075000D02*
X0362670Y0075000D01*
X0366670Y0075000D02*
X0370670Y0079000D01*
X0370670Y0071000D01*
X0366670Y0075000D01*
X0356670Y0075000D02*
X0352670Y0075000D01*
X0356670Y0075000D02*
X0360670Y0079000D01*
X0360670Y0071000D01*
X0356670Y0075000D01*
X0406670Y0080000D02*
X0402670Y0080000D01*
X0406670Y0080000D02*
X0410670Y0084000D01*
X0410670Y0076000D01*
X0406670Y0080000D01*
X0416670Y0080000D02*
X0412670Y0080000D01*
X0416670Y0080000D02*
X0420670Y0084000D01*
X0420670Y0076000D01*
X0416670Y0080000D01*
X0431670Y0080000D02*
X0427670Y0080000D01*
X0431670Y0080000D02*
X0435670Y0084000D01*
X0435670Y0076000D01*
X0431670Y0080000D01*
X0406670Y0090000D02*
X0402670Y0090000D01*
X0406670Y0090000D02*
X0410670Y0094000D01*
X0410670Y0086000D01*
X0406670Y0090000D01*
X0471670Y0095000D02*
X0467670Y0095000D01*
X0471670Y0095000D02*
X0475670Y0099000D01*
X0475670Y0091000D01*
X0471670Y0095000D01*
X0511670Y0095000D02*
X0507670Y0095000D01*
X0511670Y0095000D02*
X0515670Y0099000D01*
X0515670Y0091000D01*
X0511670Y0095000D01*
X0521670Y0095000D02*
X0517670Y0095000D01*
X0521670Y0095000D02*
X0525670Y0099000D01*
X0525670Y0091000D01*
X0521670Y0095000D01*
X0561670Y0095000D02*
X0557670Y0095000D01*
X0561670Y0095000D02*
X0565670Y0099000D01*
X0565670Y0091000D01*
X0561670Y0095000D01*
X0571670Y0095000D02*
X0567670Y0095000D01*
X0571670Y0095000D02*
X0575670Y0099000D01*
X0575670Y0091000D01*
X0571670Y0095000D01*
X0611670Y0095000D02*
X0607670Y0095000D01*
X0611670Y0095000D02*
X0615670Y0099000D01*
X0615670Y0091000D01*
X0611670Y0095000D01*
X0591670Y0080000D02*
X0587670Y0080000D01*
X0591670Y0080000D02*
X0595670Y0084000D01*
X0595670Y0076000D01*
X0591670Y0080000D01*
X0631670Y0080000D02*
X0627670Y0080000D01*
X0631670Y0080000D02*
X0635670Y0084000D01*
X0635670Y0076000D01*
X0631670Y0080000D01*
X0631670Y0060000D02*
X0627670Y0060000D01*
X0631670Y0060000D02*
X0635670Y0064000D01*
X0635670Y0056000D01*
X0631670Y0060000D01*
X0591670Y0060000D02*
X0587670Y0060000D01*
X0591670Y0060000D02*
X0595670Y0064000D01*
X0595670Y0056000D01*
X0591670Y0060000D01*
X0591670Y0040000D02*
X0587670Y0040000D01*
X0591670Y0040000D02*
X0595670Y0044000D01*
X0595670Y0036000D01*
X0591670Y0040000D01*
X0631670Y0040000D02*
X0627670Y0040000D01*
X0631670Y0040000D02*
X0635670Y0044000D01*
X0635670Y0036000D01*
X0631670Y0040000D01*
X0431670Y0040000D02*
X0427670Y0040000D01*
X0431670Y0040000D02*
X0435670Y0044000D01*
X0435670Y0036000D01*
X0431670Y0040000D01*
X0416670Y0040000D02*
X0412670Y0040000D01*
X0416670Y0040000D02*
X0420670Y0044000D01*
X0420670Y0036000D01*
X0416670Y0040000D01*
X0366670Y0035000D02*
X0362670Y0035000D01*
X0366670Y0035000D02*
X0370670Y0039000D01*
X0370670Y0031000D01*
X0366670Y0035000D01*
X0356670Y0035000D02*
X0352670Y0035000D01*
X0356670Y0035000D02*
X0360670Y0039000D01*
X0360670Y0031000D01*
X0356670Y0035000D01*
X0536670Y0080000D02*
X0532670Y0080000D01*
X0536670Y0080000D02*
X0540670Y0084000D01*
X0540670Y0076000D01*
X0536670Y0080000D01*
X0526670Y0080000D02*
X0522670Y0080000D01*
X0526670Y0080000D02*
X0530670Y0084000D01*
X0530670Y0076000D01*
X0526670Y0080000D01*
X0516670Y0080000D02*
X0512670Y0080000D01*
X0516670Y0080000D02*
X0520670Y0084000D01*
X0520670Y0076000D01*
X0516670Y0080000D01*
X0506670Y0080000D02*
X0502670Y0080000D01*
X0506670Y0080000D02*
X0510670Y0084000D01*
X0510670Y0076000D01*
X0506670Y0080000D01*
X0496670Y0080000D02*
X0492670Y0080000D01*
X0496670Y0080000D02*
X0500670Y0084000D01*
X0500670Y0076000D01*
X0496670Y0080000D01*
X0486670Y0080000D02*
X0482670Y0080000D01*
X0486670Y0080000D02*
X0490670Y0084000D01*
X0490670Y0076000D01*
X0486670Y0080000D01*
X0476670Y0080000D02*
X0472670Y0080000D01*
X0476670Y0080000D02*
X0480670Y0084000D01*
X0480670Y0076000D01*
X0476670Y0080000D01*
X0466670Y0080000D02*
X0462670Y0080000D01*
X0466670Y0080000D02*
X0470670Y0084000D01*
X0470670Y0076000D01*
X0466670Y0080000D01*
X0456670Y0080000D02*
X0452670Y0080000D01*
X0456670Y0080000D02*
X0460670Y0084000D01*
X0460670Y0076000D01*
X0456670Y0080000D01*
X0446670Y0080000D02*
X0442670Y0080000D01*
X0446670Y0080000D02*
X0450670Y0084000D01*
X0450670Y0076000D01*
X0446670Y0080000D01*
X0396670Y0065000D02*
X0392670Y0065000D01*
X0396670Y0065000D02*
X0400670Y0069000D01*
X0400670Y0061000D01*
X0396670Y0065000D01*
X0389170Y0060000D02*
X0385170Y0060000D01*
X0389170Y0060000D02*
X0393170Y0064000D01*
X0393170Y0056000D01*
X0389170Y0060000D01*
X0396670Y0055000D02*
X0392670Y0055000D01*
X0396670Y0055000D02*
X0400670Y0059000D01*
X0400670Y0051000D01*
X0396670Y0055000D01*
X0446670Y0050000D02*
X0442670Y0050000D01*
X0446670Y0050000D02*
X0450670Y0054000D01*
X0450670Y0046000D01*
X0446670Y0050000D01*
X0456670Y0050000D02*
X0452670Y0050000D01*
X0456670Y0050000D02*
X0460670Y0054000D01*
X0460670Y0046000D01*
X0456670Y0050000D01*
X0466670Y0050000D02*
X0462670Y0050000D01*
X0466670Y0050000D02*
X0470670Y0054000D01*
X0470670Y0046000D01*
X0466670Y0050000D01*
X0476670Y0050000D02*
X0472670Y0050000D01*
X0476670Y0050000D02*
X0480670Y0054000D01*
X0480670Y0046000D01*
X0476670Y0050000D01*
X0486670Y0050000D02*
X0482670Y0050000D01*
X0486670Y0050000D02*
X0490670Y0054000D01*
X0490670Y0046000D01*
X0486670Y0050000D01*
X0496670Y0050000D02*
X0492670Y0050000D01*
X0496670Y0050000D02*
X0500670Y0054000D01*
X0500670Y0046000D01*
X0496670Y0050000D01*
X0506670Y0050000D02*
X0502670Y0050000D01*
X0506670Y0050000D02*
X0510670Y0054000D01*
X0510670Y0046000D01*
X0506670Y0050000D01*
X0516670Y0050000D02*
X0512670Y0050000D01*
X0516670Y0050000D02*
X0520670Y0054000D01*
X0520670Y0046000D01*
X0516670Y0050000D01*
X0526670Y0050000D02*
X0522670Y0050000D01*
X0526670Y0050000D02*
X0530670Y0054000D01*
X0530670Y0046000D01*
X0526670Y0050000D01*
X0536670Y0050000D02*
X0532670Y0050000D01*
X0536670Y0050000D02*
X0540670Y0054000D01*
X0540670Y0046000D01*
X0536670Y0050000D01*
X0546670Y0050000D02*
X0542670Y0050000D01*
X0546670Y0050000D02*
X0550670Y0054000D01*
X0550670Y0046000D01*
X0546670Y0050000D01*
X0556670Y0050000D02*
X0552670Y0050000D01*
X0556670Y0050000D02*
X0560670Y0054000D01*
X0560670Y0046000D01*
X0556670Y0050000D01*
X0566670Y0050000D02*
X0562670Y0050000D01*
X0566670Y0050000D02*
X0570670Y0054000D01*
X0570670Y0046000D01*
X0566670Y0050000D01*
X0576670Y0050000D02*
X0572670Y0050000D01*
X0576670Y0050000D02*
X0580670Y0054000D01*
X0580670Y0046000D01*
X0576670Y0050000D01*
X0641670Y0060000D02*
X0637670Y0060000D01*
X0641670Y0060000D02*
X0645670Y0064000D01*
X0645670Y0056000D01*
X0641670Y0060000D01*
X0651670Y0060000D02*
X0647670Y0060000D01*
X0651670Y0060000D02*
X0655670Y0064000D01*
X0655670Y0056000D01*
X0651670Y0060000D01*
X0651670Y0080000D02*
X0647670Y0080000D01*
X0651670Y0080000D02*
X0655670Y0084000D01*
X0655670Y0076000D01*
X0651670Y0080000D01*
X0641670Y0080000D02*
X0637670Y0080000D01*
X0641670Y0080000D02*
X0645670Y0084000D01*
X0645670Y0076000D01*
X0641670Y0080000D01*
X0576670Y0080000D02*
X0572670Y0080000D01*
X0576670Y0080000D02*
X0580670Y0084000D01*
X0580670Y0076000D01*
X0576670Y0080000D01*
X0566670Y0080000D02*
X0562670Y0080000D01*
X0566670Y0080000D02*
X0570670Y0084000D01*
X0570670Y0076000D01*
X0566670Y0080000D01*
X0556670Y0080000D02*
X0552670Y0080000D01*
X0556670Y0080000D02*
X0560670Y0084000D01*
X0560670Y0076000D01*
X0556670Y0080000D01*
X0546670Y0080000D02*
X0542670Y0080000D01*
X0546670Y0080000D02*
X0550670Y0084000D01*
X0550670Y0076000D01*
X0546670Y0080000D01*
X0641670Y0040000D02*
X0637670Y0040000D01*
X0641670Y0040000D02*
X0645670Y0044000D01*
X0645670Y0036000D01*
X0641670Y0040000D01*
X0651670Y0040000D02*
X0647670Y0040000D01*
X0651670Y0040000D02*
X0655670Y0044000D01*
X0655670Y0036000D01*
X0651670Y0040000D01*
X0341670Y0040000D02*
X0337670Y0040000D01*
X0341670Y0040000D02*
X0345670Y0044000D01*
X0345670Y0036000D01*
X0341670Y0040000D01*
X0331670Y0040000D02*
X0327670Y0040000D01*
X0331670Y0040000D02*
X0335670Y0044000D01*
X0335670Y0036000D01*
X0331670Y0040000D01*
X0336670Y0032500D02*
X0332670Y0032500D01*
X0336670Y0032500D02*
X0340670Y0036500D01*
X0340670Y0028500D01*
X0336670Y0032500D01*
X0331670Y0095000D02*
X0327670Y0095000D01*
X0331670Y0095000D02*
X0335670Y0099000D01*
X0335670Y0091000D01*
X0331670Y0095000D01*
X0341670Y0095000D02*
X0337670Y0095000D01*
X0341670Y0095000D02*
X0345670Y0099000D01*
X0345670Y0091000D01*
X0341670Y0095000D01*
X0539170Y0111180D02*
X0535170Y0111180D01*
X0539170Y0111180D02*
X0543170Y0115180D01*
X0543170Y0107180D01*
X0539170Y0111180D01*
X0550170Y0111180D02*
X0546170Y0111180D01*
X0550170Y0111180D02*
X0554170Y0115180D01*
X0554170Y0107180D01*
X0550170Y0111180D01*
X0545170Y0118810D02*
X0541170Y0118810D01*
X0545170Y0118810D02*
X0549170Y0122810D01*
X0549170Y0114810D01*
X0545170Y0118810D01*
X0533170Y0118810D02*
X0529170Y0118810D01*
X0533170Y0118810D02*
X0537170Y0122810D01*
X0537170Y0114810D01*
X0533170Y0118810D01*
X0376670Y0211460D02*
X0372670Y0211460D01*
X0376670Y0211460D02*
X0380670Y0215460D01*
X0380670Y0207460D01*
X0376670Y0211460D01*
X0376670Y0201460D02*
X0372670Y0201460D01*
X0376670Y0201460D02*
X0380670Y0205460D01*
X0380670Y0197460D01*
X0376670Y0201460D01*
X0366670Y0196460D02*
X0362670Y0196460D01*
X0366670Y0196460D02*
X0370670Y0200460D01*
X0370670Y0192460D01*
X0366670Y0196460D01*
X0356670Y0196460D02*
X0352670Y0196460D01*
X0356670Y0196460D02*
X0360670Y0200460D01*
X0360670Y0192460D01*
X0356670Y0196460D01*
X0406670Y0201460D02*
X0402670Y0201460D01*
X0406670Y0201460D02*
X0410670Y0205460D01*
X0410670Y0197460D01*
X0406670Y0201460D01*
X0416670Y0201460D02*
X0412670Y0201460D01*
X0416670Y0201460D02*
X0420670Y0205460D01*
X0420670Y0197460D01*
X0416670Y0201460D01*
X0431670Y0201460D02*
X0427670Y0201460D01*
X0431670Y0201460D02*
X0435670Y0205460D01*
X0435670Y0197460D01*
X0431670Y0201460D01*
X0406670Y0211460D02*
X0402670Y0211460D01*
X0406670Y0211460D02*
X0410670Y0215460D01*
X0410670Y0207460D01*
X0406670Y0211460D01*
X0471670Y0216460D02*
X0467670Y0216460D01*
X0471670Y0216460D02*
X0475670Y0220460D01*
X0475670Y0212460D01*
X0471670Y0216460D01*
X0511670Y0216460D02*
X0507670Y0216460D01*
X0511670Y0216460D02*
X0515670Y0220460D01*
X0515670Y0212460D01*
X0511670Y0216460D01*
X0521670Y0216460D02*
X0517670Y0216460D01*
X0521670Y0216460D02*
X0525670Y0220460D01*
X0525670Y0212460D01*
X0521670Y0216460D01*
X0561670Y0216460D02*
X0557670Y0216460D01*
X0561670Y0216460D02*
X0565670Y0220460D01*
X0565670Y0212460D01*
X0561670Y0216460D01*
X0571670Y0216460D02*
X0567670Y0216460D01*
X0571670Y0216460D02*
X0575670Y0220460D01*
X0575670Y0212460D01*
X0571670Y0216460D01*
X0611670Y0216460D02*
X0607670Y0216460D01*
X0611670Y0216460D02*
X0615670Y0220460D01*
X0615670Y0212460D01*
X0611670Y0216460D01*
X0591670Y0201460D02*
X0587670Y0201460D01*
X0591670Y0201460D02*
X0595670Y0205460D01*
X0595670Y0197460D01*
X0591670Y0201460D01*
X0631670Y0201460D02*
X0627670Y0201460D01*
X0631670Y0201460D02*
X0635670Y0205460D01*
X0635670Y0197460D01*
X0631670Y0201460D01*
X0631670Y0181460D02*
X0627670Y0181460D01*
X0631670Y0181460D02*
X0635670Y0185460D01*
X0635670Y0177460D01*
X0631670Y0181460D01*
X0591670Y0181460D02*
X0587670Y0181460D01*
X0591670Y0181460D02*
X0595670Y0185460D01*
X0595670Y0177460D01*
X0591670Y0181460D01*
X0591670Y0161460D02*
X0587670Y0161460D01*
X0591670Y0161460D02*
X0595670Y0165460D01*
X0595670Y0157460D01*
X0591670Y0161460D01*
X0631670Y0161460D02*
X0627670Y0161460D01*
X0631670Y0161460D02*
X0635670Y0165460D01*
X0635670Y0157460D01*
X0631670Y0161460D01*
X0431670Y0161460D02*
X0427670Y0161460D01*
X0431670Y0161460D02*
X0435670Y0165460D01*
X0435670Y0157460D01*
X0431670Y0161460D01*
X0416670Y0161460D02*
X0412670Y0161460D01*
X0416670Y0161460D02*
X0420670Y0165460D01*
X0420670Y0157460D01*
X0416670Y0161460D01*
X0366670Y0156460D02*
X0362670Y0156460D01*
X0366670Y0156460D02*
X0370670Y0160460D01*
X0370670Y0152460D01*
X0366670Y0156460D01*
X0356670Y0156460D02*
X0352670Y0156460D01*
X0356670Y0156460D02*
X0360670Y0160460D01*
X0360670Y0152460D01*
X0356670Y0156460D01*
X0536670Y0201460D02*
X0532670Y0201460D01*
X0536670Y0201460D02*
X0540670Y0205460D01*
X0540670Y0197460D01*
X0536670Y0201460D01*
X0526670Y0201460D02*
X0522670Y0201460D01*
X0526670Y0201460D02*
X0530670Y0205460D01*
X0530670Y0197460D01*
X0526670Y0201460D01*
X0516670Y0201460D02*
X0512670Y0201460D01*
X0516670Y0201460D02*
X0520670Y0205460D01*
X0520670Y0197460D01*
X0516670Y0201460D01*
X0506670Y0201460D02*
X0502670Y0201460D01*
X0506670Y0201460D02*
X0510670Y0205460D01*
X0510670Y0197460D01*
X0506670Y0201460D01*
X0496670Y0201460D02*
X0492670Y0201460D01*
X0496670Y0201460D02*
X0500670Y0205460D01*
X0500670Y0197460D01*
X0496670Y0201460D01*
X0486670Y0201460D02*
X0482670Y0201460D01*
X0486670Y0201460D02*
X0490670Y0205460D01*
X0490670Y0197460D01*
X0486670Y0201460D01*
X0476670Y0201460D02*
X0472670Y0201460D01*
X0476670Y0201460D02*
X0480670Y0205460D01*
X0480670Y0197460D01*
X0476670Y0201460D01*
X0466670Y0201460D02*
X0462670Y0201460D01*
X0466670Y0201460D02*
X0470670Y0205460D01*
X0470670Y0197460D01*
X0466670Y0201460D01*
X0456670Y0201460D02*
X0452670Y0201460D01*
X0456670Y0201460D02*
X0460670Y0205460D01*
X0460670Y0197460D01*
X0456670Y0201460D01*
X0446670Y0201460D02*
X0442670Y0201460D01*
X0446670Y0201460D02*
X0450670Y0205460D01*
X0450670Y0197460D01*
X0446670Y0201460D01*
X0396670Y0186460D02*
X0392670Y0186460D01*
X0396670Y0186460D02*
X0400670Y0190460D01*
X0400670Y0182460D01*
X0396670Y0186460D01*
X0389170Y0181460D02*
X0385170Y0181460D01*
X0389170Y0181460D02*
X0393170Y0185460D01*
X0393170Y0177460D01*
X0389170Y0181460D01*
X0396670Y0176460D02*
X0392670Y0176460D01*
X0396670Y0176460D02*
X0400670Y0180460D01*
X0400670Y0172460D01*
X0396670Y0176460D01*
X0446670Y0171460D02*
X0442670Y0171460D01*
X0446670Y0171460D02*
X0450670Y0175460D01*
X0450670Y0167460D01*
X0446670Y0171460D01*
X0456670Y0171460D02*
X0452670Y0171460D01*
X0456670Y0171460D02*
X0460670Y0175460D01*
X0460670Y0167460D01*
X0456670Y0171460D01*
X0466670Y0171460D02*
X0462670Y0171460D01*
X0466670Y0171460D02*
X0470670Y0175460D01*
X0470670Y0167460D01*
X0466670Y0171460D01*
X0476670Y0171460D02*
X0472670Y0171460D01*
X0476670Y0171460D02*
X0480670Y0175460D01*
X0480670Y0167460D01*
X0476670Y0171460D01*
X0486670Y0171460D02*
X0482670Y0171460D01*
X0486670Y0171460D02*
X0490670Y0175460D01*
X0490670Y0167460D01*
X0486670Y0171460D01*
X0496670Y0171460D02*
X0492670Y0171460D01*
X0496670Y0171460D02*
X0500670Y0175460D01*
X0500670Y0167460D01*
X0496670Y0171460D01*
X0506670Y0171460D02*
X0502670Y0171460D01*
X0506670Y0171460D02*
X0510670Y0175460D01*
X0510670Y0167460D01*
X0506670Y0171460D01*
X0516670Y0171460D02*
X0512670Y0171460D01*
X0516670Y0171460D02*
X0520670Y0175460D01*
X0520670Y0167460D01*
X0516670Y0171460D01*
X0526670Y0171460D02*
X0522670Y0171460D01*
X0526670Y0171460D02*
X0530670Y0175460D01*
X0530670Y0167460D01*
X0526670Y0171460D01*
X0536670Y0171460D02*
X0532670Y0171460D01*
X0536670Y0171460D02*
X0540670Y0175460D01*
X0540670Y0167460D01*
X0536670Y0171460D01*
X0546670Y0171460D02*
X0542670Y0171460D01*
X0546670Y0171460D02*
X0550670Y0175460D01*
X0550670Y0167460D01*
X0546670Y0171460D01*
X0556670Y0171460D02*
X0552670Y0171460D01*
X0556670Y0171460D02*
X0560670Y0175460D01*
X0560670Y0167460D01*
X0556670Y0171460D01*
X0566670Y0171460D02*
X0562670Y0171460D01*
X0566670Y0171460D02*
X0570670Y0175460D01*
X0570670Y0167460D01*
X0566670Y0171460D01*
X0576670Y0171460D02*
X0572670Y0171460D01*
X0576670Y0171460D02*
X0580670Y0175460D01*
X0580670Y0167460D01*
X0576670Y0171460D01*
X0641670Y0181460D02*
X0637670Y0181460D01*
X0641670Y0181460D02*
X0645670Y0185460D01*
X0645670Y0177460D01*
X0641670Y0181460D01*
X0651670Y0181460D02*
X0647670Y0181460D01*
X0651670Y0181460D02*
X0655670Y0185460D01*
X0655670Y0177460D01*
X0651670Y0181460D01*
X0651670Y0201460D02*
X0647670Y0201460D01*
X0651670Y0201460D02*
X0655670Y0205460D01*
X0655670Y0197460D01*
X0651670Y0201460D01*
X0641670Y0201460D02*
X0637670Y0201460D01*
X0641670Y0201460D02*
X0645670Y0205460D01*
X0645670Y0197460D01*
X0641670Y0201460D01*
X0576670Y0201460D02*
X0572670Y0201460D01*
X0576670Y0201460D02*
X0580670Y0205460D01*
X0580670Y0197460D01*
X0576670Y0201460D01*
X0566670Y0201460D02*
X0562670Y0201460D01*
X0566670Y0201460D02*
X0570670Y0205460D01*
X0570670Y0197460D01*
X0566670Y0201460D01*
X0556670Y0201460D02*
X0552670Y0201460D01*
X0556670Y0201460D02*
X0560670Y0205460D01*
X0560670Y0197460D01*
X0556670Y0201460D01*
X0546670Y0201460D02*
X0542670Y0201460D01*
X0546670Y0201460D02*
X0550670Y0205460D01*
X0550670Y0197460D01*
X0546670Y0201460D01*
X0641670Y0161460D02*
X0637670Y0161460D01*
X0641670Y0161460D02*
X0645670Y0165460D01*
X0645670Y0157460D01*
X0641670Y0161460D01*
X0651670Y0161460D02*
X0647670Y0161460D01*
X0651670Y0161460D02*
X0655670Y0165460D01*
X0655670Y0157460D01*
X0651670Y0161460D01*
X0341670Y0161460D02*
X0337670Y0161460D01*
X0341670Y0161460D02*
X0345670Y0165460D01*
X0345670Y0157460D01*
X0341670Y0161460D01*
X0331670Y0161460D02*
X0327670Y0161460D01*
X0331670Y0161460D02*
X0335670Y0165460D01*
X0335670Y0157460D01*
X0331670Y0161460D01*
X0336670Y0153960D02*
X0332670Y0153960D01*
X0336670Y0153960D02*
X0340670Y0157960D01*
X0340670Y0149960D01*
X0336670Y0153960D01*
X0331670Y0216460D02*
X0327670Y0216460D01*
X0331670Y0216460D02*
X0335670Y0220460D01*
X0335670Y0212460D01*
X0331670Y0216460D01*
X0341670Y0216460D02*
X0337670Y0216460D01*
X0341670Y0216460D02*
X0345670Y0220460D01*
X0345670Y0212460D01*
X0341670Y0216460D01*
X0539170Y0232640D02*
X0535170Y0232640D01*
X0539170Y0232640D02*
X0543170Y0236640D01*
X0543170Y0228640D01*
X0539170Y0232640D01*
X0550170Y0232640D02*
X0546170Y0232640D01*
X0550170Y0232640D02*
X0554170Y0236640D01*
X0554170Y0228640D01*
X0550170Y0232640D01*
X0545170Y0240270D02*
X0541170Y0240270D01*
X0545170Y0240270D02*
X0549170Y0244270D01*
X0549170Y0236270D01*
X0545170Y0240270D01*
X0533170Y0240270D02*
X0529170Y0240270D01*
X0533170Y0240270D02*
X0537170Y0244270D01*
X0537170Y0236270D01*
X0533170Y0240270D01*
X0376670Y0332920D02*
X0372670Y0332920D01*
X0376670Y0332920D02*
X0380670Y0336920D01*
X0380670Y0328920D01*
X0376670Y0332920D01*
X0376670Y0322920D02*
X0372670Y0322920D01*
X0376670Y0322920D02*
X0380670Y0326920D01*
X0380670Y0318920D01*
X0376670Y0322920D01*
X0366670Y0317920D02*
X0362670Y0317920D01*
X0366670Y0317920D02*
X0370670Y0321920D01*
X0370670Y0313920D01*
X0366670Y0317920D01*
X0356670Y0317920D02*
X0352670Y0317920D01*
X0356670Y0317920D02*
X0360670Y0321920D01*
X0360670Y0313920D01*
X0356670Y0317920D01*
X0406670Y0322920D02*
X0402670Y0322920D01*
X0406670Y0322920D02*
X0410670Y0326920D01*
X0410670Y0318920D01*
X0406670Y0322920D01*
X0416670Y0322920D02*
X0412670Y0322920D01*
X0416670Y0322920D02*
X0420670Y0326920D01*
X0420670Y0318920D01*
X0416670Y0322920D01*
X0431670Y0322920D02*
X0427670Y0322920D01*
X0431670Y0322920D02*
X0435670Y0326920D01*
X0435670Y0318920D01*
X0431670Y0322920D01*
X0406670Y0332920D02*
X0402670Y0332920D01*
X0406670Y0332920D02*
X0410670Y0336920D01*
X0410670Y0328920D01*
X0406670Y0332920D01*
X0471670Y0337920D02*
X0467670Y0337920D01*
X0471670Y0337920D02*
X0475670Y0341920D01*
X0475670Y0333920D01*
X0471670Y0337920D01*
X0511670Y0337920D02*
X0507670Y0337920D01*
X0511670Y0337920D02*
X0515670Y0341920D01*
X0515670Y0333920D01*
X0511670Y0337920D01*
X0521670Y0337920D02*
X0517670Y0337920D01*
X0521670Y0337920D02*
X0525670Y0341920D01*
X0525670Y0333920D01*
X0521670Y0337920D01*
X0561670Y0337920D02*
X0557670Y0337920D01*
X0561670Y0337920D02*
X0565670Y0341920D01*
X0565670Y0333920D01*
X0561670Y0337920D01*
X0571670Y0337920D02*
X0567670Y0337920D01*
X0571670Y0337920D02*
X0575670Y0341920D01*
X0575670Y0333920D01*
X0571670Y0337920D01*
X0611670Y0337920D02*
X0607670Y0337920D01*
X0611670Y0337920D02*
X0615670Y0341920D01*
X0615670Y0333920D01*
X0611670Y0337920D01*
X0591670Y0322920D02*
X0587670Y0322920D01*
X0591670Y0322920D02*
X0595670Y0326920D01*
X0595670Y0318920D01*
X0591670Y0322920D01*
X0631670Y0322920D02*
X0627670Y0322920D01*
X0631670Y0322920D02*
X0635670Y0326920D01*
X0635670Y0318920D01*
X0631670Y0322920D01*
X0631670Y0302920D02*
X0627670Y0302920D01*
X0631670Y0302920D02*
X0635670Y0306920D01*
X0635670Y0298920D01*
X0631670Y0302920D01*
X0591670Y0302920D02*
X0587670Y0302920D01*
X0591670Y0302920D02*
X0595670Y0306920D01*
X0595670Y0298920D01*
X0591670Y0302920D01*
X0591670Y0282920D02*
X0587670Y0282920D01*
X0591670Y0282920D02*
X0595670Y0286920D01*
X0595670Y0278920D01*
X0591670Y0282920D01*
X0631670Y0282920D02*
X0627670Y0282920D01*
X0631670Y0282920D02*
X0635670Y0286920D01*
X0635670Y0278920D01*
X0631670Y0282920D01*
X0431670Y0282920D02*
X0427670Y0282920D01*
X0431670Y0282920D02*
X0435670Y0286920D01*
X0435670Y0278920D01*
X0431670Y0282920D01*
X0416670Y0282920D02*
X0412670Y0282920D01*
X0416670Y0282920D02*
X0420670Y0286920D01*
X0420670Y0278920D01*
X0416670Y0282920D01*
X0366670Y0277920D02*
X0362670Y0277920D01*
X0366670Y0277920D02*
X0370670Y0281920D01*
X0370670Y0273920D01*
X0366670Y0277920D01*
X0356670Y0277920D02*
X0352670Y0277920D01*
X0356670Y0277920D02*
X0360670Y0281920D01*
X0360670Y0273920D01*
X0356670Y0277920D01*
X0536670Y0322920D02*
X0532670Y0322920D01*
X0536670Y0322920D02*
X0540670Y0326920D01*
X0540670Y0318920D01*
X0536670Y0322920D01*
X0526670Y0322920D02*
X0522670Y0322920D01*
X0526670Y0322920D02*
X0530670Y0326920D01*
X0530670Y0318920D01*
X0526670Y0322920D01*
X0516670Y0322920D02*
X0512670Y0322920D01*
X0516670Y0322920D02*
X0520670Y0326920D01*
X0520670Y0318920D01*
X0516670Y0322920D01*
X0506670Y0322920D02*
X0502670Y0322920D01*
X0506670Y0322920D02*
X0510670Y0326920D01*
X0510670Y0318920D01*
X0506670Y0322920D01*
X0496670Y0322920D02*
X0492670Y0322920D01*
X0496670Y0322920D02*
X0500670Y0326920D01*
X0500670Y0318920D01*
X0496670Y0322920D01*
X0486670Y0322920D02*
X0482670Y0322920D01*
X0486670Y0322920D02*
X0490670Y0326920D01*
X0490670Y0318920D01*
X0486670Y0322920D01*
X0476670Y0322920D02*
X0472670Y0322920D01*
X0476670Y0322920D02*
X0480670Y0326920D01*
X0480670Y0318920D01*
X0476670Y0322920D01*
X0466670Y0322920D02*
X0462670Y0322920D01*
X0466670Y0322920D02*
X0470670Y0326920D01*
X0470670Y0318920D01*
X0466670Y0322920D01*
X0456670Y0322920D02*
X0452670Y0322920D01*
X0456670Y0322920D02*
X0460670Y0326920D01*
X0460670Y0318920D01*
X0456670Y0322920D01*
X0446670Y0322920D02*
X0442670Y0322920D01*
X0446670Y0322920D02*
X0450670Y0326920D01*
X0450670Y0318920D01*
X0446670Y0322920D01*
X0396670Y0307920D02*
X0392670Y0307920D01*
X0396670Y0307920D02*
X0400670Y0311920D01*
X0400670Y0303920D01*
X0396670Y0307920D01*
X0389170Y0302920D02*
X0385170Y0302920D01*
X0389170Y0302920D02*
X0393170Y0306920D01*
X0393170Y0298920D01*
X0389170Y0302920D01*
X0396670Y0297920D02*
X0392670Y0297920D01*
X0396670Y0297920D02*
X0400670Y0301920D01*
X0400670Y0293920D01*
X0396670Y0297920D01*
X0446670Y0292920D02*
X0442670Y0292920D01*
X0446670Y0292920D02*
X0450670Y0296920D01*
X0450670Y0288920D01*
X0446670Y0292920D01*
X0456670Y0292920D02*
X0452670Y0292920D01*
X0456670Y0292920D02*
X0460670Y0296920D01*
X0460670Y0288920D01*
X0456670Y0292920D01*
X0466670Y0292920D02*
X0462670Y0292920D01*
X0466670Y0292920D02*
X0470670Y0296920D01*
X0470670Y0288920D01*
X0466670Y0292920D01*
X0476670Y0292920D02*
X0472670Y0292920D01*
X0476670Y0292920D02*
X0480670Y0296920D01*
X0480670Y0288920D01*
X0476670Y0292920D01*
X0486670Y0292920D02*
X0482670Y0292920D01*
X0486670Y0292920D02*
X0490670Y0296920D01*
X0490670Y0288920D01*
X0486670Y0292920D01*
X0496670Y0292920D02*
X0492670Y0292920D01*
X0496670Y0292920D02*
X0500670Y0296920D01*
X0500670Y0288920D01*
X0496670Y0292920D01*
X0506670Y0292920D02*
X0502670Y0292920D01*
X0506670Y0292920D02*
X0510670Y0296920D01*
X0510670Y0288920D01*
X0506670Y0292920D01*
X0516670Y0292920D02*
X0512670Y0292920D01*
X0516670Y0292920D02*
X0520670Y0296920D01*
X0520670Y0288920D01*
X0516670Y0292920D01*
X0526670Y0292920D02*
X0522670Y0292920D01*
X0526670Y0292920D02*
X0530670Y0296920D01*
X0530670Y0288920D01*
X0526670Y0292920D01*
X0536670Y0292920D02*
X0532670Y0292920D01*
X0536670Y0292920D02*
X0540670Y0296920D01*
X0540670Y0288920D01*
X0536670Y0292920D01*
X0546670Y0292920D02*
X0542670Y0292920D01*
X0546670Y0292920D02*
X0550670Y0296920D01*
X0550670Y0288920D01*
X0546670Y0292920D01*
X0556670Y0292920D02*
X0552670Y0292920D01*
X0556670Y0292920D02*
X0560670Y0296920D01*
X0560670Y0288920D01*
X0556670Y0292920D01*
X0566670Y0292920D02*
X0562670Y0292920D01*
X0566670Y0292920D02*
X0570670Y0296920D01*
X0570670Y0288920D01*
X0566670Y0292920D01*
X0576670Y0292920D02*
X0572670Y0292920D01*
X0576670Y0292920D02*
X0580670Y0296920D01*
X0580670Y0288920D01*
X0576670Y0292920D01*
X0641670Y0302920D02*
X0637670Y0302920D01*
X0641670Y0302920D02*
X0645670Y0306920D01*
X0645670Y0298920D01*
X0641670Y0302920D01*
X0651670Y0302920D02*
X0647670Y0302920D01*
X0651670Y0302920D02*
X0655670Y0306920D01*
X0655670Y0298920D01*
X0651670Y0302920D01*
X0651670Y0322920D02*
X0647670Y0322920D01*
X0651670Y0322920D02*
X0655670Y0326920D01*
X0655670Y0318920D01*
X0651670Y0322920D01*
X0641670Y0322920D02*
X0637670Y0322920D01*
X0641670Y0322920D02*
X0645670Y0326920D01*
X0645670Y0318920D01*
X0641670Y0322920D01*
X0576670Y0322920D02*
X0572670Y0322920D01*
X0576670Y0322920D02*
X0580670Y0326920D01*
X0580670Y0318920D01*
X0576670Y0322920D01*
X0566670Y0322920D02*
X0562670Y0322920D01*
X0566670Y0322920D02*
X0570670Y0326920D01*
X0570670Y0318920D01*
X0566670Y0322920D01*
X0556670Y0322920D02*
X0552670Y0322920D01*
X0556670Y0322920D02*
X0560670Y0326920D01*
X0560670Y0318920D01*
X0556670Y0322920D01*
X0546670Y0322920D02*
X0542670Y0322920D01*
X0546670Y0322920D02*
X0550670Y0326920D01*
X0550670Y0318920D01*
X0546670Y0322920D01*
X0641670Y0282920D02*
X0637670Y0282920D01*
X0641670Y0282920D02*
X0645670Y0286920D01*
X0645670Y0278920D01*
X0641670Y0282920D01*
X0651670Y0282920D02*
X0647670Y0282920D01*
X0651670Y0282920D02*
X0655670Y0286920D01*
X0655670Y0278920D01*
X0651670Y0282920D01*
X0341670Y0282920D02*
X0337670Y0282920D01*
X0341670Y0282920D02*
X0345670Y0286920D01*
X0345670Y0278920D01*
X0341670Y0282920D01*
X0331670Y0282920D02*
X0327670Y0282920D01*
X0331670Y0282920D02*
X0335670Y0286920D01*
X0335670Y0278920D01*
X0331670Y0282920D01*
X0336670Y0275420D02*
X0332670Y0275420D01*
X0336670Y0275420D02*
X0340670Y0279420D01*
X0340670Y0271420D01*
X0336670Y0275420D01*
X0331670Y0337920D02*
X0327670Y0337920D01*
X0331670Y0337920D02*
X0335670Y0341920D01*
X0335670Y0333920D01*
X0331670Y0337920D01*
X0341670Y0337920D02*
X0337670Y0337920D01*
X0341670Y0337920D02*
X0345670Y0341920D01*
X0345670Y0333920D01*
X0341670Y0337920D01*
X0539170Y0354100D02*
X0535170Y0354100D01*
X0539170Y0354100D02*
X0543170Y0358100D01*
X0543170Y0350100D01*
X0539170Y0354100D01*
X0550170Y0354100D02*
X0546170Y0354100D01*
X0550170Y0354100D02*
X0554170Y0358100D01*
X0554170Y0350100D01*
X0550170Y0354100D01*
X0545170Y0361730D02*
X0541170Y0361730D01*
X0545170Y0361730D02*
X0549170Y0365730D01*
X0549170Y0357730D01*
X0545170Y0361730D01*
X0533170Y0361730D02*
X0529170Y0361730D01*
X0533170Y0361730D02*
X0537170Y0365730D01*
X0537170Y0357730D01*
X0533170Y0361730D01*
X0133750Y0741870D02*
X0129750Y0741870D01*
X0133750Y0741870D02*
X0137750Y0745870D01*
X0137750Y0737870D01*
X0133750Y0741870D01*
X0133750Y0731870D02*
X0129750Y0731870D01*
X0133750Y0731870D02*
X0137750Y0735870D01*
X0137750Y0727870D01*
X0133750Y0731870D01*
X0123750Y0726870D02*
X0119750Y0726870D01*
X0123750Y0726870D02*
X0127750Y0730870D01*
X0127750Y0722870D01*
X0123750Y0726870D01*
X0113750Y0726870D02*
X0109750Y0726870D01*
X0113750Y0726870D02*
X0117750Y0730870D01*
X0117750Y0722870D01*
X0113750Y0726870D01*
X0163750Y0731870D02*
X0159750Y0731870D01*
X0163750Y0731870D02*
X0167750Y0735870D01*
X0167750Y0727870D01*
X0163750Y0731870D01*
X0173750Y0731870D02*
X0169750Y0731870D01*
X0173750Y0731870D02*
X0177750Y0735870D01*
X0177750Y0727870D01*
X0173750Y0731870D01*
X0188750Y0731870D02*
X0184750Y0731870D01*
X0188750Y0731870D02*
X0192750Y0735870D01*
X0192750Y0727870D01*
X0188750Y0731870D01*
X0163750Y0741870D02*
X0159750Y0741870D01*
X0163750Y0741870D02*
X0167750Y0745870D01*
X0167750Y0737870D01*
X0163750Y0741870D01*
X0228750Y0746870D02*
X0224750Y0746870D01*
X0228750Y0746870D02*
X0232750Y0750870D01*
X0232750Y0742870D01*
X0228750Y0746870D01*
X0268750Y0746870D02*
X0264750Y0746870D01*
X0268750Y0746870D02*
X0272750Y0750870D01*
X0272750Y0742870D01*
X0268750Y0746870D01*
X0278750Y0746870D02*
X0274750Y0746870D01*
X0278750Y0746870D02*
X0282750Y0750870D01*
X0282750Y0742870D01*
X0278750Y0746870D01*
X0318750Y0746870D02*
X0314750Y0746870D01*
X0318750Y0746870D02*
X0322750Y0750870D01*
X0322750Y0742870D01*
X0318750Y0746870D01*
X0328750Y0746870D02*
X0324750Y0746870D01*
X0328750Y0746870D02*
X0332750Y0750870D01*
X0332750Y0742870D01*
X0328750Y0746870D01*
X0368750Y0746870D02*
X0364750Y0746870D01*
X0368750Y0746870D02*
X0372750Y0750870D01*
X0372750Y0742870D01*
X0368750Y0746870D01*
X0348750Y0731870D02*
X0344750Y0731870D01*
X0348750Y0731870D02*
X0352750Y0735870D01*
X0352750Y0727870D01*
X0348750Y0731870D01*
X0388750Y0731870D02*
X0384750Y0731870D01*
X0388750Y0731870D02*
X0392750Y0735870D01*
X0392750Y0727870D01*
X0388750Y0731870D01*
X0388750Y0711870D02*
X0384750Y0711870D01*
X0388750Y0711870D02*
X0392750Y0715870D01*
X0392750Y0707870D01*
X0388750Y0711870D01*
X0348750Y0711870D02*
X0344750Y0711870D01*
X0348750Y0711870D02*
X0352750Y0715870D01*
X0352750Y0707870D01*
X0348750Y0711870D01*
X0348750Y0691870D02*
X0344750Y0691870D01*
X0348750Y0691870D02*
X0352750Y0695870D01*
X0352750Y0687870D01*
X0348750Y0691870D01*
X0388750Y0691870D02*
X0384750Y0691870D01*
X0388750Y0691870D02*
X0392750Y0695870D01*
X0392750Y0687870D01*
X0388750Y0691870D01*
X0188750Y0691870D02*
X0184750Y0691870D01*
X0188750Y0691870D02*
X0192750Y0695870D01*
X0192750Y0687870D01*
X0188750Y0691870D01*
X0173750Y0691870D02*
X0169750Y0691870D01*
X0173750Y0691870D02*
X0177750Y0695870D01*
X0177750Y0687870D01*
X0173750Y0691870D01*
X0123750Y0686870D02*
X0119750Y0686870D01*
X0123750Y0686870D02*
X0127750Y0690870D01*
X0127750Y0682870D01*
X0123750Y0686870D01*
X0113750Y0686870D02*
X0109750Y0686870D01*
X0113750Y0686870D02*
X0117750Y0690870D01*
X0117750Y0682870D01*
X0113750Y0686870D01*
X0293750Y0731870D02*
X0289750Y0731870D01*
X0293750Y0731870D02*
X0297750Y0735870D01*
X0297750Y0727870D01*
X0293750Y0731870D01*
X0283750Y0731870D02*
X0279750Y0731870D01*
X0283750Y0731870D02*
X0287750Y0735870D01*
X0287750Y0727870D01*
X0283750Y0731870D01*
X0273750Y0731870D02*
X0269750Y0731870D01*
X0273750Y0731870D02*
X0277750Y0735870D01*
X0277750Y0727870D01*
X0273750Y0731870D01*
X0263750Y0731870D02*
X0259750Y0731870D01*
X0263750Y0731870D02*
X0267750Y0735870D01*
X0267750Y0727870D01*
X0263750Y0731870D01*
X0253750Y0731870D02*
X0249750Y0731870D01*
X0253750Y0731870D02*
X0257750Y0735870D01*
X0257750Y0727870D01*
X0253750Y0731870D01*
X0243750Y0731870D02*
X0239750Y0731870D01*
X0243750Y0731870D02*
X0247750Y0735870D01*
X0247750Y0727870D01*
X0243750Y0731870D01*
X0233750Y0731870D02*
X0229750Y0731870D01*
X0233750Y0731870D02*
X0237750Y0735870D01*
X0237750Y0727870D01*
X0233750Y0731870D01*
X0223750Y0731870D02*
X0219750Y0731870D01*
X0223750Y0731870D02*
X0227750Y0735870D01*
X0227750Y0727870D01*
X0223750Y0731870D01*
X0213750Y0731870D02*
X0209750Y0731870D01*
X0213750Y0731870D02*
X0217750Y0735870D01*
X0217750Y0727870D01*
X0213750Y0731870D01*
X0203750Y0731870D02*
X0199750Y0731870D01*
X0203750Y0731870D02*
X0207750Y0735870D01*
X0207750Y0727870D01*
X0203750Y0731870D01*
X0153750Y0716870D02*
X0149750Y0716870D01*
X0153750Y0716870D02*
X0157750Y0720870D01*
X0157750Y0712870D01*
X0153750Y0716870D01*
X0146250Y0711870D02*
X0142250Y0711870D01*
X0146250Y0711870D02*
X0150250Y0715870D01*
X0150250Y0707870D01*
X0146250Y0711870D01*
X0153750Y0706870D02*
X0149750Y0706870D01*
X0153750Y0706870D02*
X0157750Y0710870D01*
X0157750Y0702870D01*
X0153750Y0706870D01*
X0203750Y0701870D02*
X0199750Y0701870D01*
X0203750Y0701870D02*
X0207750Y0705870D01*
X0207750Y0697870D01*
X0203750Y0701870D01*
X0213750Y0701870D02*
X0209750Y0701870D01*
X0213750Y0701870D02*
X0217750Y0705870D01*
X0217750Y0697870D01*
X0213750Y0701870D01*
X0223750Y0701870D02*
X0219750Y0701870D01*
X0223750Y0701870D02*
X0227750Y0705870D01*
X0227750Y0697870D01*
X0223750Y0701870D01*
X0233750Y0701870D02*
X0229750Y0701870D01*
X0233750Y0701870D02*
X0237750Y0705870D01*
X0237750Y0697870D01*
X0233750Y0701870D01*
X0243750Y0701870D02*
X0239750Y0701870D01*
X0243750Y0701870D02*
X0247750Y0705870D01*
X0247750Y0697870D01*
X0243750Y0701870D01*
X0253750Y0701870D02*
X0249750Y0701870D01*
X0253750Y0701870D02*
X0257750Y0705870D01*
X0257750Y0697870D01*
X0253750Y0701870D01*
X0263750Y0701870D02*
X0259750Y0701870D01*
X0263750Y0701870D02*
X0267750Y0705870D01*
X0267750Y0697870D01*
X0263750Y0701870D01*
X0273750Y0701870D02*
X0269750Y0701870D01*
X0273750Y0701870D02*
X0277750Y0705870D01*
X0277750Y0697870D01*
X0273750Y0701870D01*
X0283750Y0701870D02*
X0279750Y0701870D01*
X0283750Y0701870D02*
X0287750Y0705870D01*
X0287750Y0697870D01*
X0283750Y0701870D01*
X0293750Y0701870D02*
X0289750Y0701870D01*
X0293750Y0701870D02*
X0297750Y0705870D01*
X0297750Y0697870D01*
X0293750Y0701870D01*
X0303750Y0701870D02*
X0299750Y0701870D01*
X0303750Y0701870D02*
X0307750Y0705870D01*
X0307750Y0697870D01*
X0303750Y0701870D01*
X0313750Y0701870D02*
X0309750Y0701870D01*
X0313750Y0701870D02*
X0317750Y0705870D01*
X0317750Y0697870D01*
X0313750Y0701870D01*
X0323750Y0701870D02*
X0319750Y0701870D01*
X0323750Y0701870D02*
X0327750Y0705870D01*
X0327750Y0697870D01*
X0323750Y0701870D01*
X0333750Y0701870D02*
X0329750Y0701870D01*
X0333750Y0701870D02*
X0337750Y0705870D01*
X0337750Y0697870D01*
X0333750Y0701870D01*
X0398750Y0711870D02*
X0394750Y0711870D01*
X0398750Y0711870D02*
X0402750Y0715870D01*
X0402750Y0707870D01*
X0398750Y0711870D01*
X0408750Y0711870D02*
X0404750Y0711870D01*
X0408750Y0711870D02*
X0412750Y0715870D01*
X0412750Y0707870D01*
X0408750Y0711870D01*
X0408750Y0731870D02*
X0404750Y0731870D01*
X0408750Y0731870D02*
X0412750Y0735870D01*
X0412750Y0727870D01*
X0408750Y0731870D01*
X0398750Y0731870D02*
X0394750Y0731870D01*
X0398750Y0731870D02*
X0402750Y0735870D01*
X0402750Y0727870D01*
X0398750Y0731870D01*
X0333750Y0731870D02*
X0329750Y0731870D01*
X0333750Y0731870D02*
X0337750Y0735870D01*
X0337750Y0727870D01*
X0333750Y0731870D01*
X0323750Y0731870D02*
X0319750Y0731870D01*
X0323750Y0731870D02*
X0327750Y0735870D01*
X0327750Y0727870D01*
X0323750Y0731870D01*
X0313750Y0731870D02*
X0309750Y0731870D01*
X0313750Y0731870D02*
X0317750Y0735870D01*
X0317750Y0727870D01*
X0313750Y0731870D01*
X0303750Y0731870D02*
X0299750Y0731870D01*
X0303750Y0731870D02*
X0307750Y0735870D01*
X0307750Y0727870D01*
X0303750Y0731870D01*
X0398750Y0691870D02*
X0394750Y0691870D01*
X0398750Y0691870D02*
X0402750Y0695870D01*
X0402750Y0687870D01*
X0398750Y0691870D01*
X0408750Y0691870D02*
X0404750Y0691870D01*
X0408750Y0691870D02*
X0412750Y0695870D01*
X0412750Y0687870D01*
X0408750Y0691870D01*
X0098750Y0691870D02*
X0094750Y0691870D01*
X0098750Y0691870D02*
X0102750Y0695870D01*
X0102750Y0687870D01*
X0098750Y0691870D01*
X0088750Y0691870D02*
X0084750Y0691870D01*
X0088750Y0691870D02*
X0092750Y0695870D01*
X0092750Y0687870D01*
X0088750Y0691870D01*
X0093750Y0684370D02*
X0089750Y0684370D01*
X0093750Y0684370D02*
X0097750Y0688370D01*
X0097750Y0680370D01*
X0093750Y0684370D01*
X0088750Y0746870D02*
X0084750Y0746870D01*
X0088750Y0746870D02*
X0092750Y0750870D01*
X0092750Y0742870D01*
X0088750Y0746870D01*
X0098750Y0746870D02*
X0094750Y0746870D01*
X0098750Y0746870D02*
X0102750Y0750870D01*
X0102750Y0742870D01*
X0098750Y0746870D01*
X0296250Y0763050D02*
X0292250Y0763050D01*
X0296250Y0763050D02*
X0300250Y0767050D01*
X0300250Y0759050D01*
X0296250Y0763050D01*
X0307250Y0763050D02*
X0303250Y0763050D01*
X0307250Y0763050D02*
X0311250Y0767050D01*
X0311250Y0759050D01*
X0307250Y0763050D01*
X0302250Y0770680D02*
X0298250Y0770680D01*
X0302250Y0770680D02*
X0306250Y0774680D01*
X0306250Y0766680D01*
X0302250Y0770680D01*
X0290250Y0770680D02*
X0286250Y0770680D01*
X0290250Y0770680D02*
X0294250Y0774680D01*
X0294250Y0766680D01*
X0290250Y0770680D01*
X0473910Y0498130D02*
X0469910Y0498130D01*
X0473910Y0498130D02*
X0477910Y0502130D01*
X0477910Y0494130D01*
X0473910Y0498130D01*
X0483910Y0498130D02*
X0479910Y0498130D01*
X0483910Y0498130D02*
X0487910Y0502130D01*
X0487910Y0494130D01*
X0483910Y0498130D01*
X0488910Y0488130D02*
X0484910Y0488130D01*
X0488910Y0488130D02*
X0492910Y0492130D01*
X0492910Y0484130D01*
X0488910Y0488130D01*
X0488910Y0478130D02*
X0484910Y0478130D01*
X0488910Y0478130D02*
X0492910Y0482130D01*
X0492910Y0474130D01*
X0488910Y0478130D01*
X0483910Y0528130D02*
X0479910Y0528130D01*
X0483910Y0528130D02*
X0487910Y0532130D01*
X0487910Y0524130D01*
X0483910Y0528130D01*
X0483910Y0538130D02*
X0479910Y0538130D01*
X0483910Y0538130D02*
X0487910Y0542130D01*
X0487910Y0534130D01*
X0483910Y0538130D01*
X0483910Y0553130D02*
X0479910Y0553130D01*
X0483910Y0553130D02*
X0487910Y0557130D01*
X0487910Y0549130D01*
X0483910Y0553130D01*
X0473910Y0528130D02*
X0469910Y0528130D01*
X0473910Y0528130D02*
X0477910Y0532130D01*
X0477910Y0524130D01*
X0473910Y0528130D01*
X0468910Y0593130D02*
X0464910Y0593130D01*
X0468910Y0593130D02*
X0472910Y0597130D01*
X0472910Y0589130D01*
X0468910Y0593130D01*
X0468910Y0633130D02*
X0464910Y0633130D01*
X0468910Y0633130D02*
X0472910Y0637130D01*
X0472910Y0629130D01*
X0468910Y0633130D01*
X0468910Y0643130D02*
X0464910Y0643130D01*
X0468910Y0643130D02*
X0472910Y0647130D01*
X0472910Y0639130D01*
X0468910Y0643130D01*
X0468910Y0683130D02*
X0464910Y0683130D01*
X0468910Y0683130D02*
X0472910Y0687130D01*
X0472910Y0679130D01*
X0468910Y0683130D01*
X0468910Y0693130D02*
X0464910Y0693130D01*
X0468910Y0693130D02*
X0472910Y0697130D01*
X0472910Y0689130D01*
X0468910Y0693130D01*
X0468910Y0733130D02*
X0464910Y0733130D01*
X0468910Y0733130D02*
X0472910Y0737130D01*
X0472910Y0729130D01*
X0468910Y0733130D01*
X0483910Y0713130D02*
X0479910Y0713130D01*
X0483910Y0713130D02*
X0487910Y0717130D01*
X0487910Y0709130D01*
X0483910Y0713130D01*
X0483910Y0753130D02*
X0479910Y0753130D01*
X0483910Y0753130D02*
X0487910Y0757130D01*
X0487910Y0749130D01*
X0483910Y0753130D01*
X0503910Y0753130D02*
X0499910Y0753130D01*
X0503910Y0753130D02*
X0507910Y0757130D01*
X0507910Y0749130D01*
X0503910Y0753130D01*
X0503910Y0713130D02*
X0499910Y0713130D01*
X0503910Y0713130D02*
X0507910Y0717130D01*
X0507910Y0709130D01*
X0503910Y0713130D01*
X0523910Y0713130D02*
X0519910Y0713130D01*
X0523910Y0713130D02*
X0527910Y0717130D01*
X0527910Y0709130D01*
X0523910Y0713130D01*
X0523910Y0753130D02*
X0519910Y0753130D01*
X0523910Y0753130D02*
X0527910Y0757130D01*
X0527910Y0749130D01*
X0523910Y0753130D01*
X0523910Y0553130D02*
X0519910Y0553130D01*
X0523910Y0553130D02*
X0527910Y0557130D01*
X0527910Y0549130D01*
X0523910Y0553130D01*
X0523910Y0538130D02*
X0519910Y0538130D01*
X0523910Y0538130D02*
X0527910Y0542130D01*
X0527910Y0534130D01*
X0523910Y0538130D01*
X0528910Y0488130D02*
X0524910Y0488130D01*
X0528910Y0488130D02*
X0532910Y0492130D01*
X0532910Y0484130D01*
X0528910Y0488130D01*
X0528910Y0478130D02*
X0524910Y0478130D01*
X0528910Y0478130D02*
X0532910Y0482130D01*
X0532910Y0474130D01*
X0528910Y0478130D01*
X0483910Y0658130D02*
X0479910Y0658130D01*
X0483910Y0658130D02*
X0487910Y0662130D01*
X0487910Y0654130D01*
X0483910Y0658130D01*
X0483910Y0648130D02*
X0479910Y0648130D01*
X0483910Y0648130D02*
X0487910Y0652130D01*
X0487910Y0644130D01*
X0483910Y0648130D01*
X0483910Y0638130D02*
X0479910Y0638130D01*
X0483910Y0638130D02*
X0487910Y0642130D01*
X0487910Y0634130D01*
X0483910Y0638130D01*
X0483910Y0628130D02*
X0479910Y0628130D01*
X0483910Y0628130D02*
X0487910Y0632130D01*
X0487910Y0624130D01*
X0483910Y0628130D01*
X0483910Y0618130D02*
X0479910Y0618130D01*
X0483910Y0618130D02*
X0487910Y0622130D01*
X0487910Y0614130D01*
X0483910Y0618130D01*
X0483910Y0608130D02*
X0479910Y0608130D01*
X0483910Y0608130D02*
X0487910Y0612130D01*
X0487910Y0604130D01*
X0483910Y0608130D01*
X0483910Y0598130D02*
X0479910Y0598130D01*
X0483910Y0598130D02*
X0487910Y0602130D01*
X0487910Y0594130D01*
X0483910Y0598130D01*
X0483910Y0588130D02*
X0479910Y0588130D01*
X0483910Y0588130D02*
X0487910Y0592130D01*
X0487910Y0584130D01*
X0483910Y0588130D01*
X0483910Y0578130D02*
X0479910Y0578130D01*
X0483910Y0578130D02*
X0487910Y0582130D01*
X0487910Y0574130D01*
X0483910Y0578130D01*
X0483910Y0568130D02*
X0479910Y0568130D01*
X0483910Y0568130D02*
X0487910Y0572130D01*
X0487910Y0564130D01*
X0483910Y0568130D01*
X0498910Y0518130D02*
X0494910Y0518130D01*
X0498910Y0518130D02*
X0502910Y0522130D01*
X0502910Y0514130D01*
X0498910Y0518130D01*
X0503910Y0510630D02*
X0499910Y0510630D01*
X0503910Y0510630D02*
X0507910Y0514630D01*
X0507910Y0506630D01*
X0503910Y0510630D01*
X0508910Y0518130D02*
X0504910Y0518130D01*
X0508910Y0518130D02*
X0512910Y0522130D01*
X0512910Y0514130D01*
X0508910Y0518130D01*
X0513910Y0568130D02*
X0509910Y0568130D01*
X0513910Y0568130D02*
X0517910Y0572130D01*
X0517910Y0564130D01*
X0513910Y0568130D01*
X0513910Y0578130D02*
X0509910Y0578130D01*
X0513910Y0578130D02*
X0517910Y0582130D01*
X0517910Y0574130D01*
X0513910Y0578130D01*
X0513910Y0588130D02*
X0509910Y0588130D01*
X0513910Y0588130D02*
X0517910Y0592130D01*
X0517910Y0584130D01*
X0513910Y0588130D01*
X0513910Y0598130D02*
X0509910Y0598130D01*
X0513910Y0598130D02*
X0517910Y0602130D01*
X0517910Y0594130D01*
X0513910Y0598130D01*
X0513910Y0608130D02*
X0509910Y0608130D01*
X0513910Y0608130D02*
X0517910Y0612130D01*
X0517910Y0604130D01*
X0513910Y0608130D01*
X0513910Y0618130D02*
X0509910Y0618130D01*
X0513910Y0618130D02*
X0517910Y0622130D01*
X0517910Y0614130D01*
X0513910Y0618130D01*
X0513910Y0628130D02*
X0509910Y0628130D01*
X0513910Y0628130D02*
X0517910Y0632130D01*
X0517910Y0624130D01*
X0513910Y0628130D01*
X0513910Y0638130D02*
X0509910Y0638130D01*
X0513910Y0638130D02*
X0517910Y0642130D01*
X0517910Y0634130D01*
X0513910Y0638130D01*
X0513910Y0648130D02*
X0509910Y0648130D01*
X0513910Y0648130D02*
X0517910Y0652130D01*
X0517910Y0644130D01*
X0513910Y0648130D01*
X0513910Y0658130D02*
X0509910Y0658130D01*
X0513910Y0658130D02*
X0517910Y0662130D01*
X0517910Y0654130D01*
X0513910Y0658130D01*
X0513910Y0668130D02*
X0509910Y0668130D01*
X0513910Y0668130D02*
X0517910Y0672130D01*
X0517910Y0664130D01*
X0513910Y0668130D01*
X0513910Y0678130D02*
X0509910Y0678130D01*
X0513910Y0678130D02*
X0517910Y0682130D01*
X0517910Y0674130D01*
X0513910Y0678130D01*
X0513910Y0688130D02*
X0509910Y0688130D01*
X0513910Y0688130D02*
X0517910Y0692130D01*
X0517910Y0684130D01*
X0513910Y0688130D01*
X0513910Y0698130D02*
X0509910Y0698130D01*
X0513910Y0698130D02*
X0517910Y0702130D01*
X0517910Y0694130D01*
X0513910Y0698130D01*
X0503910Y0763130D02*
X0499910Y0763130D01*
X0503910Y0763130D02*
X0507910Y0767130D01*
X0507910Y0759130D01*
X0503910Y0763130D01*
X0503910Y0773130D02*
X0499910Y0773130D01*
X0503910Y0773130D02*
X0507910Y0777130D01*
X0507910Y0769130D01*
X0503910Y0773130D01*
X0483910Y0773130D02*
X0479910Y0773130D01*
X0483910Y0773130D02*
X0487910Y0777130D01*
X0487910Y0769130D01*
X0483910Y0773130D01*
X0483910Y0763130D02*
X0479910Y0763130D01*
X0483910Y0763130D02*
X0487910Y0767130D01*
X0487910Y0759130D01*
X0483910Y0763130D01*
X0483910Y0698130D02*
X0479910Y0698130D01*
X0483910Y0698130D02*
X0487910Y0702130D01*
X0487910Y0694130D01*
X0483910Y0698130D01*
X0483910Y0688130D02*
X0479910Y0688130D01*
X0483910Y0688130D02*
X0487910Y0692130D01*
X0487910Y0684130D01*
X0483910Y0688130D01*
X0483910Y0678130D02*
X0479910Y0678130D01*
X0483910Y0678130D02*
X0487910Y0682130D01*
X0487910Y0674130D01*
X0483910Y0678130D01*
X0483910Y0668130D02*
X0479910Y0668130D01*
X0483910Y0668130D02*
X0487910Y0672130D01*
X0487910Y0664130D01*
X0483910Y0668130D01*
X0523910Y0763130D02*
X0519910Y0763130D01*
X0523910Y0763130D02*
X0527910Y0767130D01*
X0527910Y0759130D01*
X0523910Y0763130D01*
X0523910Y0773130D02*
X0519910Y0773130D01*
X0523910Y0773130D02*
X0527910Y0777130D01*
X0527910Y0769130D01*
X0523910Y0773130D01*
X0523910Y0463130D02*
X0519910Y0463130D01*
X0523910Y0463130D02*
X0527910Y0467130D01*
X0527910Y0459130D01*
X0523910Y0463130D01*
X0523910Y0453130D02*
X0519910Y0453130D01*
X0523910Y0453130D02*
X0527910Y0457130D01*
X0527910Y0449130D01*
X0523910Y0453130D01*
X0531410Y0458130D02*
X0527410Y0458130D01*
X0531410Y0458130D02*
X0535410Y0462130D01*
X0535410Y0454130D01*
X0531410Y0458130D01*
X0468910Y0453130D02*
X0464910Y0453130D01*
X0468910Y0453130D02*
X0472910Y0457130D01*
X0472910Y0449130D01*
X0468910Y0453130D01*
X0468910Y0463130D02*
X0464910Y0463130D01*
X0468910Y0463130D02*
X0472910Y0467130D01*
X0472910Y0459130D01*
X0468910Y0463130D01*
X0452730Y0660630D02*
X0448730Y0660630D01*
X0452730Y0660630D02*
X0456730Y0664630D01*
X0456730Y0656630D01*
X0452730Y0660630D01*
X0452730Y0671630D02*
X0448730Y0671630D01*
X0452730Y0671630D02*
X0456730Y0675630D01*
X0456730Y0667630D01*
X0452730Y0671630D01*
X0445100Y0666630D02*
X0441100Y0666630D01*
X0445100Y0666630D02*
X0449100Y0670630D01*
X0449100Y0662630D01*
X0445100Y0666630D01*
X0445100Y0654630D02*
X0441100Y0654630D01*
X0445100Y0654630D02*
X0449100Y0658630D01*
X0449100Y0650630D01*
X0445100Y0654630D01*
X0595370Y0498130D02*
X0591370Y0498130D01*
X0595370Y0498130D02*
X0599370Y0502130D01*
X0599370Y0494130D01*
X0595370Y0498130D01*
X0605370Y0498130D02*
X0601370Y0498130D01*
X0605370Y0498130D02*
X0609370Y0502130D01*
X0609370Y0494130D01*
X0605370Y0498130D01*
X0610370Y0488130D02*
X0606370Y0488130D01*
X0610370Y0488130D02*
X0614370Y0492130D01*
X0614370Y0484130D01*
X0610370Y0488130D01*
X0610370Y0478130D02*
X0606370Y0478130D01*
X0610370Y0478130D02*
X0614370Y0482130D01*
X0614370Y0474130D01*
X0610370Y0478130D01*
X0605370Y0528130D02*
X0601370Y0528130D01*
X0605370Y0528130D02*
X0609370Y0532130D01*
X0609370Y0524130D01*
X0605370Y0528130D01*
X0605370Y0538130D02*
X0601370Y0538130D01*
X0605370Y0538130D02*
X0609370Y0542130D01*
X0609370Y0534130D01*
X0605370Y0538130D01*
X0605370Y0553130D02*
X0601370Y0553130D01*
X0605370Y0553130D02*
X0609370Y0557130D01*
X0609370Y0549130D01*
X0605370Y0553130D01*
X0595370Y0528130D02*
X0591370Y0528130D01*
X0595370Y0528130D02*
X0599370Y0532130D01*
X0599370Y0524130D01*
X0595370Y0528130D01*
X0590370Y0593130D02*
X0586370Y0593130D01*
X0590370Y0593130D02*
X0594370Y0597130D01*
X0594370Y0589130D01*
X0590370Y0593130D01*
X0590370Y0633130D02*
X0586370Y0633130D01*
X0590370Y0633130D02*
X0594370Y0637130D01*
X0594370Y0629130D01*
X0590370Y0633130D01*
X0590370Y0643130D02*
X0586370Y0643130D01*
X0590370Y0643130D02*
X0594370Y0647130D01*
X0594370Y0639130D01*
X0590370Y0643130D01*
X0590370Y0683130D02*
X0586370Y0683130D01*
X0590370Y0683130D02*
X0594370Y0687130D01*
X0594370Y0679130D01*
X0590370Y0683130D01*
X0590370Y0693130D02*
X0586370Y0693130D01*
X0590370Y0693130D02*
X0594370Y0697130D01*
X0594370Y0689130D01*
X0590370Y0693130D01*
X0590370Y0733130D02*
X0586370Y0733130D01*
X0590370Y0733130D02*
X0594370Y0737130D01*
X0594370Y0729130D01*
X0590370Y0733130D01*
X0605370Y0713130D02*
X0601370Y0713130D01*
X0605370Y0713130D02*
X0609370Y0717130D01*
X0609370Y0709130D01*
X0605370Y0713130D01*
X0605370Y0753130D02*
X0601370Y0753130D01*
X0605370Y0753130D02*
X0609370Y0757130D01*
X0609370Y0749130D01*
X0605370Y0753130D01*
X0625370Y0753130D02*
X0621370Y0753130D01*
X0625370Y0753130D02*
X0629370Y0757130D01*
X0629370Y0749130D01*
X0625370Y0753130D01*
X0625370Y0713130D02*
X0621370Y0713130D01*
X0625370Y0713130D02*
X0629370Y0717130D01*
X0629370Y0709130D01*
X0625370Y0713130D01*
X0645370Y0713130D02*
X0641370Y0713130D01*
X0645370Y0713130D02*
X0649370Y0717130D01*
X0649370Y0709130D01*
X0645370Y0713130D01*
X0645370Y0753130D02*
X0641370Y0753130D01*
X0645370Y0753130D02*
X0649370Y0757130D01*
X0649370Y0749130D01*
X0645370Y0753130D01*
X0645370Y0553130D02*
X0641370Y0553130D01*
X0645370Y0553130D02*
X0649370Y0557130D01*
X0649370Y0549130D01*
X0645370Y0553130D01*
X0645370Y0538130D02*
X0641370Y0538130D01*
X0645370Y0538130D02*
X0649370Y0542130D01*
X0649370Y0534130D01*
X0645370Y0538130D01*
X0650370Y0488130D02*
X0646370Y0488130D01*
X0650370Y0488130D02*
X0654370Y0492130D01*
X0654370Y0484130D01*
X0650370Y0488130D01*
X0650370Y0478130D02*
X0646370Y0478130D01*
X0650370Y0478130D02*
X0654370Y0482130D01*
X0654370Y0474130D01*
X0650370Y0478130D01*
X0605370Y0658130D02*
X0601370Y0658130D01*
X0605370Y0658130D02*
X0609370Y0662130D01*
X0609370Y0654130D01*
X0605370Y0658130D01*
X0605370Y0648130D02*
X0601370Y0648130D01*
X0605370Y0648130D02*
X0609370Y0652130D01*
X0609370Y0644130D01*
X0605370Y0648130D01*
X0605370Y0638130D02*
X0601370Y0638130D01*
X0605370Y0638130D02*
X0609370Y0642130D01*
X0609370Y0634130D01*
X0605370Y0638130D01*
X0605370Y0628130D02*
X0601370Y0628130D01*
X0605370Y0628130D02*
X0609370Y0632130D01*
X0609370Y0624130D01*
X0605370Y0628130D01*
X0605370Y0618130D02*
X0601370Y0618130D01*
X0605370Y0618130D02*
X0609370Y0622130D01*
X0609370Y0614130D01*
X0605370Y0618130D01*
X0605370Y0608130D02*
X0601370Y0608130D01*
X0605370Y0608130D02*
X0609370Y0612130D01*
X0609370Y0604130D01*
X0605370Y0608130D01*
X0605370Y0598130D02*
X0601370Y0598130D01*
X0605370Y0598130D02*
X0609370Y0602130D01*
X0609370Y0594130D01*
X0605370Y0598130D01*
X0605370Y0588130D02*
X0601370Y0588130D01*
X0605370Y0588130D02*
X0609370Y0592130D01*
X0609370Y0584130D01*
X0605370Y0588130D01*
X0605370Y0578130D02*
X0601370Y0578130D01*
X0605370Y0578130D02*
X0609370Y0582130D01*
X0609370Y0574130D01*
X0605370Y0578130D01*
X0605370Y0568130D02*
X0601370Y0568130D01*
X0605370Y0568130D02*
X0609370Y0572130D01*
X0609370Y0564130D01*
X0605370Y0568130D01*
X0620370Y0518130D02*
X0616370Y0518130D01*
X0620370Y0518130D02*
X0624370Y0522130D01*
X0624370Y0514130D01*
X0620370Y0518130D01*
X0625370Y0510630D02*
X0621370Y0510630D01*
X0625370Y0510630D02*
X0629370Y0514630D01*
X0629370Y0506630D01*
X0625370Y0510630D01*
X0630370Y0518130D02*
X0626370Y0518130D01*
X0630370Y0518130D02*
X0634370Y0522130D01*
X0634370Y0514130D01*
X0630370Y0518130D01*
X0635370Y0568130D02*
X0631370Y0568130D01*
X0635370Y0568130D02*
X0639370Y0572130D01*
X0639370Y0564130D01*
X0635370Y0568130D01*
X0635370Y0578130D02*
X0631370Y0578130D01*
X0635370Y0578130D02*
X0639370Y0582130D01*
X0639370Y0574130D01*
X0635370Y0578130D01*
X0635370Y0588130D02*
X0631370Y0588130D01*
X0635370Y0588130D02*
X0639370Y0592130D01*
X0639370Y0584130D01*
X0635370Y0588130D01*
X0635370Y0598130D02*
X0631370Y0598130D01*
X0635370Y0598130D02*
X0639370Y0602130D01*
X0639370Y0594130D01*
X0635370Y0598130D01*
X0635370Y0608130D02*
X0631370Y0608130D01*
X0635370Y0608130D02*
X0639370Y0612130D01*
X0639370Y0604130D01*
X0635370Y0608130D01*
X0635370Y0618130D02*
X0631370Y0618130D01*
X0635370Y0618130D02*
X0639370Y0622130D01*
X0639370Y0614130D01*
X0635370Y0618130D01*
X0635370Y0628130D02*
X0631370Y0628130D01*
X0635370Y0628130D02*
X0639370Y0632130D01*
X0639370Y0624130D01*
X0635370Y0628130D01*
X0635370Y0638130D02*
X0631370Y0638130D01*
X0635370Y0638130D02*
X0639370Y0642130D01*
X0639370Y0634130D01*
X0635370Y0638130D01*
X0635370Y0648130D02*
X0631370Y0648130D01*
X0635370Y0648130D02*
X0639370Y0652130D01*
X0639370Y0644130D01*
X0635370Y0648130D01*
X0635370Y0658130D02*
X0631370Y0658130D01*
X0635370Y0658130D02*
X0639370Y0662130D01*
X0639370Y0654130D01*
X0635370Y0658130D01*
X0635370Y0668130D02*
X0631370Y0668130D01*
X0635370Y0668130D02*
X0639370Y0672130D01*
X0639370Y0664130D01*
X0635370Y0668130D01*
X0635370Y0678130D02*
X0631370Y0678130D01*
X0635370Y0678130D02*
X0639370Y0682130D01*
X0639370Y0674130D01*
X0635370Y0678130D01*
X0635370Y0688130D02*
X0631370Y0688130D01*
X0635370Y0688130D02*
X0639370Y0692130D01*
X0639370Y0684130D01*
X0635370Y0688130D01*
X0635370Y0698130D02*
X0631370Y0698130D01*
X0635370Y0698130D02*
X0639370Y0702130D01*
X0639370Y0694130D01*
X0635370Y0698130D01*
X0625370Y0763130D02*
X0621370Y0763130D01*
X0625370Y0763130D02*
X0629370Y0767130D01*
X0629370Y0759130D01*
X0625370Y0763130D01*
X0625370Y0773130D02*
X0621370Y0773130D01*
X0625370Y0773130D02*
X0629370Y0777130D01*
X0629370Y0769130D01*
X0625370Y0773130D01*
X0605370Y0773130D02*
X0601370Y0773130D01*
X0605370Y0773130D02*
X0609370Y0777130D01*
X0609370Y0769130D01*
X0605370Y0773130D01*
X0605370Y0763130D02*
X0601370Y0763130D01*
X0605370Y0763130D02*
X0609370Y0767130D01*
X0609370Y0759130D01*
X0605370Y0763130D01*
X0605370Y0698130D02*
X0601370Y0698130D01*
X0605370Y0698130D02*
X0609370Y0702130D01*
X0609370Y0694130D01*
X0605370Y0698130D01*
X0605370Y0688130D02*
X0601370Y0688130D01*
X0605370Y0688130D02*
X0609370Y0692130D01*
X0609370Y0684130D01*
X0605370Y0688130D01*
X0605370Y0678130D02*
X0601370Y0678130D01*
X0605370Y0678130D02*
X0609370Y0682130D01*
X0609370Y0674130D01*
X0605370Y0678130D01*
X0605370Y0668130D02*
X0601370Y0668130D01*
X0605370Y0668130D02*
X0609370Y0672130D01*
X0609370Y0664130D01*
X0605370Y0668130D01*
X0645370Y0763130D02*
X0641370Y0763130D01*
X0645370Y0763130D02*
X0649370Y0767130D01*
X0649370Y0759130D01*
X0645370Y0763130D01*
X0645370Y0773130D02*
X0641370Y0773130D01*
X0645370Y0773130D02*
X0649370Y0777130D01*
X0649370Y0769130D01*
X0645370Y0773130D01*
X0645370Y0463130D02*
X0641370Y0463130D01*
X0645370Y0463130D02*
X0649370Y0467130D01*
X0649370Y0459130D01*
X0645370Y0463130D01*
X0645370Y0453130D02*
X0641370Y0453130D01*
X0645370Y0453130D02*
X0649370Y0457130D01*
X0649370Y0449130D01*
X0645370Y0453130D01*
X0652870Y0458130D02*
X0648870Y0458130D01*
X0652870Y0458130D02*
X0656870Y0462130D01*
X0656870Y0454130D01*
X0652870Y0458130D01*
X0590370Y0453130D02*
X0586370Y0453130D01*
X0590370Y0453130D02*
X0594370Y0457130D01*
X0594370Y0449130D01*
X0590370Y0453130D01*
X0590370Y0463130D02*
X0586370Y0463130D01*
X0590370Y0463130D02*
X0594370Y0467130D01*
X0594370Y0459130D01*
X0590370Y0463130D01*
X0574190Y0660630D02*
X0570190Y0660630D01*
X0574190Y0660630D02*
X0578190Y0664630D01*
X0578190Y0656630D01*
X0574190Y0660630D01*
X0574190Y0671630D02*
X0570190Y0671630D01*
X0574190Y0671630D02*
X0578190Y0675630D01*
X0578190Y0667630D01*
X0574190Y0671630D01*
X0566560Y0666630D02*
X0562560Y0666630D01*
X0566560Y0666630D02*
X0570560Y0670630D01*
X0570560Y0662630D01*
X0566560Y0666630D01*
X0566560Y0654630D02*
X0562560Y0654630D01*
X0566560Y0654630D02*
X0570560Y0658630D01*
X0570560Y0650630D01*
X0566560Y0654630D01*
X0114960Y0033750D02*
X0118960Y0033750D01*
X0114960Y0033750D02*
X0110960Y0037750D01*
X0110960Y0029750D01*
X0114960Y0033750D01*
X0104960Y0033750D02*
X0108960Y0033750D01*
X0104960Y0033750D02*
X0100960Y0037750D01*
X0100960Y0029750D01*
X0104960Y0033750D01*
X0104960Y0063250D02*
X0108960Y0063250D01*
X0104960Y0063250D02*
X0100960Y0067250D01*
X0100960Y0059250D01*
X0104960Y0063250D01*
X0114960Y0064250D02*
X0118960Y0064250D01*
X0114960Y0064250D02*
X0110960Y0068250D01*
X0110960Y0060250D01*
X0114960Y0064250D01*
X0094960Y0064250D02*
X0098960Y0064250D01*
X0094960Y0064250D02*
X0090960Y0068250D01*
X0090960Y0060250D01*
X0094960Y0064250D01*
X0094960Y0033750D02*
X0098960Y0033750D01*
X0094960Y0033750D02*
X0090960Y0037750D01*
X0090960Y0029750D01*
X0094960Y0033750D01*
X0119960Y0148050D02*
X0123960Y0148050D01*
X0119960Y0148050D02*
X0115960Y0152050D01*
X0115960Y0144050D01*
X0119960Y0148050D01*
X0119960Y0159450D02*
X0123960Y0159450D01*
X0119960Y0159450D02*
X0115960Y0163450D01*
X0115960Y0155450D01*
X0119960Y0159450D01*
X0119960Y0203750D02*
X0123960Y0203750D01*
X0119960Y0203750D02*
X0115960Y0207750D01*
X0115960Y0199750D01*
X0119960Y0203750D01*
X0120960Y0213750D02*
X0124960Y0213750D01*
X0120960Y0213750D02*
X0116960Y0217750D01*
X0116960Y0209750D01*
X0120960Y0213750D01*
X0119960Y0223750D02*
X0123960Y0223750D01*
X0119960Y0223750D02*
X0115960Y0227750D01*
X0115960Y0219750D01*
X0119960Y0223750D01*
X0120960Y0233750D02*
X0124960Y0233750D01*
X0120960Y0233750D02*
X0116960Y0237750D01*
X0116960Y0229750D01*
X0120960Y0233750D01*
X0119960Y0243750D02*
X0123960Y0243750D01*
X0119960Y0243750D02*
X0115960Y0247750D01*
X0115960Y0239750D01*
X0119960Y0243750D01*
X0120960Y0253750D02*
X0124960Y0253750D01*
X0120960Y0253750D02*
X0116960Y0257750D01*
X0116960Y0249750D01*
X0120960Y0253750D01*
X0119460Y0268750D02*
X0123460Y0268750D01*
X0119460Y0268750D02*
X0115460Y0272750D01*
X0115460Y0264750D01*
X0119460Y0268750D01*
X0120460Y0278750D02*
X0124460Y0278750D01*
X0120460Y0278750D02*
X0116460Y0282750D01*
X0116460Y0274750D01*
X0120460Y0278750D01*
X0119460Y0288750D02*
X0123460Y0288750D01*
X0119460Y0288750D02*
X0115460Y0292750D01*
X0115460Y0284750D01*
X0119460Y0288750D01*
X0119960Y0303050D02*
X0123960Y0303050D01*
X0119960Y0303050D02*
X0115960Y0307050D01*
X0115960Y0299050D01*
X0119960Y0303050D01*
X0119960Y0314450D02*
X0123960Y0314450D01*
X0119960Y0314450D02*
X0115960Y0318450D01*
X0115960Y0310450D01*
X0119960Y0314450D01*
X0033750Y0448950D02*
X0037750Y0448950D01*
X0033750Y0448950D02*
X0029750Y0452950D01*
X0029750Y0444950D01*
X0033750Y0448950D01*
X0033750Y0458950D02*
X0037750Y0458950D01*
X0033750Y0458950D02*
X0029750Y0462950D01*
X0029750Y0454950D01*
X0033750Y0458950D01*
X0063250Y0458950D02*
X0067250Y0458950D01*
X0063250Y0458950D02*
X0059250Y0462950D01*
X0059250Y0454950D01*
X0063250Y0458950D01*
X0064250Y0448950D02*
X0068250Y0448950D01*
X0064250Y0448950D02*
X0060250Y0452950D01*
X0060250Y0444950D01*
X0064250Y0448950D01*
X0064250Y0468950D02*
X0068250Y0468950D01*
X0064250Y0468950D02*
X0060250Y0472950D01*
X0060250Y0464950D01*
X0064250Y0468950D01*
X0033750Y0468950D02*
X0037750Y0468950D01*
X0033750Y0468950D02*
X0029750Y0472950D01*
X0029750Y0464950D01*
X0033750Y0468950D01*
X0148050Y0443950D02*
X0152050Y0443950D01*
X0148050Y0443950D02*
X0144050Y0447950D01*
X0144050Y0439950D01*
X0148050Y0443950D01*
X0159450Y0443950D02*
X0163450Y0443950D01*
X0159450Y0443950D02*
X0155450Y0447950D01*
X0155450Y0439950D01*
X0159450Y0443950D01*
X0203750Y0443950D02*
X0207750Y0443950D01*
X0203750Y0443950D02*
X0199750Y0447950D01*
X0199750Y0439950D01*
X0203750Y0443950D01*
X0213750Y0442950D02*
X0217750Y0442950D01*
X0213750Y0442950D02*
X0209750Y0446950D01*
X0209750Y0438950D01*
X0213750Y0442950D01*
X0223750Y0443950D02*
X0227750Y0443950D01*
X0223750Y0443950D02*
X0219750Y0447950D01*
X0219750Y0439950D01*
X0223750Y0443950D01*
X0233750Y0442950D02*
X0237750Y0442950D01*
X0233750Y0442950D02*
X0229750Y0446950D01*
X0229750Y0438950D01*
X0233750Y0442950D01*
X0243750Y0443950D02*
X0247750Y0443950D01*
X0243750Y0443950D02*
X0239750Y0447950D01*
X0239750Y0439950D01*
X0243750Y0443950D01*
X0253750Y0442950D02*
X0257750Y0442950D01*
X0253750Y0442950D02*
X0249750Y0446950D01*
X0249750Y0438950D01*
X0253750Y0442950D01*
X0268750Y0444450D02*
X0272750Y0444450D01*
X0268750Y0444450D02*
X0264750Y0448450D01*
X0264750Y0440450D01*
X0268750Y0444450D01*
X0278750Y0443450D02*
X0282750Y0443450D01*
X0278750Y0443450D02*
X0274750Y0447450D01*
X0274750Y0439450D01*
X0278750Y0443450D01*
X0288750Y0444450D02*
X0292750Y0444450D01*
X0288750Y0444450D02*
X0284750Y0448450D01*
X0284750Y0440450D01*
X0288750Y0444450D01*
X0303050Y0443950D02*
X0307050Y0443950D01*
X0303050Y0443950D02*
X0299050Y0447950D01*
X0299050Y0439950D01*
X0303050Y0443950D01*
X0314450Y0443950D02*
X0318450Y0443950D01*
X0314450Y0443950D02*
X0310450Y0447950D01*
X0310450Y0439950D01*
X0314450Y0443950D01*
X0236420Y0033750D02*
X0240420Y0033750D01*
X0236420Y0033750D02*
X0232420Y0037750D01*
X0232420Y0029750D01*
X0236420Y0033750D01*
X0226420Y0033750D02*
X0230420Y0033750D01*
X0226420Y0033750D02*
X0222420Y0037750D01*
X0222420Y0029750D01*
X0226420Y0033750D01*
X0226420Y0063250D02*
X0230420Y0063250D01*
X0226420Y0063250D02*
X0222420Y0067250D01*
X0222420Y0059250D01*
X0226420Y0063250D01*
X0236420Y0064250D02*
X0240420Y0064250D01*
X0236420Y0064250D02*
X0232420Y0068250D01*
X0232420Y0060250D01*
X0236420Y0064250D01*
X0216420Y0064250D02*
X0220420Y0064250D01*
X0216420Y0064250D02*
X0212420Y0068250D01*
X0212420Y0060250D01*
X0216420Y0064250D01*
X0216420Y0033750D02*
X0220420Y0033750D01*
X0216420Y0033750D02*
X0212420Y0037750D01*
X0212420Y0029750D01*
X0216420Y0033750D01*
X0241420Y0148050D02*
X0245420Y0148050D01*
X0241420Y0148050D02*
X0237420Y0152050D01*
X0237420Y0144050D01*
X0241420Y0148050D01*
X0241420Y0159450D02*
X0245420Y0159450D01*
X0241420Y0159450D02*
X0237420Y0163450D01*
X0237420Y0155450D01*
X0241420Y0159450D01*
X0241420Y0203750D02*
X0245420Y0203750D01*
X0241420Y0203750D02*
X0237420Y0207750D01*
X0237420Y0199750D01*
X0241420Y0203750D01*
X0242420Y0213750D02*
X0246420Y0213750D01*
X0242420Y0213750D02*
X0238420Y0217750D01*
X0238420Y0209750D01*
X0242420Y0213750D01*
X0241420Y0223750D02*
X0245420Y0223750D01*
X0241420Y0223750D02*
X0237420Y0227750D01*
X0237420Y0219750D01*
X0241420Y0223750D01*
X0242420Y0233750D02*
X0246420Y0233750D01*
X0242420Y0233750D02*
X0238420Y0237750D01*
X0238420Y0229750D01*
X0242420Y0233750D01*
X0241420Y0243750D02*
X0245420Y0243750D01*
X0241420Y0243750D02*
X0237420Y0247750D01*
X0237420Y0239750D01*
X0241420Y0243750D01*
X0242420Y0253750D02*
X0246420Y0253750D01*
X0242420Y0253750D02*
X0238420Y0257750D01*
X0238420Y0249750D01*
X0242420Y0253750D01*
X0240920Y0268750D02*
X0244920Y0268750D01*
X0240920Y0268750D02*
X0236920Y0272750D01*
X0236920Y0264750D01*
X0240920Y0268750D01*
X0241920Y0278750D02*
X0245920Y0278750D01*
X0241920Y0278750D02*
X0237920Y0282750D01*
X0237920Y0274750D01*
X0241920Y0278750D01*
X0240920Y0288750D02*
X0244920Y0288750D01*
X0240920Y0288750D02*
X0236920Y0292750D01*
X0236920Y0284750D01*
X0240920Y0288750D01*
X0241420Y0303050D02*
X0245420Y0303050D01*
X0241420Y0303050D02*
X0237420Y0307050D01*
X0237420Y0299050D01*
X0241420Y0303050D01*
X0241420Y0314450D02*
X0245420Y0314450D01*
X0241420Y0314450D02*
X0237420Y0318450D01*
X0237420Y0310450D01*
X0241420Y0314450D01*
X0033750Y0570410D02*
X0037750Y0570410D01*
X0033750Y0570410D02*
X0029750Y0574410D01*
X0029750Y0566410D01*
X0033750Y0570410D01*
X0033750Y0580410D02*
X0037750Y0580410D01*
X0033750Y0580410D02*
X0029750Y0584410D01*
X0029750Y0576410D01*
X0033750Y0580410D01*
X0063250Y0580410D02*
X0067250Y0580410D01*
X0063250Y0580410D02*
X0059250Y0584410D01*
X0059250Y0576410D01*
X0063250Y0580410D01*
X0064250Y0570410D02*
X0068250Y0570410D01*
X0064250Y0570410D02*
X0060250Y0574410D01*
X0060250Y0566410D01*
X0064250Y0570410D01*
X0064250Y0590410D02*
X0068250Y0590410D01*
X0064250Y0590410D02*
X0060250Y0594410D01*
X0060250Y0586410D01*
X0064250Y0590410D01*
X0033750Y0590410D02*
X0037750Y0590410D01*
X0033750Y0590410D02*
X0029750Y0594410D01*
X0029750Y0586410D01*
X0033750Y0590410D01*
X0148050Y0565410D02*
X0152050Y0565410D01*
X0148050Y0565410D02*
X0144050Y0569410D01*
X0144050Y0561410D01*
X0148050Y0565410D01*
X0159450Y0565410D02*
X0163450Y0565410D01*
X0159450Y0565410D02*
X0155450Y0569410D01*
X0155450Y0561410D01*
X0159450Y0565410D01*
X0203750Y0565410D02*
X0207750Y0565410D01*
X0203750Y0565410D02*
X0199750Y0569410D01*
X0199750Y0561410D01*
X0203750Y0565410D01*
X0213750Y0564410D02*
X0217750Y0564410D01*
X0213750Y0564410D02*
X0209750Y0568410D01*
X0209750Y0560410D01*
X0213750Y0564410D01*
X0223750Y0565410D02*
X0227750Y0565410D01*
X0223750Y0565410D02*
X0219750Y0569410D01*
X0219750Y0561410D01*
X0223750Y0565410D01*
X0233750Y0564410D02*
X0237750Y0564410D01*
X0233750Y0564410D02*
X0229750Y0568410D01*
X0229750Y0560410D01*
X0233750Y0564410D01*
X0243750Y0565410D02*
X0247750Y0565410D01*
X0243750Y0565410D02*
X0239750Y0569410D01*
X0239750Y0561410D01*
X0243750Y0565410D01*
X0253750Y0564410D02*
X0257750Y0564410D01*
X0253750Y0564410D02*
X0249750Y0568410D01*
X0249750Y0560410D01*
X0253750Y0564410D01*
X0268750Y0565910D02*
X0272750Y0565910D01*
X0268750Y0565910D02*
X0264750Y0569910D01*
X0264750Y0561910D01*
X0268750Y0565910D01*
X0278750Y0564910D02*
X0282750Y0564910D01*
X0278750Y0564910D02*
X0274750Y0568910D01*
X0274750Y0560910D01*
X0278750Y0564910D01*
X0288750Y0565910D02*
X0292750Y0565910D01*
X0288750Y0565910D02*
X0284750Y0569910D01*
X0284750Y0561910D01*
X0288750Y0565910D01*
X0303050Y0565410D02*
X0307050Y0565410D01*
X0303050Y0565410D02*
X0299050Y0569410D01*
X0299050Y0561410D01*
X0303050Y0565410D01*
X0314450Y0565410D02*
X0318450Y0565410D01*
X0314450Y0565410D02*
X0310450Y0569410D01*
X0310450Y0561410D01*
X0314450Y0565410D01*
X0276670Y0040000D02*
X0280670Y0040000D01*
X0276670Y0040000D02*
X0272670Y0044000D01*
X0272670Y0036000D01*
X0276670Y0040000D01*
X0276670Y0050000D02*
X0280670Y0050000D01*
X0276670Y0050000D02*
X0272670Y0054000D01*
X0272670Y0046000D01*
X0276670Y0050000D01*
X0306170Y0050000D02*
X0310170Y0050000D01*
X0306170Y0050000D02*
X0302170Y0054000D01*
X0302170Y0046000D01*
X0306170Y0050000D01*
X0307170Y0040000D02*
X0311170Y0040000D01*
X0307170Y0040000D02*
X0303170Y0044000D01*
X0303170Y0036000D01*
X0307170Y0040000D01*
X0307170Y0060000D02*
X0311170Y0060000D01*
X0307170Y0060000D02*
X0303170Y0064000D01*
X0303170Y0056000D01*
X0307170Y0060000D01*
X0276670Y0060000D02*
X0280670Y0060000D01*
X0276670Y0060000D02*
X0272670Y0064000D01*
X0272670Y0056000D01*
X0276670Y0060000D01*
X0390970Y0035000D02*
X0394970Y0035000D01*
X0390970Y0035000D02*
X0386970Y0039000D01*
X0386970Y0031000D01*
X0390970Y0035000D01*
X0402370Y0035000D02*
X0406370Y0035000D01*
X0402370Y0035000D02*
X0398370Y0039000D01*
X0398370Y0031000D01*
X0402370Y0035000D01*
X0446670Y0035000D02*
X0450670Y0035000D01*
X0446670Y0035000D02*
X0442670Y0039000D01*
X0442670Y0031000D01*
X0446670Y0035000D01*
X0456670Y0034000D02*
X0460670Y0034000D01*
X0456670Y0034000D02*
X0452670Y0038000D01*
X0452670Y0030000D01*
X0456670Y0034000D01*
X0466670Y0035000D02*
X0470670Y0035000D01*
X0466670Y0035000D02*
X0462670Y0039000D01*
X0462670Y0031000D01*
X0466670Y0035000D01*
X0476670Y0034000D02*
X0480670Y0034000D01*
X0476670Y0034000D02*
X0472670Y0038000D01*
X0472670Y0030000D01*
X0476670Y0034000D01*
X0486670Y0035000D02*
X0490670Y0035000D01*
X0486670Y0035000D02*
X0482670Y0039000D01*
X0482670Y0031000D01*
X0486670Y0035000D01*
X0496670Y0034000D02*
X0500670Y0034000D01*
X0496670Y0034000D02*
X0492670Y0038000D01*
X0492670Y0030000D01*
X0496670Y0034000D01*
X0511670Y0035500D02*
X0515670Y0035500D01*
X0511670Y0035500D02*
X0507670Y0039500D01*
X0507670Y0031500D01*
X0511670Y0035500D01*
X0521670Y0034500D02*
X0525670Y0034500D01*
X0521670Y0034500D02*
X0517670Y0038500D01*
X0517670Y0030500D01*
X0521670Y0034500D01*
X0531670Y0035500D02*
X0535670Y0035500D01*
X0531670Y0035500D02*
X0527670Y0039500D01*
X0527670Y0031500D01*
X0531670Y0035500D01*
X0545970Y0035000D02*
X0549970Y0035000D01*
X0545970Y0035000D02*
X0541970Y0039000D01*
X0541970Y0031000D01*
X0545970Y0035000D01*
X0557370Y0035000D02*
X0561370Y0035000D01*
X0557370Y0035000D02*
X0553370Y0039000D01*
X0553370Y0031000D01*
X0557370Y0035000D01*
X0276670Y0161460D02*
X0280670Y0161460D01*
X0276670Y0161460D02*
X0272670Y0165460D01*
X0272670Y0157460D01*
X0276670Y0161460D01*
X0276670Y0171460D02*
X0280670Y0171460D01*
X0276670Y0171460D02*
X0272670Y0175460D01*
X0272670Y0167460D01*
X0276670Y0171460D01*
X0306170Y0171460D02*
X0310170Y0171460D01*
X0306170Y0171460D02*
X0302170Y0175460D01*
X0302170Y0167460D01*
X0306170Y0171460D01*
X0307170Y0161460D02*
X0311170Y0161460D01*
X0307170Y0161460D02*
X0303170Y0165460D01*
X0303170Y0157460D01*
X0307170Y0161460D01*
X0307170Y0181460D02*
X0311170Y0181460D01*
X0307170Y0181460D02*
X0303170Y0185460D01*
X0303170Y0177460D01*
X0307170Y0181460D01*
X0276670Y0181460D02*
X0280670Y0181460D01*
X0276670Y0181460D02*
X0272670Y0185460D01*
X0272670Y0177460D01*
X0276670Y0181460D01*
X0390970Y0156460D02*
X0394970Y0156460D01*
X0390970Y0156460D02*
X0386970Y0160460D01*
X0386970Y0152460D01*
X0390970Y0156460D01*
X0402370Y0156460D02*
X0406370Y0156460D01*
X0402370Y0156460D02*
X0398370Y0160460D01*
X0398370Y0152460D01*
X0402370Y0156460D01*
X0446670Y0156460D02*
X0450670Y0156460D01*
X0446670Y0156460D02*
X0442670Y0160460D01*
X0442670Y0152460D01*
X0446670Y0156460D01*
X0456670Y0155460D02*
X0460670Y0155460D01*
X0456670Y0155460D02*
X0452670Y0159460D01*
X0452670Y0151460D01*
X0456670Y0155460D01*
X0466670Y0156460D02*
X0470670Y0156460D01*
X0466670Y0156460D02*
X0462670Y0160460D01*
X0462670Y0152460D01*
X0466670Y0156460D01*
X0476670Y0155460D02*
X0480670Y0155460D01*
X0476670Y0155460D02*
X0472670Y0159460D01*
X0472670Y0151460D01*
X0476670Y0155460D01*
X0486670Y0156460D02*
X0490670Y0156460D01*
X0486670Y0156460D02*
X0482670Y0160460D01*
X0482670Y0152460D01*
X0486670Y0156460D01*
X0496670Y0155460D02*
X0500670Y0155460D01*
X0496670Y0155460D02*
X0492670Y0159460D01*
X0492670Y0151460D01*
X0496670Y0155460D01*
X0511670Y0156960D02*
X0515670Y0156960D01*
X0511670Y0156960D02*
X0507670Y0160960D01*
X0507670Y0152960D01*
X0511670Y0156960D01*
X0521670Y0155960D02*
X0525670Y0155960D01*
X0521670Y0155960D02*
X0517670Y0159960D01*
X0517670Y0151960D01*
X0521670Y0155960D01*
X0531670Y0156960D02*
X0535670Y0156960D01*
X0531670Y0156960D02*
X0527670Y0160960D01*
X0527670Y0152960D01*
X0531670Y0156960D01*
X0545970Y0156460D02*
X0549970Y0156460D01*
X0545970Y0156460D02*
X0541970Y0160460D01*
X0541970Y0152460D01*
X0545970Y0156460D01*
X0557370Y0156460D02*
X0561370Y0156460D01*
X0557370Y0156460D02*
X0553370Y0160460D01*
X0553370Y0152460D01*
X0557370Y0156460D01*
X0276670Y0282920D02*
X0280670Y0282920D01*
X0276670Y0282920D02*
X0272670Y0286920D01*
X0272670Y0278920D01*
X0276670Y0282920D01*
X0276670Y0292920D02*
X0280670Y0292920D01*
X0276670Y0292920D02*
X0272670Y0296920D01*
X0272670Y0288920D01*
X0276670Y0292920D01*
X0306170Y0292920D02*
X0310170Y0292920D01*
X0306170Y0292920D02*
X0302170Y0296920D01*
X0302170Y0288920D01*
X0306170Y0292920D01*
X0307170Y0282920D02*
X0311170Y0282920D01*
X0307170Y0282920D02*
X0303170Y0286920D01*
X0303170Y0278920D01*
X0307170Y0282920D01*
X0307170Y0302920D02*
X0311170Y0302920D01*
X0307170Y0302920D02*
X0303170Y0306920D01*
X0303170Y0298920D01*
X0307170Y0302920D01*
X0276670Y0302920D02*
X0280670Y0302920D01*
X0276670Y0302920D02*
X0272670Y0306920D01*
X0272670Y0298920D01*
X0276670Y0302920D01*
X0390970Y0277920D02*
X0394970Y0277920D01*
X0390970Y0277920D02*
X0386970Y0281920D01*
X0386970Y0273920D01*
X0390970Y0277920D01*
X0402370Y0277920D02*
X0406370Y0277920D01*
X0402370Y0277920D02*
X0398370Y0281920D01*
X0398370Y0273920D01*
X0402370Y0277920D01*
X0446670Y0277920D02*
X0450670Y0277920D01*
X0446670Y0277920D02*
X0442670Y0281920D01*
X0442670Y0273920D01*
X0446670Y0277920D01*
X0456670Y0276920D02*
X0460670Y0276920D01*
X0456670Y0276920D02*
X0452670Y0280920D01*
X0452670Y0272920D01*
X0456670Y0276920D01*
X0466670Y0277920D02*
X0470670Y0277920D01*
X0466670Y0277920D02*
X0462670Y0281920D01*
X0462670Y0273920D01*
X0466670Y0277920D01*
X0476670Y0276920D02*
X0480670Y0276920D01*
X0476670Y0276920D02*
X0472670Y0280920D01*
X0472670Y0272920D01*
X0476670Y0276920D01*
X0486670Y0277920D02*
X0490670Y0277920D01*
X0486670Y0277920D02*
X0482670Y0281920D01*
X0482670Y0273920D01*
X0486670Y0277920D01*
X0496670Y0276920D02*
X0500670Y0276920D01*
X0496670Y0276920D02*
X0492670Y0280920D01*
X0492670Y0272920D01*
X0496670Y0276920D01*
X0511670Y0278420D02*
X0515670Y0278420D01*
X0511670Y0278420D02*
X0507670Y0282420D01*
X0507670Y0274420D01*
X0511670Y0278420D01*
X0521670Y0277420D02*
X0525670Y0277420D01*
X0521670Y0277420D02*
X0517670Y0281420D01*
X0517670Y0273420D01*
X0521670Y0277420D01*
X0531670Y0278420D02*
X0535670Y0278420D01*
X0531670Y0278420D02*
X0527670Y0282420D01*
X0527670Y0274420D01*
X0531670Y0278420D01*
X0545970Y0277920D02*
X0549970Y0277920D01*
X0545970Y0277920D02*
X0541970Y0281920D01*
X0541970Y0273920D01*
X0545970Y0277920D01*
X0557370Y0277920D02*
X0561370Y0277920D01*
X0557370Y0277920D02*
X0553370Y0281920D01*
X0553370Y0273920D01*
X0557370Y0277920D01*
X0033750Y0691870D02*
X0037750Y0691870D01*
X0033750Y0691870D02*
X0029750Y0695870D01*
X0029750Y0687870D01*
X0033750Y0691870D01*
X0033750Y0701870D02*
X0037750Y0701870D01*
X0033750Y0701870D02*
X0029750Y0705870D01*
X0029750Y0697870D01*
X0033750Y0701870D01*
X0063250Y0701870D02*
X0067250Y0701870D01*
X0063250Y0701870D02*
X0059250Y0705870D01*
X0059250Y0697870D01*
X0063250Y0701870D01*
X0064250Y0691870D02*
X0068250Y0691870D01*
X0064250Y0691870D02*
X0060250Y0695870D01*
X0060250Y0687870D01*
X0064250Y0691870D01*
X0064250Y0711870D02*
X0068250Y0711870D01*
X0064250Y0711870D02*
X0060250Y0715870D01*
X0060250Y0707870D01*
X0064250Y0711870D01*
X0033750Y0711870D02*
X0037750Y0711870D01*
X0033750Y0711870D02*
X0029750Y0715870D01*
X0029750Y0707870D01*
X0033750Y0711870D01*
X0148050Y0686870D02*
X0152050Y0686870D01*
X0148050Y0686870D02*
X0144050Y0690870D01*
X0144050Y0682870D01*
X0148050Y0686870D01*
X0159450Y0686870D02*
X0163450Y0686870D01*
X0159450Y0686870D02*
X0155450Y0690870D01*
X0155450Y0682870D01*
X0159450Y0686870D01*
X0203750Y0686870D02*
X0207750Y0686870D01*
X0203750Y0686870D02*
X0199750Y0690870D01*
X0199750Y0682870D01*
X0203750Y0686870D01*
X0213750Y0685870D02*
X0217750Y0685870D01*
X0213750Y0685870D02*
X0209750Y0689870D01*
X0209750Y0681870D01*
X0213750Y0685870D01*
X0223750Y0686870D02*
X0227750Y0686870D01*
X0223750Y0686870D02*
X0219750Y0690870D01*
X0219750Y0682870D01*
X0223750Y0686870D01*
X0233750Y0685870D02*
X0237750Y0685870D01*
X0233750Y0685870D02*
X0229750Y0689870D01*
X0229750Y0681870D01*
X0233750Y0685870D01*
X0243750Y0686870D02*
X0247750Y0686870D01*
X0243750Y0686870D02*
X0239750Y0690870D01*
X0239750Y0682870D01*
X0243750Y0686870D01*
X0253750Y0685870D02*
X0257750Y0685870D01*
X0253750Y0685870D02*
X0249750Y0689870D01*
X0249750Y0681870D01*
X0253750Y0685870D01*
X0268750Y0687370D02*
X0272750Y0687370D01*
X0268750Y0687370D02*
X0264750Y0691370D01*
X0264750Y0683370D01*
X0268750Y0687370D01*
X0278750Y0686370D02*
X0282750Y0686370D01*
X0278750Y0686370D02*
X0274750Y0690370D01*
X0274750Y0682370D01*
X0278750Y0686370D01*
X0288750Y0687370D02*
X0292750Y0687370D01*
X0288750Y0687370D02*
X0284750Y0691370D01*
X0284750Y0683370D01*
X0288750Y0687370D01*
X0303050Y0686870D02*
X0307050Y0686870D01*
X0303050Y0686870D02*
X0299050Y0690870D01*
X0299050Y0682870D01*
X0303050Y0686870D01*
X0314450Y0686870D02*
X0318450Y0686870D01*
X0314450Y0686870D02*
X0310450Y0690870D01*
X0310450Y0682870D01*
X0314450Y0686870D01*
X0523910Y0398130D02*
X0527910Y0398130D01*
X0523910Y0398130D02*
X0519910Y0402130D01*
X0519910Y0394130D01*
X0523910Y0398130D01*
X0513910Y0398130D02*
X0517910Y0398130D01*
X0513910Y0398130D02*
X0509910Y0402130D01*
X0509910Y0394130D01*
X0513910Y0398130D01*
X0513910Y0427630D02*
X0517910Y0427630D01*
X0513910Y0427630D02*
X0509910Y0431630D01*
X0509910Y0423630D01*
X0513910Y0427630D01*
X0523910Y0428630D02*
X0527910Y0428630D01*
X0523910Y0428630D02*
X0519910Y0432630D01*
X0519910Y0424630D01*
X0523910Y0428630D01*
X0503910Y0428630D02*
X0507910Y0428630D01*
X0503910Y0428630D02*
X0499910Y0432630D01*
X0499910Y0424630D01*
X0503910Y0428630D01*
X0503910Y0398130D02*
X0507910Y0398130D01*
X0503910Y0398130D02*
X0499910Y0402130D01*
X0499910Y0394130D01*
X0503910Y0398130D01*
X0528910Y0512430D02*
X0532910Y0512430D01*
X0528910Y0512430D02*
X0524910Y0516430D01*
X0524910Y0508430D01*
X0528910Y0512430D01*
X0528910Y0523830D02*
X0532910Y0523830D01*
X0528910Y0523830D02*
X0524910Y0527830D01*
X0524910Y0519830D01*
X0528910Y0523830D01*
X0528910Y0568130D02*
X0532910Y0568130D01*
X0528910Y0568130D02*
X0524910Y0572130D01*
X0524910Y0564130D01*
X0528910Y0568130D01*
X0529910Y0578130D02*
X0533910Y0578130D01*
X0529910Y0578130D02*
X0525910Y0582130D01*
X0525910Y0574130D01*
X0529910Y0578130D01*
X0528910Y0588130D02*
X0532910Y0588130D01*
X0528910Y0588130D02*
X0524910Y0592130D01*
X0524910Y0584130D01*
X0528910Y0588130D01*
X0529910Y0598130D02*
X0533910Y0598130D01*
X0529910Y0598130D02*
X0525910Y0602130D01*
X0525910Y0594130D01*
X0529910Y0598130D01*
X0528910Y0608130D02*
X0532910Y0608130D01*
X0528910Y0608130D02*
X0524910Y0612130D01*
X0524910Y0604130D01*
X0528910Y0608130D01*
X0529910Y0618130D02*
X0533910Y0618130D01*
X0529910Y0618130D02*
X0525910Y0622130D01*
X0525910Y0614130D01*
X0529910Y0618130D01*
X0528410Y0633130D02*
X0532410Y0633130D01*
X0528410Y0633130D02*
X0524410Y0637130D01*
X0524410Y0629130D01*
X0528410Y0633130D01*
X0529410Y0643130D02*
X0533410Y0643130D01*
X0529410Y0643130D02*
X0525410Y0647130D01*
X0525410Y0639130D01*
X0529410Y0643130D01*
X0528410Y0653130D02*
X0532410Y0653130D01*
X0528410Y0653130D02*
X0524410Y0657130D01*
X0524410Y0649130D01*
X0528410Y0653130D01*
X0528910Y0667430D02*
X0532910Y0667430D01*
X0528910Y0667430D02*
X0524910Y0671430D01*
X0524910Y0663430D01*
X0528910Y0667430D01*
X0528910Y0678830D02*
X0532910Y0678830D01*
X0528910Y0678830D02*
X0524910Y0682830D01*
X0524910Y0674830D01*
X0528910Y0678830D01*
X0645370Y0398130D02*
X0649370Y0398130D01*
X0645370Y0398130D02*
X0641370Y0402130D01*
X0641370Y0394130D01*
X0645370Y0398130D01*
X0635370Y0398130D02*
X0639370Y0398130D01*
X0635370Y0398130D02*
X0631370Y0402130D01*
X0631370Y0394130D01*
X0635370Y0398130D01*
X0635370Y0427630D02*
X0639370Y0427630D01*
X0635370Y0427630D02*
X0631370Y0431630D01*
X0631370Y0423630D01*
X0635370Y0427630D01*
X0645370Y0428630D02*
X0649370Y0428630D01*
X0645370Y0428630D02*
X0641370Y0432630D01*
X0641370Y0424630D01*
X0645370Y0428630D01*
X0625370Y0428630D02*
X0629370Y0428630D01*
X0625370Y0428630D02*
X0621370Y0432630D01*
X0621370Y0424630D01*
X0625370Y0428630D01*
X0625370Y0398130D02*
X0629370Y0398130D01*
X0625370Y0398130D02*
X0621370Y0402130D01*
X0621370Y0394130D01*
X0625370Y0398130D01*
X0650370Y0512430D02*
X0654370Y0512430D01*
X0650370Y0512430D02*
X0646370Y0516430D01*
X0646370Y0508430D01*
X0650370Y0512430D01*
X0650370Y0523830D02*
X0654370Y0523830D01*
X0650370Y0523830D02*
X0646370Y0527830D01*
X0646370Y0519830D01*
X0650370Y0523830D01*
X0650370Y0568130D02*
X0654370Y0568130D01*
X0650370Y0568130D02*
X0646370Y0572130D01*
X0646370Y0564130D01*
X0650370Y0568130D01*
X0651370Y0578130D02*
X0655370Y0578130D01*
X0651370Y0578130D02*
X0647370Y0582130D01*
X0647370Y0574130D01*
X0651370Y0578130D01*
X0650370Y0588130D02*
X0654370Y0588130D01*
X0650370Y0588130D02*
X0646370Y0592130D01*
X0646370Y0584130D01*
X0650370Y0588130D01*
X0651370Y0598130D02*
X0655370Y0598130D01*
X0651370Y0598130D02*
X0647370Y0602130D01*
X0647370Y0594130D01*
X0651370Y0598130D01*
X0650370Y0608130D02*
X0654370Y0608130D01*
X0650370Y0608130D02*
X0646370Y0612130D01*
X0646370Y0604130D01*
X0650370Y0608130D01*
X0651370Y0618130D02*
X0655370Y0618130D01*
X0651370Y0618130D02*
X0647370Y0622130D01*
X0647370Y0614130D01*
X0651370Y0618130D01*
X0649870Y0633130D02*
X0653870Y0633130D01*
X0649870Y0633130D02*
X0645870Y0637130D01*
X0645870Y0629130D01*
X0649870Y0633130D01*
X0650870Y0643130D02*
X0654870Y0643130D01*
X0650870Y0643130D02*
X0646870Y0647130D01*
X0646870Y0639130D01*
X0650870Y0643130D01*
X0649870Y0653130D02*
X0653870Y0653130D01*
X0649870Y0653130D02*
X0645870Y0657130D01*
X0645870Y0649130D01*
X0649870Y0653130D01*
X0650370Y0667430D02*
X0654370Y0667430D01*
X0650370Y0667430D02*
X0646370Y0671430D01*
X0646370Y0663430D01*
X0650370Y0667430D01*
X0650370Y0678830D02*
X0654370Y0678830D01*
X0650370Y0678830D02*
X0646370Y0682830D01*
X0646370Y0674830D01*
X0650370Y0678830D01*
X0010000Y0010000D02*
X0675370Y0010000D01*
X0675370Y0796830D01*
X0010000Y0796830D01*
X0010000Y0010000D01*
X0725370Y0013500D02*
X0729370Y0013500D01*
X0725370Y0013500D02*
X0721370Y0017500D01*
X0721370Y0009500D01*
X0725370Y0013500D01*
X0736870Y0010000D02*
X0735870Y0011000D01*
X0739870Y0015000D01*
X0739870Y0011000D01*
X0738870Y0010000D01*
X0736870Y0010000D01*
X0735870Y0011000D02*
X0735870Y0015000D01*
X0736870Y0016000D01*
X0738870Y0016000D01*
X0739870Y0015000D01*
X0743370Y0011000D02*
X0744370Y0011000D01*
X0744370Y0010000D01*
X0743370Y0010000D01*
X0743370Y0011000D01*
X0748870Y0010000D02*
X0747870Y0011000D01*
X0751870Y0015000D01*
X0751870Y0011000D01*
X0750870Y0010000D01*
X0748870Y0010000D01*
X0747870Y0011000D02*
X0747870Y0015000D01*
X0748870Y0016000D01*
X0750870Y0016000D01*
X0751870Y0015000D01*
X0753870Y0013000D02*
X0757870Y0013000D01*
X0756870Y0010000D02*
X0756870Y0016000D01*
X0753870Y0013000D01*
X0760870Y0010000D02*
X0759870Y0011000D01*
X0763870Y0015000D01*
X0763870Y0011000D01*
X0762870Y0010000D01*
X0760870Y0010000D01*
X0759870Y0011000D02*
X0759870Y0015000D01*
X0760870Y0016000D01*
X0762870Y0016000D01*
X0763870Y0015000D01*
X0769370Y0015000D02*
X0768370Y0014000D01*
X0769370Y0015000D02*
X0769370Y0017000D01*
X0767370Y0017000D02*
X0767370Y0015000D01*
X0766370Y0014000D01*
X0725370Y0024000D02*
X0721370Y0024000D01*
X0725370Y0024000D02*
X0729370Y0028000D01*
X0729370Y0020000D01*
X0725370Y0024000D01*
X0736870Y0020500D02*
X0735870Y0021500D01*
X0739870Y0025500D01*
X0739870Y0021500D01*
X0738870Y0020500D01*
X0736870Y0020500D01*
X0735870Y0021500D02*
X0735870Y0025500D01*
X0736870Y0026500D01*
X0738870Y0026500D01*
X0739870Y0025500D01*
X0743370Y0021500D02*
X0744370Y0021500D01*
X0744370Y0020500D01*
X0743370Y0020500D01*
X0743370Y0021500D01*
X0748870Y0020500D02*
X0747870Y0021500D01*
X0751870Y0025500D01*
X0751870Y0021500D01*
X0750870Y0020500D01*
X0748870Y0020500D01*
X0747870Y0021500D02*
X0747870Y0025500D01*
X0748870Y0026500D01*
X0750870Y0026500D01*
X0751870Y0025500D01*
X0753870Y0021500D02*
X0754870Y0020500D01*
X0756870Y0020500D01*
X0757870Y0021500D01*
X0757870Y0022500D01*
X0756870Y0023500D01*
X0755870Y0023500D01*
X0756870Y0023500D02*
X0757870Y0024500D01*
X0757870Y0025500D01*
X0756870Y0026500D01*
X0754870Y0026500D01*
X0753870Y0025500D01*
X0759870Y0021500D02*
X0760870Y0020500D01*
X0762870Y0020500D01*
X0763870Y0021500D01*
X0763870Y0022500D01*
X0762870Y0023500D01*
X0761870Y0023500D01*
X0762870Y0023500D02*
X0763870Y0024500D01*
X0763870Y0025500D01*
X0762870Y0026500D01*
X0760870Y0026500D01*
X0759870Y0025500D01*
X0769370Y0025500D02*
X0768370Y0024500D01*
X0769370Y0025500D02*
X0769370Y0027500D01*
X0767370Y0027500D02*
X0767370Y0025500D01*
X0766370Y0024500D01*
X0721370Y0030500D02*
X0729370Y0038500D01*
X0729370Y0030500D02*
X0721370Y0038500D01*
X0721370Y0034500D02*
X0729370Y0034500D01*
X0736870Y0031000D02*
X0735870Y0032000D01*
X0739870Y0036000D01*
X0739870Y0032000D01*
X0738870Y0031000D01*
X0736870Y0031000D01*
X0735870Y0032000D02*
X0735870Y0036000D01*
X0736870Y0037000D01*
X0738870Y0037000D01*
X0739870Y0036000D01*
X0743370Y0032000D02*
X0744370Y0032000D01*
X0744370Y0031000D01*
X0743370Y0031000D01*
X0743370Y0032000D01*
X0748870Y0031000D02*
X0747870Y0032000D01*
X0751870Y0036000D01*
X0751870Y0032000D01*
X0750870Y0031000D01*
X0748870Y0031000D01*
X0747870Y0032000D02*
X0747870Y0036000D01*
X0748870Y0037000D01*
X0750870Y0037000D01*
X0751870Y0036000D01*
X0753870Y0031000D02*
X0757870Y0035000D01*
X0757870Y0036000D01*
X0756870Y0037000D01*
X0754870Y0037000D01*
X0753870Y0036000D01*
X0753870Y0031000D02*
X0757870Y0031000D01*
X0759870Y0034000D02*
X0759870Y0032000D01*
X0760870Y0031000D01*
X0762870Y0031000D01*
X0763870Y0032000D01*
X0763870Y0033000D01*
X0762870Y0034000D01*
X0759870Y0034000D01*
X0761870Y0036000D01*
X0763870Y0037000D01*
X0769370Y0036000D02*
X0768370Y0035000D01*
X0769370Y0036000D02*
X0769370Y0038000D01*
X0767370Y0038000D02*
X0767370Y0036000D01*
X0766370Y0035000D01*
X0010000Y0809330D02*
X0010000Y0824330D01*
X0017500Y0820580D02*
X0010000Y0816830D01*
X0017500Y0813080D01*
X0010000Y0816830D02*
X0022500Y0816830D01*
X0675370Y0824330D02*
X0675370Y0809330D01*
X0667870Y0813080D02*
X0675370Y0816830D01*
X0667870Y0820580D01*
X0675370Y0816830D02*
X0662870Y0816830D01*
X0687870Y0796830D02*
X0702870Y0796830D01*
X0699120Y0789330D02*
X0695370Y0796830D01*
X0691620Y0789330D01*
X0695370Y0796830D02*
X0695370Y0784330D01*
X0702870Y0010000D02*
X0687870Y0010000D01*
X0691620Y0017500D02*
X0695370Y0010000D01*
X0699120Y0017500D01*
X0695370Y0010000D02*
X0695370Y0022500D01*
X0335685Y0816330D02*
X0335685Y0814330D01*
X0336685Y0813330D01*
X0338685Y0813330D01*
X0339685Y0814330D01*
X0339685Y0815330D01*
X0338685Y0816330D01*
X0335685Y0816330D01*
X0337685Y0818330D01*
X0339685Y0819330D01*
X0343185Y0814330D02*
X0344185Y0814330D01*
X0344185Y0813330D01*
X0343185Y0813330D01*
X0343185Y0814330D01*
X0347685Y0816330D02*
X0347685Y0814330D01*
X0348685Y0813330D01*
X0350685Y0813330D01*
X0351685Y0814330D01*
X0351685Y0815330D01*
X0350685Y0816330D01*
X0347685Y0816330D01*
X0349685Y0818330D01*
X0351685Y0819330D01*
X0353685Y0816330D02*
X0355685Y0817330D01*
X0356685Y0817330D01*
X0357685Y0816330D01*
X0357685Y0814330D01*
X0356685Y0813330D01*
X0354685Y0813330D01*
X0353685Y0814330D01*
X0353685Y0816330D02*
X0353685Y0819330D01*
X0357685Y0819330D01*
X0359685Y0816330D02*
X0363685Y0816330D01*
X0362685Y0813330D02*
X0362685Y0819330D01*
X0359685Y0816330D01*
X0369185Y0818330D02*
X0368185Y0817330D01*
X0369185Y0818330D02*
X0369185Y0820330D01*
X0367185Y0820330D02*
X0367185Y0818330D01*
X0366185Y0817330D01*
X0010000Y0816830D02*
X0325185Y0816830D01*
X0380185Y0816830D02*
X0675370Y0816830D01*
X0697870Y0430415D02*
X0697870Y0426415D01*
X0696870Y0426415D01*
X0692870Y0430415D01*
X0691870Y0430415D01*
X0692870Y0422915D02*
X0692870Y0421915D01*
X0691870Y0421915D01*
X0691870Y0422915D01*
X0692870Y0422915D01*
X0692870Y0418415D02*
X0693870Y0418415D01*
X0694870Y0417415D01*
X0694870Y0415415D01*
X0693870Y0414415D01*
X0692870Y0414415D01*
X0691870Y0415415D01*
X0691870Y0417415D01*
X0692870Y0418415D01*
X0694870Y0417415D02*
X0695870Y0418415D01*
X0696870Y0418415D01*
X0697870Y0417415D01*
X0697870Y0415415D01*
X0696870Y0414415D01*
X0695870Y0414415D01*
X0694870Y0415415D01*
X0694870Y0412415D02*
X0692870Y0412415D01*
X0691870Y0411415D01*
X0691870Y0409415D01*
X0692870Y0408415D01*
X0693870Y0408415D01*
X0694870Y0409415D01*
X0694870Y0412415D01*
X0696870Y0410415D01*
X0697870Y0408415D01*
X0692870Y0406415D02*
X0693870Y0406415D01*
X0694870Y0405415D01*
X0694870Y0403415D01*
X0693870Y0402415D01*
X0692870Y0402415D01*
X0691870Y0403415D01*
X0691870Y0405415D01*
X0692870Y0406415D01*
X0694870Y0405415D02*
X0695870Y0406415D01*
X0696870Y0406415D01*
X0697870Y0405415D01*
X0697870Y0403415D01*
X0696870Y0402415D01*
X0695870Y0402415D01*
X0694870Y0403415D01*
X0696870Y0396915D02*
X0695870Y0397915D01*
X0696870Y0396915D02*
X0698870Y0396915D01*
X0698870Y0398915D02*
X0696870Y0398915D01*
X0695870Y0399915D01*
X0695370Y0796830D02*
X0695370Y0440915D01*
X0695370Y0385915D02*
X0695370Y0010000D01*
X0790870Y0010000D02*
X0794870Y0010000D01*
X0790870Y0010000D02*
X0790870Y0016000D01*
X0800870Y0012000D02*
X0797870Y0012000D01*
X0796870Y0011000D01*
X0797870Y0010000D01*
X0800870Y0010000D01*
X0800870Y0013000D01*
X0799870Y0014000D01*
X0797870Y0014000D01*
X0806870Y0014000D02*
X0803870Y0014000D01*
X0802870Y0013000D01*
X0803870Y0012000D01*
X0805870Y0012000D01*
X0806870Y0011000D01*
X0805870Y0010000D01*
X0802870Y0010000D01*
X0812870Y0013000D02*
X0812870Y0012000D01*
X0808870Y0012000D01*
X0808870Y0013000D02*
X0809870Y0014000D01*
X0811870Y0014000D01*
X0812870Y0013000D01*
X0811870Y0010000D02*
X0809870Y0010000D01*
X0808870Y0011000D01*
X0808870Y0013000D01*
X0818370Y0014000D02*
X0817370Y0014000D01*
X0815370Y0012000D01*
X0815370Y0010000D02*
X0815370Y0014000D01*
X0824870Y0016000D02*
X0820870Y0016000D01*
X0822870Y0016000D02*
X0822870Y0010000D01*
X0830870Y0012000D02*
X0827870Y0012000D01*
X0826870Y0011000D01*
X0827870Y0010000D01*
X0830870Y0010000D01*
X0830870Y0013000D01*
X0829870Y0014000D01*
X0827870Y0014000D01*
X0836870Y0010000D02*
X0833870Y0010000D01*
X0832870Y0011000D01*
X0832870Y0013000D01*
X0833870Y0014000D01*
X0836870Y0014000D01*
X0836870Y0009000D01*
X0835870Y0008000D01*
X0834870Y0008000D01*
X0842870Y0013000D02*
X0838870Y0013000D01*
X0838870Y0015000D02*
X0842870Y0011000D01*
X0840870Y0011000D02*
X0840870Y0015000D01*
X0842870Y0015000D02*
X0838870Y0011000D01*
X0848370Y0014000D02*
X0847370Y0014000D01*
X0845370Y0012000D01*
X0845370Y0010000D02*
X0845370Y0014000D01*
X0854870Y0011000D02*
X0854870Y0013000D01*
X0853870Y0014000D01*
X0851870Y0014000D01*
X0850870Y0013000D01*
X0850870Y0011000D01*
X0851870Y0010000D01*
X0853870Y0010000D01*
X0854870Y0011000D01*
X0858870Y0015000D02*
X0858870Y0011000D01*
X0859870Y0010000D01*
X0859870Y0014000D02*
X0857870Y0014000D01*
X0866870Y0012000D02*
X0863870Y0012000D01*
X0862870Y0011000D01*
X0863870Y0010000D01*
X0866870Y0010000D01*
X0866870Y0013000D01*
X0865870Y0014000D01*
X0863870Y0014000D01*
X0870870Y0015000D02*
X0870870Y0011000D01*
X0871870Y0010000D01*
X0871870Y0014000D02*
X0869870Y0014000D01*
X0878870Y0013000D02*
X0878870Y0012000D01*
X0874870Y0012000D01*
X0874870Y0013000D02*
X0875870Y0014000D01*
X0877870Y0014000D01*
X0878870Y0013000D01*
X0877870Y0010000D02*
X0875870Y0010000D01*
X0874870Y0011000D01*
X0874870Y0013000D01*
X0884870Y0014000D02*
X0881870Y0014000D01*
X0880870Y0013000D01*
X0880870Y0011000D01*
X0881870Y0010000D01*
X0884870Y0010000D01*
X0884870Y0016000D01*
X0886870Y0014000D02*
X0887870Y0013000D01*
X0890870Y0013000D01*
X0890870Y0011000D02*
X0890870Y0015000D01*
X0889870Y0016000D01*
X0887870Y0016000D01*
X0886870Y0015000D01*
X0886870Y0014000D01*
X0886870Y0011000D02*
X0887870Y0010000D01*
X0889870Y0010000D01*
X0890870Y0011000D01*
X0893870Y0010000D02*
X0892870Y0011000D01*
X0896870Y0015000D01*
X0896870Y0011000D01*
X0895870Y0010000D01*
X0893870Y0010000D01*
X0892870Y0011000D02*
X0892870Y0015000D01*
X0893870Y0016000D01*
X0895870Y0016000D01*
X0896870Y0015000D01*
X0904870Y0013000D02*
X0906870Y0014000D01*
X0907870Y0014000D01*
X0908870Y0013000D01*
X0908870Y0011000D01*
X0907870Y0010000D01*
X0905870Y0010000D01*
X0904870Y0011000D01*
X0904870Y0013000D02*
X0904870Y0016000D01*
X0908870Y0016000D01*
X0912370Y0011000D02*
X0913370Y0011000D01*
X0913370Y0010000D01*
X0912370Y0010000D01*
X0912370Y0011000D01*
X0916870Y0013000D02*
X0918870Y0014000D01*
X0919870Y0014000D01*
X0920870Y0013000D01*
X0920870Y0011000D01*
X0919870Y0010000D01*
X0917870Y0010000D01*
X0916870Y0011000D01*
X0916870Y0013000D02*
X0916870Y0016000D01*
X0920870Y0016000D01*
X0923870Y0010000D02*
X0922870Y0011000D01*
X0926870Y0015000D01*
X0926870Y0011000D01*
X0925870Y0010000D01*
X0923870Y0010000D01*
X0922870Y0011000D02*
X0922870Y0015000D01*
X0923870Y0016000D01*
X0925870Y0016000D01*
X0926870Y0015000D01*
X0928870Y0013000D02*
X0932870Y0013000D01*
X0931870Y0010000D02*
X0931870Y0016000D01*
X0928870Y0013000D01*
X0940870Y0011000D02*
X0941870Y0010000D01*
X0943870Y0010000D01*
X0944870Y0011000D01*
X0944870Y0012000D01*
X0943870Y0013000D01*
X0942870Y0013000D01*
X0943870Y0013000D02*
X0944870Y0014000D01*
X0944870Y0015000D01*
X0943870Y0016000D01*
X0941870Y0016000D01*
X0940870Y0015000D01*
X0948370Y0011000D02*
X0949370Y0011000D01*
X0949370Y0010000D01*
X0948370Y0010000D01*
X0948370Y0011000D01*
X0952870Y0011000D02*
X0952870Y0012000D01*
X0953870Y0013000D01*
X0955870Y0013000D01*
X0956870Y0012000D01*
X0956870Y0011000D01*
X0955870Y0010000D01*
X0953870Y0010000D01*
X0952870Y0011000D01*
X0953870Y0013000D02*
X0952870Y0014000D01*
X0952870Y0015000D01*
X0953870Y0016000D01*
X0955870Y0016000D01*
X0956870Y0015000D01*
X0956870Y0014000D01*
X0955870Y0013000D01*
X0958870Y0013000D02*
X0962870Y0013000D01*
X0961870Y0010000D02*
X0961870Y0016000D01*
X0958870Y0013000D01*
X0964870Y0013000D02*
X0968870Y0013000D01*
X0967870Y0010000D02*
X0967870Y0016000D01*
X0964870Y0013000D01*
X0790870Y0020500D02*
X0794870Y0020500D01*
X0790870Y0020500D02*
X0790870Y0026500D01*
X0800870Y0022500D02*
X0797870Y0022500D01*
X0796870Y0021500D01*
X0797870Y0020500D01*
X0800870Y0020500D01*
X0800870Y0023500D01*
X0799870Y0024500D01*
X0797870Y0024500D01*
X0806870Y0024500D02*
X0803870Y0024500D01*
X0802870Y0023500D01*
X0803870Y0022500D01*
X0805870Y0022500D01*
X0806870Y0021500D01*
X0805870Y0020500D01*
X0802870Y0020500D01*
X0812870Y0023500D02*
X0812870Y0022500D01*
X0808870Y0022500D01*
X0808870Y0023500D02*
X0809870Y0024500D01*
X0811870Y0024500D01*
X0812870Y0023500D01*
X0811870Y0020500D02*
X0809870Y0020500D01*
X0808870Y0021500D01*
X0808870Y0023500D01*
X0818370Y0024500D02*
X0817370Y0024500D01*
X0815370Y0022500D01*
X0815370Y0020500D02*
X0815370Y0024500D01*
X0824870Y0026500D02*
X0820870Y0026500D01*
X0822870Y0026500D02*
X0822870Y0020500D01*
X0830870Y0022500D02*
X0827870Y0022500D01*
X0826870Y0021500D01*
X0827870Y0020500D01*
X0830870Y0020500D01*
X0830870Y0023500D01*
X0829870Y0024500D01*
X0827870Y0024500D01*
X0836870Y0020500D02*
X0833870Y0020500D01*
X0832870Y0021500D01*
X0832870Y0023500D01*
X0833870Y0024500D01*
X0836870Y0024500D01*
X0836870Y0019500D01*
X0835870Y0018500D01*
X0834870Y0018500D01*
X0842870Y0023500D02*
X0838870Y0023500D01*
X0838870Y0025500D02*
X0842870Y0021500D01*
X0840870Y0021500D02*
X0840870Y0025500D01*
X0842870Y0025500D02*
X0838870Y0021500D01*
X0848370Y0024500D02*
X0847370Y0024500D01*
X0845370Y0022500D01*
X0845370Y0020500D02*
X0845370Y0024500D01*
X0854870Y0021500D02*
X0854870Y0023500D01*
X0853870Y0024500D01*
X0851870Y0024500D01*
X0850870Y0023500D01*
X0850870Y0021500D01*
X0851870Y0020500D01*
X0853870Y0020500D01*
X0854870Y0021500D01*
X0858870Y0025500D02*
X0858870Y0021500D01*
X0859870Y0020500D01*
X0859870Y0024500D02*
X0857870Y0024500D01*
X0866870Y0022500D02*
X0863870Y0022500D01*
X0862870Y0021500D01*
X0863870Y0020500D01*
X0866870Y0020500D01*
X0866870Y0023500D01*
X0865870Y0024500D01*
X0863870Y0024500D01*
X0870870Y0025500D02*
X0870870Y0021500D01*
X0871870Y0020500D01*
X0871870Y0024500D02*
X0869870Y0024500D01*
X0878870Y0023500D02*
X0878870Y0022500D01*
X0874870Y0022500D01*
X0874870Y0023500D02*
X0875870Y0024500D01*
X0877870Y0024500D01*
X0878870Y0023500D01*
X0877870Y0020500D02*
X0875870Y0020500D01*
X0874870Y0021500D01*
X0874870Y0023500D01*
X0884870Y0024500D02*
X0881870Y0024500D01*
X0880870Y0023500D01*
X0880870Y0021500D01*
X0881870Y0020500D01*
X0884870Y0020500D01*
X0884870Y0026500D01*
X0886870Y0024500D02*
X0887870Y0023500D01*
X0890870Y0023500D01*
X0890870Y0021500D02*
X0890870Y0025500D01*
X0889870Y0026500D01*
X0887870Y0026500D01*
X0886870Y0025500D01*
X0886870Y0024500D01*
X0886870Y0021500D02*
X0887870Y0020500D01*
X0889870Y0020500D01*
X0890870Y0021500D01*
X0893870Y0020500D02*
X0892870Y0021500D01*
X0896870Y0025500D01*
X0896870Y0021500D01*
X0895870Y0020500D01*
X0893870Y0020500D01*
X0892870Y0021500D02*
X0892870Y0025500D01*
X0893870Y0026500D01*
X0895870Y0026500D01*
X0896870Y0025500D01*
X0904870Y0023500D02*
X0908870Y0023500D01*
X0907870Y0020500D02*
X0907870Y0026500D01*
X0904870Y0023500D01*
X0912370Y0021500D02*
X0913370Y0021500D01*
X0913370Y0020500D01*
X0912370Y0020500D01*
X0912370Y0021500D01*
X0916870Y0020500D02*
X0920870Y0024500D01*
X0920870Y0025500D01*
X0919870Y0026500D01*
X0917870Y0026500D01*
X0916870Y0025500D01*
X0916870Y0020500D02*
X0920870Y0020500D01*
X0922870Y0024500D02*
X0923870Y0023500D01*
X0926870Y0023500D01*
X0926870Y0021500D02*
X0926870Y0025500D01*
X0925870Y0026500D01*
X0923870Y0026500D01*
X0922870Y0025500D01*
X0922870Y0024500D01*
X0922870Y0021500D02*
X0923870Y0020500D01*
X0925870Y0020500D01*
X0926870Y0021500D01*
X0929870Y0020500D02*
X0928870Y0021500D01*
X0932870Y0025500D01*
X0932870Y0021500D01*
X0931870Y0020500D01*
X0929870Y0020500D01*
X0928870Y0021500D02*
X0928870Y0025500D01*
X0929870Y0026500D01*
X0931870Y0026500D01*
X0932870Y0025500D01*
X0940870Y0021500D02*
X0941870Y0020500D01*
X0943870Y0020500D01*
X0944870Y0021500D01*
X0944870Y0022500D01*
X0943870Y0023500D01*
X0942870Y0023500D01*
X0943870Y0023500D02*
X0944870Y0024500D01*
X0944870Y0025500D01*
X0943870Y0026500D01*
X0941870Y0026500D01*
X0940870Y0025500D01*
X0948370Y0021500D02*
X0949370Y0021500D01*
X0949370Y0020500D01*
X0948370Y0020500D01*
X0948370Y0021500D01*
X0952870Y0021500D02*
X0952870Y0022500D01*
X0953870Y0023500D01*
X0955870Y0023500D01*
X0956870Y0022500D01*
X0956870Y0021500D01*
X0955870Y0020500D01*
X0953870Y0020500D01*
X0952870Y0021500D01*
X0953870Y0023500D02*
X0952870Y0024500D01*
X0952870Y0025500D01*
X0953870Y0026500D01*
X0955870Y0026500D01*
X0956870Y0025500D01*
X0956870Y0024500D01*
X0955870Y0023500D01*
X0958870Y0023500D02*
X0962870Y0023500D01*
X0961870Y0020500D02*
X0961870Y0026500D01*
X0958870Y0023500D01*
X0964870Y0023500D02*
X0968870Y0023500D01*
X0967870Y0020500D02*
X0967870Y0026500D01*
X0964870Y0023500D01*
X0790870Y0031000D02*
X0794870Y0031000D01*
X0790870Y0031000D02*
X0790870Y0037000D01*
X0800870Y0033000D02*
X0797870Y0033000D01*
X0796870Y0032000D01*
X0797870Y0031000D01*
X0800870Y0031000D01*
X0800870Y0034000D01*
X0799870Y0035000D01*
X0797870Y0035000D01*
X0806870Y0035000D02*
X0803870Y0035000D01*
X0802870Y0034000D01*
X0803870Y0033000D01*
X0805870Y0033000D01*
X0806870Y0032000D01*
X0805870Y0031000D01*
X0802870Y0031000D01*
X0812870Y0034000D02*
X0812870Y0033000D01*
X0808870Y0033000D01*
X0808870Y0034000D02*
X0809870Y0035000D01*
X0811870Y0035000D01*
X0812870Y0034000D01*
X0811870Y0031000D02*
X0809870Y0031000D01*
X0808870Y0032000D01*
X0808870Y0034000D01*
X0818370Y0035000D02*
X0817370Y0035000D01*
X0815370Y0033000D01*
X0815370Y0031000D02*
X0815370Y0035000D01*
X0824870Y0037000D02*
X0820870Y0037000D01*
X0822870Y0037000D02*
X0822870Y0031000D01*
X0830870Y0033000D02*
X0827870Y0033000D01*
X0826870Y0032000D01*
X0827870Y0031000D01*
X0830870Y0031000D01*
X0830870Y0034000D01*
X0829870Y0035000D01*
X0827870Y0035000D01*
X0836870Y0031000D02*
X0833870Y0031000D01*
X0832870Y0032000D01*
X0832870Y0034000D01*
X0833870Y0035000D01*
X0836870Y0035000D01*
X0836870Y0030000D01*
X0835870Y0029000D01*
X0834870Y0029000D01*
X0845870Y0031000D02*
X0844870Y0032000D01*
X0848870Y0036000D01*
X0848870Y0032000D01*
X0847870Y0031000D01*
X0845870Y0031000D01*
X0844870Y0032000D02*
X0844870Y0036000D01*
X0845870Y0037000D01*
X0847870Y0037000D01*
X0848870Y0036000D01*
X0852370Y0032000D02*
X0853370Y0032000D01*
X0853370Y0031000D01*
X0852370Y0031000D01*
X0852370Y0032000D01*
X0856870Y0031000D02*
X0860870Y0035000D01*
X0860870Y0036000D01*
X0859870Y0037000D01*
X0857870Y0037000D01*
X0856870Y0036000D01*
X0856870Y0031000D02*
X0860870Y0031000D01*
X0863870Y0031000D02*
X0862870Y0032000D01*
X0866870Y0036000D01*
X0866870Y0032000D01*
X0865870Y0031000D01*
X0863870Y0031000D01*
X0862870Y0032000D02*
X0862870Y0036000D01*
X0863870Y0037000D01*
X0865870Y0037000D01*
X0866870Y0036000D01*
X0869870Y0031000D02*
X0868870Y0032000D01*
X0872870Y0036000D01*
X0872870Y0032000D01*
X0871870Y0031000D01*
X0869870Y0031000D01*
X0868870Y0032000D02*
X0868870Y0036000D01*
X0869870Y0037000D01*
X0871870Y0037000D01*
X0872870Y0036000D01*
X0880870Y0034000D02*
X0880870Y0032000D01*
X0881870Y0031000D01*
X0883870Y0031000D01*
X0884870Y0032000D01*
X0884870Y0033000D01*
X0883870Y0034000D01*
X0880870Y0034000D01*
X0882870Y0036000D01*
X0884870Y0037000D01*
X0888370Y0032000D02*
X0889370Y0032000D01*
X0889370Y0031000D01*
X0888370Y0031000D01*
X0888370Y0032000D01*
X0892870Y0037000D02*
X0896870Y0037000D01*
X0896870Y0036000D01*
X0892870Y0032000D01*
X0892870Y0031000D01*
X0899870Y0036000D02*
X0900870Y0037000D01*
X0900870Y0031000D01*
X0899870Y0031000D02*
X0901870Y0031000D01*
X0904870Y0035000D02*
X0905870Y0034000D01*
X0908870Y0034000D01*
X0908870Y0032000D02*
X0908870Y0036000D01*
X0907870Y0037000D01*
X0905870Y0037000D01*
X0904870Y0036000D01*
X0904870Y0035000D01*
X0904870Y0032000D02*
X0905870Y0031000D01*
X0907870Y0031000D01*
X0908870Y0032000D01*
X0790870Y0041500D02*
X0794870Y0041500D01*
X0790870Y0041500D02*
X0790870Y0047500D01*
X0800870Y0043500D02*
X0797870Y0043500D01*
X0796870Y0042500D01*
X0797870Y0041500D01*
X0800870Y0041500D01*
X0800870Y0044500D01*
X0799870Y0045500D01*
X0797870Y0045500D01*
X0806870Y0045500D02*
X0803870Y0045500D01*
X0802870Y0044500D01*
X0803870Y0043500D01*
X0805870Y0043500D01*
X0806870Y0042500D01*
X0805870Y0041500D01*
X0802870Y0041500D01*
X0812870Y0044500D02*
X0812870Y0043500D01*
X0808870Y0043500D01*
X0808870Y0044500D02*
X0809870Y0045500D01*
X0811870Y0045500D01*
X0812870Y0044500D01*
X0811870Y0041500D02*
X0809870Y0041500D01*
X0808870Y0042500D01*
X0808870Y0044500D01*
X0818370Y0045500D02*
X0817370Y0045500D01*
X0815370Y0043500D01*
X0815370Y0041500D02*
X0815370Y0045500D01*
X0824870Y0047500D02*
X0820870Y0047500D01*
X0822870Y0047500D02*
X0822870Y0041500D01*
X0830870Y0043500D02*
X0827870Y0043500D01*
X0826870Y0042500D01*
X0827870Y0041500D01*
X0830870Y0041500D01*
X0830870Y0044500D01*
X0829870Y0045500D01*
X0827870Y0045500D01*
X0836870Y0041500D02*
X0833870Y0041500D01*
X0832870Y0042500D01*
X0832870Y0044500D01*
X0833870Y0045500D01*
X0836870Y0045500D01*
X0836870Y0040500D01*
X0835870Y0039500D01*
X0834870Y0039500D01*
X0844870Y0041500D02*
X0848870Y0045500D01*
X0848870Y0046500D01*
X0847870Y0047500D01*
X0845870Y0047500D01*
X0844870Y0046500D01*
X0844870Y0041500D02*
X0848870Y0041500D01*
X0852370Y0042500D02*
X0853370Y0042500D01*
X0853370Y0041500D01*
X0852370Y0041500D01*
X0852370Y0042500D01*
X0856870Y0044500D02*
X0856870Y0042500D01*
X0857870Y0041500D01*
X0859870Y0041500D01*
X0860870Y0042500D01*
X0860870Y0043500D01*
X0859870Y0044500D01*
X0856870Y0044500D01*
X0858870Y0046500D01*
X0860870Y0047500D01*
X0862870Y0041500D02*
X0866870Y0045500D01*
X0866870Y0046500D01*
X0865870Y0047500D01*
X0863870Y0047500D01*
X0862870Y0046500D01*
X0862870Y0041500D02*
X0866870Y0041500D01*
X0868870Y0045500D02*
X0869870Y0044500D01*
X0872870Y0044500D01*
X0872870Y0042500D02*
X0872870Y0046500D01*
X0871870Y0047500D01*
X0869870Y0047500D01*
X0868870Y0046500D01*
X0868870Y0045500D01*
X0868870Y0042500D02*
X0869870Y0041500D01*
X0871870Y0041500D01*
X0872870Y0042500D01*
X0880870Y0041500D02*
X0884870Y0045500D01*
X0884870Y0046500D01*
X0883870Y0047500D01*
X0881870Y0047500D01*
X0880870Y0046500D01*
X0880870Y0041500D02*
X0884870Y0041500D01*
X0888370Y0042500D02*
X0889370Y0042500D01*
X0889370Y0041500D01*
X0888370Y0041500D01*
X0888370Y0042500D01*
X0892870Y0044500D02*
X0892870Y0042500D01*
X0893870Y0041500D01*
X0895870Y0041500D01*
X0896870Y0042500D01*
X0896870Y0043500D01*
X0895870Y0044500D01*
X0892870Y0044500D01*
X0894870Y0046500D01*
X0896870Y0047500D01*
X0898870Y0041500D02*
X0902870Y0045500D01*
X0902870Y0046500D01*
X0901870Y0047500D01*
X0899870Y0047500D01*
X0898870Y0046500D01*
X0898870Y0041500D02*
X0902870Y0041500D01*
X0904870Y0045500D02*
X0905870Y0044500D01*
X0908870Y0044500D01*
X0908870Y0042500D02*
X0908870Y0046500D01*
X0907870Y0047500D01*
X0905870Y0047500D01*
X0904870Y0046500D01*
X0904870Y0045500D01*
X0904870Y0042500D02*
X0905870Y0041500D01*
X0907870Y0041500D01*
X0908870Y0042500D01*
X0790870Y0052000D02*
X0794870Y0052000D01*
X0790870Y0052000D02*
X0790870Y0058000D01*
X0800870Y0054000D02*
X0797870Y0054000D01*
X0796870Y0053000D01*
X0797870Y0052000D01*
X0800870Y0052000D01*
X0800870Y0055000D01*
X0799870Y0056000D01*
X0797870Y0056000D01*
X0806870Y0056000D02*
X0803870Y0056000D01*
X0802870Y0055000D01*
X0803870Y0054000D01*
X0805870Y0054000D01*
X0806870Y0053000D01*
X0805870Y0052000D01*
X0802870Y0052000D01*
X0812870Y0055000D02*
X0812870Y0054000D01*
X0808870Y0054000D01*
X0808870Y0055000D02*
X0809870Y0056000D01*
X0811870Y0056000D01*
X0812870Y0055000D01*
X0811870Y0052000D02*
X0809870Y0052000D01*
X0808870Y0053000D01*
X0808870Y0055000D01*
X0818370Y0056000D02*
X0817370Y0056000D01*
X0815370Y0054000D01*
X0815370Y0052000D02*
X0815370Y0056000D01*
X0824870Y0058000D02*
X0820870Y0058000D01*
X0822870Y0058000D02*
X0822870Y0052000D01*
X0830870Y0054000D02*
X0827870Y0054000D01*
X0826870Y0053000D01*
X0827870Y0052000D01*
X0830870Y0052000D01*
X0830870Y0055000D01*
X0829870Y0056000D01*
X0827870Y0056000D01*
X0836870Y0052000D02*
X0833870Y0052000D01*
X0832870Y0053000D01*
X0832870Y0055000D01*
X0833870Y0056000D01*
X0836870Y0056000D01*
X0836870Y0051000D01*
X0835870Y0050000D01*
X0834870Y0050000D01*
X0844870Y0052000D02*
X0848870Y0056000D01*
X0848870Y0057000D01*
X0847870Y0058000D01*
X0845870Y0058000D01*
X0844870Y0057000D01*
X0844870Y0052000D02*
X0848870Y0052000D01*
X0852370Y0053000D02*
X0853370Y0053000D01*
X0853370Y0052000D01*
X0852370Y0052000D01*
X0852370Y0053000D01*
X0856870Y0055000D02*
X0856870Y0053000D01*
X0857870Y0052000D01*
X0859870Y0052000D01*
X0860870Y0053000D01*
X0860870Y0054000D01*
X0859870Y0055000D01*
X0856870Y0055000D01*
X0858870Y0057000D01*
X0860870Y0058000D01*
X0862870Y0052000D02*
X0866870Y0056000D01*
X0866870Y0057000D01*
X0865870Y0058000D01*
X0863870Y0058000D01*
X0862870Y0057000D01*
X0862870Y0052000D02*
X0866870Y0052000D01*
X0868870Y0056000D02*
X0869870Y0055000D01*
X0872870Y0055000D01*
X0872870Y0053000D02*
X0872870Y0057000D01*
X0871870Y0058000D01*
X0869870Y0058000D01*
X0868870Y0057000D01*
X0868870Y0056000D01*
X0868870Y0053000D02*
X0869870Y0052000D01*
X0871870Y0052000D01*
X0872870Y0053000D01*
X0881870Y0057000D02*
X0882870Y0058000D01*
X0882870Y0052000D01*
X0881870Y0052000D02*
X0883870Y0052000D01*
X0888370Y0053000D02*
X0889370Y0053000D01*
X0889370Y0052000D01*
X0888370Y0052000D01*
X0888370Y0053000D01*
X0892870Y0055000D02*
X0896870Y0055000D01*
X0895870Y0052000D02*
X0895870Y0058000D01*
X0892870Y0055000D01*
X0899870Y0057000D02*
X0900870Y0058000D01*
X0900870Y0052000D01*
X0899870Y0052000D02*
X0901870Y0052000D01*
X0904870Y0055000D02*
X0906870Y0056000D01*
X0907870Y0056000D01*
X0908870Y0055000D01*
X0908870Y0053000D01*
X0907870Y0052000D01*
X0905870Y0052000D01*
X0904870Y0053000D01*
X0904870Y0055000D02*
X0904870Y0058000D01*
X0908870Y0058000D01*
X0790870Y0062500D02*
X0794870Y0062500D01*
X0790870Y0062500D02*
X0790870Y0068500D01*
X0800870Y0064500D02*
X0797870Y0064500D01*
X0796870Y0063500D01*
X0797870Y0062500D01*
X0800870Y0062500D01*
X0800870Y0065500D01*
X0799870Y0066500D01*
X0797870Y0066500D01*
X0806870Y0066500D02*
X0803870Y0066500D01*
X0802870Y0065500D01*
X0803870Y0064500D01*
X0805870Y0064500D01*
X0806870Y0063500D01*
X0805870Y0062500D01*
X0802870Y0062500D01*
X0812870Y0065500D02*
X0812870Y0064500D01*
X0808870Y0064500D01*
X0808870Y0065500D02*
X0809870Y0066500D01*
X0811870Y0066500D01*
X0812870Y0065500D01*
X0811870Y0062500D02*
X0809870Y0062500D01*
X0808870Y0063500D01*
X0808870Y0065500D01*
X0818370Y0066500D02*
X0817370Y0066500D01*
X0815370Y0064500D01*
X0815370Y0062500D02*
X0815370Y0066500D01*
X0824870Y0068500D02*
X0820870Y0068500D01*
X0822870Y0068500D02*
X0822870Y0062500D01*
X0830870Y0064500D02*
X0827870Y0064500D01*
X0826870Y0063500D01*
X0827870Y0062500D01*
X0830870Y0062500D01*
X0830870Y0065500D01*
X0829870Y0066500D01*
X0827870Y0066500D01*
X0836870Y0062500D02*
X0833870Y0062500D01*
X0832870Y0063500D01*
X0832870Y0065500D01*
X0833870Y0066500D01*
X0836870Y0066500D01*
X0836870Y0061500D01*
X0835870Y0060500D01*
X0834870Y0060500D01*
X0844870Y0062500D02*
X0848870Y0066500D01*
X0848870Y0067500D01*
X0847870Y0068500D01*
X0845870Y0068500D01*
X0844870Y0067500D01*
X0844870Y0062500D02*
X0848870Y0062500D01*
X0852370Y0063500D02*
X0853370Y0063500D01*
X0853370Y0062500D01*
X0852370Y0062500D01*
X0852370Y0063500D01*
X0856870Y0065500D02*
X0856870Y0063500D01*
X0857870Y0062500D01*
X0859870Y0062500D01*
X0860870Y0063500D01*
X0860870Y0064500D01*
X0859870Y0065500D01*
X0856870Y0065500D01*
X0858870Y0067500D01*
X0860870Y0068500D01*
X0862870Y0062500D02*
X0866870Y0066500D01*
X0866870Y0067500D01*
X0865870Y0068500D01*
X0863870Y0068500D01*
X0862870Y0067500D01*
X0862870Y0062500D02*
X0866870Y0062500D01*
X0868870Y0066500D02*
X0869870Y0065500D01*
X0872870Y0065500D01*
X0872870Y0063500D02*
X0872870Y0067500D01*
X0871870Y0068500D01*
X0869870Y0068500D01*
X0868870Y0067500D01*
X0868870Y0066500D01*
X0868870Y0063500D02*
X0869870Y0062500D01*
X0871870Y0062500D01*
X0872870Y0063500D01*
X0881870Y0062500D02*
X0880870Y0063500D01*
X0884870Y0067500D01*
X0884870Y0063500D01*
X0883870Y0062500D01*
X0881870Y0062500D01*
X0880870Y0063500D02*
X0880870Y0067500D01*
X0881870Y0068500D01*
X0883870Y0068500D01*
X0884870Y0067500D01*
X0888370Y0063500D02*
X0889370Y0063500D01*
X0889370Y0062500D01*
X0888370Y0062500D01*
X0888370Y0063500D01*
X0892870Y0062500D02*
X0896870Y0066500D01*
X0896870Y0067500D01*
X0895870Y0068500D01*
X0893870Y0068500D01*
X0892870Y0067500D01*
X0892870Y0062500D02*
X0896870Y0062500D01*
X0899870Y0062500D02*
X0898870Y0063500D01*
X0902870Y0067500D01*
X0902870Y0063500D01*
X0901870Y0062500D01*
X0899870Y0062500D01*
X0898870Y0063500D02*
X0898870Y0067500D01*
X0899870Y0068500D01*
X0901870Y0068500D01*
X0902870Y0067500D01*
X0905870Y0062500D02*
X0904870Y0063500D01*
X0908870Y0067500D01*
X0908870Y0063500D01*
X0907870Y0062500D01*
X0905870Y0062500D01*
X0904870Y0063500D02*
X0904870Y0067500D01*
X0905870Y0068500D01*
X0907870Y0068500D01*
X0908870Y0067500D01*
X0790870Y0073000D02*
X0794870Y0073000D01*
X0790870Y0073000D02*
X0790870Y0079000D01*
X0800870Y0075000D02*
X0797870Y0075000D01*
X0796870Y0074000D01*
X0797870Y0073000D01*
X0800870Y0073000D01*
X0800870Y0076000D01*
X0799870Y0077000D01*
X0797870Y0077000D01*
X0806870Y0077000D02*
X0803870Y0077000D01*
X0802870Y0076000D01*
X0803870Y0075000D01*
X0805870Y0075000D01*
X0806870Y0074000D01*
X0805870Y0073000D01*
X0802870Y0073000D01*
X0812870Y0076000D02*
X0812870Y0075000D01*
X0808870Y0075000D01*
X0808870Y0076000D02*
X0809870Y0077000D01*
X0811870Y0077000D01*
X0812870Y0076000D01*
X0811870Y0073000D02*
X0809870Y0073000D01*
X0808870Y0074000D01*
X0808870Y0076000D01*
X0818370Y0077000D02*
X0817370Y0077000D01*
X0815370Y0075000D01*
X0815370Y0073000D02*
X0815370Y0077000D01*
X0824870Y0079000D02*
X0820870Y0079000D01*
X0822870Y0079000D02*
X0822870Y0073000D01*
X0830870Y0075000D02*
X0827870Y0075000D01*
X0826870Y0074000D01*
X0827870Y0073000D01*
X0830870Y0073000D01*
X0830870Y0076000D01*
X0829870Y0077000D01*
X0827870Y0077000D01*
X0836870Y0073000D02*
X0833870Y0073000D01*
X0832870Y0074000D01*
X0832870Y0076000D01*
X0833870Y0077000D01*
X0836870Y0077000D01*
X0836870Y0072000D01*
X0835870Y0071000D01*
X0834870Y0071000D01*
X0845870Y0073000D02*
X0844870Y0074000D01*
X0848870Y0078000D01*
X0848870Y0074000D01*
X0847870Y0073000D01*
X0845870Y0073000D01*
X0844870Y0074000D02*
X0844870Y0078000D01*
X0845870Y0079000D01*
X0847870Y0079000D01*
X0848870Y0078000D01*
X0852370Y0074000D02*
X0853370Y0074000D01*
X0853370Y0073000D01*
X0852370Y0073000D01*
X0852370Y0074000D01*
X0856870Y0073000D02*
X0860870Y0077000D01*
X0860870Y0078000D01*
X0859870Y0079000D01*
X0857870Y0079000D01*
X0856870Y0078000D01*
X0856870Y0073000D02*
X0860870Y0073000D01*
X0863870Y0073000D02*
X0862870Y0074000D01*
X0866870Y0078000D01*
X0866870Y0074000D01*
X0865870Y0073000D01*
X0863870Y0073000D01*
X0862870Y0074000D02*
X0862870Y0078000D01*
X0863870Y0079000D01*
X0865870Y0079000D01*
X0866870Y0078000D01*
X0869870Y0073000D02*
X0868870Y0074000D01*
X0872870Y0078000D01*
X0872870Y0074000D01*
X0871870Y0073000D01*
X0869870Y0073000D01*
X0868870Y0074000D02*
X0868870Y0078000D01*
X0869870Y0079000D01*
X0871870Y0079000D01*
X0872870Y0078000D01*
X0880870Y0076000D02*
X0882870Y0077000D01*
X0883870Y0077000D01*
X0884870Y0076000D01*
X0884870Y0074000D01*
X0883870Y0073000D01*
X0881870Y0073000D01*
X0880870Y0074000D01*
X0880870Y0076000D02*
X0880870Y0079000D01*
X0884870Y0079000D01*
X0888370Y0074000D02*
X0889370Y0074000D01*
X0889370Y0073000D01*
X0888370Y0073000D01*
X0888370Y0074000D01*
X0892870Y0076000D02*
X0894870Y0077000D01*
X0895870Y0077000D01*
X0896870Y0076000D01*
X0896870Y0074000D01*
X0895870Y0073000D01*
X0893870Y0073000D01*
X0892870Y0074000D01*
X0892870Y0076000D02*
X0892870Y0079000D01*
X0896870Y0079000D01*
X0899870Y0073000D02*
X0898870Y0074000D01*
X0902870Y0078000D01*
X0902870Y0074000D01*
X0901870Y0073000D01*
X0899870Y0073000D01*
X0898870Y0074000D02*
X0898870Y0078000D01*
X0899870Y0079000D01*
X0901870Y0079000D01*
X0902870Y0078000D01*
X0904870Y0076000D02*
X0908870Y0076000D01*
X0907870Y0073000D02*
X0907870Y0079000D01*
X0904870Y0076000D01*
X0790870Y0083500D02*
X0794870Y0083500D01*
X0790870Y0083500D02*
X0790870Y0089500D01*
X0800870Y0085500D02*
X0797870Y0085500D01*
X0796870Y0084500D01*
X0797870Y0083500D01*
X0800870Y0083500D01*
X0800870Y0086500D01*
X0799870Y0087500D01*
X0797870Y0087500D01*
X0806870Y0087500D02*
X0803870Y0087500D01*
X0802870Y0086500D01*
X0803870Y0085500D01*
X0805870Y0085500D01*
X0806870Y0084500D01*
X0805870Y0083500D01*
X0802870Y0083500D01*
X0812870Y0086500D02*
X0812870Y0085500D01*
X0808870Y0085500D01*
X0808870Y0086500D02*
X0809870Y0087500D01*
X0811870Y0087500D01*
X0812870Y0086500D01*
X0811870Y0083500D02*
X0809870Y0083500D01*
X0808870Y0084500D01*
X0808870Y0086500D01*
X0818370Y0087500D02*
X0817370Y0087500D01*
X0815370Y0085500D01*
X0815370Y0083500D02*
X0815370Y0087500D01*
X0824870Y0089500D02*
X0820870Y0089500D01*
X0822870Y0089500D02*
X0822870Y0083500D01*
X0830870Y0085500D02*
X0827870Y0085500D01*
X0826870Y0084500D01*
X0827870Y0083500D01*
X0830870Y0083500D01*
X0830870Y0086500D01*
X0829870Y0087500D01*
X0827870Y0087500D01*
X0836870Y0083500D02*
X0833870Y0083500D01*
X0832870Y0084500D01*
X0832870Y0086500D01*
X0833870Y0087500D01*
X0836870Y0087500D01*
X0836870Y0082500D01*
X0835870Y0081500D01*
X0834870Y0081500D01*
X0842870Y0086500D02*
X0838870Y0086500D01*
X0838870Y0088500D02*
X0842870Y0084500D01*
X0840870Y0084500D02*
X0840870Y0088500D01*
X0842870Y0088500D02*
X0838870Y0084500D01*
X0848370Y0087500D02*
X0847370Y0087500D01*
X0845370Y0085500D01*
X0845370Y0083500D02*
X0845370Y0087500D01*
X0854870Y0084500D02*
X0854870Y0086500D01*
X0853870Y0087500D01*
X0851870Y0087500D01*
X0850870Y0086500D01*
X0850870Y0084500D01*
X0851870Y0083500D01*
X0853870Y0083500D01*
X0854870Y0084500D01*
X0858870Y0088500D02*
X0858870Y0084500D01*
X0859870Y0083500D01*
X0859870Y0087500D02*
X0857870Y0087500D01*
X0866870Y0085500D02*
X0863870Y0085500D01*
X0862870Y0084500D01*
X0863870Y0083500D01*
X0866870Y0083500D01*
X0866870Y0086500D01*
X0865870Y0087500D01*
X0863870Y0087500D01*
X0870870Y0088500D02*
X0870870Y0084500D01*
X0871870Y0083500D01*
X0871870Y0087500D02*
X0869870Y0087500D01*
X0878870Y0086500D02*
X0878870Y0085500D01*
X0874870Y0085500D01*
X0874870Y0086500D02*
X0875870Y0087500D01*
X0877870Y0087500D01*
X0878870Y0086500D01*
X0877870Y0083500D02*
X0875870Y0083500D01*
X0874870Y0084500D01*
X0874870Y0086500D01*
X0884870Y0087500D02*
X0881870Y0087500D01*
X0880870Y0086500D01*
X0880870Y0084500D01*
X0881870Y0083500D01*
X0884870Y0083500D01*
X0884870Y0089500D01*
X0886870Y0087500D02*
X0887870Y0086500D01*
X0890870Y0086500D01*
X0890870Y0084500D02*
X0890870Y0088500D01*
X0889870Y0089500D01*
X0887870Y0089500D01*
X0886870Y0088500D01*
X0886870Y0087500D01*
X0886870Y0084500D02*
X0887870Y0083500D01*
X0889870Y0083500D01*
X0890870Y0084500D01*
X0893870Y0083500D02*
X0892870Y0084500D01*
X0896870Y0088500D01*
X0896870Y0084500D01*
X0895870Y0083500D01*
X0893870Y0083500D01*
X0892870Y0084500D02*
X0892870Y0088500D01*
X0893870Y0089500D01*
X0895870Y0089500D01*
X0896870Y0088500D01*
X0905870Y0088500D02*
X0906870Y0089500D01*
X0906870Y0083500D01*
X0905870Y0083500D02*
X0907870Y0083500D01*
X0912370Y0084500D02*
X0913370Y0084500D01*
X0913370Y0083500D01*
X0912370Y0083500D01*
X0912370Y0084500D01*
X0916870Y0086500D02*
X0920870Y0086500D01*
X0919870Y0083500D02*
X0919870Y0089500D01*
X0916870Y0086500D01*
X0923870Y0088500D02*
X0924870Y0089500D01*
X0924870Y0083500D01*
X0923870Y0083500D02*
X0925870Y0083500D01*
X0928870Y0086500D02*
X0930870Y0087500D01*
X0931870Y0087500D01*
X0932870Y0086500D01*
X0932870Y0084500D01*
X0931870Y0083500D01*
X0929870Y0083500D01*
X0928870Y0084500D01*
X0928870Y0086500D02*
X0928870Y0089500D01*
X0932870Y0089500D01*
X0941870Y0083500D02*
X0940870Y0084500D01*
X0944870Y0088500D01*
X0944870Y0084500D01*
X0943870Y0083500D01*
X0941870Y0083500D01*
X0940870Y0084500D02*
X0940870Y0088500D01*
X0941870Y0089500D01*
X0943870Y0089500D01*
X0944870Y0088500D01*
X0948370Y0084500D02*
X0949370Y0084500D01*
X0949370Y0083500D01*
X0948370Y0083500D01*
X0948370Y0084500D01*
X0952870Y0083500D02*
X0956870Y0087500D01*
X0956870Y0088500D01*
X0955870Y0089500D01*
X0953870Y0089500D01*
X0952870Y0088500D01*
X0952870Y0083500D02*
X0956870Y0083500D01*
X0959870Y0083500D02*
X0958870Y0084500D01*
X0962870Y0088500D01*
X0962870Y0084500D01*
X0961870Y0083500D01*
X0959870Y0083500D01*
X0958870Y0084500D02*
X0958870Y0088500D01*
X0959870Y0089500D01*
X0961870Y0089500D01*
X0962870Y0088500D01*
X0965870Y0083500D02*
X0964870Y0084500D01*
X0968870Y0088500D01*
X0968870Y0084500D01*
X0967870Y0083500D01*
X0965870Y0083500D01*
X0964870Y0084500D02*
X0964870Y0088500D01*
X0965870Y0089500D01*
X0967870Y0089500D01*
X0968870Y0088500D01*
X0790870Y0094000D02*
X0794870Y0094000D01*
X0790870Y0094000D02*
X0790870Y0100000D01*
X0800870Y0096000D02*
X0797870Y0096000D01*
X0796870Y0095000D01*
X0797870Y0094000D01*
X0800870Y0094000D01*
X0800870Y0097000D01*
X0799870Y0098000D01*
X0797870Y0098000D01*
X0806870Y0098000D02*
X0803870Y0098000D01*
X0802870Y0097000D01*
X0803870Y0096000D01*
X0805870Y0096000D01*
X0806870Y0095000D01*
X0805870Y0094000D01*
X0802870Y0094000D01*
X0812870Y0097000D02*
X0812870Y0096000D01*
X0808870Y0096000D01*
X0808870Y0097000D02*
X0809870Y0098000D01*
X0811870Y0098000D01*
X0812870Y0097000D01*
X0811870Y0094000D02*
X0809870Y0094000D01*
X0808870Y0095000D01*
X0808870Y0097000D01*
X0818370Y0098000D02*
X0817370Y0098000D01*
X0815370Y0096000D01*
X0815370Y0094000D02*
X0815370Y0098000D01*
X0824870Y0100000D02*
X0820870Y0100000D01*
X0822870Y0100000D02*
X0822870Y0094000D01*
X0830870Y0096000D02*
X0827870Y0096000D01*
X0826870Y0095000D01*
X0827870Y0094000D01*
X0830870Y0094000D01*
X0830870Y0097000D01*
X0829870Y0098000D01*
X0827870Y0098000D01*
X0836870Y0094000D02*
X0833870Y0094000D01*
X0832870Y0095000D01*
X0832870Y0097000D01*
X0833870Y0098000D01*
X0836870Y0098000D01*
X0836870Y0093000D01*
X0835870Y0092000D01*
X0834870Y0092000D01*
X0845870Y0094000D02*
X0844870Y0095000D01*
X0848870Y0099000D01*
X0848870Y0095000D01*
X0847870Y0094000D01*
X0845870Y0094000D01*
X0844870Y0095000D02*
X0844870Y0099000D01*
X0845870Y0100000D01*
X0847870Y0100000D01*
X0848870Y0099000D01*
X0852370Y0095000D02*
X0853370Y0095000D01*
X0853370Y0094000D01*
X0852370Y0094000D01*
X0852370Y0095000D01*
X0856870Y0094000D02*
X0860870Y0098000D01*
X0860870Y0099000D01*
X0859870Y0100000D01*
X0857870Y0100000D01*
X0856870Y0099000D01*
X0856870Y0094000D02*
X0860870Y0094000D01*
X0863870Y0094000D02*
X0862870Y0095000D01*
X0866870Y0099000D01*
X0866870Y0095000D01*
X0865870Y0094000D01*
X0863870Y0094000D01*
X0862870Y0095000D02*
X0862870Y0099000D01*
X0863870Y0100000D01*
X0865870Y0100000D01*
X0866870Y0099000D01*
X0869870Y0094000D02*
X0868870Y0095000D01*
X0872870Y0099000D01*
X0872870Y0095000D01*
X0871870Y0094000D01*
X0869870Y0094000D01*
X0868870Y0095000D02*
X0868870Y0099000D01*
X0869870Y0100000D01*
X0871870Y0100000D01*
X0872870Y0099000D01*
X0880870Y0097000D02*
X0884870Y0097000D01*
X0883870Y0094000D02*
X0883870Y0100000D01*
X0880870Y0097000D01*
X0888370Y0095000D02*
X0889370Y0095000D01*
X0889370Y0094000D01*
X0888370Y0094000D01*
X0888370Y0095000D01*
X0892870Y0094000D02*
X0896870Y0098000D01*
X0896870Y0099000D01*
X0895870Y0100000D01*
X0893870Y0100000D01*
X0892870Y0099000D01*
X0892870Y0094000D02*
X0896870Y0094000D01*
X0898870Y0098000D02*
X0899870Y0097000D01*
X0902870Y0097000D01*
X0902870Y0095000D02*
X0902870Y0099000D01*
X0901870Y0100000D01*
X0899870Y0100000D01*
X0898870Y0099000D01*
X0898870Y0098000D01*
X0898870Y0095000D02*
X0899870Y0094000D01*
X0901870Y0094000D01*
X0902870Y0095000D01*
X0905870Y0094000D02*
X0904870Y0095000D01*
X0908870Y0099000D01*
X0908870Y0095000D01*
X0907870Y0094000D01*
X0905870Y0094000D01*
X0904870Y0095000D02*
X0904870Y0099000D01*
X0905870Y0100000D01*
X0907870Y0100000D01*
X0908870Y0099000D01*
X0790870Y0104500D02*
X0794870Y0104500D01*
X0790870Y0104500D02*
X0790870Y0110500D01*
X0800870Y0106500D02*
X0797870Y0106500D01*
X0796870Y0105500D01*
X0797870Y0104500D01*
X0800870Y0104500D01*
X0800870Y0107500D01*
X0799870Y0108500D01*
X0797870Y0108500D01*
X0806870Y0108500D02*
X0803870Y0108500D01*
X0802870Y0107500D01*
X0803870Y0106500D01*
X0805870Y0106500D01*
X0806870Y0105500D01*
X0805870Y0104500D01*
X0802870Y0104500D01*
X0812870Y0107500D02*
X0812870Y0106500D01*
X0808870Y0106500D01*
X0808870Y0107500D02*
X0809870Y0108500D01*
X0811870Y0108500D01*
X0812870Y0107500D01*
X0811870Y0104500D02*
X0809870Y0104500D01*
X0808870Y0105500D01*
X0808870Y0107500D01*
X0818370Y0108500D02*
X0817370Y0108500D01*
X0815370Y0106500D01*
X0815370Y0104500D02*
X0815370Y0108500D01*
X0824870Y0110500D02*
X0820870Y0110500D01*
X0822870Y0110500D02*
X0822870Y0104500D01*
X0830870Y0106500D02*
X0827870Y0106500D01*
X0826870Y0105500D01*
X0827870Y0104500D01*
X0830870Y0104500D01*
X0830870Y0107500D01*
X0829870Y0108500D01*
X0827870Y0108500D01*
X0836870Y0104500D02*
X0833870Y0104500D01*
X0832870Y0105500D01*
X0832870Y0107500D01*
X0833870Y0108500D01*
X0836870Y0108500D01*
X0836870Y0103500D01*
X0835870Y0102500D01*
X0834870Y0102500D01*
X0842870Y0107500D02*
X0838870Y0107500D01*
X0838870Y0109500D02*
X0842870Y0105500D01*
X0840870Y0105500D02*
X0840870Y0109500D01*
X0842870Y0109500D02*
X0838870Y0105500D01*
X0848370Y0108500D02*
X0847370Y0108500D01*
X0845370Y0106500D01*
X0845370Y0104500D02*
X0845370Y0108500D01*
X0854870Y0105500D02*
X0854870Y0107500D01*
X0853870Y0108500D01*
X0851870Y0108500D01*
X0850870Y0107500D01*
X0850870Y0105500D01*
X0851870Y0104500D01*
X0853870Y0104500D01*
X0854870Y0105500D01*
X0858870Y0109500D02*
X0858870Y0105500D01*
X0859870Y0104500D01*
X0859870Y0108500D02*
X0857870Y0108500D01*
X0866870Y0106500D02*
X0863870Y0106500D01*
X0862870Y0105500D01*
X0863870Y0104500D01*
X0866870Y0104500D01*
X0866870Y0107500D01*
X0865870Y0108500D01*
X0863870Y0108500D01*
X0870870Y0109500D02*
X0870870Y0105500D01*
X0871870Y0104500D01*
X0871870Y0108500D02*
X0869870Y0108500D01*
X0878870Y0107500D02*
X0878870Y0106500D01*
X0874870Y0106500D01*
X0874870Y0107500D02*
X0875870Y0108500D01*
X0877870Y0108500D01*
X0878870Y0107500D01*
X0877870Y0104500D02*
X0875870Y0104500D01*
X0874870Y0105500D01*
X0874870Y0107500D01*
X0884870Y0108500D02*
X0881870Y0108500D01*
X0880870Y0107500D01*
X0880870Y0105500D01*
X0881870Y0104500D01*
X0884870Y0104500D01*
X0884870Y0110500D01*
X0886870Y0108500D02*
X0887870Y0107500D01*
X0890870Y0107500D01*
X0890870Y0105500D02*
X0890870Y0109500D01*
X0889870Y0110500D01*
X0887870Y0110500D01*
X0886870Y0109500D01*
X0886870Y0108500D01*
X0886870Y0105500D02*
X0887870Y0104500D01*
X0889870Y0104500D01*
X0890870Y0105500D01*
X0893870Y0104500D02*
X0892870Y0105500D01*
X0896870Y0109500D01*
X0896870Y0105500D01*
X0895870Y0104500D01*
X0893870Y0104500D01*
X0892870Y0105500D02*
X0892870Y0109500D01*
X0893870Y0110500D01*
X0895870Y0110500D01*
X0896870Y0109500D01*
X0905870Y0104500D02*
X0904870Y0105500D01*
X0908870Y0109500D01*
X0908870Y0105500D01*
X0907870Y0104500D01*
X0905870Y0104500D01*
X0904870Y0105500D02*
X0904870Y0109500D01*
X0905870Y0110500D01*
X0907870Y0110500D01*
X0908870Y0109500D01*
X0912370Y0105500D02*
X0913370Y0105500D01*
X0913370Y0104500D01*
X0912370Y0104500D01*
X0912370Y0105500D01*
X0916870Y0104500D02*
X0920870Y0108500D01*
X0920870Y0109500D01*
X0919870Y0110500D01*
X0917870Y0110500D01*
X0916870Y0109500D01*
X0916870Y0104500D02*
X0920870Y0104500D01*
X0923870Y0104500D02*
X0922870Y0105500D01*
X0926870Y0109500D01*
X0926870Y0105500D01*
X0925870Y0104500D01*
X0923870Y0104500D01*
X0922870Y0105500D02*
X0922870Y0109500D01*
X0923870Y0110500D01*
X0925870Y0110500D01*
X0926870Y0109500D01*
X0929870Y0104500D02*
X0928870Y0105500D01*
X0932870Y0109500D01*
X0932870Y0105500D01*
X0931870Y0104500D01*
X0929870Y0104500D01*
X0928870Y0105500D02*
X0928870Y0109500D01*
X0929870Y0110500D01*
X0931870Y0110500D01*
X0932870Y0109500D01*
X0941870Y0104500D02*
X0940870Y0105500D01*
X0944870Y0109500D01*
X0944870Y0105500D01*
X0943870Y0104500D01*
X0941870Y0104500D01*
X0940870Y0105500D02*
X0940870Y0109500D01*
X0941870Y0110500D01*
X0943870Y0110500D01*
X0944870Y0109500D01*
X0948370Y0105500D02*
X0949370Y0105500D01*
X0949370Y0104500D01*
X0948370Y0104500D01*
X0948370Y0105500D01*
X0952870Y0104500D02*
X0956870Y0108500D01*
X0956870Y0109500D01*
X0955870Y0110500D01*
X0953870Y0110500D01*
X0952870Y0109500D01*
X0952870Y0104500D02*
X0956870Y0104500D01*
X0959870Y0104500D02*
X0958870Y0105500D01*
X0962870Y0109500D01*
X0962870Y0105500D01*
X0961870Y0104500D01*
X0959870Y0104500D01*
X0958870Y0105500D02*
X0958870Y0109500D01*
X0959870Y0110500D01*
X0961870Y0110500D01*
X0962870Y0109500D01*
X0965870Y0104500D02*
X0964870Y0105500D01*
X0968870Y0109500D01*
X0968870Y0105500D01*
X0967870Y0104500D01*
X0965870Y0104500D01*
X0964870Y0105500D02*
X0964870Y0109500D01*
X0965870Y0110500D01*
X0967870Y0110500D01*
X0968870Y0109500D01*
M02*
