G75*
G70*
%OFA0B0*%
%FSLAX25Y25*%
%IPPOS*%
%LPD*%
%AMOC8*
5,1,8,0,0,1.08239X$1,22.5*
%
%ADD149C,0.06000*%
%ADD163C,0.07400*%
%ADD202C,0.08200*%
%ADD31R,0.07300X0.07300*%
%ADD316C,0.04800*%
%ADD42C,0.08400*%
%ADD520C,0.07300*%
%ADD564R,0.08400X0.08400*%
%ADD635OC8,0.07400*%
X0020000Y0020000D02*
G75*
%LPD*%
D149*
X0107560Y0203750D02*
X0102360Y0203750D01*
X0102360Y0213750D02*
X0107560Y0213750D01*
X0107560Y0223750D02*
X0102360Y0223750D01*
X0102360Y0233750D02*
X0107560Y0233750D01*
X0107560Y0243750D02*
X0102360Y0243750D01*
X0102360Y0253750D02*
X0107560Y0253750D01*
X0107560Y0263750D02*
X0102360Y0263750D01*
X0102360Y0273750D02*
X0107560Y0273750D01*
X0107560Y0283750D02*
X0102360Y0283750D01*
X0102360Y0293750D02*
X0107560Y0293750D01*
X0107560Y0303750D02*
X0102360Y0303750D01*
X0102360Y0313750D02*
X0107560Y0313750D01*
X0107560Y0323750D02*
X0102360Y0323750D01*
X0102360Y0333750D02*
X0107560Y0333750D01*
X0077560Y0333750D02*
X0072360Y0333750D01*
X0072360Y0323750D02*
X0077560Y0323750D01*
X0077560Y0313750D02*
X0072360Y0313750D01*
X0072360Y0303750D02*
X0077560Y0303750D01*
X0077560Y0293750D02*
X0072360Y0293750D01*
X0072360Y0283750D02*
X0077560Y0283750D01*
X0077560Y0273750D02*
X0072360Y0273750D01*
X0072360Y0263750D02*
X0077560Y0263750D01*
X0077560Y0253750D02*
X0072360Y0253750D01*
X0072360Y0243750D02*
X0077560Y0243750D01*
X0077560Y0233750D02*
X0072360Y0233750D01*
X0072360Y0223750D02*
X0077560Y0223750D01*
X0077560Y0213750D02*
X0072360Y0213750D01*
X0072360Y0203750D02*
X0077560Y0203750D01*
D202*
X0074960Y0188750D03*
X0074960Y0173750D03*
X0074960Y0163750D03*
X0064960Y0163750D03*
X0064960Y0133750D03*
X0074960Y0133750D03*
X0079960Y0123750D03*
X0079960Y0113750D03*
X0089960Y0153750D03*
X0094960Y0146250D03*
X0099960Y0153750D03*
X0114960Y0173750D03*
X0114960Y0188750D03*
X0119960Y0203750D03*
X0120960Y0213750D03*
X0119960Y0223750D03*
X0120960Y0233750D03*
X0119960Y0243750D03*
X0120960Y0253750D03*
X0119460Y0268750D03*
X0120460Y0278750D03*
X0119460Y0288750D03*
X0119960Y0303050D03*
X0119960Y0314450D03*
X0114960Y0348750D03*
X0114960Y0388750D03*
X0094960Y0388750D03*
X0094960Y0348750D03*
X0074960Y0348750D03*
X0074960Y0388750D03*
X0059960Y0368750D03*
X0059960Y0328750D03*
X0059960Y0318750D03*
X0059960Y0278750D03*
X0059960Y0268750D03*
X0059960Y0228750D03*
X0094960Y0064250D03*
X0104960Y0063250D03*
X0114960Y0064250D03*
X0114960Y0088750D03*
X0114960Y0098750D03*
X0119960Y0113750D03*
X0119960Y0123750D03*
X0119960Y0148050D03*
X0119960Y0159450D03*
X0122460Y0093750D03*
D520*
X0109810Y0133750D03*
X0094960Y0093750D03*
X0090120Y0133750D03*
X0104960Y0048750D03*
X0114960Y0048750D03*
X0064960Y0203750D03*
X0064960Y0213750D03*
X0054960Y0213750D03*
X0054960Y0203750D03*
X0054960Y0188750D03*
D31*
X0064960Y0188750D03*
X0084960Y0093750D03*
D564*
X0094960Y0033750D03*
D42*
X0114960Y0033750D03*
X0104960Y0033750D03*
D635*
X0059960Y0088750D03*
X0059960Y0098750D03*
X0043780Y0296250D03*
X0074960Y0398750D03*
X0074960Y0408750D03*
X0094960Y0408750D03*
X0094960Y0398750D03*
X0114960Y0398750D03*
X0114960Y0408750D03*
D163*
X0043780Y0307250D03*
X0036150Y0302250D03*
X0036150Y0290250D03*
D316*
X0084960Y0298750D03*
X0020000Y0428950D02*
G75*
%LPD*%
D149*
X0203750Y0456350D02*
X0203750Y0461550D01*
X0213750Y0461550D02*
X0213750Y0456350D01*
X0223750Y0456350D02*
X0223750Y0461550D01*
X0233750Y0461550D02*
X0233750Y0456350D01*
X0243750Y0456350D02*
X0243750Y0461550D01*
X0253750Y0461550D02*
X0253750Y0456350D01*
X0263750Y0456350D02*
X0263750Y0461550D01*
X0273750Y0461550D02*
X0273750Y0456350D01*
X0283750Y0456350D02*
X0283750Y0461550D01*
X0293750Y0461550D02*
X0293750Y0456350D01*
X0303750Y0456350D02*
X0303750Y0461550D01*
X0313750Y0461550D02*
X0313750Y0456350D01*
X0323750Y0456350D02*
X0323750Y0461550D01*
X0333750Y0461550D02*
X0333750Y0456350D01*
X0333750Y0486350D02*
X0333750Y0491550D01*
X0323750Y0491550D02*
X0323750Y0486350D01*
X0313750Y0486350D02*
X0313750Y0491550D01*
X0303750Y0491550D02*
X0303750Y0486350D01*
X0293750Y0486350D02*
X0293750Y0491550D01*
X0283750Y0491550D02*
X0283750Y0486350D01*
X0273750Y0486350D02*
X0273750Y0491550D01*
X0263750Y0491550D02*
X0263750Y0486350D01*
X0253750Y0486350D02*
X0253750Y0491550D01*
X0243750Y0491550D02*
X0243750Y0486350D01*
X0233750Y0486350D02*
X0233750Y0491550D01*
X0223750Y0491550D02*
X0223750Y0486350D01*
X0213750Y0486350D02*
X0213750Y0491550D01*
X0203750Y0491550D02*
X0203750Y0486350D01*
D202*
X0188750Y0488950D03*
X0173750Y0488950D03*
X0163750Y0488950D03*
X0163750Y0498950D03*
X0133750Y0498950D03*
X0133750Y0488950D03*
X0123750Y0483950D03*
X0113750Y0483950D03*
X0153750Y0473950D03*
X0146250Y0468950D03*
X0153750Y0463950D03*
X0173750Y0448950D03*
X0188750Y0448950D03*
X0203750Y0443950D03*
X0213750Y0442950D03*
X0223750Y0443950D03*
X0233750Y0442950D03*
X0243750Y0443950D03*
X0253750Y0442950D03*
X0268750Y0444450D03*
X0278750Y0443450D03*
X0288750Y0444450D03*
X0303050Y0443950D03*
X0314450Y0443950D03*
X0348750Y0448950D03*
X0388750Y0448950D03*
X0388750Y0468950D03*
X0348750Y0468950D03*
X0348750Y0488950D03*
X0388750Y0488950D03*
X0368750Y0503950D03*
X0328750Y0503950D03*
X0318750Y0503950D03*
X0278750Y0503950D03*
X0268750Y0503950D03*
X0228750Y0503950D03*
X0064250Y0468950D03*
X0063250Y0458950D03*
X0064250Y0448950D03*
X0088750Y0448950D03*
X0098750Y0448950D03*
X0113750Y0443950D03*
X0123750Y0443950D03*
X0148050Y0443950D03*
X0159450Y0443950D03*
X0093750Y0441450D03*
D520*
X0133750Y0454100D03*
X0093750Y0468950D03*
X0133750Y0473790D03*
X0048750Y0458950D03*
X0048750Y0448950D03*
X0203750Y0498950D03*
X0213750Y0498950D03*
X0213750Y0508950D03*
X0203750Y0508950D03*
X0188750Y0508950D03*
D31*
X0188750Y0498950D03*
X0093750Y0478950D03*
D564*
X0033750Y0468950D03*
D42*
X0033750Y0448950D03*
X0033750Y0458950D03*
D635*
X0088750Y0503950D03*
X0098750Y0503950D03*
X0296250Y0520130D03*
X0398750Y0488950D03*
X0408750Y0488950D03*
X0408750Y0468950D03*
X0398750Y0468950D03*
X0398750Y0448950D03*
X0408750Y0448950D03*
D163*
X0307250Y0520130D03*
X0302250Y0527760D03*
X0290250Y0527760D03*
D316*
X0298750Y0478950D03*
X0141460Y0020000D02*
G75*
%LPD*%
D149*
X0229020Y0203750D02*
X0223820Y0203750D01*
X0223820Y0213750D02*
X0229020Y0213750D01*
X0229020Y0223750D02*
X0223820Y0223750D01*
X0223820Y0233750D02*
X0229020Y0233750D01*
X0229020Y0243750D02*
X0223820Y0243750D01*
X0223820Y0253750D02*
X0229020Y0253750D01*
X0229020Y0263750D02*
X0223820Y0263750D01*
X0223820Y0273750D02*
X0229020Y0273750D01*
X0229020Y0283750D02*
X0223820Y0283750D01*
X0223820Y0293750D02*
X0229020Y0293750D01*
X0229020Y0303750D02*
X0223820Y0303750D01*
X0223820Y0313750D02*
X0229020Y0313750D01*
X0229020Y0323750D02*
X0223820Y0323750D01*
X0223820Y0333750D02*
X0229020Y0333750D01*
X0199020Y0333750D02*
X0193820Y0333750D01*
X0193820Y0323750D02*
X0199020Y0323750D01*
X0199020Y0313750D02*
X0193820Y0313750D01*
X0193820Y0303750D02*
X0199020Y0303750D01*
X0199020Y0293750D02*
X0193820Y0293750D01*
X0193820Y0283750D02*
X0199020Y0283750D01*
X0199020Y0273750D02*
X0193820Y0273750D01*
X0193820Y0263750D02*
X0199020Y0263750D01*
X0199020Y0253750D02*
X0193820Y0253750D01*
X0193820Y0243750D02*
X0199020Y0243750D01*
X0199020Y0233750D02*
X0193820Y0233750D01*
X0193820Y0223750D02*
X0199020Y0223750D01*
X0199020Y0213750D02*
X0193820Y0213750D01*
X0193820Y0203750D02*
X0199020Y0203750D01*
D202*
X0196420Y0188750D03*
X0196420Y0173750D03*
X0196420Y0163750D03*
X0186420Y0163750D03*
X0186420Y0133750D03*
X0196420Y0133750D03*
X0201420Y0123750D03*
X0201420Y0113750D03*
X0211420Y0153750D03*
X0216420Y0146250D03*
X0221420Y0153750D03*
X0236420Y0173750D03*
X0236420Y0188750D03*
X0241420Y0203750D03*
X0242420Y0213750D03*
X0241420Y0223750D03*
X0242420Y0233750D03*
X0241420Y0243750D03*
X0242420Y0253750D03*
X0240920Y0268750D03*
X0241920Y0278750D03*
X0240920Y0288750D03*
X0241420Y0303050D03*
X0241420Y0314450D03*
X0236420Y0348750D03*
X0236420Y0388750D03*
X0216420Y0388750D03*
X0216420Y0348750D03*
X0196420Y0348750D03*
X0196420Y0388750D03*
X0181420Y0368750D03*
X0181420Y0328750D03*
X0181420Y0318750D03*
X0181420Y0278750D03*
X0181420Y0268750D03*
X0181420Y0228750D03*
X0216420Y0064250D03*
X0226420Y0063250D03*
X0236420Y0064250D03*
X0236420Y0088750D03*
X0236420Y0098750D03*
X0241420Y0113750D03*
X0241420Y0123750D03*
X0241420Y0148050D03*
X0241420Y0159450D03*
X0243920Y0093750D03*
D520*
X0231270Y0133750D03*
X0216420Y0093750D03*
X0211580Y0133750D03*
X0226420Y0048750D03*
X0236420Y0048750D03*
X0186420Y0203750D03*
X0186420Y0213750D03*
X0176420Y0213750D03*
X0176420Y0203750D03*
X0176420Y0188750D03*
D31*
X0186420Y0188750D03*
X0206420Y0093750D03*
D564*
X0216420Y0033750D03*
D42*
X0236420Y0033750D03*
X0226420Y0033750D03*
D635*
X0181420Y0088750D03*
X0181420Y0098750D03*
X0165240Y0296250D03*
X0196420Y0398750D03*
X0196420Y0408750D03*
X0216420Y0408750D03*
X0216420Y0398750D03*
X0236420Y0398750D03*
X0236420Y0408750D03*
D163*
X0165240Y0307250D03*
X0157610Y0302250D03*
X0157610Y0290250D03*
D316*
X0206420Y0298750D03*
X0020000Y0550410D02*
G75*
%LPD*%
D149*
X0203750Y0577810D02*
X0203750Y0583010D01*
X0213750Y0583010D02*
X0213750Y0577810D01*
X0223750Y0577810D02*
X0223750Y0583010D01*
X0233750Y0583010D02*
X0233750Y0577810D01*
X0243750Y0577810D02*
X0243750Y0583010D01*
X0253750Y0583010D02*
X0253750Y0577810D01*
X0263750Y0577810D02*
X0263750Y0583010D01*
X0273750Y0583010D02*
X0273750Y0577810D01*
X0283750Y0577810D02*
X0283750Y0583010D01*
X0293750Y0583010D02*
X0293750Y0577810D01*
X0303750Y0577810D02*
X0303750Y0583010D01*
X0313750Y0583010D02*
X0313750Y0577810D01*
X0323750Y0577810D02*
X0323750Y0583010D01*
X0333750Y0583010D02*
X0333750Y0577810D01*
X0333750Y0607810D02*
X0333750Y0613010D01*
X0323750Y0613010D02*
X0323750Y0607810D01*
X0313750Y0607810D02*
X0313750Y0613010D01*
X0303750Y0613010D02*
X0303750Y0607810D01*
X0293750Y0607810D02*
X0293750Y0613010D01*
X0283750Y0613010D02*
X0283750Y0607810D01*
X0273750Y0607810D02*
X0273750Y0613010D01*
X0263750Y0613010D02*
X0263750Y0607810D01*
X0253750Y0607810D02*
X0253750Y0613010D01*
X0243750Y0613010D02*
X0243750Y0607810D01*
X0233750Y0607810D02*
X0233750Y0613010D01*
X0223750Y0613010D02*
X0223750Y0607810D01*
X0213750Y0607810D02*
X0213750Y0613010D01*
X0203750Y0613010D02*
X0203750Y0607810D01*
D202*
X0188750Y0610410D03*
X0173750Y0610410D03*
X0163750Y0610410D03*
X0163750Y0620410D03*
X0133750Y0620410D03*
X0133750Y0610410D03*
X0123750Y0605410D03*
X0113750Y0605410D03*
X0153750Y0595410D03*
X0146250Y0590410D03*
X0153750Y0585410D03*
X0173750Y0570410D03*
X0188750Y0570410D03*
X0203750Y0565410D03*
X0213750Y0564410D03*
X0223750Y0565410D03*
X0233750Y0564410D03*
X0243750Y0565410D03*
X0253750Y0564410D03*
X0268750Y0565910D03*
X0278750Y0564910D03*
X0288750Y0565910D03*
X0303050Y0565410D03*
X0314450Y0565410D03*
X0348750Y0570410D03*
X0388750Y0570410D03*
X0388750Y0590410D03*
X0348750Y0590410D03*
X0348750Y0610410D03*
X0388750Y0610410D03*
X0368750Y0625410D03*
X0328750Y0625410D03*
X0318750Y0625410D03*
X0278750Y0625410D03*
X0268750Y0625410D03*
X0228750Y0625410D03*
X0064250Y0590410D03*
X0063250Y0580410D03*
X0064250Y0570410D03*
X0088750Y0570410D03*
X0098750Y0570410D03*
X0113750Y0565410D03*
X0123750Y0565410D03*
X0148050Y0565410D03*
X0159450Y0565410D03*
X0093750Y0562910D03*
D520*
X0133750Y0575560D03*
X0093750Y0590410D03*
X0133750Y0595250D03*
X0048750Y0580410D03*
X0048750Y0570410D03*
X0203750Y0620410D03*
X0213750Y0620410D03*
X0213750Y0630410D03*
X0203750Y0630410D03*
X0188750Y0630410D03*
D31*
X0188750Y0620410D03*
X0093750Y0600410D03*
D564*
X0033750Y0590410D03*
D42*
X0033750Y0570410D03*
X0033750Y0580410D03*
D635*
X0088750Y0625410D03*
X0098750Y0625410D03*
X0296250Y0641590D03*
X0398750Y0610410D03*
X0408750Y0610410D03*
X0408750Y0590410D03*
X0398750Y0590410D03*
X0398750Y0570410D03*
X0408750Y0570410D03*
D163*
X0307250Y0641590D03*
X0302250Y0649220D03*
X0290250Y0649220D03*
D316*
X0298750Y0600410D03*
X0262920Y0020000D02*
G75*
%LPD*%
D149*
X0446670Y0047400D02*
X0446670Y0052600D01*
X0456670Y0052600D02*
X0456670Y0047400D01*
X0466670Y0047400D02*
X0466670Y0052600D01*
X0476670Y0052600D02*
X0476670Y0047400D01*
X0486670Y0047400D02*
X0486670Y0052600D01*
X0496670Y0052600D02*
X0496670Y0047400D01*
X0506670Y0047400D02*
X0506670Y0052600D01*
X0516670Y0052600D02*
X0516670Y0047400D01*
X0526670Y0047400D02*
X0526670Y0052600D01*
X0536670Y0052600D02*
X0536670Y0047400D01*
X0546670Y0047400D02*
X0546670Y0052600D01*
X0556670Y0052600D02*
X0556670Y0047400D01*
X0566670Y0047400D02*
X0566670Y0052600D01*
X0576670Y0052600D02*
X0576670Y0047400D01*
X0576670Y0077400D02*
X0576670Y0082600D01*
X0566670Y0082600D02*
X0566670Y0077400D01*
X0556670Y0077400D02*
X0556670Y0082600D01*
X0546670Y0082600D02*
X0546670Y0077400D01*
X0536670Y0077400D02*
X0536670Y0082600D01*
X0526670Y0082600D02*
X0526670Y0077400D01*
X0516670Y0077400D02*
X0516670Y0082600D01*
X0506670Y0082600D02*
X0506670Y0077400D01*
X0496670Y0077400D02*
X0496670Y0082600D01*
X0486670Y0082600D02*
X0486670Y0077400D01*
X0476670Y0077400D02*
X0476670Y0082600D01*
X0466670Y0082600D02*
X0466670Y0077400D01*
X0456670Y0077400D02*
X0456670Y0082600D01*
X0446670Y0082600D02*
X0446670Y0077400D01*
D202*
X0431670Y0080000D03*
X0416670Y0080000D03*
X0406670Y0080000D03*
X0406670Y0090000D03*
X0376670Y0090000D03*
X0376670Y0080000D03*
X0366670Y0075000D03*
X0356670Y0075000D03*
X0396670Y0065000D03*
X0389170Y0060000D03*
X0396670Y0055000D03*
X0416670Y0040000D03*
X0431670Y0040000D03*
X0446670Y0035000D03*
X0456670Y0034000D03*
X0466670Y0035000D03*
X0476670Y0034000D03*
X0486670Y0035000D03*
X0496670Y0034000D03*
X0511670Y0035500D03*
X0521670Y0034500D03*
X0531670Y0035500D03*
X0545970Y0035000D03*
X0557370Y0035000D03*
X0591670Y0040000D03*
X0631670Y0040000D03*
X0631670Y0060000D03*
X0591670Y0060000D03*
X0591670Y0080000D03*
X0631670Y0080000D03*
X0611670Y0095000D03*
X0571670Y0095000D03*
X0561670Y0095000D03*
X0521670Y0095000D03*
X0511670Y0095000D03*
X0471670Y0095000D03*
X0307170Y0060000D03*
X0306170Y0050000D03*
X0307170Y0040000D03*
X0331670Y0040000D03*
X0341670Y0040000D03*
X0356670Y0035000D03*
X0366670Y0035000D03*
X0390970Y0035000D03*
X0402370Y0035000D03*
X0336670Y0032500D03*
D520*
X0376670Y0045150D03*
X0336670Y0060000D03*
X0376670Y0064840D03*
X0291670Y0050000D03*
X0291670Y0040000D03*
X0446670Y0090000D03*
X0456670Y0090000D03*
X0456670Y0100000D03*
X0446670Y0100000D03*
X0431670Y0100000D03*
D31*
X0431670Y0090000D03*
X0336670Y0070000D03*
D564*
X0276670Y0060000D03*
D42*
X0276670Y0040000D03*
X0276670Y0050000D03*
D635*
X0331670Y0095000D03*
X0341670Y0095000D03*
X0539170Y0111180D03*
X0641670Y0080000D03*
X0651670Y0080000D03*
X0651670Y0060000D03*
X0641670Y0060000D03*
X0641670Y0040000D03*
X0651670Y0040000D03*
D163*
X0550170Y0111180D03*
X0545170Y0118810D03*
X0533170Y0118810D03*
D316*
X0541670Y0070000D03*
X0262920Y0141460D02*
G75*
%LPD*%
D149*
X0446670Y0168860D02*
X0446670Y0174060D01*
X0456670Y0174060D02*
X0456670Y0168860D01*
X0466670Y0168860D02*
X0466670Y0174060D01*
X0476670Y0174060D02*
X0476670Y0168860D01*
X0486670Y0168860D02*
X0486670Y0174060D01*
X0496670Y0174060D02*
X0496670Y0168860D01*
X0506670Y0168860D02*
X0506670Y0174060D01*
X0516670Y0174060D02*
X0516670Y0168860D01*
X0526670Y0168860D02*
X0526670Y0174060D01*
X0536670Y0174060D02*
X0536670Y0168860D01*
X0546670Y0168860D02*
X0546670Y0174060D01*
X0556670Y0174060D02*
X0556670Y0168860D01*
X0566670Y0168860D02*
X0566670Y0174060D01*
X0576670Y0174060D02*
X0576670Y0168860D01*
X0576670Y0198860D02*
X0576670Y0204060D01*
X0566670Y0204060D02*
X0566670Y0198860D01*
X0556670Y0198860D02*
X0556670Y0204060D01*
X0546670Y0204060D02*
X0546670Y0198860D01*
X0536670Y0198860D02*
X0536670Y0204060D01*
X0526670Y0204060D02*
X0526670Y0198860D01*
X0516670Y0198860D02*
X0516670Y0204060D01*
X0506670Y0204060D02*
X0506670Y0198860D01*
X0496670Y0198860D02*
X0496670Y0204060D01*
X0486670Y0204060D02*
X0486670Y0198860D01*
X0476670Y0198860D02*
X0476670Y0204060D01*
X0466670Y0204060D02*
X0466670Y0198860D01*
X0456670Y0198860D02*
X0456670Y0204060D01*
X0446670Y0204060D02*
X0446670Y0198860D01*
D202*
X0431670Y0201460D03*
X0416670Y0201460D03*
X0406670Y0201460D03*
X0406670Y0211460D03*
X0376670Y0211460D03*
X0376670Y0201460D03*
X0366670Y0196460D03*
X0356670Y0196460D03*
X0396670Y0186460D03*
X0389170Y0181460D03*
X0396670Y0176460D03*
X0416670Y0161460D03*
X0431670Y0161460D03*
X0446670Y0156460D03*
X0456670Y0155460D03*
X0466670Y0156460D03*
X0476670Y0155460D03*
X0486670Y0156460D03*
X0496670Y0155460D03*
X0511670Y0156960D03*
X0521670Y0155960D03*
X0531670Y0156960D03*
X0545970Y0156460D03*
X0557370Y0156460D03*
X0591670Y0161460D03*
X0631670Y0161460D03*
X0631670Y0181460D03*
X0591670Y0181460D03*
X0591670Y0201460D03*
X0631670Y0201460D03*
X0611670Y0216460D03*
X0571670Y0216460D03*
X0561670Y0216460D03*
X0521670Y0216460D03*
X0511670Y0216460D03*
X0471670Y0216460D03*
X0307170Y0181460D03*
X0306170Y0171460D03*
X0307170Y0161460D03*
X0331670Y0161460D03*
X0341670Y0161460D03*
X0356670Y0156460D03*
X0366670Y0156460D03*
X0390970Y0156460D03*
X0402370Y0156460D03*
X0336670Y0153960D03*
D520*
X0376670Y0166610D03*
X0336670Y0181460D03*
X0376670Y0186300D03*
X0291670Y0171460D03*
X0291670Y0161460D03*
X0446670Y0211460D03*
X0456670Y0211460D03*
X0456670Y0221460D03*
X0446670Y0221460D03*
X0431670Y0221460D03*
D31*
X0431670Y0211460D03*
X0336670Y0191460D03*
D564*
X0276670Y0181460D03*
D42*
X0276670Y0161460D03*
X0276670Y0171460D03*
D635*
X0331670Y0216460D03*
X0341670Y0216460D03*
X0539170Y0232640D03*
X0641670Y0201460D03*
X0651670Y0201460D03*
X0651670Y0181460D03*
X0641670Y0181460D03*
X0641670Y0161460D03*
X0651670Y0161460D03*
D163*
X0550170Y0232640D03*
X0545170Y0240270D03*
X0533170Y0240270D03*
D316*
X0541670Y0191460D03*
X0262920Y0262920D02*
G75*
%LPD*%
D149*
X0446670Y0290320D02*
X0446670Y0295520D01*
X0456670Y0295520D02*
X0456670Y0290320D01*
X0466670Y0290320D02*
X0466670Y0295520D01*
X0476670Y0295520D02*
X0476670Y0290320D01*
X0486670Y0290320D02*
X0486670Y0295520D01*
X0496670Y0295520D02*
X0496670Y0290320D01*
X0506670Y0290320D02*
X0506670Y0295520D01*
X0516670Y0295520D02*
X0516670Y0290320D01*
X0526670Y0290320D02*
X0526670Y0295520D01*
X0536670Y0295520D02*
X0536670Y0290320D01*
X0546670Y0290320D02*
X0546670Y0295520D01*
X0556670Y0295520D02*
X0556670Y0290320D01*
X0566670Y0290320D02*
X0566670Y0295520D01*
X0576670Y0295520D02*
X0576670Y0290320D01*
X0576670Y0320320D02*
X0576670Y0325520D01*
X0566670Y0325520D02*
X0566670Y0320320D01*
X0556670Y0320320D02*
X0556670Y0325520D01*
X0546670Y0325520D02*
X0546670Y0320320D01*
X0536670Y0320320D02*
X0536670Y0325520D01*
X0526670Y0325520D02*
X0526670Y0320320D01*
X0516670Y0320320D02*
X0516670Y0325520D01*
X0506670Y0325520D02*
X0506670Y0320320D01*
X0496670Y0320320D02*
X0496670Y0325520D01*
X0486670Y0325520D02*
X0486670Y0320320D01*
X0476670Y0320320D02*
X0476670Y0325520D01*
X0466670Y0325520D02*
X0466670Y0320320D01*
X0456670Y0320320D02*
X0456670Y0325520D01*
X0446670Y0325520D02*
X0446670Y0320320D01*
D202*
X0431670Y0322920D03*
X0416670Y0322920D03*
X0406670Y0322920D03*
X0406670Y0332920D03*
X0376670Y0332920D03*
X0376670Y0322920D03*
X0366670Y0317920D03*
X0356670Y0317920D03*
X0396670Y0307920D03*
X0389170Y0302920D03*
X0396670Y0297920D03*
X0416670Y0282920D03*
X0431670Y0282920D03*
X0446670Y0277920D03*
X0456670Y0276920D03*
X0466670Y0277920D03*
X0476670Y0276920D03*
X0486670Y0277920D03*
X0496670Y0276920D03*
X0511670Y0278420D03*
X0521670Y0277420D03*
X0531670Y0278420D03*
X0545970Y0277920D03*
X0557370Y0277920D03*
X0591670Y0282920D03*
X0631670Y0282920D03*
X0631670Y0302920D03*
X0591670Y0302920D03*
X0591670Y0322920D03*
X0631670Y0322920D03*
X0611670Y0337920D03*
X0571670Y0337920D03*
X0561670Y0337920D03*
X0521670Y0337920D03*
X0511670Y0337920D03*
X0471670Y0337920D03*
X0307170Y0302920D03*
X0306170Y0292920D03*
X0307170Y0282920D03*
X0331670Y0282920D03*
X0341670Y0282920D03*
X0356670Y0277920D03*
X0366670Y0277920D03*
X0390970Y0277920D03*
X0402370Y0277920D03*
X0336670Y0275420D03*
D520*
X0376670Y0288070D03*
X0336670Y0302920D03*
X0376670Y0307760D03*
X0291670Y0292920D03*
X0291670Y0282920D03*
X0446670Y0332920D03*
X0456670Y0332920D03*
X0456670Y0342920D03*
X0446670Y0342920D03*
X0431670Y0342920D03*
D31*
X0431670Y0332920D03*
X0336670Y0312920D03*
D564*
X0276670Y0302920D03*
D42*
X0276670Y0282920D03*
X0276670Y0292920D03*
D635*
X0331670Y0337920D03*
X0341670Y0337920D03*
X0539170Y0354100D03*
X0641670Y0322920D03*
X0651670Y0322920D03*
X0651670Y0302920D03*
X0641670Y0302920D03*
X0641670Y0282920D03*
X0651670Y0282920D03*
D163*
X0550170Y0354100D03*
X0545170Y0361730D03*
X0533170Y0361730D03*
D316*
X0541670Y0312920D03*
X0020000Y0671870D02*
G75*
%LPD*%
D149*
X0203750Y0699270D02*
X0203750Y0704470D01*
X0213750Y0704470D02*
X0213750Y0699270D01*
X0223750Y0699270D02*
X0223750Y0704470D01*
X0233750Y0704470D02*
X0233750Y0699270D01*
X0243750Y0699270D02*
X0243750Y0704470D01*
X0253750Y0704470D02*
X0253750Y0699270D01*
X0263750Y0699270D02*
X0263750Y0704470D01*
X0273750Y0704470D02*
X0273750Y0699270D01*
X0283750Y0699270D02*
X0283750Y0704470D01*
X0293750Y0704470D02*
X0293750Y0699270D01*
X0303750Y0699270D02*
X0303750Y0704470D01*
X0313750Y0704470D02*
X0313750Y0699270D01*
X0323750Y0699270D02*
X0323750Y0704470D01*
X0333750Y0704470D02*
X0333750Y0699270D01*
X0333750Y0729270D02*
X0333750Y0734470D01*
X0323750Y0734470D02*
X0323750Y0729270D01*
X0313750Y0729270D02*
X0313750Y0734470D01*
X0303750Y0734470D02*
X0303750Y0729270D01*
X0293750Y0729270D02*
X0293750Y0734470D01*
X0283750Y0734470D02*
X0283750Y0729270D01*
X0273750Y0729270D02*
X0273750Y0734470D01*
X0263750Y0734470D02*
X0263750Y0729270D01*
X0253750Y0729270D02*
X0253750Y0734470D01*
X0243750Y0734470D02*
X0243750Y0729270D01*
X0233750Y0729270D02*
X0233750Y0734470D01*
X0223750Y0734470D02*
X0223750Y0729270D01*
X0213750Y0729270D02*
X0213750Y0734470D01*
X0203750Y0734470D02*
X0203750Y0729270D01*
D202*
X0188750Y0731870D03*
X0173750Y0731870D03*
X0163750Y0731870D03*
X0163750Y0741870D03*
X0133750Y0741870D03*
X0133750Y0731870D03*
X0123750Y0726870D03*
X0113750Y0726870D03*
X0153750Y0716870D03*
X0146250Y0711870D03*
X0153750Y0706870D03*
X0173750Y0691870D03*
X0188750Y0691870D03*
X0203750Y0686870D03*
X0213750Y0685870D03*
X0223750Y0686870D03*
X0233750Y0685870D03*
X0243750Y0686870D03*
X0253750Y0685870D03*
X0268750Y0687370D03*
X0278750Y0686370D03*
X0288750Y0687370D03*
X0303050Y0686870D03*
X0314450Y0686870D03*
X0348750Y0691870D03*
X0388750Y0691870D03*
X0388750Y0711870D03*
X0348750Y0711870D03*
X0348750Y0731870D03*
X0388750Y0731870D03*
X0368750Y0746870D03*
X0328750Y0746870D03*
X0318750Y0746870D03*
X0278750Y0746870D03*
X0268750Y0746870D03*
X0228750Y0746870D03*
X0064250Y0711870D03*
X0063250Y0701870D03*
X0064250Y0691870D03*
X0088750Y0691870D03*
X0098750Y0691870D03*
X0113750Y0686870D03*
X0123750Y0686870D03*
X0148050Y0686870D03*
X0159450Y0686870D03*
X0093750Y0684370D03*
D520*
X0133750Y0697020D03*
X0093750Y0711870D03*
X0133750Y0716710D03*
X0048750Y0701870D03*
X0048750Y0691870D03*
X0203750Y0741870D03*
X0213750Y0741870D03*
X0213750Y0751870D03*
X0203750Y0751870D03*
X0188750Y0751870D03*
D31*
X0188750Y0741870D03*
X0093750Y0721870D03*
D564*
X0033750Y0711870D03*
D42*
X0033750Y0691870D03*
X0033750Y0701870D03*
D635*
X0088750Y0746870D03*
X0098750Y0746870D03*
X0296250Y0763050D03*
X0398750Y0731870D03*
X0408750Y0731870D03*
X0408750Y0711870D03*
X0398750Y0711870D03*
X0398750Y0691870D03*
X0408750Y0691870D03*
D163*
X0307250Y0763050D03*
X0302250Y0770680D03*
X0290250Y0770680D03*
D316*
X0298750Y0721870D03*
X0428950Y0384380D02*
G75*
%LPD*%
D149*
X0516510Y0568130D02*
X0511310Y0568130D01*
X0511310Y0578130D02*
X0516510Y0578130D01*
X0516510Y0588130D02*
X0511310Y0588130D01*
X0511310Y0598130D02*
X0516510Y0598130D01*
X0516510Y0608130D02*
X0511310Y0608130D01*
X0511310Y0618130D02*
X0516510Y0618130D01*
X0516510Y0628130D02*
X0511310Y0628130D01*
X0511310Y0638130D02*
X0516510Y0638130D01*
X0516510Y0648130D02*
X0511310Y0648130D01*
X0511310Y0658130D02*
X0516510Y0658130D01*
X0516510Y0668130D02*
X0511310Y0668130D01*
X0511310Y0678130D02*
X0516510Y0678130D01*
X0516510Y0688130D02*
X0511310Y0688130D01*
X0511310Y0698130D02*
X0516510Y0698130D01*
X0486510Y0698130D02*
X0481310Y0698130D01*
X0481310Y0688130D02*
X0486510Y0688130D01*
X0486510Y0678130D02*
X0481310Y0678130D01*
X0481310Y0668130D02*
X0486510Y0668130D01*
X0486510Y0658130D02*
X0481310Y0658130D01*
X0481310Y0648130D02*
X0486510Y0648130D01*
X0486510Y0638130D02*
X0481310Y0638130D01*
X0481310Y0628130D02*
X0486510Y0628130D01*
X0486510Y0618130D02*
X0481310Y0618130D01*
X0481310Y0608130D02*
X0486510Y0608130D01*
X0486510Y0598130D02*
X0481310Y0598130D01*
X0481310Y0588130D02*
X0486510Y0588130D01*
X0486510Y0578130D02*
X0481310Y0578130D01*
X0481310Y0568130D02*
X0486510Y0568130D01*
D202*
X0483910Y0553130D03*
X0483910Y0538130D03*
X0483910Y0528130D03*
X0473910Y0528130D03*
X0473910Y0498130D03*
X0483910Y0498130D03*
X0488910Y0488130D03*
X0488910Y0478130D03*
X0498910Y0518130D03*
X0503910Y0510630D03*
X0508910Y0518130D03*
X0523910Y0538130D03*
X0523910Y0553130D03*
X0528910Y0568130D03*
X0529910Y0578130D03*
X0528910Y0588130D03*
X0529910Y0598130D03*
X0528910Y0608130D03*
X0529910Y0618130D03*
X0528410Y0633130D03*
X0529410Y0643130D03*
X0528410Y0653130D03*
X0528910Y0667430D03*
X0528910Y0678830D03*
X0523910Y0713130D03*
X0523910Y0753130D03*
X0503910Y0753130D03*
X0503910Y0713130D03*
X0483910Y0713130D03*
X0483910Y0753130D03*
X0468910Y0733130D03*
X0468910Y0693130D03*
X0468910Y0683130D03*
X0468910Y0643130D03*
X0468910Y0633130D03*
X0468910Y0593130D03*
X0503910Y0428630D03*
X0513910Y0427630D03*
X0523910Y0428630D03*
X0523910Y0453130D03*
X0523910Y0463130D03*
X0528910Y0478130D03*
X0528910Y0488130D03*
X0528910Y0512430D03*
X0528910Y0523830D03*
X0531410Y0458130D03*
D520*
X0518760Y0498130D03*
X0503910Y0458130D03*
X0499070Y0498130D03*
X0513910Y0413130D03*
X0523910Y0413130D03*
X0473910Y0568130D03*
X0473910Y0578130D03*
X0463910Y0578130D03*
X0463910Y0568130D03*
X0463910Y0553130D03*
D31*
X0473910Y0553130D03*
X0493910Y0458130D03*
D564*
X0503910Y0398130D03*
D42*
X0523910Y0398130D03*
X0513910Y0398130D03*
D635*
X0468910Y0453130D03*
X0468910Y0463130D03*
X0452730Y0660630D03*
X0483910Y0763130D03*
X0483910Y0773130D03*
X0503910Y0773130D03*
X0503910Y0763130D03*
X0523910Y0763130D03*
X0523910Y0773130D03*
D163*
X0452730Y0671630D03*
X0445100Y0666630D03*
X0445100Y0654630D03*
D316*
X0493910Y0663130D03*
X0550410Y0384380D02*
G75*
%LPD*%
D149*
X0637970Y0568130D02*
X0632770Y0568130D01*
X0632770Y0578130D02*
X0637970Y0578130D01*
X0637970Y0588130D02*
X0632770Y0588130D01*
X0632770Y0598130D02*
X0637970Y0598130D01*
X0637970Y0608130D02*
X0632770Y0608130D01*
X0632770Y0618130D02*
X0637970Y0618130D01*
X0637970Y0628130D02*
X0632770Y0628130D01*
X0632770Y0638130D02*
X0637970Y0638130D01*
X0637970Y0648130D02*
X0632770Y0648130D01*
X0632770Y0658130D02*
X0637970Y0658130D01*
X0637970Y0668130D02*
X0632770Y0668130D01*
X0632770Y0678130D02*
X0637970Y0678130D01*
X0637970Y0688130D02*
X0632770Y0688130D01*
X0632770Y0698130D02*
X0637970Y0698130D01*
X0607970Y0698130D02*
X0602770Y0698130D01*
X0602770Y0688130D02*
X0607970Y0688130D01*
X0607970Y0678130D02*
X0602770Y0678130D01*
X0602770Y0668130D02*
X0607970Y0668130D01*
X0607970Y0658130D02*
X0602770Y0658130D01*
X0602770Y0648130D02*
X0607970Y0648130D01*
X0607970Y0638130D02*
X0602770Y0638130D01*
X0602770Y0628130D02*
X0607970Y0628130D01*
X0607970Y0618130D02*
X0602770Y0618130D01*
X0602770Y0608130D02*
X0607970Y0608130D01*
X0607970Y0598130D02*
X0602770Y0598130D01*
X0602770Y0588130D02*
X0607970Y0588130D01*
X0607970Y0578130D02*
X0602770Y0578130D01*
X0602770Y0568130D02*
X0607970Y0568130D01*
D202*
X0605370Y0553130D03*
X0605370Y0538130D03*
X0605370Y0528130D03*
X0595370Y0528130D03*
X0595370Y0498130D03*
X0605370Y0498130D03*
X0610370Y0488130D03*
X0610370Y0478130D03*
X0620370Y0518130D03*
X0625370Y0510630D03*
X0630370Y0518130D03*
X0645370Y0538130D03*
X0645370Y0553130D03*
X0650370Y0568130D03*
X0651370Y0578130D03*
X0650370Y0588130D03*
X0651370Y0598130D03*
X0650370Y0608130D03*
X0651370Y0618130D03*
X0649870Y0633130D03*
X0650870Y0643130D03*
X0649870Y0653130D03*
X0650370Y0667430D03*
X0650370Y0678830D03*
X0645370Y0713130D03*
X0645370Y0753130D03*
X0625370Y0753130D03*
X0625370Y0713130D03*
X0605370Y0713130D03*
X0605370Y0753130D03*
X0590370Y0733130D03*
X0590370Y0693130D03*
X0590370Y0683130D03*
X0590370Y0643130D03*
X0590370Y0633130D03*
X0590370Y0593130D03*
X0625370Y0428630D03*
X0635370Y0427630D03*
X0645370Y0428630D03*
X0645370Y0453130D03*
X0645370Y0463130D03*
X0650370Y0478130D03*
X0650370Y0488130D03*
X0650370Y0512430D03*
X0650370Y0523830D03*
X0652870Y0458130D03*
D520*
X0640220Y0498130D03*
X0625370Y0458130D03*
X0620530Y0498130D03*
X0635370Y0413130D03*
X0645370Y0413130D03*
X0595370Y0568130D03*
X0595370Y0578130D03*
X0585370Y0578130D03*
X0585370Y0568130D03*
X0585370Y0553130D03*
D31*
X0595370Y0553130D03*
X0615370Y0458130D03*
D564*
X0625370Y0398130D03*
D42*
X0645370Y0398130D03*
X0635370Y0398130D03*
D635*
X0590370Y0453130D03*
X0590370Y0463130D03*
X0574190Y0660630D03*
X0605370Y0763130D03*
X0605370Y0773130D03*
X0625370Y0773130D03*
X0625370Y0763130D03*
X0645370Y0763130D03*
X0645370Y0773130D03*
D163*
X0574190Y0671630D03*
X0566560Y0666630D03*
X0566560Y0654630D03*
D316*
X0615370Y0663130D03*
M02*
