G75*
G70*
%OFA0B0*%
%FSLAX25Y25*%
%IPPOS*%
%LPD*%
%AMOC8*
5,1,8,0,0,1.08239X$1,22.5*
%
%ADD457C,0.00000*%
X0020000Y0020000D02*
G75*
%LPD*%
D457*
X0134960Y0020000D02*
X0020000Y0020000D01*
X0020000Y0422450D01*
X0134960Y0422450D01*
X0134960Y0020000D01*
X0020000Y0428950D02*
G75*
%LPD*%
D457*
X0020000Y0428950D02*
X0020000Y0543910D01*
X0422450Y0543910D01*
X0422450Y0428950D01*
X0020000Y0428950D01*
X0141460Y0020000D02*
G75*
%LPD*%
D457*
X0256420Y0020000D02*
X0141460Y0020000D01*
X0141460Y0422450D01*
X0256420Y0422450D01*
X0256420Y0020000D01*
X0020000Y0550410D02*
G75*
%LPD*%
D457*
X0020000Y0550410D02*
X0020000Y0665370D01*
X0422450Y0665370D01*
X0422450Y0550410D01*
X0020000Y0550410D01*
X0262920Y0020000D02*
G75*
%LPD*%
D457*
X0262920Y0020000D02*
X0262920Y0134960D01*
X0665370Y0134960D01*
X0665370Y0020000D01*
X0262920Y0020000D01*
X0262920Y0141460D02*
G75*
%LPD*%
D457*
X0262920Y0141460D02*
X0262920Y0256420D01*
X0665370Y0256420D01*
X0665370Y0141460D01*
X0262920Y0141460D01*
X0262920Y0262920D02*
G75*
%LPD*%
D457*
X0262920Y0262920D02*
X0262920Y0377880D01*
X0665370Y0377880D01*
X0665370Y0262920D01*
X0262920Y0262920D01*
X0020000Y0671870D02*
G75*
%LPD*%
D457*
X0020000Y0671870D02*
X0020000Y0786830D01*
X0422450Y0786830D01*
X0422450Y0671870D01*
X0020000Y0671870D01*
X0428950Y0384380D02*
G75*
%LPD*%
D457*
X0543910Y0384380D02*
X0428950Y0384380D01*
X0428950Y0786830D01*
X0543910Y0786830D01*
X0543910Y0384380D01*
X0550410Y0384380D02*
G75*
%LPD*%
D457*
X0665370Y0384380D02*
X0550410Y0384380D01*
X0550410Y0786830D01*
X0665370Y0786830D01*
X0665370Y0384380D01*
M02*
