G75*
G70*
%OFA0B0*%
%FSLAX25Y25*%
%IPPOS*%
%LPD*%
%AMOC8*
5,1,8,0,0,1.08239X$1,22.5*
%
%ADD102R,0.08000X0.08000*%
%ADD158C,0.06000*%
%ADD173C,0.07400*%
%ADD207R,0.06500X0.06500*%
%ADD224C,0.06500*%
%ADD260C,0.08000*%
%ADD289C,0.01600*%
%ADD320R,0.07400X0.07400*%
%ADD346C,0.17000*%
%ADD35C,0.01200*%
%ADD436R,0.03960X0.03960*%
%ADD458C,0.07870*%
%ADD498C,0.01000*%
%ADD527C,0.03100*%
%ADD599C,0.05200*%
%ADD602C,0.04000*%
X0020000Y0020000D02*
G75*
%LPD*%
D173*
X0091660Y0203000D03*
X0086660Y0213000D03*
X0081660Y0203000D03*
X0076660Y0213000D03*
X0071660Y0203000D03*
X0066660Y0213000D03*
X0061660Y0203000D03*
X0040760Y0179600D03*
X0040760Y0169600D03*
X0033360Y0140000D03*
X0033360Y0130000D03*
D320*
X0096660Y0213000D03*
D346*
X0117270Y0063130D03*
X0098760Y0074940D03*
X0098760Y0051320D03*
D436*
X0080560Y0105600D03*
X0076360Y0112200D03*
X0068560Y0112400D03*
X0073360Y0131600D03*
X0084160Y0135200D03*
X0070960Y0174800D03*
X0046960Y0130400D03*
X0058960Y0105200D03*
X0060160Y0112400D03*
X0045760Y0088400D03*
X0053160Y0067800D03*
X0059160Y0068000D03*
D35*
X0059160Y0087600D01*
X0071960Y0087600D01*
X0076760Y0088400D01*
X0076960Y0088400D01*
X0079360Y0090800D01*
X0081760Y0094400D01*
X0081560Y0105600D01*
X0080560Y0105600D01*
X0076360Y0102800D02*
X0076360Y0112200D01*
X0072160Y0107600D02*
X0072160Y0123200D01*
X0084160Y0135200D01*
X0073360Y0131600D02*
X0052960Y0131600D01*
X0050560Y0130400D01*
X0046960Y0130400D01*
X0058960Y0105200D02*
X0068560Y0104000D01*
X0072160Y0107600D01*
X0068560Y0112400D02*
X0060160Y0112400D01*
X0053160Y0090600D02*
X0073960Y0090600D01*
X0075760Y0092000D01*
X0075760Y0101600D01*
X0076360Y0102800D01*
X0053160Y0090600D02*
X0053160Y0067800D01*
X0045760Y0088400D02*
X0039760Y0092000D01*
X0039760Y0158000D01*
X0042160Y0160400D01*
X0051760Y0160400D01*
X0051760Y0174800D01*
X0070960Y0174800D01*
D498*
X0088560Y0195000D02*
X0083560Y0200000D01*
X0081660Y0203000D01*
X0088560Y0195000D02*
X0088560Y0065000D01*
X0098560Y0055000D01*
X0098760Y0051320D01*
X0048560Y0175000D02*
X0048560Y0205000D01*
X0063560Y0220000D01*
X0103560Y0220000D01*
X0103560Y0210000D01*
X0093560Y0200000D01*
X0091660Y0203000D01*
D527*
X0048560Y0175000D03*
X0135060Y0020000D02*
G75*
%LPD*%
D173*
X0206720Y0203000D03*
X0201720Y0213000D03*
X0196720Y0203000D03*
X0191720Y0213000D03*
X0186720Y0203000D03*
X0181720Y0213000D03*
X0176720Y0203000D03*
X0155820Y0179600D03*
X0155820Y0169600D03*
X0148420Y0140000D03*
X0148420Y0130000D03*
D320*
X0211720Y0213000D03*
D346*
X0232330Y0063130D03*
X0213820Y0074940D03*
X0213820Y0051320D03*
D436*
X0195620Y0105600D03*
X0191420Y0112200D03*
X0183620Y0112400D03*
X0188420Y0131600D03*
X0199220Y0135200D03*
X0186020Y0174800D03*
X0162020Y0130400D03*
X0174020Y0105200D03*
X0175220Y0112400D03*
X0160820Y0088400D03*
X0168220Y0067800D03*
X0174220Y0068000D03*
D35*
X0174220Y0087600D01*
X0187020Y0087600D01*
X0191820Y0088400D01*
X0192020Y0088400D01*
X0194420Y0090800D01*
X0196820Y0094400D01*
X0196620Y0105600D01*
X0195620Y0105600D01*
X0191420Y0102800D02*
X0191420Y0112200D01*
X0187220Y0107600D02*
X0187220Y0123200D01*
X0199220Y0135200D01*
X0188420Y0131600D02*
X0168020Y0131600D01*
X0165620Y0130400D01*
X0162020Y0130400D01*
X0174020Y0105200D02*
X0183620Y0104000D01*
X0187220Y0107600D01*
X0183620Y0112400D02*
X0175220Y0112400D01*
X0168220Y0090600D02*
X0189020Y0090600D01*
X0190820Y0092000D01*
X0190820Y0101600D01*
X0191420Y0102800D01*
X0168220Y0090600D02*
X0168220Y0067800D01*
X0160820Y0088400D02*
X0154820Y0092000D01*
X0154820Y0158000D01*
X0157220Y0160400D01*
X0166820Y0160400D01*
X0166820Y0174800D01*
X0186020Y0174800D01*
D498*
X0203620Y0195000D02*
X0198620Y0200000D01*
X0196720Y0203000D01*
X0203620Y0195000D02*
X0203620Y0065000D01*
X0213620Y0055000D01*
X0213820Y0051320D01*
X0163620Y0175000D02*
X0163620Y0205000D01*
X0178620Y0220000D01*
X0218620Y0220000D01*
X0218620Y0210000D01*
X0208620Y0200000D01*
X0206720Y0203000D01*
D527*
X0163620Y0175000D03*
X0250120Y0020000D02*
G75*
%LPD*%
D173*
X0321780Y0203000D03*
X0316780Y0213000D03*
X0311780Y0203000D03*
X0306780Y0213000D03*
X0301780Y0203000D03*
X0296780Y0213000D03*
X0291780Y0203000D03*
X0270880Y0179600D03*
X0270880Y0169600D03*
X0263480Y0140000D03*
X0263480Y0130000D03*
D320*
X0326780Y0213000D03*
D346*
X0347390Y0063130D03*
X0328880Y0074940D03*
X0328880Y0051320D03*
D436*
X0310680Y0105600D03*
X0306480Y0112200D03*
X0298680Y0112400D03*
X0303480Y0131600D03*
X0314280Y0135200D03*
X0301080Y0174800D03*
X0277080Y0130400D03*
X0289080Y0105200D03*
X0290280Y0112400D03*
X0275880Y0088400D03*
X0283280Y0067800D03*
X0289280Y0068000D03*
D35*
X0289280Y0087600D01*
X0302080Y0087600D01*
X0306880Y0088400D01*
X0307080Y0088400D01*
X0309480Y0090800D01*
X0311880Y0094400D01*
X0311680Y0105600D01*
X0310680Y0105600D01*
X0306480Y0102800D02*
X0306480Y0112200D01*
X0302280Y0107600D02*
X0302280Y0123200D01*
X0314280Y0135200D01*
X0303480Y0131600D02*
X0283080Y0131600D01*
X0280680Y0130400D01*
X0277080Y0130400D01*
X0289080Y0105200D02*
X0298680Y0104000D01*
X0302280Y0107600D01*
X0298680Y0112400D02*
X0290280Y0112400D01*
X0283280Y0090600D02*
X0304080Y0090600D01*
X0305880Y0092000D01*
X0305880Y0101600D01*
X0306480Y0102800D01*
X0283280Y0090600D02*
X0283280Y0067800D01*
X0275880Y0088400D02*
X0269880Y0092000D01*
X0269880Y0158000D01*
X0272280Y0160400D01*
X0281880Y0160400D01*
X0281880Y0174800D01*
X0301080Y0174800D01*
D498*
X0318680Y0195000D02*
X0313680Y0200000D01*
X0311780Y0203000D01*
X0318680Y0195000D02*
X0318680Y0065000D01*
X0328680Y0055000D01*
X0328880Y0051320D01*
X0278680Y0175000D02*
X0278680Y0205000D01*
X0293680Y0220000D01*
X0333680Y0220000D01*
X0333680Y0210000D01*
X0323680Y0200000D01*
X0321780Y0203000D01*
D527*
X0278680Y0175000D03*
X0365180Y0020000D02*
G75*
%LPD*%
D599*
X0592740Y0090000D02*
X0587540Y0090000D01*
X0587540Y0100000D02*
X0592740Y0100000D01*
X0592740Y0110000D02*
X0587540Y0110000D01*
X0587540Y0120000D02*
X0592740Y0120000D01*
X0592740Y0130000D02*
X0587540Y0130000D01*
X0587540Y0140000D02*
X0592740Y0140000D01*
X0592740Y0150000D02*
X0587540Y0150000D01*
X0587540Y0160000D02*
X0592740Y0160000D01*
X0592740Y0170000D02*
X0587540Y0170000D01*
X0587540Y0180000D02*
X0592740Y0180000D01*
X0592740Y0190000D02*
X0587540Y0190000D01*
X0587540Y0200000D02*
X0592740Y0200000D01*
X0592740Y0210000D02*
X0587540Y0210000D01*
X0587540Y0220000D02*
X0592740Y0220000D01*
X0562740Y0220000D02*
X0557540Y0220000D01*
X0557540Y0210000D02*
X0562740Y0210000D01*
X0562740Y0200000D02*
X0557540Y0200000D01*
X0557540Y0190000D02*
X0562740Y0190000D01*
X0562740Y0180000D02*
X0557540Y0180000D01*
X0557540Y0170000D02*
X0562740Y0170000D01*
X0562740Y0160000D02*
X0557540Y0160000D01*
X0557540Y0150000D02*
X0562740Y0150000D01*
X0562740Y0140000D02*
X0557540Y0140000D01*
X0557540Y0130000D02*
X0562740Y0130000D01*
X0562740Y0120000D02*
X0557540Y0120000D01*
X0557540Y0110000D02*
X0562740Y0110000D01*
X0562740Y0100000D02*
X0557540Y0100000D01*
X0557540Y0090000D02*
X0562740Y0090000D01*
X0495340Y0080000D02*
X0490140Y0080000D01*
X0490140Y0070000D02*
X0495340Y0070000D01*
X0495340Y0060000D02*
X0490140Y0060000D01*
X0460140Y0060000D02*
X0454940Y0060000D01*
X0454940Y0070000D02*
X0460140Y0070000D01*
X0460140Y0080000D02*
X0454940Y0080000D01*
X0454940Y0120000D02*
X0460140Y0120000D01*
X0460140Y0130000D02*
X0454940Y0130000D01*
X0454940Y0140000D02*
X0460140Y0140000D01*
X0490140Y0140000D02*
X0495340Y0140000D01*
X0495340Y0130000D02*
X0490140Y0130000D01*
X0490140Y0120000D02*
X0495340Y0120000D01*
X0495340Y0175000D02*
X0490140Y0175000D01*
X0490140Y0185000D02*
X0495340Y0185000D01*
X0495340Y0195000D02*
X0490140Y0195000D01*
X0460140Y0195000D02*
X0454940Y0195000D01*
X0454940Y0185000D02*
X0460140Y0185000D01*
X0460140Y0175000D02*
X0454940Y0175000D01*
X0454940Y0235000D02*
X0460140Y0235000D01*
X0460140Y0245000D02*
X0454940Y0245000D01*
X0454940Y0255000D02*
X0460140Y0255000D01*
X0490140Y0255000D02*
X0495340Y0255000D01*
X0495340Y0245000D02*
X0490140Y0245000D01*
X0490140Y0235000D02*
X0495340Y0235000D01*
X0535140Y0269800D02*
X0535140Y0275000D01*
X0545140Y0275000D02*
X0545140Y0269800D01*
X0555140Y0269800D02*
X0555140Y0275000D01*
X0555140Y0305000D02*
X0555140Y0310200D01*
X0545140Y0310200D02*
X0545140Y0305000D01*
X0535140Y0305000D02*
X0535140Y0310200D01*
X0495340Y0315000D02*
X0490140Y0315000D01*
X0490140Y0305000D02*
X0495340Y0305000D01*
X0495340Y0295000D02*
X0490140Y0295000D01*
X0460140Y0295000D02*
X0454940Y0295000D01*
X0454940Y0305000D02*
X0460140Y0305000D01*
X0460140Y0315000D02*
X0454940Y0315000D01*
X0454940Y0360000D02*
X0460140Y0360000D01*
X0460140Y0370000D02*
X0454940Y0370000D01*
X0454940Y0380000D02*
X0460140Y0380000D01*
X0490140Y0380000D02*
X0495340Y0380000D01*
X0495340Y0370000D02*
X0490140Y0370000D01*
X0490140Y0360000D02*
X0495340Y0360000D01*
D173*
X0620140Y0085000D03*
X0621140Y0095000D03*
X0620140Y0105000D03*
X0621140Y0115000D03*
X0620140Y0125000D03*
X0621140Y0135000D03*
X0460140Y0160000D03*
X0420140Y0160000D03*
X0405140Y0160000D03*
X0405140Y0140000D03*
X0405140Y0100000D03*
X0420140Y0100000D03*
X0405140Y0080000D03*
X0405140Y0040000D03*
X0420140Y0040000D03*
X0460140Y0040000D03*
X0460140Y0100000D03*
X0405140Y0200000D03*
X0405140Y0220000D03*
X0420140Y0220000D03*
X0405140Y0260000D03*
X0405140Y0280000D03*
X0420140Y0280000D03*
X0405140Y0320000D03*
X0405140Y0340000D03*
X0420140Y0340000D03*
X0405140Y0380000D03*
X0460140Y0340000D03*
X0460140Y0280000D03*
X0460140Y0220000D03*
X0535140Y0325000D03*
X0555140Y0325000D03*
X0555140Y0365000D03*
X0535140Y0365000D03*
X0605140Y0362500D03*
X0605140Y0372500D03*
X0615140Y0367500D03*
X0615140Y0357500D03*
X0615140Y0347500D03*
X0605140Y0352500D03*
X0605140Y0342500D03*
D158*
X0443140Y0360000D02*
X0437140Y0360000D01*
X0437140Y0370000D02*
X0443140Y0370000D01*
X0443140Y0380000D02*
X0437140Y0380000D01*
X0437140Y0320000D02*
X0443140Y0320000D01*
X0443140Y0310000D02*
X0437140Y0310000D01*
X0437140Y0300000D02*
X0443140Y0300000D01*
X0443140Y0260000D02*
X0437140Y0260000D01*
X0437140Y0250000D02*
X0443140Y0250000D01*
X0443140Y0240000D02*
X0437140Y0240000D01*
X0437140Y0200000D02*
X0443140Y0200000D01*
X0443140Y0190000D02*
X0437140Y0190000D01*
X0437140Y0180000D02*
X0443140Y0180000D01*
X0443140Y0140000D02*
X0437140Y0140000D01*
X0437140Y0130000D02*
X0443140Y0130000D01*
X0443140Y0120000D02*
X0437140Y0120000D01*
X0437140Y0080000D02*
X0443140Y0080000D01*
X0443140Y0070000D02*
X0437140Y0070000D01*
X0437140Y0060000D02*
X0443140Y0060000D01*
D224*
X0420140Y0069840D03*
X0420140Y0050150D03*
X0670140Y0185000D03*
X0670140Y0215000D03*
X0670140Y0265000D03*
X0670140Y0295000D03*
D320*
X0615140Y0337500D03*
D207*
X0670140Y0305000D03*
X0670140Y0275000D03*
X0670140Y0225000D03*
X0670140Y0195000D03*
D346*
X0655140Y0133930D03*
X0673640Y0122120D03*
X0655140Y0110310D03*
D102*
X0545140Y0385000D03*
X0380140Y0370000D03*
X0380140Y0310000D03*
X0380140Y0250000D03*
X0380140Y0190000D03*
X0380140Y0130000D03*
X0380140Y0070000D03*
D260*
X0380140Y0050310D03*
X0380140Y0110310D03*
X0380140Y0170310D03*
X0380140Y0230310D03*
X0380140Y0290310D03*
X0380140Y0350310D03*
X0525450Y0385000D03*
D289*
X0545140Y0375000D02*
X0535140Y0365000D01*
X0545140Y0375000D02*
X0545140Y0385000D01*
X0490140Y0370000D02*
X0485140Y0365000D01*
X0485140Y0310000D01*
X0490140Y0305000D01*
X0485140Y0300000D01*
X0485140Y0240000D01*
X0485140Y0180000D01*
X0485140Y0135000D01*
X0490140Y0130000D01*
X0515140Y0105000D02*
X0590140Y0105000D01*
X0590140Y0110000D01*
X0600140Y0095000D02*
X0600140Y0150000D01*
X0590140Y0160000D01*
X0580140Y0150000D02*
X0590140Y0140000D01*
X0580140Y0150000D02*
X0580140Y0250000D01*
X0575140Y0260000D02*
X0575140Y0155000D01*
X0560140Y0140000D01*
X0560140Y0130000D02*
X0550140Y0140000D01*
X0550140Y0225000D01*
X0570140Y0245000D01*
X0545140Y0275000D02*
X0545140Y0135000D01*
X0560140Y0120000D01*
X0560140Y0095000D02*
X0560140Y0090000D01*
X0560140Y0095000D02*
X0600140Y0095000D01*
X0621140Y0095000D01*
X0645140Y0120000D02*
X0655140Y0110310D01*
X0645140Y0120000D02*
X0645140Y0160000D01*
X0665140Y0180000D01*
X0665140Y0210000D01*
X0665140Y0260000D01*
X0670140Y0265000D01*
X0675140Y0270000D02*
X0670140Y0275000D01*
X0665140Y0280000D01*
X0665140Y0355000D01*
X0615140Y0355000D01*
X0615140Y0357500D01*
X0605140Y0342500D02*
X0605140Y0315000D01*
X0595140Y0305000D01*
X0600140Y0300000D02*
X0615140Y0315000D01*
X0615140Y0337500D01*
X0600140Y0280000D02*
X0600140Y0190000D01*
X0590140Y0180000D01*
X0655140Y0135000D02*
X0655140Y0133930D01*
X0655140Y0135000D02*
X0675140Y0155000D01*
X0675140Y0190000D01*
X0670140Y0195000D01*
X0675140Y0200000D01*
X0675140Y0270000D01*
X0670140Y0240000D02*
X0670140Y0225000D01*
X0670140Y0215000D02*
X0665140Y0210000D01*
X0670140Y0185000D02*
X0665140Y0180000D01*
X0600140Y0280000D02*
X0540140Y0280000D01*
X0540140Y0265000D01*
X0510140Y0235000D01*
X0490140Y0245000D02*
X0485140Y0240000D01*
X0490140Y0185000D02*
X0485140Y0180000D01*
D602*
X0510140Y0235000D03*
X0570140Y0245000D03*
X0580140Y0250000D03*
X0575140Y0260000D03*
X0600140Y0300000D03*
X0595140Y0305000D03*
X0670140Y0240000D03*
X0515140Y0105000D03*
D458*
X0440140Y0130000D02*
X0405140Y0130000D01*
X0380140Y0130000D01*
X0405140Y0130000D02*
X0405140Y0140000D01*
X0405140Y0190000D02*
X0440140Y0190000D01*
X0405140Y0190000D02*
X0380140Y0190000D01*
X0405140Y0190000D02*
X0405140Y0200000D01*
X0405140Y0250000D02*
X0440140Y0250000D01*
X0405140Y0250000D02*
X0380140Y0250000D01*
X0405140Y0250000D02*
X0405140Y0260000D01*
X0405140Y0310000D02*
X0440140Y0310000D01*
X0405140Y0310000D02*
X0380140Y0310000D01*
X0405140Y0310000D02*
X0405140Y0320000D01*
X0405140Y0370000D02*
X0440140Y0370000D01*
X0405140Y0370000D02*
X0380140Y0370000D01*
X0405140Y0370000D02*
X0405140Y0380000D01*
X0420140Y0070000D02*
X0420140Y0069840D01*
X0420140Y0060000D01*
X0440140Y0060000D01*
X0020000Y0288200D02*
G75*
%LPD*%
D173*
X0203000Y0325100D03*
X0213000Y0330100D03*
X0203000Y0335100D03*
X0213000Y0340100D03*
X0203000Y0345100D03*
X0213000Y0350100D03*
X0203000Y0355100D03*
X0179600Y0376000D03*
X0169600Y0376000D03*
X0140000Y0383400D03*
X0130000Y0383400D03*
D320*
X0213000Y0320100D03*
D346*
X0063130Y0299490D03*
X0074940Y0318000D03*
X0051320Y0318000D03*
D436*
X0105600Y0336200D03*
X0112200Y0340400D03*
X0112400Y0348200D03*
X0131600Y0343400D03*
X0135200Y0332600D03*
X0174800Y0345800D03*
X0130400Y0369800D03*
X0105200Y0357800D03*
X0112400Y0356600D03*
X0088400Y0371000D03*
X0067800Y0363600D03*
X0068000Y0357600D03*
D35*
X0087600Y0357600D01*
X0087600Y0344800D01*
X0088400Y0340000D01*
X0088400Y0339800D01*
X0090800Y0337400D01*
X0094400Y0335000D01*
X0105600Y0335200D01*
X0105600Y0336200D01*
X0102800Y0340400D02*
X0112200Y0340400D01*
X0107600Y0344600D02*
X0123200Y0344600D01*
X0135200Y0332600D01*
X0131600Y0343400D02*
X0131600Y0363800D01*
X0130400Y0366200D01*
X0130400Y0369800D01*
X0105200Y0357800D02*
X0104000Y0348200D01*
X0107600Y0344600D01*
X0112400Y0348200D02*
X0112400Y0356600D01*
X0090600Y0363600D02*
X0090600Y0342800D01*
X0092000Y0341000D01*
X0101600Y0341000D01*
X0102800Y0340400D01*
X0090600Y0363600D02*
X0067800Y0363600D01*
X0088400Y0371000D02*
X0092000Y0377000D01*
X0158000Y0377000D01*
X0160400Y0374600D01*
X0160400Y0365000D01*
X0174800Y0365000D01*
X0174800Y0345800D01*
D498*
X0195000Y0328200D02*
X0200000Y0333200D01*
X0203000Y0335100D01*
X0195000Y0328200D02*
X0065000Y0328200D01*
X0055000Y0318200D01*
X0051320Y0318000D01*
X0175000Y0368200D02*
X0205000Y0368200D01*
X0220000Y0353200D01*
X0220000Y0313200D01*
X0210000Y0313200D01*
X0200000Y0323200D01*
X0203000Y0325100D01*
D527*
X0175000Y0368200D03*
X0038720Y0403260D02*
G75*
%LPD*%
D599*
X0266280Y0473260D02*
X0261080Y0473260D01*
X0261080Y0483260D02*
X0266280Y0483260D01*
X0266280Y0493260D02*
X0261080Y0493260D01*
X0261080Y0503260D02*
X0266280Y0503260D01*
X0266280Y0513260D02*
X0261080Y0513260D01*
X0261080Y0523260D02*
X0266280Y0523260D01*
X0266280Y0533260D02*
X0261080Y0533260D01*
X0261080Y0543260D02*
X0266280Y0543260D01*
X0266280Y0553260D02*
X0261080Y0553260D01*
X0261080Y0563260D02*
X0266280Y0563260D01*
X0266280Y0573260D02*
X0261080Y0573260D01*
X0261080Y0583260D02*
X0266280Y0583260D01*
X0266280Y0593260D02*
X0261080Y0593260D01*
X0261080Y0603260D02*
X0266280Y0603260D01*
X0236280Y0603260D02*
X0231080Y0603260D01*
X0231080Y0593260D02*
X0236280Y0593260D01*
X0236280Y0583260D02*
X0231080Y0583260D01*
X0231080Y0573260D02*
X0236280Y0573260D01*
X0236280Y0563260D02*
X0231080Y0563260D01*
X0231080Y0553260D02*
X0236280Y0553260D01*
X0236280Y0543260D02*
X0231080Y0543260D01*
X0231080Y0533260D02*
X0236280Y0533260D01*
X0236280Y0523260D02*
X0231080Y0523260D01*
X0231080Y0513260D02*
X0236280Y0513260D01*
X0236280Y0503260D02*
X0231080Y0503260D01*
X0231080Y0493260D02*
X0236280Y0493260D01*
X0236280Y0483260D02*
X0231080Y0483260D01*
X0231080Y0473260D02*
X0236280Y0473260D01*
X0168880Y0463260D02*
X0163680Y0463260D01*
X0163680Y0453260D02*
X0168880Y0453260D01*
X0168880Y0443260D02*
X0163680Y0443260D01*
X0133680Y0443260D02*
X0128480Y0443260D01*
X0128480Y0453260D02*
X0133680Y0453260D01*
X0133680Y0463260D02*
X0128480Y0463260D01*
X0128480Y0503260D02*
X0133680Y0503260D01*
X0133680Y0513260D02*
X0128480Y0513260D01*
X0128480Y0523260D02*
X0133680Y0523260D01*
X0163680Y0523260D02*
X0168880Y0523260D01*
X0168880Y0513260D02*
X0163680Y0513260D01*
X0163680Y0503260D02*
X0168880Y0503260D01*
X0168880Y0558260D02*
X0163680Y0558260D01*
X0163680Y0568260D02*
X0168880Y0568260D01*
X0168880Y0578260D02*
X0163680Y0578260D01*
X0133680Y0578260D02*
X0128480Y0578260D01*
X0128480Y0568260D02*
X0133680Y0568260D01*
X0133680Y0558260D02*
X0128480Y0558260D01*
X0128480Y0618260D02*
X0133680Y0618260D01*
X0133680Y0628260D02*
X0128480Y0628260D01*
X0128480Y0638260D02*
X0133680Y0638260D01*
X0163680Y0638260D02*
X0168880Y0638260D01*
X0168880Y0628260D02*
X0163680Y0628260D01*
X0163680Y0618260D02*
X0168880Y0618260D01*
X0208680Y0653060D02*
X0208680Y0658260D01*
X0218680Y0658260D02*
X0218680Y0653060D01*
X0228680Y0653060D02*
X0228680Y0658260D01*
X0228680Y0688260D02*
X0228680Y0693460D01*
X0218680Y0693460D02*
X0218680Y0688260D01*
X0208680Y0688260D02*
X0208680Y0693460D01*
X0168880Y0698260D02*
X0163680Y0698260D01*
X0163680Y0688260D02*
X0168880Y0688260D01*
X0168880Y0678260D02*
X0163680Y0678260D01*
X0133680Y0678260D02*
X0128480Y0678260D01*
X0128480Y0688260D02*
X0133680Y0688260D01*
X0133680Y0698260D02*
X0128480Y0698260D01*
X0128480Y0743260D02*
X0133680Y0743260D01*
X0133680Y0753260D02*
X0128480Y0753260D01*
X0128480Y0763260D02*
X0133680Y0763260D01*
X0163680Y0763260D02*
X0168880Y0763260D01*
X0168880Y0753260D02*
X0163680Y0753260D01*
X0163680Y0743260D02*
X0168880Y0743260D01*
D173*
X0293680Y0468260D03*
X0294680Y0478260D03*
X0293680Y0488260D03*
X0294680Y0498260D03*
X0293680Y0508260D03*
X0294680Y0518260D03*
X0133680Y0543260D03*
X0093680Y0543260D03*
X0078680Y0543260D03*
X0078680Y0523260D03*
X0078680Y0483260D03*
X0093680Y0483260D03*
X0078680Y0463260D03*
X0078680Y0423260D03*
X0093680Y0423260D03*
X0133680Y0423260D03*
X0133680Y0483260D03*
X0078680Y0583260D03*
X0078680Y0603260D03*
X0093680Y0603260D03*
X0078680Y0643260D03*
X0078680Y0663260D03*
X0093680Y0663260D03*
X0078680Y0703260D03*
X0078680Y0723260D03*
X0093680Y0723260D03*
X0078680Y0763260D03*
X0133680Y0723260D03*
X0133680Y0663260D03*
X0133680Y0603260D03*
X0208680Y0708260D03*
X0228680Y0708260D03*
X0228680Y0748260D03*
X0208680Y0748260D03*
X0278680Y0745760D03*
X0278680Y0755760D03*
X0288680Y0750760D03*
X0288680Y0740760D03*
X0288680Y0730760D03*
X0278680Y0735760D03*
X0278680Y0725760D03*
D158*
X0116680Y0743260D02*
X0110680Y0743260D01*
X0110680Y0753260D02*
X0116680Y0753260D01*
X0116680Y0763260D02*
X0110680Y0763260D01*
X0110680Y0703260D02*
X0116680Y0703260D01*
X0116680Y0693260D02*
X0110680Y0693260D01*
X0110680Y0683260D02*
X0116680Y0683260D01*
X0116680Y0643260D02*
X0110680Y0643260D01*
X0110680Y0633260D02*
X0116680Y0633260D01*
X0116680Y0623260D02*
X0110680Y0623260D01*
X0110680Y0583260D02*
X0116680Y0583260D01*
X0116680Y0573260D02*
X0110680Y0573260D01*
X0110680Y0563260D02*
X0116680Y0563260D01*
X0116680Y0523260D02*
X0110680Y0523260D01*
X0110680Y0513260D02*
X0116680Y0513260D01*
X0116680Y0503260D02*
X0110680Y0503260D01*
X0110680Y0463260D02*
X0116680Y0463260D01*
X0116680Y0453260D02*
X0110680Y0453260D01*
X0110680Y0443260D02*
X0116680Y0443260D01*
D224*
X0093680Y0453100D03*
X0093680Y0433410D03*
X0343680Y0568260D03*
X0343680Y0598260D03*
X0343680Y0648260D03*
X0343680Y0678260D03*
D320*
X0288680Y0720760D03*
D207*
X0343680Y0688260D03*
X0343680Y0658260D03*
X0343680Y0608260D03*
X0343680Y0578260D03*
D346*
X0328680Y0517190D03*
X0347180Y0505380D03*
X0328680Y0493570D03*
D102*
X0218680Y0768260D03*
X0053680Y0753260D03*
X0053680Y0693260D03*
X0053680Y0633260D03*
X0053680Y0573260D03*
X0053680Y0513260D03*
X0053680Y0453260D03*
D260*
X0053680Y0433570D03*
X0053680Y0493570D03*
X0053680Y0553570D03*
X0053680Y0613570D03*
X0053680Y0673570D03*
X0053680Y0733570D03*
X0198990Y0768260D03*
D289*
X0218680Y0758260D02*
X0208680Y0748260D01*
X0218680Y0758260D02*
X0218680Y0768260D01*
X0163680Y0753260D02*
X0158680Y0748260D01*
X0158680Y0693260D01*
X0163680Y0688260D01*
X0158680Y0683260D01*
X0158680Y0623260D01*
X0158680Y0563260D01*
X0158680Y0518260D01*
X0163680Y0513260D01*
X0188680Y0488260D02*
X0263680Y0488260D01*
X0263680Y0493260D01*
X0273680Y0478260D02*
X0273680Y0533260D01*
X0263680Y0543260D01*
X0253680Y0533260D02*
X0263680Y0523260D01*
X0253680Y0533260D02*
X0253680Y0633260D01*
X0248680Y0643260D02*
X0248680Y0538260D01*
X0233680Y0523260D01*
X0233680Y0513260D02*
X0223680Y0523260D01*
X0223680Y0608260D01*
X0243680Y0628260D01*
X0218680Y0658260D02*
X0218680Y0518260D01*
X0233680Y0503260D01*
X0233680Y0478260D02*
X0233680Y0473260D01*
X0233680Y0478260D02*
X0273680Y0478260D01*
X0294680Y0478260D01*
X0318680Y0503260D02*
X0328680Y0493570D01*
X0318680Y0503260D02*
X0318680Y0543260D01*
X0338680Y0563260D01*
X0338680Y0593260D01*
X0338680Y0643260D01*
X0343680Y0648260D01*
X0348680Y0653260D02*
X0343680Y0658260D01*
X0338680Y0663260D01*
X0338680Y0738260D01*
X0288680Y0738260D01*
X0288680Y0740760D01*
X0278680Y0725760D02*
X0278680Y0698260D01*
X0268680Y0688260D01*
X0273680Y0683260D02*
X0288680Y0698260D01*
X0288680Y0720760D01*
X0273680Y0663260D02*
X0273680Y0573260D01*
X0263680Y0563260D01*
X0328680Y0518260D02*
X0328680Y0517190D01*
X0328680Y0518260D02*
X0348680Y0538260D01*
X0348680Y0573260D01*
X0343680Y0578260D01*
X0348680Y0583260D01*
X0348680Y0653260D01*
X0343680Y0623260D02*
X0343680Y0608260D01*
X0343680Y0598260D02*
X0338680Y0593260D01*
X0343680Y0568260D02*
X0338680Y0563260D01*
X0273680Y0663260D02*
X0213680Y0663260D01*
X0213680Y0648260D01*
X0183680Y0618260D01*
X0163680Y0628260D02*
X0158680Y0623260D01*
X0163680Y0568260D02*
X0158680Y0563260D01*
D602*
X0183680Y0618260D03*
X0243680Y0628260D03*
X0253680Y0633260D03*
X0248680Y0643260D03*
X0273680Y0683260D03*
X0268680Y0688260D03*
X0343680Y0623260D03*
X0188680Y0488260D03*
D458*
X0113680Y0513260D02*
X0078680Y0513260D01*
X0053680Y0513260D01*
X0078680Y0513260D02*
X0078680Y0523260D01*
X0078680Y0573260D02*
X0113680Y0573260D01*
X0078680Y0573260D02*
X0053680Y0573260D01*
X0078680Y0573260D02*
X0078680Y0583260D01*
X0078680Y0633260D02*
X0113680Y0633260D01*
X0078680Y0633260D02*
X0053680Y0633260D01*
X0078680Y0633260D02*
X0078680Y0643260D01*
X0078680Y0693260D02*
X0113680Y0693260D01*
X0078680Y0693260D02*
X0053680Y0693260D01*
X0078680Y0693260D02*
X0078680Y0703260D01*
X0078680Y0753260D02*
X0113680Y0753260D01*
X0078680Y0753260D02*
X0053680Y0753260D01*
X0078680Y0753260D02*
X0078680Y0763260D01*
X0093680Y0453260D02*
X0093680Y0453100D01*
X0093680Y0443260D01*
X0113680Y0443260D01*
X0365180Y0410200D02*
G75*
%LPD*%
D599*
X0592740Y0480200D02*
X0587540Y0480200D01*
X0587540Y0490200D02*
X0592740Y0490200D01*
X0592740Y0500200D02*
X0587540Y0500200D01*
X0587540Y0510200D02*
X0592740Y0510200D01*
X0592740Y0520200D02*
X0587540Y0520200D01*
X0587540Y0530200D02*
X0592740Y0530200D01*
X0592740Y0540200D02*
X0587540Y0540200D01*
X0587540Y0550200D02*
X0592740Y0550200D01*
X0592740Y0560200D02*
X0587540Y0560200D01*
X0587540Y0570200D02*
X0592740Y0570200D01*
X0592740Y0580200D02*
X0587540Y0580200D01*
X0587540Y0590200D02*
X0592740Y0590200D01*
X0592740Y0600200D02*
X0587540Y0600200D01*
X0587540Y0610200D02*
X0592740Y0610200D01*
X0562740Y0610200D02*
X0557540Y0610200D01*
X0557540Y0600200D02*
X0562740Y0600200D01*
X0562740Y0590200D02*
X0557540Y0590200D01*
X0557540Y0580200D02*
X0562740Y0580200D01*
X0562740Y0570200D02*
X0557540Y0570200D01*
X0557540Y0560200D02*
X0562740Y0560200D01*
X0562740Y0550200D02*
X0557540Y0550200D01*
X0557540Y0540200D02*
X0562740Y0540200D01*
X0562740Y0530200D02*
X0557540Y0530200D01*
X0557540Y0520200D02*
X0562740Y0520200D01*
X0562740Y0510200D02*
X0557540Y0510200D01*
X0557540Y0500200D02*
X0562740Y0500200D01*
X0562740Y0490200D02*
X0557540Y0490200D01*
X0557540Y0480200D02*
X0562740Y0480200D01*
X0495340Y0470200D02*
X0490140Y0470200D01*
X0490140Y0460200D02*
X0495340Y0460200D01*
X0495340Y0450200D02*
X0490140Y0450200D01*
X0460140Y0450200D02*
X0454940Y0450200D01*
X0454940Y0460200D02*
X0460140Y0460200D01*
X0460140Y0470200D02*
X0454940Y0470200D01*
X0454940Y0510200D02*
X0460140Y0510200D01*
X0460140Y0520200D02*
X0454940Y0520200D01*
X0454940Y0530200D02*
X0460140Y0530200D01*
X0490140Y0530200D02*
X0495340Y0530200D01*
X0495340Y0520200D02*
X0490140Y0520200D01*
X0490140Y0510200D02*
X0495340Y0510200D01*
X0495340Y0565200D02*
X0490140Y0565200D01*
X0490140Y0575200D02*
X0495340Y0575200D01*
X0495340Y0585200D02*
X0490140Y0585200D01*
X0460140Y0585200D02*
X0454940Y0585200D01*
X0454940Y0575200D02*
X0460140Y0575200D01*
X0460140Y0565200D02*
X0454940Y0565200D01*
X0454940Y0625200D02*
X0460140Y0625200D01*
X0460140Y0635200D02*
X0454940Y0635200D01*
X0454940Y0645200D02*
X0460140Y0645200D01*
X0490140Y0645200D02*
X0495340Y0645200D01*
X0495340Y0635200D02*
X0490140Y0635200D01*
X0490140Y0625200D02*
X0495340Y0625200D01*
X0535140Y0660000D02*
X0535140Y0665200D01*
X0545140Y0665200D02*
X0545140Y0660000D01*
X0555140Y0660000D02*
X0555140Y0665200D01*
X0555140Y0695200D02*
X0555140Y0700400D01*
X0545140Y0700400D02*
X0545140Y0695200D01*
X0535140Y0695200D02*
X0535140Y0700400D01*
X0495340Y0705200D02*
X0490140Y0705200D01*
X0490140Y0695200D02*
X0495340Y0695200D01*
X0495340Y0685200D02*
X0490140Y0685200D01*
X0460140Y0685200D02*
X0454940Y0685200D01*
X0454940Y0695200D02*
X0460140Y0695200D01*
X0460140Y0705200D02*
X0454940Y0705200D01*
X0454940Y0750200D02*
X0460140Y0750200D01*
X0460140Y0760200D02*
X0454940Y0760200D01*
X0454940Y0770200D02*
X0460140Y0770200D01*
X0490140Y0770200D02*
X0495340Y0770200D01*
X0495340Y0760200D02*
X0490140Y0760200D01*
X0490140Y0750200D02*
X0495340Y0750200D01*
D173*
X0620140Y0475200D03*
X0621140Y0485200D03*
X0620140Y0495200D03*
X0621140Y0505200D03*
X0620140Y0515200D03*
X0621140Y0525200D03*
X0460140Y0550200D03*
X0420140Y0550200D03*
X0405140Y0550200D03*
X0405140Y0530200D03*
X0405140Y0490200D03*
X0420140Y0490200D03*
X0405140Y0470200D03*
X0405140Y0430200D03*
X0420140Y0430200D03*
X0460140Y0430200D03*
X0460140Y0490200D03*
X0405140Y0590200D03*
X0405140Y0610200D03*
X0420140Y0610200D03*
X0405140Y0650200D03*
X0405140Y0670200D03*
X0420140Y0670200D03*
X0405140Y0710200D03*
X0405140Y0730200D03*
X0420140Y0730200D03*
X0405140Y0770200D03*
X0460140Y0730200D03*
X0460140Y0670200D03*
X0460140Y0610200D03*
X0535140Y0715200D03*
X0555140Y0715200D03*
X0555140Y0755200D03*
X0535140Y0755200D03*
X0605140Y0752700D03*
X0605140Y0762700D03*
X0615140Y0757700D03*
X0615140Y0747700D03*
X0615140Y0737700D03*
X0605140Y0742700D03*
X0605140Y0732700D03*
D158*
X0443140Y0750200D02*
X0437140Y0750200D01*
X0437140Y0760200D02*
X0443140Y0760200D01*
X0443140Y0770200D02*
X0437140Y0770200D01*
X0437140Y0710200D02*
X0443140Y0710200D01*
X0443140Y0700200D02*
X0437140Y0700200D01*
X0437140Y0690200D02*
X0443140Y0690200D01*
X0443140Y0650200D02*
X0437140Y0650200D01*
X0437140Y0640200D02*
X0443140Y0640200D01*
X0443140Y0630200D02*
X0437140Y0630200D01*
X0437140Y0590200D02*
X0443140Y0590200D01*
X0443140Y0580200D02*
X0437140Y0580200D01*
X0437140Y0570200D02*
X0443140Y0570200D01*
X0443140Y0530200D02*
X0437140Y0530200D01*
X0437140Y0520200D02*
X0443140Y0520200D01*
X0443140Y0510200D02*
X0437140Y0510200D01*
X0437140Y0470200D02*
X0443140Y0470200D01*
X0443140Y0460200D02*
X0437140Y0460200D01*
X0437140Y0450200D02*
X0443140Y0450200D01*
D224*
X0420140Y0460040D03*
X0420140Y0440350D03*
X0670140Y0575200D03*
X0670140Y0605200D03*
X0670140Y0655200D03*
X0670140Y0685200D03*
D320*
X0615140Y0727700D03*
D207*
X0670140Y0695200D03*
X0670140Y0665200D03*
X0670140Y0615200D03*
X0670140Y0585200D03*
D346*
X0655140Y0524130D03*
X0673640Y0512320D03*
X0655140Y0500510D03*
D102*
X0545140Y0775200D03*
X0380140Y0760200D03*
X0380140Y0700200D03*
X0380140Y0640200D03*
X0380140Y0580200D03*
X0380140Y0520200D03*
X0380140Y0460200D03*
D260*
X0380140Y0440510D03*
X0380140Y0500510D03*
X0380140Y0560510D03*
X0380140Y0620510D03*
X0380140Y0680510D03*
X0380140Y0740510D03*
X0525450Y0775200D03*
D289*
X0545140Y0765200D02*
X0535140Y0755200D01*
X0545140Y0765200D02*
X0545140Y0775200D01*
X0490140Y0760200D02*
X0485140Y0755200D01*
X0485140Y0700200D01*
X0490140Y0695200D01*
X0485140Y0690200D01*
X0485140Y0630200D01*
X0485140Y0570200D01*
X0485140Y0525200D01*
X0490140Y0520200D01*
X0515140Y0495200D02*
X0590140Y0495200D01*
X0590140Y0500200D01*
X0600140Y0485200D02*
X0600140Y0540200D01*
X0590140Y0550200D01*
X0580140Y0540200D02*
X0590140Y0530200D01*
X0580140Y0540200D02*
X0580140Y0640200D01*
X0575140Y0650200D02*
X0575140Y0545200D01*
X0560140Y0530200D01*
X0560140Y0520200D02*
X0550140Y0530200D01*
X0550140Y0615200D01*
X0570140Y0635200D01*
X0545140Y0665200D02*
X0545140Y0525200D01*
X0560140Y0510200D01*
X0560140Y0485200D02*
X0560140Y0480200D01*
X0560140Y0485200D02*
X0600140Y0485200D01*
X0621140Y0485200D01*
X0645140Y0510200D02*
X0655140Y0500510D01*
X0645140Y0510200D02*
X0645140Y0550200D01*
X0665140Y0570200D01*
X0665140Y0600200D01*
X0665140Y0650200D01*
X0670140Y0655200D01*
X0675140Y0660200D02*
X0670140Y0665200D01*
X0665140Y0670200D01*
X0665140Y0745200D01*
X0615140Y0745200D01*
X0615140Y0747700D01*
X0605140Y0732700D02*
X0605140Y0705200D01*
X0595140Y0695200D01*
X0600140Y0690200D02*
X0615140Y0705200D01*
X0615140Y0727700D01*
X0600140Y0670200D02*
X0600140Y0580200D01*
X0590140Y0570200D01*
X0655140Y0525200D02*
X0655140Y0524130D01*
X0655140Y0525200D02*
X0675140Y0545200D01*
X0675140Y0580200D01*
X0670140Y0585200D01*
X0675140Y0590200D01*
X0675140Y0660200D01*
X0670140Y0630200D02*
X0670140Y0615200D01*
X0670140Y0605200D02*
X0665140Y0600200D01*
X0670140Y0575200D02*
X0665140Y0570200D01*
X0600140Y0670200D02*
X0540140Y0670200D01*
X0540140Y0655200D01*
X0510140Y0625200D01*
X0490140Y0635200D02*
X0485140Y0630200D01*
X0490140Y0575200D02*
X0485140Y0570200D01*
D602*
X0510140Y0625200D03*
X0570140Y0635200D03*
X0580140Y0640200D03*
X0575140Y0650200D03*
X0600140Y0690200D03*
X0595140Y0695200D03*
X0670140Y0630200D03*
X0515140Y0495200D03*
D458*
X0440140Y0520200D02*
X0405140Y0520200D01*
X0380140Y0520200D01*
X0405140Y0520200D02*
X0405140Y0530200D01*
X0405140Y0580200D02*
X0440140Y0580200D01*
X0405140Y0580200D02*
X0380140Y0580200D01*
X0405140Y0580200D02*
X0405140Y0590200D01*
X0405140Y0640200D02*
X0440140Y0640200D01*
X0405140Y0640200D02*
X0380140Y0640200D01*
X0405140Y0640200D02*
X0405140Y0650200D01*
X0405140Y0700200D02*
X0440140Y0700200D01*
X0405140Y0700200D02*
X0380140Y0700200D01*
X0405140Y0700200D02*
X0405140Y0710200D01*
X0405140Y0760200D02*
X0440140Y0760200D01*
X0405140Y0760200D02*
X0380140Y0760200D01*
X0405140Y0760200D02*
X0405140Y0770200D01*
X0420140Y0460200D02*
X0420140Y0460040D01*
X0420140Y0450200D01*
X0440140Y0450200D01*
M02*
