G75*
G70*
%OFA0B0*%
%FSLAX25Y25*%
%IPPOS*%
%LPD*%
%AMOC8*
5,1,8,0,0,1.08239X$1,22.5*
%
%ADD498C,0.01000*%
%ADD598C,0.00800*%
X0020000Y0020000D02*
G75*
%LPD*%
D498*
X0019500Y0019500D02*
X0019500Y0282200D01*
X0129060Y0282200D01*
X0129060Y0019500D01*
X0019500Y0019500D01*
X0135060Y0020000D02*
G75*
%LPD*%
D498*
X0134560Y0019500D02*
X0134560Y0282200D01*
X0244120Y0282200D01*
X0244120Y0019500D01*
X0134560Y0019500D01*
X0250120Y0020000D02*
G75*
%LPD*%
D498*
X0249620Y0019500D02*
X0249620Y0282200D01*
X0359180Y0282200D01*
X0359180Y0019500D01*
X0249620Y0019500D01*
X0365180Y0020000D02*
G75*
%LPD*%
D598*
X0524840Y0075390D02*
X0523770Y0076460D01*
X0519500Y0076460D01*
X0520570Y0077530D02*
X0520570Y0075390D01*
X0520570Y0079700D02*
X0520570Y0082910D01*
X0521640Y0083970D01*
X0522700Y0082910D01*
X0522700Y0080770D01*
X0523770Y0079700D01*
X0524840Y0080770D01*
X0524840Y0083970D01*
X0524840Y0086150D02*
X0521640Y0086150D01*
X0520570Y0087220D01*
X0520570Y0090420D01*
X0524840Y0090420D01*
X0524840Y0092600D02*
X0520570Y0092600D01*
X0520570Y0096870D02*
X0523770Y0096870D01*
X0524840Y0095800D01*
X0524840Y0092600D01*
X0524840Y0099030D02*
X0522700Y0102240D01*
X0520570Y0099030D01*
X0518430Y0102240D02*
X0524840Y0102240D01*
X0522700Y0104410D02*
X0522700Y0108680D01*
X0521640Y0108680D02*
X0520570Y0107610D01*
X0520570Y0105480D01*
X0521640Y0104410D01*
X0522700Y0104410D01*
X0524840Y0105480D02*
X0524840Y0107610D01*
X0523770Y0108680D01*
X0521640Y0108680D01*
X0520570Y0110840D02*
X0520570Y0112980D01*
X0519500Y0111910D02*
X0523770Y0111910D01*
X0524840Y0110840D01*
X0524840Y0115150D02*
X0520570Y0115150D01*
X0524840Y0115150D02*
X0524840Y0118360D01*
X0523770Y0119420D01*
X0520570Y0119420D01*
X0521640Y0121600D02*
X0521640Y0123730D01*
X0521640Y0121600D02*
X0523770Y0121600D01*
X0524840Y0122670D01*
X0524840Y0124800D01*
X0523770Y0125870D01*
X0519500Y0125870D01*
X0518430Y0124800D01*
X0518430Y0122670D01*
X0519500Y0121600D01*
X0509840Y0123720D02*
X0505570Y0123720D01*
X0507700Y0123720D02*
X0505570Y0121590D01*
X0505570Y0120520D01*
X0506640Y0118350D02*
X0508770Y0118350D01*
X0509840Y0117280D01*
X0509840Y0114080D01*
X0503430Y0114080D01*
X0505570Y0114080D02*
X0505570Y0117280D01*
X0506640Y0118350D01*
X0506640Y0125900D02*
X0509840Y0125900D01*
X0509840Y0129100D01*
X0508770Y0130170D01*
X0507700Y0129100D01*
X0507700Y0125900D01*
X0506640Y0125900D02*
X0505570Y0126960D01*
X0505570Y0129100D01*
X0506640Y0132340D02*
X0508770Y0132340D01*
X0509840Y0133410D01*
X0509840Y0135540D01*
X0508770Y0136610D01*
X0506640Y0136610D01*
X0505570Y0135540D01*
X0505570Y0133410D01*
X0506640Y0132340D01*
X0507700Y0138790D02*
X0508770Y0138790D01*
X0509840Y0139850D01*
X0509840Y0143060D01*
X0503430Y0143060D01*
X0503430Y0139850D01*
X0504500Y0138790D01*
X0505570Y0138790D01*
X0506640Y0139850D01*
X0506640Y0143060D01*
X0506640Y0139850D02*
X0507700Y0138790D01*
X0520570Y0137690D02*
X0520570Y0134490D01*
X0520570Y0137690D02*
X0521640Y0138760D01*
X0523770Y0138760D01*
X0524840Y0137690D01*
X0524840Y0134490D01*
X0524840Y0140930D02*
X0524840Y0144140D01*
X0523770Y0145200D01*
X0522700Y0144140D01*
X0522700Y0140930D01*
X0521640Y0140930D02*
X0524840Y0140930D01*
X0521640Y0140930D02*
X0520570Y0142000D01*
X0520570Y0144140D01*
X0521640Y0147380D02*
X0524840Y0147380D01*
X0524840Y0150580D01*
X0523770Y0151650D01*
X0522700Y0150580D01*
X0522700Y0147380D01*
X0521640Y0147380D02*
X0520570Y0148450D01*
X0520570Y0150580D01*
X0520570Y0153830D02*
X0520570Y0157030D01*
X0521640Y0158100D01*
X0522700Y0157030D01*
X0522700Y0154890D01*
X0523770Y0153830D01*
X0524840Y0154890D01*
X0524840Y0158100D01*
X0524840Y0160260D02*
X0524840Y0162390D01*
X0524840Y0161320D02*
X0518430Y0161320D01*
X0518430Y0160260D02*
X0518430Y0162390D01*
X0520570Y0171010D02*
X0525910Y0171010D01*
X0526970Y0172080D01*
X0526970Y0173150D01*
X0524840Y0174220D02*
X0524840Y0171010D01*
X0524840Y0174220D02*
X0523770Y0175280D01*
X0520570Y0175280D01*
X0521640Y0177460D02*
X0520570Y0178530D01*
X0520570Y0181730D01*
X0518430Y0181730D02*
X0524840Y0181730D01*
X0524840Y0178530D01*
X0523770Y0177460D01*
X0521640Y0177460D01*
X0521640Y0190350D02*
X0524840Y0190350D01*
X0521640Y0190350D02*
X0520570Y0191420D01*
X0520570Y0194620D01*
X0524840Y0194620D01*
X0524840Y0196790D02*
X0524840Y0200000D01*
X0523770Y0201060D01*
X0521640Y0201060D01*
X0520570Y0200000D01*
X0520570Y0196790D01*
X0525910Y0196790D01*
X0526970Y0197860D01*
X0526970Y0198930D01*
X0524840Y0203230D02*
X0524840Y0205360D01*
X0524840Y0204290D02*
X0520570Y0204290D01*
X0520570Y0205360D01*
X0520570Y0207540D02*
X0520570Y0210740D01*
X0521640Y0211810D01*
X0522700Y0210740D01*
X0522700Y0208600D01*
X0523770Y0207540D01*
X0524840Y0208600D01*
X0524840Y0211810D01*
X0522700Y0213980D02*
X0522700Y0218250D01*
X0521640Y0218250D02*
X0520570Y0217180D01*
X0520570Y0215050D01*
X0521640Y0213980D01*
X0522700Y0213980D01*
X0524840Y0215050D02*
X0524840Y0217180D01*
X0523770Y0218250D01*
X0521640Y0218250D01*
X0523770Y0220430D02*
X0524840Y0221490D01*
X0524840Y0224700D01*
X0518430Y0224700D01*
X0518430Y0221490D01*
X0519500Y0220430D01*
X0523770Y0220430D01*
X0509840Y0220430D02*
X0505570Y0220430D01*
X0503430Y0222560D01*
X0505570Y0224700D01*
X0509840Y0224700D01*
X0506640Y0224700D02*
X0506640Y0220430D01*
X0508770Y0218250D02*
X0509840Y0217180D01*
X0509840Y0215050D01*
X0508770Y0213980D01*
X0504500Y0213980D02*
X0503430Y0215050D01*
X0503430Y0217180D01*
X0504500Y0218250D01*
X0508770Y0218250D01*
X0508770Y0205360D02*
X0509840Y0204290D01*
X0509840Y0202160D01*
X0508770Y0201090D01*
X0508770Y0198920D02*
X0506640Y0198920D01*
X0505570Y0197850D01*
X0505570Y0195710D01*
X0506640Y0194650D01*
X0508770Y0194650D01*
X0509840Y0195710D01*
X0509840Y0197850D01*
X0508770Y0198920D01*
X0504500Y0201090D02*
X0503430Y0202160D01*
X0503430Y0204290D01*
X0504500Y0205360D01*
X0508770Y0205360D01*
X0517370Y0204290D02*
X0518430Y0204290D01*
X0509840Y0192470D02*
X0505570Y0192470D01*
X0505570Y0189270D01*
X0506640Y0188200D01*
X0509840Y0188200D01*
X0508770Y0184960D02*
X0509840Y0183890D01*
X0508770Y0184960D02*
X0504500Y0184960D01*
X0505570Y0186020D02*
X0505570Y0183890D01*
X0505570Y0181730D02*
X0509840Y0181730D01*
X0507700Y0181730D02*
X0505570Y0179590D01*
X0505570Y0178530D01*
X0506640Y0176360D02*
X0508770Y0176360D01*
X0509840Y0175290D01*
X0509840Y0173150D01*
X0508770Y0172090D01*
X0506640Y0172090D01*
X0505570Y0173150D01*
X0505570Y0175290D01*
X0506640Y0176360D01*
X0509840Y0169910D02*
X0509840Y0167780D01*
X0509840Y0168840D02*
X0503430Y0168840D01*
X0503430Y0169910D01*
X0503430Y0165620D02*
X0503430Y0164550D01*
X0509840Y0164550D01*
X0509840Y0165620D02*
X0509840Y0163480D01*
X0508770Y0161320D02*
X0506640Y0161320D01*
X0505570Y0160250D01*
X0505570Y0158120D01*
X0506640Y0157050D01*
X0507700Y0157050D01*
X0507700Y0161320D01*
X0508770Y0161320D02*
X0509840Y0160250D01*
X0509840Y0158120D01*
X0509840Y0154870D02*
X0505570Y0154870D01*
X0507700Y0154870D02*
X0505570Y0152740D01*
X0505570Y0151670D01*
X0505570Y0105460D02*
X0509840Y0103320D01*
X0505570Y0101190D01*
X0504500Y0099010D02*
X0508770Y0099010D01*
X0504500Y0094740D01*
X0508770Y0094740D01*
X0509840Y0095810D01*
X0509840Y0097950D01*
X0508770Y0099010D01*
X0504500Y0099010D02*
X0503430Y0097950D01*
X0503430Y0095810D01*
X0504500Y0094740D01*
X0508770Y0092570D02*
X0508770Y0091500D01*
X0509840Y0091500D01*
X0509840Y0092570D01*
X0508770Y0092570D01*
X0509840Y0089350D02*
X0509840Y0085080D01*
X0509840Y0087210D02*
X0503430Y0087210D01*
X0505570Y0089350D01*
D498*
X0364680Y0019500D02*
X0364680Y0404200D01*
X0685640Y0404200D01*
X0685640Y0019500D01*
X0364680Y0019500D01*
X0020000Y0288200D02*
G75*
%LPD*%
D498*
X0019500Y0287700D02*
X0019500Y0397260D01*
X0282200Y0397260D01*
X0282200Y0287700D01*
X0019500Y0287700D01*
X0038720Y0403260D02*
G75*
%LPD*%
D598*
X0198380Y0458650D02*
X0197310Y0459720D01*
X0193040Y0459720D01*
X0194110Y0460790D02*
X0194110Y0458650D01*
X0194110Y0462960D02*
X0194110Y0466170D01*
X0195180Y0467230D01*
X0196240Y0466170D01*
X0196240Y0464030D01*
X0197310Y0462960D01*
X0198380Y0464030D01*
X0198380Y0467230D01*
X0198380Y0469410D02*
X0195180Y0469410D01*
X0194110Y0470480D01*
X0194110Y0473680D01*
X0198380Y0473680D01*
X0198380Y0475860D02*
X0194110Y0475860D01*
X0194110Y0480130D02*
X0197310Y0480130D01*
X0198380Y0479060D01*
X0198380Y0475860D01*
X0198380Y0482290D02*
X0196240Y0485500D01*
X0194110Y0482290D01*
X0191970Y0485500D02*
X0198380Y0485500D01*
X0196240Y0487670D02*
X0196240Y0491940D01*
X0195180Y0491940D02*
X0194110Y0490870D01*
X0194110Y0488740D01*
X0195180Y0487670D01*
X0196240Y0487670D01*
X0198380Y0488740D02*
X0198380Y0490870D01*
X0197310Y0491940D01*
X0195180Y0491940D01*
X0194110Y0494100D02*
X0194110Y0496240D01*
X0193040Y0495170D02*
X0197310Y0495170D01*
X0198380Y0494100D01*
X0198380Y0498410D02*
X0194110Y0498410D01*
X0198380Y0498410D02*
X0198380Y0501620D01*
X0197310Y0502680D01*
X0194110Y0502680D01*
X0195180Y0504860D02*
X0195180Y0506990D01*
X0195180Y0504860D02*
X0197310Y0504860D01*
X0198380Y0505930D01*
X0198380Y0508060D01*
X0197310Y0509130D01*
X0193040Y0509130D01*
X0191970Y0508060D01*
X0191970Y0505930D01*
X0193040Y0504860D01*
X0183380Y0506980D02*
X0179110Y0506980D01*
X0181240Y0506980D02*
X0179110Y0504850D01*
X0179110Y0503780D01*
X0180180Y0501610D02*
X0182310Y0501610D01*
X0183380Y0500540D01*
X0183380Y0497340D01*
X0176970Y0497340D01*
X0179110Y0497340D02*
X0179110Y0500540D01*
X0180180Y0501610D01*
X0180180Y0509160D02*
X0183380Y0509160D01*
X0183380Y0512360D01*
X0182310Y0513430D01*
X0181240Y0512360D01*
X0181240Y0509160D01*
X0180180Y0509160D02*
X0179110Y0510220D01*
X0179110Y0512360D01*
X0180180Y0515600D02*
X0182310Y0515600D01*
X0183380Y0516670D01*
X0183380Y0518800D01*
X0182310Y0519870D01*
X0180180Y0519870D01*
X0179110Y0518800D01*
X0179110Y0516670D01*
X0180180Y0515600D01*
X0181240Y0522050D02*
X0182310Y0522050D01*
X0183380Y0523110D01*
X0183380Y0526320D01*
X0176970Y0526320D01*
X0176970Y0523110D01*
X0178040Y0522050D01*
X0179110Y0522050D01*
X0180180Y0523110D01*
X0180180Y0526320D01*
X0180180Y0523110D02*
X0181240Y0522050D01*
X0194110Y0520950D02*
X0194110Y0517750D01*
X0194110Y0520950D02*
X0195180Y0522020D01*
X0197310Y0522020D01*
X0198380Y0520950D01*
X0198380Y0517750D01*
X0198380Y0524190D02*
X0198380Y0527400D01*
X0197310Y0528460D01*
X0196240Y0527400D01*
X0196240Y0524190D01*
X0195180Y0524190D02*
X0198380Y0524190D01*
X0195180Y0524190D02*
X0194110Y0525260D01*
X0194110Y0527400D01*
X0195180Y0530640D02*
X0198380Y0530640D01*
X0198380Y0533840D01*
X0197310Y0534910D01*
X0196240Y0533840D01*
X0196240Y0530640D01*
X0195180Y0530640D02*
X0194110Y0531710D01*
X0194110Y0533840D01*
X0194110Y0537090D02*
X0194110Y0540290D01*
X0195180Y0541360D01*
X0196240Y0540290D01*
X0196240Y0538150D01*
X0197310Y0537090D01*
X0198380Y0538150D01*
X0198380Y0541360D01*
X0198380Y0543520D02*
X0198380Y0545650D01*
X0198380Y0544580D02*
X0191970Y0544580D01*
X0191970Y0543520D02*
X0191970Y0545650D01*
X0194110Y0554270D02*
X0199450Y0554270D01*
X0200510Y0555340D01*
X0200510Y0556410D01*
X0198380Y0557480D02*
X0198380Y0554270D01*
X0198380Y0557480D02*
X0197310Y0558540D01*
X0194110Y0558540D01*
X0195180Y0560720D02*
X0194110Y0561790D01*
X0194110Y0564990D01*
X0191970Y0564990D02*
X0198380Y0564990D01*
X0198380Y0561790D01*
X0197310Y0560720D01*
X0195180Y0560720D01*
X0195180Y0573610D02*
X0198380Y0573610D01*
X0195180Y0573610D02*
X0194110Y0574680D01*
X0194110Y0577880D01*
X0198380Y0577880D01*
X0198380Y0580050D02*
X0198380Y0583260D01*
X0197310Y0584320D01*
X0195180Y0584320D01*
X0194110Y0583260D01*
X0194110Y0580050D01*
X0199450Y0580050D01*
X0200510Y0581120D01*
X0200510Y0582190D01*
X0198380Y0586490D02*
X0198380Y0588620D01*
X0198380Y0587550D02*
X0194110Y0587550D01*
X0194110Y0588620D01*
X0194110Y0590800D02*
X0194110Y0594000D01*
X0195180Y0595070D01*
X0196240Y0594000D01*
X0196240Y0591860D01*
X0197310Y0590800D01*
X0198380Y0591860D01*
X0198380Y0595070D01*
X0196240Y0597240D02*
X0196240Y0601510D01*
X0195180Y0601510D02*
X0194110Y0600440D01*
X0194110Y0598310D01*
X0195180Y0597240D01*
X0196240Y0597240D01*
X0198380Y0598310D02*
X0198380Y0600440D01*
X0197310Y0601510D01*
X0195180Y0601510D01*
X0197310Y0603690D02*
X0198380Y0604750D01*
X0198380Y0607960D01*
X0191970Y0607960D01*
X0191970Y0604750D01*
X0193040Y0603690D01*
X0197310Y0603690D01*
X0183380Y0603690D02*
X0179110Y0603690D01*
X0176970Y0605820D01*
X0179110Y0607960D01*
X0183380Y0607960D01*
X0180180Y0607960D02*
X0180180Y0603690D01*
X0182310Y0601510D02*
X0183380Y0600440D01*
X0183380Y0598310D01*
X0182310Y0597240D01*
X0178040Y0597240D02*
X0176970Y0598310D01*
X0176970Y0600440D01*
X0178040Y0601510D01*
X0182310Y0601510D01*
X0182310Y0588620D02*
X0183380Y0587550D01*
X0183380Y0585420D01*
X0182310Y0584350D01*
X0182310Y0582180D02*
X0180180Y0582180D01*
X0179110Y0581110D01*
X0179110Y0578970D01*
X0180180Y0577910D01*
X0182310Y0577910D01*
X0183380Y0578970D01*
X0183380Y0581110D01*
X0182310Y0582180D01*
X0178040Y0584350D02*
X0176970Y0585420D01*
X0176970Y0587550D01*
X0178040Y0588620D01*
X0182310Y0588620D01*
X0190910Y0587550D02*
X0191970Y0587550D01*
X0183380Y0575730D02*
X0179110Y0575730D01*
X0179110Y0572530D01*
X0180180Y0571460D01*
X0183380Y0571460D01*
X0182310Y0568220D02*
X0183380Y0567150D01*
X0182310Y0568220D02*
X0178040Y0568220D01*
X0179110Y0569280D02*
X0179110Y0567150D01*
X0179110Y0564990D02*
X0183380Y0564990D01*
X0181240Y0564990D02*
X0179110Y0562850D01*
X0179110Y0561790D01*
X0180180Y0559620D02*
X0182310Y0559620D01*
X0183380Y0558550D01*
X0183380Y0556410D01*
X0182310Y0555350D01*
X0180180Y0555350D01*
X0179110Y0556410D01*
X0179110Y0558550D01*
X0180180Y0559620D01*
X0183380Y0553170D02*
X0183380Y0551040D01*
X0183380Y0552100D02*
X0176970Y0552100D01*
X0176970Y0553170D01*
X0176970Y0548880D02*
X0176970Y0547810D01*
X0183380Y0547810D01*
X0183380Y0548880D02*
X0183380Y0546740D01*
X0182310Y0544580D02*
X0180180Y0544580D01*
X0179110Y0543510D01*
X0179110Y0541380D01*
X0180180Y0540310D01*
X0181240Y0540310D01*
X0181240Y0544580D01*
X0182310Y0544580D02*
X0183380Y0543510D01*
X0183380Y0541380D01*
X0183380Y0538130D02*
X0179110Y0538130D01*
X0181240Y0538130D02*
X0179110Y0536000D01*
X0179110Y0534930D01*
X0179110Y0488720D02*
X0183380Y0486580D01*
X0179110Y0484450D01*
X0178040Y0482270D02*
X0182310Y0482270D01*
X0178040Y0478000D01*
X0182310Y0478000D01*
X0183380Y0479070D01*
X0183380Y0481210D01*
X0182310Y0482270D01*
X0178040Y0482270D02*
X0176970Y0481210D01*
X0176970Y0479070D01*
X0178040Y0478000D01*
X0182310Y0475830D02*
X0182310Y0474760D01*
X0183380Y0474760D01*
X0183380Y0475830D01*
X0182310Y0475830D01*
X0183380Y0472610D02*
X0183380Y0468340D01*
X0183380Y0470470D02*
X0176970Y0470470D01*
X0179110Y0472610D01*
D498*
X0038220Y0402760D02*
X0038220Y0787460D01*
X0359180Y0787460D01*
X0359180Y0402760D01*
X0038220Y0402760D01*
X0365180Y0410200D02*
G75*
%LPD*%
D598*
X0524840Y0465590D02*
X0523770Y0466660D01*
X0519500Y0466660D01*
X0520570Y0467730D02*
X0520570Y0465590D01*
X0520570Y0469900D02*
X0520570Y0473110D01*
X0521640Y0474170D01*
X0522700Y0473110D01*
X0522700Y0470970D01*
X0523770Y0469900D01*
X0524840Y0470970D01*
X0524840Y0474170D01*
X0524840Y0476350D02*
X0521640Y0476350D01*
X0520570Y0477420D01*
X0520570Y0480620D01*
X0524840Y0480620D01*
X0524840Y0482800D02*
X0520570Y0482800D01*
X0520570Y0487070D02*
X0523770Y0487070D01*
X0524840Y0486000D01*
X0524840Y0482800D01*
X0524840Y0489230D02*
X0522700Y0492440D01*
X0520570Y0489230D01*
X0518430Y0492440D02*
X0524840Y0492440D01*
X0522700Y0494610D02*
X0522700Y0498880D01*
X0521640Y0498880D02*
X0520570Y0497810D01*
X0520570Y0495680D01*
X0521640Y0494610D01*
X0522700Y0494610D01*
X0524840Y0495680D02*
X0524840Y0497810D01*
X0523770Y0498880D01*
X0521640Y0498880D01*
X0520570Y0501040D02*
X0520570Y0503180D01*
X0519500Y0502110D02*
X0523770Y0502110D01*
X0524840Y0501040D01*
X0524840Y0505350D02*
X0520570Y0505350D01*
X0524840Y0505350D02*
X0524840Y0508560D01*
X0523770Y0509620D01*
X0520570Y0509620D01*
X0521640Y0511800D02*
X0521640Y0513930D01*
X0521640Y0511800D02*
X0523770Y0511800D01*
X0524840Y0512870D01*
X0524840Y0515000D01*
X0523770Y0516070D01*
X0519500Y0516070D01*
X0518430Y0515000D01*
X0518430Y0512870D01*
X0519500Y0511800D01*
X0509840Y0513920D02*
X0505570Y0513920D01*
X0507700Y0513920D02*
X0505570Y0511790D01*
X0505570Y0510720D01*
X0506640Y0508550D02*
X0508770Y0508550D01*
X0509840Y0507480D01*
X0509840Y0504280D01*
X0503430Y0504280D01*
X0505570Y0504280D02*
X0505570Y0507480D01*
X0506640Y0508550D01*
X0506640Y0516100D02*
X0509840Y0516100D01*
X0509840Y0519300D01*
X0508770Y0520370D01*
X0507700Y0519300D01*
X0507700Y0516100D01*
X0506640Y0516100D02*
X0505570Y0517160D01*
X0505570Y0519300D01*
X0506640Y0522540D02*
X0508770Y0522540D01*
X0509840Y0523610D01*
X0509840Y0525740D01*
X0508770Y0526810D01*
X0506640Y0526810D01*
X0505570Y0525740D01*
X0505570Y0523610D01*
X0506640Y0522540D01*
X0507700Y0528990D02*
X0508770Y0528990D01*
X0509840Y0530050D01*
X0509840Y0533260D01*
X0503430Y0533260D01*
X0503430Y0530050D01*
X0504500Y0528990D01*
X0505570Y0528990D01*
X0506640Y0530050D01*
X0506640Y0533260D01*
X0506640Y0530050D02*
X0507700Y0528990D01*
X0520570Y0527890D02*
X0520570Y0524690D01*
X0520570Y0527890D02*
X0521640Y0528960D01*
X0523770Y0528960D01*
X0524840Y0527890D01*
X0524840Y0524690D01*
X0524840Y0531130D02*
X0524840Y0534340D01*
X0523770Y0535400D01*
X0522700Y0534340D01*
X0522700Y0531130D01*
X0521640Y0531130D02*
X0524840Y0531130D01*
X0521640Y0531130D02*
X0520570Y0532200D01*
X0520570Y0534340D01*
X0521640Y0537580D02*
X0524840Y0537580D01*
X0524840Y0540780D01*
X0523770Y0541850D01*
X0522700Y0540780D01*
X0522700Y0537580D01*
X0521640Y0537580D02*
X0520570Y0538650D01*
X0520570Y0540780D01*
X0520570Y0544030D02*
X0520570Y0547230D01*
X0521640Y0548300D01*
X0522700Y0547230D01*
X0522700Y0545090D01*
X0523770Y0544030D01*
X0524840Y0545090D01*
X0524840Y0548300D01*
X0524840Y0550460D02*
X0524840Y0552590D01*
X0524840Y0551520D02*
X0518430Y0551520D01*
X0518430Y0550460D02*
X0518430Y0552590D01*
X0520570Y0561210D02*
X0525910Y0561210D01*
X0526970Y0562280D01*
X0526970Y0563350D01*
X0524840Y0564420D02*
X0524840Y0561210D01*
X0524840Y0564420D02*
X0523770Y0565480D01*
X0520570Y0565480D01*
X0521640Y0567660D02*
X0520570Y0568730D01*
X0520570Y0571930D01*
X0518430Y0571930D02*
X0524840Y0571930D01*
X0524840Y0568730D01*
X0523770Y0567660D01*
X0521640Y0567660D01*
X0521640Y0580550D02*
X0524840Y0580550D01*
X0521640Y0580550D02*
X0520570Y0581620D01*
X0520570Y0584820D01*
X0524840Y0584820D01*
X0524840Y0586990D02*
X0524840Y0590200D01*
X0523770Y0591260D01*
X0521640Y0591260D01*
X0520570Y0590200D01*
X0520570Y0586990D01*
X0525910Y0586990D01*
X0526970Y0588060D01*
X0526970Y0589130D01*
X0524840Y0593430D02*
X0524840Y0595560D01*
X0524840Y0594490D02*
X0520570Y0594490D01*
X0520570Y0595560D01*
X0520570Y0597740D02*
X0520570Y0600940D01*
X0521640Y0602010D01*
X0522700Y0600940D01*
X0522700Y0598800D01*
X0523770Y0597740D01*
X0524840Y0598800D01*
X0524840Y0602010D01*
X0522700Y0604180D02*
X0522700Y0608450D01*
X0521640Y0608450D02*
X0520570Y0607380D01*
X0520570Y0605250D01*
X0521640Y0604180D01*
X0522700Y0604180D01*
X0524840Y0605250D02*
X0524840Y0607380D01*
X0523770Y0608450D01*
X0521640Y0608450D01*
X0523770Y0610630D02*
X0524840Y0611690D01*
X0524840Y0614900D01*
X0518430Y0614900D01*
X0518430Y0611690D01*
X0519500Y0610630D01*
X0523770Y0610630D01*
X0509840Y0610630D02*
X0505570Y0610630D01*
X0503430Y0612760D01*
X0505570Y0614900D01*
X0509840Y0614900D01*
X0506640Y0614900D02*
X0506640Y0610630D01*
X0508770Y0608450D02*
X0509840Y0607380D01*
X0509840Y0605250D01*
X0508770Y0604180D01*
X0504500Y0604180D02*
X0503430Y0605250D01*
X0503430Y0607380D01*
X0504500Y0608450D01*
X0508770Y0608450D01*
X0508770Y0595560D02*
X0509840Y0594490D01*
X0509840Y0592360D01*
X0508770Y0591290D01*
X0508770Y0589120D02*
X0506640Y0589120D01*
X0505570Y0588050D01*
X0505570Y0585910D01*
X0506640Y0584850D01*
X0508770Y0584850D01*
X0509840Y0585910D01*
X0509840Y0588050D01*
X0508770Y0589120D01*
X0504500Y0591290D02*
X0503430Y0592360D01*
X0503430Y0594490D01*
X0504500Y0595560D01*
X0508770Y0595560D01*
X0517370Y0594490D02*
X0518430Y0594490D01*
X0509840Y0582670D02*
X0505570Y0582670D01*
X0505570Y0579470D01*
X0506640Y0578400D01*
X0509840Y0578400D01*
X0508770Y0575160D02*
X0509840Y0574090D01*
X0508770Y0575160D02*
X0504500Y0575160D01*
X0505570Y0576220D02*
X0505570Y0574090D01*
X0505570Y0571930D02*
X0509840Y0571930D01*
X0507700Y0571930D02*
X0505570Y0569790D01*
X0505570Y0568730D01*
X0506640Y0566560D02*
X0508770Y0566560D01*
X0509840Y0565490D01*
X0509840Y0563350D01*
X0508770Y0562290D01*
X0506640Y0562290D01*
X0505570Y0563350D01*
X0505570Y0565490D01*
X0506640Y0566560D01*
X0509840Y0560110D02*
X0509840Y0557980D01*
X0509840Y0559040D02*
X0503430Y0559040D01*
X0503430Y0560110D01*
X0503430Y0555820D02*
X0503430Y0554750D01*
X0509840Y0554750D01*
X0509840Y0555820D02*
X0509840Y0553680D01*
X0508770Y0551520D02*
X0506640Y0551520D01*
X0505570Y0550450D01*
X0505570Y0548320D01*
X0506640Y0547250D01*
X0507700Y0547250D01*
X0507700Y0551520D01*
X0508770Y0551520D02*
X0509840Y0550450D01*
X0509840Y0548320D01*
X0509840Y0545070D02*
X0505570Y0545070D01*
X0507700Y0545070D02*
X0505570Y0542940D01*
X0505570Y0541870D01*
X0505570Y0495660D02*
X0509840Y0493520D01*
X0505570Y0491390D01*
X0504500Y0489210D02*
X0508770Y0489210D01*
X0504500Y0484940D01*
X0508770Y0484940D01*
X0509840Y0486010D01*
X0509840Y0488150D01*
X0508770Y0489210D01*
X0504500Y0489210D02*
X0503430Y0488150D01*
X0503430Y0486010D01*
X0504500Y0484940D01*
X0508770Y0482770D02*
X0508770Y0481700D01*
X0509840Y0481700D01*
X0509840Y0482770D01*
X0508770Y0482770D01*
X0509840Y0479550D02*
X0509840Y0475280D01*
X0509840Y0477410D02*
X0503430Y0477410D01*
X0505570Y0479550D01*
D498*
X0364680Y0409700D02*
X0364680Y0794400D01*
X0685640Y0794400D01*
X0685640Y0409700D01*
X0364680Y0409700D01*
D498*
X0023000Y0010500D02*
X0010500Y0010500D01*
X0010500Y0023000D01*
X0694640Y0023000D02*
X0694640Y0010500D01*
X0682140Y0010500D01*
X0682140Y0803400D02*
X0694640Y0803400D01*
X0694640Y0790900D01*
X0010500Y0790900D02*
X0010500Y0803400D01*
X0023000Y0803400D01*
M02*
