G75*
G70*
%OFA0B0*%
%FSLAX25Y25*%
%IPPOS*%
%LPD*%
%AMOC8*
5,1,8,0,0,1.08239X$1,22.5*
%
%ADD102R,0.08000X0.08000*%
%ADD12R,0.06300X0.07090*%
%ADD1303R,0.08800X0.04800*%
%ADD1304R,0.08660X0.14170*%
%ADD1306R,0.05510X0.06300*%
%ADD1307R,0.01370X0.05500*%
%ADD1308R,0.01970X0.09840*%
%ADD1309R,0.07870X0.09840*%
%ADD158C,0.06000*%
%ADD173C,0.07400*%
%ADD207R,0.06500X0.06500*%
%ADD224C,0.06500*%
%ADD230R,0.08000X0.02600*%
%ADD260C,0.08000*%
%ADD267C,0.07600*%
%ADD289C,0.01600*%
%ADD291R,0.07090X0.06300*%
%ADD30OC8,0.06600*%
%ADD320R,0.07400X0.07400*%
%ADD346C,0.17000*%
%ADD35C,0.01200*%
%ADD377R,0.07600X0.07600*%
%ADD390R,0.05910X0.05910*%
%ADD436R,0.03960X0.03960*%
%ADD458C,0.07870*%
%ADD485C,0.00000*%
%ADD49C,0.06600*%
%ADD498C,0.01000*%
%ADD527C,0.03100*%
%ADD574R,0.02600X0.08000*%
%ADD599C,0.05200*%
%ADD602C,0.04000*%
X0020000Y0020000D02*
G75*
%LPD*%
D485*
X0134960Y0020000D02*
X0020000Y0020000D01*
X0020000Y0422450D01*
X0134960Y0422450D01*
X0134960Y0020000D01*
D599*
X0107560Y0203750D02*
X0102360Y0203750D01*
X0102360Y0213750D02*
X0107560Y0213750D01*
X0107560Y0223750D02*
X0102360Y0223750D01*
X0102360Y0233750D02*
X0107560Y0233750D01*
X0107560Y0243750D02*
X0102360Y0243750D01*
X0102360Y0253750D02*
X0107560Y0253750D01*
X0107560Y0263750D02*
X0102360Y0263750D01*
X0102360Y0273750D02*
X0107560Y0273750D01*
X0107560Y0283750D02*
X0102360Y0283750D01*
X0102360Y0293750D02*
X0107560Y0293750D01*
X0107560Y0303750D02*
X0102360Y0303750D01*
X0102360Y0313750D02*
X0107560Y0313750D01*
X0107560Y0323750D02*
X0102360Y0323750D01*
X0102360Y0333750D02*
X0107560Y0333750D01*
X0077560Y0333750D02*
X0072360Y0333750D01*
X0072360Y0323750D02*
X0077560Y0323750D01*
X0077560Y0313750D02*
X0072360Y0313750D01*
X0072360Y0303750D02*
X0077560Y0303750D01*
X0077560Y0293750D02*
X0072360Y0293750D01*
X0072360Y0283750D02*
X0077560Y0283750D01*
X0077560Y0273750D02*
X0072360Y0273750D01*
X0072360Y0263750D02*
X0077560Y0263750D01*
X0077560Y0253750D02*
X0072360Y0253750D01*
X0072360Y0243750D02*
X0077560Y0243750D01*
X0077560Y0233750D02*
X0072360Y0233750D01*
X0072360Y0223750D02*
X0077560Y0223750D01*
X0077560Y0213750D02*
X0072360Y0213750D01*
X0072360Y0203750D02*
X0077560Y0203750D01*
D173*
X0074960Y0188750D03*
X0074960Y0173750D03*
X0074960Y0163750D03*
X0064960Y0163750D03*
X0064960Y0133750D03*
X0074960Y0133750D03*
X0079960Y0123750D03*
X0079960Y0113750D03*
X0089960Y0153750D03*
X0094960Y0146250D03*
X0099960Y0153750D03*
X0114960Y0173750D03*
X0114960Y0188750D03*
X0119960Y0203750D03*
X0120960Y0213750D03*
X0119960Y0223750D03*
X0120960Y0233750D03*
X0119960Y0243750D03*
X0120960Y0253750D03*
X0119460Y0268750D03*
X0120460Y0278750D03*
X0119460Y0288750D03*
X0119960Y0303050D03*
X0119960Y0314450D03*
X0114960Y0348750D03*
X0114960Y0388750D03*
X0094960Y0388750D03*
X0094960Y0348750D03*
X0074960Y0348750D03*
X0074960Y0388750D03*
X0059960Y0368750D03*
X0059960Y0328750D03*
X0059960Y0318750D03*
X0059960Y0278750D03*
X0059960Y0268750D03*
X0059960Y0228750D03*
X0094960Y0064250D03*
X0104960Y0063250D03*
X0114960Y0064250D03*
X0114960Y0088750D03*
X0114960Y0098750D03*
X0119960Y0113750D03*
X0119960Y0123750D03*
X0119960Y0148050D03*
X0119960Y0159450D03*
X0122460Y0093750D03*
D224*
X0109810Y0133750D03*
X0094960Y0093750D03*
X0090120Y0133750D03*
X0104960Y0048750D03*
X0114960Y0048750D03*
X0064960Y0203750D03*
X0064960Y0213750D03*
X0054960Y0213750D03*
X0054960Y0203750D03*
X0054960Y0188750D03*
D207*
X0064960Y0188750D03*
X0084960Y0093750D03*
D377*
X0094960Y0033750D03*
D267*
X0104960Y0033750D03*
X0114960Y0033750D03*
D30*
X0059960Y0088750D03*
X0059960Y0098750D03*
X0043780Y0296250D03*
X0074960Y0398750D03*
X0074960Y0408750D03*
X0094960Y0408750D03*
X0094960Y0398750D03*
X0114960Y0398750D03*
X0114960Y0408750D03*
D49*
X0043780Y0307250D03*
X0036150Y0302250D03*
X0036150Y0290250D03*
D289*
X0034960Y0288750D01*
X0054960Y0268750D01*
X0059960Y0268750D01*
X0059960Y0258750D02*
X0029960Y0288750D01*
X0029960Y0328750D01*
X0059960Y0328750D01*
X0059960Y0318750D02*
X0034960Y0318750D01*
X0034960Y0303750D01*
X0036150Y0302250D01*
X0043780Y0296250D02*
X0044960Y0293750D01*
X0049960Y0288750D01*
X0084960Y0288750D01*
X0084960Y0218750D01*
X0069960Y0218750D01*
X0064960Y0213750D01*
X0064960Y0208750D01*
X0114960Y0208750D01*
X0119960Y0213750D01*
X0120960Y0213750D01*
X0114960Y0218750D02*
X0119960Y0223750D01*
X0120960Y0233750D02*
X0104960Y0233750D01*
X0104960Y0243750D02*
X0119960Y0243750D01*
X0104960Y0253750D02*
X0119960Y0268750D01*
X0119460Y0268750D01*
X0109960Y0268750D02*
X0119960Y0278750D01*
X0120460Y0278750D01*
X0119960Y0288750D02*
X0119460Y0288750D01*
X0084960Y0288750D01*
X0084960Y0298750D02*
X0114960Y0298750D01*
X0119960Y0303750D01*
X0119960Y0303050D01*
X0119960Y0313750D02*
X0119960Y0314450D01*
X0119960Y0313750D02*
X0114960Y0313750D01*
X0104960Y0323750D01*
X0109960Y0328750D02*
X0099960Y0328750D01*
X0084960Y0313750D01*
X0074960Y0313750D01*
X0069960Y0318750D02*
X0079960Y0318750D01*
X0109960Y0348750D01*
X0114960Y0348750D01*
X0124960Y0343750D02*
X0109960Y0328750D01*
X0094960Y0348750D02*
X0104960Y0358750D01*
X0124960Y0358750D01*
X0124960Y0343750D01*
X0114960Y0388750D02*
X0114960Y0398750D01*
X0114960Y0408750D02*
X0094960Y0408750D01*
X0074960Y0408750D01*
X0074960Y0398750D02*
X0074960Y0388750D01*
X0094960Y0388750D02*
X0094960Y0398750D01*
X0069960Y0318750D02*
X0064960Y0313750D01*
X0064960Y0303750D01*
X0074960Y0293750D01*
X0074960Y0263750D02*
X0069960Y0258750D01*
X0059960Y0258750D01*
X0074960Y0243750D02*
X0059960Y0228750D01*
X0064960Y0208750D02*
X0064960Y0203750D01*
X0064960Y0188750D01*
X0074960Y0188750D01*
X0074960Y0173750D01*
X0089960Y0173750D01*
X0089960Y0153750D01*
X0089960Y0143750D02*
X0109960Y0123750D01*
X0119960Y0123750D01*
X0119960Y0113750D02*
X0114960Y0113750D01*
X0114960Y0098750D01*
X0114960Y0088750D02*
X0059960Y0088750D01*
X0059960Y0098750D02*
X0079960Y0098750D01*
X0084960Y0093750D01*
X0079960Y0113750D02*
X0054960Y0113750D01*
X0054960Y0133750D01*
X0064960Y0143750D01*
X0064960Y0163750D01*
X0074960Y0163750D02*
X0074960Y0143750D01*
X0089960Y0143750D01*
X0094960Y0113750D02*
X0079960Y0113750D01*
X0074960Y0133750D02*
X0064960Y0133750D01*
X0054960Y0188750D02*
X0054960Y0203750D01*
X0064960Y0203750D02*
X0074960Y0203750D01*
X0074960Y0213750D02*
X0084960Y0213750D01*
X0089960Y0218750D01*
X0094960Y0218750D01*
X0094960Y0263750D01*
X0099960Y0268750D01*
X0109960Y0268750D01*
X0104960Y0273750D02*
X0119960Y0288750D01*
X0114960Y0218750D02*
X0094960Y0218750D01*
X0104960Y0203750D02*
X0114960Y0203750D01*
X0114960Y0188750D01*
X0114960Y0203750D02*
X0119960Y0203750D01*
X0094960Y0113750D02*
X0094960Y0093750D01*
X0094960Y0064250D02*
X0094960Y0033750D01*
X0104960Y0033750D02*
X0114960Y0043750D01*
X0114960Y0048750D01*
X0114960Y0064250D01*
X0104960Y0063750D02*
X0104960Y0063250D01*
X0104960Y0048750D01*
D602*
X0084960Y0298750D03*
X0141460Y0020000D02*
G75*
%LPD*%
D485*
X0256420Y0020000D02*
X0141460Y0020000D01*
X0141460Y0422450D01*
X0256420Y0422450D01*
X0256420Y0020000D01*
D599*
X0229020Y0203750D02*
X0223820Y0203750D01*
X0223820Y0213750D02*
X0229020Y0213750D01*
X0229020Y0223750D02*
X0223820Y0223750D01*
X0223820Y0233750D02*
X0229020Y0233750D01*
X0229020Y0243750D02*
X0223820Y0243750D01*
X0223820Y0253750D02*
X0229020Y0253750D01*
X0229020Y0263750D02*
X0223820Y0263750D01*
X0223820Y0273750D02*
X0229020Y0273750D01*
X0229020Y0283750D02*
X0223820Y0283750D01*
X0223820Y0293750D02*
X0229020Y0293750D01*
X0229020Y0303750D02*
X0223820Y0303750D01*
X0223820Y0313750D02*
X0229020Y0313750D01*
X0229020Y0323750D02*
X0223820Y0323750D01*
X0223820Y0333750D02*
X0229020Y0333750D01*
X0199020Y0333750D02*
X0193820Y0333750D01*
X0193820Y0323750D02*
X0199020Y0323750D01*
X0199020Y0313750D02*
X0193820Y0313750D01*
X0193820Y0303750D02*
X0199020Y0303750D01*
X0199020Y0293750D02*
X0193820Y0293750D01*
X0193820Y0283750D02*
X0199020Y0283750D01*
X0199020Y0273750D02*
X0193820Y0273750D01*
X0193820Y0263750D02*
X0199020Y0263750D01*
X0199020Y0253750D02*
X0193820Y0253750D01*
X0193820Y0243750D02*
X0199020Y0243750D01*
X0199020Y0233750D02*
X0193820Y0233750D01*
X0193820Y0223750D02*
X0199020Y0223750D01*
X0199020Y0213750D02*
X0193820Y0213750D01*
X0193820Y0203750D02*
X0199020Y0203750D01*
D173*
X0196420Y0188750D03*
X0196420Y0173750D03*
X0196420Y0163750D03*
X0186420Y0163750D03*
X0186420Y0133750D03*
X0196420Y0133750D03*
X0201420Y0123750D03*
X0201420Y0113750D03*
X0211420Y0153750D03*
X0216420Y0146250D03*
X0221420Y0153750D03*
X0236420Y0173750D03*
X0236420Y0188750D03*
X0241420Y0203750D03*
X0242420Y0213750D03*
X0241420Y0223750D03*
X0242420Y0233750D03*
X0241420Y0243750D03*
X0242420Y0253750D03*
X0240920Y0268750D03*
X0241920Y0278750D03*
X0240920Y0288750D03*
X0241420Y0303050D03*
X0241420Y0314450D03*
X0236420Y0348750D03*
X0236420Y0388750D03*
X0216420Y0388750D03*
X0216420Y0348750D03*
X0196420Y0348750D03*
X0196420Y0388750D03*
X0181420Y0368750D03*
X0181420Y0328750D03*
X0181420Y0318750D03*
X0181420Y0278750D03*
X0181420Y0268750D03*
X0181420Y0228750D03*
X0216420Y0064250D03*
X0226420Y0063250D03*
X0236420Y0064250D03*
X0236420Y0088750D03*
X0236420Y0098750D03*
X0241420Y0113750D03*
X0241420Y0123750D03*
X0241420Y0148050D03*
X0241420Y0159450D03*
X0243920Y0093750D03*
D224*
X0231270Y0133750D03*
X0216420Y0093750D03*
X0211580Y0133750D03*
X0226420Y0048750D03*
X0236420Y0048750D03*
X0186420Y0203750D03*
X0186420Y0213750D03*
X0176420Y0213750D03*
X0176420Y0203750D03*
X0176420Y0188750D03*
D207*
X0186420Y0188750D03*
X0206420Y0093750D03*
D377*
X0216420Y0033750D03*
D267*
X0226420Y0033750D03*
X0236420Y0033750D03*
D30*
X0181420Y0088750D03*
X0181420Y0098750D03*
X0165240Y0296250D03*
X0196420Y0398750D03*
X0196420Y0408750D03*
X0216420Y0408750D03*
X0216420Y0398750D03*
X0236420Y0398750D03*
X0236420Y0408750D03*
D49*
X0165240Y0307250D03*
X0157610Y0302250D03*
X0157610Y0290250D03*
D289*
X0156420Y0288750D01*
X0176420Y0268750D01*
X0181420Y0268750D01*
X0181420Y0258750D02*
X0151420Y0288750D01*
X0151420Y0328750D01*
X0181420Y0328750D01*
X0181420Y0318750D02*
X0156420Y0318750D01*
X0156420Y0303750D01*
X0157610Y0302250D01*
X0165240Y0296250D02*
X0166420Y0293750D01*
X0171420Y0288750D01*
X0206420Y0288750D01*
X0206420Y0218750D01*
X0191420Y0218750D01*
X0186420Y0213750D01*
X0186420Y0208750D01*
X0236420Y0208750D01*
X0241420Y0213750D01*
X0242420Y0213750D01*
X0236420Y0218750D02*
X0241420Y0223750D01*
X0242420Y0233750D02*
X0226420Y0233750D01*
X0226420Y0243750D02*
X0241420Y0243750D01*
X0226420Y0253750D02*
X0241420Y0268750D01*
X0240920Y0268750D01*
X0231420Y0268750D02*
X0241420Y0278750D01*
X0241920Y0278750D01*
X0241420Y0288750D02*
X0240920Y0288750D01*
X0206420Y0288750D01*
X0206420Y0298750D02*
X0236420Y0298750D01*
X0241420Y0303750D01*
X0241420Y0303050D01*
X0241420Y0313750D02*
X0241420Y0314450D01*
X0241420Y0313750D02*
X0236420Y0313750D01*
X0226420Y0323750D01*
X0231420Y0328750D02*
X0221420Y0328750D01*
X0206420Y0313750D01*
X0196420Y0313750D01*
X0191420Y0318750D02*
X0201420Y0318750D01*
X0231420Y0348750D01*
X0236420Y0348750D01*
X0246420Y0343750D02*
X0231420Y0328750D01*
X0216420Y0348750D02*
X0226420Y0358750D01*
X0246420Y0358750D01*
X0246420Y0343750D01*
X0236420Y0388750D02*
X0236420Y0398750D01*
X0236420Y0408750D02*
X0216420Y0408750D01*
X0196420Y0408750D01*
X0196420Y0398750D02*
X0196420Y0388750D01*
X0216420Y0388750D02*
X0216420Y0398750D01*
X0191420Y0318750D02*
X0186420Y0313750D01*
X0186420Y0303750D01*
X0196420Y0293750D01*
X0196420Y0263750D02*
X0191420Y0258750D01*
X0181420Y0258750D01*
X0196420Y0243750D02*
X0181420Y0228750D01*
X0186420Y0208750D02*
X0186420Y0203750D01*
X0186420Y0188750D01*
X0196420Y0188750D01*
X0196420Y0173750D01*
X0211420Y0173750D01*
X0211420Y0153750D01*
X0211420Y0143750D02*
X0231420Y0123750D01*
X0241420Y0123750D01*
X0241420Y0113750D02*
X0236420Y0113750D01*
X0236420Y0098750D01*
X0236420Y0088750D02*
X0181420Y0088750D01*
X0181420Y0098750D02*
X0201420Y0098750D01*
X0206420Y0093750D01*
X0201420Y0113750D02*
X0176420Y0113750D01*
X0176420Y0133750D01*
X0186420Y0143750D01*
X0186420Y0163750D01*
X0196420Y0163750D02*
X0196420Y0143750D01*
X0211420Y0143750D01*
X0216420Y0113750D02*
X0201420Y0113750D01*
X0196420Y0133750D02*
X0186420Y0133750D01*
X0176420Y0188750D02*
X0176420Y0203750D01*
X0186420Y0203750D02*
X0196420Y0203750D01*
X0196420Y0213750D02*
X0206420Y0213750D01*
X0211420Y0218750D01*
X0216420Y0218750D01*
X0216420Y0263750D01*
X0221420Y0268750D01*
X0231420Y0268750D01*
X0226420Y0273750D02*
X0241420Y0288750D01*
X0236420Y0218750D02*
X0216420Y0218750D01*
X0226420Y0203750D02*
X0236420Y0203750D01*
X0236420Y0188750D01*
X0236420Y0203750D02*
X0241420Y0203750D01*
X0216420Y0113750D02*
X0216420Y0093750D01*
X0216420Y0064250D02*
X0216420Y0033750D01*
X0226420Y0033750D02*
X0236420Y0043750D01*
X0236420Y0048750D01*
X0236420Y0064250D01*
X0226420Y0063750D02*
X0226420Y0063250D01*
X0226420Y0048750D01*
D602*
X0206420Y0298750D03*
X0262920Y0020000D02*
G75*
%LPD*%
D485*
X0377880Y0020000D02*
X0262920Y0020000D01*
X0262920Y0422450D01*
X0377880Y0422450D01*
X0377880Y0020000D01*
D599*
X0350480Y0203750D02*
X0345280Y0203750D01*
X0345280Y0213750D02*
X0350480Y0213750D01*
X0350480Y0223750D02*
X0345280Y0223750D01*
X0345280Y0233750D02*
X0350480Y0233750D01*
X0350480Y0243750D02*
X0345280Y0243750D01*
X0345280Y0253750D02*
X0350480Y0253750D01*
X0350480Y0263750D02*
X0345280Y0263750D01*
X0345280Y0273750D02*
X0350480Y0273750D01*
X0350480Y0283750D02*
X0345280Y0283750D01*
X0345280Y0293750D02*
X0350480Y0293750D01*
X0350480Y0303750D02*
X0345280Y0303750D01*
X0345280Y0313750D02*
X0350480Y0313750D01*
X0350480Y0323750D02*
X0345280Y0323750D01*
X0345280Y0333750D02*
X0350480Y0333750D01*
X0320480Y0333750D02*
X0315280Y0333750D01*
X0315280Y0323750D02*
X0320480Y0323750D01*
X0320480Y0313750D02*
X0315280Y0313750D01*
X0315280Y0303750D02*
X0320480Y0303750D01*
X0320480Y0293750D02*
X0315280Y0293750D01*
X0315280Y0283750D02*
X0320480Y0283750D01*
X0320480Y0273750D02*
X0315280Y0273750D01*
X0315280Y0263750D02*
X0320480Y0263750D01*
X0320480Y0253750D02*
X0315280Y0253750D01*
X0315280Y0243750D02*
X0320480Y0243750D01*
X0320480Y0233750D02*
X0315280Y0233750D01*
X0315280Y0223750D02*
X0320480Y0223750D01*
X0320480Y0213750D02*
X0315280Y0213750D01*
X0315280Y0203750D02*
X0320480Y0203750D01*
D173*
X0317880Y0188750D03*
X0317880Y0173750D03*
X0317880Y0163750D03*
X0307880Y0163750D03*
X0307880Y0133750D03*
X0317880Y0133750D03*
X0322880Y0123750D03*
X0322880Y0113750D03*
X0332880Y0153750D03*
X0337880Y0146250D03*
X0342880Y0153750D03*
X0357880Y0173750D03*
X0357880Y0188750D03*
X0362880Y0203750D03*
X0363880Y0213750D03*
X0362880Y0223750D03*
X0363880Y0233750D03*
X0362880Y0243750D03*
X0363880Y0253750D03*
X0362380Y0268750D03*
X0363380Y0278750D03*
X0362380Y0288750D03*
X0362880Y0303050D03*
X0362880Y0314450D03*
X0357880Y0348750D03*
X0357880Y0388750D03*
X0337880Y0388750D03*
X0337880Y0348750D03*
X0317880Y0348750D03*
X0317880Y0388750D03*
X0302880Y0368750D03*
X0302880Y0328750D03*
X0302880Y0318750D03*
X0302880Y0278750D03*
X0302880Y0268750D03*
X0302880Y0228750D03*
X0337880Y0064250D03*
X0347880Y0063250D03*
X0357880Y0064250D03*
X0357880Y0088750D03*
X0357880Y0098750D03*
X0362880Y0113750D03*
X0362880Y0123750D03*
X0362880Y0148050D03*
X0362880Y0159450D03*
X0365380Y0093750D03*
D224*
X0352730Y0133750D03*
X0337880Y0093750D03*
X0333040Y0133750D03*
X0347880Y0048750D03*
X0357880Y0048750D03*
X0307880Y0203750D03*
X0307880Y0213750D03*
X0297880Y0213750D03*
X0297880Y0203750D03*
X0297880Y0188750D03*
D207*
X0307880Y0188750D03*
X0327880Y0093750D03*
D377*
X0337880Y0033750D03*
D267*
X0347880Y0033750D03*
X0357880Y0033750D03*
D30*
X0302880Y0088750D03*
X0302880Y0098750D03*
X0286700Y0296250D03*
X0317880Y0398750D03*
X0317880Y0408750D03*
X0337880Y0408750D03*
X0337880Y0398750D03*
X0357880Y0398750D03*
X0357880Y0408750D03*
D49*
X0286700Y0307250D03*
X0279070Y0302250D03*
X0279070Y0290250D03*
D289*
X0277880Y0288750D01*
X0297880Y0268750D01*
X0302880Y0268750D01*
X0302880Y0258750D02*
X0272880Y0288750D01*
X0272880Y0328750D01*
X0302880Y0328750D01*
X0302880Y0318750D02*
X0277880Y0318750D01*
X0277880Y0303750D01*
X0279070Y0302250D01*
X0286700Y0296250D02*
X0287880Y0293750D01*
X0292880Y0288750D01*
X0327880Y0288750D01*
X0327880Y0218750D01*
X0312880Y0218750D01*
X0307880Y0213750D01*
X0307880Y0208750D01*
X0357880Y0208750D01*
X0362880Y0213750D01*
X0363880Y0213750D01*
X0357880Y0218750D02*
X0362880Y0223750D01*
X0363880Y0233750D02*
X0347880Y0233750D01*
X0347880Y0243750D02*
X0362880Y0243750D01*
X0347880Y0253750D02*
X0362880Y0268750D01*
X0362380Y0268750D01*
X0352880Y0268750D02*
X0362880Y0278750D01*
X0363380Y0278750D01*
X0362880Y0288750D02*
X0362380Y0288750D01*
X0327880Y0288750D01*
X0327880Y0298750D02*
X0357880Y0298750D01*
X0362880Y0303750D01*
X0362880Y0303050D01*
X0362880Y0313750D02*
X0362880Y0314450D01*
X0362880Y0313750D02*
X0357880Y0313750D01*
X0347880Y0323750D01*
X0352880Y0328750D02*
X0342880Y0328750D01*
X0327880Y0313750D01*
X0317880Y0313750D01*
X0312880Y0318750D02*
X0322880Y0318750D01*
X0352880Y0348750D01*
X0357880Y0348750D01*
X0367880Y0343750D02*
X0352880Y0328750D01*
X0337880Y0348750D02*
X0347880Y0358750D01*
X0367880Y0358750D01*
X0367880Y0343750D01*
X0357880Y0388750D02*
X0357880Y0398750D01*
X0357880Y0408750D02*
X0337880Y0408750D01*
X0317880Y0408750D01*
X0317880Y0398750D02*
X0317880Y0388750D01*
X0337880Y0388750D02*
X0337880Y0398750D01*
X0312880Y0318750D02*
X0307880Y0313750D01*
X0307880Y0303750D01*
X0317880Y0293750D01*
X0317880Y0263750D02*
X0312880Y0258750D01*
X0302880Y0258750D01*
X0317880Y0243750D02*
X0302880Y0228750D01*
X0307880Y0208750D02*
X0307880Y0203750D01*
X0307880Y0188750D01*
X0317880Y0188750D01*
X0317880Y0173750D01*
X0332880Y0173750D01*
X0332880Y0153750D01*
X0332880Y0143750D02*
X0352880Y0123750D01*
X0362880Y0123750D01*
X0362880Y0113750D02*
X0357880Y0113750D01*
X0357880Y0098750D01*
X0357880Y0088750D02*
X0302880Y0088750D01*
X0302880Y0098750D02*
X0322880Y0098750D01*
X0327880Y0093750D01*
X0322880Y0113750D02*
X0297880Y0113750D01*
X0297880Y0133750D01*
X0307880Y0143750D01*
X0307880Y0163750D01*
X0317880Y0163750D02*
X0317880Y0143750D01*
X0332880Y0143750D01*
X0337880Y0113750D02*
X0322880Y0113750D01*
X0317880Y0133750D02*
X0307880Y0133750D01*
X0297880Y0188750D02*
X0297880Y0203750D01*
X0307880Y0203750D02*
X0317880Y0203750D01*
X0317880Y0213750D02*
X0327880Y0213750D01*
X0332880Y0218750D01*
X0337880Y0218750D01*
X0337880Y0263750D01*
X0342880Y0268750D01*
X0352880Y0268750D01*
X0347880Y0273750D02*
X0362880Y0288750D01*
X0357880Y0218750D02*
X0337880Y0218750D01*
X0347880Y0203750D02*
X0357880Y0203750D01*
X0357880Y0188750D01*
X0357880Y0203750D02*
X0362880Y0203750D01*
X0337880Y0113750D02*
X0337880Y0093750D01*
X0337880Y0064250D02*
X0337880Y0033750D01*
X0347880Y0033750D02*
X0357880Y0043750D01*
X0357880Y0048750D01*
X0357880Y0064250D01*
X0347880Y0063750D02*
X0347880Y0063250D01*
X0347880Y0048750D01*
D602*
X0327880Y0298750D03*
X0384380Y0020000D02*
G75*
%LPD*%
D485*
X0499340Y0020000D02*
X0384380Y0020000D01*
X0384380Y0422450D01*
X0499340Y0422450D01*
X0499340Y0020000D01*
D599*
X0471940Y0203750D02*
X0466740Y0203750D01*
X0466740Y0213750D02*
X0471940Y0213750D01*
X0471940Y0223750D02*
X0466740Y0223750D01*
X0466740Y0233750D02*
X0471940Y0233750D01*
X0471940Y0243750D02*
X0466740Y0243750D01*
X0466740Y0253750D02*
X0471940Y0253750D01*
X0471940Y0263750D02*
X0466740Y0263750D01*
X0466740Y0273750D02*
X0471940Y0273750D01*
X0471940Y0283750D02*
X0466740Y0283750D01*
X0466740Y0293750D02*
X0471940Y0293750D01*
X0471940Y0303750D02*
X0466740Y0303750D01*
X0466740Y0313750D02*
X0471940Y0313750D01*
X0471940Y0323750D02*
X0466740Y0323750D01*
X0466740Y0333750D02*
X0471940Y0333750D01*
X0441940Y0333750D02*
X0436740Y0333750D01*
X0436740Y0323750D02*
X0441940Y0323750D01*
X0441940Y0313750D02*
X0436740Y0313750D01*
X0436740Y0303750D02*
X0441940Y0303750D01*
X0441940Y0293750D02*
X0436740Y0293750D01*
X0436740Y0283750D02*
X0441940Y0283750D01*
X0441940Y0273750D02*
X0436740Y0273750D01*
X0436740Y0263750D02*
X0441940Y0263750D01*
X0441940Y0253750D02*
X0436740Y0253750D01*
X0436740Y0243750D02*
X0441940Y0243750D01*
X0441940Y0233750D02*
X0436740Y0233750D01*
X0436740Y0223750D02*
X0441940Y0223750D01*
X0441940Y0213750D02*
X0436740Y0213750D01*
X0436740Y0203750D02*
X0441940Y0203750D01*
D173*
X0439340Y0188750D03*
X0439340Y0173750D03*
X0439340Y0163750D03*
X0429340Y0163750D03*
X0429340Y0133750D03*
X0439340Y0133750D03*
X0444340Y0123750D03*
X0444340Y0113750D03*
X0454340Y0153750D03*
X0459340Y0146250D03*
X0464340Y0153750D03*
X0479340Y0173750D03*
X0479340Y0188750D03*
X0484340Y0203750D03*
X0485340Y0213750D03*
X0484340Y0223750D03*
X0485340Y0233750D03*
X0484340Y0243750D03*
X0485340Y0253750D03*
X0483840Y0268750D03*
X0484840Y0278750D03*
X0483840Y0288750D03*
X0484340Y0303050D03*
X0484340Y0314450D03*
X0479340Y0348750D03*
X0479340Y0388750D03*
X0459340Y0388750D03*
X0459340Y0348750D03*
X0439340Y0348750D03*
X0439340Y0388750D03*
X0424340Y0368750D03*
X0424340Y0328750D03*
X0424340Y0318750D03*
X0424340Y0278750D03*
X0424340Y0268750D03*
X0424340Y0228750D03*
X0459340Y0064250D03*
X0469340Y0063250D03*
X0479340Y0064250D03*
X0479340Y0088750D03*
X0479340Y0098750D03*
X0484340Y0113750D03*
X0484340Y0123750D03*
X0484340Y0148050D03*
X0484340Y0159450D03*
X0486840Y0093750D03*
D224*
X0474190Y0133750D03*
X0459340Y0093750D03*
X0454500Y0133750D03*
X0469340Y0048750D03*
X0479340Y0048750D03*
X0429340Y0203750D03*
X0429340Y0213750D03*
X0419340Y0213750D03*
X0419340Y0203750D03*
X0419340Y0188750D03*
D207*
X0429340Y0188750D03*
X0449340Y0093750D03*
D377*
X0459340Y0033750D03*
D267*
X0469340Y0033750D03*
X0479340Y0033750D03*
D30*
X0424340Y0088750D03*
X0424340Y0098750D03*
X0408160Y0296250D03*
X0439340Y0398750D03*
X0439340Y0408750D03*
X0459340Y0408750D03*
X0459340Y0398750D03*
X0479340Y0398750D03*
X0479340Y0408750D03*
D49*
X0408160Y0307250D03*
X0400530Y0302250D03*
X0400530Y0290250D03*
D289*
X0399340Y0288750D01*
X0419340Y0268750D01*
X0424340Y0268750D01*
X0424340Y0258750D02*
X0394340Y0288750D01*
X0394340Y0328750D01*
X0424340Y0328750D01*
X0424340Y0318750D02*
X0399340Y0318750D01*
X0399340Y0303750D01*
X0400530Y0302250D01*
X0408160Y0296250D02*
X0409340Y0293750D01*
X0414340Y0288750D01*
X0449340Y0288750D01*
X0449340Y0218750D01*
X0434340Y0218750D01*
X0429340Y0213750D01*
X0429340Y0208750D01*
X0479340Y0208750D01*
X0484340Y0213750D01*
X0485340Y0213750D01*
X0479340Y0218750D02*
X0484340Y0223750D01*
X0485340Y0233750D02*
X0469340Y0233750D01*
X0469340Y0243750D02*
X0484340Y0243750D01*
X0469340Y0253750D02*
X0484340Y0268750D01*
X0483840Y0268750D01*
X0474340Y0268750D02*
X0484340Y0278750D01*
X0484840Y0278750D01*
X0484340Y0288750D02*
X0483840Y0288750D01*
X0449340Y0288750D01*
X0449340Y0298750D02*
X0479340Y0298750D01*
X0484340Y0303750D01*
X0484340Y0303050D01*
X0484340Y0313750D02*
X0484340Y0314450D01*
X0484340Y0313750D02*
X0479340Y0313750D01*
X0469340Y0323750D01*
X0474340Y0328750D02*
X0464340Y0328750D01*
X0449340Y0313750D01*
X0439340Y0313750D01*
X0434340Y0318750D02*
X0444340Y0318750D01*
X0474340Y0348750D01*
X0479340Y0348750D01*
X0489340Y0343750D02*
X0474340Y0328750D01*
X0459340Y0348750D02*
X0469340Y0358750D01*
X0489340Y0358750D01*
X0489340Y0343750D01*
X0479340Y0388750D02*
X0479340Y0398750D01*
X0479340Y0408750D02*
X0459340Y0408750D01*
X0439340Y0408750D01*
X0439340Y0398750D02*
X0439340Y0388750D01*
X0459340Y0388750D02*
X0459340Y0398750D01*
X0434340Y0318750D02*
X0429340Y0313750D01*
X0429340Y0303750D01*
X0439340Y0293750D01*
X0439340Y0263750D02*
X0434340Y0258750D01*
X0424340Y0258750D01*
X0439340Y0243750D02*
X0424340Y0228750D01*
X0429340Y0208750D02*
X0429340Y0203750D01*
X0429340Y0188750D01*
X0439340Y0188750D01*
X0439340Y0173750D01*
X0454340Y0173750D01*
X0454340Y0153750D01*
X0454340Y0143750D02*
X0474340Y0123750D01*
X0484340Y0123750D01*
X0484340Y0113750D02*
X0479340Y0113750D01*
X0479340Y0098750D01*
X0479340Y0088750D02*
X0424340Y0088750D01*
X0424340Y0098750D02*
X0444340Y0098750D01*
X0449340Y0093750D01*
X0444340Y0113750D02*
X0419340Y0113750D01*
X0419340Y0133750D01*
X0429340Y0143750D01*
X0429340Y0163750D01*
X0439340Y0163750D02*
X0439340Y0143750D01*
X0454340Y0143750D01*
X0459340Y0113750D02*
X0444340Y0113750D01*
X0439340Y0133750D02*
X0429340Y0133750D01*
X0419340Y0188750D02*
X0419340Y0203750D01*
X0429340Y0203750D02*
X0439340Y0203750D01*
X0439340Y0213750D02*
X0449340Y0213750D01*
X0454340Y0218750D01*
X0459340Y0218750D01*
X0459340Y0263750D01*
X0464340Y0268750D01*
X0474340Y0268750D01*
X0469340Y0273750D02*
X0484340Y0288750D01*
X0479340Y0218750D02*
X0459340Y0218750D01*
X0469340Y0203750D02*
X0479340Y0203750D01*
X0479340Y0188750D01*
X0479340Y0203750D02*
X0484340Y0203750D01*
X0459340Y0113750D02*
X0459340Y0093750D01*
X0459340Y0064250D02*
X0459340Y0033750D01*
X0469340Y0033750D02*
X0479340Y0043750D01*
X0479340Y0048750D01*
X0479340Y0064250D01*
X0469340Y0063750D02*
X0469340Y0063250D01*
X0469340Y0048750D01*
D602*
X0449340Y0298750D03*
X0505840Y0020000D02*
G75*
%LPD*%
D485*
X0620800Y0020000D02*
X0505840Y0020000D01*
X0505840Y0422450D01*
X0620800Y0422450D01*
X0620800Y0020000D01*
D599*
X0593400Y0203750D02*
X0588200Y0203750D01*
X0588200Y0213750D02*
X0593400Y0213750D01*
X0593400Y0223750D02*
X0588200Y0223750D01*
X0588200Y0233750D02*
X0593400Y0233750D01*
X0593400Y0243750D02*
X0588200Y0243750D01*
X0588200Y0253750D02*
X0593400Y0253750D01*
X0593400Y0263750D02*
X0588200Y0263750D01*
X0588200Y0273750D02*
X0593400Y0273750D01*
X0593400Y0283750D02*
X0588200Y0283750D01*
X0588200Y0293750D02*
X0593400Y0293750D01*
X0593400Y0303750D02*
X0588200Y0303750D01*
X0588200Y0313750D02*
X0593400Y0313750D01*
X0593400Y0323750D02*
X0588200Y0323750D01*
X0588200Y0333750D02*
X0593400Y0333750D01*
X0563400Y0333750D02*
X0558200Y0333750D01*
X0558200Y0323750D02*
X0563400Y0323750D01*
X0563400Y0313750D02*
X0558200Y0313750D01*
X0558200Y0303750D02*
X0563400Y0303750D01*
X0563400Y0293750D02*
X0558200Y0293750D01*
X0558200Y0283750D02*
X0563400Y0283750D01*
X0563400Y0273750D02*
X0558200Y0273750D01*
X0558200Y0263750D02*
X0563400Y0263750D01*
X0563400Y0253750D02*
X0558200Y0253750D01*
X0558200Y0243750D02*
X0563400Y0243750D01*
X0563400Y0233750D02*
X0558200Y0233750D01*
X0558200Y0223750D02*
X0563400Y0223750D01*
X0563400Y0213750D02*
X0558200Y0213750D01*
X0558200Y0203750D02*
X0563400Y0203750D01*
D173*
X0560800Y0188750D03*
X0560800Y0173750D03*
X0560800Y0163750D03*
X0550800Y0163750D03*
X0550800Y0133750D03*
X0560800Y0133750D03*
X0565800Y0123750D03*
X0565800Y0113750D03*
X0575800Y0153750D03*
X0580800Y0146250D03*
X0585800Y0153750D03*
X0600800Y0173750D03*
X0600800Y0188750D03*
X0605800Y0203750D03*
X0606800Y0213750D03*
X0605800Y0223750D03*
X0606800Y0233750D03*
X0605800Y0243750D03*
X0606800Y0253750D03*
X0605300Y0268750D03*
X0606300Y0278750D03*
X0605300Y0288750D03*
X0605800Y0303050D03*
X0605800Y0314450D03*
X0600800Y0348750D03*
X0600800Y0388750D03*
X0580800Y0388750D03*
X0580800Y0348750D03*
X0560800Y0348750D03*
X0560800Y0388750D03*
X0545800Y0368750D03*
X0545800Y0328750D03*
X0545800Y0318750D03*
X0545800Y0278750D03*
X0545800Y0268750D03*
X0545800Y0228750D03*
X0580800Y0064250D03*
X0590800Y0063250D03*
X0600800Y0064250D03*
X0600800Y0088750D03*
X0600800Y0098750D03*
X0605800Y0113750D03*
X0605800Y0123750D03*
X0605800Y0148050D03*
X0605800Y0159450D03*
X0608300Y0093750D03*
D224*
X0595650Y0133750D03*
X0580800Y0093750D03*
X0575960Y0133750D03*
X0590800Y0048750D03*
X0600800Y0048750D03*
X0550800Y0203750D03*
X0550800Y0213750D03*
X0540800Y0213750D03*
X0540800Y0203750D03*
X0540800Y0188750D03*
D207*
X0550800Y0188750D03*
X0570800Y0093750D03*
D377*
X0580800Y0033750D03*
D267*
X0590800Y0033750D03*
X0600800Y0033750D03*
D30*
X0545800Y0088750D03*
X0545800Y0098750D03*
X0529620Y0296250D03*
X0560800Y0398750D03*
X0560800Y0408750D03*
X0580800Y0408750D03*
X0580800Y0398750D03*
X0600800Y0398750D03*
X0600800Y0408750D03*
D49*
X0529620Y0307250D03*
X0521990Y0302250D03*
X0521990Y0290250D03*
D289*
X0520800Y0288750D01*
X0540800Y0268750D01*
X0545800Y0268750D01*
X0545800Y0258750D02*
X0515800Y0288750D01*
X0515800Y0328750D01*
X0545800Y0328750D01*
X0545800Y0318750D02*
X0520800Y0318750D01*
X0520800Y0303750D01*
X0521990Y0302250D01*
X0529620Y0296250D02*
X0530800Y0293750D01*
X0535800Y0288750D01*
X0570800Y0288750D01*
X0570800Y0218750D01*
X0555800Y0218750D01*
X0550800Y0213750D01*
X0550800Y0208750D01*
X0600800Y0208750D01*
X0605800Y0213750D01*
X0606800Y0213750D01*
X0600800Y0218750D02*
X0605800Y0223750D01*
X0606800Y0233750D02*
X0590800Y0233750D01*
X0590800Y0243750D02*
X0605800Y0243750D01*
X0590800Y0253750D02*
X0605800Y0268750D01*
X0605300Y0268750D01*
X0595800Y0268750D02*
X0605800Y0278750D01*
X0606300Y0278750D01*
X0605800Y0288750D02*
X0605300Y0288750D01*
X0570800Y0288750D01*
X0570800Y0298750D02*
X0600800Y0298750D01*
X0605800Y0303750D01*
X0605800Y0303050D01*
X0605800Y0313750D02*
X0605800Y0314450D01*
X0605800Y0313750D02*
X0600800Y0313750D01*
X0590800Y0323750D01*
X0595800Y0328750D02*
X0585800Y0328750D01*
X0570800Y0313750D01*
X0560800Y0313750D01*
X0555800Y0318750D02*
X0565800Y0318750D01*
X0595800Y0348750D01*
X0600800Y0348750D01*
X0610800Y0343750D02*
X0595800Y0328750D01*
X0580800Y0348750D02*
X0590800Y0358750D01*
X0610800Y0358750D01*
X0610800Y0343750D01*
X0600800Y0388750D02*
X0600800Y0398750D01*
X0600800Y0408750D02*
X0580800Y0408750D01*
X0560800Y0408750D01*
X0560800Y0398750D02*
X0560800Y0388750D01*
X0580800Y0388750D02*
X0580800Y0398750D01*
X0555800Y0318750D02*
X0550800Y0313750D01*
X0550800Y0303750D01*
X0560800Y0293750D01*
X0560800Y0263750D02*
X0555800Y0258750D01*
X0545800Y0258750D01*
X0560800Y0243750D02*
X0545800Y0228750D01*
X0550800Y0208750D02*
X0550800Y0203750D01*
X0550800Y0188750D01*
X0560800Y0188750D01*
X0560800Y0173750D01*
X0575800Y0173750D01*
X0575800Y0153750D01*
X0575800Y0143750D02*
X0595800Y0123750D01*
X0605800Y0123750D01*
X0605800Y0113750D02*
X0600800Y0113750D01*
X0600800Y0098750D01*
X0600800Y0088750D02*
X0545800Y0088750D01*
X0545800Y0098750D02*
X0565800Y0098750D01*
X0570800Y0093750D01*
X0565800Y0113750D02*
X0540800Y0113750D01*
X0540800Y0133750D01*
X0550800Y0143750D01*
X0550800Y0163750D01*
X0560800Y0163750D02*
X0560800Y0143750D01*
X0575800Y0143750D01*
X0580800Y0113750D02*
X0565800Y0113750D01*
X0560800Y0133750D02*
X0550800Y0133750D01*
X0540800Y0188750D02*
X0540800Y0203750D01*
X0550800Y0203750D02*
X0560800Y0203750D01*
X0560800Y0213750D02*
X0570800Y0213750D01*
X0575800Y0218750D01*
X0580800Y0218750D01*
X0580800Y0263750D01*
X0585800Y0268750D01*
X0595800Y0268750D01*
X0590800Y0273750D02*
X0605800Y0288750D01*
X0600800Y0218750D02*
X0580800Y0218750D01*
X0590800Y0203750D02*
X0600800Y0203750D01*
X0600800Y0188750D01*
X0600800Y0203750D02*
X0605800Y0203750D01*
X0580800Y0113750D02*
X0580800Y0093750D01*
X0580800Y0064250D02*
X0580800Y0033750D01*
X0590800Y0033750D02*
X0600800Y0043750D01*
X0600800Y0048750D01*
X0600800Y0064250D01*
X0590800Y0063750D02*
X0590800Y0063250D01*
X0590800Y0048750D01*
D602*
X0570800Y0298750D03*
X0020000Y0428950D02*
G75*
%LPD*%
D485*
X0134960Y0428950D02*
X0020000Y0428950D01*
X0020000Y0831400D01*
X0134960Y0831400D01*
X0134960Y0428950D01*
D599*
X0107560Y0612700D02*
X0102360Y0612700D01*
X0102360Y0622700D02*
X0107560Y0622700D01*
X0107560Y0632700D02*
X0102360Y0632700D01*
X0102360Y0642700D02*
X0107560Y0642700D01*
X0107560Y0652700D02*
X0102360Y0652700D01*
X0102360Y0662700D02*
X0107560Y0662700D01*
X0107560Y0672700D02*
X0102360Y0672700D01*
X0102360Y0682700D02*
X0107560Y0682700D01*
X0107560Y0692700D02*
X0102360Y0692700D01*
X0102360Y0702700D02*
X0107560Y0702700D01*
X0107560Y0712700D02*
X0102360Y0712700D01*
X0102360Y0722700D02*
X0107560Y0722700D01*
X0107560Y0732700D02*
X0102360Y0732700D01*
X0102360Y0742700D02*
X0107560Y0742700D01*
X0077560Y0742700D02*
X0072360Y0742700D01*
X0072360Y0732700D02*
X0077560Y0732700D01*
X0077560Y0722700D02*
X0072360Y0722700D01*
X0072360Y0712700D02*
X0077560Y0712700D01*
X0077560Y0702700D02*
X0072360Y0702700D01*
X0072360Y0692700D02*
X0077560Y0692700D01*
X0077560Y0682700D02*
X0072360Y0682700D01*
X0072360Y0672700D02*
X0077560Y0672700D01*
X0077560Y0662700D02*
X0072360Y0662700D01*
X0072360Y0652700D02*
X0077560Y0652700D01*
X0077560Y0642700D02*
X0072360Y0642700D01*
X0072360Y0632700D02*
X0077560Y0632700D01*
X0077560Y0622700D02*
X0072360Y0622700D01*
X0072360Y0612700D02*
X0077560Y0612700D01*
D173*
X0074960Y0597700D03*
X0074960Y0582700D03*
X0074960Y0572700D03*
X0064960Y0572700D03*
X0064960Y0542700D03*
X0074960Y0542700D03*
X0079960Y0532700D03*
X0079960Y0522700D03*
X0089960Y0562700D03*
X0094960Y0555200D03*
X0099960Y0562700D03*
X0114960Y0582700D03*
X0114960Y0597700D03*
X0119960Y0612700D03*
X0120960Y0622700D03*
X0119960Y0632700D03*
X0120960Y0642700D03*
X0119960Y0652700D03*
X0120960Y0662700D03*
X0119460Y0677700D03*
X0120460Y0687700D03*
X0119460Y0697700D03*
X0119960Y0712000D03*
X0119960Y0723400D03*
X0114960Y0757700D03*
X0114960Y0797700D03*
X0094960Y0797700D03*
X0094960Y0757700D03*
X0074960Y0757700D03*
X0074960Y0797700D03*
X0059960Y0777700D03*
X0059960Y0737700D03*
X0059960Y0727700D03*
X0059960Y0687700D03*
X0059960Y0677700D03*
X0059960Y0637700D03*
X0094960Y0473200D03*
X0104960Y0472200D03*
X0114960Y0473200D03*
X0114960Y0497700D03*
X0114960Y0507700D03*
X0119960Y0522700D03*
X0119960Y0532700D03*
X0119960Y0557000D03*
X0119960Y0568400D03*
X0122460Y0502700D03*
D224*
X0109810Y0542700D03*
X0094960Y0502700D03*
X0090120Y0542700D03*
X0104960Y0457700D03*
X0114960Y0457700D03*
X0064960Y0612700D03*
X0064960Y0622700D03*
X0054960Y0622700D03*
X0054960Y0612700D03*
X0054960Y0597700D03*
D207*
X0064960Y0597700D03*
X0084960Y0502700D03*
D377*
X0094960Y0442700D03*
D267*
X0104960Y0442700D03*
X0114960Y0442700D03*
D30*
X0059960Y0497700D03*
X0059960Y0507700D03*
X0043780Y0705200D03*
X0074960Y0807700D03*
X0074960Y0817700D03*
X0094960Y0817700D03*
X0094960Y0807700D03*
X0114960Y0807700D03*
X0114960Y0817700D03*
D49*
X0043780Y0716200D03*
X0036150Y0711200D03*
X0036150Y0699200D03*
D289*
X0034960Y0697700D01*
X0054960Y0677700D01*
X0059960Y0677700D01*
X0059960Y0667700D02*
X0029960Y0697700D01*
X0029960Y0737700D01*
X0059960Y0737700D01*
X0059960Y0727700D02*
X0034960Y0727700D01*
X0034960Y0712700D01*
X0036150Y0711200D01*
X0043780Y0705200D02*
X0044960Y0702700D01*
X0049960Y0697700D01*
X0084960Y0697700D01*
X0084960Y0627700D01*
X0069960Y0627700D01*
X0064960Y0622700D01*
X0064960Y0617700D01*
X0114960Y0617700D01*
X0119960Y0622700D01*
X0120960Y0622700D01*
X0114960Y0627700D02*
X0119960Y0632700D01*
X0120960Y0642700D02*
X0104960Y0642700D01*
X0104960Y0652700D02*
X0119960Y0652700D01*
X0104960Y0662700D02*
X0119960Y0677700D01*
X0119460Y0677700D01*
X0109960Y0677700D02*
X0119960Y0687700D01*
X0120460Y0687700D01*
X0119960Y0697700D02*
X0119460Y0697700D01*
X0084960Y0697700D01*
X0084960Y0707700D02*
X0114960Y0707700D01*
X0119960Y0712700D01*
X0119960Y0712000D01*
X0119960Y0722700D02*
X0119960Y0723400D01*
X0119960Y0722700D02*
X0114960Y0722700D01*
X0104960Y0732700D01*
X0109960Y0737700D02*
X0099960Y0737700D01*
X0084960Y0722700D01*
X0074960Y0722700D01*
X0069960Y0727700D02*
X0079960Y0727700D01*
X0109960Y0757700D01*
X0114960Y0757700D01*
X0124960Y0752700D02*
X0109960Y0737700D01*
X0094960Y0757700D02*
X0104960Y0767700D01*
X0124960Y0767700D01*
X0124960Y0752700D01*
X0114960Y0797700D02*
X0114960Y0807700D01*
X0114960Y0817700D02*
X0094960Y0817700D01*
X0074960Y0817700D01*
X0074960Y0807700D02*
X0074960Y0797700D01*
X0094960Y0797700D02*
X0094960Y0807700D01*
X0069960Y0727700D02*
X0064960Y0722700D01*
X0064960Y0712700D01*
X0074960Y0702700D01*
X0074960Y0672700D02*
X0069960Y0667700D01*
X0059960Y0667700D01*
X0074960Y0652700D02*
X0059960Y0637700D01*
X0064960Y0617700D02*
X0064960Y0612700D01*
X0064960Y0597700D01*
X0074960Y0597700D01*
X0074960Y0582700D01*
X0089960Y0582700D01*
X0089960Y0562700D01*
X0089960Y0552700D02*
X0109960Y0532700D01*
X0119960Y0532700D01*
X0119960Y0522700D02*
X0114960Y0522700D01*
X0114960Y0507700D01*
X0114960Y0497700D02*
X0059960Y0497700D01*
X0059960Y0507700D02*
X0079960Y0507700D01*
X0084960Y0502700D01*
X0079960Y0522700D02*
X0054960Y0522700D01*
X0054960Y0542700D01*
X0064960Y0552700D01*
X0064960Y0572700D01*
X0074960Y0572700D02*
X0074960Y0552700D01*
X0089960Y0552700D01*
X0094960Y0522700D02*
X0079960Y0522700D01*
X0074960Y0542700D02*
X0064960Y0542700D01*
X0054960Y0597700D02*
X0054960Y0612700D01*
X0064960Y0612700D02*
X0074960Y0612700D01*
X0074960Y0622700D02*
X0084960Y0622700D01*
X0089960Y0627700D01*
X0094960Y0627700D01*
X0094960Y0672700D01*
X0099960Y0677700D01*
X0109960Y0677700D01*
X0104960Y0682700D02*
X0119960Y0697700D01*
X0114960Y0627700D02*
X0094960Y0627700D01*
X0104960Y0612700D02*
X0114960Y0612700D01*
X0114960Y0597700D01*
X0114960Y0612700D02*
X0119960Y0612700D01*
X0094960Y0522700D02*
X0094960Y0502700D01*
X0094960Y0473200D02*
X0094960Y0442700D01*
X0104960Y0442700D02*
X0114960Y0452700D01*
X0114960Y0457700D01*
X0114960Y0473200D01*
X0104960Y0472700D02*
X0104960Y0472200D01*
X0104960Y0457700D01*
D602*
X0084960Y0707700D03*
X0141460Y0428950D02*
G75*
%LPD*%
D485*
X0256420Y0428950D02*
X0141460Y0428950D01*
X0141460Y0831400D01*
X0256420Y0831400D01*
X0256420Y0428950D01*
D599*
X0229020Y0612700D02*
X0223820Y0612700D01*
X0223820Y0622700D02*
X0229020Y0622700D01*
X0229020Y0632700D02*
X0223820Y0632700D01*
X0223820Y0642700D02*
X0229020Y0642700D01*
X0229020Y0652700D02*
X0223820Y0652700D01*
X0223820Y0662700D02*
X0229020Y0662700D01*
X0229020Y0672700D02*
X0223820Y0672700D01*
X0223820Y0682700D02*
X0229020Y0682700D01*
X0229020Y0692700D02*
X0223820Y0692700D01*
X0223820Y0702700D02*
X0229020Y0702700D01*
X0229020Y0712700D02*
X0223820Y0712700D01*
X0223820Y0722700D02*
X0229020Y0722700D01*
X0229020Y0732700D02*
X0223820Y0732700D01*
X0223820Y0742700D02*
X0229020Y0742700D01*
X0199020Y0742700D02*
X0193820Y0742700D01*
X0193820Y0732700D02*
X0199020Y0732700D01*
X0199020Y0722700D02*
X0193820Y0722700D01*
X0193820Y0712700D02*
X0199020Y0712700D01*
X0199020Y0702700D02*
X0193820Y0702700D01*
X0193820Y0692700D02*
X0199020Y0692700D01*
X0199020Y0682700D02*
X0193820Y0682700D01*
X0193820Y0672700D02*
X0199020Y0672700D01*
X0199020Y0662700D02*
X0193820Y0662700D01*
X0193820Y0652700D02*
X0199020Y0652700D01*
X0199020Y0642700D02*
X0193820Y0642700D01*
X0193820Y0632700D02*
X0199020Y0632700D01*
X0199020Y0622700D02*
X0193820Y0622700D01*
X0193820Y0612700D02*
X0199020Y0612700D01*
D173*
X0196420Y0597700D03*
X0196420Y0582700D03*
X0196420Y0572700D03*
X0186420Y0572700D03*
X0186420Y0542700D03*
X0196420Y0542700D03*
X0201420Y0532700D03*
X0201420Y0522700D03*
X0211420Y0562700D03*
X0216420Y0555200D03*
X0221420Y0562700D03*
X0236420Y0582700D03*
X0236420Y0597700D03*
X0241420Y0612700D03*
X0242420Y0622700D03*
X0241420Y0632700D03*
X0242420Y0642700D03*
X0241420Y0652700D03*
X0242420Y0662700D03*
X0240920Y0677700D03*
X0241920Y0687700D03*
X0240920Y0697700D03*
X0241420Y0712000D03*
X0241420Y0723400D03*
X0236420Y0757700D03*
X0236420Y0797700D03*
X0216420Y0797700D03*
X0216420Y0757700D03*
X0196420Y0757700D03*
X0196420Y0797700D03*
X0181420Y0777700D03*
X0181420Y0737700D03*
X0181420Y0727700D03*
X0181420Y0687700D03*
X0181420Y0677700D03*
X0181420Y0637700D03*
X0216420Y0473200D03*
X0226420Y0472200D03*
X0236420Y0473200D03*
X0236420Y0497700D03*
X0236420Y0507700D03*
X0241420Y0522700D03*
X0241420Y0532700D03*
X0241420Y0557000D03*
X0241420Y0568400D03*
X0243920Y0502700D03*
D224*
X0231270Y0542700D03*
X0216420Y0502700D03*
X0211580Y0542700D03*
X0226420Y0457700D03*
X0236420Y0457700D03*
X0186420Y0612700D03*
X0186420Y0622700D03*
X0176420Y0622700D03*
X0176420Y0612700D03*
X0176420Y0597700D03*
D207*
X0186420Y0597700D03*
X0206420Y0502700D03*
D377*
X0216420Y0442700D03*
D267*
X0226420Y0442700D03*
X0236420Y0442700D03*
D30*
X0181420Y0497700D03*
X0181420Y0507700D03*
X0165240Y0705200D03*
X0196420Y0807700D03*
X0196420Y0817700D03*
X0216420Y0817700D03*
X0216420Y0807700D03*
X0236420Y0807700D03*
X0236420Y0817700D03*
D49*
X0165240Y0716200D03*
X0157610Y0711200D03*
X0157610Y0699200D03*
D289*
X0156420Y0697700D01*
X0176420Y0677700D01*
X0181420Y0677700D01*
X0181420Y0667700D02*
X0151420Y0697700D01*
X0151420Y0737700D01*
X0181420Y0737700D01*
X0181420Y0727700D02*
X0156420Y0727700D01*
X0156420Y0712700D01*
X0157610Y0711200D01*
X0165240Y0705200D02*
X0166420Y0702700D01*
X0171420Y0697700D01*
X0206420Y0697700D01*
X0206420Y0627700D01*
X0191420Y0627700D01*
X0186420Y0622700D01*
X0186420Y0617700D01*
X0236420Y0617700D01*
X0241420Y0622700D01*
X0242420Y0622700D01*
X0236420Y0627700D02*
X0241420Y0632700D01*
X0242420Y0642700D02*
X0226420Y0642700D01*
X0226420Y0652700D02*
X0241420Y0652700D01*
X0226420Y0662700D02*
X0241420Y0677700D01*
X0240920Y0677700D01*
X0231420Y0677700D02*
X0241420Y0687700D01*
X0241920Y0687700D01*
X0241420Y0697700D02*
X0240920Y0697700D01*
X0206420Y0697700D01*
X0206420Y0707700D02*
X0236420Y0707700D01*
X0241420Y0712700D01*
X0241420Y0712000D01*
X0241420Y0722700D02*
X0241420Y0723400D01*
X0241420Y0722700D02*
X0236420Y0722700D01*
X0226420Y0732700D01*
X0231420Y0737700D02*
X0221420Y0737700D01*
X0206420Y0722700D01*
X0196420Y0722700D01*
X0191420Y0727700D02*
X0201420Y0727700D01*
X0231420Y0757700D01*
X0236420Y0757700D01*
X0246420Y0752700D02*
X0231420Y0737700D01*
X0216420Y0757700D02*
X0226420Y0767700D01*
X0246420Y0767700D01*
X0246420Y0752700D01*
X0236420Y0797700D02*
X0236420Y0807700D01*
X0236420Y0817700D02*
X0216420Y0817700D01*
X0196420Y0817700D01*
X0196420Y0807700D02*
X0196420Y0797700D01*
X0216420Y0797700D02*
X0216420Y0807700D01*
X0191420Y0727700D02*
X0186420Y0722700D01*
X0186420Y0712700D01*
X0196420Y0702700D01*
X0196420Y0672700D02*
X0191420Y0667700D01*
X0181420Y0667700D01*
X0196420Y0652700D02*
X0181420Y0637700D01*
X0186420Y0617700D02*
X0186420Y0612700D01*
X0186420Y0597700D01*
X0196420Y0597700D01*
X0196420Y0582700D01*
X0211420Y0582700D01*
X0211420Y0562700D01*
X0211420Y0552700D02*
X0231420Y0532700D01*
X0241420Y0532700D01*
X0241420Y0522700D02*
X0236420Y0522700D01*
X0236420Y0507700D01*
X0236420Y0497700D02*
X0181420Y0497700D01*
X0181420Y0507700D02*
X0201420Y0507700D01*
X0206420Y0502700D01*
X0201420Y0522700D02*
X0176420Y0522700D01*
X0176420Y0542700D01*
X0186420Y0552700D01*
X0186420Y0572700D01*
X0196420Y0572700D02*
X0196420Y0552700D01*
X0211420Y0552700D01*
X0216420Y0522700D02*
X0201420Y0522700D01*
X0196420Y0542700D02*
X0186420Y0542700D01*
X0176420Y0597700D02*
X0176420Y0612700D01*
X0186420Y0612700D02*
X0196420Y0612700D01*
X0196420Y0622700D02*
X0206420Y0622700D01*
X0211420Y0627700D01*
X0216420Y0627700D01*
X0216420Y0672700D01*
X0221420Y0677700D01*
X0231420Y0677700D01*
X0226420Y0682700D02*
X0241420Y0697700D01*
X0236420Y0627700D02*
X0216420Y0627700D01*
X0226420Y0612700D02*
X0236420Y0612700D01*
X0236420Y0597700D01*
X0236420Y0612700D02*
X0241420Y0612700D01*
X0216420Y0522700D02*
X0216420Y0502700D01*
X0216420Y0473200D02*
X0216420Y0442700D01*
X0226420Y0442700D02*
X0236420Y0452700D01*
X0236420Y0457700D01*
X0236420Y0473200D01*
X0226420Y0472700D02*
X0226420Y0472200D01*
X0226420Y0457700D01*
D602*
X0206420Y0707700D03*
X0262920Y0428950D02*
G75*
%LPD*%
D485*
X0582880Y0428950D02*
X0262920Y0428950D01*
X0262920Y0812650D01*
X0582880Y0812650D01*
X0582880Y0428950D01*
X0572880Y0433440D02*
X0572410Y0433460D01*
X0571950Y0433520D01*
X0571490Y0433620D01*
X0571040Y0433750D01*
X0570610Y0433930D01*
X0570190Y0434140D01*
X0569790Y0434380D01*
X0569420Y0434660D01*
X0569070Y0434970D01*
X0568740Y0435310D01*
X0568450Y0435670D01*
X0568190Y0436060D01*
X0567960Y0436470D01*
X0567770Y0436900D01*
X0567610Y0437340D01*
X0567490Y0437790D01*
X0567410Y0438250D01*
X0567370Y0438720D01*
X0567370Y0439180D01*
X0567410Y0439650D01*
X0567490Y0440110D01*
X0567610Y0440560D01*
X0567770Y0441000D01*
X0567960Y0441430D01*
X0568190Y0441840D01*
X0568450Y0442230D01*
X0568740Y0442590D01*
X0569070Y0442930D01*
X0569420Y0443240D01*
X0569790Y0443520D01*
X0570190Y0443760D01*
X0570610Y0443970D01*
X0571040Y0444150D01*
X0571490Y0444280D01*
X0571950Y0444380D01*
X0572410Y0444440D01*
X0572880Y0444460D01*
X0573350Y0444440D01*
X0573810Y0444380D01*
X0574270Y0444280D01*
X0574720Y0444150D01*
X0575150Y0443970D01*
X0575570Y0443760D01*
X0575970Y0443520D01*
X0576340Y0443240D01*
X0576690Y0442930D01*
X0577020Y0442590D01*
X0577310Y0442230D01*
X0577570Y0441840D01*
X0577800Y0441430D01*
X0577990Y0441000D01*
X0578150Y0440560D01*
X0578270Y0440110D01*
X0578350Y0439650D01*
X0578390Y0439180D01*
X0578390Y0438720D01*
X0578350Y0438250D01*
X0578270Y0437790D01*
X0578150Y0437340D01*
X0577990Y0436900D01*
X0577800Y0436470D01*
X0577570Y0436060D01*
X0577310Y0435670D01*
X0577020Y0435310D01*
X0576690Y0434970D01*
X0576340Y0434660D01*
X0575970Y0434380D01*
X0575570Y0434140D01*
X0575150Y0433930D01*
X0574720Y0433750D01*
X0574270Y0433620D01*
X0573810Y0433520D01*
X0573350Y0433460D01*
X0572880Y0433440D01*
X0537880Y0735150D02*
X0537380Y0735170D01*
X0536880Y0735230D01*
X0536390Y0735330D01*
X0535910Y0735470D01*
X0535440Y0735640D01*
X0534990Y0735850D01*
X0534550Y0736100D01*
X0534140Y0736380D01*
X0533750Y0736700D01*
X0533380Y0737040D01*
X0533040Y0737410D01*
X0532740Y0737810D01*
X0532470Y0738230D01*
X0532230Y0738670D01*
X0532020Y0739130D01*
X0531860Y0739600D01*
X0531730Y0740080D01*
X0531640Y0740580D01*
X0531590Y0741070D01*
X0531580Y0741580D01*
X0531610Y0742080D01*
X0531680Y0742570D01*
X0531790Y0743060D01*
X0531940Y0743540D01*
X0532120Y0744000D01*
X0532340Y0744450D01*
X0532600Y0744880D01*
X0532890Y0745290D01*
X0533210Y0745680D01*
X0533560Y0746040D01*
X0533940Y0746360D01*
X0534340Y0746660D01*
X0534770Y0746930D01*
X0535210Y0747160D01*
X0535670Y0747350D01*
X0536150Y0747510D01*
X0536640Y0747630D01*
X0537130Y0747710D01*
X0537630Y0747750D01*
X0538130Y0747750D01*
X0538630Y0747710D01*
X0539120Y0747630D01*
X0539610Y0747510D01*
X0540090Y0747350D01*
X0540550Y0747160D01*
X0540990Y0746930D01*
X0541420Y0746660D01*
X0541820Y0746360D01*
X0542200Y0746040D01*
X0542550Y0745680D01*
X0542870Y0745290D01*
X0543160Y0744880D01*
X0543420Y0744450D01*
X0543640Y0744000D01*
X0543820Y0743540D01*
X0543970Y0743060D01*
X0544080Y0742570D01*
X0544150Y0742080D01*
X0544180Y0741580D01*
X0544170Y0741070D01*
X0544120Y0740580D01*
X0544030Y0740080D01*
X0543900Y0739600D01*
X0543740Y0739130D01*
X0543530Y0738670D01*
X0543290Y0738230D01*
X0543020Y0737810D01*
X0542720Y0737410D01*
X0542380Y0737040D01*
X0542010Y0736700D01*
X0541620Y0736380D01*
X0541210Y0736100D01*
X0540770Y0735850D01*
X0540320Y0735640D01*
X0539850Y0735470D01*
X0539370Y0735330D01*
X0538880Y0735230D01*
X0538380Y0735170D01*
X0537880Y0735150D01*
X0537880Y0780150D02*
X0537380Y0780170D01*
X0536880Y0780230D01*
X0536390Y0780330D01*
X0535910Y0780470D01*
X0535440Y0780640D01*
X0534990Y0780850D01*
X0534550Y0781100D01*
X0534140Y0781380D01*
X0533750Y0781700D01*
X0533380Y0782040D01*
X0533040Y0782410D01*
X0532740Y0782810D01*
X0532470Y0783230D01*
X0532230Y0783670D01*
X0532020Y0784130D01*
X0531860Y0784600D01*
X0531730Y0785080D01*
X0531640Y0785580D01*
X0531590Y0786070D01*
X0531580Y0786580D01*
X0531610Y0787080D01*
X0531680Y0787570D01*
X0531790Y0788060D01*
X0531940Y0788540D01*
X0532120Y0789000D01*
X0532340Y0789450D01*
X0532600Y0789880D01*
X0532890Y0790290D01*
X0533210Y0790680D01*
X0533560Y0791040D01*
X0533940Y0791360D01*
X0534340Y0791660D01*
X0534770Y0791930D01*
X0535210Y0792160D01*
X0535670Y0792350D01*
X0536150Y0792510D01*
X0536640Y0792630D01*
X0537130Y0792710D01*
X0537630Y0792750D01*
X0538130Y0792750D01*
X0538630Y0792710D01*
X0539120Y0792630D01*
X0539610Y0792510D01*
X0540090Y0792350D01*
X0540550Y0792160D01*
X0540990Y0791930D01*
X0541420Y0791660D01*
X0541820Y0791360D01*
X0542200Y0791040D01*
X0542550Y0790680D01*
X0542870Y0790290D01*
X0543160Y0789880D01*
X0543420Y0789450D01*
X0543640Y0789000D01*
X0543820Y0788540D01*
X0543970Y0788060D01*
X0544080Y0787570D01*
X0544150Y0787080D01*
X0544180Y0786580D01*
X0544170Y0786070D01*
X0544120Y0785580D01*
X0544030Y0785080D01*
X0543900Y0784600D01*
X0543740Y0784130D01*
X0543530Y0783670D01*
X0543290Y0783230D01*
X0543020Y0782810D01*
X0542720Y0782410D01*
X0542380Y0782040D01*
X0542010Y0781700D01*
X0541620Y0781380D01*
X0541210Y0781100D01*
X0540770Y0780850D01*
X0540320Y0780640D01*
X0539850Y0780470D01*
X0539370Y0780330D01*
X0538880Y0780230D01*
X0538380Y0780170D01*
X0537880Y0780150D01*
X0572880Y0798440D02*
X0572410Y0798460D01*
X0571950Y0798520D01*
X0571490Y0798620D01*
X0571040Y0798750D01*
X0570610Y0798930D01*
X0570190Y0799140D01*
X0569790Y0799380D01*
X0569420Y0799660D01*
X0569070Y0799970D01*
X0568740Y0800310D01*
X0568450Y0800670D01*
X0568190Y0801060D01*
X0567960Y0801470D01*
X0567770Y0801900D01*
X0567610Y0802340D01*
X0567490Y0802790D01*
X0567410Y0803250D01*
X0567370Y0803720D01*
X0567370Y0804180D01*
X0567410Y0804650D01*
X0567490Y0805110D01*
X0567610Y0805560D01*
X0567770Y0806000D01*
X0567960Y0806430D01*
X0568190Y0806840D01*
X0568450Y0807230D01*
X0568740Y0807590D01*
X0569070Y0807930D01*
X0569420Y0808240D01*
X0569790Y0808520D01*
X0570190Y0808760D01*
X0570610Y0808970D01*
X0571040Y0809150D01*
X0571490Y0809280D01*
X0571950Y0809380D01*
X0572410Y0809440D01*
X0572880Y0809460D01*
X0573350Y0809440D01*
X0573810Y0809380D01*
X0574270Y0809280D01*
X0574720Y0809150D01*
X0575150Y0808970D01*
X0575570Y0808760D01*
X0575970Y0808520D01*
X0576340Y0808240D01*
X0576690Y0807930D01*
X0577020Y0807590D01*
X0577310Y0807230D01*
X0577570Y0806840D01*
X0577800Y0806430D01*
X0577990Y0806000D01*
X0578150Y0805560D01*
X0578270Y0805110D01*
X0578350Y0804650D01*
X0578390Y0804180D01*
X0578390Y0803720D01*
X0578350Y0803250D01*
X0578270Y0802790D01*
X0578150Y0802340D01*
X0577990Y0801900D01*
X0577800Y0801470D01*
X0577570Y0801060D01*
X0577310Y0800670D01*
X0577020Y0800310D01*
X0576690Y0799970D01*
X0576340Y0799660D01*
X0575970Y0799380D01*
X0575570Y0799140D01*
X0575150Y0798930D01*
X0574720Y0798750D01*
X0574270Y0798620D01*
X0573810Y0798520D01*
X0573350Y0798460D01*
X0572880Y0798440D01*
X0272880Y0798440D02*
X0272410Y0798460D01*
X0271950Y0798520D01*
X0271490Y0798620D01*
X0271040Y0798750D01*
X0270610Y0798930D01*
X0270190Y0799140D01*
X0269790Y0799380D01*
X0269420Y0799660D01*
X0269070Y0799970D01*
X0268740Y0800310D01*
X0268450Y0800670D01*
X0268190Y0801060D01*
X0267960Y0801470D01*
X0267770Y0801900D01*
X0267610Y0802340D01*
X0267490Y0802790D01*
X0267410Y0803250D01*
X0267370Y0803720D01*
X0267370Y0804180D01*
X0267410Y0804650D01*
X0267490Y0805110D01*
X0267610Y0805560D01*
X0267770Y0806000D01*
X0267960Y0806430D01*
X0268190Y0806840D01*
X0268450Y0807230D01*
X0268740Y0807590D01*
X0269070Y0807930D01*
X0269420Y0808240D01*
X0269790Y0808520D01*
X0270190Y0808760D01*
X0270610Y0808970D01*
X0271040Y0809150D01*
X0271490Y0809280D01*
X0271950Y0809380D01*
X0272410Y0809440D01*
X0272880Y0809460D01*
X0273350Y0809440D01*
X0273810Y0809380D01*
X0274270Y0809280D01*
X0274720Y0809150D01*
X0275150Y0808970D01*
X0275570Y0808760D01*
X0275970Y0808520D01*
X0276340Y0808240D01*
X0276690Y0807930D01*
X0277020Y0807590D01*
X0277310Y0807230D01*
X0277570Y0806840D01*
X0277800Y0806430D01*
X0277990Y0806000D01*
X0278150Y0805560D01*
X0278270Y0805110D01*
X0278350Y0804650D01*
X0278390Y0804180D01*
X0278390Y0803720D01*
X0278350Y0803250D01*
X0278270Y0802790D01*
X0278150Y0802340D01*
X0277990Y0801900D01*
X0277800Y0801470D01*
X0277570Y0801060D01*
X0277310Y0800670D01*
X0277020Y0800310D01*
X0276690Y0799970D01*
X0276340Y0799660D01*
X0275970Y0799380D01*
X0275570Y0799140D01*
X0275150Y0798930D01*
X0274720Y0798750D01*
X0274270Y0798620D01*
X0273810Y0798520D01*
X0273350Y0798460D01*
X0272880Y0798440D01*
X0272880Y0433440D02*
X0272410Y0433460D01*
X0271950Y0433520D01*
X0271490Y0433620D01*
X0271040Y0433750D01*
X0270610Y0433930D01*
X0270190Y0434140D01*
X0269790Y0434380D01*
X0269420Y0434660D01*
X0269070Y0434970D01*
X0268740Y0435310D01*
X0268450Y0435670D01*
X0268190Y0436060D01*
X0267960Y0436470D01*
X0267770Y0436900D01*
X0267610Y0437340D01*
X0267490Y0437790D01*
X0267410Y0438250D01*
X0267370Y0438720D01*
X0267370Y0439180D01*
X0267410Y0439650D01*
X0267490Y0440110D01*
X0267610Y0440560D01*
X0267770Y0441000D01*
X0267960Y0441430D01*
X0268190Y0441840D01*
X0268450Y0442230D01*
X0268740Y0442590D01*
X0269070Y0442930D01*
X0269420Y0443240D01*
X0269790Y0443520D01*
X0270190Y0443760D01*
X0270610Y0443970D01*
X0271040Y0444150D01*
X0271490Y0444280D01*
X0271950Y0444380D01*
X0272410Y0444440D01*
X0272880Y0444460D01*
X0273350Y0444440D01*
X0273810Y0444380D01*
X0274270Y0444280D01*
X0274720Y0444150D01*
X0275150Y0443970D01*
X0275570Y0443760D01*
X0275970Y0443520D01*
X0276340Y0443240D01*
X0276690Y0442930D01*
X0277020Y0442590D01*
X0277310Y0442230D01*
X0277570Y0441840D01*
X0277800Y0441430D01*
X0277990Y0441000D01*
X0278150Y0440560D01*
X0278270Y0440110D01*
X0278350Y0439650D01*
X0278390Y0439180D01*
X0278390Y0438720D01*
X0278350Y0438250D01*
X0278270Y0437790D01*
X0278150Y0437340D01*
X0277990Y0436900D01*
X0277800Y0436470D01*
X0277570Y0436060D01*
X0277310Y0435670D01*
X0277020Y0435310D01*
X0276690Y0434970D01*
X0276340Y0434660D01*
X0275970Y0434380D01*
X0275570Y0434140D01*
X0275150Y0433930D01*
X0274720Y0433750D01*
X0274270Y0433620D01*
X0273810Y0433520D01*
X0273350Y0433460D01*
X0272880Y0433440D01*
D574*
X0482880Y0671850D03*
X0487880Y0671850D03*
X0492880Y0671850D03*
X0497880Y0671850D03*
X0502880Y0671850D03*
X0507880Y0671850D03*
X0512880Y0671850D03*
X0512880Y0696050D03*
X0507880Y0696050D03*
X0502880Y0696050D03*
X0497880Y0696050D03*
X0492880Y0696050D03*
X0487880Y0696050D03*
X0482880Y0696050D03*
D599*
X0452880Y0683950D02*
X0452880Y0678750D01*
X0442880Y0678750D02*
X0442880Y0683950D01*
X0432880Y0683950D02*
X0432880Y0678750D01*
X0432880Y0713950D02*
X0432880Y0719150D01*
X0442880Y0719150D02*
X0442880Y0713950D01*
X0452880Y0713950D02*
X0452880Y0719150D01*
X0393080Y0723950D02*
X0387880Y0723950D01*
X0387880Y0713950D02*
X0393080Y0713950D01*
X0393080Y0703950D02*
X0387880Y0703950D01*
X0357880Y0703950D02*
X0352680Y0703950D01*
X0352680Y0713950D02*
X0357880Y0713950D01*
X0357880Y0723950D02*
X0352680Y0723950D01*
X0352680Y0768950D02*
X0357880Y0768950D01*
X0357880Y0778950D02*
X0352680Y0778950D01*
X0352680Y0788950D02*
X0357880Y0788950D01*
X0387880Y0788950D02*
X0393080Y0788950D01*
X0393080Y0778950D02*
X0387880Y0778950D01*
X0387880Y0768950D02*
X0393080Y0768950D01*
X0393080Y0663950D02*
X0387880Y0663950D01*
X0387880Y0653950D02*
X0393080Y0653950D01*
X0393080Y0643950D02*
X0387880Y0643950D01*
X0357880Y0643950D02*
X0352680Y0643950D01*
X0352680Y0653950D02*
X0357880Y0653950D01*
X0357880Y0663950D02*
X0352680Y0663950D01*
X0352680Y0603950D02*
X0357880Y0603950D01*
X0357880Y0593950D02*
X0352680Y0593950D01*
X0352680Y0583950D02*
X0357880Y0583950D01*
X0387880Y0583950D02*
X0393080Y0583950D01*
X0393080Y0593950D02*
X0387880Y0593950D01*
X0387880Y0603950D02*
X0393080Y0603950D01*
X0393080Y0548950D02*
X0387880Y0548950D01*
X0387880Y0538950D02*
X0393080Y0538950D01*
X0393080Y0528950D02*
X0387880Y0528950D01*
X0357880Y0528950D02*
X0352680Y0528950D01*
X0352680Y0538950D02*
X0357880Y0538950D01*
X0357880Y0548950D02*
X0352680Y0548950D01*
X0352680Y0488950D02*
X0357880Y0488950D01*
X0357880Y0478950D02*
X0352680Y0478950D01*
X0352680Y0468950D02*
X0357880Y0468950D01*
X0387880Y0468950D02*
X0393080Y0468950D01*
X0393080Y0478950D02*
X0387880Y0478950D01*
X0387880Y0488950D02*
X0393080Y0488950D01*
X0455280Y0498950D02*
X0460480Y0498950D01*
X0460480Y0508950D02*
X0455280Y0508950D01*
X0455280Y0518950D02*
X0460480Y0518950D01*
X0460480Y0528950D02*
X0455280Y0528950D01*
X0455280Y0538950D02*
X0460480Y0538950D01*
X0460480Y0548950D02*
X0455280Y0548950D01*
X0455280Y0558950D02*
X0460480Y0558950D01*
X0460480Y0568950D02*
X0455280Y0568950D01*
X0455280Y0578950D02*
X0460480Y0578950D01*
X0460480Y0588950D02*
X0455280Y0588950D01*
X0455280Y0598950D02*
X0460480Y0598950D01*
X0460480Y0608950D02*
X0455280Y0608950D01*
X0455280Y0618950D02*
X0460480Y0618950D01*
X0460480Y0628950D02*
X0455280Y0628950D01*
X0485280Y0628950D02*
X0490480Y0628950D01*
X0490480Y0618950D02*
X0485280Y0618950D01*
X0485280Y0608950D02*
X0490480Y0608950D01*
X0490480Y0598950D02*
X0485280Y0598950D01*
X0485280Y0588950D02*
X0490480Y0588950D01*
X0490480Y0578950D02*
X0485280Y0578950D01*
X0485280Y0568950D02*
X0490480Y0568950D01*
X0490480Y0558950D02*
X0485280Y0558950D01*
X0485280Y0548950D02*
X0490480Y0548950D01*
X0490480Y0538950D02*
X0485280Y0538950D01*
X0485280Y0528950D02*
X0490480Y0528950D01*
X0490480Y0518950D02*
X0485280Y0518950D01*
X0485280Y0508950D02*
X0490480Y0508950D01*
X0490480Y0498950D02*
X0485280Y0498950D01*
D173*
X0517880Y0493950D03*
X0518880Y0503950D03*
X0517880Y0513950D03*
X0518880Y0523950D03*
X0517880Y0533950D03*
X0518880Y0543950D03*
X0357880Y0568950D03*
X0317880Y0568950D03*
X0302880Y0568950D03*
X0302880Y0548950D03*
X0302880Y0508950D03*
X0317880Y0508950D03*
X0302880Y0488950D03*
X0302880Y0448950D03*
X0317880Y0448950D03*
X0357880Y0448950D03*
X0357880Y0508950D03*
X0302880Y0608950D03*
X0302880Y0628950D03*
X0317880Y0628950D03*
X0302880Y0668950D03*
X0302880Y0688950D03*
X0317880Y0688950D03*
X0302880Y0728950D03*
X0302880Y0748950D03*
X0317880Y0748950D03*
X0302880Y0788950D03*
X0357880Y0748950D03*
X0357880Y0688950D03*
X0357880Y0628950D03*
X0432880Y0733950D03*
X0452880Y0733950D03*
X0452880Y0773950D03*
X0432880Y0773950D03*
X0502880Y0771450D03*
X0502880Y0781450D03*
X0512880Y0776450D03*
X0512880Y0766450D03*
X0512880Y0756450D03*
X0502880Y0761450D03*
X0502880Y0751450D03*
D291*
X0472880Y0689460D03*
X0472880Y0678430D03*
X0442880Y0534460D03*
X0442880Y0523430D03*
X0442880Y0509460D03*
X0442880Y0498430D03*
X0427880Y0498430D03*
X0427880Y0509460D03*
X0502880Y0504460D03*
X0502880Y0493430D03*
X0317880Y0523430D03*
X0317880Y0534460D03*
X0317880Y0583430D03*
X0317880Y0594460D03*
X0317880Y0643430D03*
X0317880Y0654460D03*
X0317880Y0703430D03*
X0317880Y0714460D03*
X0317880Y0763430D03*
X0317880Y0774460D03*
D1303*
X0550080Y0713050D03*
X0550080Y0703950D03*
X0550080Y0694850D03*
X0550080Y0633050D03*
X0550080Y0623950D03*
X0550080Y0614850D03*
D1304*
X0525680Y0623950D03*
X0525680Y0703950D03*
D158*
X0340880Y0708950D02*
X0334880Y0708950D01*
X0334880Y0718950D02*
X0340880Y0718950D01*
X0340880Y0728950D02*
X0334880Y0728950D01*
X0334880Y0768950D02*
X0340880Y0768950D01*
X0340880Y0778950D02*
X0334880Y0778950D01*
X0334880Y0788950D02*
X0340880Y0788950D01*
X0340880Y0668950D02*
X0334880Y0668950D01*
X0334880Y0658950D02*
X0340880Y0658950D01*
X0340880Y0648950D02*
X0334880Y0648950D01*
X0334880Y0608950D02*
X0340880Y0608950D01*
X0340880Y0598950D02*
X0334880Y0598950D01*
X0334880Y0588950D02*
X0340880Y0588950D01*
X0340880Y0548950D02*
X0334880Y0548950D01*
X0334880Y0538950D02*
X0340880Y0538950D01*
X0340880Y0528950D02*
X0334880Y0528950D01*
X0334880Y0488950D02*
X0340880Y0488950D01*
X0340880Y0478950D02*
X0334880Y0478950D01*
X0334880Y0468950D02*
X0340880Y0468950D01*
D224*
X0317880Y0478790D03*
X0317880Y0459100D03*
X0567880Y0593950D03*
X0567880Y0623950D03*
X0567880Y0673950D03*
X0567880Y0703950D03*
D12*
X0453390Y0663950D03*
X0442370Y0663950D03*
X0388390Y0688950D03*
X0377370Y0688950D03*
X0377370Y0628950D03*
X0388390Y0628950D03*
X0388390Y0568950D03*
X0377370Y0568950D03*
X0377370Y0513950D03*
X0388390Y0513950D03*
X0388390Y0453950D03*
X0377370Y0453950D03*
X0377370Y0753950D03*
X0388390Y0753950D03*
D320*
X0512880Y0746450D03*
D207*
X0567880Y0713950D03*
X0567880Y0683950D03*
X0567880Y0633950D03*
X0567880Y0603950D03*
D346*
X0552880Y0542880D03*
X0571380Y0531070D03*
X0552880Y0519260D03*
D102*
X0442880Y0793950D03*
X0277880Y0778950D03*
X0277880Y0718950D03*
X0277880Y0658950D03*
X0277880Y0598950D03*
X0277880Y0538950D03*
X0277880Y0478950D03*
D260*
X0277880Y0459260D03*
X0277880Y0519260D03*
X0277880Y0579260D03*
X0277880Y0639260D03*
X0277880Y0699260D03*
X0277880Y0759260D03*
X0423190Y0793950D03*
D289*
X0422880Y0793950D01*
X0423190Y0793950D02*
X0427880Y0793950D01*
X0452880Y0773950D01*
X0452880Y0733950D02*
X0452880Y0713950D01*
X0442880Y0713950D02*
X0442880Y0733950D01*
X0432880Y0733950D01*
X0402880Y0713950D02*
X0387880Y0713950D01*
X0387880Y0703950D02*
X0377880Y0703950D01*
X0377880Y0688950D01*
X0377370Y0688950D01*
X0382880Y0693950D02*
X0382880Y0648950D01*
X0417880Y0648950D01*
X0447880Y0618950D01*
X0457880Y0618950D01*
X0482880Y0613950D02*
X0487880Y0608950D01*
X0482880Y0613950D02*
X0367880Y0613950D01*
X0367880Y0688950D01*
X0362880Y0693950D01*
X0362880Y0728950D01*
X0387880Y0753950D01*
X0388390Y0753950D01*
X0377880Y0753950D02*
X0377370Y0753950D01*
X0377880Y0753950D02*
X0377880Y0768950D01*
X0387880Y0768950D01*
X0357880Y0768950D02*
X0357880Y0748950D01*
X0352880Y0728950D02*
X0337880Y0728950D01*
X0352880Y0728950D02*
X0357880Y0723950D01*
X0357880Y0703950D02*
X0357880Y0688950D01*
X0352880Y0668950D02*
X0337880Y0668950D01*
X0352880Y0668950D02*
X0357880Y0663950D01*
X0357880Y0643950D02*
X0357880Y0628950D01*
X0377370Y0628950D02*
X0377880Y0628950D01*
X0377880Y0643950D01*
X0387880Y0643950D01*
X0402880Y0643950D02*
X0387880Y0628950D01*
X0388390Y0628950D01*
X0402880Y0643950D02*
X0407880Y0643950D01*
X0412880Y0673950D02*
X0387880Y0698950D01*
X0382880Y0693950D01*
X0387880Y0688950D02*
X0388390Y0688950D01*
X0387880Y0688950D02*
X0432880Y0643950D01*
X0567880Y0643950D01*
X0572880Y0638950D01*
X0572880Y0598950D01*
X0487880Y0598950D01*
X0492880Y0613950D02*
X0537880Y0613950D01*
X0547880Y0623950D01*
X0550080Y0623950D01*
X0567880Y0623950D01*
X0567880Y0633950D02*
X0552880Y0633950D01*
X0550080Y0633050D01*
X0550080Y0614850D02*
X0552880Y0613950D01*
X0562880Y0603950D01*
X0567880Y0603950D01*
X0577880Y0568950D02*
X0577880Y0638950D01*
X0567880Y0648950D01*
X0452880Y0648950D01*
X0452880Y0663950D01*
X0453390Y0663950D01*
X0442880Y0663950D02*
X0442370Y0663950D01*
X0442880Y0663950D02*
X0442880Y0683950D01*
X0437880Y0688950D02*
X0437880Y0673950D01*
X0412880Y0673950D01*
X0432880Y0683950D02*
X0402880Y0713950D01*
X0437880Y0688950D02*
X0457880Y0688950D01*
X0462880Y0683950D01*
X0502880Y0683950D01*
X0502880Y0671850D01*
X0497880Y0671850D02*
X0497880Y0668950D01*
X0482880Y0653950D01*
X0467880Y0653950D01*
X0477880Y0658950D02*
X0487880Y0668950D01*
X0487880Y0671850D01*
X0492880Y0671850D02*
X0492880Y0678950D01*
X0472880Y0678950D01*
X0472880Y0678430D01*
X0472880Y0668950D01*
X0472880Y0688950D02*
X0472880Y0689460D01*
X0472880Y0688950D02*
X0477880Y0693950D01*
X0482880Y0693950D01*
X0482880Y0696050D01*
X0482880Y0718950D01*
X0542880Y0718950D01*
X0547880Y0713950D01*
X0550080Y0713050D01*
X0552880Y0713950D01*
X0567880Y0713950D01*
X0572880Y0718950D02*
X0572880Y0703950D01*
X0567880Y0703950D01*
X0550080Y0703950D01*
X0542880Y0703950D01*
X0527880Y0688950D01*
X0552880Y0688950D01*
X0567880Y0673950D01*
X0567880Y0683950D02*
X0562880Y0683950D01*
X0552880Y0693950D01*
X0550080Y0694850D01*
X0527880Y0688950D02*
X0512880Y0673950D01*
X0512880Y0671850D01*
X0512880Y0673950D02*
X0507880Y0673950D01*
X0507880Y0671850D01*
X0497880Y0696050D02*
X0497880Y0708950D01*
X0492880Y0713950D02*
X0492880Y0696050D01*
X0512880Y0756450D02*
X0512880Y0758950D01*
X0522880Y0768950D01*
X0572880Y0718950D01*
X0522880Y0768950D02*
X0522880Y0773950D01*
X0512880Y0773950D01*
X0512880Y0776450D01*
X0512880Y0778950D01*
X0502880Y0778950D01*
X0502880Y0781450D01*
X0502880Y0763950D02*
X0512880Y0763950D01*
X0512880Y0766450D01*
X0502880Y0763950D02*
X0502880Y0761450D01*
X0487880Y0618950D02*
X0492880Y0613950D01*
X0487880Y0578950D02*
X0482880Y0573950D01*
X0392880Y0573950D01*
X0387880Y0568950D01*
X0388390Y0568950D01*
X0377880Y0568950D02*
X0377370Y0568950D01*
X0377880Y0568950D02*
X0377880Y0583950D01*
X0387880Y0583950D01*
X0357880Y0583950D02*
X0357880Y0568950D01*
X0357880Y0548950D02*
X0337880Y0548950D01*
X0317880Y0568950D02*
X0302880Y0568950D01*
X0317880Y0568950D02*
X0317880Y0583430D01*
X0317880Y0583950D01*
X0337880Y0608950D02*
X0352880Y0608950D01*
X0357880Y0603950D01*
X0317880Y0628950D02*
X0302880Y0628950D01*
X0317880Y0628950D02*
X0317880Y0643430D01*
X0317880Y0643950D01*
X0317880Y0688950D02*
X0302880Y0688950D01*
X0317880Y0688950D02*
X0317880Y0703430D01*
X0317880Y0703950D01*
X0317880Y0748950D02*
X0302880Y0748950D01*
X0317880Y0748950D02*
X0317880Y0763430D01*
X0317880Y0763950D01*
X0337880Y0788950D02*
X0357880Y0788950D01*
X0487880Y0568950D02*
X0577880Y0568950D01*
X0552880Y0519260D02*
X0522880Y0518950D01*
X0517880Y0513950D01*
X0442880Y0513950D01*
X0442880Y0523430D01*
X0442880Y0523950D01*
X0442880Y0513950D02*
X0442880Y0509460D01*
X0442880Y0508950D01*
X0457880Y0508950D01*
X0457880Y0498950D02*
X0442880Y0498950D01*
X0442880Y0498430D01*
X0442880Y0498950D02*
X0427880Y0498950D01*
X0427880Y0498430D01*
X0427880Y0508950D02*
X0427880Y0509460D01*
X0427880Y0508950D02*
X0402880Y0533950D01*
X0392880Y0533950D01*
X0387880Y0538950D01*
X0387880Y0528950D02*
X0377880Y0528950D01*
X0377880Y0513950D01*
X0377370Y0513950D01*
X0387880Y0513950D02*
X0388390Y0513950D01*
X0412880Y0513950D01*
X0427880Y0508950D02*
X0402880Y0483950D01*
X0392880Y0483950D01*
X0387880Y0478950D01*
X0387880Y0468950D02*
X0377880Y0468950D01*
X0377880Y0453950D01*
X0377370Y0453950D01*
X0387880Y0453950D02*
X0388390Y0453950D01*
X0387880Y0453950D02*
X0422880Y0488950D01*
X0467880Y0488950D01*
X0487880Y0508950D01*
X0487880Y0498950D02*
X0492880Y0493950D01*
X0502880Y0493950D01*
X0502880Y0493430D01*
X0502880Y0493950D02*
X0517880Y0493950D01*
X0518880Y0503950D02*
X0502880Y0503950D01*
X0502880Y0504460D01*
X0492880Y0523950D02*
X0518880Y0523950D01*
X0517880Y0533950D02*
X0492880Y0533950D01*
X0487880Y0538950D01*
X0487880Y0528950D02*
X0492880Y0523950D01*
X0457880Y0538950D02*
X0447880Y0538950D01*
X0442880Y0533950D01*
X0442880Y0534460D01*
X0442880Y0508950D02*
X0427880Y0508950D01*
X0357880Y0508950D02*
X0357880Y0528950D01*
X0357880Y0488950D02*
X0337880Y0488950D01*
X0317880Y0508950D02*
X0302880Y0508950D01*
X0317880Y0508950D02*
X0317880Y0523430D01*
X0317880Y0523950D01*
X0357880Y0468950D02*
X0357880Y0448950D01*
X0317880Y0448950D02*
X0302880Y0448950D01*
X0317880Y0448950D02*
X0317880Y0459100D01*
D602*
X0412880Y0513950D03*
X0407880Y0643950D03*
X0467880Y0653950D03*
X0477880Y0658950D03*
X0472880Y0668950D03*
X0497880Y0708950D03*
X0492880Y0713950D03*
X0567880Y0648950D03*
D458*
X0337880Y0648950D02*
X0332880Y0648950D01*
X0327880Y0653950D01*
X0317880Y0653950D01*
X0317880Y0654460D01*
X0317880Y0653950D02*
X0292880Y0653950D01*
X0277880Y0638950D01*
X0277880Y0639260D01*
X0292880Y0593950D02*
X0317880Y0593950D01*
X0317880Y0594460D01*
X0317880Y0593950D02*
X0327880Y0593950D01*
X0332880Y0588950D01*
X0337880Y0588950D01*
X0292880Y0593950D02*
X0277880Y0578950D01*
X0277880Y0579260D01*
X0292880Y0533950D02*
X0317880Y0533950D01*
X0317880Y0534460D01*
X0317880Y0533950D02*
X0327880Y0533950D01*
X0332880Y0528950D01*
X0337880Y0528950D01*
X0322880Y0488950D02*
X0302880Y0488950D01*
X0287880Y0488950D01*
X0277880Y0478950D01*
X0277880Y0459260D02*
X0277880Y0458950D01*
X0297880Y0478950D01*
X0317880Y0478950D01*
X0317880Y0478790D01*
X0322880Y0488950D02*
X0332880Y0478950D01*
X0337880Y0478950D01*
X0292880Y0533950D02*
X0277880Y0518950D01*
X0277880Y0519260D01*
X0277880Y0698950D02*
X0277880Y0699260D01*
X0277880Y0698950D02*
X0292880Y0713950D01*
X0317880Y0713950D01*
X0317880Y0714460D01*
X0317880Y0713950D02*
X0327880Y0713950D01*
X0332880Y0708950D01*
X0337880Y0708950D01*
X0337880Y0768950D02*
X0332880Y0768950D01*
X0327880Y0773950D01*
X0317880Y0773950D01*
X0317880Y0774460D01*
X0317880Y0773950D02*
X0292880Y0773950D01*
X0277880Y0758950D01*
X0277880Y0759260D01*
X0589380Y0428950D02*
G75*
%LPD*%
D485*
X0697940Y0428950D02*
X0589380Y0428950D01*
X0589380Y0690650D01*
X0697940Y0690650D01*
X0697940Y0428950D01*
X0693140Y0431780D02*
X0692870Y0431800D01*
X0692600Y0431860D01*
X0692340Y0431950D01*
X0692100Y0432080D01*
X0691870Y0432240D01*
X0691680Y0432430D01*
X0691510Y0432650D01*
X0691370Y0432890D01*
X0691270Y0433140D01*
X0691200Y0433410D01*
X0691170Y0433680D01*
X0691180Y0433960D01*
X0691230Y0434230D01*
X0691310Y0434490D01*
X0691430Y0434730D01*
X0691590Y0434960D01*
X0691770Y0435170D01*
X0691980Y0435340D01*
X0692220Y0435490D01*
X0692470Y0435600D01*
X0692730Y0435680D01*
X0693000Y0435720D01*
X0693280Y0435720D01*
X0693550Y0435680D01*
X0693810Y0435600D01*
X0694060Y0435490D01*
X0694300Y0435340D01*
X0694510Y0435170D01*
X0694690Y0434960D01*
X0694850Y0434740D01*
X0694970Y0434490D01*
X0695050Y0434230D01*
X0695100Y0433960D01*
X0695110Y0433680D01*
X0695080Y0433410D01*
X0695010Y0433140D01*
X0694910Y0432890D01*
X0694770Y0432650D01*
X0694600Y0432430D01*
X0694410Y0432240D01*
X0694180Y0432080D01*
X0693940Y0431950D01*
X0693680Y0431860D01*
X0693410Y0431800D01*
X0693140Y0431780D01*
X0634200Y0451780D02*
X0633940Y0451800D01*
X0633680Y0451860D01*
X0633430Y0451960D01*
X0633200Y0452090D01*
X0633000Y0452250D01*
X0632820Y0452450D01*
X0632670Y0452670D01*
X0632550Y0452900D01*
X0632470Y0453160D01*
X0632430Y0453420D01*
X0632430Y0453680D01*
X0632470Y0453940D01*
X0632550Y0454200D01*
X0632670Y0454440D01*
X0632820Y0454650D01*
X0633000Y0454850D01*
X0633200Y0455010D01*
X0633430Y0455140D01*
X0633680Y0455240D01*
X0633940Y0455300D01*
X0634200Y0455320D01*
X0634460Y0455300D01*
X0634720Y0455240D01*
X0634970Y0455140D01*
X0635200Y0455010D01*
X0635400Y0454850D01*
X0635580Y0454650D01*
X0635730Y0454430D01*
X0635850Y0454200D01*
X0635930Y0453940D01*
X0635970Y0453680D01*
X0635970Y0453420D01*
X0635930Y0453160D01*
X0635850Y0452900D01*
X0635730Y0452660D01*
X0635580Y0452450D01*
X0635400Y0452250D01*
X0635200Y0452090D01*
X0634970Y0451960D01*
X0634720Y0451860D01*
X0634460Y0451800D01*
X0634200Y0451780D01*
X0616880Y0451780D02*
X0616620Y0451800D01*
X0616360Y0451860D01*
X0616110Y0451960D01*
X0615880Y0452090D01*
X0615680Y0452250D01*
X0615500Y0452450D01*
X0615350Y0452670D01*
X0615230Y0452900D01*
X0615150Y0453160D01*
X0615110Y0453420D01*
X0615110Y0453680D01*
X0615150Y0453940D01*
X0615230Y0454200D01*
X0615350Y0454440D01*
X0615500Y0454650D01*
X0615680Y0454850D01*
X0615880Y0455010D01*
X0616110Y0455140D01*
X0616360Y0455240D01*
X0616620Y0455300D01*
X0616880Y0455320D01*
X0617140Y0455300D01*
X0617400Y0455240D01*
X0617650Y0455140D01*
X0617880Y0455010D01*
X0618080Y0454850D01*
X0618260Y0454650D01*
X0618410Y0454430D01*
X0618530Y0454200D01*
X0618610Y0453940D01*
X0618650Y0453680D01*
X0618650Y0453420D01*
X0618610Y0453160D01*
X0618530Y0452900D01*
X0618410Y0452660D01*
X0618260Y0452450D01*
X0618080Y0452250D01*
X0617880Y0452090D01*
X0617650Y0451960D01*
X0617400Y0451860D01*
X0617140Y0451800D01*
X0616880Y0451780D01*
X0594740Y0432980D02*
X0594470Y0433000D01*
X0594200Y0433060D01*
X0593940Y0433150D01*
X0593700Y0433280D01*
X0593470Y0433440D01*
X0593280Y0433630D01*
X0593110Y0433850D01*
X0592970Y0434090D01*
X0592870Y0434340D01*
X0592800Y0434610D01*
X0592770Y0434880D01*
X0592780Y0435160D01*
X0592830Y0435430D01*
X0592910Y0435690D01*
X0593030Y0435930D01*
X0593190Y0436160D01*
X0593370Y0436370D01*
X0593580Y0436540D01*
X0593820Y0436690D01*
X0594070Y0436800D01*
X0594330Y0436880D01*
X0594600Y0436920D01*
X0594880Y0436920D01*
X0595150Y0436880D01*
X0595410Y0436800D01*
X0595660Y0436690D01*
X0595900Y0436540D01*
X0596110Y0436370D01*
X0596290Y0436160D01*
X0596450Y0435940D01*
X0596570Y0435690D01*
X0596650Y0435430D01*
X0596700Y0435160D01*
X0596710Y0434880D01*
X0596680Y0434610D01*
X0596610Y0434340D01*
X0596510Y0434090D01*
X0596370Y0433850D01*
X0596200Y0433630D01*
X0596010Y0433440D01*
X0595780Y0433280D01*
X0595540Y0433150D01*
X0595280Y0433060D01*
X0595010Y0433000D01*
X0594740Y0432980D01*
X0626040Y0640650D02*
X0625540Y0640670D01*
X0625040Y0640730D01*
X0624550Y0640830D01*
X0624070Y0640970D01*
X0623600Y0641140D01*
X0623150Y0641350D01*
X0622710Y0641600D01*
X0622300Y0641880D01*
X0621910Y0642200D01*
X0621540Y0642540D01*
X0621200Y0642910D01*
X0620900Y0643310D01*
X0620630Y0643730D01*
X0620390Y0644170D01*
X0620180Y0644630D01*
X0620020Y0645100D01*
X0619890Y0645580D01*
X0619800Y0646080D01*
X0619750Y0646570D01*
X0619740Y0647080D01*
X0619770Y0647580D01*
X0619840Y0648070D01*
X0619950Y0648560D01*
X0620100Y0649040D01*
X0620280Y0649500D01*
X0620500Y0649950D01*
X0620760Y0650380D01*
X0621050Y0650790D01*
X0621370Y0651180D01*
X0621720Y0651540D01*
X0622100Y0651860D01*
X0622500Y0652160D01*
X0622930Y0652430D01*
X0623370Y0652660D01*
X0623830Y0652850D01*
X0624310Y0653010D01*
X0624800Y0653130D01*
X0625290Y0653210D01*
X0625790Y0653250D01*
X0626290Y0653250D01*
X0626790Y0653210D01*
X0627280Y0653130D01*
X0627770Y0653010D01*
X0628250Y0652850D01*
X0628710Y0652660D01*
X0629150Y0652430D01*
X0629580Y0652160D01*
X0629980Y0651860D01*
X0630360Y0651540D01*
X0630710Y0651180D01*
X0631030Y0650790D01*
X0631320Y0650380D01*
X0631580Y0649950D01*
X0631800Y0649500D01*
X0631980Y0649040D01*
X0632130Y0648560D01*
X0632240Y0648070D01*
X0632310Y0647580D01*
X0632340Y0647080D01*
X0632330Y0646570D01*
X0632280Y0646080D01*
X0632190Y0645580D01*
X0632060Y0645100D01*
X0631900Y0644630D01*
X0631690Y0644170D01*
X0631450Y0643730D01*
X0631180Y0643310D01*
X0630880Y0642910D01*
X0630540Y0642540D01*
X0630170Y0642200D01*
X0629780Y0641880D01*
X0629370Y0641600D01*
X0628930Y0641350D01*
X0628480Y0641140D01*
X0628010Y0640970D01*
X0627530Y0640830D01*
X0627040Y0640730D01*
X0626540Y0640670D01*
X0626040Y0640650D01*
X0594740Y0683780D02*
X0594470Y0683800D01*
X0594200Y0683860D01*
X0593940Y0683950D01*
X0593700Y0684080D01*
X0593470Y0684240D01*
X0593280Y0684430D01*
X0593110Y0684650D01*
X0592970Y0684890D01*
X0592870Y0685140D01*
X0592800Y0685410D01*
X0592770Y0685680D01*
X0592780Y0685960D01*
X0592830Y0686230D01*
X0592910Y0686490D01*
X0593030Y0686730D01*
X0593190Y0686960D01*
X0593370Y0687170D01*
X0593580Y0687340D01*
X0593820Y0687490D01*
X0594070Y0687600D01*
X0594330Y0687680D01*
X0594600Y0687720D01*
X0594880Y0687720D01*
X0595150Y0687680D01*
X0595410Y0687600D01*
X0595660Y0687490D01*
X0595900Y0687340D01*
X0596110Y0687170D01*
X0596290Y0686960D01*
X0596450Y0686740D01*
X0596570Y0686490D01*
X0596650Y0686230D01*
X0596700Y0685960D01*
X0596710Y0685680D01*
X0596680Y0685410D01*
X0596610Y0685140D01*
X0596510Y0684890D01*
X0596370Y0684650D01*
X0596200Y0684430D01*
X0596010Y0684240D01*
X0595780Y0684080D01*
X0595540Y0683950D01*
X0595280Y0683860D01*
X0595010Y0683800D01*
X0594740Y0683780D01*
X0671040Y0640650D02*
X0670540Y0640670D01*
X0670040Y0640730D01*
X0669550Y0640830D01*
X0669070Y0640970D01*
X0668600Y0641140D01*
X0668150Y0641350D01*
X0667710Y0641600D01*
X0667300Y0641880D01*
X0666910Y0642200D01*
X0666540Y0642540D01*
X0666200Y0642910D01*
X0665900Y0643310D01*
X0665630Y0643730D01*
X0665390Y0644170D01*
X0665180Y0644630D01*
X0665020Y0645100D01*
X0664890Y0645580D01*
X0664800Y0646080D01*
X0664750Y0646570D01*
X0664740Y0647080D01*
X0664770Y0647580D01*
X0664840Y0648070D01*
X0664950Y0648560D01*
X0665100Y0649040D01*
X0665280Y0649500D01*
X0665500Y0649950D01*
X0665760Y0650380D01*
X0666050Y0650790D01*
X0666370Y0651180D01*
X0666720Y0651540D01*
X0667100Y0651860D01*
X0667500Y0652160D01*
X0667930Y0652430D01*
X0668370Y0652660D01*
X0668830Y0652850D01*
X0669310Y0653010D01*
X0669800Y0653130D01*
X0670290Y0653210D01*
X0670790Y0653250D01*
X0671290Y0653250D01*
X0671790Y0653210D01*
X0672280Y0653130D01*
X0672770Y0653010D01*
X0673250Y0652850D01*
X0673710Y0652660D01*
X0674150Y0652430D01*
X0674580Y0652160D01*
X0674980Y0651860D01*
X0675360Y0651540D01*
X0675710Y0651180D01*
X0676030Y0650790D01*
X0676320Y0650380D01*
X0676580Y0649950D01*
X0676800Y0649500D01*
X0676980Y0649040D01*
X0677130Y0648560D01*
X0677240Y0648070D01*
X0677310Y0647580D01*
X0677340Y0647080D01*
X0677330Y0646570D01*
X0677280Y0646080D01*
X0677190Y0645580D01*
X0677060Y0645100D01*
X0676900Y0644630D01*
X0676690Y0644170D01*
X0676450Y0643730D01*
X0676180Y0643310D01*
X0675880Y0642910D01*
X0675540Y0642540D01*
X0675170Y0642200D01*
X0674780Y0641880D01*
X0674370Y0641600D01*
X0673930Y0641350D01*
X0673480Y0641140D01*
X0673010Y0640970D01*
X0672530Y0640830D01*
X0672040Y0640730D01*
X0671540Y0640670D01*
X0671040Y0640650D01*
X0693140Y0683780D02*
X0692870Y0683800D01*
X0692600Y0683860D01*
X0692340Y0683950D01*
X0692100Y0684080D01*
X0691870Y0684240D01*
X0691680Y0684430D01*
X0691510Y0684650D01*
X0691370Y0684890D01*
X0691270Y0685140D01*
X0691200Y0685410D01*
X0691170Y0685680D01*
X0691180Y0685960D01*
X0691230Y0686230D01*
X0691310Y0686490D01*
X0691430Y0686730D01*
X0691590Y0686960D01*
X0691770Y0687170D01*
X0691980Y0687340D01*
X0692220Y0687490D01*
X0692470Y0687600D01*
X0692730Y0687680D01*
X0693000Y0687720D01*
X0693280Y0687720D01*
X0693550Y0687680D01*
X0693810Y0687600D01*
X0694060Y0687490D01*
X0694300Y0687340D01*
X0694510Y0687170D01*
X0694690Y0686960D01*
X0694850Y0686740D01*
X0694970Y0686490D01*
X0695050Y0686230D01*
X0695100Y0685960D01*
X0695110Y0685680D01*
X0695080Y0685410D01*
X0695010Y0685140D01*
X0694910Y0684890D01*
X0694770Y0684650D01*
X0694600Y0684430D01*
X0694410Y0684240D01*
X0694180Y0684080D01*
X0693940Y0683950D01*
X0693680Y0683860D01*
X0693410Y0683800D01*
X0693140Y0683780D01*
D1307*
X0649580Y0532950D03*
X0647020Y0532950D03*
X0644460Y0532950D03*
X0641900Y0532950D03*
X0639340Y0532950D03*
X0636780Y0532950D03*
X0634220Y0532950D03*
X0631660Y0532950D03*
X0629100Y0532950D03*
X0626540Y0532950D03*
X0623990Y0532950D03*
X0621430Y0532950D03*
X0618870Y0532950D03*
X0616310Y0532950D03*
X0616310Y0504160D03*
X0618870Y0504160D03*
X0621430Y0504160D03*
X0623990Y0504160D03*
X0626540Y0504160D03*
X0629100Y0504160D03*
X0631660Y0504160D03*
X0634220Y0504160D03*
X0636780Y0504160D03*
X0639340Y0504160D03*
X0641900Y0504160D03*
X0644460Y0504160D03*
X0647020Y0504160D03*
X0649580Y0504160D03*
D1308*
X0631840Y0463390D03*
X0628690Y0463390D03*
X0625540Y0463390D03*
X0622390Y0463390D03*
X0619240Y0463390D03*
D1309*
X0607830Y0463390D03*
X0607830Y0441740D03*
X0643260Y0441740D03*
X0643260Y0463390D03*
D12*
X0608450Y0498550D03*
X0597430Y0498550D03*
D291*
X0597940Y0513040D03*
X0597940Y0524060D03*
X0616340Y0546040D03*
X0616340Y0557060D03*
X0662940Y0554060D03*
X0662940Y0543040D03*
X0672940Y0544060D03*
X0672940Y0533040D03*
X0662940Y0568040D03*
X0662940Y0579060D03*
X0677940Y0584060D03*
X0677940Y0573040D03*
D1306*
X0608450Y0483550D03*
X0597430Y0483550D03*
D390*
X0607940Y0511660D03*
X0607940Y0525440D03*
X0664940Y0525440D03*
X0664940Y0511660D03*
D173*
X0661040Y0611950D03*
X0656040Y0621950D03*
X0651040Y0611950D03*
X0646040Y0621950D03*
X0641040Y0611950D03*
X0636040Y0621950D03*
X0631040Y0611950D03*
X0610140Y0588550D03*
X0610140Y0578550D03*
X0602740Y0548950D03*
X0602740Y0538950D03*
D230*
X0625840Y0563550D03*
X0625840Y0568550D03*
X0625840Y0573550D03*
X0625840Y0578550D03*
X0625840Y0583550D03*
X0625840Y0588550D03*
X0625840Y0593550D03*
X0650040Y0593550D03*
X0650040Y0588550D03*
X0650040Y0583550D03*
X0650040Y0578550D03*
X0650040Y0573550D03*
X0650040Y0568550D03*
X0650040Y0563550D03*
D320*
X0666040Y0621950D03*
D346*
X0668140Y0483890D03*
X0668140Y0460270D03*
X0686650Y0472080D03*
D35*
X0664940Y0511660D02*
X0658340Y0509350D01*
X0641540Y0509350D01*
X0634340Y0517750D01*
X0634340Y0522550D01*
X0631940Y0526150D01*
X0631660Y0532950D01*
X0629100Y0532950D02*
X0629100Y0528110D01*
X0627140Y0526150D01*
X0607940Y0526150D01*
X0607940Y0525440D01*
X0602740Y0519350D02*
X0604340Y0517750D01*
X0621140Y0517750D01*
X0623990Y0514910D01*
X0623990Y0504160D01*
X0626540Y0504160D02*
X0626540Y0511150D01*
X0628340Y0514150D01*
X0631660Y0514150D02*
X0631940Y0511750D01*
X0631660Y0504160D01*
X0631940Y0504160D01*
X0631940Y0497550D01*
X0631840Y0490350D01*
X0631840Y0483550D01*
X0635940Y0483550D01*
X0631840Y0483550D02*
X0631840Y0463390D01*
X0628540Y0472750D02*
X0628540Y0476950D01*
X0628540Y0472750D02*
X0625540Y0471550D01*
X0625540Y0463390D01*
X0622390Y0463390D02*
X0622390Y0476750D01*
X0622540Y0476750D01*
X0619240Y0471650D02*
X0616340Y0473350D01*
X0600740Y0473350D01*
X0598340Y0475750D01*
X0598340Y0482640D01*
X0597430Y0483550D01*
X0597430Y0498550D01*
X0597430Y0504550D01*
X0592140Y0504550D01*
X0592140Y0524060D01*
X0597940Y0524060D01*
X0597940Y0529750D01*
X0595940Y0532150D01*
X0595940Y0562150D01*
X0597940Y0563550D01*
X0617940Y0563550D01*
X0616340Y0558550D02*
X0616340Y0557060D01*
X0616340Y0558550D02*
X0623540Y0558550D01*
X0623540Y0536950D01*
X0624740Y0538150D01*
X0633140Y0538150D01*
X0634220Y0537070D01*
X0634220Y0532950D01*
X0634220Y0527470D01*
X0634340Y0527350D01*
X0636740Y0527350D01*
X0637940Y0526150D01*
X0637940Y0521350D01*
X0640340Y0522550D01*
X0641540Y0523750D01*
X0641540Y0532590D01*
X0641900Y0532950D01*
X0644460Y0532950D02*
X0644460Y0538840D01*
X0642740Y0540550D01*
X0647540Y0545350D02*
X0645140Y0547750D01*
X0637980Y0547750D01*
X0636780Y0548950D01*
X0636780Y0532950D01*
X0629540Y0521350D02*
X0631660Y0517470D01*
X0631660Y0514150D01*
X0623990Y0532950D02*
X0623540Y0532950D01*
X0621430Y0532950D01*
X0623540Y0532950D02*
X0623540Y0536950D01*
X0616340Y0539350D02*
X0616340Y0546040D01*
X0609140Y0546040D01*
X0609140Y0552550D01*
X0603940Y0552550D01*
X0602740Y0548950D01*
X0602740Y0538950D02*
X0602740Y0519350D01*
X0616340Y0498550D02*
X0615140Y0497350D01*
X0616340Y0498550D02*
X0616340Y0504120D01*
X0616310Y0504160D01*
X0619240Y0471650D02*
X0619240Y0463390D01*
X0645740Y0521150D02*
X0645940Y0525950D01*
X0646940Y0525950D01*
X0646940Y0529350D01*
X0647020Y0532950D01*
X0649580Y0532950D02*
X0649940Y0532950D01*
X0649940Y0514550D01*
X0652340Y0536950D02*
X0648740Y0538150D01*
X0647540Y0539350D01*
X0647540Y0545350D01*
X0652340Y0536950D02*
X0657140Y0541750D01*
X0657140Y0552550D01*
X0658650Y0554060D01*
X0662940Y0554060D01*
X0663250Y0553750D01*
X0672740Y0553750D01*
X0672940Y0553550D01*
X0672940Y0544060D01*
X0663140Y0535750D02*
X0664940Y0533950D01*
X0664940Y0525440D01*
X0663140Y0535750D02*
X0663140Y0542840D01*
X0662940Y0543040D01*
X0653540Y0556150D02*
X0657140Y0559750D01*
X0657140Y0565750D01*
X0654740Y0568150D01*
X0650440Y0568150D01*
X0650040Y0568550D01*
X0653540Y0556150D02*
X0653540Y0544150D01*
X0636780Y0548950D02*
X0636780Y0554950D01*
X0629540Y0554950D01*
X0627140Y0557350D01*
X0627140Y0562250D01*
X0625840Y0563550D01*
X0627140Y0563550D01*
X0640540Y0583550D02*
X0640340Y0583750D01*
X0640540Y0583550D02*
X0650040Y0583550D01*
D436*
X0640340Y0583750D03*
X0653540Y0544150D03*
X0645740Y0521150D03*
X0649940Y0514550D03*
X0637940Y0521350D03*
X0642740Y0540550D03*
X0629540Y0521350D03*
X0628340Y0514150D03*
X0616340Y0539350D03*
X0615140Y0497350D03*
X0622540Y0476750D03*
X0628540Y0476950D03*
D498*
X0631840Y0483550D02*
X0608450Y0483550D01*
X0607940Y0483550D01*
X0607940Y0498550D01*
X0608450Y0498550D01*
X0607940Y0511660D02*
X0607940Y0513550D01*
X0597940Y0513550D01*
X0597940Y0513040D01*
X0617940Y0563550D02*
X0625840Y0563550D01*
X0617940Y0563550D02*
X0610140Y0578550D01*
X0610140Y0588550D02*
X0617940Y0588550D01*
X0622940Y0593550D01*
X0625840Y0593550D01*
X0625840Y0588550D02*
X0627940Y0588950D01*
X0632940Y0588950D01*
X0632940Y0603950D01*
X0627940Y0603950D01*
X0622940Y0608950D01*
X0622940Y0633950D01*
X0652940Y0633950D01*
X0662940Y0623950D01*
X0666040Y0621950D01*
X0656040Y0621950D02*
X0652940Y0623950D01*
X0647940Y0628950D01*
X0642940Y0628950D01*
X0637940Y0623950D01*
X0636040Y0621950D01*
X0635540Y0616550D01*
X0632940Y0613950D01*
X0631040Y0611950D01*
X0632940Y0608950D01*
X0647940Y0593950D01*
X0650040Y0593550D01*
X0647940Y0593950D02*
X0647940Y0588950D01*
X0650040Y0588550D01*
X0652940Y0588950D01*
X0672940Y0588950D01*
X0677940Y0583950D01*
X0677940Y0584060D01*
X0677940Y0583950D02*
X0682940Y0578950D01*
X0682940Y0533950D01*
X0672940Y0533950D01*
X0672940Y0533040D01*
X0672740Y0500950D01*
X0668140Y0500950D01*
X0668140Y0483890D01*
X0668140Y0483550D01*
X0635940Y0483550D01*
X0662940Y0553950D02*
X0662940Y0554060D01*
X0662940Y0568040D01*
X0662940Y0568950D01*
X0662940Y0578550D02*
X0650040Y0578550D01*
X0650040Y0573550D02*
X0677940Y0573550D01*
X0677940Y0573040D01*
X0662940Y0578550D02*
X0662940Y0579060D01*
X0651040Y0611950D02*
X0647940Y0613950D01*
X0647940Y0618950D01*
X0646040Y0621950D01*
X0625840Y0583550D02*
X0622940Y0583950D01*
X0617940Y0583950D01*
D527*
X0617940Y0583950D03*
M02*
